<?xml version="1.0" encoding="utf-8" standalone="no"?>
<!DOCTYPE svg PUBLIC "-//W3C//DTD SVG 1.1//EN"
  "http://www.w3.org/Graphics/SVG/1.1/DTD/svg11.dtd">
<svg xmlns:xlink="http://www.w3.org/1999/xlink" width="425.596395pt" height="418.203163pt" viewBox="0 0 425.596395 418.203163" xmlns="http://www.w3.org/2000/svg" version="1.1">
 <metadata>
  <rdf:RDF xmlns:dc="http://purl.org/dc/elements/1.1/" xmlns:cc="http://creativecommons.org/ns#" xmlns:rdf="http://www.w3.org/1999/02/22-rdf-syntax-ns#">
   <cc:Work>
    <dc:type rdf:resource="http://purl.org/dc/dcmitype/StillImage"/>
    <dc:date>2026-06-19T15:19:10.043543</dc:date>
    <dc:format>image/svg+xml</dc:format>
    <dc:creator>
     <cc:Agent>
      <dc:title>Matplotlib v3.11.0, https://matplotlib.org/</dc:title>
     </cc:Agent>
    </dc:creator>
   </cc:Work>
  </rdf:RDF>
 </metadata>
 <defs>
  <style type="text/css">*{stroke-linejoin: round; stroke-linecap: butt}</style>
 </defs>
 <g id="figure_1">
  <g id="patch_1">
   <path d="M 0 418.203163 
L 425.596395 418.203163 
L 425.596395 0 
L 0 0 
z
" style="fill: #ffffff"/>
  </g>
  <g id="axes_1">
   <g id="patch_2">
    <path d="M 378.386395 226.016773 
C 378.386395 202.831254 373.819353 179.871185 364.946639 158.450558 
C 356.073925 137.029932 343.068091 117.565325 326.673453 101.170687 
C 310.278815 84.776049 290.814208 71.770215 269.393582 62.897501 
C 247.972955 54.024787 225.012886 49.457745 201.827367 49.457745 
C 178.641848 49.457745 155.681779 54.024787 134.261152 62.897501 
C 112.840526 71.770215 93.375919 84.776049 76.981281 101.170687 
C 60.586643 117.565325 47.580809 137.029932 38.708095 158.450558 
C 29.835381 179.871185 25.268339 202.831254 25.268339 226.016773 
C 25.268339 249.202292 29.835381 272.162361 38.708095 293.582988 
C 47.580809 315.003614 60.586643 334.468221 76.981281 350.862859 
C 93.375919 367.257497 112.840526 380.263331 134.261152 389.136045 
C 155.681779 398.008759 178.641848 402.575801 201.827367 402.575801 
C 225.012886 402.575801 247.972955 398.008759 269.393582 389.136045 
C 290.814208 380.263331 310.278815 367.257497 326.673453 350.862859 
C 343.068091 334.468221 356.073925 315.003614 364.946639 293.582988 
C 373.819353 272.162361 378.386395 249.202292 378.386395 226.016773 
M 201.827367 226.016773 
C 201.827367 226.016773 201.827367 226.016773 201.827367 226.016773 
C 201.827367 226.016773 201.827367 226.016773 201.827367 226.016773 
C 201.827367 226.016773 201.827367 226.016773 201.827367 226.016773 
C 201.827367 226.016773 201.827367 226.016773 201.827367 226.016773 
C 201.827367 226.016773 201.827367 226.016773 201.827367 226.016773 
C 201.827367 226.016773 201.827367 226.016773 201.827367 226.016773 
C 201.827367 226.016773 201.827367 226.016773 201.827367 226.016773 
C 201.827367 226.016773 201.827367 226.016773 201.827367 226.016773 
C 201.827367 226.016773 201.827367 226.016773 201.827367 226.016773 
C 201.827367 226.016773 201.827367 226.016773 201.827367 226.016773 
C 201.827367 226.016773 201.827367 226.016773 201.827367 226.016773 
C 201.827367 226.016773 201.827367 226.016773 201.827367 226.016773 
C 201.827367 226.016773 201.827367 226.016773 201.827367 226.016773 
C 201.827367 226.016773 201.827367 226.016773 201.827367 226.016773 
C 201.827367 226.016773 201.827367 226.016773 201.827367 226.016773 
C 201.827367 226.016773 201.827367 226.016773 201.827367 226.016773 
z
" style="fill: #ffffff"/>
   </g>
   <g id="patch_3">
    <path d="M 334.246638 226.016773 
L 234.563211 125.266205 
L 80.414001 137.804799 
L 123.265777 283.095109 
L 240.019185 343.559103 
z
" clip-path="url(#p7b56377cba)" style="fill: #4b6f8a; opacity: 0.25; stroke: #4b6f8a; stroke-linejoin: miter"/>
   </g>
   <g id="matplotlib.axis_1">
    <g id="xtick_1">
     <g id="line2d_1">
      <path d="M 201.827367 226.016773 
L 378.386395 226.016773 
" clip-path="url(#p7b56377cba)" style="fill: none; stroke: #b0b0b0; stroke-width: 0.8; stroke-linecap: square"/>
     </g>
     <g id="text_1">
      <text style="font-size: 8px; font-family: 'Arial', 'Helvetica', 'Liberation Sans', 'DejaVu Sans', sans-serif; text-anchor: middle" x="392.386395" y="228.087086" transform="rotate(-0 392.386395 228.087086)">Material scope</text>
     </g>
    </g>
    <g id="xtick_2">
     <g id="line2d_2">
      <path d="M 201.827367 226.016773 
L 256.387107 58.099159 
" clip-path="url(#p7b56377cba)" style="fill: none; stroke: #b0b0b0; stroke-width: 0.8; stroke-linecap: square"/>
     </g>
     <g id="text_2">
      <text style="font-size: 8px; font-family: 'Arial', 'Helvetica', 'Liberation Sans', 'DejaVu Sans', sans-serif; text-anchor: middle" x="260.713345" y="46.85468" transform="rotate(-0 260.713345 46.85468)">Mechanism depth</text>
     </g>
    </g>
    <g id="xtick_3">
     <g id="line2d_3">
      <path d="M 201.827367 226.016773 
L 58.988113 122.23798 
" clip-path="url(#p7b56377cba)" style="fill: none; stroke: #b0b0b0; stroke-width: 0.8; stroke-linecap: square"/>
     </g>
     <g id="text_3">
      <text style="font-size: 8px; font-family: 'Arial', 'Helvetica', 'Liberation Sans', 'DejaVu Sans', sans-serif; text-anchor: middle" x="47.661875" y="116.079221" transform="rotate(-0 47.661875 116.079221)">Performance coverage</text>
     </g>
    </g>
    <g id="xtick_4">
     <g id="line2d_4">
      <path d="M 201.827367 226.016773 
L 58.988113 329.795566 
" clip-path="url(#p7b56377cba)" style="fill: none; stroke: #b0b0b0; stroke-width: 0.8; stroke-linecap: square"/>
     </g>
     <g id="text_4">
      <text style="font-size: 8px; font-family: 'Arial', 'Helvetica', 'Liberation Sans', 'DejaVu Sans', sans-serif; text-anchor: middle" x="47.661875" y="340.094794" transform="rotate(-0 47.661875 340.094794)">Durability evidence</text>
     </g>
    </g>
    <g id="xtick_5">
     <g id="line2d_5">
      <path d="M 201.827367 226.016773 
L 256.387107 393.934387 
" clip-path="url(#p7b56377cba)" style="fill: none; stroke: #b0b0b0; stroke-width: 0.8; stroke-linecap: square"/>
     </g>
     <g id="text_5">
      <text style="font-size: 8px; font-family: 'Arial', 'Helvetica', 'Liberation Sans', 'DejaVu Sans', sans-serif; text-anchor: middle" x="260.713345" y="409.319413" transform="rotate(-0 260.713345 409.319413)">Gap clarity</text>
     </g>
    </g>
   </g>
   <g id="matplotlib.axis_2">
    <g id="ytick_1">
     <g id="line2d_6">
      <path d="M 237.139172 226.016773 
C 237.139172 221.379669 236.225764 216.787655 234.451221 212.50353 
C 232.676679 208.219405 230.075512 204.326483 226.796584 201.047556 
C 223.517657 197.768628 219.624735 195.167461 215.34061 193.392919 
C 211.056485 191.618376 206.464471 190.704967 201.827367 190.704967 
C 197.190263 190.704967 192.598249 191.618376 188.314124 193.392919 
C 184.029999 195.167461 180.137077 197.768628 176.85815 201.047556 
C 173.579222 204.326483 170.978055 208.219405 169.203513 212.50353 
C 167.42897 216.787655 166.515561 221.379669 166.515561 226.016773 
C 166.515561 230.653877 167.42897 235.245891 169.203513 239.530016 
C 170.978055 243.814141 173.579222 247.707063 176.85815 250.98599 
C 180.137077 254.264918 184.029999 256.866085 188.314124 258.640627 
C 192.598249 260.41517 197.190263 261.328579 201.827367 261.328579 
C 206.464471 261.328579 211.056485 260.41517 215.34061 258.640627 
C 219.624735 256.866085 223.517657 254.264918 226.796584 250.98599 
C 230.075512 247.707063 232.676679 243.814141 234.451221 239.530016 
C 236.225764 235.245891 237.139172 230.653877 237.139172 226.016773 
" clip-path="url(#p7b56377cba)" style="fill: none; stroke: #b0b0b0; stroke-width: 0.8; stroke-linecap: square"/>
     </g>
     <g id="text_6">
      <text style="font-size: 9px; font-family: 'Arial', 'Helvetica', 'Liberation Sans', 'DejaVu Sans', sans-serif; text-anchor: start" x="234.451221" y="210.609487" transform="rotate(-0 234.451221 210.609487)">0.2</text>
     </g>
    </g>
    <g id="ytick_2">
     <g id="line2d_7">
      <path d="M 272.450978 226.016773 
C 272.450978 216.742565 270.624161 207.558538 267.075076 198.990287 
C 263.52599 190.422036 258.323656 182.636194 251.765801 176.078339 
C 245.207946 169.520484 237.422103 164.31815 228.853853 160.769064 
C 220.285602 157.219979 211.101575 155.393162 201.827367 155.393162 
C 192.553159 155.393162 183.369132 157.219979 174.800881 160.769064 
C 166.23263 164.31815 158.446788 169.520484 151.888933 176.078339 
C 145.331077 182.636194 140.128744 190.422036 136.579658 198.990287 
C 133.030572 207.558538 131.203756 216.742565 131.203756 226.016773 
C 131.203756 235.290981 133.030572 244.475008 136.579658 253.043259 
C 140.128744 261.61151 145.331077 269.397352 151.888933 275.955207 
C 158.446788 282.513062 166.23263 287.715396 174.800881 291.264482 
C 183.369132 294.813567 192.553159 296.640384 201.827367 296.640384 
C 211.101575 296.640384 220.285602 294.813567 228.853853 291.264482 
C 237.422103 287.715396 245.207946 282.513062 251.765801 275.955207 
C 258.323656 269.397352 263.52599 261.61151 267.075076 253.043259 
C 270.624161 244.475008 272.450978 235.290981 272.450978 226.016773 
" clip-path="url(#p7b56377cba)" style="fill: none; stroke: #b0b0b0; stroke-width: 0.8; stroke-linecap: square"/>
     </g>
     <g id="text_7">
      <text style="font-size: 9px; font-family: 'Arial', 'Helvetica', 'Liberation Sans', 'DejaVu Sans', sans-serif; text-anchor: start" x="267.075076" y="197.096244" transform="rotate(-0 267.075076 197.096244)">0.4</text>
     </g>
    </g>
    <g id="ytick_3">
     <g id="line2d_8">
      <path d="M 307.762784 226.016773 
C 307.762784 212.105462 305.022559 198.32942 299.69893 185.477044 
C 294.375302 172.624668 286.571801 160.945904 276.735018 151.109122 
C 266.898236 141.272339 255.219472 133.468838 242.367096 128.14521 
C 229.51472 122.821581 215.738678 120.081356 201.827367 120.081356 
C 187.916055 120.081356 174.140014 122.821581 161.287638 128.14521 
C 148.435262 133.468838 136.756498 141.272339 126.919715 151.109122 
C 117.082933 160.945904 109.279432 172.624668 103.955804 185.477044 
C 98.632175 198.32942 95.89195 212.105462 95.89195 226.016773 
C 95.89195 239.928084 98.632175 253.704126 103.955804 266.556502 
C 109.279432 279.408878 117.082933 291.087642 126.919715 300.924425 
C 136.756498 310.761207 148.435262 318.564708 161.287638 323.888336 
C 174.140014 329.211965 187.916055 331.95219 201.827367 331.95219 
C 215.738678 331.95219 229.51472 329.211965 242.367096 323.888336 
C 255.219472 318.564708 266.898236 310.761207 276.735018 300.924425 
C 286.571801 291.087642 294.375302 279.408878 299.69893 266.556502 
C 305.022559 253.704126 307.762784 239.928084 307.762784 226.016773 
" clip-path="url(#p7b56377cba)" style="fill: none; stroke: #b0b0b0; stroke-width: 0.8; stroke-linecap: square"/>
     </g>
     <g id="text_8">
      <text style="font-size: 9px; font-family: 'Arial', 'Helvetica', 'Liberation Sans', 'DejaVu Sans', sans-serif; text-anchor: start" x="299.69893" y="183.583001" transform="rotate(-0 299.69893 183.583001)">0.6</text>
     </g>
    </g>
    <g id="ytick_4">
     <g id="line2d_9">
      <path d="M 343.074589 226.016773 
C 343.074589 207.468358 339.420956 189.100302 332.322785 171.963801 
C 325.224613 154.8273 314.819946 139.255615 301.704236 126.139904 
C 288.588525 113.024194 273.01684 102.619527 255.880339 95.521355 
C 238.743837 88.423184 220.375782 84.769551 201.827367 84.769551 
C 183.278952 84.769551 164.910896 88.423184 147.774395 95.521355 
C 130.637894 102.619527 115.066208 113.024194 101.950498 126.139904 
C 88.834788 139.255615 78.43012 154.8273 71.331949 171.963801 
C 64.233778 189.100302 60.580145 207.468358 60.580145 226.016773 
C 60.580145 244.565188 64.233778 262.933244 71.331949 280.069745 
C 78.43012 297.206246 88.834788 312.777931 101.950498 325.893642 
C 115.066208 339.009352 130.637894 349.414019 147.774395 356.512191 
C 164.910896 363.610362 183.278952 367.263995 201.827367 367.263995 
C 220.375782 367.263995 238.743837 363.610362 255.880339 356.512191 
C 273.01684 349.414019 288.588525 339.009352 301.704236 325.893642 
C 314.819946 312.777931 325.224613 297.206246 332.322785 280.069745 
C 339.420956 262.933244 343.074589 244.565188 343.074589 226.016773 
" clip-path="url(#p7b56377cba)" style="fill: none; stroke: #b0b0b0; stroke-width: 0.8; stroke-linecap: square"/>
     </g>
     <g id="text_9">
      <text style="font-size: 9px; font-family: 'Arial', 'Helvetica', 'Liberation Sans', 'DejaVu Sans', sans-serif; text-anchor: start" x="332.322785" y="170.069758" transform="rotate(-0 332.322785 170.069758)">0.8</text>
     </g>
    </g>
    <g id="ytick_5">
     <g id="line2d_10">
      <path d="M 378.386395 226.016773 
C 378.386395 202.831254 373.819353 179.871185 364.946639 158.450558 
C 356.073925 137.029932 343.068091 117.565325 326.673453 101.170687 
C 310.278815 84.776049 290.814208 71.770215 269.393582 62.897501 
C 247.972955 54.024787 225.012886 49.457745 201.827367 49.457745 
C 178.641848 49.457745 155.681779 54.024787 134.261152 62.897501 
C 112.840526 71.770215 93.375919 84.776049 76.981281 101.170687 
C 60.586643 117.565325 47.580809 137.029932 38.708095 158.450558 
C 29.835381 179.871185 25.268339 202.831254 25.268339 226.016773 
C 25.268339 249.202292 29.835381 272.162361 38.708095 293.582988 
C 47.580809 315.003614 60.586643 334.468221 76.981281 350.862859 
C 93.375919 367.257497 112.840526 380.263331 134.261152 389.136045 
C 155.681779 398.008759 178.641848 402.575801 201.827367 402.575801 
C 225.012886 402.575801 247.972955 398.008759 269.393582 389.136045 
C 290.814208 380.263331 310.278815 367.257497 326.673453 350.862859 
C 343.068091 334.468221 356.073925 315.003614 364.946639 293.582988 
C 373.819353 272.162361 378.386395 249.202292 378.386395 226.016773 
" clip-path="url(#p7b56377cba)" style="fill: none; stroke: #b0b0b0; stroke-width: 0.8; stroke-linecap: square"/>
     </g>
     <g id="text_10">
      <text style="font-size: 9px; font-family: 'Arial', 'Helvetica', 'Liberation Sans', 'DejaVu Sans', sans-serif; text-anchor: start" x="364.946639" y="156.556515" transform="rotate(-0 364.946639 156.556515)">1.0</text>
     </g>
    </g>
   </g>
   <g id="line2d_11">
    <path d="M 334.246638 226.016773 
L 234.563211 125.266205 
L 80.414001 137.804799 
L 123.265777 283.095109 
L 240.019185 343.559103 
L 334.246638 226.016773 
" clip-path="url(#p7b56377cba)" style="fill: none; stroke: #4b6f8a; stroke-width: 2; stroke-linecap: square"/>
    <defs>
     <path id="m5d7214e8cd" d="M 0 3 
C 0.795609 3 1.55874 2.683901 2.12132 2.12132 
C 2.683901 1.55874 3 0.795609 3 0 
C 3 -0.795609 2.683901 -1.55874 2.12132 -2.12132 
C 1.55874 -2.683901 0.795609 -3 0 -3 
C -0.795609 -3 -1.55874 -2.683901 -2.12132 -2.12132 
C -2.683901 -1.55874 -3 -0.795609 -3 0 
C -3 0.795609 -2.683901 1.55874 -2.12132 2.12132 
C -1.55874 2.683901 -0.795609 3 0 3 
z
" style="stroke: #4b6f8a"/>
    </defs>
    <g clip-path="url(#p7b56377cba)">
     <use xlink:href="#m5d7214e8cd" x="334.246638" y="226.016773" style="fill: #4b6f8a; stroke: #4b6f8a"/>
     <use xlink:href="#m5d7214e8cd" x="234.563211" y="125.266205" style="fill: #4b6f8a; stroke: #4b6f8a"/>
     <use xlink:href="#m5d7214e8cd" x="80.414001" y="137.804799" style="fill: #4b6f8a; stroke: #4b6f8a"/>
     <use xlink:href="#m5d7214e8cd" x="123.265777" y="283.095109" style="fill: #4b6f8a; stroke: #4b6f8a"/>
     <use xlink:href="#m5d7214e8cd" x="240.019185" y="343.559103" style="fill: #4b6f8a; stroke: #4b6f8a"/>
     <use xlink:href="#m5d7214e8cd" x="334.246638" y="226.016773" style="fill: #4b6f8a; stroke: #4b6f8a"/>
    </g>
   </g>
   <g id="patch_4">
    <path d="M 378.386395 226.016773 
C 378.386395 202.831254 373.819353 179.871185 364.946639 158.450558 
C 356.073925 137.029932 343.068091 117.565325 326.673453 101.170687 
C 310.278815 84.776049 290.814208 71.770215 269.393582 62.897501 
C 247.972955 54.024787 225.012886 49.457745 201.827367 49.457745 
C 178.641848 49.457745 155.681779 54.024787 134.261152 62.897501 
C 112.840526 71.770215 93.375919 84.776049 76.981281 101.170687 
C 60.586643 117.565325 47.580809 137.029932 38.708095 158.450558 
C 29.835381 179.871185 25.268339 202.831254 25.268339 226.016773 
C 25.268339 249.202292 29.835381 272.162361 38.708095 293.582988 
C 47.580809 315.003614 60.586643 334.468221 76.981281 350.862859 
C 93.375919 367.257497 112.840526 380.263331 134.261152 389.136045 
C 155.681779 398.008759 178.641848 402.575801 201.827367 402.575801 
C 225.012886 402.575801 247.972955 398.008759 269.393582 389.136045 
C 290.814208 380.263331 310.278815 367.257497 326.673453 350.862859 
C 343.068091 334.468221 356.073925 315.003614 364.946639 293.582988 
C 373.819353 272.162361 378.386395 249.202292 378.386395 226.016773 
" style="fill: none; stroke: #000000; stroke-width: 1.5; stroke-linejoin: miter; stroke-linecap: square"/>
   </g>
   <g id="text_11">
    <text style="font-size: 11px; font-family: 'Arial', 'Helvetica', 'Liberation Sans', 'DejaVu Sans', sans-serif; text-anchor: middle" x="201.827367" y="15.208301" transform="rotate(-0 201.827367 15.208301)">Review framework map</text>
   </g>
  </g>
 </g>
 <defs>
  <clipPath id="p7b56377cba">
   <path d="M 378.386395 226.016773 
C 378.386395 202.831254 373.819353 179.871185 364.946639 158.450558 
C 356.073925 137.029932 343.068091 117.565325 326.673453 101.170687 
C 310.278815 84.776049 290.814208 71.770215 269.393582 62.897501 
C 247.972955 54.024787 225.012886 49.457745 201.827367 49.457745 
C 178.641848 49.457745 155.681779 54.024787 134.261152 62.897501 
C 112.840526 71.770215 93.375919 84.776049 76.981281 101.170687 
C 60.586643 117.565325 47.580809 137.029932 38.708095 158.450558 
C 29.835381 179.871185 25.268339 202.831254 25.268339 226.016773 
C 25.268339 249.202292 29.835381 272.162361 38.708095 293.582988 
C 47.580809 315.003614 60.586643 334.468221 76.981281 350.862859 
C 93.375919 367.257497 112.840526 380.263331 134.261152 389.136045 
C 155.681779 398.008759 178.641848 402.575801 201.827367 402.575801 
C 225.012886 402.575801 247.972955 398.008759 269.393582 389.136045 
C 290.814208 380.263331 310.278815 367.257497 326.673453 350.862859 
C 343.068091 334.468221 356.073925 315.003614 364.946639 293.582988 
C 373.819353 272.162361 378.386395 249.202292 378.386395 226.016773 
M 201.827367 226.016773 
C 201.827367 226.016773 201.827367 226.016773 201.827367 226.016773 
C 201.827367 226.016773 201.827367 226.016773 201.827367 226.016773 
C 201.827367 226.016773 201.827367 226.016773 201.827367 226.016773 
C 201.827367 226.016773 201.827367 226.016773 201.827367 226.016773 
C 201.827367 226.016773 201.827367 226.016773 201.827367 226.016773 
C 201.827367 226.016773 201.827367 226.016773 201.827367 226.016773 
C 201.827367 226.016773 201.827367 226.016773 201.827367 226.016773 
C 201.827367 226.016773 201.827367 226.016773 201.827367 226.016773 
C 201.827367 226.016773 201.827367 226.016773 201.827367 226.016773 
C 201.827367 226.016773 201.827367 226.016773 201.827367 226.016773 
C 201.827367 226.016773 201.827367 226.016773 201.827367 226.016773 
C 201.827367 226.016773 201.827367 226.016773 201.827367 226.016773 
C 201.827367 226.016773 201.827367 226.016773 201.827367 226.016773 
C 201.827367 226.016773 201.827367 226.016773 201.827367 226.016773 
C 201.827367 226.016773 201.827367 226.016773 201.827367 226.016773 
C 201.827367 226.016773 201.827367 226.016773 201.827367 226.016773 
z
"/>
  </clipPath>
 </defs>
</svg>
