<?xml version="1.0" encoding="utf-8" standalone="no"?>
<!DOCTYPE svg PUBLIC "-//W3C//DTD SVG 1.1//EN"
  "http://www.w3.org/Graphics/SVG/1.1/DTD/svg11.dtd">
<svg xmlns:xlink="http://www.w3.org/1999/xlink" width="493.694375pt" height="266.590781pt" viewBox="0 0 493.694375 266.590781" xmlns="http://www.w3.org/2000/svg" version="1.1">
 <metadata>
  <rdf:RDF xmlns:dc="http://purl.org/dc/elements/1.1/" xmlns:cc="http://creativecommons.org/ns#" xmlns:rdf="http://www.w3.org/1999/02/22-rdf-syntax-ns#">
   <cc:Work>
    <dc:type rdf:resource="http://purl.org/dc/dcmitype/StillImage"/>
    <dc:date>2026-06-14T20:11:04.030550</dc:date>
    <dc:format>image/svg+xml</dc:format>
    <dc:creator>
     <cc:Agent>
      <dc:title>Matplotlib v3.10.9, https://matplotlib.org/</dc:title>
     </cc:Agent>
    </dc:creator>
   </cc:Work>
  </rdf:RDF>
 </metadata>
 <defs>
  <style type="text/css">*{stroke-linejoin: round; stroke-linecap: butt}</style>
 </defs>
 <g id="figure_1">
  <g id="patch_1">
   <path d="M 0 266.590781 
L 493.694375 266.590781 
L 493.694375 0 
L 0 0 
z
" style="fill: #ffffff"/>
  </g>
  <g id="axes_1">
   <g id="patch_2">
    <path d="M 40.094375 228.96 
L 486.494375 228.96 
L 486.494375 7.2 
L 40.094375 7.2 
z
" style="fill: #ffffff"/>
   </g>
   <g id="matplotlib.axis_1">
    <g id="xtick_1">
     <g id="line2d_1">
      <defs>
       <path id="m91b53f0ed6" d="M 0 0 
L 0 3.5 
" style="stroke: #000000; stroke-width: 1.2"/>
      </defs>
      <g>
       <use xlink:href="#m91b53f0ed6" x="454.930739" y="228.96" style="stroke: #000000; stroke-width: 1.2"/>
      </g>
     </g>
     <g id="text_1">
      <text style="font-size: 9px; font-family: 'Arial', 'Helvetica', 'Liberation Sans', 'DejaVu Sans', sans-serif; text-anchor: middle" x="454.930739" y="242.402031" transform="rotate(-0 454.930739 242.402031)">500</text>
     </g>
    </g>
    <g id="xtick_2">
     <g id="line2d_2">
      <g>
       <use xlink:href="#m91b53f0ed6" x="398.567102" y="228.96" style="stroke: #000000; stroke-width: 1.2"/>
      </g>
     </g>
     <g id="text_2">
      <text style="font-size: 9px; font-family: 'Arial', 'Helvetica', 'Liberation Sans', 'DejaVu Sans', sans-serif; text-anchor: middle" x="398.567102" y="242.402031" transform="rotate(-0 398.567102 242.402031)">1000</text>
     </g>
    </g>
    <g id="xtick_3">
     <g id="line2d_3">
      <g>
       <use xlink:href="#m91b53f0ed6" x="342.203466" y="228.96" style="stroke: #000000; stroke-width: 1.2"/>
      </g>
     </g>
     <g id="text_3">
      <text style="font-size: 9px; font-family: 'Arial', 'Helvetica', 'Liberation Sans', 'DejaVu Sans', sans-serif; text-anchor: middle" x="342.203466" y="242.402031" transform="rotate(-0 342.203466 242.402031)">1500</text>
     </g>
    </g>
    <g id="xtick_4">
     <g id="line2d_4">
      <g>
       <use xlink:href="#m91b53f0ed6" x="285.83983" y="228.96" style="stroke: #000000; stroke-width: 1.2"/>
      </g>
     </g>
     <g id="text_4">
      <text style="font-size: 9px; font-family: 'Arial', 'Helvetica', 'Liberation Sans', 'DejaVu Sans', sans-serif; text-anchor: middle" x="285.83983" y="242.402031" transform="rotate(-0 285.83983 242.402031)">2000</text>
     </g>
    </g>
    <g id="xtick_5">
     <g id="line2d_5">
      <g>
       <use xlink:href="#m91b53f0ed6" x="229.476193" y="228.96" style="stroke: #000000; stroke-width: 1.2"/>
      </g>
     </g>
     <g id="text_5">
      <text style="font-size: 9px; font-family: 'Arial', 'Helvetica', 'Liberation Sans', 'DejaVu Sans', sans-serif; text-anchor: middle" x="229.476193" y="242.402031" transform="rotate(-0 229.476193 242.402031)">2500</text>
     </g>
    </g>
    <g id="xtick_6">
     <g id="line2d_6">
      <g>
       <use xlink:href="#m91b53f0ed6" x="173.112557" y="228.96" style="stroke: #000000; stroke-width: 1.2"/>
      </g>
     </g>
     <g id="text_6">
      <text style="font-size: 9px; font-family: 'Arial', 'Helvetica', 'Liberation Sans', 'DejaVu Sans', sans-serif; text-anchor: middle" x="173.112557" y="242.402031" transform="rotate(-0 173.112557 242.402031)">3000</text>
     </g>
    </g>
    <g id="xtick_7">
     <g id="line2d_7">
      <g>
       <use xlink:href="#m91b53f0ed6" x="116.74892" y="228.96" style="stroke: #000000; stroke-width: 1.2"/>
      </g>
     </g>
     <g id="text_7">
      <text style="font-size: 9px; font-family: 'Arial', 'Helvetica', 'Liberation Sans', 'DejaVu Sans', sans-serif; text-anchor: middle" x="116.74892" y="242.402031" transform="rotate(-0 116.74892 242.402031)">3500</text>
     </g>
    </g>
    <g id="xtick_8">
     <g id="line2d_8">
      <g>
       <use xlink:href="#m91b53f0ed6" x="60.385284" y="228.96" style="stroke: #000000; stroke-width: 1.2"/>
      </g>
     </g>
     <g id="text_8">
      <text style="font-size: 9px; font-family: 'Arial', 'Helvetica', 'Liberation Sans', 'DejaVu Sans', sans-serif; text-anchor: middle" x="60.385284" y="242.402031" transform="rotate(-0 60.385284 242.402031)">4000</text>
     </g>
    </g>
    <g id="text_9">
     <!-- Wavenumber (cm$^{-1}$) -->
     <g transform="translate(216.794375 257.190781)">
      <text>
       <tspan x="0" y="-0.064063" style="font-size: 10px; font-family: 'Arial'">W</tspan>
       <tspan x="9.438477" y="-0.064063" style="font-size: 10px; font-family: 'Arial'">a</tspan>
       <tspan x="15" y="-0.064063" style="font-size: 10px; font-family: 'Arial'">v</tspan>
       <tspan x="20" y="-0.064063" style="font-size: 10px; font-family: 'Arial'">e</tspan>
       <tspan x="25.561523" y="-0.064063" style="font-size: 10px; font-family: 'Arial'">n</tspan>
       <tspan x="31.123047" y="-0.064063" style="font-size: 10px; font-family: 'Arial'">u</tspan>
       <tspan x="36.68457" y="-0.064063" style="font-size: 10px; font-family: 'Arial'">m</tspan>
       <tspan x="45.014648" y="-0.064063" style="font-size: 10px; font-family: 'Arial'">b</tspan>
       <tspan x="50.576172" y="-0.064063" style="font-size: 10px; font-family: 'Arial'">e</tspan>
       <tspan x="56.137695" y="-0.064063" style="font-size: 10px; font-family: 'Arial'">r</tspan>
       <tspan x="59.467773" y="-0.064063" style="font-size: 10px; font-family: 'Arial'"> </tspan>
       <tspan x="62.246094" y="-0.064063" style="font-size: 10px; font-family: 'Arial'">(</tspan>
       <tspan x="65.576172" y="-0.064063" style="font-size: 10px; font-family: 'Arial'">c</tspan>
       <tspan x="70.576172" y="-0.064063" style="font-size: 10px; font-family: 'Arial'">m</tspan>
       <tspan x="89.594238" y="-0.064063" style="font-size: 10px; font-family: 'Arial'">)</tspan>
       <tspan x="79.001953" y="-3.892188" style="font-size: 7px; font-family: 'DejaVu Sans'">−</tspan>
       <tspan x="84.867188" y="-3.892188" style="font-size: 7px; font-family: 'DejaVu Sans'">1</tspan>
      </text>
     </g>
    </g>
   </g>
   <g id="matplotlib.axis_2">
    <g id="ytick_1">
     <g id="line2d_9">
      <defs>
       <path id="m69531a882e" d="M 0 0 
L -3.5 0 
" style="stroke: #000000; stroke-width: 1.2"/>
      </defs>
      <g>
       <use xlink:href="#m69531a882e" x="40.094375" y="219.351102" style="stroke: #000000; stroke-width: 1.2"/>
      </g>
     </g>
     <g id="text_10">
      <text style="font-size: 9px; font-family: 'Arial', 'Helvetica', 'Liberation Sans', 'DejaVu Sans', sans-serif; text-anchor: end" x="33.094375" y="222.572118" transform="rotate(-0 33.094375 222.572118)">0.0</text>
     </g>
    </g>
    <g id="ytick_2">
     <g id="line2d_10">
      <g>
       <use xlink:href="#m69531a882e" x="40.094375" y="188.665863" style="stroke: #000000; stroke-width: 1.2"/>
      </g>
     </g>
     <g id="text_11">
      <text style="font-size: 9px; font-family: 'Arial', 'Helvetica', 'Liberation Sans', 'DejaVu Sans', sans-serif; text-anchor: end" x="33.094375" y="191.886879" transform="rotate(-0 33.094375 191.886879)">0.2</text>
     </g>
    </g>
    <g id="ytick_3">
     <g id="line2d_11">
      <g>
       <use xlink:href="#m69531a882e" x="40.094375" y="157.980624" style="stroke: #000000; stroke-width: 1.2"/>
      </g>
     </g>
     <g id="text_12">
      <text style="font-size: 9px; font-family: 'Arial', 'Helvetica', 'Liberation Sans', 'DejaVu Sans', sans-serif; text-anchor: end" x="33.094375" y="161.201639" transform="rotate(-0 33.094375 161.201639)">0.4</text>
     </g>
    </g>
    <g id="ytick_4">
     <g id="line2d_12">
      <g>
       <use xlink:href="#m69531a882e" x="40.094375" y="127.295385" style="stroke: #000000; stroke-width: 1.2"/>
      </g>
     </g>
     <g id="text_13">
      <text style="font-size: 9px; font-family: 'Arial', 'Helvetica', 'Liberation Sans', 'DejaVu Sans', sans-serif; text-anchor: end" x="33.094375" y="130.5164" transform="rotate(-0 33.094375 130.5164)">0.6</text>
     </g>
    </g>
    <g id="ytick_5">
     <g id="line2d_13">
      <g>
       <use xlink:href="#m69531a882e" x="40.094375" y="96.610145" style="stroke: #000000; stroke-width: 1.2"/>
      </g>
     </g>
     <g id="text_14">
      <text style="font-size: 9px; font-family: 'Arial', 'Helvetica', 'Liberation Sans', 'DejaVu Sans', sans-serif; text-anchor: end" x="33.094375" y="99.831161" transform="rotate(-0 33.094375 99.831161)">0.8</text>
     </g>
    </g>
    <g id="ytick_6">
     <g id="line2d_14">
      <g>
       <use xlink:href="#m69531a882e" x="40.094375" y="65.924906" style="stroke: #000000; stroke-width: 1.2"/>
      </g>
     </g>
     <g id="text_15">
      <text style="font-size: 9px; font-family: 'Arial', 'Helvetica', 'Liberation Sans', 'DejaVu Sans', sans-serif; text-anchor: end" x="33.094375" y="69.145922" transform="rotate(-0 33.094375 69.145922)">1.0</text>
     </g>
    </g>
    <g id="ytick_7">
     <g id="line2d_15">
      <g>
       <use xlink:href="#m69531a882e" x="40.094375" y="35.239667" style="stroke: #000000; stroke-width: 1.2"/>
      </g>
     </g>
     <g id="text_16">
      <text style="font-size: 9px; font-family: 'Arial', 'Helvetica', 'Liberation Sans', 'DejaVu Sans', sans-serif; text-anchor: end" x="33.094375" y="38.460683" transform="rotate(-0 33.094375 38.460683)">1.2</text>
     </g>
    </g>
    <g id="text_17">
     <text style="font-size: 10px; font-family: 'Arial', 'Helvetica', 'Liberation Sans', 'DejaVu Sans', sans-serif; text-anchor: middle" x="14.479688" y="118.08" transform="rotate(-90 14.479688 118.08)">Absorbance (a.u.)</text>
    </g>
   </g>
   <g id="line2d_16">
    <path d="M 466.203466 211.561084 
L 465.076193 212.352737 
L 462.821648 210.338197 
L 461.694375 212.507255 
L 460.567102 212.519509 
L 459.43983 210.30606 
L 458.312557 211.314718 
L 457.185284 212.845186 
L 456.058011 211.61528 
L 454.930739 212.8623 
L 453.803466 212.877412 
L 452.676193 212.021059 
L 451.54892 214.678698 
L 450.421648 214.459774 
L 449.294375 213.045025 
L 448.167102 213.6103 
L 447.03983 211.993706 
L 445.912557 213.506207 
L 444.785284 214.137439 
L 443.658011 210.617287 
L 442.530739 212.705632 
L 441.403466 212.357902 
L 440.276193 214.20181 
L 439.14892 213.133515 
L 438.021648 212.341461 
L 436.894375 213.902623 
L 435.767102 212.041021 
L 434.63983 213.251661 
L 433.512557 212.884733 
L 432.385284 213.27752 
L 431.258011 210.277749 
L 430.130739 212.580094 
L 429.003466 213.874046 
L 427.876193 211.578476 
L 426.74892 214.098824 
L 425.621648 212.35626 
L 424.494375 215.03018 
L 423.367102 214.267026 
L 422.23983 212.40471 
L 421.112557 211.735123 
L 419.985284 212.361212 
L 418.858011 212.423236 
L 417.730739 211.820863 
L 416.603466 211.533241 
L 415.476193 208.013908 
L 413.221648 202.194885 
L 412.094375 204.107497 
L 410.967102 209.134216 
L 409.83983 208.972514 
L 408.712557 211.234608 
L 407.585284 211.843218 
L 406.458011 209.629876 
L 404.203466 206.010463 
L 403.076193 205.646407 
L 401.94892 201.885077 
L 399.694375 193.046464 
L 398.567102 191.28992 
L 397.43983 187.957408 
L 396.312557 187.042091 
L 395.185284 186.273167 
L 394.058011 184.154571 
L 392.930739 184.920113 
L 391.803466 188.879098 
L 390.676193 190.121409 
L 388.421648 196.697668 
L 387.294375 196.882062 
L 386.167102 196.161696 
L 385.03983 198.21992 
L 383.912557 195.993098 
L 382.785284 200.739481 
L 381.658011 196.254802 
L 379.403466 198.225576 
L 378.276193 198.745721 
L 377.14892 202.715078 
L 376.021648 202.259297 
L 374.894375 203.411601 
L 373.767102 203.89148 
L 372.63983 208.065961 
L 371.512557 209.927791 
L 370.385284 210.793407 
L 369.258011 210.025987 
L 367.003466 213.030867 
L 365.876193 212.07287 
L 364.74892 212.715491 
L 363.621648 211.510363 
L 362.494375 212.978216 
L 361.367102 211.236466 
L 360.23983 209.169485 
L 359.112557 207.65512 
L 357.985284 202.657099 
L 356.858011 200.803073 
L 355.730739 200.809406 
L 354.603466 202.211112 
L 353.476193 205.19896 
L 352.34892 204.729223 
L 351.221648 203.845269 
L 350.094375 202.161348 
L 348.967102 198.48483 
L 347.83983 195.411051 
L 346.712557 192.707633 
L 345.585284 195.844628 
L 344.458011 198.435934 
L 343.330739 202.432773 
L 342.203466 208.306931 
L 341.076193 208.974856 
L 339.94892 210.979838 
L 338.821648 209.324139 
L 337.694375 213.280026 
L 336.567102 213.007104 
L 335.43983 213.564375 
L 334.312557 215.014461 
L 333.185284 212.197582 
L 332.058011 212.674653 
L 330.930739 212.595018 
L 329.803466 214.597698 
L 328.676193 211.57729 
L 327.54892 214.667089 
L 325.294375 208.609658 
L 324.167102 210.964987 
L 323.03983 208.278734 
L 321.912557 204.677278 
L 320.785284 202.14948 
L 319.658011 199.975551 
L 318.530739 194.763766 
L 317.403466 193.643478 
L 316.276193 190.387085 
L 315.14892 192.109162 
L 314.021648 190.474014 
L 312.894375 195.870664 
L 311.767102 198.553472 
L 310.63983 200.643457 
L 309.512557 206.445381 
L 308.385284 207.464031 
L 307.258011 208.328905 
L 306.130739 213.479944 
L 305.003466 212.327992 
L 303.876193 212.885219 
L 302.74892 212.621792 
L 301.621648 215.306673 
L 300.494375 215.518424 
L 299.367102 213.314436 
L 298.23983 213.622445 
L 297.112557 213.699767 
L 295.985284 213.597305 
L 294.858011 214.870566 
L 293.730739 213.763463 
L 292.603466 213.701201 
L 291.476193 214.950031 
L 290.34892 211.795443 
L 289.221648 213.516201 
L 288.094375 215.57228 
L 286.967102 213.316477 
L 285.83983 215.330945 
L 284.712557 213.18081 
L 283.585284 212.737088 
L 282.458011 215.178747 
L 281.330739 213.001251 
L 280.203466 213.689331 
L 279.076193 213.199252 
L 277.94892 211.892388 
L 276.821648 214.533996 
L 275.694375 215.170221 
L 274.567102 215.349151 
L 273.43983 215.27096 
L 272.312557 214.376536 
L 271.185284 213.875442 
L 270.058011 213.966836 
L 268.930739 213.30343 
L 267.803466 214.315038 
L 266.676193 212.55919 
L 265.54892 214.680388 
L 264.421648 211.029058 
L 263.294375 213.612143 
L 262.167102 215.444451 
L 261.03983 215.719065 
L 259.912557 213.824724 
L 258.785284 214.70347 
L 257.658011 213.565093 
L 256.530739 213.872882 
L 255.403466 214.555403 
L 253.14892 216.349898 
L 252.021648 215.050891 
L 250.894375 213.463956 
L 249.767102 214.264602 
L 248.63983 216.068688 
L 247.512557 214.339367 
L 246.385284 214.091263 
L 245.258011 215.661334 
L 244.130739 214.400069 
L 243.003466 214.529581 
L 241.876193 216.016194 
L 240.74892 214.186424 
L 239.621648 213.949537 
L 238.494375 213.320776 
L 237.367102 213.36895 
L 236.23983 216.365634 
L 235.112557 215.838036 
L 233.985284 214.067049 
L 231.730739 214.091542 
L 230.603466 210.007057 
L 229.476193 214.047384 
L 228.34892 213.366356 
L 227.221648 213.601072 
L 226.094375 213.983999 
L 224.967102 215.181333 
L 223.83983 213.872492 
L 222.712557 215.760327 
L 221.585284 215.106751 
L 220.458011 215.410566 
L 219.330739 214.704067 
L 218.203466 211.939009 
L 217.076193 217.025405 
L 215.94892 213.811397 
L 214.821648 216.504357 
L 213.694375 214.904706 
L 212.567102 212.690171 
L 210.312557 214.298197 
L 209.185284 212.999902 
L 208.058011 210.134256 
L 206.930739 210.34156 
L 205.803466 207.213751 
L 203.54892 202.747116 
L 202.421648 195.641224 
L 201.294375 193.176688 
L 200.167102 191.48824 
L 199.03983 183.233772 
L 197.912557 178.234861 
L 196.785284 169.965201 
L 195.658011 165.369219 
L 193.403466 150.746162 
L 192.276193 144.330117 
L 191.14892 141.545495 
L 190.021648 136.009493 
L 188.894375 132.715674 
L 187.767102 130.591434 
L 186.63983 126.468618 
L 185.512557 128.188608 
L 184.385284 131.453382 
L 183.258011 131.091366 
L 182.130739 132.903751 
L 181.003466 138.369375 
L 179.876193 146.308757 
L 178.74892 150.357278 
L 177.621648 153.870663 
L 176.494375 162.138573 
L 175.367102 166.600364 
L 174.23983 171.965389 
L 173.112557 179.604883 
L 171.985284 183.776033 
L 170.858011 192.528886 
L 169.730739 194.216133 
L 168.603466 197.207965 
L 167.476193 201.889322 
L 166.34892 201.341534 
L 165.221648 207.636678 
L 162.967102 209.575854 
L 161.83983 209.37045 
L 160.712557 214.016255 
L 159.585284 211.696995 
L 158.458011 213.781889 
L 157.330739 215.506487 
L 156.203466 214.113319 
L 155.076193 214.715167 
L 153.94892 215.89934 
L 152.821648 215.22352 
L 151.694375 215.887323 
L 149.43983 214.731742 
L 148.312557 213.637861 
L 147.185284 217.134146 
L 146.058011 213.020472 
L 144.930739 218.05404 
L 143.803466 215.861025 
L 142.676193 214.967568 
L 141.54892 215.358652 
L 140.421648 216.481061 
L 139.294375 215.985018 
L 138.167102 216.347261 
L 137.03983 216.477984 
L 135.912557 214.72415 
L 134.785284 215.341081 
L 133.658011 216.64207 
L 132.530739 214.699697 
L 131.403466 215.438973 
L 130.276193 214.830718 
L 129.14892 215.067897 
L 128.021648 216.8705 
L 126.894375 216.55283 
L 125.767102 214.960298 
L 124.63983 215.140633 
L 123.512557 215.927736 
L 122.385284 215.770347 
L 121.258011 214.358411 
L 120.130739 216.665004 
L 119.003466 215.279665 
L 117.876193 216.211625 
L 116.74892 216.24291 
L 115.621648 214.639351 
L 114.494375 214.98715 
L 113.367102 215.014039 
L 112.23983 214.422465 
L 111.112557 216.011316 
L 109.985284 215.212335 
L 108.858011 216.442469 
L 107.730739 215.676034 
L 106.603466 216.245932 
L 105.476193 215.979413 
L 104.34892 215.380239 
L 103.221648 217.127307 
L 102.094375 213.567073 
L 100.967102 217.382359 
L 99.83983 217.650144 
L 98.712557 214.750635 
L 97.585284 215.212691 
L 96.458011 215.430609 
L 95.330739 215.437696 
L 94.203466 216.23624 
L 93.076193 217.33478 
L 91.94892 216.152713 
L 90.821648 217.089185 
L 89.694375 215.073433 
L 88.567102 216.463078 
L 87.43983 217.308076 
L 86.312557 216.701599 
L 85.185284 215.812565 
L 84.058011 217.023596 
L 82.930739 217.35315 
L 81.803466 216.057119 
L 80.676193 216.067823 
L 79.54892 217.002998 
L 78.421648 216.971202 
L 77.294375 216.120499 
L 76.167102 218.194986 
L 75.03983 218.157402 
L 73.912557 217.323967 
L 71.658011 216.085079 
L 70.530739 214.668097 
L 69.403466 215.438538 
L 68.276193 216.699822 
L 67.14892 216.539127 
L 66.021648 217.758574 
L 64.894375 216.563057 
L 63.767102 216.906911 
L 62.63983 216.168775 
L 61.512557 217.592508 
L 60.385284 215.95198 
L 60.385284 215.95198 
" clip-path="url(#p9701bec980)" style="fill: none; stroke: #4b6f8a; stroke-width: 1.2; stroke-linecap: square"/>
   </g>
   <g id="line2d_17">
    <path d="M 466.203466 208.755196 
L 465.076193 210.782262 
L 463.94892 210.167978 
L 462.821648 209.826227 
L 461.694375 211.178052 
L 460.567102 210.422811 
L 459.43983 210.694683 
L 458.312557 210.602524 
L 457.185284 211.683487 
L 456.058011 210.716877 
L 454.930739 210.147987 
L 453.803466 208.990362 
L 452.676193 209.606365 
L 451.54892 208.153221 
L 450.421648 211.750181 
L 449.294375 209.749911 
L 448.167102 210.607844 
L 447.03983 208.157369 
L 445.912557 211.849541 
L 444.785284 211.900385 
L 443.658011 211.617676 
L 442.530739 213.50114 
L 441.403466 211.551831 
L 440.276193 211.850301 
L 439.14892 210.74213 
L 438.021648 210.478028 
L 436.894375 208.342858 
L 435.767102 208.457853 
L 434.63983 207.954239 
L 432.385284 202.797508 
L 431.258011 207.066944 
L 430.130739 206.164569 
L 427.876193 211.477477 
L 426.74892 213.149958 
L 425.621648 209.415109 
L 424.494375 211.231145 
L 423.367102 209.583592 
L 422.23983 213.072175 
L 421.112557 211.863058 
L 419.985284 211.133058 
L 418.858011 211.093655 
L 417.730739 211.714804 
L 416.603466 210.407108 
L 415.476193 212.486884 
L 414.34892 211.346547 
L 413.221648 210.999512 
L 412.094375 210.451872 
L 410.967102 210.073182 
L 409.83983 212.063221 
L 408.712557 212.093612 
L 407.585284 207.850467 
L 406.458011 207.761835 
L 405.330739 207.23464 
L 404.203466 201.825069 
L 403.076193 200.200202 
L 401.94892 194.750542 
L 400.821648 191.403301 
L 399.694375 184.026376 
L 398.567102 179.733435 
L 397.43983 178.331453 
L 396.312557 174.280745 
L 395.185284 173.795335 
L 394.058011 173.817937 
L 392.930739 179.259325 
L 391.803466 181.119536 
L 390.676193 185.35483 
L 389.54892 193.767608 
L 388.421648 197.797655 
L 387.294375 203.016993 
L 383.912557 206.571195 
L 382.785284 209.597786 
L 381.658011 208.506226 
L 380.530739 212.695901 
L 379.403466 213.381048 
L 378.276193 211.519701 
L 377.14892 211.06853 
L 376.021648 211.629238 
L 374.894375 214.155942 
L 373.767102 211.747402 
L 372.63983 213.254471 
L 371.512557 210.844869 
L 370.385284 211.229588 
L 369.258011 212.845606 
L 368.130739 212.335041 
L 367.003466 213.016696 
L 364.74892 210.568797 
L 363.621648 212.963246 
L 362.494375 211.146639 
L 361.367102 212.427032 
L 360.23983 212.756233 
L 359.112557 211.908045 
L 357.985284 213.002435 
L 356.858011 212.268018 
L 355.730739 212.696065 
L 354.603466 208.02828 
L 353.476193 208.913664 
L 352.34892 207.379025 
L 351.221648 202.795256 
L 348.967102 194.984647 
L 347.83983 190.852545 
L 346.712557 189.528107 
L 345.585284 192.282053 
L 344.458011 195.469166 
L 343.330739 199.283127 
L 342.203466 205.977371 
L 341.076193 208.483846 
L 339.94892 207.353153 
L 338.821648 208.348993 
L 337.694375 211.038596 
L 336.567102 209.439843 
L 335.43983 208.180208 
L 334.312557 202.286399 
L 333.185284 201.772109 
L 332.058011 200.874603 
L 330.930739 200.894259 
L 329.803466 202.507221 
L 328.676193 202.430031 
L 327.54892 206.023545 
L 326.421648 208.480217 
L 324.167102 207.001651 
L 323.03983 200.866955 
L 321.912557 197.936796 
L 320.785284 194.284324 
L 319.658011 187.393445 
L 318.530739 184.383583 
L 317.403466 181.851735 
L 316.276193 176.908346 
L 315.14892 178.128669 
L 314.021648 182.104656 
L 312.894375 184.774307 
L 310.63983 196.101093 
L 309.512557 198.090495 
L 308.385284 200.997227 
L 307.258011 208.263878 
L 306.130739 208.158487 
L 305.003466 211.178999 
L 302.74892 212.602015 
L 301.621648 213.233275 
L 300.494375 212.267761 
L 299.367102 213.425675 
L 298.23983 212.11485 
L 297.112557 212.532457 
L 295.985284 212.780815 
L 294.858011 213.615345 
L 293.730739 213.222132 
L 292.603466 211.599464 
L 291.476193 211.924131 
L 290.34892 213.751109 
L 289.221648 212.441605 
L 288.094375 211.653541 
L 286.967102 214.637119 
L 285.83983 211.933424 
L 284.712557 213.425934 
L 283.585284 211.924539 
L 282.458011 213.574003 
L 281.330739 214.864775 
L 280.203466 214.659381 
L 279.076193 212.614974 
L 277.94892 212.367482 
L 276.821648 213.808509 
L 275.694375 211.927002 
L 274.567102 214.762456 
L 273.43983 212.816472 
L 272.312557 214.234052 
L 271.185284 213.559983 
L 270.058011 212.714009 
L 268.930739 213.840541 
L 267.803466 213.268742 
L 266.676193 211.573876 
L 265.54892 213.529366 
L 264.421648 211.807821 
L 263.294375 214.232444 
L 262.167102 212.207819 
L 261.03983 211.100985 
L 259.912557 215.916374 
L 258.785284 213.873045 
L 257.658011 212.198898 
L 256.530739 213.168696 
L 255.403466 212.476202 
L 254.276193 213.685361 
L 253.14892 212.850017 
L 252.021648 213.159652 
L 250.894375 211.5475 
L 249.767102 212.680842 
L 248.63983 212.591018 
L 247.512557 213.523211 
L 246.385284 213.628435 
L 245.258011 213.573143 
L 244.130739 212.570337 
L 243.003466 213.583486 
L 241.876193 212.723367 
L 240.74892 210.543946 
L 238.494375 213.516025 
L 237.367102 211.653753 
L 235.112557 215.654292 
L 233.985284 214.402281 
L 232.858011 215.473434 
L 231.730739 213.620902 
L 230.603466 213.179059 
L 229.476193 211.156147 
L 228.34892 212.824592 
L 227.221648 213.506624 
L 226.094375 212.23112 
L 224.967102 215.973848 
L 223.83983 212.980181 
L 222.712557 212.330565 
L 221.585284 215.095296 
L 220.458011 211.874354 
L 218.203466 213.748751 
L 217.076193 212.411439 
L 215.94892 210.314431 
L 214.821648 212.738977 
L 213.694375 212.442365 
L 212.567102 212.989052 
L 211.43983 213.000317 
L 210.312557 210.274584 
L 209.185284 211.426533 
L 208.058011 209.047343 
L 206.930739 208.083298 
L 205.803466 204.795184 
L 204.676193 202.307826 
L 203.54892 198.159356 
L 202.421648 196.105557 
L 200.167102 186.704045 
L 199.03983 180.083062 
L 196.785284 165.193741 
L 195.658011 160.122171 
L 194.530739 150.779001 
L 193.403466 143.261221 
L 192.276193 137.960716 
L 191.14892 130.405279 
L 190.021648 128.807066 
L 188.894375 125.614424 
L 187.767102 123.70654 
L 186.63983 118.403815 
L 185.512557 119.451682 
L 183.258011 123.647928 
L 182.130739 128.89174 
L 181.003466 128.936451 
L 179.876193 136.947147 
L 176.494375 154.653203 
L 175.367102 161.31468 
L 174.23983 168.798049 
L 173.112557 173.253578 
L 171.985284 177.189036 
L 170.858011 183.096802 
L 169.730739 187.568099 
L 168.603466 194.419751 
L 167.476193 198.757191 
L 166.34892 200.935791 
L 165.221648 203.463048 
L 164.094375 204.484306 
L 162.967102 209.78946 
L 161.83983 207.356426 
L 160.712557 210.636176 
L 159.585284 211.910332 
L 157.330739 214.693207 
L 156.203466 212.061746 
L 155.076193 213.283941 
L 153.94892 215.176719 
L 152.821648 215.34107 
L 151.694375 214.276773 
L 150.567102 211.896962 
L 149.43983 214.322355 
L 148.312557 215.891193 
L 147.185284 214.379677 
L 146.058011 214.437514 
L 144.930739 217.433022 
L 143.803466 214.206552 
L 142.676193 214.438543 
L 141.54892 213.314567 
L 140.421648 211.912961 
L 139.294375 212.81249 
L 138.167102 214.53789 
L 137.03983 215.578473 
L 135.912557 211.074122 
L 134.785284 214.172333 
L 132.530739 214.299222 
L 131.403466 214.038762 
L 129.14892 215.010565 
L 128.021648 214.989942 
L 126.894375 214.371198 
L 125.767102 215.010276 
L 124.63983 215.230499 
L 123.512557 214.237186 
L 122.385284 214.693055 
L 121.258011 212.546352 
L 120.130739 217.658467 
L 119.003466 213.07719 
L 117.876193 212.899733 
L 116.74892 216.986363 
L 115.621648 214.874356 
L 114.494375 214.921922 
L 113.367102 216.20588 
L 112.23983 215.44526 
L 111.112557 215.865966 
L 109.985284 212.364355 
L 108.858011 213.378922 
L 107.730739 212.978938 
L 106.603466 213.666144 
L 105.476193 215.950014 
L 104.34892 215.22028 
L 103.221648 213.98809 
L 102.094375 216.101079 
L 100.967102 213.73816 
L 99.83983 214.920553 
L 98.712557 215.097908 
L 97.585284 213.777484 
L 96.458011 214.117105 
L 95.330739 215.117725 
L 94.203466 213.263973 
L 93.076193 216.026127 
L 91.94892 213.955489 
L 90.821648 213.99579 
L 89.694375 215.115982 
L 88.567102 214.348018 
L 87.43983 216.296219 
L 86.312557 213.638705 
L 85.185284 215.012089 
L 84.058011 215.439008 
L 82.930739 213.522123 
L 81.803466 215.686479 
L 80.676193 216.562994 
L 79.54892 216.757131 
L 78.421648 214.114961 
L 77.294375 216.442668 
L 76.167102 212.72948 
L 75.03983 217.450986 
L 73.912557 212.825633 
L 72.785284 214.661149 
L 71.658011 215.051134 
L 70.530739 215.613541 
L 69.403466 214.467072 
L 68.276193 215.015443 
L 67.14892 213.627321 
L 66.021648 214.853594 
L 64.894375 214.82159 
L 63.767102 215.464648 
L 61.512557 214.665096 
L 60.385284 217.154246 
L 60.385284 217.154246 
" clip-path="url(#p9701bec980)" style="fill: none; stroke: #c47b45; stroke-width: 1.2; stroke-linecap: square"/>
   </g>
   <g id="line2d_18">
    <path d="M 466.203466 210.198053 
L 465.076193 209.698595 
L 462.821648 209.861553 
L 461.694375 210.991965 
L 460.567102 209.817621 
L 459.43983 211.184061 
L 458.312557 211.382851 
L 457.185284 211.289752 
L 456.058011 211.745057 
L 454.930739 209.462832 
L 453.803466 210.872914 
L 452.676193 208.148275 
L 451.54892 207.349192 
L 450.421648 211.28391 
L 449.294375 208.351723 
L 448.167102 208.38876 
L 447.03983 206.688447 
L 445.912557 213.959016 
L 444.785284 213.321935 
L 443.658011 212.229916 
L 442.530739 213.352116 
L 441.403466 210.760453 
L 440.276193 212.590752 
L 439.14892 210.335494 
L 438.021648 211.172718 
L 436.894375 208.501358 
L 435.767102 208.354358 
L 434.63983 204.378654 
L 433.512557 198.836544 
L 432.385284 194.540125 
L 431.258011 198.843394 
L 430.130739 203.926043 
L 429.003466 204.418037 
L 427.876193 210.531853 
L 426.74892 212.776449 
L 425.621648 210.268149 
L 423.367102 210.094774 
L 422.23983 212.796812 
L 421.112557 208.570934 
L 419.985284 211.086325 
L 418.858011 209.517075 
L 417.730739 212.422956 
L 416.603466 210.265393 
L 415.476193 210.16169 
L 414.34892 211.921802 
L 413.221648 208.530616 
L 412.094375 209.239108 
L 410.967102 210.238152 
L 409.83983 210.479304 
L 408.712557 209.527585 
L 407.585284 204.691851 
L 406.458011 205.820508 
L 405.330739 202.070892 
L 404.203466 192.931986 
L 403.076193 187.096606 
L 401.94892 175.835602 
L 400.821648 167.453645 
L 398.567102 144.075277 
L 397.43983 137.842389 
L 396.312557 130.780647 
L 395.185284 128.598324 
L 394.058011 129.972111 
L 392.930739 138.974655 
L 391.803466 146.04188 
L 389.54892 169.556033 
L 387.294375 189.545033 
L 386.167102 196.674849 
L 385.03983 200.895243 
L 383.912557 201.386096 
L 382.785284 207.285882 
L 381.658011 206.225693 
L 380.530739 211.866102 
L 379.403466 212.885274 
L 378.276193 210.045338 
L 377.14892 211.459028 
L 376.021648 211.322622 
L 374.894375 214.605028 
L 373.767102 212.122853 
L 372.63983 213.509813 
L 371.512557 210.401293 
L 370.385284 211.654502 
L 369.258011 211.174077 
L 368.130739 213.292741 
L 367.003466 213.119367 
L 365.876193 212.194637 
L 364.74892 208.617101 
L 363.621648 212.59415 
L 362.494375 209.715624 
L 361.367102 214.110016 
L 359.112557 210.639537 
L 357.985284 212.685496 
L 356.858011 210.562914 
L 355.730739 212.540485 
L 354.603466 204.559306 
L 353.476193 202.768629 
L 352.34892 201.846361 
L 351.221648 193.549644 
L 350.094375 182.861158 
L 348.967102 174.130422 
L 347.83983 169.154093 
L 346.712557 166.433456 
L 345.585284 170.316272 
L 343.330739 186.049717 
L 342.203466 197.475931 
L 341.076193 203.44679 
L 339.94892 203.949461 
L 338.821648 206.024308 
L 337.694375 207.450313 
L 336.567102 208.134045 
L 335.43983 202.391049 
L 334.312557 194.703943 
L 333.185284 190.310601 
L 332.058011 185.455943 
L 330.930739 186.426012 
L 329.803466 187.235662 
L 328.676193 190.106503 
L 327.54892 196.412188 
L 326.421648 201.265063 
L 325.294375 198.279959 
L 324.167102 199.798137 
L 323.03983 190.191694 
L 321.912557 182.681772 
L 320.785284 173.255404 
L 319.658011 160.32831 
L 318.530739 149.410577 
L 317.403466 142.17573 
L 316.276193 137.179632 
L 315.14892 138.74548 
L 314.021648 143.598783 
L 312.894375 151.947288 
L 311.767102 161.815157 
L 310.63983 174.201173 
L 309.512557 184.025823 
L 308.385284 188.077813 
L 307.258011 198.959818 
L 306.130739 204.515036 
L 305.003466 209.114439 
L 303.876193 210.153598 
L 302.74892 211.416761 
L 301.621648 212.000415 
L 300.494375 209.524649 
L 299.367102 213.468452 
L 298.23983 212.928071 
L 297.112557 214.08102 
L 295.985284 213.543776 
L 294.858011 213.540386 
L 293.730739 210.89662 
L 292.603466 212.079673 
L 291.476193 211.50089 
L 290.34892 213.659262 
L 289.221648 210.844768 
L 288.094375 208.398009 
L 286.967102 215.194433 
L 285.83983 212.385813 
L 284.712557 212.025818 
L 283.585284 210.939048 
L 282.458011 211.191795 
L 281.330739 214.05833 
L 280.203466 215.006545 
L 279.076193 211.755276 
L 277.94892 210.866977 
L 276.821648 212.69059 
L 275.694375 211.155887 
L 274.567102 213.361436 
L 273.43983 211.250574 
L 272.312557 212.435235 
L 270.058011 212.78639 
L 268.930739 213.550252 
L 267.803466 211.666214 
L 266.676193 212.421046 
L 265.54892 212.960418 
L 264.421648 212.139743 
L 263.294375 214.09479 
L 262.167102 210.495769 
L 261.03983 210.701425 
L 259.912557 215.790683 
L 258.785284 215.432584 
L 257.658011 211.139895 
L 256.530739 212.252774 
L 255.403466 209.683505 
L 254.276193 213.949817 
L 253.14892 212.451008 
L 252.021648 212.729727 
L 250.894375 209.455246 
L 249.767102 212.664403 
L 248.63983 212.113343 
L 246.385284 213.284936 
L 245.258011 214.005541 
L 244.130739 212.196494 
L 243.003466 212.150347 
L 241.876193 213.850767 
L 240.74892 210.204595 
L 239.621648 212.74736 
L 238.494375 211.932512 
L 237.367102 213.369379 
L 235.112557 215.117356 
L 233.985284 212.381752 
L 232.858011 215.476555 
L 231.730739 214.187696 
L 230.603466 210.746547 
L 229.476193 212.769308 
L 228.34892 215.392406 
L 227.221648 212.848695 
L 226.094375 212.7031 
L 224.967102 217.156294 
L 223.83983 211.976887 
L 222.712557 211.879245 
L 221.585284 215.681783 
L 220.458011 213.260067 
L 219.330739 211.587958 
L 218.203466 212.734625 
L 217.076193 212.223145 
L 215.94892 207.590676 
L 214.821648 213.482469 
L 213.694375 213.496976 
L 212.567102 212.676016 
L 211.43983 211.383303 
L 210.312557 207.529676 
L 209.185284 208.310059 
L 208.058011 203.822726 
L 206.930739 203.052725 
L 205.803466 194.130103 
L 204.676193 190.619246 
L 203.54892 181.411816 
L 202.421648 176.05407 
L 200.167102 155.563329 
L 199.03983 142.614364 
L 196.785284 112.087432 
L 195.658011 100.730588 
L 194.530739 82.990533 
L 192.276193 54.838885 
L 191.14892 43.635549 
L 190.021648 33.838281 
L 188.894375 28.866166 
L 187.767102 25.935022 
L 186.63983 17.28 
L 185.512557 19.385258 
L 184.385284 21.090104 
L 183.258011 27.639363 
L 182.130739 36.481263 
L 181.003466 43.002291 
L 179.876193 54.88908 
L 178.74892 69.239853 
L 176.494375 90.648503 
L 173.112557 131.352947 
L 171.985284 140.208557 
L 169.730739 162.708452 
L 168.603466 170.917945 
L 167.476193 180.05059 
L 166.34892 187.02099 
L 165.221648 192.178995 
L 164.094375 195.403407 
L 162.967102 205.548658 
L 161.83983 202.453887 
L 160.712557 207.59247 
L 159.585284 210.265616 
L 158.458011 211.605846 
L 157.330739 210.985455 
L 156.203466 210.140098 
L 155.076193 213.179198 
L 153.94892 213.924092 
L 152.821648 213.23042 
L 151.694375 212.833703 
L 150.567102 211.540257 
L 149.43983 214.929746 
L 148.312557 214.910706 
L 147.185284 213.763583 
L 146.058011 213.219878 
L 144.930739 216.602651 
L 143.803466 212.808088 
L 142.676193 214.992962 
L 141.54892 211.574395 
L 140.421648 211.520272 
L 139.294375 210.133749 
L 138.167102 215.287117 
L 137.03983 213.372054 
L 135.912557 210.665544 
L 134.785284 214.868251 
L 132.530739 214.591365 
L 131.403466 213.411881 
L 130.276193 213.732028 
L 129.14892 215.627917 
L 128.021648 214.932611 
L 126.894375 211.642157 
L 125.767102 212.803056 
L 124.63983 214.612539 
L 123.512557 214.088262 
L 122.385284 214.452566 
L 121.258011 211.657219 
L 120.130739 218.88 
L 119.003466 213.267618 
L 116.74892 216.449058 
L 115.621648 213.990447 
L 114.494375 215.426406 
L 113.367102 214.211049 
L 112.23983 216.87166 
L 111.112557 217.593651 
L 109.985284 211.949126 
L 108.858011 211.97426 
L 107.730739 210.784626 
L 106.603466 214.115683 
L 105.476193 214.558009 
L 104.34892 215.184929 
L 103.221648 214.092714 
L 102.094375 214.951465 
L 100.967102 212.825234 
L 99.83983 216.766821 
L 98.712557 213.200524 
L 97.585284 211.972075 
L 96.458011 214.780246 
L 95.330739 214.547244 
L 94.203466 212.535853 
L 93.076193 215.639674 
L 91.94892 214.523026 
L 90.821648 214.713041 
L 89.694375 215.062645 
L 88.567102 212.808537 
L 87.43983 215.567901 
L 86.312557 213.979353 
L 85.185284 213.978119 
L 84.058011 218.857094 
L 82.930739 211.995537 
L 81.803466 217.748528 
L 80.676193 216.952095 
L 79.54892 218.079545 
L 78.421648 215.599342 
L 77.294375 214.95969 
L 76.167102 213.171109 
L 75.03983 216.987681 
L 73.912557 212.752714 
L 72.785284 213.981825 
L 71.658011 214.870843 
L 70.530739 217.113546 
L 69.403466 213.146564 
L 68.276193 215.534772 
L 66.021648 215.289117 
L 64.894375 212.888953 
L 63.767102 214.343348 
L 62.63983 215.443443 
L 61.512557 215.000058 
L 60.385284 217.505087 
L 60.385284 217.505087 
" clip-path="url(#p9701bec980)" style="fill: none; stroke: #4f7c6a; stroke-width: 1.2; stroke-linecap: square"/>
   </g>
   <g id="patch_3">
    <path d="M 40.094375 228.96 
L 40.094375 7.2 
" style="fill: none; stroke: #000000; stroke-width: 1.5; stroke-linejoin: miter; stroke-linecap: square"/>
   </g>
   <g id="patch_4">
    <path d="M 40.094375 228.96 
L 486.494375 228.96 
" style="fill: none; stroke: #000000; stroke-width: 1.5; stroke-linejoin: miter; stroke-linecap: square"/>
   </g>
   <g id="text_18">
    <text style="font-size: 7.5px; font-family: 'Arial', 'Helvetica', 'Liberation Sans', 'DejaVu Sans', sans-serif; text-anchor: middle; fill: #8b6f47" x="182.130739" y="150.309314" transform="rotate(-0 182.130739 150.309314)">CH stretching</text>
   </g>
   <g id="text_19">
    <text style="font-size: 7.5px; font-family: 'Arial', 'Helvetica', 'Liberation Sans', 'DejaVu Sans', sans-serif; text-anchor: middle; fill: #8b6f47" x="315.712557" y="170.254719" transform="rotate(-0 315.712557 170.254719)">C=O stretch</text>
   </g>
   <g id="text_20">
    <text style="font-size: 7.5px; font-family: 'Arial', 'Helvetica', 'Liberation Sans', 'DejaVu Sans', sans-serif; text-anchor: middle; fill: #8b6f47" x="395.185284" y="161.049148" transform="rotate(-0 395.185284 161.049148)">C-O / Si-O</text>
   </g>
   <g id="legend_1">
    <g id="line2d_19">
     <path d="M 48.194375 18.592031 
L 57.194375 18.592031 
L 66.194375 18.592031 
" style="fill: none; stroke: #4b6f8a; stroke-width: 1.2; stroke-linecap: square"/>
    </g>
    <g id="text_21">
     <text style="font-size: 9px; font-family: 'Arial', 'Helvetica', 'Liberation Sans', 'DejaVu Sans', sans-serif; text-anchor: start" x="73.394375" y="21.742031" transform="rotate(-0 73.394375 21.742031)">Base binder</text>
    </g>
    <g id="line2d_20">
     <path d="M 48.194375 31.322813 
L 57.194375 31.322813 
L 66.194375 31.322813 
" style="fill: none; stroke: #c47b45; stroke-width: 1.2; stroke-linecap: square"/>
    </g>
    <g id="text_22">
     <text style="font-size: 9px; font-family: 'Arial', 'Helvetica', 'Liberation Sans', 'DejaVu Sans', sans-serif; text-anchor: start" x="73.394375" y="34.472813" transform="rotate(-0 73.394375 34.472813)">SBR-WER</text>
    </g>
    <g id="line2d_21">
     <path d="M 48.194375 44.053594 
L 57.194375 44.053594 
L 66.194375 44.053594 
" style="fill: none; stroke: #4f7c6a; stroke-width: 1.2; stroke-linecap: square"/>
    </g>
    <g id="text_23">
     <text style="font-size: 9px; font-family: 'Arial', 'Helvetica', 'Liberation Sans', 'DejaVu Sans', sans-serif; text-anchor: start" x="73.394375" y="47.203594" transform="rotate(-0 73.394375 47.203594)">SBR-WER + 5% W-EA</text>
    </g>
   </g>
  </g>
 </g>
 <defs>
  <clipPath id="p9701bec980">
   <rect x="40.094375" y="7.2" width="446.4" height="221.76"/>
  </clipPath>
 </defs>
</svg>
