<?xml version="1.0" encoding="utf-8" standalone="no"?>
<!DOCTYPE svg PUBLIC "-//W3C//DTD SVG 1.1//EN"
  "http://www.w3.org/Graphics/SVG/1.1/DTD/svg11.dtd">
<svg xmlns:xlink="http://www.w3.org/1999/xlink" width="645.299531pt" height="271.060246pt" viewBox="0 0 645.299531 271.060246" xmlns="http://www.w3.org/2000/svg" version="1.1">
 <metadata>
  <rdf:RDF xmlns:dc="http://purl.org/dc/elements/1.1/" xmlns:cc="http://creativecommons.org/ns#" xmlns:rdf="http://www.w3.org/1999/02/22-rdf-syntax-ns#">
   <cc:Work>
    <dc:type rdf:resource="http://purl.org/dc/dcmitype/StillImage"/>
    <dc:date>2026-06-19T17:17:36.088854</dc:date>
    <dc:format>image/svg+xml</dc:format>
    <dc:creator>
     <cc:Agent>
      <dc:title>Matplotlib v3.11.0, https://matplotlib.org/</dc:title>
     </cc:Agent>
    </dc:creator>
   </cc:Work>
  </rdf:RDF>
 </metadata>
 <defs>
  <style type="text/css">*{stroke-linejoin: round; stroke-linecap: butt}</style>
 </defs>
 <g id="figure_1">
  <g id="patch_1">
   <path d="M 0 271.060246 
L 645.299531 271.060246 
L 645.299531 0 
L 0 0 
z
" style="fill: #ffffff"/>
  </g>
  <g id="axes_1">
   <g id="patch_2">
    <path d="M 45.099805 232.913957 
L 320.788418 232.913957 
L 320.788418 210.752671 
L 45.099805 210.752671 
z
" style="fill: #ffffff"/>
   </g>
   <g id="matplotlib.axis_1">
    <g id="xtick_1">
     <g id="line2d_1">
      <defs>
       <path id="m765e749a19" d="M 0 0 
L 0 3.5 
" style="stroke: #000000; stroke-width: 1.2"/>
      </defs>
      <g>
       <use xlink:href="#m765e749a19" x="308.257117" y="232.913957" style="stroke: #000000; stroke-width: 1.2"/>
      </g>
     </g>
     <g id="text_1">
      <text style="font-size: 9px; font-family: 'Arial', 'Helvetica', 'Liberation Sans', 'DejaVu Sans', sans-serif; text-anchor: middle" x="308.257117" y="246.466203" transform="rotate(-0 308.257117 246.466203)">500</text>
     </g>
    </g>
    <g id="xtick_2">
     <g id="line2d_2">
      <g>
       <use xlink:href="#m765e749a19" x="272.453401" y="232.913957" style="stroke: #000000; stroke-width: 1.2"/>
      </g>
     </g>
     <g id="text_2">
      <text style="font-size: 9px; font-family: 'Arial', 'Helvetica', 'Liberation Sans', 'DejaVu Sans', sans-serif; text-anchor: middle" x="272.453401" y="246.466203" transform="rotate(-0 272.453401 246.466203)">1000</text>
     </g>
    </g>
    <g id="xtick_3">
     <g id="line2d_3">
      <g>
       <use xlink:href="#m765e749a19" x="236.649685" y="232.913957" style="stroke: #000000; stroke-width: 1.2"/>
      </g>
     </g>
     <g id="text_3">
      <text style="font-size: 9px; font-family: 'Arial', 'Helvetica', 'Liberation Sans', 'DejaVu Sans', sans-serif; text-anchor: middle" x="236.649685" y="246.466203" transform="rotate(-0 236.649685 246.466203)">1500</text>
     </g>
    </g>
    <g id="xtick_4">
     <g id="line2d_4">
      <g>
       <use xlink:href="#m765e749a19" x="200.845969" y="232.913957" style="stroke: #000000; stroke-width: 1.2"/>
      </g>
     </g>
     <g id="text_4">
      <text style="font-size: 9px; font-family: 'Arial', 'Helvetica', 'Liberation Sans', 'DejaVu Sans', sans-serif; text-anchor: middle" x="200.845969" y="246.466203" transform="rotate(-0 200.845969 246.466203)">2000</text>
     </g>
    </g>
    <g id="xtick_5">
     <g id="line2d_5">
      <g>
       <use xlink:href="#m765e749a19" x="165.042253" y="232.913957" style="stroke: #000000; stroke-width: 1.2"/>
      </g>
     </g>
     <g id="text_5">
      <text style="font-size: 9px; font-family: 'Arial', 'Helvetica', 'Liberation Sans', 'DejaVu Sans', sans-serif; text-anchor: middle" x="165.042253" y="246.466203" transform="rotate(-0 165.042253 246.466203)">2500</text>
     </g>
    </g>
    <g id="xtick_6">
     <g id="line2d_6">
      <g>
       <use xlink:href="#m765e749a19" x="129.238537" y="232.913957" style="stroke: #000000; stroke-width: 1.2"/>
      </g>
     </g>
     <g id="text_6">
      <text style="font-size: 9px; font-family: 'Arial', 'Helvetica', 'Liberation Sans', 'DejaVu Sans', sans-serif; text-anchor: middle" x="129.238537" y="246.466203" transform="rotate(-0 129.238537 246.466203)">3000</text>
     </g>
    </g>
    <g id="xtick_7">
     <g id="line2d_7">
      <g>
       <use xlink:href="#m765e749a19" x="93.434821" y="232.913957" style="stroke: #000000; stroke-width: 1.2"/>
      </g>
     </g>
     <g id="text_7">
      <text style="font-size: 9px; font-family: 'Arial', 'Helvetica', 'Liberation Sans', 'DejaVu Sans', sans-serif; text-anchor: middle" x="93.434821" y="246.466203" transform="rotate(-0 93.434821 246.466203)">3500</text>
     </g>
    </g>
    <g id="xtick_8">
     <g id="line2d_8">
      <g>
       <use xlink:href="#m765e749a19" x="57.631105" y="232.913957" style="stroke: #000000; stroke-width: 1.2"/>
      </g>
     </g>
     <g id="text_8">
      <text style="font-size: 9px; font-family: 'Arial', 'Helvetica', 'Liberation Sans', 'DejaVu Sans', sans-serif; text-anchor: middle" x="57.631105" y="246.466203" transform="rotate(-0 57.631105 246.466203)">4000</text>
     </g>
    </g>
    <g id="text_9">
     <!-- Wavenumber (cm$^{-1}$) -->
     <g transform="translate(136.644111 261.660246)">
      <text>
       <tspan x="0" y="-0.762187" style="font-size: 10px; font-family: 'Arial'">W</tspan>
       <tspan x="9.438477" y="-0.762187" style="font-size: 10px; font-family: 'Arial'">a</tspan>
       <tspan x="15" y="-0.762187" style="font-size: 10px; font-family: 'Arial'">v</tspan>
       <tspan x="20" y="-0.762187" style="font-size: 10px; font-family: 'Arial'">e</tspan>
       <tspan x="25.561523" y="-0.762187" style="font-size: 10px; font-family: 'Arial'">n</tspan>
       <tspan x="31.123047" y="-0.762187" style="font-size: 10px; font-family: 'Arial'">u</tspan>
       <tspan x="36.68457" y="-0.762187" style="font-size: 10px; font-family: 'Arial'">m</tspan>
       <tspan x="45.014648" y="-0.762187" style="font-size: 10px; font-family: 'Arial'">b</tspan>
       <tspan x="50.576172" y="-0.762187" style="font-size: 10px; font-family: 'Arial'">e</tspan>
       <tspan x="56.137695" y="-0.762187" style="font-size: 10px; font-family: 'Arial'">r</tspan>
       <tspan x="59.467773" y="-0.762187" style="font-size: 10px; font-family: 'Arial'"> </tspan>
       <tspan x="62.246094" y="-0.762187" style="font-size: 10px; font-family: 'Arial'">(</tspan>
       <tspan x="65.576172" y="-0.762187" style="font-size: 10px; font-family: 'Arial'">c</tspan>
       <tspan x="70.576172" y="-0.762187" style="font-size: 10px; font-family: 'Arial'">m</tspan>
       <tspan x="89.594238" y="-0.762187" style="font-size: 10px; font-family: 'Arial'">)</tspan>
       <tspan x="79.001953" y="-4.892187" style="font-size: 7px; font-family: 'DejaVu Sans'">−</tspan>
       <tspan x="84.867188" y="-4.892187" style="font-size: 7px; font-family: 'DejaVu Sans'">1</tspan>
      </text>
     </g>
    </g>
   </g>
   <g id="matplotlib.axis_2">
    <g id="ytick_1">
     <g id="line2d_9">
      <defs>
       <path id="m81eb065424" d="M 0 0 
L -3.5 0 
" style="stroke: #000000; stroke-width: 1.2"/>
      </defs>
      <g>
       <use xlink:href="#m81eb065424" x="45.099805" y="225.837035" style="stroke: #000000; stroke-width: 1.2"/>
      </g>
     </g>
     <g id="text_10">
      <text style="font-size: 9px; font-family: 'Arial', 'Helvetica', 'Liberation Sans', 'DejaVu Sans', sans-serif; text-anchor: end" x="38.099805" y="229.113158" transform="rotate(-0 38.099805 229.113158)">0.25</text>
     </g>
    </g>
    <g id="ytick_2">
     <g id="line2d_10">
      <g>
       <use xlink:href="#m81eb065424" x="45.099805" y="213.831489" style="stroke: #000000; stroke-width: 1.2"/>
      </g>
     </g>
     <g id="text_11">
      <text style="font-size: 9px; font-family: 'Arial', 'Helvetica', 'Liberation Sans', 'DejaVu Sans', sans-serif; text-anchor: end" x="38.099805" y="217.107612" transform="rotate(-0 38.099805 217.107612)">0.50</text>
     </g>
    </g>
    <g id="text_12">
     <text style="font-size: 10px; font-family: 'Arial', 'Helvetica', 'Liberation Sans', 'DejaVu Sans', sans-serif; text-anchor: middle" x="14.480273" y="221.833314" transform="rotate(-90 14.480273 221.833314)">Absorbance (a.u.)</text>
    </g>
   </g>
   <g id="line2d_11">
    <path d="M 57.631105 229.197407 
L 58.049513 228.91166 
L 58.886327 230.053952 
L 59.304735 229.635274 
L 59.723142 230.151009 
L 60.559957 227.911387 
L 60.978364 229.671325 
L 61.396772 229.794519 
L 61.815179 228.728122 
L 62.651994 229.097344 
L 63.070401 230.09225 
L 63.907216 228.530789 
L 64.325623 230.489631 
L 64.744031 229.638102 
L 65.162438 231.024606 
L 65.580845 230.437117 
L 65.999253 230.967471 
L 66.41766 229.42438 
L 66.836067 230.415899 
L 67.254475 228.938054 
L 67.672882 229.048038 
L 68.091289 229.378125 
L 68.509697 231.615794 
L 68.928104 229.715972 
L 69.346512 229.245171 
L 69.764919 229.089761 
L 70.183326 230.668197 
L 70.601734 229.657443 
L 71.020141 230.138401 
L 71.438548 229.975431 
L 71.856956 228.179655 
L 72.275363 229.97418 
L 73.112178 228.349181 
L 73.530585 229.759103 
L 73.948993 229.305871 
L 74.3674 229.092493 
L 74.785807 229.137329 
L 75.204215 230.375185 
L 76.041029 227.893514 
L 76.459437 230.684533 
L 76.877844 228.373198 
L 77.714659 229.814683 
L 78.133066 227.277298 
L 78.551474 228.466478 
L 78.969881 230.350434 
L 79.388288 229.127015 
L 79.806696 228.644704 
L 80.225103 229.379895 
L 80.64351 228.542682 
L 81.061918 229.262463 
L 81.898733 227.81695 
L 82.31714 229.847502 
L 82.735547 229.003458 
L 83.153955 229.643535 
L 83.572362 229.076312 
L 83.990769 230.33877 
L 84.409177 229.754912 
L 84.827584 229.386946 
L 85.245991 228.335281 
L 85.664399 228.098551 
L 86.082806 230.46962 
L 86.501214 229.961624 
L 86.919621 228.577063 
L 87.338028 231.111938 
L 87.756436 229.643125 
L 88.174843 229.291649 
L 88.59325 227.99084 
L 89.011658 228.535904 
L 89.430065 229.512194 
L 89.848472 229.551786 
L 90.26688 229.437927 
L 90.685287 227.734173 
L 91.103695 229.608305 
L 91.522102 229.48861 
L 91.940509 228.857983 
L 92.358917 229.312244 
L 92.777324 229.385289 
L 93.195731 230.265288 
L 93.614139 229.205746 
L 94.032546 229.62 
L 94.450953 228.07313 
L 95.287768 229.214206 
L 95.706176 228.547752 
L 96.124583 229.514584 
L 96.54299 228.17587 
L 96.961398 229.189504 
L 97.379805 228.621633 
L 97.798212 230.419026 
L 98.21662 228.843073 
L 98.635027 230.793839 
L 99.053434 231.123077 
L 99.471842 229.455934 
L 99.890249 230.022398 
L 100.308657 228.994311 
L 100.727064 226.988862 
L 101.145471 229.93564 
L 101.563879 229.727 
L 101.982286 228.920183 
L 102.400693 228.632343 
L 102.819101 229.262196 
L 103.237508 229.275824 
L 103.655916 228.38682 
L 104.074323 228.543606 
L 104.49273 230.014979 
L 104.911138 229.075057 
L 105.329545 228.939272 
L 105.747952 229.957178 
L 106.16636 228.662907 
L 106.584767 229.701085 
L 107.003174 227.904286 
L 107.421582 228.609534 
L 107.839989 228.661223 
L 108.258397 229.262225 
L 108.676804 228.750947 
L 109.095211 230.492701 
L 109.513619 229.591687 
L 109.932026 228.081306 
L 110.350433 230.392212 
L 110.768841 227.445644 
L 111.187248 229.839154 
L 111.605655 227.330699 
L 112.024063 228.756515 
L 112.44247 227.074396 
L 112.860878 227.565642 
L 113.279285 229.02661 
L 113.697692 226.199894 
L 114.1161 225.853543 
L 114.534507 227.129176 
L 114.952914 227.145629 
L 115.371322 226.841179 
L 115.789729 227.417543 
L 116.208136 225.207167 
L 116.626544 226.552865 
L 117.044951 225.837442 
L 117.463359 226.294613 
L 117.881766 225.865992 
L 118.300173 226.211461 
L 118.718581 223.484241 
L 119.136988 224.534777 
L 119.555395 223.14242 
L 119.973803 223.72917 
L 120.39221 224.06964 
L 120.810618 223.366611 
L 121.229025 223.231059 
L 121.647432 222.31616 
L 122.06584 222.306482 
L 122.484247 221.848667 
L 122.902654 222.492436 
L 123.321062 221.545365 
L 123.739469 218.779215 
L 124.157876 220.606485 
L 124.576284 220.565969 
L 125.413099 217.384297 
L 125.831506 219.725806 
L 126.249913 218.126423 
L 126.668321 218.135039 
L 127.086728 218.827733 
L 127.505135 216.047024 
L 127.923543 216.401613 
L 128.34195 215.947994 
L 128.760357 216.389545 
L 129.178765 214.894999 
L 129.597172 215.530494 
L 130.01558 214.847918 
L 130.433987 215.492041 
L 130.852394 215.332724 
L 131.270802 212.64055 
L 131.689209 214.191419 
L 132.107616 213.229022 
L 133.362838 213.562519 
L 133.781246 212.377455 
L 134.199653 213.207795 
L 135.036468 212.850086 
L 135.454875 211.760002 
L 136.29169 212.642649 
L 137.128505 214.566027 
L 137.546912 212.48037 
L 137.96532 212.64296 
L 138.383727 213.909488 
L 138.802134 213.480388 
L 139.220542 213.499012 
L 140.057356 213.92376 
L 140.475764 215.554081 
L 140.894171 213.98615 
L 141.312578 216.978626 
L 141.730986 215.307763 
L 142.149393 216.027411 
L 142.567801 216.03992 
L 142.986208 215.460662 
L 143.404615 216.233576 
L 143.823023 219.159165 
L 144.24143 220.085623 
L 144.659837 218.086593 
L 145.078245 220.254935 
L 145.915059 219.290172 
L 146.333467 222.080491 
L 146.751874 222.929417 
L 147.170282 221.05003 
L 148.007096 222.308232 
L 148.425504 222.41014 
L 149.262318 224.623566 
L 149.680726 223.676409 
L 150.51754 225.754846 
L 150.935948 224.003453 
L 151.354355 224.848913 
L 151.772763 224.688133 
L 152.19117 226.30505 
L 152.609577 226.250809 
L 153.027985 226.829766 
L 153.446392 226.960887 
L 153.864799 226.148433 
L 154.283207 227.302782 
L 154.701614 226.411544 
L 155.120022 226.618282 
L 155.538429 225.179231 
L 155.956836 228.630596 
L 156.375244 226.598017 
L 156.793651 227.684294 
L 157.212058 227.749411 
L 157.630466 229.25649 
L 158.46728 227.379291 
L 158.885688 228.274235 
L 159.304095 228.211255 
L 159.722503 228.65499 
L 160.14091 227.346554 
L 160.559317 228.549185 
L 160.977725 230.708884 
L 161.396132 229.321389 
L 162.232947 231.886126 
L 162.651354 229.318607 
L 163.069761 227.570509 
L 163.906576 230.049586 
L 164.324984 229.857764 
L 164.743391 227.896148 
L 165.161798 228.855583 
L 165.998613 229.100676 
L 166.41702 229.03031 
L 166.835428 228.309566 
L 167.672242 228.902686 
L 168.09065 230.122624 
L 168.509057 228.639981 
L 168.927465 229.796764 
L 169.345872 228.096685 
L 169.764279 230.37479 
L 170.182687 229.292126 
L 170.601094 229.172216 
L 171.019501 230.441946 
L 171.437909 227.519814 
L 171.856316 227.774496 
L 172.274724 229.625394 
L 172.693131 228.44157 
L 173.111538 228.821337 
L 173.529946 231.697174 
L 173.948353 228.9482 
L 174.36676 229.249073 
L 174.785168 229.111488 
L 175.203575 230.226772 
L 175.621982 229.452114 
L 176.04039 229.365423 
L 176.458797 228.053795 
L 176.877205 228.874273 
L 177.295612 229.201298 
L 177.714019 227.727892 
L 178.132427 229.730021 
L 178.550834 229.571062 
L 178.969241 230.942181 
L 179.387649 227.690467 
L 179.806056 228.271498 
L 180.224463 228.317256 
L 180.642871 228.555525 
L 181.061278 229.092279 
L 181.479686 228.991195 
L 181.898093 229.440272 
L 182.3165 229.393843 
L 182.734908 229.146192 
L 183.153315 227.746363 
L 183.571722 228.664719 
L 184.408537 229.754953 
L 184.826944 229.80838 
L 185.245352 227.659208 
L 185.663759 228.711885 
L 186.500574 229.531037 
L 186.918981 230.26374 
L 187.755796 228.359468 
L 188.174203 229.575582 
L 188.592611 229.416829 
L 189.011018 229.410869 
L 189.429425 229.09332 
L 189.847833 230.728579 
L 190.26624 229.42467 
L 190.684648 230.019183 
L 191.103055 228.348991 
L 191.521462 229.938702 
L 191.93987 228.644365 
L 192.358277 227.73445 
L 192.776684 229.499778 
L 193.195092 229.776367 
L 193.613499 229.014727 
L 194.031907 229.200536 
L 194.450314 230.1529 
L 195.287129 227.262798 
L 195.705536 229.44649 
L 196.123943 229.393439 
L 196.542351 230.202186 
L 196.960758 228.892122 
L 197.379165 230.396239 
L 197.797573 230.261733 
L 198.21598 227.96954 
L 198.634388 230.068225 
L 199.052795 228.160005 
L 199.471202 227.734528 
L 199.88961 228.94952 
L 200.308017 228.667087 
L 200.726424 227.323561 
L 201.144832 229.387535 
L 201.563239 229.768137 
L 201.981646 230.49829 
L 202.818461 227.777953 
L 203.236869 228.276951 
L 203.655276 230.103414 
L 204.073683 230.020128 
L 204.492091 229.682816 
L 204.910498 228.917881 
L 205.328905 229.395778 
L 205.747313 228.992617 
L 206.16572 228.913587 
L 206.584127 229.485543 
L 207.420942 229.000167 
L 207.83935 229.279234 
L 208.257757 228.714981 
L 208.676164 227.40171 
L 209.094572 228.630019 
L 209.512979 229.144963 
L 209.931386 230.817972 
L 210.349794 228.825912 
L 210.768201 231.068155 
L 211.186609 230.551707 
L 211.605016 228.377462 
L 212.023423 228.519815 
L 212.441831 229.341837 
L 212.860238 230.839758 
L 213.278645 229.553372 
L 213.697053 229.84758 
L 214.533867 227.023477 
L 214.952275 228.98025 
L 215.370682 229.932324 
L 215.78909 230.301306 
L 216.207497 229.221388 
L 216.625904 229.324043 
L 217.044312 230.241995 
L 217.462719 228.999569 
L 217.881126 230.183628 
L 218.299534 227.96638 
L 219.136348 227.861927 
L 219.554756 229.265402 
L 219.973163 228.198302 
L 220.391571 228.673524 
L 220.809978 228.741826 
L 221.228385 228.479046 
L 221.646793 229.145712 
L 222.0652 228.983929 
L 222.483607 226.487084 
L 222.902015 227.038003 
L 223.320422 226.202404 
L 223.738829 224.957529 
L 224.157237 227.050835 
L 224.994052 224.049743 
L 225.412459 223.225801 
L 225.830866 223.343815 
L 226.249274 221.381761 
L 226.667681 221.581466 
L 227.086088 222.402943 
L 227.504496 221.642041 
L 227.922903 219.556435 
L 228.341311 219.55115 
L 228.759718 221.582673 
L 229.178125 218.329861 
L 229.596533 219.023393 
L 230.01494 218.389931 
L 230.433347 220.237111 
L 230.851755 220.440805 
L 231.270162 221.617156 
L 231.688569 218.55523 
L 232.106977 221.680787 
L 232.525384 220.556456 
L 232.943792 223.304269 
L 233.362199 223.1433 
L 233.780606 225.525761 
L 234.617421 224.168688 
L 235.035828 226.867796 
L 235.454236 225.147766 
L 235.872643 226.320726 
L 236.29105 228.066551 
L 236.709458 227.916284 
L 237.127865 228.198213 
L 237.546273 228.08191 
L 237.96468 228.783718 
L 238.383087 229.258975 
L 238.801495 228.91798 
L 239.219902 229.742484 
L 239.638309 230.099531 
L 240.475124 228.160659 
L 240.893531 230.527357 
L 241.311939 229.093062 
L 241.730346 229.749191 
L 242.148754 230.084593 
L 242.567161 228.341923 
L 242.985568 229.670493 
L 243.403976 227.741804 
L 243.822383 229.935492 
L 244.24079 228.819236 
L 245.077605 229.919218 
L 245.496013 228.631839 
L 245.91442 229.345948 
L 246.332827 228.618289 
L 246.751235 229.243412 
L 247.169642 230.241082 
L 247.588049 229.296392 
L 248.006457 229.148549 
L 248.424864 228.277955 
L 248.843271 230.068959 
L 249.261679 229.236333 
L 249.680086 230.852339 
L 250.098494 228.572856 
L 250.516901 230.237286 
L 250.935308 230.933492 
L 251.353716 229.255461 
L 251.772123 228.136639 
L 252.19053 230.662733 
L 253.027345 229.912462 
L 253.445752 230.283406 
L 253.86416 228.834169 
L 254.282567 229.974019 
L 254.700975 229.891562 
L 255.119382 228.638356 
L 255.537789 229.924217 
L 255.956197 228.782927 
L 256.374604 230.131549 
L 256.793011 230.362779 
L 257.211419 230.961434 
L 257.629826 227.411008 
L 258.048233 229.506179 
L 258.466641 228.964304 
L 258.885048 229.22841 
L 259.303456 229.044954 
L 259.721863 229.150867 
L 260.14027 227.365853 
L 260.558678 230.196419 
L 260.977085 230.694443 
L 261.395492 230.170518 
L 261.8139 230.480501 
L 262.232307 228.481173 
L 262.650715 228.410661 
L 263.069122 230.121878 
L 263.487529 230.534023 
L 263.905937 229.53935 
L 264.324344 227.862492 
L 264.742751 231.906626 
L 265.161159 228.692793 
L 265.579566 230.231791 
L 265.997973 228.199374 
L 266.416381 230.233873 
L 266.834788 229.472714 
L 267.253196 230.645284 
L 267.671603 230.137189 
L 268.09001 227.867568 
L 268.508418 228.410469 
L 268.926825 229.584368 
L 269.345232 230.03434 
L 269.76364 231.017483 
L 270.182047 229.576673 
L 270.600454 229.228269 
L 271.437269 229.28867 
L 271.855677 230.276023 
L 272.274084 229.262241 
L 272.692491 229.235732 
L 273.110899 227.959076 
L 273.529306 227.405696 
L 273.947713 229.330158 
L 274.366121 229.934582 
L 274.784528 229.261 
L 275.202935 229.782174 
L 275.621343 229.911654 
L 276.03975 229.254918 
L 276.458158 230.200623 
L 276.876565 228.616457 
L 277.294972 229.298393 
L 277.71338 228.958469 
L 278.968602 230.10905 
L 279.387009 229.426478 
L 279.805416 229.725642 
L 280.223824 228.973939 
L 280.642231 229.202845 
L 281.060639 230.507007 
L 281.479046 229.134122 
L 281.897453 230.48833 
L 282.315861 229.79068 
L 282.734268 229.481298 
L 283.152675 231.191771 
L 283.571083 229.1107 
L 283.98949 229.053577 
L 284.826305 229.606121 
L 285.244712 229.557413 
L 285.66312 230.136499 
L 286.081527 229.45762 
L 286.499934 229.729341 
L 286.918342 229.11053 
L 287.336749 230.355093 
L 287.755156 228.972317 
L 288.173564 229.061035 
L 289.010379 229.62042 
L 289.428786 228.668097 
L 289.847193 230.797344 
L 290.265601 228.756349 
L 290.684008 228.965164 
L 291.520823 228.830438 
L 291.93923 229.826377 
L 292.357637 229.447785 
L 292.776045 228.58673 
L 293.61286 229.000052 
L 294.031267 230.653008 
L 294.449674 228.681978 
L 294.868082 228.075377 
L 295.286489 228.228856 
L 295.704896 228.973962 
L 296.123304 230.694651 
L 296.541711 228.293327 
L 296.960118 229.340018 
L 297.378526 231.630931 
L 297.796933 228.836302 
L 298.215341 230.631735 
L 298.633748 230.443746 
L 299.052155 229.80843 
L 299.470563 227.976336 
L 299.88897 229.554764 
L 300.307377 228.938316 
L 300.725785 227.519763 
L 301.144192 227.667612 
L 301.5626 229.297853 
L 301.981007 229.430556 
L 302.399414 230.409583 
L 302.817822 229.865576 
L 303.236229 228.790055 
L 303.654636 228.818511 
L 304.073044 229.092711 
L 304.491451 228.243137 
L 304.909858 229.940404 
L 305.746673 228.49627 
L 306.165081 228.637549 
L 306.583488 228.170005 
L 307.420303 229.495752 
L 307.83871 228.850723 
L 308.257117 230.161524 
L 308.257117 230.161524 
" clip-path="url(#pb5f6f807e4)" style="fill: none; stroke: #4b6f8a; stroke-width: 1.4; stroke-linecap: square"/>
   </g>
   <g id="line2d_12">
    <path d="M 57.631105 229.165748 
L 58.049513 227.892627 
L 58.46792 228.022313 
L 58.886327 229.688709 
L 59.304735 229.484771 
L 59.723142 229.705111 
L 60.141549 228.651398 
L 60.559957 229.252435 
L 60.978364 228.481247 
L 61.396772 230.97284 
L 61.815179 227.694006 
L 62.233586 229.291206 
L 62.651994 228.545123 
L 63.070401 229.329752 
L 63.488808 229.562691 
L 63.907216 228.753797 
L 64.325623 228.406689 
L 64.744031 229.393107 
L 65.162438 229.345331 
L 65.580845 228.540013 
L 65.999253 230.034501 
L 66.41766 230.653068 
L 66.836067 228.81923 
L 67.672882 231.042967 
L 68.091289 229.980441 
L 68.509697 229.647689 
L 68.928104 230.344592 
L 69.346512 230.632016 
L 69.764919 229.1634 
L 70.183326 228.336831 
L 70.601734 229.422498 
L 71.020141 229.91277 
L 71.438548 228.828823 
L 71.856956 228.509724 
L 72.275363 229.486731 
L 72.69377 228.675465 
L 73.112178 228.196965 
L 73.530585 229.397358 
L 73.948993 229.979924 
L 74.3674 228.864689 
L 74.785807 228.960834 
L 75.204215 228.14324 
L 75.622622 230.432355 
L 76.041029 229.834029 
L 76.459437 230.003599 
L 76.877844 230.864011 
L 77.296251 229.077153 
L 77.714659 228.69166 
L 78.133066 229.908152 
L 78.551474 227.867749 
L 78.969881 228.409172 
L 79.806696 228.812765 
L 80.225103 228.280714 
L 80.64351 230.477871 
L 81.061918 228.608932 
L 81.480325 228.619641 
L 81.898733 230.896365 
L 82.31714 228.865263 
L 82.735547 229.439076 
L 83.153955 228.447946 
L 83.572362 229.620241 
L 84.409177 228.869235 
L 84.827584 230.040111 
L 85.245991 228.623575 
L 85.664399 229.299283 
L 86.082806 228.725444 
L 86.501214 229.69961 
L 86.919621 228.155142 
L 87.338028 228.617069 
L 87.756436 229.36926 
L 88.59325 227.988208 
L 89.011658 227.477714 
L 89.430065 230.709256 
L 89.848472 228.349591 
L 90.685287 229.287586 
L 91.103695 230.164056 
L 91.522102 227.989484 
L 91.940509 230.408453 
L 92.358917 228.651731 
L 92.777324 227.945438 
L 93.195731 230.731682 
L 93.614139 229.485231 
L 94.032546 230.451395 
L 94.869361 227.737683 
L 95.287768 227.247506 
L 95.706176 230.897473 
L 96.961398 227.667419 
L 97.798212 229.895833 
L 98.21662 228.890661 
L 99.471842 229.86892 
L 99.890249 228.786127 
L 100.308657 228.856173 
L 100.727064 229.234131 
L 101.145471 229.349736 
L 101.563879 230.361827 
L 101.982286 229.584406 
L 102.400693 227.947128 
L 103.237508 230.460788 
L 103.655916 227.779839 
L 104.074323 228.533658 
L 104.49273 226.997492 
L 104.911138 228.938969 
L 105.329545 229.416297 
L 105.747952 230.334786 
L 106.16636 227.640995 
L 106.584767 226.409195 
L 107.003174 229.626363 
L 107.421582 229.416147 
L 107.839989 228.174391 
L 108.258397 229.492075 
L 108.676804 228.896885 
L 109.095211 228.909978 
L 109.513619 228.320668 
L 109.932026 227.378282 
L 110.350433 228.326648 
L 110.768841 227.376202 
L 111.187248 228.565407 
L 111.605655 227.742672 
L 112.024063 229.998108 
L 112.44247 229.215167 
L 112.860878 226.926983 
L 113.279285 228.117372 
L 113.697692 226.842656 
L 114.1161 226.717331 
L 114.534507 225.795999 
L 114.952914 226.102803 
L 115.371322 225.710873 
L 115.789729 226.588218 
L 116.208136 226.932961 
L 116.626544 226.734069 
L 117.044951 226.257015 
L 117.463359 226.617834 
L 118.300173 225.073185 
L 118.718581 224.449926 
L 119.136988 224.71227 
L 119.555395 225.917723 
L 119.973803 223.811391 
L 120.39221 223.186273 
L 120.810618 222.011271 
L 121.229025 222.137983 
L 121.647432 222.941908 
L 122.06584 222.641206 
L 122.484247 219.629543 
L 122.902654 220.441684 
L 123.321062 219.01144 
L 123.739469 218.322632 
L 124.157876 220.747526 
L 124.576284 219.183542 
L 125.831506 217.808831 
L 126.249913 217.732087 
L 126.668321 217.360747 
L 127.086728 218.579439 
L 127.505135 216.911738 
L 127.923543 217.097143 
L 128.34195 215.89551 
L 128.760357 216.116044 
L 129.178765 214.737739 
L 129.597172 214.225853 
L 130.01558 214.414186 
L 130.433987 214.123957 
L 130.852394 214.075456 
L 131.270802 214.353338 
L 131.689209 213.862368 
L 132.107616 213.985204 
L 132.526024 212.965952 
L 132.944431 213.179956 
L 133.362838 212.516354 
L 133.781246 214.258706 
L 134.199653 212.065206 
L 134.618061 213.613269 
L 135.036468 213.576665 
L 135.454875 213.079605 
L 135.873283 213.477379 
L 136.29169 212.730505 
L 136.710097 213.662553 
L 137.128505 214.265896 
L 137.546912 214.204686 
L 137.96532 212.311092 
L 138.802134 215.122184 
L 139.220542 214.241498 
L 139.638949 216.013659 
L 140.057356 213.089919 
L 140.475764 216.580661 
L 140.894171 214.981381 
L 141.312578 215.259222 
L 141.730986 217.52805 
L 142.149393 216.213406 
L 142.567801 215.921255 
L 142.986208 216.816263 
L 143.404615 217.408611 
L 143.823023 217.147734 
L 144.24143 218.309209 
L 144.659837 218.548052 
L 145.078245 219.401772 
L 145.496652 219.08222 
L 145.915059 221.000829 
L 146.333467 219.741272 
L 146.751874 221.388213 
L 147.170282 222.346583 
L 148.007096 220.446164 
L 148.425504 221.523512 
L 148.843911 223.308578 
L 149.262318 222.499493 
L 149.680726 223.952588 
L 150.51754 224.090388 
L 150.935948 226.714689 
L 151.354355 224.605908 
L 151.772763 226.067462 
L 152.19117 226.0247 
L 152.609577 227.034849 
L 153.027985 227.326811 
L 153.446392 227.01527 
L 153.864799 225.543172 
L 154.283207 224.95064 
L 154.701614 226.777734 
L 155.120022 225.895995 
L 155.956836 229.129243 
L 156.375244 227.306811 
L 156.793651 227.170325 
L 157.212058 228.147599 
L 157.630466 227.573708 
L 158.048873 227.432979 
L 158.46728 228.922345 
L 158.885688 229.613435 
L 159.304095 228.501605 
L 159.722503 228.578484 
L 160.14091 228.794166 
L 160.559317 227.580367 
L 160.977725 226.938178 
L 161.396132 229.056858 
L 161.814539 228.041258 
L 162.232947 227.859591 
L 162.651354 228.124514 
L 163.069761 227.845266 
L 163.488169 229.263048 
L 164.324984 227.009874 
L 165.161798 229.602348 
L 165.580206 228.445655 
L 165.998613 227.836884 
L 166.835428 229.624228 
L 167.253835 227.615237 
L 167.672242 230.310189 
L 168.09065 228.637497 
L 168.509057 229.146408 
L 168.927465 230.286032 
L 169.345872 227.976049 
L 169.764279 228.819891 
L 170.182687 230.280593 
L 170.601094 228.587223 
L 171.019501 229.584226 
L 171.437909 231.001192 
L 172.274724 228.927022 
L 172.693131 228.572208 
L 173.111538 229.026018 
L 173.529946 229.143619 
L 173.948353 228.737294 
L 174.36676 229.392786 
L 174.785168 228.061015 
L 175.203575 229.049733 
L 176.04039 228.674808 
L 176.458797 230.210244 
L 176.877205 229.876644 
L 177.295612 227.727849 
L 177.714019 228.874336 
L 178.132427 229.468173 
L 178.550834 228.869061 
L 178.969241 229.659861 
L 179.387649 228.929957 
L 179.806056 229.837217 
L 180.224463 228.932736 
L 180.642871 230.713258 
L 181.061278 227.919797 
L 181.479686 229.690827 
L 181.898093 230.716927 
L 182.3165 229.413283 
L 182.734908 229.554668 
L 183.153315 229.05202 
L 183.571722 230.298374 
L 183.99013 228.816712 
L 184.408537 225.718247 
L 184.826944 230.426588 
L 185.245352 228.874159 
L 185.663759 229.496957 
L 186.082167 229.013551 
L 186.500574 230.93869 
L 186.918981 230.304036 
L 187.337389 228.757086 
L 187.755796 229.235466 
L 188.174203 227.628017 
L 188.592611 229.875493 
L 189.011018 229.030981 
L 189.429425 226.400691 
L 189.847833 229.93386 
L 190.26624 230.066664 
L 190.684648 229.232324 
L 191.103055 229.241385 
L 191.521462 228.38781 
L 192.358277 229.925392 
L 192.776684 228.995528 
L 193.195092 226.664364 
L 193.613499 227.97712 
L 194.031907 231.870704 
L 194.450314 229.334987 
L 194.868721 230.039063 
L 195.287129 228.60094 
L 195.705536 229.364998 
L 196.123943 227.342343 
L 196.542351 228.304189 
L 196.960758 228.343406 
L 197.379165 229.019397 
L 197.797573 229.237292 
L 198.21598 228.871864 
L 198.634388 227.954545 
L 199.471202 229.535831 
L 199.88961 227.973941 
L 200.308017 229.014077 
L 200.726424 229.273133 
L 201.144832 229.958661 
L 201.563239 229.742191 
L 201.981646 229.809474 
L 202.400054 231.880487 
L 202.818461 228.221959 
L 203.236869 228.654507 
L 203.655276 229.404361 
L 204.073683 228.193936 
L 204.492091 228.777843 
L 204.910498 228.841563 
L 205.328905 231.575172 
L 205.747313 229.421864 
L 206.16572 228.686517 
L 206.584127 227.650935 
L 207.002535 227.428258 
L 207.420942 227.824346 
L 207.83935 230.306231 
L 208.257757 231.296174 
L 208.676164 228.629471 
L 209.094572 229.138433 
L 209.512979 228.221692 
L 209.931386 229.239178 
L 210.349794 228.866546 
L 210.768201 230.460094 
L 211.186609 228.507498 
L 211.605016 229.252638 
L 212.023423 228.337297 
L 212.441831 228.030976 
L 212.860238 228.323436 
L 213.278645 227.573868 
L 213.697053 227.476223 
L 214.11546 226.227066 
L 214.533867 225.86819 
L 214.952275 226.166594 
L 215.370682 225.39483 
L 215.78909 222.249834 
L 216.207497 223.035524 
L 216.625904 220.938285 
L 217.044312 220.432776 
L 217.462719 220.271882 
L 217.881126 219.405563 
L 218.299534 217.602249 
L 219.136348 215.562897 
L 219.554756 216.834548 
L 219.973163 215.845429 
L 220.391571 215.220901 
L 220.809978 213.642451 
L 221.228385 217.67554 
L 221.646793 215.368502 
L 222.0652 216.808921 
L 222.483607 216.454785 
L 222.902015 217.957501 
L 223.320422 217.746885 
L 223.738829 217.165521 
L 224.157237 218.828043 
L 224.994052 219.516134 
L 225.412459 220.784084 
L 225.830866 219.625779 
L 226.667681 220.83584 
L 227.086088 219.960243 
L 227.504496 219.983217 
L 227.922903 218.883364 
L 228.341311 219.515095 
L 228.759718 219.895763 
L 229.178125 217.966352 
L 229.596533 218.470217 
L 230.01494 218.340271 
L 231.270162 220.904328 
L 231.688569 221.239006 
L 232.106977 220.588993 
L 232.525384 221.965746 
L 232.943792 224.101993 
L 233.362199 223.335384 
L 233.780606 225.278981 
L 234.199014 224.368453 
L 234.617421 226.269211 
L 235.035828 226.87922 
L 235.454236 226.063537 
L 235.872643 226.719662 
L 236.29105 228.659881 
L 236.709458 226.715879 
L 237.127865 225.679762 
L 237.546273 229.457122 
L 237.96468 226.520916 
L 238.383087 229.124993 
L 238.801495 229.099986 
L 239.219902 228.928025 
L 239.638309 230.249119 
L 240.056717 227.696159 
L 240.475124 228.535398 
L 240.893531 229.780196 
L 241.311939 229.362515 
L 241.730346 230.581251 
L 242.567161 228.262126 
L 242.985568 230.819677 
L 243.403976 229.5987 
L 243.822383 229.043399 
L 244.24079 228.179775 
L 244.659198 227.89019 
L 245.077605 229.62182 
L 245.496013 229.886004 
L 245.91442 228.728699 
L 246.332827 229.487632 
L 246.751235 229.401078 
L 247.169642 228.012008 
L 247.588049 227.346986 
L 248.006457 228.60007 
L 248.424864 228.879692 
L 248.843271 227.927681 
L 249.261679 229.998696 
L 249.680086 227.827948 
L 250.098494 228.357254 
L 250.516901 224.467656 
L 250.935308 225.388167 
L 251.353716 225.159941 
L 251.772123 224.61098 
L 252.19053 225.905224 
L 252.608938 221.841272 
L 253.027345 220.00987 
L 253.445752 221.38414 
L 253.86416 219.247085 
L 254.282567 218.585577 
L 254.700975 220.338831 
L 255.119382 217.750062 
L 255.537789 217.382529 
L 255.956197 218.734936 
L 256.374604 219.503353 
L 256.793011 219.359974 
L 257.211419 222.414352 
L 257.629826 221.758321 
L 258.048233 221.79483 
L 258.466641 224.960101 
L 258.885048 223.732732 
L 259.721863 228.288221 
L 260.14027 227.04305 
L 260.558678 228.420089 
L 260.977085 227.62271 
L 261.395492 229.404515 
L 261.8139 227.538227 
L 262.232307 229.45696 
L 262.650715 228.550894 
L 263.069122 229.566982 
L 263.487529 229.378016 
L 263.905937 227.971337 
L 264.324344 228.94076 
L 264.742751 229.547147 
L 265.161159 230.382376 
L 265.579566 228.074006 
L 265.997973 228.488831 
L 266.416381 229.508931 
L 266.834788 228.963126 
L 267.253196 230.186479 
L 267.671603 230.172734 
L 268.09001 229.991672 
L 268.508418 228.858602 
L 268.926825 228.91345 
L 269.345232 229.912363 
L 269.76364 228.485781 
L 270.182047 228.436471 
L 270.600454 229.016072 
L 271.018862 228.170371 
L 271.437269 229.418464 
L 271.855677 229.208646 
L 272.274084 228.577375 
L 272.692491 228.957439 
L 273.110899 228.002264 
L 273.529306 229.737501 
L 273.947713 226.846439 
L 274.366121 228.543602 
L 274.784528 227.414606 
L 275.202935 227.927703 
L 275.621343 225.273954 
L 276.03975 223.798517 
L 276.876565 222.53169 
L 277.294972 224.088507 
L 277.71338 222.761573 
L 278.131787 222.083166 
L 278.550194 222.412876 
L 278.968602 220.57314 
L 279.387009 221.856959 
L 279.805416 222.649249 
L 280.223824 222.902634 
L 280.642231 225.118964 
L 281.479046 226.73567 
L 281.897453 226.160898 
L 282.315861 226.95711 
L 282.734268 227.261123 
L 283.152675 227.197845 
L 283.571083 229.851082 
L 284.407898 228.789324 
L 284.826305 230.331025 
L 285.244712 229.613799 
L 285.66312 228.170111 
L 286.499934 228.148537 
L 286.918342 229.14909 
L 287.336749 229.398111 
L 287.755156 228.159818 
L 288.173564 229.555591 
L 288.591971 228.873324 
L 289.010379 227.925557 
L 289.428786 229.551546 
L 289.847193 229.78496 
L 290.684008 228.623874 
L 291.102415 228.73526 
L 291.520823 229.048895 
L 291.93923 228.664178 
L 292.357637 230.734913 
L 292.776045 230.023865 
L 293.194452 229.041819 
L 293.61286 230.090515 
L 294.031267 230.487191 
L 294.449674 230.358631 
L 294.868082 230.080433 
L 295.286489 229.370003 
L 295.704896 230.180763 
L 296.541711 227.56946 
L 296.960118 229.340375 
L 297.378526 227.974312 
L 297.796933 228.921566 
L 298.215341 230.274116 
L 298.633748 229.444855 
L 299.052155 230.141585 
L 299.470563 228.46103 
L 299.88897 230.306071 
L 300.307377 227.928332 
L 300.725785 228.643271 
L 301.144192 231.140903 
L 301.5626 228.445272 
L 301.981007 227.707003 
L 302.399414 229.957842 
L 302.817822 228.252309 
L 303.236229 230.925833 
L 303.654636 228.956406 
L 304.073044 230.794259 
L 304.491451 228.735279 
L 304.909858 230.915826 
L 305.328266 231.727312 
L 305.746673 228.818163 
L 306.165081 227.001199 
L 306.583488 229.770695 
L 307.001895 228.401261 
L 307.420303 229.092256 
L 307.83871 229.509296 
L 308.257117 228.607546 
L 308.257117 228.607546 
" clip-path="url(#pb5f6f807e4)" style="fill: none; stroke: #c47b45; stroke-width: 1.4; stroke-linecap: square"/>
   </g>
   <g id="line2d_13">
    <path d="M 134.967132 232.913957 
L 134.967132 210.752671 
" clip-path="url(#pb5f6f807e4)" style="fill: none; stroke-dasharray: 0.6,0.99; stroke-dashoffset: 0; stroke: #8c8c8c; stroke-opacity: 0.7; stroke-width: 0.6"/>
   </g>
   <g id="line2d_14">
    <path d="M 220.179976 232.913957 
L 220.179976 210.752671 
" clip-path="url(#pb5f6f807e4)" style="fill: none; stroke-dasharray: 0.6,0.99; stroke-dashoffset: 0; stroke: #8c8c8c; stroke-opacity: 0.7; stroke-width: 0.6"/>
   </g>
   <g id="line2d_15">
    <path d="M 229.488942 232.913957 
L 229.488942 210.752671 
" clip-path="url(#pb5f6f807e4)" style="fill: none; stroke-dasharray: 0.6,0.99; stroke-dashoffset: 0; stroke: #8c8c8c; stroke-opacity: 0.7; stroke-width: 0.6"/>
   </g>
   <g id="line2d_16">
    <path d="M 255.267618 232.913957 
L 255.267618 210.752671 
" clip-path="url(#pb5f6f807e4)" style="fill: none; stroke-dasharray: 0.6,0.99; stroke-dashoffset: 0; stroke: #8c8c8c; stroke-opacity: 0.7; stroke-width: 0.6"/>
   </g>
   <g id="line2d_17">
    <path d="M 278.540033 232.913957 
L 278.540033 210.752671 
" clip-path="url(#pb5f6f807e4)" style="fill: none; stroke-dasharray: 0.6,0.99; stroke-dashoffset: 0; stroke: #8c8c8c; stroke-opacity: 0.7; stroke-width: 0.6"/>
   </g>
   <g id="patch_3">
    <path d="M 45.099805 232.913957 
L 45.099805 210.752671 
" style="fill: none; stroke: #000000; stroke-width: 1.5; stroke-linejoin: miter; stroke-linecap: square"/>
   </g>
   <g id="patch_4">
    <path d="M 45.099805 232.913957 
L 320.788418 232.913957 
" style="fill: none; stroke: #000000; stroke-width: 1.5; stroke-linejoin: miter; stroke-linecap: square"/>
   </g>
   <g id="text_13">
    <text style="font-size: 6px; font-family: 'Arial', 'Helvetica', 'Liberation Sans', 'DejaVu Sans', sans-serif; fill: #b85450" transform="translate(133.704437 204.224319) rotate(-90)">CH2</text>
   </g>
   <g id="text_14">
    <text style="font-size: 6px; font-family: 'Arial', 'Helvetica', 'Liberation Sans', 'DejaVu Sans', sans-serif; fill: #b85450" transform="translate(218.917281 204.725881) rotate(-90)">C=O</text>
   </g>
   <g id="text_15">
    <text style="font-size: 6px; font-family: 'Arial', 'Helvetica', 'Liberation Sans', 'DejaVu Sans', sans-serif; fill: #b85450" transform="translate(228.226247 204.392131) rotate(-90)">C=C</text>
   </g>
   <g id="text_16">
    <text style="font-size: 6px; font-family: 'Arial', 'Helvetica', 'Liberation Sans', 'DejaVu Sans', sans-serif; fill: #b85450" transform="translate(254.004922 209.550256) rotate(-90)">C-O-C</text>
   </g>
   <g id="text_17">
    <text style="font-size: 6px; font-family: 'Arial', 'Helvetica', 'Liberation Sans', 'DejaVu Sans', sans-serif; fill: #b85450" transform="translate(277.277338 211.898694) rotate(-90)">oxirane</text>
   </g>
   <g id="text_18">
    <text style="font-size: 11px; font-family: 'Arial', 'Helvetica', 'Liberation Sans', 'DejaVu Sans', sans-serif; text-anchor: middle" x="182.944111" y="204.752671" transform="rotate(-0 182.944111 204.752671)">(a) FTIR spectra</text>
   </g>
   <g id="legend_1">
    <g id="line2d_18">
     <path d="M 238.872012 212.62134 
L 245.872012 212.62134 
L 252.872012 212.62134 
" style="fill: none; stroke: #4b6f8a; stroke-width: 1.4; stroke-linecap: square"/>
    </g>
    <g id="text_19">
     <text style="font-size: 7px; font-family: 'Arial', 'Helvetica', 'Liberation Sans', 'DejaVu Sans', sans-serif; text-anchor: start" x="258.472012" y="215.07134" transform="rotate(-0 258.472012 215.07134)">Control (asphalt)</text>
    </g>
    <g id="line2d_19">
     <path d="M 238.872012 222.690812 
L 245.872012 222.690812 
L 252.872012 222.690812 
" style="fill: none; stroke: #c47b45; stroke-width: 1.4; stroke-linecap: square"/>
    </g>
    <g id="text_20">
     <text style="font-size: 7px; font-family: 'Arial', 'Helvetica', 'Liberation Sans', 'DejaVu Sans', sans-serif; text-anchor: start" x="258.472012" y="225.140812" transform="rotate(-0 258.472012 225.140812)">WER-EA modified</text>
    </g>
   </g>
  </g>
  <g id="axes_2">
   <g id="patch_5">
    <path d="M 362.410918 232.913957 
L 638.099531 232.913957 
L 638.099531 210.752671 
L 362.410918 210.752671 
z
" style="fill: #ffffff"/>
   </g>
   <g id="patch_6">
    <path d="M 374.942219 232.913957 
L 385.171852 232.913957 
L 385.171852 231.594833 
L 374.942219 231.594833 
z
" clip-path="url(#p9198765db5)" style="fill: #4b6f8a"/>
   </g>
   <g id="patch_7">
    <path d="M 400.516301 232.913957 
L 410.745935 232.913957 
L 410.745935 228.297022 
L 400.516301 228.297022 
z
" clip-path="url(#p9198765db5)" style="fill: #4b6f8a"/>
   </g>
   <g id="patch_8">
    <path d="M 426.090384 232.913957 
L 436.320017 232.913957 
L 436.320017 223.680088 
L 426.090384 223.680088 
z
" clip-path="url(#p9198765db5)" style="fill: #4b6f8a"/>
   </g>
   <g id="patch_9">
    <path d="M 451.664467 232.913957 
L 461.8941 232.913957 
L 461.8941 218.403591 
L 451.664467 218.403591 
z
" clip-path="url(#p9198765db5)" style="fill: #4b6f8a"/>
   </g>
   <g id="patch_10">
    <path d="M 477.23855 232.913957 
L 487.468183 232.913957 
L 487.468183 214.446219 
L 477.23855 214.446219 
z
" clip-path="url(#p9198765db5)" style="fill: #4b6f8a"/>
   </g>
   <g id="patch_11">
    <path d="M 502.812633 232.913957 
L 513.042266 232.913957 
L 513.042266 221.04184 
L 502.812633 221.04184 
z
" clip-path="url(#p9198765db5)" style="fill: #4b6f8a"/>
   </g>
   <g id="patch_12">
    <path d="M 528.386716 232.913957 
L 538.616349 232.913957 
L 538.616349 225.658774 
L 528.386716 225.658774 
z
" clip-path="url(#p9198765db5)" style="fill: #4b6f8a"/>
   </g>
   <g id="patch_13">
    <path d="M 553.960799 232.913957 
L 564.190432 232.913957 
L 564.190432 228.956585 
L 553.960799 228.956585 
z
" clip-path="url(#p9198765db5)" style="fill: #4b6f8a"/>
   </g>
   <g id="patch_14">
    <path d="M 579.534881 232.913957 
L 589.764515 232.913957 
L 589.764515 230.935271 
L 579.534881 230.935271 
z
" clip-path="url(#p9198765db5)" style="fill: #4b6f8a"/>
   </g>
   <g id="patch_15">
    <path d="M 605.108964 232.913957 
L 615.338598 232.913957 
L 615.338598 232.254395 
L 605.108964 232.254395 
z
" clip-path="url(#p9198765db5)" style="fill: #4b6f8a"/>
   </g>
   <g id="patch_16">
    <path d="M 385.171852 232.913957 
L 395.401485 232.913957 
L 395.401485 232.254395 
L 385.171852 232.254395 
z
" clip-path="url(#p9198765db5)" style="fill: #c47b45"/>
   </g>
   <g id="patch_17">
    <path d="M 410.745935 232.913957 
L 420.975568 232.913957 
L 420.975568 229.616147 
L 410.745935 229.616147 
z
" clip-path="url(#p9198765db5)" style="fill: #c47b45"/>
   </g>
   <g id="patch_18">
    <path d="M 436.320017 232.913957 
L 446.549651 232.913957 
L 446.549651 224.999212 
L 436.320017 224.999212 
z
" clip-path="url(#p9198765db5)" style="fill: #c47b45"/>
   </g>
   <g id="patch_19">
    <path d="M 461.8941 232.913957 
L 472.123733 232.913957 
L 472.123733 217.084467 
L 461.8941 217.084467 
z
" clip-path="url(#p9198765db5)" style="fill: #c47b45"/>
   </g>
   <g id="patch_20">
    <path d="M 487.468183 232.913957 
L 497.697816 232.913957 
L 497.697816 211.80797 
L 487.468183 211.80797 
z
" clip-path="url(#p9198765db5)" style="fill: #c47b45"/>
   </g>
   <g id="patch_21">
    <path d="M 513.042266 232.913957 
L 523.271899 232.913957 
L 523.271899 218.403591 
L 513.042266 218.403591 
z
" clip-path="url(#p9198765db5)" style="fill: #c47b45"/>
   </g>
   <g id="patch_22">
    <path d="M 538.616349 232.913957 
L 548.845982 232.913957 
L 548.845982 226.977898 
L 538.616349 226.977898 
z
" clip-path="url(#p9198765db5)" style="fill: #c47b45"/>
   </g>
   <g id="patch_23">
    <path d="M 564.190432 232.913957 
L 574.420065 232.913957 
L 574.420065 230.275709 
L 564.190432 230.275709 
z
" clip-path="url(#p9198765db5)" style="fill: #c47b45"/>
   </g>
   <g id="patch_24">
    <path d="M 589.764515 232.913957 
L 599.994148 232.913957 
L 599.994148 231.594833 
L 589.764515 231.594833 
z
" clip-path="url(#p9198765db5)" style="fill: #c47b45"/>
   </g>
   <g id="patch_25">
    <path d="M 615.338598 232.913957 
L 625.568231 232.913957 
L 625.568231 232.254395 
L 615.338598 232.254395 
z
" clip-path="url(#p9198765db5)" style="fill: #c47b45"/>
   </g>
   <g id="matplotlib.axis_3">
    <g id="xtick_9">
     <g id="line2d_20">
      <g>
       <use xlink:href="#m765e749a19" x="372.38481" y="232.913957" style="stroke: #000000; stroke-width: 1.2"/>
      </g>
     </g>
     <g id="text_21">
      <text style="font-size: 9px; font-family: 'Arial', 'Helvetica', 'Liberation Sans', 'DejaVu Sans', sans-serif; text-anchor: middle" x="372.38481" y="246.466203" transform="rotate(-0 372.38481 246.466203)">0</text>
     </g>
    </g>
    <g id="xtick_10">
     <g id="line2d_21">
      <g>
       <use xlink:href="#m765e749a19" x="423.532976" y="232.913957" style="stroke: #000000; stroke-width: 1.2"/>
      </g>
     </g>
     <g id="text_22">
      <text style="font-size: 9px; font-family: 'Arial', 'Helvetica', 'Liberation Sans', 'DejaVu Sans', sans-serif; text-anchor: middle" x="423.532976" y="246.466203" transform="rotate(-0 423.532976 246.466203)">2</text>
     </g>
    </g>
    <g id="xtick_11">
     <g id="line2d_22">
      <g>
       <use xlink:href="#m765e749a19" x="474.681142" y="232.913957" style="stroke: #000000; stroke-width: 1.2"/>
      </g>
     </g>
     <g id="text_23">
      <text style="font-size: 9px; font-family: 'Arial', 'Helvetica', 'Liberation Sans', 'DejaVu Sans', sans-serif; text-anchor: middle" x="474.681142" y="246.466203" transform="rotate(-0 474.681142 246.466203)">4</text>
     </g>
    </g>
    <g id="xtick_12">
     <g id="line2d_23">
      <g>
       <use xlink:href="#m765e749a19" x="525.829307" y="232.913957" style="stroke: #000000; stroke-width: 1.2"/>
      </g>
     </g>
     <g id="text_24">
      <text style="font-size: 9px; font-family: 'Arial', 'Helvetica', 'Liberation Sans', 'DejaVu Sans', sans-serif; text-anchor: middle" x="525.829307" y="246.466203" transform="rotate(-0 525.829307 246.466203)">6</text>
     </g>
    </g>
    <g id="xtick_13">
     <g id="line2d_24">
      <g>
       <use xlink:href="#m765e749a19" x="576.977473" y="232.913957" style="stroke: #000000; stroke-width: 1.2"/>
      </g>
     </g>
     <g id="text_25">
      <text style="font-size: 9px; font-family: 'Arial', 'Helvetica', 'Liberation Sans', 'DejaVu Sans', sans-serif; text-anchor: middle" x="576.977473" y="246.466203" transform="rotate(-0 576.977473 246.466203)">8</text>
     </g>
    </g>
    <g id="xtick_14">
     <g id="line2d_25">
      <g>
       <use xlink:href="#m765e749a19" x="628.125639" y="232.913957" style="stroke: #000000; stroke-width: 1.2"/>
      </g>
     </g>
     <g id="text_26">
      <text style="font-size: 9px; font-family: 'Arial', 'Helvetica', 'Liberation Sans', 'DejaVu Sans', sans-serif; text-anchor: middle" x="628.125639" y="246.466203" transform="rotate(-0 628.125639 246.466203)">10</text>
     </g>
    </g>
    <g id="text_27">
     <!-- Particle size ($\mu$m) -->
     <g transform="translate(461.205225 259.660246)">
      <text>
       <tspan x="0" y="-0.71875" style="font-size: 10px; font-family: 'Arial'">P</tspan>
       <tspan x="6.669922" y="-0.71875" style="font-size: 10px; font-family: 'Arial'">a</tspan>
       <tspan x="12.231445" y="-0.71875" style="font-size: 10px; font-family: 'Arial'">r</tspan>
       <tspan x="15.561523" y="-0.71875" style="font-size: 10px; font-family: 'Arial'">t</tspan>
       <tspan x="18.339844" y="-0.71875" style="font-size: 10px; font-family: 'Arial'">i</tspan>
       <tspan x="20.561523" y="-0.71875" style="font-size: 10px; font-family: 'Arial'">c</tspan>
       <tspan x="25.561523" y="-0.71875" style="font-size: 10px; font-family: 'Arial'">l</tspan>
       <tspan x="27.783203" y="-0.71875" style="font-size: 10px; font-family: 'Arial'">e</tspan>
       <tspan x="33.344727" y="-0.71875" style="font-size: 10px; font-family: 'Arial'"> </tspan>
       <tspan x="36.123047" y="-0.71875" style="font-size: 10px; font-family: 'Arial'">s</tspan>
       <tspan x="41.123047" y="-0.71875" style="font-size: 10px; font-family: 'Arial'">i</tspan>
       <tspan x="43.344727" y="-0.71875" style="font-size: 10px; font-family: 'Arial'">z</tspan>
       <tspan x="48.344727" y="-0.71875" style="font-size: 10px; font-family: 'Arial'">e</tspan>
       <tspan x="53.90625" y="-0.71875" style="font-size: 10px; font-family: 'Arial'"> </tspan>
       <tspan x="56.68457" y="-0.71875" style="font-size: 10px; font-family: 'Arial'">(</tspan>
       <tspan x="66.376953" y="-0.71875" style="font-size: 10px; font-family: 'Arial'">m</tspan>
       <tspan x="74.707031" y="-0.71875" style="font-size: 10px; font-family: 'Arial'">)</tspan>
       <tspan x="60.014648" y="-0.71875" style="font-style: oblique; font-size: 10px; font-family: 'DejaVu Sans'">μ</tspan>
      </text>
     </g>
    </g>
   </g>
   <g id="matplotlib.axis_4">
    <g id="ytick_3">
     <g id="line2d_26">
      <g>
       <use xlink:href="#m81eb065424" x="362.410918" y="232.913957" style="stroke: #000000; stroke-width: 1.2"/>
      </g>
     </g>
     <g id="text_28">
      <text style="font-size: 9px; font-family: 'Arial', 'Helvetica', 'Liberation Sans', 'DejaVu Sans', sans-serif; text-anchor: end" x="355.410918" y="236.19008" transform="rotate(-0 355.410918 236.19008)">0</text>
     </g>
    </g>
    <g id="ytick_4">
     <g id="line2d_27">
      <g>
       <use xlink:href="#m81eb065424" x="362.410918" y="216.424905" style="stroke: #000000; stroke-width: 1.2"/>
      </g>
     </g>
     <g id="text_29">
      <text style="font-size: 9px; font-family: 'Arial', 'Helvetica', 'Liberation Sans', 'DejaVu Sans', sans-serif; text-anchor: end" x="355.410918" y="219.701028" transform="rotate(-0 355.410918 219.701028)">25</text>
     </g>
    </g>
    <g id="text_30">
     <text style="font-size: 10px; font-family: 'Arial', 'Helvetica', 'Liberation Sans', 'DejaVu Sans', sans-serif; text-anchor: middle" x="339.296543" y="221.833314" transform="rotate(-90 339.296543 221.833314)">Frequency count</text>
    </g>
   </g>
   <g id="patch_26">
    <path d="M 362.410918 232.913957 
L 362.410918 210.752671 
" style="fill: none; stroke: #000000; stroke-width: 1.5; stroke-linejoin: miter; stroke-linecap: square"/>
   </g>
   <g id="patch_27">
    <path d="M 362.410918 232.913957 
L 638.099531 232.913957 
" style="fill: none; stroke: #000000; stroke-width: 1.5; stroke-linejoin: miter; stroke-linecap: square"/>
   </g>
   <g id="text_31">
    <text style="font-size: 11px; font-family: 'Arial', 'Helvetica', 'Liberation Sans', 'DejaVu Sans', sans-serif; text-anchor: middle" x="500.255225" y="204.752671" transform="rotate(-0 500.255225 204.752671)">(b) SEM droplet size</text>
   </g>
   <g id="legend_2">
    <g id="patch_28">
     <path d="M 585.742812 215.071477 
L 599.742812 215.071477 
L 599.742812 210.171477 
L 585.742812 210.171477 
z
" style="fill: #4b6f8a"/>
    </g>
    <g id="text_32">
     <text style="font-size: 7px; font-family: 'Arial', 'Helvetica', 'Liberation Sans', 'DejaVu Sans', sans-serif; text-anchor: start" x="605.342812" y="215.071477" transform="rotate(-0 605.342812 215.071477)">Control</text>
    </g>
    <g id="patch_29">
     <path d="M 585.742812 225.140812 
L 599.742812 225.140812 
L 599.742812 220.240812 
L 585.742812 220.240812 
z
" style="fill: #c47b45"/>
    </g>
    <g id="text_33">
     <text style="font-size: 7px; font-family: 'Arial', 'Helvetica', 'Liberation Sans', 'DejaVu Sans', sans-serif; text-anchor: start" x="605.342812" y="225.140812" transform="rotate(-0 605.342812 225.140812)">Modified</text>
    </g>
   </g>
  </g>
  <g id="text_34">
   <text style="font-size: 12px; font-family: 'Arial', 'Helvetica', 'Liberation Sans', 'DejaVu Sans', sans-serif; text-anchor: middle" x="324.899531" y="15.936328" transform="rotate(-0 324.899531 15.936328)">FTIR + SEM evidence pair (anchored functional groups)</text>
  </g>
 </g>
 <defs>
  <clipPath id="pb5f6f807e4">
   <rect x="45.099805" y="210.752671" width="275.688613" height="22.161286"/>
  </clipPath>
  <clipPath id="p9198765db5">
   <rect x="362.410918" y="210.752671" width="275.688613" height="22.161286"/>
  </clipPath>
 </defs>
</svg>
