<?xml version="1.0" encoding="utf-8" standalone="no"?>
<!DOCTYPE svg PUBLIC "-//W3C//DTD SVG 1.1//EN"
  "http://www.w3.org/Graphics/SVG/1.1/DTD/svg11.dtd">
<svg xmlns:xlink="http://www.w3.org/1999/xlink" width="568.8pt" height="316.8pt" viewBox="0 0 568.8 316.8" xmlns="http://www.w3.org/2000/svg" version="1.1">
 <metadata>
  <rdf:RDF xmlns:dc="http://purl.org/dc/elements/1.1/" xmlns:cc="http://creativecommons.org/ns#" xmlns:rdf="http://www.w3.org/1999/02/22-rdf-syntax-ns#">
   <cc:Work>
    <dc:type rdf:resource="http://purl.org/dc/dcmitype/StillImage"/>
    <dc:date>2026-06-19T17:17:35.427493</dc:date>
    <dc:format>image/svg+xml</dc:format>
    <dc:creator>
     <cc:Agent>
      <dc:title>Matplotlib v3.11.0, https://matplotlib.org/</dc:title>
     </cc:Agent>
    </dc:creator>
   </cc:Work>
  </rdf:RDF>
 </metadata>
 <defs>
  <style type="text/css">*{stroke-linejoin: round; stroke-linecap: butt}</style>
 </defs>
 <g id="figure_1">
  <g id="patch_1">
   <path d="M 0 316.8 
L 568.8 316.8 
L 568.8 0 
L 0 0 
z
" style="fill: #ffffff"/>
  </g>
  <g id="axes_1">
   <g id="patch_2">
    <path d="M 62.64 196.865063 
C 70.726573 196.865063 78.483029 193.826386 84.2011 188.418266 
C 89.919171 183.010145 93.132 175.67413 93.132 168.025893 
C 93.132 160.377656 89.919171 153.041641 84.2011 147.63352 
C 78.483029 142.2254 70.726573 139.186723 62.64 139.186723 
C 54.553427 139.186723 46.796971 142.2254 41.0789 147.63352 
C 35.360829 153.041641 32.148 160.377656 32.148 168.025893 
C 32.148 175.67413 35.360829 183.010145 41.0789 188.418266 
C 46.796971 193.826386 54.553427 196.865063 62.64 196.865063 
z
" clip-path="url(#p851005c0a1)" style="fill: #4b6f8a; opacity: 0.619; stroke: #4b6f8a; stroke-linejoin: miter"/>
   </g>
   <g id="patch_3">
    <path d="M 173.52 133.943238 
C 181.606573 133.943238 189.363029 130.904561 195.0811 125.49644 
C 200.799171 120.08832 204.012 112.752305 204.012 105.104068 
C 204.012 97.455831 200.799171 90.119816 195.0811 84.711695 
C 189.363029 79.303575 181.606573 76.264898 173.52 76.264898 
C 165.433427 76.264898 157.676971 79.303575 151.9589 84.711695 
C 146.240829 90.119816 143.028 97.455831 143.028 105.104068 
C 143.028 112.752305 146.240829 120.08832 151.9589 125.49644 
C 157.676971 130.904561 165.433427 133.943238 173.52 133.943238 
z
" clip-path="url(#p851005c0a1)" style="fill: #4b6f8a; opacity: 0.556; stroke: #4b6f8a; stroke-linejoin: miter"/>
   </g>
   <g id="patch_4">
    <path d="M 284.4 217.839005 
C 292.486573 217.839005 300.243029 214.800328 305.9611 209.392207 
C 311.679171 203.984087 314.892 196.648072 314.892 188.999835 
C 314.892 181.351598 311.679171 174.015583 305.9611 168.607462 
C 300.243029 163.199342 292.486573 160.160665 284.4 160.160665 
C 276.313427 160.160665 268.556971 163.199342 262.8389 168.607462 
C 257.120829 174.015583 253.908 181.351598 253.908 188.999835 
C 253.908 196.648072 257.120829 203.984087 262.8389 209.392207 
C 268.556971 214.800328 276.313427 217.839005 284.4 217.839005 
z
" clip-path="url(#p851005c0a1)" style="fill: #4b6f8a; opacity: 0.5875; stroke: #4b6f8a; stroke-linejoin: miter"/>
   </g>
   <g id="patch_5">
    <path d="M 395.28 154.91718 
C 403.366573 154.91718 411.123029 151.878503 416.8411 146.470382 
C 422.559171 141.062262 425.772 133.726247 425.772 126.07801 
C 425.772 118.429772 422.559171 111.093757 416.8411 105.685637 
C 411.123029 100.277517 403.366573 97.23884 395.28 97.23884 
C 387.193427 97.23884 379.436971 100.277517 373.7189 105.685637 
C 368.000829 111.093757 364.788 118.429772 364.788 126.07801 
C 364.788 133.726247 368.000829 141.062262 373.7189 146.470382 
C 379.436971 151.878503 387.193427 154.91718 395.28 154.91718 
z
" clip-path="url(#p851005c0a1)" style="fill: #4b6f8a; opacity: 0.4975; stroke: #4b6f8a; stroke-linejoin: miter"/>
   </g>
   <g id="patch_6">
    <path d="M 506.16 233.569461 
C 514.246573 233.569461 522.003029 230.530784 527.7211 225.122664 
C 533.439171 219.714543 536.652 212.378528 536.652 204.730291 
C 536.652 197.082054 533.439171 189.746039 527.7211 184.337919 
C 522.003029 178.929798 514.246573 175.891121 506.16 175.891121 
C 498.073427 175.891121 490.316971 178.929798 484.5989 184.337919 
C 478.880829 189.746039 475.668 197.082054 475.668 204.730291 
C 475.668 212.378528 478.880829 219.714543 484.5989 225.122664 
C 490.316971 230.530784 498.073427 233.569461 506.16 233.569461 
z
" clip-path="url(#p851005c0a1)" style="fill: #4b6f8a; opacity: 0.601; stroke: #4b6f8a; stroke-linejoin: miter"/>
   </g>
   <g id="text_1">
    <text style="font-weight: 700; font-size: 8px; font-family: 'Arial', 'Helvetica', 'Liberation Sans', 'DejaVu Sans', sans-serif; text-anchor: middle" x="62.64" y="170.096206" transform="rotate(-0 62.64 170.096206)">Demulsification</text>
   </g>
   <g id="patch_7">
    <path d="M 94.377573 166.455152 
Q 118.0807 136.564098 140.394475 108.4251 
" style="fill: none; stroke: #8b6f47; stroke-width: 2; stroke-linecap: round"/>
    <path d="M 136.342039 110.316598 
L 140.394475 108.4251 
L 139.476212 112.801947 
" style="fill: none; stroke: #8b6f47; stroke-width: 2; stroke-linecap: round"/>
   </g>
   <g id="text_2">
    <text style="font-size: 7px; font-family: 'Arial', 'Helvetica', 'Liberation Sans', 'DejaVu Sans', sans-serif; text-anchor: middle; fill: #b85450" x="62.64" y="220.460748" transform="rotate(-0 62.64 220.460748)">ev=0.82</text>
   </g>
   <g id="text_3">
    <text style="font-weight: 700; font-size: 8px; font-family: 'Arial', 'Helvetica', 'Liberation Sans', 'DejaVu Sans', sans-serif; text-anchor: middle" x="173.52" y="107.174302" transform="rotate(-0 173.52 107.174302)">Curing</text>
   </g>
   <g id="patch_8">
    <path d="M 205.033735 106.822026 
Q 228.960021 147.051986 251.743303 185.360086 
" style="fill: none; stroke: #8b6f47; stroke-width: 2; stroke-linecap: round"/>
    <path d="M 251.417601 180.899826 
L 251.743303 185.360086 
L 247.979674 182.944492 
" style="fill: none; stroke: #8b6f47; stroke-width: 2; stroke-linecap: round"/>
   </g>
   <g id="text_4">
    <text style="font-size: 7px; font-family: 'Arial', 'Helvetica', 'Liberation Sans', 'DejaVu Sans', sans-serif; text-anchor: middle; fill: #b85450" x="173.52" y="157.538922" transform="rotate(-0 173.52 157.538922)">ev=0.68</text>
   </g>
   <g id="text_5">
    <text style="font-weight: 700; font-size: 8px; font-family: 'Arial', 'Helvetica', 'Liberation Sans', 'DejaVu Sans', sans-serif; text-anchor: middle" x="284.4" y="191.070069" transform="rotate(-0 284.4 191.070069)">Morphology</text>
   </g>
   <g id="patch_9">
    <path d="M 316.137573 187.429094 
Q 339.8407 157.53804 362.154475 129.399042 
" style="fill: none; stroke: #8b6f47; stroke-width: 2; stroke-linecap: round"/>
    <path d="M 358.102039 131.29054 
L 362.154475 129.399042 
L 361.236212 133.775889 
" style="fill: none; stroke: #8b6f47; stroke-width: 2; stroke-linecap: round"/>
   </g>
   <g id="text_6">
    <text style="font-size: 7px; font-family: 'Arial', 'Helvetica', 'Liberation Sans', 'DejaVu Sans', sans-serif; text-anchor: middle; fill: #b85450" x="284.4" y="241.434689" transform="rotate(-0 284.4 241.434689)">ev=0.75</text>
   </g>
   <g id="text_7">
    <text style="font-weight: 700; font-size: 8px; font-family: 'Arial', 'Helvetica', 'Liberation Sans', 'DejaVu Sans', sans-serif" transform="translate(378.6075 123.794806)">Interface</text>
    <text style="font-weight: 700; font-size: 8px; font-family: 'Arial', 'Helvetica', 'Liberation Sans', 'DejaVu Sans', sans-serif" transform="translate(379.720625 132.501838)">reaction</text>
   </g>
   <g id="patch_10">
    <path d="M 426.842462 127.765404 
Q 450.719562 165.403461 473.398831 201.153344 
" style="fill: none; stroke: #8b6f47; stroke-width: 2; stroke-linecap: round"/>
    <path d="M 472.944915 196.704304 
L 473.398831 201.153344 
L 469.567249 198.847052 
" style="fill: none; stroke: #8b6f47; stroke-width: 2; stroke-linecap: round"/>
   </g>
   <g id="text_8">
    <text style="font-size: 7px; font-family: 'Arial', 'Helvetica', 'Liberation Sans', 'DejaVu Sans', sans-serif; text-anchor: middle; fill: #b85450" x="395.28" y="178.512864" transform="rotate(-0 395.28 178.512864)">ev=0.55</text>
   </g>
   <g id="text_9">
    <text style="font-weight: 700; font-size: 8px; font-family: 'Arial', 'Helvetica', 'Liberation Sans', 'DejaVu Sans', sans-serif; text-anchor: middle" x="506.16" y="206.800526" transform="rotate(-0 506.16 206.800526)">Bonding</text>
   </g>
   <g id="text_10">
    <text style="font-size: 7px; font-family: 'Arial', 'Helvetica', 'Liberation Sans', 'DejaVu Sans', sans-serif; text-anchor: middle; fill: #b85450" x="506.16" y="257.165146" transform="rotate(-0 506.16 257.165146)">ev=0.78</text>
   </g>
   <g id="text_11">
    <text style="font-size: 11px; font-family: 'Arial', 'Helvetica', 'Liberation Sans', 'DejaVu Sans', sans-serif; text-anchor: middle" x="284.4" y="15.208301" transform="rotate(-0 284.4 15.208301)">Interface mechanism map (process flow + evidence strength)</text>
   </g>
  </g>
 </g>
 <defs>
  <clipPath id="p851005c0a1">
   <rect x="7.2" y="21.208301" width="554.4" height="288.391699"/>
  </clipPath>
 </defs>
</svg>
