<?xml version="1.0" encoding="utf-8" standalone="no"?>
<!DOCTYPE svg PUBLIC "-//W3C//DTD SVG 1.1//EN"
  "http://www.w3.org/Graphics/SVG/1.1/DTD/svg11.dtd">
<svg xmlns:xlink="http://www.w3.org/1999/xlink" width="720pt" height="324pt" viewBox="0 0 720 324" xmlns="http://www.w3.org/2000/svg" version="1.1">
 <metadata>
  <rdf:RDF xmlns:dc="http://purl.org/dc/elements/1.1/" xmlns:cc="http://creativecommons.org/ns#" xmlns:rdf="http://www.w3.org/1999/02/22-rdf-syntax-ns#">
   <cc:Work>
    <dc:type rdf:resource="http://purl.org/dc/dcmitype/StillImage"/>
    <dc:date>2026-06-20T18:15:15.112172</dc:date>
    <dc:format>image/svg+xml</dc:format>
    <dc:creator>
     <cc:Agent>
      <dc:title>Matplotlib v3.11.0, https://matplotlib.org/</dc:title>
     </cc:Agent>
    </dc:creator>
   </cc:Work>
  </rdf:RDF>
 </metadata>
 <defs>
  <style type="text/css">*{stroke-linejoin: round; stroke-linecap: butt}</style>
 </defs>
 <g id="figure_1">
  <g id="patch_1">
   <path d="M 0 324 
L 720 324 
L 720 0 
L 0 0 
z
" style="fill: #ffffff"/>
  </g>
  <g id="axes_1">
   <g id="patch_2">
    <path d="M 84.096 195.572571 
C 98.730119 195.572571 112.766833 192.035154 123.114718 185.739393 
C 133.462603 179.443632 139.2768 170.90355 139.2768 162 
C 139.2768 153.09645 133.462603 144.556368 123.114718 138.260607 
C 112.766833 131.964846 98.730119 128.427429 84.096 128.427429 
C 69.461881 128.427429 55.425167 131.964846 45.077282 138.260607 
C 34.729397 144.556368 28.9152 153.09645 28.9152 162 
C 28.9152 170.90355 34.729397 179.443632 45.077282 185.739393 
C 55.425167 192.035154 69.461881 195.572571 84.096 195.572571 
z
" clip-path="url(#p7895e57057)" style="fill: #3775ba; stroke: #3775ba; stroke-linejoin: miter"/>
   </g>
   <g id="patch_3">
    <path d="M 270.3312 195.572571 
C 284.965319 195.572571 299.002033 192.035154 309.349918 185.739393 
C 319.697803 179.443632 325.512 170.90355 325.512 162 
C 325.512 153.09645 319.697803 144.556368 309.349918 138.260607 
C 299.002033 131.964846 284.965319 128.427429 270.3312 128.427429 
C 255.697081 128.427429 241.660367 131.964846 231.312482 138.260607 
C 220.964597 144.556368 215.1504 153.09645 215.1504 162 
C 215.1504 170.90355 220.964597 179.443632 231.312482 185.739393 
C 241.660367 192.035154 255.697081 195.572571 270.3312 195.572571 
z
" clip-path="url(#p7895e57057)" style="fill: #7aa6d4; stroke: #7aa6d4; stroke-linejoin: miter"/>
   </g>
   <g id="patch_4">
    <path d="M 456.5664 195.572571 
C 471.200519 195.572571 485.237233 192.035154 495.585118 185.739393 
C 505.933003 179.443632 511.7472 170.90355 511.7472 162 
C 511.7472 153.09645 505.933003 144.556368 495.585118 138.260607 
C 485.237233 131.964846 471.200519 128.427429 456.5664 128.427429 
C 441.932281 128.427429 427.895567 131.964846 417.547682 138.260607 
C 407.199797 144.556368 401.3856 153.09645 401.3856 162 
C 401.3856 170.90355 407.199797 179.443632 417.547682 185.739393 
C 427.895567 192.035154 441.932281 195.572571 456.5664 195.572571 
z
" clip-path="url(#p7895e57057)" style="fill: #e07c3e; stroke: #e07c3e; stroke-linejoin: miter"/>
   </g>
   <g id="patch_5">
    <path d="M 642.8016 195.572571 
C 657.435719 195.572571 671.472433 192.035154 681.820318 185.739393 
C 692.168203 179.443632 697.9824 170.90355 697.9824 162 
C 697.9824 153.09645 692.168203 144.556368 681.820318 138.260607 
C 671.472433 131.964846 657.435719 128.427429 642.8016 128.427429 
C 628.167481 128.427429 614.130767 131.964846 603.782882 138.260607 
C 593.434997 144.556368 587.6208 153.09645 587.6208 162 
C 587.6208 170.90355 593.434997 179.443632 603.782882 185.739393 
C 614.130767 192.035154 628.167481 195.572571 642.8016 195.572571 
z
" clip-path="url(#p7895e57057)" style="fill: #2e9e44; stroke: #2e9e44; stroke-linejoin: miter"/>
   </g>
   <g id="text_1">
    <text style="font-weight: 700; font-size: 10px; font-family: 'Arial', 'DejaVu Sans', 'Liberation Sans', sans-serif; text-anchor: middle; fill: #ffffff" x="84.096" y="164.587891" transform="rotate(-0 84.096 164.587891)">Au lattice</text>
   </g>
   <g id="text_2">
    <text style="font-size: 10px; font-family: 'Arial', 'DejaVu Sans', 'Liberation Sans', sans-serif; text-anchor: middle" x="84.096" y="245.931429" transform="rotate(-0 84.096 245.931429)">0.3 nm</text>
   </g>
   <g id="text_3">
    <text style="font-weight: 700; font-size: 10px; font-family: 'Arial', 'DejaVu Sans', 'Liberation Sans', sans-serif; text-anchor: middle; fill: #ffffff" x="270.3312" y="164.587891" transform="rotate(-0 270.3312 164.587891)">Au NP</text>
   </g>
   <g id="text_4">
    <text style="font-size: 10px; font-family: 'Arial', 'DejaVu Sans', 'Liberation Sans', sans-serif; text-anchor: middle" x="270.3312" y="245.931429" transform="rotate(-0 270.3312 245.931429)">8 nm</text>
   </g>
   <g id="text_5">
    <text style="font-weight: 700; font-size: 10px; font-family: 'Arial', 'DejaVu Sans', 'Liberation Sans', sans-serif; text-anchor: middle; fill: #ffffff" x="456.5664" y="164.587891" transform="rotate(-0 456.5664 164.587891)">Mesoporous shell</text>
   </g>
   <g id="text_6">
    <text style="font-size: 10px; font-family: 'Arial', 'DejaVu Sans', 'Liberation Sans', sans-serif; text-anchor: middle" x="456.5664" y="245.931429" transform="rotate(-0 456.5664 245.931429)">1 um</text>
   </g>
   <g id="text_7">
    <text style="font-weight: 700; font-size: 10px; font-family: 'Arial', 'DejaVu Sans', 'Liberation Sans', sans-serif; text-anchor: middle; fill: #ffffff" x="642.8016" y="164.587891" transform="rotate(-0 642.8016 164.587891)">Monolith bulk</text>
   </g>
   <g id="text_8">
    <text style="font-size: 10px; font-family: 'Arial', 'DejaVu Sans', 'Liberation Sans', sans-serif; text-anchor: middle" x="642.8016" y="245.931429" transform="rotate(-0 642.8016 245.931429)">1 cm</text>
   </g>
  </g>
 </g>
 <defs>
  <clipPath id="p7895e57057">
   <rect x="15.12" y="15.12" width="689.76" height="293.76"/>
  </clipPath>
 </defs>
</svg>
