<?xml version="1.0" encoding="utf-8" standalone="no"?>
<!DOCTYPE svg PUBLIC "-//W3C//DTD SVG 1.1//EN"
  "http://www.w3.org/Graphics/SVG/1.1/DTD/svg11.dtd">
<svg xmlns:xlink="http://www.w3.org/1999/xlink" width="640.8pt" height="338.4pt" viewBox="0 0 640.8 338.4" xmlns="http://www.w3.org/2000/svg" version="1.1">
 <metadata>
  <rdf:RDF xmlns:dc="http://purl.org/dc/elements/1.1/" xmlns:cc="http://creativecommons.org/ns#" xmlns:rdf="http://www.w3.org/1999/02/22-rdf-syntax-ns#">
   <cc:Work>
    <dc:type rdf:resource="http://purl.org/dc/dcmitype/StillImage"/>
    <dc:date>2026-06-19T17:47:45.441230</dc:date>
    <dc:format>image/svg+xml</dc:format>
    <dc:creator>
     <cc:Agent>
      <dc:title>Matplotlib v3.11.0, https://matplotlib.org/</dc:title>
     </cc:Agent>
    </dc:creator>
   </cc:Work>
  </rdf:RDF>
 </metadata>
 <defs>
  <style type="text/css">*{stroke-linejoin: round; stroke-linecap: butt}</style>
 </defs>
 <g id="figure_1">
  <g id="patch_1">
   <path d="M 0 338.4 
L 640.8 338.4 
L 640.8 0 
L 0 0 
z
" style="fill: #ffffff"/>
  </g>
  <g id="axes_1">
   <g id="patch_2">
    <path d="M 69.84 176.20415 
C 82.299242 176.20415 94.249862 172.43538 103.059877 165.727866 
C 111.869891 159.020352 116.82 149.921734 116.82 140.435877 
C 116.82 130.950021 111.869891 121.851403 103.059877 115.143889 
C 94.249862 108.436375 82.299242 104.667604 69.84 104.667604 
C 57.380758 104.667604 45.430138 108.436375 36.620123 115.143889 
C 27.810109 121.851403 22.86 130.950021 22.86 140.435877 
C 22.86 149.921734 27.810109 159.020352 36.620123 165.727866 
C 45.430138 172.43538 57.380758 176.20415 69.84 176.20415 
z
" clip-path="url(#pdcfc7063db)" style="fill: #4f7c6a; opacity: 0.22; stroke: #4f7c6a; stroke-width: 1.6; stroke-linejoin: miter"/>
   </g>
   <g id="patch_3">
    <path d="M 195.12 118.974914 
C 207.579242 118.974914 219.529862 115.206143 228.339877 108.498629 
C 237.149891 101.791115 242.1 92.692498 242.1 83.206641 
C 242.1 73.720784 237.149891 64.622166 228.339877 57.914652 
C 219.529862 51.207139 207.579242 47.438368 195.12 47.438368 
C 182.660758 47.438368 170.710138 51.207139 161.900123 57.914652 
C 153.090109 64.622166 148.14 73.720784 148.14 83.206641 
C 148.14 92.692498 153.090109 101.791115 161.900123 108.498629 
C 170.710138 115.206143 182.660758 118.974914 195.12 118.974914 
z
" clip-path="url(#pdcfc7063db)" style="fill: #c47b45; opacity: 0.22; stroke: #c47b45; stroke-width: 1.6; stroke-linejoin: miter"/>
   </g>
   <g id="patch_4">
    <path d="M 320.4 247.740696 
C 332.859242 247.740696 344.809862 243.971925 353.619877 237.264412 
C 362.429891 230.556898 367.38 221.45828 367.38 211.972423 
C 367.38 202.486566 362.429891 193.387949 353.619877 186.680435 
C 344.809862 179.972921 332.859242 176.20415 320.4 176.20415 
C 307.940758 176.20415 295.990138 179.972921 287.180123 186.680435 
C 278.370109 193.387949 273.42 202.486566 273.42 211.972423 
C 273.42 221.45828 278.370109 230.556898 287.180123 237.264412 
C 295.990138 243.971925 307.940758 247.740696 320.4 247.740696 
z
" clip-path="url(#pdcfc7063db)" style="fill: #4b6f8a; opacity: 0.22; stroke: #4b6f8a; stroke-width: 1.6; stroke-linejoin: miter"/>
   </g>
   <g id="patch_5">
    <path d="M 445.68 152.358635 
C 458.139242 152.358635 470.089862 148.589864 478.899877 141.88235 
C 487.709891 135.174837 492.66 126.076219 492.66 116.590362 
C 492.66 107.104505 487.709891 98.005887 478.899877 91.298374 
C 470.089862 84.59086 458.139242 80.822089 445.68 80.822089 
C 433.220758 80.822089 421.270138 84.59086 412.460123 91.298374 
C 403.650109 98.005887 398.7 107.104505 398.7 116.590362 
C 398.7 126.076219 403.650109 135.174837 412.460123 141.88235 
C 421.270138 148.589864 433.220758 152.358635 445.68 152.358635 
z
" clip-path="url(#pdcfc7063db)" style="fill: #4f7c6a; opacity: 0.22; stroke: #4f7c6a; stroke-width: 1.6; stroke-linejoin: miter"/>
   </g>
   <g id="patch_6">
    <path d="M 570.96 271.586212 
C 583.419242 271.586212 595.369862 267.817441 604.179877 261.109927 
C 612.989891 254.402413 617.94 245.303796 617.94 235.817939 
C 617.94 226.332082 612.989891 217.233464 604.179877 210.52595 
C 595.369862 203.818437 583.419242 200.049666 570.96 200.049666 
C 558.500758 200.049666 546.550138 203.818437 537.740123 210.52595 
C 528.930109 217.233464 523.98 226.332082 523.98 235.817939 
C 523.98 245.303796 528.930109 254.402413 537.740123 261.109927 
C 546.550138 267.817441 558.500758 271.586212 570.96 271.586212 
z
" clip-path="url(#pdcfc7063db)" style="fill: #4f7c6a; opacity: 0.22; stroke: #4f7c6a; stroke-width: 1.6; stroke-linejoin: miter"/>
   </g>
   <g id="text_1">
    <text style="font-weight: 700; font-size: 8px; font-family: 'Arial', 'Helvetica', 'Liberation Sans', 'DejaVu Sans', sans-serif" transform="translate(47.764375 138.152596)">Waterborne</text>
    <text style="font-weight: 700; font-size: 8px; font-family: 'Arial', 'Helvetica', 'Liberation Sans', 'DejaVu Sans', sans-serif" transform="translate(58.280625 146.859627)">epoxy</text>
   </g>
   <g id="text_2">
    <text style="font-weight: 700; font-size: 8px; font-family: 'Arial', 'Helvetica', 'Liberation Sans', 'DejaVu Sans', sans-serif" transform="translate(177.11875 80.923437)">Emulsion</text>
    <text style="font-weight: 700; font-size: 8px; font-family: 'Arial', 'Helvetica', 'Liberation Sans', 'DejaVu Sans', sans-serif" transform="translate(179.341875 89.630469)">droplets</text>
   </g>
   <g id="text_3">
    <text style="font-weight: 700; font-size: 8px; font-family: 'Arial', 'Helvetica', 'Liberation Sans', 'DejaVu Sans', sans-serif" transform="translate(305.733125 209.68922)">Asphalt</text>
    <text style="font-weight: 700; font-size: 8px; font-family: 'Arial', 'Helvetica', 'Liberation Sans', 'DejaVu Sans', sans-serif" transform="translate(313.28875 218.396252)">film</text>
   </g>
   <g id="text_4">
    <text style="font-weight: 700; font-size: 8px; font-family: 'Arial', 'Helvetica', 'Liberation Sans', 'DejaVu Sans', sans-serif" transform="translate(425.9 114.307081)">Aggregate</text>
    <text style="font-weight: 700; font-size: 8px; font-family: 'Arial', 'Helvetica', 'Liberation Sans', 'DejaVu Sans', sans-serif" transform="translate(429.0075 123.014268)">interface</text>
   </g>
   <g id="text_5">
    <text style="font-weight: 700; font-size: 8px; font-family: 'Arial', 'Helvetica', 'Liberation Sans', 'DejaVu Sans', sans-serif" transform="translate(554.744375 233.534579)">Bonding</text>
    <text style="font-weight: 700; font-size: 8px; font-family: 'Arial', 'Helvetica', 'Liberation Sans', 'DejaVu Sans', sans-serif" transform="translate(554.96125 242.241767)">strength</text>
   </g>
   <g id="patch_7">
    <path d="M 117.781545 138.678901 
Q 132.479937 111.821375 146.373208 86.434999 
" style="fill: none; stroke-dasharray: 5.55,2.4; stroke-dashoffset: 0; stroke: #4b6f8a; stroke-width: 1.5; stroke-linecap: round"/>
    <path d="M 142.698436 88.983734 
L 146.373208 86.434999 
L 146.207333 90.904057 
z
" style="fill: #4b6f8a; stroke-dasharray: 5.55,2.4; stroke-dashoffset: 0; stroke: #4b6f8a; stroke-width: 1.5; stroke-linecap: round"/>
   </g>
   <g id="text_6">
    <text style="font-style: italic; font-size: 7px; font-family: 'Arial', 'Helvetica', 'Liberation Sans', 'DejaVu Sans', sans-serif; text-anchor: middle; fill: #4b6f8a" x="132.48" y="90.360295" transform="rotate(-0 132.48 90.360295)">inferred</text>
   </g>
   <g id="patch_8">
    <path d="M 242.573126 85.151802 
Q 257.759808 147.588743 272.629404 208.722051 
" style="fill: none; stroke-dasharray: 4.44,1.92; stroke-dashoffset: 0; stroke: #c47b45; stroke-width: 1.2; stroke-linecap: round"/>
    <path d="M 273.627378 204.362688 
L 272.629404 208.722051 
L 269.740698 205.308054 
z
" style="fill: #c47b45; stroke-dasharray: 4.44,1.92; stroke-dashoffset: 0; stroke: #c47b45; stroke-width: 1.2; stroke-linecap: round"/>
   </g>
   <g id="text_7">
    <text style="font-style: italic; font-size: 7px; font-family: 'Arial', 'Helvetica', 'Liberation Sans', 'DejaVu Sans', sans-serif; text-anchor: middle; fill: #c47b45" x="257.76" y="126.128568" transform="rotate(-0 257.76 126.128568)">speculative</text>
   </g>
   <g id="patch_9">
    <path d="M 368.004144 210.071652 
Q 383.039662 164.282423 397.551981 120.086545 
" style="fill: none; stroke-dasharray: 5.55,2.4; stroke-dashoffset: 0; stroke: #4b6f8a; stroke-width: 1.5; stroke-linecap: round"/>
    <path d="M 394.4039 123.262955 
L 397.551981 120.086545 
L 398.204261 124.510856 
z
" style="fill: #4b6f8a; stroke-dasharray: 5.55,2.4; stroke-dashoffset: 0; stroke: #4b6f8a; stroke-width: 1.5; stroke-linecap: round"/>
   </g>
   <g id="text_8">
    <text style="font-style: italic; font-size: 7px; font-family: 'Arial', 'Helvetica', 'Liberation Sans', 'DejaVu Sans', sans-serif; text-anchor: middle; fill: #4b6f8a" x="383.04" y="142.820429" transform="rotate(-0 383.04 142.820429)">inferred</text>
   </g>
   <g id="patch_10">
    <path d="M 493.167535 118.522425 
Q 508.319411 176.201907 522.959978 231.934965 
" style="fill: none; stroke: #4f7c6a; stroke-width: 1.8; stroke-linecap: round"/>
    <path d="M 523.878066 227.558081 
L 522.959978 231.934965 
L 520.009324 228.574364 
z
" style="fill: #4f7c6a; stroke: #4f7c6a; stroke-width: 1.8; stroke-linecap: round"/>
   </g>
   <g id="text_9">
    <text style="font-style: italic; font-size: 7px; font-family: 'Arial', 'Helvetica', 'Liberation Sans', 'DejaVu Sans', sans-serif; text-anchor: middle; fill: #4f7c6a" x="508.32" y="154.743187" transform="rotate(-0 508.32 154.743187)">measured</text>
   </g>
   <g id="text_10">
    <text style="font-size: 11px; font-family: 'Arial', 'Helvetica', 'Liberation Sans', 'DejaVu Sans', sans-serif; text-anchor: middle" x="320.4" y="15.208301" transform="rotate(-0 320.4 15.208301)">WER-EA evidence-bounded mechanism map</text>
   </g>
   <g id="legend_1">
    <g id="patch_11">
     <path d="M 12.1 327.7 
L 69.518594 327.7 
Q 70.918594 327.7 70.918594 326.3 
L 70.918594 276.653184 
Q 70.918594 275.253184 69.518594 275.253184 
L 12.1 275.253184 
Q 10.7 275.253184 10.7 276.653184 
L 10.7 326.3 
Q 10.7 327.7 12.1 327.7 
z
" style="fill: #ffffff; opacity: 0.9; stroke: #cccccc; stroke-linejoin: miter"/>
    </g>
    <g id="text_11">
     <text style="font-size: 7px; font-family: 'Arial', 'Helvetica', 'Liberation Sans', 'DejaVu Sans', sans-serif; text-anchor: start" x="20.965938" y="283.149375" transform="rotate(-0 20.965938 283.149375)">evidence tier</text>
    </g>
    <g id="patch_12">
     <path d="M 13.5 293.218711 
L 27.5 293.218711 
L 27.5 288.318711 
L 13.5 288.318711 
z
" style="fill: #4f7c6a; opacity: 0.85"/>
    </g>
    <g id="text_12">
     <text style="font-size: 7px; font-family: 'Arial', 'Helvetica', 'Liberation Sans', 'DejaVu Sans', sans-serif; text-anchor: start" x="33.1" y="293.218711" transform="rotate(-0 33.1 293.218711)">measured</text>
    </g>
    <g id="patch_13">
     <path d="M 13.5 303.288047 
L 27.5 303.288047 
L 27.5 298.388047 
L 13.5 298.388047 
z
" style="fill: #4b6f8a; opacity: 0.85"/>
    </g>
    <g id="text_13">
     <text style="font-size: 7px; font-family: 'Arial', 'Helvetica', 'Liberation Sans', 'DejaVu Sans', sans-serif; text-anchor: start" x="33.1" y="303.288047" transform="rotate(-0 33.1 303.288047)">inferred</text>
    </g>
    <g id="patch_14">
     <path d="M 13.5 313.357383 
L 27.5 313.357383 
L 27.5 308.457383 
L 13.5 308.457383 
z
" style="fill: #c47b45; opacity: 0.85"/>
    </g>
    <g id="text_14">
     <text style="font-size: 7px; font-family: 'Arial', 'Helvetica', 'Liberation Sans', 'DejaVu Sans', sans-serif; text-anchor: start" x="33.1" y="313.357383" transform="rotate(-0 33.1 313.357383)">speculative</text>
    </g>
    <g id="patch_15">
     <path d="M 13.5 323.426719 
L 27.5 323.426719 
L 27.5 318.526719 
L 13.5 318.526719 
z
" style="fill: #8c8c8c; opacity: 0.85"/>
    </g>
    <g id="text_15">
     <text style="font-size: 7px; font-family: 'Arial', 'Helvetica', 'Liberation Sans', 'DejaVu Sans', sans-serif; text-anchor: start" x="33.1" y="323.426719" transform="rotate(-0 33.1 323.426719)">missing</text>
    </g>
   </g>
  </g>
 </g>
 <defs>
  <clipPath id="pdcfc7063db">
   <rect x="7.2" y="21.208301" width="626.4" height="309.991699"/>
  </clipPath>
 </defs>
</svg>
