<?xml version="1.0" encoding="utf-8" standalone="no"?>
<!DOCTYPE svg PUBLIC "-//W3C//DTD SVG 1.1//EN"
  "http://www.w3.org/Graphics/SVG/1.1/DTD/svg11.dtd">
<svg xmlns:xlink="http://www.w3.org/1999/xlink" width="640.8pt" height="280.8pt" viewBox="0 0 640.8 280.8" xmlns="http://www.w3.org/2000/svg" version="1.1">
 <metadata>
  <rdf:RDF xmlns:dc="http://purl.org/dc/elements/1.1/" xmlns:cc="http://creativecommons.org/ns#" xmlns:rdf="http://www.w3.org/1999/02/22-rdf-syntax-ns#">
   <cc:Work>
    <dc:type rdf:resource="http://purl.org/dc/dcmitype/StillImage"/>
    <dc:date>2026-06-19T16:33:29.418785</dc:date>
    <dc:format>image/svg+xml</dc:format>
    <dc:creator>
     <cc:Agent>
      <dc:title>Matplotlib v3.11.0, https://matplotlib.org/</dc:title>
     </cc:Agent>
    </dc:creator>
   </cc:Work>
  </rdf:RDF>
 </metadata>
 <defs>
  <style type="text/css">*{stroke-linejoin: round; stroke-linecap: butt}</style>
 </defs>
 <g id="figure_1">
  <g id="patch_1">
   <path d="M 0 280.8 
L 640.8 280.8 
L 640.8 0 
L 0 0 
z
" style="fill: #ffffff"/>
  </g>
  <g id="axes_1">
   <g id="patch_2">
    <path d="M 69.84 168.05438 
C 81.468626 168.05438 92.622538 164.669743 100.845218 158.645895 
C 109.067898 152.622046 113.688 144.450808 113.688 135.9318 
C 113.688 127.412793 109.067898 119.241555 100.845218 113.217706 
C 92.622538 107.193858 81.468626 103.809221 69.84 103.809221 
C 58.211374 103.809221 47.057462 107.193858 38.834782 113.217706 
C 30.612102 119.241555 25.992 127.412793 25.992 135.9318 
C 25.992 144.450808 30.612102 152.622046 38.834782 158.645895 
C 47.057462 164.669743 58.211374 168.05438 69.84 168.05438 
z
" clip-path="url(#p69dcdfca04)" style="fill: #4f7c6a; opacity: 0.52; stroke: #4f7c6a; stroke-linejoin: miter"/>
   </g>
   <g id="patch_3">
    <path d="M 195.12 168.05438 
C 206.748626 168.05438 217.902538 164.669743 226.125218 158.645895 
C 234.347898 152.622046 238.968 144.450808 238.968 135.9318 
C 238.968 127.412793 234.347898 119.241555 226.125218 113.217706 
C 217.902538 107.193858 206.748626 103.809221 195.12 103.809221 
C 183.491374 103.809221 172.337462 107.193858 164.114782 113.217706 
C 155.892102 119.241555 151.272 127.412793 151.272 135.9318 
C 151.272 144.450808 155.892102 152.622046 164.114782 158.645895 
C 172.337462 164.669743 183.491374 168.05438 195.12 168.05438 
z
" clip-path="url(#p69dcdfca04)" style="fill: #4b6f8a; opacity: 0.42; stroke: #4b6f8a; stroke-linejoin: miter"/>
   </g>
   <g id="patch_4">
    <path d="M 320.4 168.05438 
C 332.028626 168.05438 343.182538 164.669743 351.405218 158.645895 
C 359.627898 152.622046 364.248 144.450808 364.248 135.9318 
C 364.248 127.412793 359.627898 119.241555 351.405218 113.217706 
C 343.182538 107.193858 332.028626 103.809221 320.4 103.809221 
C 308.771374 103.809221 297.617462 107.193858 289.394782 113.217706 
C 281.172102 119.241555 276.552 127.412793 276.552 135.9318 
C 276.552 144.450808 281.172102 152.622046 289.394782 158.645895 
C 297.617462 164.669743 308.771374 168.05438 320.4 168.05438 
z
" clip-path="url(#p69dcdfca04)" style="fill: #c47b45; opacity: 0.34; stroke: #c47b45; stroke-linejoin: miter"/>
   </g>
   <g id="patch_5">
    <path d="M 445.68 168.05438 
C 457.308626 168.05438 468.462538 164.669743 476.685218 158.645895 
C 484.907898 152.622046 489.528 144.450808 489.528 135.9318 
C 489.528 127.412793 484.907898 119.241555 476.685218 113.217706 
C 468.462538 107.193858 457.308626 103.809221 445.68 103.809221 
C 434.051374 103.809221 422.897462 107.193858 414.674782 113.217706 
C 406.452102 119.241555 401.832 127.412793 401.832 135.9318 
C 401.832 144.450808 406.452102 152.622046 414.674782 158.645895 
C 422.897462 164.669743 434.051374 168.05438 445.68 168.05438 
z
" clip-path="url(#p69dcdfca04)" style="fill: #4b6f8a; opacity: 0.44; stroke: #4b6f8a; stroke-linejoin: miter"/>
   </g>
   <g id="patch_6">
    <path d="M 570.96 168.05438 
C 582.588626 168.05438 593.742538 164.669743 601.965218 158.645895 
C 610.187898 152.622046 614.808 144.450808 614.808 135.9318 
C 614.808 127.412793 610.187898 119.241555 601.965218 113.217706 
C 593.742538 107.193858 582.588626 103.809221 570.96 103.809221 
C 559.331374 103.809221 548.177462 107.193858 539.954782 113.217706 
C 531.732102 119.241555 527.112 127.412793 527.112 135.9318 
C 527.112 144.450808 531.732102 152.622046 539.954782 158.645895 
C 548.177462 164.669743 559.331374 168.05438 570.96 168.05438 
z
" clip-path="url(#p69dcdfca04)" style="fill: #c47b45; opacity: 0.38; stroke: #c47b45; stroke-linejoin: miter"/>
   </g>
   <g id="text_1">
    <text style="font-weight: 700; font-size: 8px; font-family: 'Arial', 'Helvetica', 'Liberation Sans', 'DejaVu Sans', sans-serif" transform="translate(51.83875 133.648597)">Emulsion</text>
    <text style="font-weight: 700; font-size: 8px; font-family: 'Arial', 'Helvetica', 'Liberation Sans', 'DejaVu Sans', sans-serif" transform="translate(55.616875 142.355629)">contact</text>
   </g>
   <g id="text_2">
    <text style="font-size: 9px; font-family: 'Arial', 'Helvetica', 'Liberation Sans', 'DejaVu Sans', sans-serif; text-anchor: middle; fill: #4f7c6a" x="69.84" y="195.58802" transform="rotate(-0 69.84 195.58802)">0.80</text>
   </g>
   <g id="patch_7">
    <path d="M 168.064827 135.9318 
Q 148.140402 135.9318 129.893028 135.9318 
" style="fill: none; stroke: #8c8c8c; stroke-width: 1.5; stroke-linecap: round"/>
    <path d="M 133.893028 137.9318 
L 129.893028 135.9318 
L 133.893028 133.9318 
z
" style="fill: #8c8c8c; stroke: #8c8c8c; stroke-width: 1.5; stroke-linecap: round"/>
   </g>
   <g id="text_3">
    <text style="font-weight: 700; font-size: 8px; font-family: 'Arial', 'Helvetica', 'Liberation Sans', 'DejaVu Sans', sans-serif" transform="translate(165.33875 133.648519)">Demulsification</text>
    <text style="font-weight: 700; font-size: 8px; font-family: 'Arial', 'Helvetica', 'Liberation Sans', 'DejaVu Sans', sans-serif" transform="translate(175.785625 142.35555)">(breaking)</text>
   </g>
   <g id="text_4">
    <text style="font-size: 9px; font-family: 'Arial', 'Helvetica', 'Liberation Sans', 'DejaVu Sans', sans-serif; text-anchor: middle; fill: #4b6f8a" x="195.12" y="195.58802" transform="rotate(-0 195.12 195.58802)">0.55</text>
   </g>
   <g id="patch_8">
    <path d="M 293.344827 135.9318 
Q 273.420402 135.9318 255.173028 135.9318 
" style="fill: none; stroke: #8c8c8c; stroke-width: 1.5; stroke-linecap: round"/>
    <path d="M 259.173028 137.9318 
L 255.173028 135.9318 
L 259.173028 133.9318 
z
" style="fill: #8c8c8c; stroke: #8c8c8c; stroke-width: 1.5; stroke-linecap: round"/>
   </g>
   <g id="text_5">
    <text style="font-weight: 700; font-size: 8px; font-family: 'Arial', 'Helvetica', 'Liberation Sans', 'DejaVu Sans', sans-serif" transform="translate(309.435 133.648597)">Water</text>
    <text style="font-weight: 700; font-size: 8px; font-family: 'Arial', 'Helvetica', 'Liberation Sans', 'DejaVu Sans', sans-serif" transform="translate(306.835 142.355629)">escape</text>
   </g>
   <g id="text_6">
    <text style="font-size: 9px; font-family: 'Arial', 'Helvetica', 'Liberation Sans', 'DejaVu Sans', sans-serif; text-anchor: middle; fill: #c47b45" x="320.4" y="195.58802" transform="rotate(-0 320.4 195.58802)">0.35</text>
   </g>
   <g id="patch_9">
    <path d="M 418.624827 135.9318 
Q 398.700402 135.9318 380.453028 135.9318 
" style="fill: none; stroke: #8c8c8c; stroke-width: 1.5; stroke-linecap: round"/>
    <path d="M 384.453028 137.9318 
L 380.453028 135.9318 
L 384.453028 133.9318 
z
" style="fill: #8c8c8c; stroke: #8c8c8c; stroke-width: 1.5; stroke-linecap: round"/>
   </g>
   <g id="text_7">
    <text style="font-weight: 700; font-size: 8px; font-family: 'Arial', 'Helvetica', 'Liberation Sans', 'DejaVu Sans', sans-serif" transform="translate(433.676875 133.648441)">Epoxy</text>
    <text style="font-weight: 700; font-size: 8px; font-family: 'Arial', 'Helvetica', 'Liberation Sans', 'DejaVu Sans', sans-serif" transform="translate(433.458125 142.355629)">curing</text>
   </g>
   <g id="text_8">
    <text style="font-size: 9px; font-family: 'Arial', 'Helvetica', 'Liberation Sans', 'DejaVu Sans', sans-serif; text-anchor: middle; fill: #4b6f8a" x="445.68" y="195.58802" transform="rotate(-0 445.68 195.58802)">0.60</text>
   </g>
   <g id="patch_10">
    <path d="M 543.904827 135.9318 
Q 523.980402 135.9318 505.733028 135.9318 
" style="fill: none; stroke: #8c8c8c; stroke-width: 1.5; stroke-linecap: round"/>
    <path d="M 509.733028 137.9318 
L 505.733028 135.9318 
L 509.733028 133.9318 
z
" style="fill: #8c8c8c; stroke: #8c8c8c; stroke-width: 1.5; stroke-linecap: round"/>
   </g>
   <g id="text_9">
    <text style="font-weight: 700; font-size: 8px; font-family: 'Arial', 'Helvetica', 'Liberation Sans', 'DejaVu Sans', sans-serif" transform="translate(562.7375 133.648597)">Film</text>
    <text style="font-weight: 700; font-size: 8px; font-family: 'Arial', 'Helvetica', 'Liberation Sans', 'DejaVu Sans', sans-serif" transform="translate(552.5175 142.355629)">formation</text>
   </g>
   <g id="text_10">
    <text style="font-size: 9px; font-family: 'Arial', 'Helvetica', 'Liberation Sans', 'DejaVu Sans', sans-serif; text-anchor: middle; fill: #c47b45" x="570.96" y="195.58802" transform="rotate(-0 570.96 195.58802)">0.45</text>
   </g>
   <g id="text_11">
    <text style="font-size: 11px; font-family: 'Arial', 'Helvetica', 'Liberation Sans', 'DejaVu Sans', sans-serif; text-anchor: middle" x="320.4" y="15.208301" transform="rotate(-0 320.4 15.208301)">WER-EA curing and demulsification sequence</text>
   </g>
  </g>
 </g>
 <defs>
  <clipPath id="p69dcdfca04">
   <rect x="7.2" y="21.208301" width="626.4" height="252.391699"/>
  </clipPath>
 </defs>
</svg>
