<?xml version="1.0" encoding="utf-8" standalone="no"?>
<!DOCTYPE svg PUBLIC "-//W3C//DTD SVG 1.1//EN"
  "http://www.w3.org/Graphics/SVG/1.1/DTD/svg11.dtd">
<svg xmlns:xlink="http://www.w3.org/1999/xlink" width="568.8pt" height="316.8pt" viewBox="0 0 568.8 316.8" xmlns="http://www.w3.org/2000/svg" version="1.1">
 <metadata>
  <rdf:RDF xmlns:dc="http://purl.org/dc/elements/1.1/" xmlns:cc="http://creativecommons.org/ns#" xmlns:rdf="http://www.w3.org/1999/02/22-rdf-syntax-ns#">
   <cc:Work>
    <dc:type rdf:resource="http://purl.org/dc/dcmitype/StillImage"/>
    <dc:date>2026-06-19T17:47:48.329035</dc:date>
    <dc:format>image/svg+xml</dc:format>
    <dc:creator>
     <cc:Agent>
      <dc:title>Matplotlib v3.11.0, https://matplotlib.org/</dc:title>
     </cc:Agent>
    </dc:creator>
   </cc:Work>
  </rdf:RDF>
 </metadata>
 <defs>
  <style type="text/css">*{stroke-linejoin: round; stroke-linecap: butt}</style>
 </defs>
 <g id="figure_1">
  <g id="patch_1">
   <path d="M 0 316.8 
L 568.8 316.8 
L 568.8 0 
L 0 0 
z
" style="fill: #ffffff"/>
  </g>
  <g id="axes_1">
   <g id="patch_2">
    <path d="M 90.36 87.538392 
L 478.44 87.538392 
Q 483.984 87.538392 483.984 84.654475 
L 483.984 44.279637 
Q 483.984 41.39572 478.44 41.39572 
L 90.36 41.39572 
Q 84.816 41.39572 84.816 44.279637 
L 84.816 84.654475 
Q 84.816 87.538392 90.36 87.538392 
z
" clip-path="url(#p6220b12e49)" style="fill: #4b6f8a; opacity: 0.2; stroke: #4b6f8a; stroke-width: 1.5; stroke-linejoin: miter"/>
   </g>
   <g id="patch_3">
    <path d="M 226.188 150.984565 
L 342.612 150.984565 
Q 348.156 150.984565 348.156 148.100648 
L 348.156 107.725811 
Q 348.156 104.841894 342.612 104.841894 
L 226.188 104.841894 
Q 220.644 104.841894 220.644 107.725811 
L 220.644 148.100648 
Q 220.644 150.984565 226.188 150.984565 
z
" clip-path="url(#p6220b12e49)" style="fill: #4b6f8a; opacity: 0.266667; stroke: #4b6f8a; stroke-width: 1.5; stroke-linejoin: miter"/>
   </g>
   <g id="patch_4">
    <path d="M 260.145 214.430739 
L 308.655 214.430739 
Q 314.199 214.430739 314.199 211.546822 
L 314.199 171.171984 
Q 314.199 168.288067 308.655 168.288067 
L 260.145 168.288067 
Q 254.601 168.288067 254.601 171.171984 
L 254.601 211.546822 
Q 254.601 214.430739 260.145 214.430739 
z
" clip-path="url(#p6220b12e49)" style="fill: #4b6f8a; opacity: 0.333333; stroke: #4b6f8a; stroke-width: 1.5; stroke-linejoin: miter"/>
   </g>
   <g id="patch_5">
    <path d="M 266.613 277.876913 
L 302.187 277.876913 
Q 307.731 277.876913 307.731 274.992996 
L 307.731 234.618158 
Q 307.731 231.734241 302.187 231.734241 
L 266.613 231.734241 
Q 261.069 231.734241 261.069 234.618158 
L 261.069 274.992996 
Q 261.069 277.876913 266.613 277.876913 
z
" clip-path="url(#p6220b12e49)" style="fill: #4b6f8a; opacity: 0.4; stroke: #4b6f8a; stroke-width: 1.5; stroke-linejoin: miter"/>
   </g>
   <g id="text_1">
    <text style="font-weight: 700; font-size: 9px; font-family: 'Arial', 'Helvetica', 'Liberation Sans', 'DejaVu Sans', sans-serif; text-anchor: middle" x="284.4" y="61.028323" transform="rotate(-0 284.4 61.028323)">Search</text>
   </g>
   <g id="text_2">
    <text style="font-size: 8px; font-family: 'Arial', 'Helvetica', 'Liberation Sans', 'DejaVu Sans', sans-serif; text-anchor: middle" x="284.4" y="78.073036" transform="rotate(-0 284.4 78.073036)">n = 240</text>
   </g>
   <g id="text_3">
    <text style="font-size: 7px; font-family: 'Arial', 'Helvetica', 'Liberation Sans', 'DejaVu Sans', sans-serif; text-anchor: start; fill: #b85450" x="495.072" y="66.278579" transform="rotate(-0 495.072 66.278579)">Duplicates 80</text>
   </g>
   <g id="patch_6">
    <path d="M 284.4 105.72974 
Q 284.4 97.635567 284.4 91.218445 
" style="fill: none; stroke: #4b6f8a; stroke-width: 1.5; stroke-linecap: round"/>
    <path d="M 282.4 95.218445 
L 284.4 91.218445 
L 286.4 95.218445 
z
" style="fill: #4b6f8a; stroke: #4b6f8a; stroke-width: 1.5; stroke-linecap: round"/>
   </g>
   <g id="text_4">
    <text style="font-weight: 700; font-size: 9px; font-family: 'Arial', 'Helvetica', 'Liberation Sans', 'DejaVu Sans', sans-serif; text-anchor: middle" x="284.4" y="124.474497" transform="rotate(-0 284.4 124.474497)">Title/abstract</text>
   </g>
   <g id="text_5">
    <text style="font-size: 8px; font-family: 'Arial', 'Helvetica', 'Liberation Sans', 'DejaVu Sans', sans-serif; text-anchor: middle" x="284.4" y="141.51921" transform="rotate(-0 284.4 141.51921)">n = 72</text>
   </g>
   <g id="text_6">
    <text style="font-size: 7px; font-family: 'Arial', 'Helvetica', 'Liberation Sans', 'DejaVu Sans', sans-serif; text-anchor: start; fill: #b85450" x="359.244" y="129.726735" transform="rotate(-0 359.244 129.726735)">Out of scope 88</text>
   </g>
   <g id="patch_7">
    <path d="M 284.4 169.175914 
Q 284.4 161.081741 284.4 154.664619 
" style="fill: none; stroke: #4b6f8a; stroke-width: 1.5; stroke-linecap: round"/>
    <path d="M 282.4 158.664619 
L 284.4 154.664619 
L 286.4 158.664619 
z
" style="fill: #4b6f8a; stroke: #4b6f8a; stroke-width: 1.5; stroke-linecap: round"/>
   </g>
   <g id="text_7">
    <text style="font-weight: 700; font-size: 9px; font-family: 'Arial', 'Helvetica', 'Liberation Sans', 'DejaVu Sans', sans-serif; text-anchor: middle" x="284.4" y="187.920671" transform="rotate(-0 284.4 187.920671)">Full-text</text>
   </g>
   <g id="text_8">
    <text style="font-size: 8px; font-family: 'Arial', 'Helvetica', 'Liberation Sans', 'DejaVu Sans', sans-serif; text-anchor: middle" x="284.4" y="204.965384" transform="rotate(-0 284.4 204.965384)">n = 30</text>
   </g>
   <g id="text_9">
    <text style="font-size: 7px; font-family: 'Arial', 'Helvetica', 'Liberation Sans', 'DejaVu Sans', sans-serif; text-anchor: start; fill: #b85450" x="325.287" y="193.170927" transform="rotate(-0 325.287 193.170927)">No WER-EA data 8</text>
   </g>
   <g id="patch_8">
    <path d="M 284.4 232.622088 
Q 284.4 224.527915 284.4 218.110793 
" style="fill: none; stroke: #4b6f8a; stroke-width: 1.5; stroke-linecap: round"/>
    <path d="M 282.4 222.110793 
L 284.4 218.110793 
L 286.4 222.110793 
z
" style="fill: #4b6f8a; stroke: #4b6f8a; stroke-width: 1.5; stroke-linecap: round"/>
   </g>
   <g id="text_10">
    <text style="font-weight: 700; font-size: 9px; font-family: 'Arial', 'Helvetica', 'Liberation Sans', 'DejaVu Sans', sans-serif; text-anchor: middle" x="284.4" y="251.366845" transform="rotate(-0 284.4 251.366845)">Included</text>
   </g>
   <g id="text_11">
    <text style="font-size: 8px; font-family: 'Arial', 'Helvetica', 'Liberation Sans', 'DejaVu Sans', sans-serif; text-anchor: middle" x="284.4" y="268.411558" transform="rotate(-0 284.4 268.411558)">n = 22</text>
   </g>
   <g id="text_12">
    <text style="font-size: 11px; font-family: 'Arial', 'Helvetica', 'Liberation Sans', 'DejaVu Sans', sans-serif; text-anchor: middle" x="284.4" y="15.208301" transform="rotate(-0 284.4 15.208301)">WER-EA literature screening flow</text>
   </g>
  </g>
 </g>
 <defs>
  <clipPath id="p6220b12e49">
   <rect x="7.2" y="21.208301" width="554.4" height="288.391699"/>
  </clipPath>
 </defs>
</svg>
