<?xml version="1.0" encoding="utf-8" standalone="no"?>
<!DOCTYPE svg PUBLIC "-//W3C//DTD SVG 1.1//EN"
  "http://www.w3.org/Graphics/SVG/1.1/DTD/svg11.dtd">
<svg xmlns:xlink="http://www.w3.org/1999/xlink" width="688.983038pt" height="497.546277pt" viewBox="0 0 688.983038 497.546277" xmlns="http://www.w3.org/2000/svg" version="1.1">
 <metadata>
  <rdf:RDF xmlns:dc="http://purl.org/dc/elements/1.1/" xmlns:cc="http://creativecommons.org/ns#" xmlns:rdf="http://www.w3.org/1999/02/22-rdf-syntax-ns#">
   <cc:Work>
    <dc:type rdf:resource="http://purl.org/dc/dcmitype/StillImage"/>
    <dc:date>2026-06-19T17:49:34.880776</dc:date>
    <dc:format>image/svg+xml</dc:format>
    <dc:creator>
     <cc:Agent>
      <dc:title>Matplotlib v3.11.0, https://matplotlib.org/</dc:title>
     </cc:Agent>
    </dc:creator>
   </cc:Work>
  </rdf:RDF>
 </metadata>
 <defs>
  <style type="text/css">*{stroke-linejoin: round; stroke-linecap: butt}</style>
 </defs>
 <g id="figure_1">
  <g id="patch_1">
   <path d="M 0 497.546277 
L 688.983038 497.546277 
L 688.983038 0 
L 0 0 
z
" style="fill: #ffffff"/>
  </g>
  <g id="axes_1">
   <g id="patch_2">
    <path d="M 60.225965 204.916257 
L 146.855465 204.916257 
Q 151.989065 204.916257 151.989065 203.065043 
L 151.989065 129.016487 
Q 151.989065 127.165273 146.855465 127.165273 
L 60.225965 127.165273 
Q 55.092365 127.165273 55.092365 129.016487 
L 55.092365 203.065043 
Q 55.092365 204.916257 60.225965 204.916257 
z
" clip-path="url(#paf74afae53)" style="fill: #b4c0e4; opacity: 0.35; stroke: #b4c0e4; stroke-width: 1.8; stroke-linejoin: miter"/>
   </g>
   <g id="patch_3">
    <path d="M 158.406065 204.916257 
L 245.035565 204.916257 
Q 250.169165 204.916257 250.169165 203.065043 
L 250.169165 129.016487 
Q 250.169165 127.165273 245.035565 127.165273 
L 158.406065 127.165273 
Q 153.272465 127.165273 153.272465 129.016487 
L 153.272465 203.065043 
Q 153.272465 204.916257 158.406065 204.916257 
z
" clip-path="url(#paf74afae53)" style="fill: #b4c0e4; opacity: 0.35; stroke: #b4c0e4; stroke-width: 1.8; stroke-linejoin: miter"/>
   </g>
   <g id="patch_4">
    <path d="M 256.586165 204.916257 
L 343.215665 204.916257 
Q 348.349265 204.916257 348.349265 203.065043 
L 348.349265 129.016487 
Q 348.349265 127.165273 343.215665 127.165273 
L 256.586165 127.165273 
Q 251.452565 127.165273 251.452565 129.016487 
L 251.452565 203.065043 
Q 251.452565 204.916257 256.586165 204.916257 
z
" clip-path="url(#paf74afae53)" style="fill: #7884b4; opacity: 0.35; stroke: #7884b4; stroke-width: 1.8; stroke-linejoin: miter"/>
   </g>
   <g id="patch_5">
    <path d="M 354.766265 204.916257 
L 441.395765 204.916257 
Q 446.529365 204.916257 446.529365 203.065043 
L 446.529365 129.016487 
Q 446.529365 127.165273 441.395765 127.165273 
L 354.766265 127.165273 
Q 349.632665 127.165273 349.632665 129.016487 
L 349.632665 203.065043 
Q 349.632665 204.916257 354.766265 204.916257 
z
" clip-path="url(#paf74afae53)" style="fill: #7884b4; opacity: 0.35; stroke: #7884b4; stroke-width: 1.8; stroke-linejoin: miter"/>
   </g>
   <g id="patch_6">
    <path d="M 452.946365 204.916257 
L 539.575865 204.916257 
Q 544.709465 204.916257 544.709465 203.065043 
L 544.709465 129.016487 
Q 544.709465 127.165273 539.575865 127.165273 
L 452.946365 127.165273 
Q 447.812765 127.165273 447.812765 129.016487 
L 447.812765 203.065043 
Q 447.812765 204.916257 452.946365 204.916257 
z
" clip-path="url(#paf74afae53)" style="fill: #484878; opacity: 0.35; stroke: #484878; stroke-width: 1.8; stroke-linejoin: miter"/>
   </g>
   <g id="patch_7">
    <path d="M 551.126465 204.916257 
L 637.755965 204.916257 
Q 642.889565 204.916257 642.889565 203.065043 
L 642.889565 129.016487 
Q 642.889565 127.165273 637.755965 127.165273 
L 551.126465 127.165273 
Q 545.992865 127.165273 545.992865 129.016487 
L 545.992865 203.065043 
Q 545.992865 204.916257 551.126465 204.916257 
z
" clip-path="url(#paf74afae53)" style="fill: #484878; opacity: 0.35; stroke: #484878; stroke-width: 1.8; stroke-linejoin: miter"/>
   </g>
   <g id="text_1">
    <text style="font-weight: 700; font-size: 14px; font-family: 'Arial', 'Helvetica', 'Liberation Sans', 'DejaVu Sans', sans-serif; text-anchor: middle; fill: #b4c0e4" x="103.540715" y="146.523638" transform="rotate(-0 103.540715 146.523638)">1</text>
   </g>
   <g id="text_2">
    <text style="font-weight: 700; font-size: 7.5px; font-family: 'Arial', 'Helvetica', 'Liberation Sans', 'DejaVu Sans', sans-serif" transform="translate(89.78466 166.21428)">Surface</text>
    <text style="font-weight: 700; font-size: 7.5px; font-family: 'Arial', 'Helvetica', 'Liberation Sans', 'DejaVu Sans', sans-serif" transform="translate(82.913371 174.377121)">preparation</text>
   </g>
   <g id="text_3">
    <text style="font-weight: 700; font-size: 8px; font-family: 'Arial', 'Helvetica', 'Liberation Sans', 'DejaVu Sans', sans-serif; text-anchor: middle; fill: #b4c0e4" x="103.540715" y="193.565269" transform="rotate(-0 103.540715 193.565269)">2 h</text>
   </g>
   <g id="text_4">
    <text style="font-style: italic; font-size: 6.5px; font-family: 'Arial', 'Helvetica', 'Liberation Sans', 'DejaVu Sans', sans-serif; text-anchor: middle; fill: #555555" x="103.540715" y="227.896868" transform="rotate(-0 103.540715 227.896868)">10–40 °C</text>
   </g>
   <g id="patch_8">
    <path d="M 148.780565 166.040765 
Q 152.630765 166.040765 154.468504 166.040765 
" style="fill: none; stroke: #8c8c8c; stroke-width: 1.8; stroke-linecap: round"/>
    <path d="M 150.468504 164.040765 
L 154.468504 166.040765 
L 150.468504 168.040765 
z
" style="fill: #8c8c8c; stroke: #8c8c8c; stroke-width: 1.8; stroke-linecap: round"/>
   </g>
   <g id="text_5">
    <text style="font-weight: 700; font-size: 14px; font-family: 'Arial', 'Helvetica', 'Liberation Sans', 'DejaVu Sans', sans-serif; text-anchor: middle; fill: #b4c0e4" x="201.720815" y="146.523638" transform="rotate(-0 201.720815 146.523638)">2</text>
   </g>
   <g id="text_6">
    <text style="font-weight: 700; font-size: 7.5px; font-family: 'Arial', 'Helvetica', 'Liberation Sans', 'DejaVu Sans', sans-serif" transform="translate(184.701088 166.214206)">Tack coat</text>
    <text style="font-weight: 700; font-size: 7.5px; font-family: 'Arial', 'Helvetica', 'Liberation Sans', 'DejaVu Sans', sans-serif" transform="translate(186.092104 174.377048)">spraying</text>
   </g>
   <g id="text_7">
    <text style="font-weight: 700; font-size: 8px; font-family: 'Arial', 'Helvetica', 'Liberation Sans', 'DejaVu Sans', sans-serif; text-anchor: middle; fill: #b4c0e4" x="201.720815" y="193.565269" transform="rotate(-0 201.720815 193.565269)">1 h</text>
   </g>
   <g id="text_8">
    <!-- 0.3–0.6 L/m$^2$ -->
    <g style="fill: #555555" transform="translate(183.163315 228.585779)">
     <text>
      <tspan x="0" y="-0.935813" style="font-style: italic; font-size: 6.5px; font-family: 'Arial'; fill: #555555">0</tspan>
      <tspan x="3.61499" y="-0.935813" style="font-style: italic; font-size: 6.5px; font-family: 'Arial'; fill: #555555">.</tspan>
      <tspan x="5.420898" y="-0.935813" style="font-style: italic; font-size: 6.5px; font-family: 'Arial'; fill: #555555">3</tspan>
      <tspan x="12.285889" y="-0.935813" style="font-style: italic; font-size: 6.5px; font-family: 'Arial'; fill: #555555">0</tspan>
      <tspan x="15.900879" y="-0.935813" style="font-style: italic; font-size: 6.5px; font-family: 'Arial'; fill: #555555">.</tspan>
      <tspan x="17.706787" y="-0.935813" style="font-style: italic; font-size: 6.5px; font-family: 'Arial'; fill: #555555">6</tspan>
      <tspan x="21.321777" y="-0.935813" style="font-style: italic; font-size: 6.5px; font-family: 'Arial'; fill: #555555"> </tspan>
      <tspan x="23.127686" y="-0.935813" style="font-style: italic; font-size: 6.5px; font-family: 'Arial'; fill: #555555">L</tspan>
      <tspan x="26.742676" y="-0.935813" style="font-style: italic; font-size: 6.5px; font-family: 'Arial'; fill: #555555">/</tspan>
      <tspan x="28.548584" y="-0.935813" style="font-style: italic; font-size: 6.5px; font-family: 'Arial'; fill: #555555">m</tspan>
      <tspan x="9.035889" y="-0.935813" style="font-size: 6.5px; font-family: 'DejaVu Sans Display'; fill: #555555">–</tspan>
      <tspan x="34.025342" y="-3.620313" style="font-size: 4.55px; font-family: 'DejaVu Sans'; fill: #555555">2</tspan>
     </text>
    </g>
   </g>
   <g id="patch_9">
    <path d="M 246.960665 166.040765 
Q 250.810865 166.040765 252.648604 166.040765 
" style="fill: none; stroke: #8c8c8c; stroke-width: 1.8; stroke-linecap: round"/>
    <path d="M 248.648604 164.040765 
L 252.648604 166.040765 
L 248.648604 168.040765 
z
" style="fill: #8c8c8c; stroke: #8c8c8c; stroke-width: 1.8; stroke-linecap: round"/>
   </g>
   <g id="text_9">
    <text style="font-weight: 700; font-size: 14px; font-family: 'Arial', 'Helvetica', 'Liberation Sans', 'DejaVu Sans', sans-serif; text-anchor: middle; fill: #7884b4" x="299.900915" y="146.523638" transform="rotate(-0 299.900915 146.523638)">3</text>
   </g>
   <g id="text_10">
    <text style="font-weight: 700; font-size: 7.5px; font-family: 'Arial', 'Helvetica', 'Liberation Sans', 'DejaVu Sans', sans-serif" transform="translate(271.980993 166.214206)">Demulsification</text>
    <text style="font-weight: 700; font-size: 7.5px; font-family: 'Arial', 'Helvetica', 'Liberation Sans', 'DejaVu Sans', sans-serif" transform="translate(280.522204 174.377048)">&amp; breaking</text>
   </g>
   <g id="text_11">
    <text style="font-weight: 700; font-size: 8px; font-family: 'Arial', 'Helvetica', 'Liberation Sans', 'DejaVu Sans', sans-serif; text-anchor: middle; fill: #7884b4" x="299.900915" y="193.565269" transform="rotate(-0 299.900915 193.565269)">3 h</text>
   </g>
   <g id="text_12">
    <text style="font-style: italic; font-size: 6.5px; font-family: 'Arial', 'Helvetica', 'Liberation Sans', 'DejaVu Sans', sans-serif; fill: #555555" transform="translate(284.729509 224.369158)">break time</text>
    <text style="font-style: italic; font-size: 6.5px; font-family: 'Arial', 'Helvetica', 'Liberation Sans', 'DejaVu Sans', sans-serif; fill: #555555" transform="translate(291.768805 231.424578)">3–6 h</text>
   </g>
   <g id="patch_10">
    <path d="M 345.140765 166.040765 
Q 348.990965 166.040765 350.828704 166.040765 
" style="fill: none; stroke: #8c8c8c; stroke-width: 1.8; stroke-linecap: round"/>
    <path d="M 346.828704 164.040765 
L 350.828704 166.040765 
L 346.828704 168.040765 
z
" style="fill: #8c8c8c; stroke: #8c8c8c; stroke-width: 1.8; stroke-linecap: round"/>
   </g>
   <g id="text_13">
    <text style="font-weight: 700; font-size: 14px; font-family: 'Arial', 'Helvetica', 'Liberation Sans', 'DejaVu Sans', sans-serif; text-anchor: middle; fill: #7884b4" x="398.081015" y="146.523638" transform="rotate(-0 398.081015 146.523638)">4</text>
   </g>
   <g id="text_14">
    <text style="font-weight: 700; font-size: 7.5px; font-family: 'Arial', 'Helvetica', 'Liberation Sans', 'DejaVu Sans', sans-serif; text-anchor: middle" x="398.081015" y="170.295627" transform="rotate(-0 398.081015 170.295627)">Curing</text>
   </g>
   <g id="text_15">
    <text style="font-weight: 700; font-size: 8px; font-family: 'Arial', 'Helvetica', 'Liberation Sans', 'DejaVu Sans', sans-serif; text-anchor: middle; fill: #7884b4" x="398.081015" y="193.565269" transform="rotate(-0 398.081015 193.565269)">12 h</text>
   </g>
   <g id="text_16">
    <text style="font-style: italic; font-size: 6.5px; font-family: 'Arial', 'Helvetica', 'Liberation Sans', 'DejaVu Sans', sans-serif; fill: #555555" transform="translate(386.425702 224.369158)">gel ~4 h</text>
    <text style="font-style: italic; font-size: 6.5px; font-family: 'Arial', 'Helvetica', 'Liberation Sans', 'DejaVu Sans', sans-serif; fill: #555555" transform="translate(386.698905 231.424578)">full 12 h</text>
   </g>
   <g id="patch_11">
    <path d="M 443.320865 166.040765 
Q 447.171065 166.040765 449.008804 166.040765 
" style="fill: none; stroke: #8c8c8c; stroke-width: 1.8; stroke-linecap: round"/>
    <path d="M 445.008804 164.040765 
L 449.008804 166.040765 
L 445.008804 168.040765 
z
" style="fill: #8c8c8c; stroke: #8c8c8c; stroke-width: 1.8; stroke-linecap: round"/>
   </g>
   <g id="text_17">
    <text style="font-weight: 700; font-size: 14px; font-family: 'Arial', 'Helvetica', 'Liberation Sans', 'DejaVu Sans', sans-serif; text-anchor: middle; fill: #484878" x="496.261115" y="146.523638" transform="rotate(-0 496.261115 146.523638)">5</text>
   </g>
   <g id="text_18">
    <text style="font-weight: 700; font-size: 7.5px; font-family: 'Arial', 'Helvetica', 'Liberation Sans', 'DejaVu Sans', sans-serif" transform="translate(482.501545 166.214206)">Overlay</text>
    <text style="font-weight: 700; font-size: 7.5px; font-family: 'Arial', 'Helvetica', 'Liberation Sans', 'DejaVu Sans', sans-serif" transform="translate(477.713849 174.377195)">placement</text>
   </g>
   <g id="text_19">
    <text style="font-weight: 700; font-size: 8px; font-family: 'Arial', 'Helvetica', 'Liberation Sans', 'DejaVu Sans', sans-serif; text-anchor: middle; fill: #484878" x="496.261115" y="193.565269" transform="rotate(-0 496.261115 193.565269)">4 h</text>
   </g>
   <g id="text_20">
    <text style="font-style: italic; font-size: 6.5px; font-family: 'Arial', 'Helvetica', 'Liberation Sans', 'DejaVu Sans', sans-serif; fill: #555555" transform="translate(486.313068 224.369158)">≥10 °C</text>
    <text style="font-style: italic; font-size: 6.5px; font-family: 'Arial', 'Helvetica', 'Liberation Sans', 'DejaVu Sans', sans-serif; fill: #555555" transform="translate(479.642443 231.424578)">compaction</text>
   </g>
   <g id="patch_12">
    <path d="M 541.500965 166.040765 
Q 545.351165 166.040765 547.188904 166.040765 
" style="fill: none; stroke: #8c8c8c; stroke-width: 1.8; stroke-linecap: round"/>
    <path d="M 543.188904 164.040765 
L 547.188904 166.040765 
L 543.188904 168.040765 
z
" style="fill: #8c8c8c; stroke: #8c8c8c; stroke-width: 1.8; stroke-linecap: round"/>
   </g>
   <g id="text_21">
    <text style="font-weight: 700; font-size: 14px; font-family: 'Arial', 'Helvetica', 'Liberation Sans', 'DejaVu Sans', sans-serif; text-anchor: middle; fill: #484878" x="594.441215" y="146.523638" transform="rotate(-0 594.441215 146.523638)">6</text>
   </g>
   <g id="text_22">
    <text style="font-weight: 700; font-size: 7.5px; font-family: 'Arial', 'Helvetica', 'Liberation Sans', 'DejaVu Sans', sans-serif" transform="translate(588.816215 166.21428)">QC</text>
    <text style="font-weight: 700; font-size: 7.5px; font-family: 'Arial', 'Helvetica', 'Liberation Sans', 'DejaVu Sans', sans-serif" transform="translate(575.691215 174.377121)">inspection</text>
   </g>
   <g id="text_23">
    <text style="font-weight: 700; font-size: 8px; font-family: 'Arial', 'Helvetica', 'Liberation Sans', 'DejaVu Sans', sans-serif; text-anchor: middle; fill: #484878" x="594.441215" y="193.565269" transform="rotate(-0 594.441215 193.565269)">1 h</text>
   </g>
   <g id="text_24">
    <text style="font-style: italic; font-size: 6.5px; font-family: 'Arial', 'Helvetica', 'Liberation Sans', 'DejaVu Sans', sans-serif; fill: #555555" transform="translate(584.687152 224.369158)">pull-off</text>
    <text style="font-style: italic; font-size: 6.5px; font-family: 'Arial', 'Helvetica', 'Liberation Sans', 'DejaVu Sans', sans-serif; fill: #555555" transform="translate(580.554574 231.424578)">≥0.8 MPa</text>
   </g>
   <g id="text_25">
    <text style="font-weight: 700; font-size: 8px; font-family: 'Arial', 'Helvetica', 'Liberation Sans', 'DejaVu Sans', sans-serif; text-anchor: start; fill: #8c8c8c" x="60.225965" y="98.934261" transform="rotate(-0 60.225965 98.934261)">Progress →</text>
   </g>
   <g id="text_26">
    <text style="font-style: italic; font-size: 7px; font-family: 'Arial', 'Helvetica', 'Liberation Sans', 'DejaVu Sans', sans-serif; text-anchor: end; fill: #8c8c8c" x="657.006965" y="98.934261" transform="rotate(-0 657.006965 98.934261)">early → late</text>
   </g>
   <g id="text_27">
    <text style="font-weight: 700; font-size: 10px; font-family: 'Arial', 'Helvetica', 'Liberation Sans', 'DejaVu Sans', sans-serif; text-anchor: start" x="37.766465" y="58.224" transform="rotate(-0 37.766465 58.224)">(a) Construction application workflow</text>
   </g>
  </g>
  <g id="axes_2">
   <g id="patch_13">
    <path d="M 37.766465 463.392 
L 319.213833 463.392 
L 319.213833 347.69113 
L 37.766465 347.69113 
z
" style="fill: #ffffff"/>
   </g>
   <g id="FillBetweenPolyCollection_1">
    <defs>
     <path id="mbed1e4798b" d="M 50.559527 -24.440966 
L 50.559527 -43.796016 
L 53.143984 -49.118226 
L 55.728441 -54.147738 
L 58.312898 -58.900648 
L 60.897355 -63.39217 
L 63.481812 -67.636678 
L 66.066269 -71.647757 
L 68.650726 -75.438245 
L 71.235183 -79.020272 
L 73.81964 -82.405304 
L 76.404097 -85.604174 
L 78.988554 -88.62712 
L 81.573011 -91.483818 
L 84.157468 -94.18341 
L 86.741925 -96.734536 
L 89.326382 -99.145362 
L 91.910839 -101.423603 
L 94.495296 -103.576551 
L 97.079753 -105.611097 
L 99.66421 -107.533751 
L 102.248667 -109.350668 
L 104.833124 -111.067663 
L 107.417581 -112.69023 
L 110.002038 -114.223564 
L 112.586495 -115.67257 
L 115.170952 -117.041888 
L 117.755409 -118.3359 
L 120.339866 -119.558747 
L 122.924323 -120.714342 
L 125.50878 -121.806385 
L 128.093237 -122.83837 
L 130.677694 -123.813601 
L 133.262151 -124.735199 
L 135.846608 -125.606112 
L 138.431065 -126.42913 
L 141.015522 -127.206884 
L 143.599979 -127.941866 
L 146.184436 -128.636428 
L 148.768893 -129.292791 
L 151.35335 -129.913057 
L 153.937807 -130.499212 
L 156.522264 -131.05313 
L 159.106721 -131.576585 
L 161.691178 -132.071253 
L 164.275635 -132.538716 
L 166.860093 -132.980471 
L 169.44455 -133.397931 
L 172.029007 -133.792433 
L 174.613464 -134.165239 
L 177.197921 -134.517542 
L 179.782378 -134.85047 
L 182.366835 -135.165089 
L 184.951292 -135.462405 
L 187.535749 -135.74337 
L 190.120206 -136.008883 
L 192.704663 -136.259794 
L 195.28912 -136.496906 
L 197.873577 -136.720978 
L 200.458034 -136.932727 
L 203.042491 -137.132831 
L 205.626948 -137.321929 
L 208.211405 -137.500629 
L 210.795862 -137.6695 
L 213.380319 -137.829085 
L 215.964776 -137.979893 
L 218.549233 -138.122407 
L 221.13369 -138.257084 
L 223.718147 -138.384353 
L 226.302604 -138.504624 
L 228.887061 -138.61828 
L 231.471518 -138.725686 
L 234.055975 -138.827185 
L 236.640432 -138.923102 
L 239.224889 -139.013744 
L 241.809346 -139.099401 
L 244.393803 -139.180347 
L 246.97826 -139.256842 
L 249.562717 -139.329129 
L 252.147174 -139.397442 
L 254.731631 -139.461997 
L 257.316088 -139.523002 
L 259.900545 -139.580652 
L 262.485002 -139.635132 
L 265.069459 -139.686615 
L 267.653916 -139.735267 
L 270.238373 -139.781244 
L 272.82283 -139.824691 
L 275.407287 -139.86575 
L 277.991744 -139.90455 
L 280.576201 -139.941217 
L 283.160658 -139.975867 
L 285.745115 -140.008612 
L 288.329572 -140.039555 
L 290.914029 -140.068797 
L 293.498486 -140.096431 
L 296.082943 -140.122545 
L 298.6674 -140.147223 
L 301.251857 -140.170543 
L 303.836314 -140.192582 
L 306.420771 -140.213408 
L 306.420771 -24.440966 
L 306.420771 -24.440966 
L 303.836314 -24.440966 
L 301.251857 -24.440966 
L 298.6674 -24.440966 
L 296.082943 -24.440966 
L 293.498486 -24.440966 
L 290.914029 -24.440966 
L 288.329572 -24.440966 
L 285.745115 -24.440966 
L 283.160658 -24.440966 
L 280.576201 -24.440966 
L 277.991744 -24.440966 
L 275.407287 -24.440966 
L 272.82283 -24.440966 
L 270.238373 -24.440966 
L 267.653916 -24.440966 
L 265.069459 -24.440966 
L 262.485002 -24.440966 
L 259.900545 -24.440966 
L 257.316088 -24.440966 
L 254.731631 -24.440966 
L 252.147174 -24.440966 
L 249.562717 -24.440966 
L 246.97826 -24.440966 
L 244.393803 -24.440966 
L 241.809346 -24.440966 
L 239.224889 -24.440966 
L 236.640432 -24.440966 
L 234.055975 -24.440966 
L 231.471518 -24.440966 
L 228.887061 -24.440966 
L 226.302604 -24.440966 
L 223.718147 -24.440966 
L 221.13369 -24.440966 
L 218.549233 -24.440966 
L 215.964776 -24.440966 
L 213.380319 -24.440966 
L 210.795862 -24.440966 
L 208.211405 -24.440966 
L 205.626948 -24.440966 
L 203.042491 -24.440966 
L 200.458034 -24.440966 
L 197.873577 -24.440966 
L 195.28912 -24.440966 
L 192.704663 -24.440966 
L 190.120206 -24.440966 
L 187.535749 -24.440966 
L 184.951292 -24.440966 
L 182.366835 -24.440966 
L 179.782378 -24.440966 
L 177.197921 -24.440966 
L 174.613464 -24.440966 
L 172.029007 -24.440966 
L 169.44455 -24.440966 
L 166.860093 -24.440966 
L 164.275635 -24.440966 
L 161.691178 -24.440966 
L 159.106721 -24.440966 
L 156.522264 -24.440966 
L 153.937807 -24.440966 
L 151.35335 -24.440966 
L 148.768893 -24.440966 
L 146.184436 -24.440966 
L 143.599979 -24.440966 
L 141.015522 -24.440966 
L 138.431065 -24.440966 
L 135.846608 -24.440966 
L 133.262151 -24.440966 
L 130.677694 -24.440966 
L 128.093237 -24.440966 
L 125.50878 -24.440966 
L 122.924323 -24.440966 
L 120.339866 -24.440966 
L 117.755409 -24.440966 
L 115.170952 -24.440966 
L 112.586495 -24.440966 
L 110.002038 -24.440966 
L 107.417581 -24.440966 
L 104.833124 -24.440966 
L 102.248667 -24.440966 
L 99.66421 -24.440966 
L 97.079753 -24.440966 
L 94.495296 -24.440966 
L 91.910839 -24.440966 
L 89.326382 -24.440966 
L 86.741925 -24.440966 
L 84.157468 -24.440966 
L 81.573011 -24.440966 
L 78.988554 -24.440966 
L 76.404097 -24.440966 
L 73.81964 -24.440966 
L 71.235183 -24.440966 
L 68.650726 -24.440966 
L 66.066269 -24.440966 
L 63.481812 -24.440966 
L 60.897355 -24.440966 
L 58.312898 -24.440966 
L 55.728441 -24.440966 
L 53.143984 -24.440966 
L 50.559527 -24.440966 
z
" style="stroke: #4f7c6a; stroke-opacity: 0.12"/>
    </defs>
    <g clip-path="url(#p485db666f7)">
     <use xlink:href="#mbed1e4798b" x="0" y="497.546277" style="fill: #4f7c6a; fill-opacity: 0.12; stroke: #4f7c6a; stroke-opacity: 0.12"/>
    </g>
   </g>
   <g id="matplotlib.axis_1">
    <g id="xtick_1">
     <g id="line2d_1">
      <path d="M 50.559527 463.392 
L 50.559527 347.69113 
" clip-path="url(#p485db666f7)" style="fill: none; stroke: #e8e2d6; stroke-opacity: 0.6; stroke-width: 0.6; stroke-linecap: square"/>
     </g>
     <g id="line2d_2">
      <defs>
       <path id="mb73945250b" d="M 0 0 
L 0 3.5 
" style="stroke: #000000; stroke-width: 1.2"/>
      </defs>
      <g>
       <use xlink:href="#mb73945250b" x="50.559527" y="463.392" style="stroke: #000000; stroke-width: 1.2"/>
      </g>
     </g>
     <g id="text_28">
      <text style="font-size: 8px; font-family: 'Arial', 'Helvetica', 'Liberation Sans', 'DejaVu Sans', sans-serif; text-anchor: middle" x="50.559527" y="476.216219" transform="rotate(-0 50.559527 476.216219)">0</text>
     </g>
    </g>
    <g id="xtick_2">
     <g id="line2d_3">
      <path d="M 96.249035 463.392 
L 96.249035 347.69113 
" clip-path="url(#p485db666f7)" style="fill: none; stroke: #e8e2d6; stroke-opacity: 0.6; stroke-width: 0.6; stroke-linecap: square"/>
     </g>
     <g id="line2d_4">
      <g>
       <use xlink:href="#mb73945250b" x="96.249035" y="463.392" style="stroke: #000000; stroke-width: 1.2"/>
      </g>
     </g>
     <g id="text_29">
      <text style="font-size: 8px; font-family: 'Arial', 'Helvetica', 'Liberation Sans', 'DejaVu Sans', sans-serif; text-anchor: middle" x="96.249035" y="476.216219" transform="rotate(-0 96.249035 476.216219)">5</text>
     </g>
    </g>
    <g id="xtick_3">
     <g id="line2d_5">
      <path d="M 141.938543 463.392 
L 141.938543 347.69113 
" clip-path="url(#p485db666f7)" style="fill: none; stroke: #e8e2d6; stroke-opacity: 0.6; stroke-width: 0.6; stroke-linecap: square"/>
     </g>
     <g id="line2d_6">
      <g>
       <use xlink:href="#mb73945250b" x="141.938543" y="463.392" style="stroke: #000000; stroke-width: 1.2"/>
      </g>
     </g>
     <g id="text_30">
      <text style="font-size: 8px; font-family: 'Arial', 'Helvetica', 'Liberation Sans', 'DejaVu Sans', sans-serif; text-anchor: middle" x="141.938543" y="476.216219" transform="rotate(-0 141.938543 476.216219)">10</text>
     </g>
    </g>
    <g id="xtick_4">
     <g id="line2d_7">
      <path d="M 187.628051 463.392 
L 187.628051 347.69113 
" clip-path="url(#p485db666f7)" style="fill: none; stroke: #e8e2d6; stroke-opacity: 0.6; stroke-width: 0.6; stroke-linecap: square"/>
     </g>
     <g id="line2d_8">
      <g>
       <use xlink:href="#mb73945250b" x="187.628051" y="463.392" style="stroke: #000000; stroke-width: 1.2"/>
      </g>
     </g>
     <g id="text_31">
      <text style="font-size: 8px; font-family: 'Arial', 'Helvetica', 'Liberation Sans', 'DejaVu Sans', sans-serif; text-anchor: middle" x="187.628051" y="476.216219" transform="rotate(-0 187.628051 476.216219)">15</text>
     </g>
    </g>
    <g id="xtick_5">
     <g id="line2d_9">
      <path d="M 233.317558 463.392 
L 233.317558 347.69113 
" clip-path="url(#p485db666f7)" style="fill: none; stroke: #e8e2d6; stroke-opacity: 0.6; stroke-width: 0.6; stroke-linecap: square"/>
     </g>
     <g id="line2d_10">
      <g>
       <use xlink:href="#mb73945250b" x="233.317558" y="463.392" style="stroke: #000000; stroke-width: 1.2"/>
      </g>
     </g>
     <g id="text_32">
      <text style="font-size: 8px; font-family: 'Arial', 'Helvetica', 'Liberation Sans', 'DejaVu Sans', sans-serif; text-anchor: middle" x="233.317558" y="476.216219" transform="rotate(-0 233.317558 476.216219)">20</text>
     </g>
    </g>
    <g id="xtick_6">
     <g id="line2d_11">
      <path d="M 279.007066 463.392 
L 279.007066 347.69113 
" clip-path="url(#p485db666f7)" style="fill: none; stroke: #e8e2d6; stroke-opacity: 0.6; stroke-width: 0.6; stroke-linecap: square"/>
     </g>
     <g id="line2d_12">
      <g>
       <use xlink:href="#mb73945250b" x="279.007066" y="463.392" style="stroke: #000000; stroke-width: 1.2"/>
      </g>
     </g>
     <g id="text_33">
      <text style="font-size: 8px; font-family: 'Arial', 'Helvetica', 'Liberation Sans', 'DejaVu Sans', sans-serif; text-anchor: middle" x="279.007066" y="476.216219" transform="rotate(-0 279.007066 476.216219)">25</text>
     </g>
    </g>
    <g id="text_34">
     <text style="font-size: 9px; font-family: 'Arial', 'Helvetica', 'Liberation Sans', 'DejaVu Sans', sans-serif; text-anchor: middle" x="178.490149" y="488.452059" transform="rotate(-0 178.490149 488.452059)">Curing time (days)</text>
    </g>
   </g>
   <g id="matplotlib.axis_2">
    <g id="ytick_1">
     <g id="line2d_13">
      <path d="M 37.766465 453.750261 
L 319.213833 453.750261 
" clip-path="url(#p485db666f7)" style="fill: none; stroke: #e8e2d6; stroke-opacity: 0.6; stroke-width: 0.6; stroke-linecap: square"/>
     </g>
     <g id="line2d_14">
      <defs>
       <path id="m4f5516c1e2" d="M 0 0 
L -3.5 0 
" style="stroke: #000000; stroke-width: 1.2"/>
      </defs>
      <g>
       <use xlink:href="#m4f5516c1e2" x="37.766465" y="453.750261" style="stroke: #000000; stroke-width: 1.2"/>
      </g>
     </g>
     <g id="text_35">
      <text style="font-size: 8px; font-family: 'Arial', 'Helvetica', 'Liberation Sans', 'DejaVu Sans', sans-serif; text-anchor: end" x="30.766465" y="456.66237" transform="rotate(-0 30.766465 456.66237)">0.2</text>
     </g>
    </g>
    <g id="ytick_2">
     <g id="line2d_15">
      <path d="M 37.766465 434.39521 
L 319.213833 434.39521 
" clip-path="url(#p485db666f7)" style="fill: none; stroke: #e8e2d6; stroke-opacity: 0.6; stroke-width: 0.6; stroke-linecap: square"/>
     </g>
     <g id="line2d_16">
      <g>
       <use xlink:href="#m4f5516c1e2" x="37.766465" y="434.39521" style="stroke: #000000; stroke-width: 1.2"/>
      </g>
     </g>
     <g id="text_36">
      <text style="font-size: 8px; font-family: 'Arial', 'Helvetica', 'Liberation Sans', 'DejaVu Sans', sans-serif; text-anchor: end" x="30.766465" y="437.30732" transform="rotate(-0 30.766465 437.30732)">0.4</text>
     </g>
    </g>
    <g id="ytick_3">
     <g id="line2d_17">
      <path d="M 37.766465 415.04016 
L 319.213833 415.04016 
" clip-path="url(#p485db666f7)" style="fill: none; stroke: #e8e2d6; stroke-opacity: 0.6; stroke-width: 0.6; stroke-linecap: square"/>
     </g>
     <g id="line2d_18">
      <g>
       <use xlink:href="#m4f5516c1e2" x="37.766465" y="415.04016" style="stroke: #000000; stroke-width: 1.2"/>
      </g>
     </g>
     <g id="text_37">
      <text style="font-size: 8px; font-family: 'Arial', 'Helvetica', 'Liberation Sans', 'DejaVu Sans', sans-serif; text-anchor: end" x="30.766465" y="417.952269" transform="rotate(-0 30.766465 417.952269)">0.6</text>
     </g>
    </g>
    <g id="ytick_4">
     <g id="line2d_19">
      <path d="M 37.766465 395.685109 
L 319.213833 395.685109 
" clip-path="url(#p485db666f7)" style="fill: none; stroke: #e8e2d6; stroke-opacity: 0.6; stroke-width: 0.6; stroke-linecap: square"/>
     </g>
     <g id="line2d_20">
      <g>
       <use xlink:href="#m4f5516c1e2" x="37.766465" y="395.685109" style="stroke: #000000; stroke-width: 1.2"/>
      </g>
     </g>
     <g id="text_38">
      <text style="font-size: 8px; font-family: 'Arial', 'Helvetica', 'Liberation Sans', 'DejaVu Sans', sans-serif; text-anchor: end" x="30.766465" y="398.597218" transform="rotate(-0 30.766465 398.597218)">0.8</text>
     </g>
    </g>
    <g id="ytick_5">
     <g id="line2d_21">
      <path d="M 37.766465 376.330058 
L 319.213833 376.330058 
" clip-path="url(#p485db666f7)" style="fill: none; stroke: #e8e2d6; stroke-opacity: 0.6; stroke-width: 0.6; stroke-linecap: square"/>
     </g>
     <g id="line2d_22">
      <g>
       <use xlink:href="#m4f5516c1e2" x="37.766465" y="376.330058" style="stroke: #000000; stroke-width: 1.2"/>
      </g>
     </g>
     <g id="text_39">
      <text style="font-size: 8px; font-family: 'Arial', 'Helvetica', 'Liberation Sans', 'DejaVu Sans', sans-serif; text-anchor: end" x="30.766465" y="379.242168" transform="rotate(-0 30.766465 379.242168)">1.0</text>
     </g>
    </g>
    <g id="ytick_6">
     <g id="line2d_23">
      <path d="M 37.766465 356.975008 
L 319.213833 356.975008 
" clip-path="url(#p485db666f7)" style="fill: none; stroke: #e8e2d6; stroke-opacity: 0.6; stroke-width: 0.6; stroke-linecap: square"/>
     </g>
     <g id="line2d_24">
      <g>
       <use xlink:href="#m4f5516c1e2" x="37.766465" y="356.975008" style="stroke: #000000; stroke-width: 1.2"/>
      </g>
     </g>
     <g id="text_40">
      <text style="font-size: 8px; font-family: 'Arial', 'Helvetica', 'Liberation Sans', 'DejaVu Sans', sans-serif; text-anchor: end" x="30.766465" y="359.887117" transform="rotate(-0 30.766465 359.887117)">1.2</text>
     </g>
    </g>
    <g id="text_41">
     <text style="font-size: 9px; font-family: 'Arial', 'Helvetica', 'Liberation Sans', 'DejaVu Sans', sans-serif; text-anchor: middle" x="13.752246" y="405.541565" transform="rotate(-90 13.752246 405.541565)">Bond strength (MPa)</text>
    </g>
   </g>
   <g id="line2d_25">
    <path d="M 50.559527 453.750261 
L 53.143984 448.428051 
L 55.728441 443.39854 
L 58.312898 438.645629 
L 60.897355 434.154107 
L 63.481812 429.909599 
L 66.066269 425.89852 
L 68.650726 422.108033 
L 71.235183 418.526005 
L 73.81964 415.140974 
L 76.404097 411.942104 
L 78.988554 408.919157 
L 81.573011 406.062459 
L 84.157468 403.362867 
L 86.741925 400.811741 
L 89.326382 398.400915 
L 91.910839 396.122674 
L 94.495296 393.969726 
L 97.079753 391.935181 
L 99.66421 390.012526 
L 102.248667 388.195609 
L 104.833124 386.478615 
L 107.417581 384.856047 
L 110.002038 383.322714 
L 112.586495 381.873707 
L 115.170952 380.504389 
L 117.755409 379.210377 
L 120.339866 377.987531 
L 122.924323 376.831935 
L 125.50878 375.739892 
L 128.093237 374.707907 
L 130.677694 373.732676 
L 133.262151 372.811079 
L 135.846608 371.940165 
L 138.431065 371.117148 
L 141.015522 370.339393 
L 143.599979 369.604411 
L 146.184436 368.90985 
L 148.768893 368.253486 
L 151.35335 367.63322 
L 153.937807 367.047066 
L 156.522264 366.493147 
L 159.106721 365.969692 
L 161.691178 365.475024 
L 164.275635 365.007561 
L 166.860093 364.565806 
L 169.44455 364.148346 
L 172.029007 363.753844 
L 174.613464 363.381038 
L 177.197921 363.028735 
L 179.782378 362.695807 
L 182.366835 362.381188 
L 184.951292 362.083872 
L 187.535749 361.802907 
L 190.120206 361.537394 
L 192.704663 361.286483 
L 195.28912 361.049371 
L 197.873577 360.825299 
L 200.458034 360.613551 
L 203.042491 360.413447 
L 205.626948 360.224348 
L 208.211405 360.045649 
L 210.795862 359.876777 
L 213.380319 359.717193 
L 215.964776 359.566385 
L 218.549233 359.42387 
L 221.13369 359.289194 
L 223.718147 359.161924 
L 226.302604 359.041653 
L 228.887061 358.927997 
L 231.471518 358.820591 
L 234.055975 358.719092 
L 236.640432 358.623175 
L 239.224889 358.532533 
L 241.809346 358.446876 
L 244.393803 358.36593 
L 246.97826 358.289436 
L 249.562717 358.217148 
L 252.147174 358.148836 
L 254.731631 358.08428 
L 257.316088 358.023275 
L 259.900545 357.965625 
L 262.485002 357.911146 
L 265.069459 357.859662 
L 267.653916 357.81101 
L 270.238373 357.765034 
L 272.82283 357.721586 
L 275.407287 357.680527 
L 277.991744 357.641727 
L 280.576201 357.60506 
L 283.160658 357.57041 
L 285.745115 357.537666 
L 288.329572 357.506722 
L 290.914029 357.47748 
L 293.498486 357.449846 
L 296.082943 357.423732 
L 298.6674 357.399055 
L 301.251857 357.375734 
L 303.836314 357.353696 
L 306.420771 357.33287 
" clip-path="url(#p485db666f7)" style="fill: none; stroke: #4f7c6a; stroke-width: 1.8; stroke-linecap: square"/>
   </g>
   <g id="line2d_26">
    <path d="M 37.766465 395.685109 
L 319.213833 395.685109 
" clip-path="url(#p485db666f7)" style="fill: none; stroke-dasharray: 0.8,1.32; stroke-dashoffset: 0; stroke: #b85450; stroke-opacity: 0.7; stroke-width: 0.8"/>
   </g>
   <g id="line2d_27">
    <path d="M 94.495296 463.392 
L 94.495296 347.69113 
" clip-path="url(#p485db666f7)" style="fill: none; stroke-dasharray: 0.8,1.32; stroke-dashoffset: 0; stroke: #b85450; stroke-opacity: 0.7; stroke-width: 0.8"/>
   </g>
   <g id="patch_14">
    <path d="M 37.766465 463.392 
L 37.766465 347.69113 
" style="fill: none; stroke: #000000; stroke-width: 1.5; stroke-linejoin: miter; stroke-linecap: square"/>
   </g>
   <g id="patch_15">
    <path d="M 37.766465 463.392 
L 319.213833 463.392 
" style="fill: none; stroke: #000000; stroke-width: 1.5; stroke-linejoin: miter; stroke-linecap: square"/>
   </g>
   <g id="text_42">
    <text style="font-size: 7px; font-family: 'Arial', 'Helvetica', 'Liberation Sans', 'DejaVu Sans', sans-serif; text-anchor: start; fill: #b85450" x="55.128478" y="393.749604" transform="rotate(-0 55.128478 393.749604)">target 0.8 MPa</text>
   </g>
   <g id="text_43">
    <text style="font-size: 7px; font-family: 'Arial', 'Helvetica', 'Liberation Sans', 'DejaVu Sans', sans-serif; text-anchor: start; fill: #b85450" x="99.064247" y="434.39521" transform="rotate(-0 99.064247 434.39521)">~5 d</text>
   </g>
   <g id="text_44">
    <text style="font-weight: 700; font-size: 10px; font-family: 'Arial', 'Helvetica', 'Liberation Sans', 'DejaVu Sans', sans-serif; text-anchor: start" x="37.766465" y="341.69113" transform="rotate(-0 37.766465 341.69113)">(b) Bond strength development</text>
   </g>
  </g>
  <g id="axes_3">
   <g id="patch_16">
    <path d="M 398.019096 463.392 
L 679.466465 463.392 
L 679.466465 347.69113 
L 398.019096 347.69113 
z
" style="fill: #ffffff"/>
   </g>
   <g id="FillBetweenPolyCollection_2">
    <defs>
     <path id="m6b2af3b06c" d="M 410.812159 -39.18475 
L 410.812159 -51.177691 
L 413.396616 -52.518336 
L 415.981073 -53.983819 
L 418.56553 -55.580114 
L 421.149987 -57.312218 
L 423.734444 -59.183856 
L 426.318901 -61.197167 
L 428.903358 -63.352392 
L 431.487815 -65.647587 
L 434.072272 -68.078366 
L 436.656729 -70.637711 
L 439.241186 -73.315866 
L 441.825643 -76.100333 
L 444.4101 -78.975992 
L 446.994557 -81.925342 
L 449.579014 -84.928876 
L 452.163471 -87.965557 
L 454.747928 -91.013395 
L 457.332385 -94.050076 
L 459.916842 -97.05361 
L 462.501299 -100.00296 
L 465.085756 -102.878619 
L 467.670213 -105.663086 
L 470.25467 -108.341241 
L 472.839127 -110.900586 
L 475.423584 -113.331364 
L 478.008041 -115.626559 
L 480.592498 -117.781785 
L 483.176955 -119.795095 
L 485.761412 -121.666733 
L 488.345869 -123.398838 
L 490.930326 -124.995133 
L 493.514783 -126.460616 
L 496.09924 -127.801261 
L 498.683697 -129.023744 
L 501.268154 -130.135197 
L 503.852611 -131.142999 
L 506.437068 -132.054598 
L 509.021525 -132.877364 
L 511.605982 -133.618481 
L 514.190439 -134.284859 
L 516.774896 -134.883073 
L 519.359353 -135.41932 
L 521.94381 -135.899397 
L 524.528267 -136.328689 
L 527.112724 -136.712173 
L 529.697181 -137.054418 
L 532.281638 -137.359607 
L 534.866095 -137.631551 
L 537.450552 -137.873714 
L 540.035009 -138.08923 
L 542.619466 -138.280932 
L 545.203923 -138.451372 
L 547.78838 -138.602846 
L 550.372837 -138.737416 
L 552.957294 -138.856928 
L 555.541751 -138.963038 
L 558.126208 -139.057223 
L 560.710665 -139.140806 
L 563.295122 -139.214964 
L 565.879579 -139.280749 
L 568.464036 -139.339097 
L 571.048493 -139.39084 
L 573.63295 -139.436722 
L 576.217407 -139.477401 
L 578.801864 -139.513464 
L 581.386321 -139.545432 
L 583.970778 -139.573768 
L 586.555235 -139.598883 
L 589.139692 -139.621141 
L 591.724149 -139.640866 
L 594.308606 -139.658347 
L 596.893063 -139.673836 
L 599.47752 -139.687562 
L 602.061977 -139.699724 
L 604.646434 -139.7105 
L 607.230891 -139.720048 
L 609.815348 -139.728507 
L 612.399805 -139.736002 
L 614.984262 -139.742642 
L 617.568719 -139.748526 
L 620.153176 -139.753738 
L 622.737633 -139.758355 
L 625.32209 -139.762446 
L 627.906547 -139.76607 
L 630.491004 -139.76928 
L 633.075462 -139.772125 
L 635.659919 -139.774644 
L 638.244376 -139.776877 
L 640.828833 -139.778854 
L 643.41329 -139.780606 
L 645.997747 -139.782158 
L 648.582204 -139.783532 
L 651.166661 -139.78475 
L 653.751118 -139.785829 
L 656.335575 -139.786785 
L 658.920032 -139.787631 
L 661.504489 -139.788381 
L 664.088946 -139.789046 
L 666.673403 -139.789634 
L 666.673403 -39.18475 
L 666.673403 -39.18475 
L 664.088946 -39.18475 
L 661.504489 -39.18475 
L 658.920032 -39.18475 
L 656.335575 -39.18475 
L 653.751118 -39.18475 
L 651.166661 -39.18475 
L 648.582204 -39.18475 
L 645.997747 -39.18475 
L 643.41329 -39.18475 
L 640.828833 -39.18475 
L 638.244376 -39.18475 
L 635.659919 -39.18475 
L 633.075462 -39.18475 
L 630.491004 -39.18475 
L 627.906547 -39.18475 
L 625.32209 -39.18475 
L 622.737633 -39.18475 
L 620.153176 -39.18475 
L 617.568719 -39.18475 
L 614.984262 -39.18475 
L 612.399805 -39.18475 
L 609.815348 -39.18475 
L 607.230891 -39.18475 
L 604.646434 -39.18475 
L 602.061977 -39.18475 
L 599.47752 -39.18475 
L 596.893063 -39.18475 
L 594.308606 -39.18475 
L 591.724149 -39.18475 
L 589.139692 -39.18475 
L 586.555235 -39.18475 
L 583.970778 -39.18475 
L 581.386321 -39.18475 
L 578.801864 -39.18475 
L 576.217407 -39.18475 
L 573.63295 -39.18475 
L 571.048493 -39.18475 
L 568.464036 -39.18475 
L 565.879579 -39.18475 
L 563.295122 -39.18475 
L 560.710665 -39.18475 
L 558.126208 -39.18475 
L 555.541751 -39.18475 
L 552.957294 -39.18475 
L 550.372837 -39.18475 
L 547.78838 -39.18475 
L 545.203923 -39.18475 
L 542.619466 -39.18475 
L 540.035009 -39.18475 
L 537.450552 -39.18475 
L 534.866095 -39.18475 
L 532.281638 -39.18475 
L 529.697181 -39.18475 
L 527.112724 -39.18475 
L 524.528267 -39.18475 
L 521.94381 -39.18475 
L 519.359353 -39.18475 
L 516.774896 -39.18475 
L 514.190439 -39.18475 
L 511.605982 -39.18475 
L 509.021525 -39.18475 
L 506.437068 -39.18475 
L 503.852611 -39.18475 
L 501.268154 -39.18475 
L 498.683697 -39.18475 
L 496.09924 -39.18475 
L 493.514783 -39.18475 
L 490.930326 -39.18475 
L 488.345869 -39.18475 
L 485.761412 -39.18475 
L 483.176955 -39.18475 
L 480.592498 -39.18475 
L 478.008041 -39.18475 
L 475.423584 -39.18475 
L 472.839127 -39.18475 
L 470.25467 -39.18475 
L 467.670213 -39.18475 
L 465.085756 -39.18475 
L 462.501299 -39.18475 
L 459.916842 -39.18475 
L 457.332385 -39.18475 
L 454.747928 -39.18475 
L 452.163471 -39.18475 
L 449.579014 -39.18475 
L 446.994557 -39.18475 
L 444.4101 -39.18475 
L 441.825643 -39.18475 
L 439.241186 -39.18475 
L 436.656729 -39.18475 
L 434.072272 -39.18475 
L 431.487815 -39.18475 
L 428.903358 -39.18475 
L 426.318901 -39.18475 
L 423.734444 -39.18475 
L 421.149987 -39.18475 
L 418.56553 -39.18475 
L 415.981073 -39.18475 
L 413.396616 -39.18475 
L 410.812159 -39.18475 
z
" style="stroke: #c47b45; stroke-opacity: 0.12"/>
    </defs>
    <g clip-path="url(#pd583e4a717)">
     <use xlink:href="#m6b2af3b06c" x="0" y="497.546277" style="fill: #c47b45; fill-opacity: 0.12; stroke: #c47b45; stroke-opacity: 0.12"/>
    </g>
   </g>
   <g id="matplotlib.axis_3">
    <g id="xtick_7">
     <g id="line2d_28">
      <path d="M 410.812159 463.392 
L 410.812159 347.69113 
" clip-path="url(#pd583e4a717)" style="fill: none; stroke: #e8e2d6; stroke-opacity: 0.6; stroke-width: 0.6; stroke-linecap: square"/>
     </g>
     <g id="line2d_29">
      <g>
       <use xlink:href="#mb73945250b" x="410.812159" y="463.392" style="stroke: #000000; stroke-width: 1.2"/>
      </g>
     </g>
     <g id="text_45">
      <text style="font-size: 8px; font-family: 'Arial', 'Helvetica', 'Liberation Sans', 'DejaVu Sans', sans-serif; text-anchor: middle" x="410.812159" y="476.216219" transform="rotate(-0 410.812159 476.216219)">0</text>
     </g>
    </g>
    <g id="xtick_8">
     <g id="line2d_30">
      <path d="M 464.116584 463.392 
L 464.116584 347.69113 
" clip-path="url(#pd583e4a717)" style="fill: none; stroke: #e8e2d6; stroke-opacity: 0.6; stroke-width: 0.6; stroke-linecap: square"/>
     </g>
     <g id="line2d_31">
      <g>
       <use xlink:href="#mb73945250b" x="464.116584" y="463.392" style="stroke: #000000; stroke-width: 1.2"/>
      </g>
     </g>
     <g id="text_46">
      <text style="font-size: 8px; font-family: 'Arial', 'Helvetica', 'Liberation Sans', 'DejaVu Sans', sans-serif; text-anchor: middle" x="464.116584" y="476.216219" transform="rotate(-0 464.116584 476.216219)">5</text>
     </g>
    </g>
    <g id="xtick_9">
     <g id="line2d_32">
      <path d="M 517.42101 463.392 
L 517.42101 347.69113 
" clip-path="url(#pd583e4a717)" style="fill: none; stroke: #e8e2d6; stroke-opacity: 0.6; stroke-width: 0.6; stroke-linecap: square"/>
     </g>
     <g id="line2d_33">
      <g>
       <use xlink:href="#mb73945250b" x="517.42101" y="463.392" style="stroke: #000000; stroke-width: 1.2"/>
      </g>
     </g>
     <g id="text_47">
      <text style="font-size: 8px; font-family: 'Arial', 'Helvetica', 'Liberation Sans', 'DejaVu Sans', sans-serif; text-anchor: middle" x="517.42101" y="476.216219" transform="rotate(-0 517.42101 476.216219)">10</text>
     </g>
    </g>
    <g id="xtick_10">
     <g id="line2d_34">
      <path d="M 570.725436 463.392 
L 570.725436 347.69113 
" clip-path="url(#pd583e4a717)" style="fill: none; stroke: #e8e2d6; stroke-opacity: 0.6; stroke-width: 0.6; stroke-linecap: square"/>
     </g>
     <g id="line2d_35">
      <g>
       <use xlink:href="#mb73945250b" x="570.725436" y="463.392" style="stroke: #000000; stroke-width: 1.2"/>
      </g>
     </g>
     <g id="text_48">
      <text style="font-size: 8px; font-family: 'Arial', 'Helvetica', 'Liberation Sans', 'DejaVu Sans', sans-serif; text-anchor: middle" x="570.725436" y="476.216219" transform="rotate(-0 570.725436 476.216219)">15</text>
     </g>
    </g>
    <g id="xtick_11">
     <g id="line2d_36">
      <path d="M 624.029862 463.392 
L 624.029862 347.69113 
" clip-path="url(#pd583e4a717)" style="fill: none; stroke: #e8e2d6; stroke-opacity: 0.6; stroke-width: 0.6; stroke-linecap: square"/>
     </g>
     <g id="line2d_37">
      <g>
       <use xlink:href="#mb73945250b" x="624.029862" y="463.392" style="stroke: #000000; stroke-width: 1.2"/>
      </g>
     </g>
     <g id="text_49">
      <text style="font-size: 8px; font-family: 'Arial', 'Helvetica', 'Liberation Sans', 'DejaVu Sans', sans-serif; text-anchor: middle" x="624.029862" y="476.216219" transform="rotate(-0 624.029862 476.216219)">20</text>
     </g>
    </g>
    <g id="xtick_12">
     <g id="line2d_38">
      <path d="M 677.334288 463.392 
L 677.334288 347.69113 
" clip-path="url(#pd583e4a717)" style="fill: none; stroke: #e8e2d6; stroke-opacity: 0.6; stroke-width: 0.6; stroke-linecap: square"/>
     </g>
     <g id="line2d_39">
      <g>
       <use xlink:href="#mb73945250b" x="677.334288" y="463.392" style="stroke: #000000; stroke-width: 1.2"/>
      </g>
     </g>
     <g id="text_50">
      <text style="font-size: 8px; font-family: 'Arial', 'Helvetica', 'Liberation Sans', 'DejaVu Sans', sans-serif; text-anchor: middle" x="677.334288" y="476.216219" transform="rotate(-0 677.334288 476.216219)">25</text>
     </g>
    </g>
    <g id="text_51">
     <text style="font-size: 9px; font-family: 'Arial', 'Helvetica', 'Liberation Sans', 'DejaVu Sans', sans-serif; text-anchor: middle" x="538.742781" y="488.452059" transform="rotate(-0 538.742781 488.452059)">Curing time (hours)</text>
    </g>
   </g>
   <g id="matplotlib.axis_4">
    <g id="ytick_7">
     <g id="line2d_40">
      <path d="M 398.019096 458.361527 
L 679.466465 458.361527 
" clip-path="url(#pd583e4a717)" style="fill: none; stroke: #e8e2d6; stroke-opacity: 0.6; stroke-width: 0.6; stroke-linecap: square"/>
     </g>
     <g id="line2d_41">
      <g>
       <use xlink:href="#m4f5516c1e2" x="398.019096" y="458.361527" style="stroke: #000000; stroke-width: 1.2"/>
      </g>
     </g>
     <g id="text_52">
      <text style="font-size: 8px; font-family: 'Arial', 'Helvetica', 'Liberation Sans', 'DejaVu Sans', sans-serif; text-anchor: end" x="391.019096" y="461.273637" transform="rotate(-0 391.019096 461.273637)">0.0</text>
     </g>
    </g>
    <g id="ytick_8">
     <g id="line2d_42">
      <path d="M 398.019096 438.239637 
L 679.466465 438.239637 
" clip-path="url(#pd583e4a717)" style="fill: none; stroke: #e8e2d6; stroke-opacity: 0.6; stroke-width: 0.6; stroke-linecap: square"/>
     </g>
     <g id="line2d_43">
      <g>
       <use xlink:href="#m4f5516c1e2" x="398.019096" y="438.239637" style="stroke: #000000; stroke-width: 1.2"/>
      </g>
     </g>
     <g id="text_53">
      <text style="font-size: 8px; font-family: 'Arial', 'Helvetica', 'Liberation Sans', 'DejaVu Sans', sans-serif; text-anchor: end" x="391.019096" y="441.151746" transform="rotate(-0 391.019096 441.151746)">0.2</text>
     </g>
    </g>
    <g id="ytick_9">
     <g id="line2d_44">
      <path d="M 398.019096 418.117747 
L 679.466465 418.117747 
" clip-path="url(#pd583e4a717)" style="fill: none; stroke: #e8e2d6; stroke-opacity: 0.6; stroke-width: 0.6; stroke-linecap: square"/>
     </g>
     <g id="line2d_45">
      <g>
       <use xlink:href="#m4f5516c1e2" x="398.019096" y="418.117747" style="stroke: #000000; stroke-width: 1.2"/>
      </g>
     </g>
     <g id="text_54">
      <text style="font-size: 8px; font-family: 'Arial', 'Helvetica', 'Liberation Sans', 'DejaVu Sans', sans-serif; text-anchor: end" x="391.019096" y="421.029856" transform="rotate(-0 391.019096 421.029856)">0.4</text>
     </g>
    </g>
    <g id="ytick_10">
     <g id="line2d_46">
      <path d="M 398.019096 397.995856 
L 679.466465 397.995856 
" clip-path="url(#pd583e4a717)" style="fill: none; stroke: #e8e2d6; stroke-opacity: 0.6; stroke-width: 0.6; stroke-linecap: square"/>
     </g>
     <g id="line2d_47">
      <g>
       <use xlink:href="#m4f5516c1e2" x="398.019096" y="397.995856" style="stroke: #000000; stroke-width: 1.2"/>
      </g>
     </g>
     <g id="text_55">
      <text style="font-size: 8px; font-family: 'Arial', 'Helvetica', 'Liberation Sans', 'DejaVu Sans', sans-serif; text-anchor: end" x="391.019096" y="400.907966" transform="rotate(-0 391.019096 400.907966)">0.6</text>
     </g>
    </g>
    <g id="ytick_11">
     <g id="line2d_48">
      <path d="M 398.019096 377.873966 
L 679.466465 377.873966 
" clip-path="url(#pd583e4a717)" style="fill: none; stroke: #e8e2d6; stroke-opacity: 0.6; stroke-width: 0.6; stroke-linecap: square"/>
     </g>
     <g id="line2d_49">
      <g>
       <use xlink:href="#m4f5516c1e2" x="398.019096" y="377.873966" style="stroke: #000000; stroke-width: 1.2"/>
      </g>
     </g>
     <g id="text_56">
      <text style="font-size: 8px; font-family: 'Arial', 'Helvetica', 'Liberation Sans', 'DejaVu Sans', sans-serif; text-anchor: end" x="391.019096" y="380.786075" transform="rotate(-0 391.019096 380.786075)">0.8</text>
     </g>
    </g>
    <g id="ytick_12">
     <g id="line2d_50">
      <path d="M 398.019096 357.752076 
L 679.466465 357.752076 
" clip-path="url(#pd583e4a717)" style="fill: none; stroke: #e8e2d6; stroke-opacity: 0.6; stroke-width: 0.6; stroke-linecap: square"/>
     </g>
     <g id="line2d_51">
      <g>
       <use xlink:href="#m4f5516c1e2" x="398.019096" y="357.752076" style="stroke: #000000; stroke-width: 1.2"/>
      </g>
     </g>
     <g id="text_57">
      <text style="font-size: 8px; font-family: 'Arial', 'Helvetica', 'Liberation Sans', 'DejaVu Sans', sans-serif; text-anchor: end" x="391.019096" y="360.664185" transform="rotate(-0 391.019096 360.664185)">1.0</text>
     </g>
    </g>
    <g id="text_58">
     <text style="font-size: 9px; font-family: 'Arial', 'Helvetica', 'Liberation Sans', 'DejaVu Sans', sans-serif; text-anchor: middle" x="374.004878" y="405.541565" transform="rotate(-90 374.004878 405.541565)">Cure degree</text>
    </g>
   </g>
   <g id="line2d_52">
    <path d="M 410.812159 446.368587 
L 413.396616 445.027942 
L 415.981073 443.562459 
L 418.56553 441.966164 
L 421.149987 440.234059 
L 423.734444 438.362421 
L 426.318901 436.34911 
L 428.903358 434.193885 
L 431.487815 431.89869 
L 434.072272 429.467911 
L 436.656729 426.908566 
L 439.241186 424.230412 
L 441.825643 421.445945 
L 444.4101 418.570286 
L 446.994557 415.620935 
L 449.579014 412.617402 
L 452.163471 409.580721 
L 454.747928 406.532882 
L 457.332385 403.496201 
L 459.916842 400.492668 
L 462.501299 397.543317 
L 465.085756 394.667659 
L 467.670213 391.883191 
L 470.25467 389.205037 
L 472.839127 386.645692 
L 475.423584 384.214913 
L 478.008041 381.919718 
L 480.592498 379.764493 
L 483.176955 377.751182 
L 485.761412 375.879544 
L 488.345869 374.147439 
L 490.930326 372.551144 
L 493.514783 371.085661 
L 496.09924 369.745016 
L 498.683697 368.522533 
L 501.268154 367.41108 
L 503.852611 366.403278 
L 506.437068 365.49168 
L 509.021525 364.668914 
L 511.605982 363.927796 
L 514.190439 363.261418 
L 516.774896 362.663204 
L 519.359353 362.126958 
L 521.94381 361.646881 
L 524.528267 361.217588 
L 527.112724 360.834105 
L 529.697181 360.49186 
L 532.281638 360.186671 
L 534.866095 359.914726 
L 537.450552 359.672563 
L 540.035009 359.457047 
L 542.619466 359.265345 
L 545.203923 359.094905 
L 547.78838 358.943431 
L 550.372837 358.808862 
L 552.957294 358.689349 
L 555.541751 358.58324 
L 558.126208 358.489054 
L 560.710665 358.405471 
L 563.295122 358.331313 
L 565.879579 358.265528 
L 568.464036 358.207181 
L 571.048493 358.155437 
L 573.63295 358.109555 
L 576.217407 358.068876 
L 578.801864 358.032813 
L 581.386321 358.000845 
L 583.970778 357.972509 
L 586.555235 357.947395 
L 589.139692 357.925137 
L 591.724149 357.905411 
L 594.308606 357.887931 
L 596.893063 357.872441 
L 599.47752 357.858715 
L 602.061977 357.846553 
L 604.646434 357.835777 
L 607.230891 357.82623 
L 609.815348 357.81777 
L 612.399805 357.810275 
L 614.984262 357.803635 
L 617.568719 357.797752 
L 620.153176 357.79254 
L 622.737633 357.787922 
L 625.32209 357.783832 
L 627.906547 357.780207 
L 630.491004 357.776997 
L 633.075462 357.774153 
L 635.659919 357.771633 
L 638.244376 357.769401 
L 640.828833 357.767423 
L 643.41329 357.765672 
L 645.997747 357.76412 
L 648.582204 357.762745 
L 651.166661 357.761527 
L 653.751118 357.760448 
L 656.335575 357.759493 
L 658.920032 357.758646 
L 661.504489 357.757896 
L 664.088946 357.757232 
L 666.673403 357.756643 
" clip-path="url(#pd583e4a717)" style="fill: none; stroke: #c47b45; stroke-width: 1.8; stroke-linecap: square"/>
   </g>
   <g id="line2d_53">
    <path d="M 453.455699 463.392 
L 453.455699 347.69113 
" clip-path="url(#pd583e4a717)" style="fill: none; stroke-dasharray: 0.8,1.32; stroke-dashoffset: 0; stroke: #b85450; stroke-opacity: 0.7; stroke-width: 0.8"/>
   </g>
   <g id="line2d_54">
    <path d="M 538.742781 463.392 
L 538.742781 347.69113 
" clip-path="url(#pd583e4a717)" style="fill: none; stroke-dasharray: 0.8,1.32; stroke-dashoffset: 0; stroke: #8c8c8c; stroke-opacity: 0.5; stroke-width: 0.8"/>
   </g>
   <g id="patch_17">
    <path d="M 398.019096 463.392 
L 398.019096 347.69113 
" style="fill: none; stroke: #000000; stroke-width: 1.5; stroke-linejoin: miter; stroke-linecap: square"/>
   </g>
   <g id="patch_18">
    <path d="M 398.019096 463.392 
L 679.466465 463.392 
" style="fill: none; stroke: #000000; stroke-width: 1.5; stroke-linejoin: miter; stroke-linecap: square"/>
   </g>
   <g id="text_59">
    <text style="font-size: 7px; font-family: 'Arial', 'Helvetica', 'Liberation Sans', 'DejaVu Sans', sans-serif; fill: #b85450" transform="translate(458.786142 420.559903)">gel point</text>
    <text style="font-size: 7px; font-family: 'Arial', 'Helvetica', 'Liberation Sans', 'DejaVu Sans', sans-serif; fill: #b85450" transform="translate(458.786142 428.178692)">~4 h</text>
   </g>
   <g id="text_60">
    <text style="font-size: 7px; font-family: 'Arial', 'Helvetica', 'Liberation Sans', 'DejaVu Sans', sans-serif; fill: #8c8c8c" transform="translate(544.073223 390.377204)">full cure</text>
    <text style="font-size: 7px; font-family: 'Arial', 'Helvetica', 'Liberation Sans', 'DejaVu Sans', sans-serif; fill: #8c8c8c" transform="translate(544.073223 397.995856)">~12 h</text>
   </g>
   <g id="text_61">
    <text style="font-weight: 700; font-size: 10px; font-family: 'Arial', 'Helvetica', 'Liberation Sans', 'DejaVu Sans', sans-serif; text-anchor: start" x="398.019096" y="341.69113" transform="rotate(-0 398.019096 341.69113)">(c) Cure degree evolution</text>
   </g>
  </g>
  <g id="text_62">
   <text style="font-weight: 700; font-size: 12px; font-family: 'Arial', 'Helvetica', 'Liberation Sans', 'DejaVu Sans', sans-serif; text-anchor: middle" x="348.266465" y="15.936328" transform="rotate(-0 348.266465 15.936328)">WER-EA application workflow: construction sequence + performance evidence</text>
  </g>
 </g>
 <defs>
  <clipPath id="paf74afae53">
   <rect x="37.766465" y="64.224" width="641.7" height="231.401739"/>
  </clipPath>
  <clipPath id="p485db666f7">
   <rect x="37.766465" y="347.69113" width="281.447368" height="115.70087"/>
  </clipPath>
  <clipPath id="pd583e4a717">
   <rect x="398.019096" y="347.69113" width="281.447368" height="115.70087"/>
  </clipPath>
 </defs>
</svg>
