<?xml version="1.0" encoding="utf-8" standalone="no"?>
<!DOCTYPE svg PUBLIC "-//W3C//DTD SVG 1.1//EN"
  "http://www.w3.org/Graphics/SVG/1.1/DTD/svg11.dtd">
<svg xmlns:xlink="http://www.w3.org/1999/xlink" width="712.8pt" height="280.8pt" viewBox="0 0 712.8 280.8" xmlns="http://www.w3.org/2000/svg" version="1.1">
 <metadata>
  <rdf:RDF xmlns:dc="http://purl.org/dc/elements/1.1/" xmlns:cc="http://creativecommons.org/ns#" xmlns:rdf="http://www.w3.org/1999/02/22-rdf-syntax-ns#">
   <cc:Work>
    <dc:type rdf:resource="http://purl.org/dc/dcmitype/StillImage"/>
    <dc:date>2026-06-19T16:33:33.583918</dc:date>
    <dc:format>image/svg+xml</dc:format>
    <dc:creator>
     <cc:Agent>
      <dc:title>Matplotlib v3.11.0, https://matplotlib.org/</dc:title>
     </cc:Agent>
    </dc:creator>
   </cc:Work>
  </rdf:RDF>
 </metadata>
 <defs>
  <style type="text/css">*{stroke-linejoin: round; stroke-linecap: butt}</style>
 </defs>
 <g id="figure_1">
  <g id="patch_1">
   <path d="M 0 280.8 
L 712.8 280.8 
L 712.8 0 
L 0 0 
z
" style="fill: #ffffff"/>
  </g>
  <g id="axes_1">
   <g id="patch_2">
    <path d="M 63.072 214.708604 
L 114.69287 214.708604 
Q 121.67687 214.708604 121.67687 210.502075 
L 121.67687 84.306226 
Q 121.67687 80.099697 114.69287 80.099697 
L 63.072 80.099697 
Q 56.088 80.099697 56.088 84.306226 
L 56.088 210.502075 
Q 56.088 214.708604 63.072 214.708604 
z
" clip-path="url(#p440acb96fd)" style="fill: #4b6f8a; opacity: 0.3; stroke: #4b6f8a; stroke-width: 1.5; stroke-linejoin: miter"/>
   </g>
   <g id="patch_3">
    <path d="M 114.69287 214.708604 
L 140.503304 214.708604 
Q 147.487304 214.708604 147.487304 210.502075 
L 147.487304 84.306226 
Q 147.487304 80.099697 140.503304 80.099697 
L 114.69287 80.099697 
Q 107.70887 80.099697 107.70887 84.306226 
L 107.70887 210.502075 
Q 107.70887 214.708604 114.69287 214.708604 
z
" clip-path="url(#p440acb96fd)" style="fill: #c47b45; opacity: 0.3; stroke: #c47b45; stroke-width: 1.5; stroke-linejoin: miter"/>
   </g>
   <g id="patch_4">
    <path d="M 140.503304 214.708604 
L 217.934609 214.708604 
Q 224.918609 214.708604 224.918609 210.502075 
L 224.918609 84.306226 
Q 224.918609 80.099697 217.934609 80.099697 
L 140.503304 80.099697 
Q 133.519304 80.099697 133.519304 84.306226 
L 133.519304 210.502075 
Q 133.519304 214.708604 140.503304 214.708604 
z
" clip-path="url(#p440acb96fd)" style="fill: #4f7c6a; opacity: 0.3; stroke: #4f7c6a; stroke-width: 1.5; stroke-linejoin: miter"/>
   </g>
   <g id="patch_5">
    <path d="M 217.934609 214.708604 
L 527.659826 214.708604 
Q 534.643826 214.708604 534.643826 210.502075 
L 534.643826 84.306226 
Q 534.643826 80.099697 527.659826 80.099697 
L 217.934609 80.099697 
Q 210.950609 80.099697 210.950609 84.306226 
L 210.950609 210.502075 
Q 210.950609 214.708604 217.934609 214.708604 
z
" clip-path="url(#p440acb96fd)" style="fill: #8b6f47; opacity: 0.3; stroke: #8b6f47; stroke-width: 1.5; stroke-linejoin: miter"/>
   </g>
   <g id="patch_6">
    <path d="M 527.659826 214.708604 
L 630.901565 214.708604 
Q 637.885565 214.708604 637.885565 210.502075 
L 637.885565 84.306226 
Q 637.885565 80.099697 630.901565 80.099697 
L 527.659826 80.099697 
Q 520.675826 80.099697 520.675826 84.306226 
L 520.675826 210.502075 
Q 520.675826 214.708604 527.659826 214.708604 
z
" clip-path="url(#p440acb96fd)" style="fill: #d4a574; opacity: 0.3; stroke: #d4a574; stroke-width: 1.5; stroke-linejoin: miter"/>
   </g>
   <g id="patch_7">
    <path d="M 630.901565 214.708604 
L 656.712 214.708604 
Q 663.696 214.708604 663.696 210.502075 
L 663.696 84.306226 
Q 663.696 80.099697 656.712 80.099697 
L 630.901565 80.099697 
Q 623.917565 80.099697 623.917565 84.306226 
L 623.917565 210.502075 
Q 623.917565 214.708604 630.901565 214.708604 
z
" clip-path="url(#p440acb96fd)" style="fill: #b85450; opacity: 0.3; stroke: #b85450; stroke-width: 1.5; stroke-linejoin: miter"/>
   </g>
   <g id="text_1">
    <text style="font-weight: 700; font-size: 8px; font-family: 'Arial', 'Helvetica', 'Liberation Sans', 'DejaVu Sans', sans-serif" transform="translate(74.20931 124.088306)">Surface</text>
    <text style="font-weight: 700; font-size: 8px; font-family: 'Arial', 'Helvetica', 'Liberation Sans', 'DejaVu Sans', sans-serif" transform="translate(66.879935 132.795337)">preparation</text>
   </g>
   <g id="text_2">
    <text style="font-size: 9px; font-family: 'Arial', 'Helvetica', 'Liberation Sans', 'DejaVu Sans', sans-serif; text-anchor: middle; fill: #4b6f8a" x="88.882435" y="181.056377" transform="rotate(-0 88.882435 181.056377)">2 h</text>
   </g>
   <g id="text_3">
    <text style="font-weight: 700; font-size: 8px; font-family: 'Arial', 'Helvetica', 'Liberation Sans', 'DejaVu Sans', sans-serif" transform="translate(109.443712 124.088228)">Tack coat</text>
    <text style="font-weight: 700; font-size: 8px; font-family: 'Arial', 'Helvetica', 'Liberation Sans', 'DejaVu Sans', sans-serif" transform="translate(110.927462 132.795259)">spraying</text>
   </g>
   <g id="text_4">
    <text style="font-size: 9px; font-family: 'Arial', 'Helvetica', 'Liberation Sans', 'DejaVu Sans', sans-serif; text-anchor: middle; fill: #c47b45" x="127.598087" y="181.056377" transform="rotate(-0 127.598087 181.056377)">1 h</text>
   </g>
   <g id="text_5">
    <text style="font-weight: 700; font-size: 8px; font-family: 'Arial', 'Helvetica', 'Liberation Sans', 'DejaVu Sans', sans-serif" transform="translate(149.437707 124.088228)">Demulsification</text>
    <text style="font-weight: 700; font-size: 8px; font-family: 'Arial', 'Helvetica', 'Liberation Sans', 'DejaVu Sans', sans-serif" transform="translate(158.548332 132.795259)">&amp; breaking</text>
   </g>
   <g id="text_6">
    <text style="font-size: 9px; font-family: 'Arial', 'Helvetica', 'Liberation Sans', 'DejaVu Sans', sans-serif; text-anchor: middle; fill: #4f7c6a" x="179.218957" y="181.056377" transform="rotate(-0 179.218957 181.056377)">3 h</text>
   </g>
   <g id="text_7">
    <text style="font-weight: 700; font-size: 8px; font-family: 'Arial', 'Helvetica', 'Liberation Sans', 'DejaVu Sans', sans-serif; text-anchor: middle" x="372.797217" y="128.441743" transform="rotate(-0 372.797217 128.441743)">Curing</text>
   </g>
   <g id="text_8">
    <text style="font-size: 9px; font-family: 'Arial', 'Helvetica', 'Liberation Sans', 'DejaVu Sans', sans-serif; text-anchor: middle; fill: #8b6f47" x="372.797217" y="181.056377" transform="rotate(-0 372.797217 181.056377)">12 h</text>
   </g>
   <g id="text_9">
    <text style="font-weight: 700; font-size: 8px; font-family: 'Arial', 'Helvetica', 'Liberation Sans', 'DejaVu Sans', sans-serif" transform="translate(564.603821 124.088228)">Overlay</text>
    <text style="font-weight: 700; font-size: 8px; font-family: 'Arial', 'Helvetica', 'Liberation Sans', 'DejaVu Sans', sans-serif" transform="translate(559.496946 132.795415)">placement</text>
   </g>
   <g id="text_10">
    <text style="font-size: 9px; font-family: 'Arial', 'Helvetica', 'Liberation Sans', 'DejaVu Sans', sans-serif; text-anchor: middle; fill: #d4a574" x="579.280696" y="181.056377" transform="rotate(-0 579.280696 181.056377)">4 h</text>
   </g>
   <g id="text_11">
    <text style="font-weight: 700; font-size: 8px; font-family: 'Arial', 'Helvetica', 'Liberation Sans', 'DejaVu Sans', sans-serif" transform="translate(637.806783 124.088306)">QC</text>
    <text style="font-weight: 700; font-size: 8px; font-family: 'Arial', 'Helvetica', 'Liberation Sans', 'DejaVu Sans', sans-serif" transform="translate(623.806783 132.795337)">inspection</text>
   </g>
   <g id="text_12">
    <text style="font-size: 9px; font-family: 'Arial', 'Helvetica', 'Liberation Sans', 'DejaVu Sans', sans-serif; text-anchor: middle; fill: #b85450" x="643.806783" y="181.056377" transform="rotate(-0 643.806783 181.056377)">1 h</text>
   </g>
   <g id="text_13">
    <text style="font-size: 11px; font-family: 'Arial', 'Helvetica', 'Liberation Sans', 'DejaVu Sans', sans-serif; text-anchor: middle" x="356.4" y="15.208301" transform="rotate(-0 356.4 15.208301)">WER-EA construction application workflow</text>
   </g>
  </g>
 </g>
 <defs>
  <clipPath id="p440acb96fd">
   <rect x="7.2" y="21.208301" width="698.4" height="252.391699"/>
  </clipPath>
 </defs>
</svg>
