<?xml version="1.0" encoding="utf-8" standalone="no"?>
<!DOCTYPE svg PUBLIC "-//W3C//DTD SVG 1.1//EN"
  "http://www.w3.org/Graphics/SVG/1.1/DTD/svg11.dtd">
<svg xmlns:xlink="http://www.w3.org/1999/xlink" width="635.538965pt" height="510.218277pt" viewBox="0 0 635.538965 510.218277" xmlns="http://www.w3.org/2000/svg" version="1.1">
 <metadata>
  <rdf:RDF xmlns:dc="http://purl.org/dc/elements/1.1/" xmlns:cc="http://creativecommons.org/ns#" xmlns:rdf="http://www.w3.org/1999/02/22-rdf-syntax-ns#">
   <cc:Work>
    <dc:type rdf:resource="http://purl.org/dc/dcmitype/StillImage"/>
    <dc:date>2026-06-19T17:49:30.761386</dc:date>
    <dc:format>image/svg+xml</dc:format>
    <dc:creator>
     <cc:Agent>
      <dc:title>Matplotlib v3.11.0, https://matplotlib.org/</dc:title>
     </cc:Agent>
    </dc:creator>
   </cc:Work>
  </rdf:RDF>
 </metadata>
 <defs>
  <style type="text/css">*{stroke-linejoin: round; stroke-linecap: butt}</style>
 </defs>
 <g id="figure_1">
  <g id="patch_1">
   <path d="M 0 510.218277 
L 635.538965 510.218277 
L 635.538965 0 
L 0 0 
z
" style="fill: #ffffff"/>
  </g>
  <g id="axes_1">
   <g id="patch_2">
    <path d="M 101.028965 178.6284 
L 159.618965 178.6284 
L 130.323965 154.102226 
z
" clip-path="url(#p9749d2bb07)" style="fill: #4b6f8a; opacity: 0.25; stroke: #4b6f8a; stroke-width: 1.8; stroke-linejoin: miter"/>
   </g>
   <g id="patch_3">
    <path d="M 306.093965 178.6284 
L 364.683965 178.6284 
L 335.388965 154.102226 
" clip-path="url(#p9749d2bb07)" style="fill: none; stroke-dasharray: 6.66,2.88; stroke-dashoffset: 0; stroke: #c47b45; stroke-width: 1.8; stroke-linejoin: miter"/>
   </g>
   <g id="patch_4">
    <path d="M 77.592965 302.485578 
L 171.336965 302.485578 
Q 174.266465 302.485578 174.266465 301.25927 
L 174.266465 284.090948 
Q 174.266465 282.864639 171.336965 282.864639 
L 77.592965 282.864639 
Q 74.663465 282.864639 74.663465 284.090948 
L 74.663465 301.25927 
Q 74.663465 302.485578 77.592965 302.485578 
z
" clip-path="url(#p9749d2bb07)" style="fill: #4f7c6a; opacity: 0.2; stroke: #4f7c6a; stroke-linejoin: miter"/>
   </g>
   <g id="patch_5">
    <path d="M 185.984465 302.485578 
L 279.728465 302.485578 
Q 282.657965 302.485578 282.657965 301.25927 
L 282.657965 284.090948 
Q 282.657965 282.864639 279.728465 282.864639 
L 185.984465 282.864639 
Q 183.054965 282.864639 183.054965 284.090948 
L 183.054965 301.25927 
Q 183.054965 302.485578 185.984465 302.485578 
z
" clip-path="url(#p9749d2bb07)" style="fill: #4f7c6a; opacity: 0.2; stroke: #4f7c6a; stroke-linejoin: miter"/>
   </g>
   <g id="patch_6">
    <path d="M 294.375965 302.485578 
L 388.119965 302.485578 
Q 391.049465 302.485578 391.049465 301.25927 
L 391.049465 284.090948 
Q 391.049465 282.864639 388.119965 282.864639 
L 294.375965 282.864639 
Q 291.446465 282.864639 291.446465 284.090948 
L 291.446465 301.25927 
Q 291.446465 302.485578 294.375965 302.485578 
z
" clip-path="url(#p9749d2bb07)" style="fill: #4b6f8a; opacity: 0.2; stroke: #4b6f8a; stroke-linejoin: miter"/>
   </g>
   <g id="patch_7">
    <path d="M 402.767465 302.485578 
L 496.511465 302.485578 
Q 499.440965 302.485578 499.440965 301.25927 
L 499.440965 284.090948 
Q 499.440965 282.864639 496.511465 282.864639 
L 402.767465 282.864639 
Q 399.837965 282.864639 399.837965 284.090948 
L 399.837965 301.25927 
Q 399.837965 302.485578 402.767465 302.485578 
z
" clip-path="url(#p9749d2bb07)" style="fill: #4f7c6a; opacity: 0.2; stroke: #4f7c6a; stroke-linejoin: miter"/>
   </g>
   <g id="patch_8">
    <path d="M 511.158965 302.485578 
L 604.902965 302.485578 
Q 607.832465 302.485578 607.832465 301.25927 
L 607.832465 284.090948 
Q 607.832465 282.864639 604.902965 282.864639 
L 511.158965 282.864639 
Q 508.229465 282.864639 508.229465 284.090948 
L 508.229465 301.25927 
Q 508.229465 302.485578 511.158965 302.485578 
z
" clip-path="url(#p9749d2bb07)" style="fill: #4b6f8a; opacity: 0.2; stroke: #4b6f8a; stroke-linejoin: miter"/>
   </g>
   <g id="line2d_1">
    <path d="M 130.323965 154.102226 
L 130.323965 150.4233 
" clip-path="url(#p9749d2bb07)" style="fill: none; stroke: #b85450; stroke-width: 1.2; stroke-linecap: square"/>
   </g>
   <g id="line2d_2">
    <path d="M 335.388965 154.102226 
L 352.965965 147.970683 
" clip-path="url(#p9749d2bb07)" style="fill: none; stroke-dasharray: 1,1.65; stroke-dashoffset: 0; stroke: #b85450"/>
   </g>
   <g id="line2d_3">
    <path d="M 502.370465 182.307326 
L 527.759465 182.307326 
" clip-path="url(#p9749d2bb07)" style="fill: none; stroke: #4f7c6a; stroke-opacity: 0.7; stroke-linecap: square"/>
   </g>
   <g id="line2d_4">
    <path d="M 502.370465 182.307326 
L 502.370465 168.81793 
" clip-path="url(#p9749d2bb07)" style="fill: none; stroke: #4f7c6a; stroke-opacity: 0.7; stroke-linecap: square"/>
   </g>
   <g id="line2d_5">
    <path d="M 502.370465 168.81793 
L 527.759465 168.81793 
" clip-path="url(#p9749d2bb07)" style="fill: none; stroke: #4f7c6a; stroke-opacity: 0.7; stroke-linecap: square"/>
   </g>
   <g id="line2d_6">
    <path d="M 502.370465 168.81793 
L 502.370465 155.328535 
" clip-path="url(#p9749d2bb07)" style="fill: none; stroke: #4f7c6a; stroke-opacity: 0.7; stroke-linecap: square"/>
   </g>
   <g id="line2d_7">
    <path d="M 502.370465 155.328535 
L 527.759465 155.328535 
" clip-path="url(#p9749d2bb07)" style="fill: none; stroke: #4f7c6a; stroke-opacity: 0.7; stroke-linecap: square"/>
   </g>
   <g id="line2d_8">
    <path d="M 527.759465 182.307326 
L 553.148465 182.307326 
" clip-path="url(#p9749d2bb07)" style="fill: none; stroke: #4f7c6a; stroke-opacity: 0.7; stroke-linecap: square"/>
   </g>
   <g id="line2d_9">
    <path d="M 527.759465 182.307326 
L 527.759465 168.81793 
" clip-path="url(#p9749d2bb07)" style="fill: none; stroke: #4f7c6a; stroke-opacity: 0.7; stroke-linecap: square"/>
   </g>
   <g id="line2d_10">
    <path d="M 527.759465 168.81793 
L 553.148465 168.81793 
" clip-path="url(#p9749d2bb07)" style="fill: none; stroke: #4f7c6a; stroke-opacity: 0.7; stroke-linecap: square"/>
   </g>
   <g id="line2d_11">
    <path d="M 527.759465 168.81793 
L 527.759465 155.328535 
" clip-path="url(#p9749d2bb07)" style="fill: none; stroke: #4f7c6a; stroke-opacity: 0.7; stroke-linecap: square"/>
   </g>
   <g id="line2d_12">
    <path d="M 527.759465 155.328535 
L 553.148465 155.328535 
" clip-path="url(#p9749d2bb07)" style="fill: none; stroke: #4f7c6a; stroke-opacity: 0.7; stroke-linecap: square"/>
   </g>
   <g id="line2d_13">
    <path d="M 553.148465 182.307326 
L 578.537465 182.307326 
" clip-path="url(#p9749d2bb07)" style="fill: none; stroke: #4f7c6a; stroke-opacity: 0.7; stroke-linecap: square"/>
   </g>
   <g id="line2d_14">
    <path d="M 553.148465 182.307326 
L 553.148465 168.81793 
" clip-path="url(#p9749d2bb07)" style="fill: none; stroke: #4f7c6a; stroke-opacity: 0.7; stroke-linecap: square"/>
   </g>
   <g id="line2d_15">
    <path d="M 553.148465 168.81793 
L 578.537465 168.81793 
" clip-path="url(#p9749d2bb07)" style="fill: none; stroke: #4f7c6a; stroke-opacity: 0.7; stroke-linecap: square"/>
   </g>
   <g id="line2d_16">
    <path d="M 553.148465 168.81793 
L 553.148465 155.328535 
" clip-path="url(#p9749d2bb07)" style="fill: none; stroke: #4f7c6a; stroke-opacity: 0.7; stroke-linecap: square"/>
   </g>
   <g id="line2d_17">
    <path d="M 553.148465 155.328535 
L 578.537465 155.328535 
" clip-path="url(#p9749d2bb07)" style="fill: none; stroke: #4f7c6a; stroke-opacity: 0.7; stroke-linecap: square"/>
   </g>
   <g id="line2d_18">
    <path d="M 578.537465 182.307326 
L 578.537465 168.81793 
" clip-path="url(#p9749d2bb07)" style="fill: none; stroke: #4f7c6a; stroke-opacity: 0.7; stroke-linecap: square"/>
   </g>
   <g id="line2d_19">
    <path d="M 578.537465 168.81793 
L 578.537465 155.328535 
" clip-path="url(#p9749d2bb07)" style="fill: none; stroke: #4f7c6a; stroke-opacity: 0.7; stroke-linecap: square"/>
   </g>
   <g id="text_1">
    <text style="font-weight: 700; font-size: 7px; font-family: 'Arial', 'Helvetica', 'Liberation Sans', 'DejaVu Sans', sans-serif; text-anchor: middle" x="130.323965" y="170.629454" transform="rotate(-0 130.323965 170.629454)">C—C</text>
   </g>
   <g id="text_2">
    <text style="font-weight: 700; font-size: 9px; font-family: 'Arial', 'Helvetica', 'Liberation Sans', 'DejaVu Sans', sans-serif; text-anchor: middle; fill: #b85450" x="130.323965" y="150.299784" transform="rotate(-0 130.323965 150.299784)">O</text>
   </g>
   <g id="text_3">
    <!-- R—NH$_2$ -->
    <g style="fill: #8b6f47" transform="translate(180.172965 170.888243)">
     <text>
      <tspan x="0" y="-0.265625" style="font-weight: 700; font-size: 8px; font-family: 'Arial'; fill: #8b6f47">R</tspan>
      <tspan x="13.777344" y="-0.265625" style="font-weight: 700; font-size: 8px; font-family: 'Arial'; fill: #8b6f47">N</tspan>
      <tspan x="19.554688" y="-0.265625" style="font-weight: 700; font-size: 8px; font-family: 'Arial'; fill: #8b6f47">H</tspan>
      <tspan x="5.777344" y="-0.265625" style="font-size: 8px; font-family: 'DejaVu Sans Display'; fill: #8b6f47">—</tspan>
      <tspan x="25.408594" y="0.934371" style="font-size: 5.6px; font-family: 'DejaVu Sans'; fill: #8b6f47">2</tspan>
     </text>
    </g>
   </g>
   <g id="text_4">
    <text style="font-weight: 700; font-size: 8px; font-family: 'Arial', 'Helvetica', 'Liberation Sans', 'DejaVu Sans', sans-serif; text-anchor: middle; fill: #4b6f8a" x="130.323965" y="200.701957" transform="rotate(-0 130.323965 200.701957)">Stage 1: Reactants</text>
   </g>
   <g id="text_5">
    <text style="font-style: italic; font-size: 7px; font-family: 'Arial', 'Helvetica', 'Liberation Sans', 'DejaVu Sans', sans-serif; text-anchor: middle; fill: #555555" x="130.323965" y="215.417661" transform="rotate(-0 130.323965 215.417661)">epoxy + amine</text>
   </g>
   <g id="text_6">
    <text style="font-weight: 700; font-size: 8px; font-family: 'Arial', 'Helvetica', 'Liberation Sans', 'DejaVu Sans', sans-serif; text-anchor: middle; fill: #b85450" x="335.388965" y="150.040995" transform="rotate(-0 335.388965 150.040995)">O···</text>
   </g>
   <g id="text_7">
    <text style="font-size: 7px; font-family: 'Arial', 'Helvetica', 'Liberation Sans', 'DejaVu Sans', sans-serif; text-anchor: middle; fill: #4f7c6a" x="270.939965" y="163.912696" transform="rotate(-0 270.939965 163.912696)">—OH</text>
   </g>
   <g id="text_8">
    <text style="font-size: 7px; font-family: 'Arial', 'Helvetica', 'Liberation Sans', 'DejaVu Sans', sans-serif; text-anchor: middle; fill: #8b6f47" x="399.837965" y="163.912696" transform="rotate(-0 399.837965 163.912696)">C—N</text>
   </g>
   <g id="text_9">
    <text style="font-weight: 700; font-size: 8px; font-family: 'Arial', 'Helvetica', 'Liberation Sans', 'DejaVu Sans', sans-serif; text-anchor: middle; fill: #c47b45" x="335.388965" y="200.701957" transform="rotate(-0 335.388965 200.701957)">Stage 2: Ring opening</text>
   </g>
   <g id="text_10">
    <text style="font-style: italic; font-size: 7px; font-family: 'Arial', 'Helvetica', 'Liberation Sans', 'DejaVu Sans', sans-serif; text-anchor: middle; fill: #555555" x="335.388965" y="215.417661" transform="rotate(-0 335.388965 215.417661)">ring opens, C—O—C forms</text>
   </g>
   <g id="line2d_20">
    <defs>
     <path id="m96ef929f8a" d="M 0 2.5 
C 0.663008 2.5 1.29895 2.236584 1.767767 1.767767 
C 2.236584 1.29895 2.5 0.663008 2.5 0 
C 2.5 -0.663008 2.236584 -1.29895 1.767767 -1.767767 
C 1.29895 -2.236584 0.663008 -2.5 0 -2.5 
C -0.663008 -2.5 -1.29895 -2.236584 -1.767767 -1.767767 
C -2.236584 -1.29895 -2.5 -0.663008 -2.5 0 
C -2.5 0.663008 -2.236584 1.29895 -1.767767 1.767767 
C -1.29895 2.236584 -0.663008 2.5 0 2.5 
z
" style="stroke: #4f7c6a"/>
    </defs>
    <g clip-path="url(#p9749d2bb07)">
     <use xlink:href="#m96ef929f8a" x="502.370465" y="182.307326" style="fill: #4f7c6a; stroke: #4f7c6a"/>
    </g>
   </g>
   <g id="line2d_21">
    <g clip-path="url(#p9749d2bb07)">
     <use xlink:href="#m96ef929f8a" x="502.370465" y="168.81793" style="fill: #4f7c6a; stroke: #4f7c6a"/>
    </g>
   </g>
   <g id="line2d_22">
    <g clip-path="url(#p9749d2bb07)">
     <use xlink:href="#m96ef929f8a" x="502.370465" y="155.328535" style="fill: #4f7c6a; stroke: #4f7c6a"/>
    </g>
   </g>
   <g id="line2d_23">
    <g clip-path="url(#p9749d2bb07)">
     <use xlink:href="#m96ef929f8a" x="527.759465" y="182.307326" style="fill: #4f7c6a; stroke: #4f7c6a"/>
    </g>
   </g>
   <g id="line2d_24">
    <g clip-path="url(#p9749d2bb07)">
     <use xlink:href="#m96ef929f8a" x="527.759465" y="168.81793" style="fill: #4f7c6a; stroke: #4f7c6a"/>
    </g>
   </g>
   <g id="line2d_25">
    <g clip-path="url(#p9749d2bb07)">
     <use xlink:href="#m96ef929f8a" x="527.759465" y="155.328535" style="fill: #4f7c6a; stroke: #4f7c6a"/>
    </g>
   </g>
   <g id="line2d_26">
    <g clip-path="url(#p9749d2bb07)">
     <use xlink:href="#m96ef929f8a" x="553.148465" y="182.307326" style="fill: #4f7c6a; stroke: #4f7c6a"/>
    </g>
   </g>
   <g id="line2d_27">
    <g clip-path="url(#p9749d2bb07)">
     <use xlink:href="#m96ef929f8a" x="553.148465" y="168.81793" style="fill: #4f7c6a; stroke: #4f7c6a"/>
    </g>
   </g>
   <g id="line2d_28">
    <g clip-path="url(#p9749d2bb07)">
     <use xlink:href="#m96ef929f8a" x="553.148465" y="155.328535" style="fill: #4f7c6a; stroke: #4f7c6a"/>
    </g>
   </g>
   <g id="line2d_29">
    <g clip-path="url(#p9749d2bb07)">
     <use xlink:href="#m96ef929f8a" x="578.537465" y="182.307326" style="fill: #4f7c6a; stroke: #4f7c6a"/>
    </g>
   </g>
   <g id="line2d_30">
    <g clip-path="url(#p9749d2bb07)">
     <use xlink:href="#m96ef929f8a" x="578.537465" y="168.81793" style="fill: #4f7c6a; stroke: #4f7c6a"/>
    </g>
   </g>
   <g id="line2d_31">
    <g clip-path="url(#p9749d2bb07)">
     <use xlink:href="#m96ef929f8a" x="578.537465" y="155.328535" style="fill: #4f7c6a; stroke: #4f7c6a"/>
    </g>
   </g>
   <g id="text_11">
    <text style="font-weight: 700; font-size: 8px; font-family: 'Arial', 'Helvetica', 'Liberation Sans', 'DejaVu Sans', sans-serif; text-anchor: middle; fill: #4f7c6a" x="540.453965" y="200.701957" transform="rotate(-0 540.453965 200.701957)">Stage 3: Crosslinked network</text>
   </g>
   <g id="text_12">
    <text style="font-style: italic; font-size: 7px; font-family: 'Arial', 'Helvetica', 'Liberation Sans', 'DejaVu Sans', sans-serif; text-anchor: middle; fill: #555555" x="540.453965" y="215.417661" transform="rotate(-0 540.453965 215.417661)">3D network, Tg rises</text>
   </g>
   <g id="patch_9">
    <path d="M 177.195965 168.81793 
Q 232.856465 168.81793 286.280897 168.81793 
" style="fill: none; stroke: #8c8c8c; stroke-width: 2; stroke-linecap: round"/>
    <path d="M 282.280897 166.81793 
L 286.280897 168.81793 
L 282.280897 170.81793 
z
" style="fill: #8c8c8c; stroke: #8c8c8c; stroke-width: 2; stroke-linecap: round"/>
   </g>
   <g id="text_13">
    <text style="font-style: italic; font-size: 7px; font-family: 'Arial', 'Helvetica', 'Liberation Sans', 'DejaVu Sans', sans-serif; text-anchor: middle; fill: #8c8c8c" x="232.856465" y="149.196991" transform="rotate(-0 232.856465 149.196991)">ring opening</text>
   </g>
   <g id="patch_10">
    <path d="M 382.260965 168.81793 
Q 437.921465 168.81793 491.345897 168.81793 
" style="fill: none; stroke: #8c8c8c; stroke-width: 2; stroke-linecap: round"/>
    <path d="M 487.345897 166.81793 
L 491.345897 168.81793 
L 487.345897 170.81793 
z
" style="fill: #8c8c8c; stroke: #8c8c8c; stroke-width: 2; stroke-linecap: round"/>
   </g>
   <g id="text_14">
    <text style="font-style: italic; font-size: 7px; font-family: 'Arial', 'Helvetica', 'Liberation Sans', 'DejaVu Sans', sans-serif; text-anchor: middle; fill: #8c8c8c" x="437.921465" y="149.196991" transform="rotate(-0 437.921465 149.196991)">crosslinking</text>
   </g>
   <g id="text_15">
    <text style="font-weight: 700; font-size: 6px; font-family: 'Arial', 'Helvetica', 'Liberation Sans', 'DejaVu Sans', sans-serif; text-anchor: middle; fill: #4f7c6a" x="124.464965" y="294.227843" transform="rotate(-0 124.464965 294.227843)">Emulsion contact</text>
   </g>
   <g id="text_16">
    <text style="font-weight: 700; font-size: 6px; font-family: 'Arial', 'Helvetica', 'Liberation Sans', 'DejaVu Sans', sans-serif; text-anchor: middle; fill: #4f7c6a" x="232.856465" y="294.227784" transform="rotate(-0 232.856465 294.227784)">Demulsification (breaking)</text>
   </g>
   <g id="text_17">
    <text style="font-weight: 700; font-size: 6px; font-family: 'Arial', 'Helvetica', 'Liberation Sans', 'DejaVu Sans', sans-serif; text-anchor: middle; fill: #4b6f8a" x="341.247965" y="294.227843" transform="rotate(-0 341.247965 294.227843)">Water escape</text>
   </g>
   <g id="text_18">
    <text style="font-weight: 700; font-size: 6px; font-family: 'Arial', 'Helvetica', 'Liberation Sans', 'DejaVu Sans', sans-serif; text-anchor: middle; fill: #4f7c6a" x="449.639465" y="294.227784" transform="rotate(-0 449.639465 294.227784)">Epoxy curing</text>
   </g>
   <g id="text_19">
    <text style="font-weight: 700; font-size: 6px; font-family: 'Arial', 'Helvetica', 'Liberation Sans', 'DejaVu Sans', sans-serif; text-anchor: middle; fill: #4b6f8a" x="558.030965" y="294.227843" transform="rotate(-0 558.030965 294.227843)">Film formation</text>
   </g>
   <g id="text_20">
    <text style="font-weight: 700; font-size: 10px; font-family: 'Arial', 'Helvetica', 'Liberation Sans', 'DejaVu Sans', sans-serif; text-anchor: start" x="42.438965" y="59.808" transform="rotate(-0 42.438965 59.808)">(a) Epoxy ring-opening crosslink mechanism</text>
   </g>
   <g id="legend_1">
    <g id="patch_11">
     <path d="M 574.923027 113.762414 
L 624.138965 113.762414 
Q 625.338965 113.762414 625.338965 112.562414 
L 625.338965 70.008 
Q 625.338965 68.808 624.138965 68.808 
L 574.923027 68.808 
Q 573.723027 68.808 573.723027 70.008 
L 573.723027 112.562414 
Q 573.723027 113.762414 574.923027 113.762414 
z
" style="fill: #ffffff; opacity: 0.9; stroke: #cccccc; stroke-linejoin: miter"/>
    </g>
    <g id="text_21">
     <text style="font-size: 6px; font-family: 'Arial', 'Helvetica', 'Liberation Sans', 'DejaVu Sans', sans-serif; text-anchor: start" x="582.522402" y="75.576164" transform="rotate(-0 582.522402 75.576164)">evidence tier</text>
    </g>
    <g id="patch_12">
     <path d="M 576.123027 84.207023 
L 588.123027 84.207023 
L 588.123027 80.007023 
L 576.123027 80.007023 
z
" style="fill: #4f7c6a; opacity: 0.85"/>
    </g>
    <g id="text_22">
     <text style="font-size: 6px; font-family: 'Arial', 'Helvetica', 'Liberation Sans', 'DejaVu Sans', sans-serif; text-anchor: start" x="592.923027" y="84.207023" transform="rotate(-0 592.923027 84.207023)">measured</text>
    </g>
    <g id="patch_13">
     <path d="M 576.123027 92.837883 
L 588.123027 92.837883 
L 588.123027 88.637883 
L 576.123027 88.637883 
z
" style="fill: #4b6f8a; opacity: 0.85"/>
    </g>
    <g id="text_23">
     <text style="font-size: 6px; font-family: 'Arial', 'Helvetica', 'Liberation Sans', 'DejaVu Sans', sans-serif; text-anchor: start" x="592.923027" y="92.837883" transform="rotate(-0 592.923027 92.837883)">inferred</text>
    </g>
    <g id="patch_14">
     <path d="M 576.123027 101.468742 
L 588.123027 101.468742 
L 588.123027 97.268742 
L 576.123027 97.268742 
z
" style="fill: #c47b45; opacity: 0.85"/>
    </g>
    <g id="text_24">
     <text style="font-size: 6px; font-family: 'Arial', 'Helvetica', 'Liberation Sans', 'DejaVu Sans', sans-serif; text-anchor: start" x="592.923027" y="101.468742" transform="rotate(-0 592.923027 101.468742)">speculative</text>
    </g>
    <g id="patch_15">
     <path d="M 576.123027 110.099602 
L 588.123027 110.099602 
L 588.123027 105.899602 
L 576.123027 105.899602 
z
" style="fill: #8c8c8c; opacity: 0.85"/>
    </g>
    <g id="text_25">
     <text style="font-size: 6px; font-family: 'Arial', 'Helvetica', 'Liberation Sans', 'DejaVu Sans', sans-serif; text-anchor: start" x="592.923027" y="110.099602" transform="rotate(-0 592.923027 110.099602)">missing</text>
    </g>
   </g>
  </g>
  <g id="axes_2">
   <g id="patch_16">
    <path d="M 42.438965 476.064 
L 299.412649 476.064 
L 299.412649 364.581391 
L 42.438965 364.581391 
z
" style="fill: #ffffff"/>
   </g>
   <g id="FillBetweenPolyCollection_1">
    <defs>
     <path id="m48486a6dbf" d="M 54.119587 -138.871712 
L 54.119587 -133.06302 
L 56.082717 -133.130928 
L 58.045846 -133.19869 
L 60.008976 -133.266259 
L 61.972106 -133.333573 
L 63.935236 -133.400552 
L 65.898365 -133.467094 
L 67.861495 -133.533067 
L 69.824625 -133.598304 
L 71.787755 -133.662595 
L 73.750884 -133.725675 
L 75.714014 -133.787211 
L 77.677144 -133.846791 
L 79.640274 -133.903905 
L 81.603403 -133.957924 
L 83.566533 -134.008081 
L 85.529663 -134.053446 
L 87.492793 -134.092889 
L 89.455922 -134.125061 
L 91.419052 -134.148345 
L 93.382182 -134.160828 
L 95.345312 -134.160253 
L 97.308441 -134.143978 
L 99.271571 -134.108932 
L 101.234701 -134.051563 
L 103.197831 -133.967798 
L 105.16096 -133.852999 
L 107.12409 -133.70192 
L 109.08722 -133.508672 
L 111.05035 -133.266704 
L 113.013479 -132.96878 
L 114.976609 -132.60698 
L 116.939739 -132.172717 
L 118.902869 -131.656767 
L 120.865998 -131.049327 
L 122.829128 -130.340096 
L 124.792258 -129.518382 
L 126.755388 -128.573241 
L 128.718517 -127.493643 
L 130.681647 -126.26867 
L 132.644777 -124.887744 
L 134.607907 -123.340888 
L 136.571036 -121.619002 
L 138.534166 -119.714172 
L 140.497296 -117.619986 
L 142.460426 -115.331867 
L 144.423555 -112.847399 
L 146.386685 -110.16665 
L 148.349815 -107.292476 
L 150.312945 -104.230793 
L 152.276074 -100.99081 
L 154.239204 -97.585214 
L 156.202334 -94.030283 
L 158.165464 -90.345942 
L 160.128593 -86.55572 
L 162.091723 -82.68664 
L 164.054853 -78.769 
L 166.017983 -74.836075 
L 167.981112 -70.923718 
L 169.944242 -67.069878 
L 171.907372 -63.314037 
L 173.870502 -59.696576 
L 175.833631 -56.258086 
L 177.796761 -53.038637 
L 179.759891 -50.077026 
L 181.723021 -47.410019 
L 183.68615 -45.071612 
L 185.64928 -43.092329 
L 187.61241 -41.498579 
L 189.57554 -40.31209 
L 191.538669 -39.549435 
L 193.501799 -39.221669 
L 195.464929 -39.334082 
L 197.428059 -39.886085 
L 199.391188 -40.871221 
L 201.354318 -42.277308 
L 203.317448 -44.086709 
L 205.280578 -46.276718 
L 207.243707 -48.820057 
L 209.206837 -51.685452 
L 211.169967 -54.838297 
L 213.133097 -58.241358 
L 215.096226 -61.855524 
L 217.059356 -65.640561 
L 219.022486 -69.555862 
L 220.985616 -73.561173 
L 222.948745 -77.617269 
L 224.911875 -81.686578 
L 226.875005 -85.733726 
L 228.838135 -89.726006 
L 230.801264 -93.633753 
L 232.764394 -97.43063 
L 234.727524 -101.093819 
L 236.690654 -104.604128 
L 238.653783 -107.946001 
L 240.616913 -111.10746 
L 242.580043 -114.079969 
L 244.543173 -116.858246 
L 246.506302 -119.440015 
L 248.469432 -121.825729 
L 250.432562 -124.018262 
L 252.395692 -126.022587 
L 254.358821 -127.84544 
L 256.321951 -129.494999 
L 258.285081 -130.980561 
L 260.248211 -132.312248 
L 262.21134 -133.500723 
L 264.17447 -134.556945 
L 266.1376 -135.491941 
L 268.10073 -136.316619 
L 270.063859 -137.0416 
L 272.026989 -137.677095 
L 273.990119 -138.232796 
L 275.953249 -138.717803 
L 275.953249 -138.871712 
L 275.953249 -138.871712 
L 273.990119 -138.871712 
L 272.026989 -138.871712 
L 270.063859 -138.871712 
L 268.10073 -138.871712 
L 266.1376 -138.871712 
L 264.17447 -138.871712 
L 262.21134 -138.871712 
L 260.248211 -138.871712 
L 258.285081 -138.871712 
L 256.321951 -138.871712 
L 254.358821 -138.871712 
L 252.395692 -138.871712 
L 250.432562 -138.871712 
L 248.469432 -138.871712 
L 246.506302 -138.871712 
L 244.543173 -138.871712 
L 242.580043 -138.871712 
L 240.616913 -138.871712 
L 238.653783 -138.871712 
L 236.690654 -138.871712 
L 234.727524 -138.871712 
L 232.764394 -138.871712 
L 230.801264 -138.871712 
L 228.838135 -138.871712 
L 226.875005 -138.871712 
L 224.911875 -138.871712 
L 222.948745 -138.871712 
L 220.985616 -138.871712 
L 219.022486 -138.871712 
L 217.059356 -138.871712 
L 215.096226 -138.871712 
L 213.133097 -138.871712 
L 211.169967 -138.871712 
L 209.206837 -138.871712 
L 207.243707 -138.871712 
L 205.280578 -138.871712 
L 203.317448 -138.871712 
L 201.354318 -138.871712 
L 199.391188 -138.871712 
L 197.428059 -138.871712 
L 195.464929 -138.871712 
L 193.501799 -138.871712 
L 191.538669 -138.871712 
L 189.57554 -138.871712 
L 187.61241 -138.871712 
L 185.64928 -138.871712 
L 183.68615 -138.871712 
L 181.723021 -138.871712 
L 179.759891 -138.871712 
L 177.796761 -138.871712 
L 175.833631 -138.871712 
L 173.870502 -138.871712 
L 171.907372 -138.871712 
L 169.944242 -138.871712 
L 167.981112 -138.871712 
L 166.017983 -138.871712 
L 164.054853 -138.871712 
L 162.091723 -138.871712 
L 160.128593 -138.871712 
L 158.165464 -138.871712 
L 156.202334 -138.871712 
L 154.239204 -138.871712 
L 152.276074 -138.871712 
L 150.312945 -138.871712 
L 148.349815 -138.871712 
L 146.386685 -138.871712 
L 144.423555 -138.871712 
L 142.460426 -138.871712 
L 140.497296 -138.871712 
L 138.534166 -138.871712 
L 136.571036 -138.871712 
L 134.607907 -138.871712 
L 132.644777 -138.871712 
L 130.681647 -138.871712 
L 128.718517 -138.871712 
L 126.755388 -138.871712 
L 124.792258 -138.871712 
L 122.829128 -138.871712 
L 120.865998 -138.871712 
L 118.902869 -138.871712 
L 116.939739 -138.871712 
L 114.976609 -138.871712 
L 113.013479 -138.871712 
L 111.05035 -138.871712 
L 109.08722 -138.871712 
L 107.12409 -138.871712 
L 105.16096 -138.871712 
L 103.197831 -138.871712 
L 101.234701 -138.871712 
L 99.271571 -138.871712 
L 97.308441 -138.871712 
L 95.345312 -138.871712 
L 93.382182 -138.871712 
L 91.419052 -138.871712 
L 89.455922 -138.871712 
L 87.492793 -138.871712 
L 85.529663 -138.871712 
L 83.566533 -138.871712 
L 81.603403 -138.871712 
L 79.640274 -138.871712 
L 77.677144 -138.871712 
L 75.714014 -138.871712 
L 73.750884 -138.871712 
L 71.787755 -138.871712 
L 69.824625 -138.871712 
L 67.861495 -138.871712 
L 65.898365 -138.871712 
L 63.935236 -138.871712 
L 61.972106 -138.871712 
L 60.008976 -138.871712 
L 58.045846 -138.871712 
L 56.082717 -138.871712 
L 54.119587 -138.871712 
z
" style="stroke: #c47b45; stroke-opacity: 0.15"/>
    </defs>
    <g clip-path="url(#p44cc585653)">
     <use xlink:href="#m48486a6dbf" x="0" y="510.218277" style="fill: #c47b45; fill-opacity: 0.15; stroke: #c47b45; stroke-opacity: 0.15"/>
    </g>
   </g>
   <g id="matplotlib.axis_1">
    <g id="xtick_1">
     <g id="line2d_32">
      <path d="M 54.119587 476.064 
L 54.119587 364.581391 
" clip-path="url(#p44cc585653)" style="fill: none; stroke: #e8e2d6; stroke-opacity: 0.6; stroke-width: 0.6; stroke-linecap: square"/>
     </g>
     <g id="line2d_33">
      <defs>
       <path id="me171f7dcfe" d="M 0 0 
L 0 3.5 
" style="stroke: #000000; stroke-width: 1.2"/>
      </defs>
      <g>
       <use xlink:href="#me171f7dcfe" x="54.119587" y="476.064" style="stroke: #000000; stroke-width: 1.2"/>
      </g>
     </g>
     <g id="text_26">
      <text style="font-size: 8px; font-family: 'Arial', 'Helvetica', 'Liberation Sans', 'DejaVu Sans', sans-serif; text-anchor: middle" x="54.119587" y="488.888219" transform="rotate(-0 54.119587 488.888219)">25</text>
     </g>
    </g>
    <g id="xtick_2">
     <g id="line2d_34">
      <path d="M 87.492793 476.064 
L 87.492793 364.581391 
" clip-path="url(#p44cc585653)" style="fill: none; stroke: #e8e2d6; stroke-opacity: 0.6; stroke-width: 0.6; stroke-linecap: square"/>
     </g>
     <g id="line2d_35">
      <g>
       <use xlink:href="#me171f7dcfe" x="87.492793" y="476.064" style="stroke: #000000; stroke-width: 1.2"/>
      </g>
     </g>
     <g id="text_27">
      <text style="font-size: 8px; font-family: 'Arial', 'Helvetica', 'Liberation Sans', 'DejaVu Sans', sans-serif; text-anchor: middle" x="87.492793" y="488.888219" transform="rotate(-0 87.492793 488.888219)">50</text>
     </g>
    </g>
    <g id="xtick_3">
     <g id="line2d_36">
      <path d="M 120.865998 476.064 
L 120.865998 364.581391 
" clip-path="url(#p44cc585653)" style="fill: none; stroke: #e8e2d6; stroke-opacity: 0.6; stroke-width: 0.6; stroke-linecap: square"/>
     </g>
     <g id="line2d_37">
      <g>
       <use xlink:href="#me171f7dcfe" x="120.865998" y="476.064" style="stroke: #000000; stroke-width: 1.2"/>
      </g>
     </g>
     <g id="text_28">
      <text style="font-size: 8px; font-family: 'Arial', 'Helvetica', 'Liberation Sans', 'DejaVu Sans', sans-serif; text-anchor: middle" x="120.865998" y="488.888219" transform="rotate(-0 120.865998 488.888219)">75</text>
     </g>
    </g>
    <g id="xtick_4">
     <g id="line2d_38">
      <path d="M 154.239204 476.064 
L 154.239204 364.581391 
" clip-path="url(#p44cc585653)" style="fill: none; stroke: #e8e2d6; stroke-opacity: 0.6; stroke-width: 0.6; stroke-linecap: square"/>
     </g>
     <g id="line2d_39">
      <g>
       <use xlink:href="#me171f7dcfe" x="154.239204" y="476.064" style="stroke: #000000; stroke-width: 1.2"/>
      </g>
     </g>
     <g id="text_29">
      <text style="font-size: 8px; font-family: 'Arial', 'Helvetica', 'Liberation Sans', 'DejaVu Sans', sans-serif; text-anchor: middle" x="154.239204" y="488.888219" transform="rotate(-0 154.239204 488.888219)">100</text>
     </g>
    </g>
    <g id="xtick_5">
     <g id="line2d_40">
      <path d="M 187.61241 476.064 
L 187.61241 364.581391 
" clip-path="url(#p44cc585653)" style="fill: none; stroke: #e8e2d6; stroke-opacity: 0.6; stroke-width: 0.6; stroke-linecap: square"/>
     </g>
     <g id="line2d_41">
      <g>
       <use xlink:href="#me171f7dcfe" x="187.61241" y="476.064" style="stroke: #000000; stroke-width: 1.2"/>
      </g>
     </g>
     <g id="text_30">
      <text style="font-size: 8px; font-family: 'Arial', 'Helvetica', 'Liberation Sans', 'DejaVu Sans', sans-serif; text-anchor: middle" x="187.61241" y="488.888219" transform="rotate(-0 187.61241 488.888219)">125</text>
     </g>
    </g>
    <g id="xtick_6">
     <g id="line2d_42">
      <path d="M 220.985616 476.064 
L 220.985616 364.581391 
" clip-path="url(#p44cc585653)" style="fill: none; stroke: #e8e2d6; stroke-opacity: 0.6; stroke-width: 0.6; stroke-linecap: square"/>
     </g>
     <g id="line2d_43">
      <g>
       <use xlink:href="#me171f7dcfe" x="220.985616" y="476.064" style="stroke: #000000; stroke-width: 1.2"/>
      </g>
     </g>
     <g id="text_31">
      <text style="font-size: 8px; font-family: 'Arial', 'Helvetica', 'Liberation Sans', 'DejaVu Sans', sans-serif; text-anchor: middle" x="220.985616" y="488.888219" transform="rotate(-0 220.985616 488.888219)">150</text>
     </g>
    </g>
    <g id="xtick_7">
     <g id="line2d_44">
      <path d="M 254.358821 476.064 
L 254.358821 364.581391 
" clip-path="url(#p44cc585653)" style="fill: none; stroke: #e8e2d6; stroke-opacity: 0.6; stroke-width: 0.6; stroke-linecap: square"/>
     </g>
     <g id="line2d_45">
      <g>
       <use xlink:href="#me171f7dcfe" x="254.358821" y="476.064" style="stroke: #000000; stroke-width: 1.2"/>
      </g>
     </g>
     <g id="text_32">
      <text style="font-size: 8px; font-family: 'Arial', 'Helvetica', 'Liberation Sans', 'DejaVu Sans', sans-serif; text-anchor: middle" x="254.358821" y="488.888219" transform="rotate(-0 254.358821 488.888219)">175</text>
     </g>
    </g>
    <g id="xtick_8">
     <g id="line2d_46">
      <path d="M 287.732027 476.064 
L 287.732027 364.581391 
" clip-path="url(#p44cc585653)" style="fill: none; stroke: #e8e2d6; stroke-opacity: 0.6; stroke-width: 0.6; stroke-linecap: square"/>
     </g>
     <g id="line2d_47">
      <g>
       <use xlink:href="#me171f7dcfe" x="287.732027" y="476.064" style="stroke: #000000; stroke-width: 1.2"/>
      </g>
     </g>
     <g id="text_33">
      <text style="font-size: 8px; font-family: 'Arial', 'Helvetica', 'Liberation Sans', 'DejaVu Sans', sans-serif; text-anchor: middle" x="287.732027" y="488.888219" transform="rotate(-0 287.732027 488.888219)">200</text>
     </g>
    </g>
    <g id="text_34">
     <text style="font-size: 9px; font-family: 'Arial', 'Helvetica', 'Liberation Sans', 'DejaVu Sans', sans-serif; text-anchor: middle" x="170.925807" y="501.124059" transform="rotate(-0 170.925807 501.124059)">Temperature (°C)</text>
    </g>
   </g>
   <g id="matplotlib.axis_2">
    <g id="ytick_1">
     <g id="line2d_48">
      <path d="M 42.438965 464.267776 
L 299.412649 464.267776 
" clip-path="url(#p44cc585653)" style="fill: none; stroke: #e8e2d6; stroke-opacity: 0.6; stroke-width: 0.6; stroke-linecap: square"/>
     </g>
     <g id="line2d_49">
      <defs>
       <path id="mbfec3b0511" d="M 0 0 
L -3.5 0 
" style="stroke: #000000; stroke-width: 1.2"/>
      </defs>
      <g>
       <use xlink:href="#mbfec3b0511" x="42.438965" y="464.267776" style="stroke: #000000; stroke-width: 1.2"/>
      </g>
     </g>
     <g id="text_35">
      <text style="font-size: 8px; font-family: 'Arial', 'Helvetica', 'Liberation Sans', 'DejaVu Sans', sans-serif; text-anchor: end" x="35.438965" y="467.179886" transform="rotate(-0 35.438965 467.179886)">−0.8</text>
     </g>
    </g>
    <g id="ytick_2">
     <g id="line2d_50">
      <path d="M 42.438965 441.037473 
L 299.412649 441.037473 
" clip-path="url(#p44cc585653)" style="fill: none; stroke: #e8e2d6; stroke-opacity: 0.6; stroke-width: 0.6; stroke-linecap: square"/>
     </g>
     <g id="line2d_51">
      <g>
       <use xlink:href="#mbfec3b0511" x="42.438965" y="441.037473" style="stroke: #000000; stroke-width: 1.2"/>
      </g>
     </g>
     <g id="text_36">
      <text style="font-size: 8px; font-family: 'Arial', 'Helvetica', 'Liberation Sans', 'DejaVu Sans', sans-serif; text-anchor: end" x="35.438965" y="443.949583" transform="rotate(-0 35.438965 443.949583)">−0.6</text>
     </g>
    </g>
    <g id="ytick_3">
     <g id="line2d_52">
      <path d="M 42.438965 417.807171 
L 299.412649 417.807171 
" clip-path="url(#p44cc585653)" style="fill: none; stroke: #e8e2d6; stroke-opacity: 0.6; stroke-width: 0.6; stroke-linecap: square"/>
     </g>
     <g id="line2d_53">
      <g>
       <use xlink:href="#mbfec3b0511" x="42.438965" y="417.807171" style="stroke: #000000; stroke-width: 1.2"/>
      </g>
     </g>
     <g id="text_37">
      <text style="font-size: 8px; font-family: 'Arial', 'Helvetica', 'Liberation Sans', 'DejaVu Sans', sans-serif; text-anchor: end" x="35.438965" y="420.71928" transform="rotate(-0 35.438965 420.71928)">−0.4</text>
     </g>
    </g>
    <g id="ytick_4">
     <g id="line2d_54">
      <path d="M 42.438965 394.576868 
L 299.412649 394.576868 
" clip-path="url(#p44cc585653)" style="fill: none; stroke: #e8e2d6; stroke-opacity: 0.6; stroke-width: 0.6; stroke-linecap: square"/>
     </g>
     <g id="line2d_55">
      <g>
       <use xlink:href="#mbfec3b0511" x="42.438965" y="394.576868" style="stroke: #000000; stroke-width: 1.2"/>
      </g>
     </g>
     <g id="text_38">
      <text style="font-size: 8px; font-family: 'Arial', 'Helvetica', 'Liberation Sans', 'DejaVu Sans', sans-serif; text-anchor: end" x="35.438965" y="397.488977" transform="rotate(-0 35.438965 397.488977)">−0.2</text>
     </g>
    </g>
    <g id="ytick_5">
     <g id="line2d_56">
      <path d="M 42.438965 371.346565 
L 299.412649 371.346565 
" clip-path="url(#p44cc585653)" style="fill: none; stroke: #e8e2d6; stroke-opacity: 0.6; stroke-width: 0.6; stroke-linecap: square"/>
     </g>
     <g id="line2d_57">
      <g>
       <use xlink:href="#mbfec3b0511" x="42.438965" y="371.346565" style="stroke: #000000; stroke-width: 1.2"/>
      </g>
     </g>
     <g id="text_39">
      <text style="font-size: 8px; font-family: 'Arial', 'Helvetica', 'Liberation Sans', 'DejaVu Sans', sans-serif; text-anchor: end" x="35.438965" y="374.258674" transform="rotate(-0 35.438965 374.258674)">0.0</text>
     </g>
    </g>
    <g id="text_40">
     <text style="font-size: 9px; font-family: 'Arial', 'Helvetica', 'Liberation Sans', 'DejaVu Sans', sans-serif; text-anchor: middle" x="13.752246" y="420.322696" transform="rotate(-90 13.752246 420.322696)">Heat flow (mW/mg)</text>
    </g>
   </g>
   <g id="line2d_58">
    <path d="M 54.119587 377.155258 
L 56.082717 377.08735 
L 58.045846 377.019587 
L 60.008976 376.952018 
L 61.972106 376.884704 
L 63.935236 376.817725 
L 65.898365 376.751184 
L 67.861495 376.685211 
L 69.824625 376.619973 
L 71.787755 376.555682 
L 73.750884 376.492602 
L 75.714014 376.431066 
L 77.677144 376.371486 
L 79.640274 376.314373 
L 81.603403 376.260354 
L 83.566533 376.210196 
L 85.529663 376.164832 
L 87.492793 376.125388 
L 89.455922 376.093217 
L 91.419052 376.069933 
L 93.382182 376.05745 
L 95.345312 376.058025 
L 97.308441 376.074299 
L 99.271571 376.109346 
L 101.234701 376.166715 
L 103.197831 376.250479 
L 105.16096 376.365278 
L 107.12409 376.516358 
L 109.08722 376.709605 
L 111.05035 376.951573 
L 113.013479 377.249498 
L 114.976609 377.611297 
L 116.939739 378.04556 
L 118.902869 378.561511 
L 120.865998 379.16895 
L 122.829128 379.878182 
L 124.792258 380.699895 
L 126.755388 381.645036 
L 128.718517 382.724634 
L 130.681647 383.949608 
L 132.644777 385.330533 
L 134.607907 386.877389 
L 136.571036 388.599275 
L 138.534166 390.504105 
L 140.497296 392.598291 
L 142.460426 394.88641 
L 144.423555 397.370878 
L 146.386685 400.051627 
L 148.349815 402.925801 
L 150.312945 405.987484 
L 152.276074 409.227467 
L 154.239204 412.633064 
L 156.202334 416.187994 
L 158.165464 419.872336 
L 160.128593 423.662557 
L 162.091723 427.531638 
L 164.054853 431.449277 
L 166.017983 435.382202 
L 167.981112 439.294559 
L 169.944242 443.148399 
L 171.907372 446.90424 
L 173.870502 450.521702 
L 175.833631 453.960192 
L 177.796761 457.179641 
L 179.759891 460.141251 
L 181.723021 462.808258 
L 183.68615 465.146665 
L 185.64928 467.125948 
L 187.61241 468.719698 
L 189.57554 469.906187 
L 191.538669 470.668842 
L 193.501799 470.996609 
L 195.464929 470.884195 
L 197.428059 470.332192 
L 199.391188 469.347056 
L 201.354318 467.940969 
L 203.317448 466.131569 
L 205.280578 463.941559 
L 207.243707 461.39822 
L 209.206837 458.532825 
L 211.169967 455.379981 
L 213.133097 451.97692 
L 215.096226 448.362753 
L 217.059356 444.577716 
L 219.022486 440.662415 
L 220.985616 436.657105 
L 222.948745 432.601009 
L 224.911875 428.5317 
L 226.875005 424.484551 
L 228.838135 420.492271 
L 230.801264 416.584524 
L 232.764394 412.787648 
L 234.727524 409.124458 
L 236.690654 405.614149 
L 238.653783 402.272276 
L 240.616913 399.110818 
L 242.580043 396.138308 
L 244.543173 393.360031 
L 246.506302 390.778263 
L 248.469432 388.392549 
L 250.432562 386.200015 
L 252.395692 384.19569 
L 254.358821 382.372837 
L 256.321951 380.723279 
L 258.285081 379.237716 
L 260.248211 377.90603 
L 262.21134 376.717554 
L 264.17447 375.661332 
L 266.1376 374.726336 
L 268.10073 373.901659 
L 270.063859 373.176678 
L 272.026989 372.541183 
L 273.990119 371.985482 
L 275.953249 371.500474 
L 277.916378 371.077704 
L 279.879508 370.709388 
L 281.842638 370.388428 
L 283.805768 370.108405 
L 285.768897 369.863564 
L 287.732027 369.648783 
" clip-path="url(#p44cc585653)" style="fill: none; stroke: #c47b45; stroke-width: 1.8; stroke-linecap: square"/>
   </g>
   <g id="line2d_59">
    <path d="M 194.287051 476.064 
L 194.287051 364.581391 
" clip-path="url(#p44cc585653)" style="fill: none; stroke-dasharray: 0.8,1.32; stroke-dashoffset: 0; stroke: #b85450; stroke-opacity: 0.7; stroke-width: 0.8"/>
   </g>
   <g id="patch_17">
    <path d="M 42.438965 476.064 
L 42.438965 364.581391 
" style="fill: none; stroke: #000000; stroke-width: 1.5; stroke-linejoin: miter; stroke-linecap: square"/>
   </g>
   <g id="patch_18">
    <path d="M 42.438965 476.064 
L 299.412649 476.064 
" style="fill: none; stroke: #000000; stroke-width: 1.5; stroke-linejoin: miter; stroke-linecap: square"/>
   </g>
   <g id="text_41">
    <text style="font-size: 7px; font-family: 'Arial', 'Helvetica', 'Liberation Sans', 'DejaVu Sans', sans-serif; fill: #b85450" transform="translate(196.956907 455.405953)">T_peak</text>
    <text style="font-size: 7px; font-family: 'Arial', 'Helvetica', 'Liberation Sans', 'DejaVu Sans', sans-serif; fill: #b85450" transform="translate(196.956907 463.024605)">130 °C</text>
   </g>
   <g id="text_42">
    <text style="font-weight: 700; font-size: 10px; font-family: 'Arial', 'Helvetica', 'Liberation Sans', 'DejaVu Sans', sans-serif; text-anchor: start" x="42.438965" y="358.581391" transform="rotate(-0 42.438965 358.581391)">(b) DSC curing exotherm</text>
   </g>
  </g>
  <g id="axes_3">
   <g id="patch_19">
    <path d="M 371.365281 476.064 
L 628.338965 476.064 
L 628.338965 364.581391 
L 371.365281 364.581391 
z
" style="fill: #ffffff"/>
   </g>
   <g id="FillBetweenPolyCollection_2">
    <defs>
     <path id="m5ea980a8dc" d="M 383.045903 -39.001347 
L 383.045903 -135.942746 
L 386.003022 -132.691679 
L 388.960142 -129.561755 
L 391.917261 -126.548461 
L 394.874381 -123.64745 
L 397.8315 -120.854538 
L 400.78862 -118.165698 
L 403.745739 -115.577052 
L 406.702859 -113.084865 
L 409.659978 -110.685544 
L 412.617098 -108.375628 
L 415.574217 -106.151785 
L 418.531337 -104.010809 
L 421.488456 -101.949612 
L 424.445576 -99.96522 
L 427.402695 -98.054772 
L 430.359815 -96.215513 
L 433.316934 -94.444789 
L 436.274054 -92.740047 
L 439.231173 -91.098828 
L 442.188293 -89.518766 
L 445.145412 -87.997581 
L 448.102532 -86.533079 
L 451.059651 -85.123149 
L 454.016771 -83.765756 
L 456.97389 -82.458944 
L 459.93101 -81.200827 
L 462.888129 -79.989591 
L 465.845249 -78.823488 
L 468.802368 -77.700838 
L 471.759488 -76.620021 
L 474.716607 -75.579478 
L 477.673727 -74.577708 
L 480.630846 -73.613267 
L 483.587966 -72.684763 
L 486.545085 -71.790858 
L 489.502205 -70.930263 
L 492.459324 -70.101735 
L 495.416443 -69.304081 
L 498.373563 -68.53615 
L 501.330682 -67.796833 
L 504.287802 -67.085066 
L 507.244921 -66.399821 
L 510.202041 -65.74011 
L 513.15916 -65.104981 
L 516.11628 -64.493519 
L 519.073399 -63.904842 
L 522.030519 -63.338101 
L 524.987638 -62.792478 
L 527.944758 -62.267186 
L 530.901877 -61.761468 
L 533.858997 -61.274594 
L 536.816116 -60.805863 
L 539.773236 -60.354598 
L 542.730355 -59.920148 
L 545.687475 -59.501887 
L 548.644594 -59.099212 
L 551.601714 -58.711541 
L 554.558833 -58.338316 
L 557.515953 -57.978998 
L 560.473072 -57.63307 
L 563.430192 -57.300031 
L 566.387311 -56.979403 
L 569.344431 -56.670722 
L 572.30155 -56.373543 
L 575.25867 -56.087438 
L 578.215789 -55.811994 
L 581.172909 -55.546814 
L 584.130028 -55.291515 
L 587.087148 -55.04573 
L 590.044267 -54.809102 
L 593.001387 -54.581293 
L 595.958506 -54.361972 
L 598.915626 -54.150823 
L 601.872745 -53.947543 
L 604.829865 -53.751837 
L 607.786984 -53.563424 
L 610.744104 -53.382032 
L 613.701223 -53.207398 
L 616.658343 -53.039272 
L 616.658343 -39.001347 
L 616.658343 -39.001347 
L 613.701223 -39.001347 
L 610.744104 -39.001347 
L 607.786984 -39.001347 
L 604.829865 -39.001347 
L 601.872745 -39.001347 
L 598.915626 -39.001347 
L 595.958506 -39.001347 
L 593.001387 -39.001347 
L 590.044267 -39.001347 
L 587.087148 -39.001347 
L 584.130028 -39.001347 
L 581.172909 -39.001347 
L 578.215789 -39.001347 
L 575.25867 -39.001347 
L 572.30155 -39.001347 
L 569.344431 -39.001347 
L 566.387311 -39.001347 
L 563.430192 -39.001347 
L 560.473072 -39.001347 
L 557.515953 -39.001347 
L 554.558833 -39.001347 
L 551.601714 -39.001347 
L 548.644594 -39.001347 
L 545.687475 -39.001347 
L 542.730355 -39.001347 
L 539.773236 -39.001347 
L 536.816116 -39.001347 
L 533.858997 -39.001347 
L 530.901877 -39.001347 
L 527.944758 -39.001347 
L 524.987638 -39.001347 
L 522.030519 -39.001347 
L 519.073399 -39.001347 
L 516.11628 -39.001347 
L 513.15916 -39.001347 
L 510.202041 -39.001347 
L 507.244921 -39.001347 
L 504.287802 -39.001347 
L 501.330682 -39.001347 
L 498.373563 -39.001347 
L 495.416443 -39.001347 
L 492.459324 -39.001347 
L 489.502205 -39.001347 
L 486.545085 -39.001347 
L 483.587966 -39.001347 
L 480.630846 -39.001347 
L 477.673727 -39.001347 
L 474.716607 -39.001347 
L 471.759488 -39.001347 
L 468.802368 -39.001347 
L 465.845249 -39.001347 
L 462.888129 -39.001347 
L 459.93101 -39.001347 
L 456.97389 -39.001347 
L 454.016771 -39.001347 
L 451.059651 -39.001347 
L 448.102532 -39.001347 
L 445.145412 -39.001347 
L 442.188293 -39.001347 
L 439.231173 -39.001347 
L 436.274054 -39.001347 
L 433.316934 -39.001347 
L 430.359815 -39.001347 
L 427.402695 -39.001347 
L 424.445576 -39.001347 
L 421.488456 -39.001347 
L 418.531337 -39.001347 
L 415.574217 -39.001347 
L 412.617098 -39.001347 
L 409.659978 -39.001347 
L 406.702859 -39.001347 
L 403.745739 -39.001347 
L 400.78862 -39.001347 
L 397.8315 -39.001347 
L 394.874381 -39.001347 
L 391.917261 -39.001347 
L 388.960142 -39.001347 
L 386.003022 -39.001347 
L 383.045903 -39.001347 
z
" style="stroke: #4f7c6a; stroke-opacity: 0.12"/>
    </defs>
    <g clip-path="url(#peb08c0e50d)">
     <use xlink:href="#m5ea980a8dc" x="0" y="510.218277" style="fill: #4f7c6a; fill-opacity: 0.12; stroke: #4f7c6a; stroke-opacity: 0.12"/>
    </g>
   </g>
   <g id="matplotlib.axis_3">
    <g id="xtick_9">
     <g id="line2d_60">
      <path d="M 383.045903 476.064 
L 383.045903 364.581391 
" clip-path="url(#peb08c0e50d)" style="fill: none; stroke: #e8e2d6; stroke-opacity: 0.6; stroke-width: 0.6; stroke-linecap: square"/>
     </g>
     <g id="line2d_61">
      <g>
       <use xlink:href="#me171f7dcfe" x="383.045903" y="476.064" style="stroke: #000000; stroke-width: 1.2"/>
      </g>
     </g>
     <g id="text_43">
      <text style="font-size: 8px; font-family: 'Arial', 'Helvetica', 'Liberation Sans', 'DejaVu Sans', sans-serif; text-anchor: middle" x="383.045903" y="488.888219" transform="rotate(-0 383.045903 488.888219)">0</text>
     </g>
    </g>
    <g id="xtick_10">
     <g id="line2d_62">
      <path d="M 421.981309 476.064 
L 421.981309 364.581391 
" clip-path="url(#peb08c0e50d)" style="fill: none; stroke: #e8e2d6; stroke-opacity: 0.6; stroke-width: 0.6; stroke-linecap: square"/>
     </g>
     <g id="line2d_63">
      <g>
       <use xlink:href="#me171f7dcfe" x="421.981309" y="476.064" style="stroke: #000000; stroke-width: 1.2"/>
      </g>
     </g>
     <g id="text_44">
      <text style="font-size: 8px; font-family: 'Arial', 'Helvetica', 'Liberation Sans', 'DejaVu Sans', sans-serif; text-anchor: middle" x="421.981309" y="488.888219" transform="rotate(-0 421.981309 488.888219)">20</text>
     </g>
    </g>
    <g id="xtick_11">
     <g id="line2d_64">
      <path d="M 460.916716 476.064 
L 460.916716 364.581391 
" clip-path="url(#peb08c0e50d)" style="fill: none; stroke: #e8e2d6; stroke-opacity: 0.6; stroke-width: 0.6; stroke-linecap: square"/>
     </g>
     <g id="line2d_65">
      <g>
       <use xlink:href="#me171f7dcfe" x="460.916716" y="476.064" style="stroke: #000000; stroke-width: 1.2"/>
      </g>
     </g>
     <g id="text_45">
      <text style="font-size: 8px; font-family: 'Arial', 'Helvetica', 'Liberation Sans', 'DejaVu Sans', sans-serif; text-anchor: middle" x="460.916716" y="488.888219" transform="rotate(-0 460.916716 488.888219)">40</text>
     </g>
    </g>
    <g id="xtick_12">
     <g id="line2d_66">
      <path d="M 499.852123 476.064 
L 499.852123 364.581391 
" clip-path="url(#peb08c0e50d)" style="fill: none; stroke: #e8e2d6; stroke-opacity: 0.6; stroke-width: 0.6; stroke-linecap: square"/>
     </g>
     <g id="line2d_67">
      <g>
       <use xlink:href="#me171f7dcfe" x="499.852123" y="476.064" style="stroke: #000000; stroke-width: 1.2"/>
      </g>
     </g>
     <g id="text_46">
      <text style="font-size: 8px; font-family: 'Arial', 'Helvetica', 'Liberation Sans', 'DejaVu Sans', sans-serif; text-anchor: middle" x="499.852123" y="488.888219" transform="rotate(-0 499.852123 488.888219)">60</text>
     </g>
    </g>
    <g id="xtick_13">
     <g id="line2d_68">
      <path d="M 538.787529 476.064 
L 538.787529 364.581391 
" clip-path="url(#peb08c0e50d)" style="fill: none; stroke: #e8e2d6; stroke-opacity: 0.6; stroke-width: 0.6; stroke-linecap: square"/>
     </g>
     <g id="line2d_69">
      <g>
       <use xlink:href="#me171f7dcfe" x="538.787529" y="476.064" style="stroke: #000000; stroke-width: 1.2"/>
      </g>
     </g>
     <g id="text_47">
      <text style="font-size: 8px; font-family: 'Arial', 'Helvetica', 'Liberation Sans', 'DejaVu Sans', sans-serif; text-anchor: middle" x="538.787529" y="488.888219" transform="rotate(-0 538.787529 488.888219)">80</text>
     </g>
    </g>
    <g id="xtick_14">
     <g id="line2d_70">
      <path d="M 577.722936 476.064 
L 577.722936 364.581391 
" clip-path="url(#peb08c0e50d)" style="fill: none; stroke: #e8e2d6; stroke-opacity: 0.6; stroke-width: 0.6; stroke-linecap: square"/>
     </g>
     <g id="line2d_71">
      <g>
       <use xlink:href="#me171f7dcfe" x="577.722936" y="476.064" style="stroke: #000000; stroke-width: 1.2"/>
      </g>
     </g>
     <g id="text_48">
      <text style="font-size: 8px; font-family: 'Arial', 'Helvetica', 'Liberation Sans', 'DejaVu Sans', sans-serif; text-anchor: middle" x="577.722936" y="488.888219" transform="rotate(-0 577.722936 488.888219)">100</text>
     </g>
    </g>
    <g id="xtick_15">
     <g id="line2d_72">
      <path d="M 616.658343 476.064 
L 616.658343 364.581391 
" clip-path="url(#peb08c0e50d)" style="fill: none; stroke: #e8e2d6; stroke-opacity: 0.6; stroke-width: 0.6; stroke-linecap: square"/>
     </g>
     <g id="line2d_73">
      <g>
       <use xlink:href="#me171f7dcfe" x="616.658343" y="476.064" style="stroke: #000000; stroke-width: 1.2"/>
      </g>
     </g>
     <g id="text_49">
      <text style="font-size: 8px; font-family: 'Arial', 'Helvetica', 'Liberation Sans', 'DejaVu Sans', sans-serif; text-anchor: middle" x="616.658343" y="488.888219" transform="rotate(-0 616.658343 488.888219)">120</text>
     </g>
    </g>
    <g id="text_50">
     <text style="font-size: 9px; font-family: 'Arial', 'Helvetica', 'Liberation Sans', 'DejaVu Sans', sans-serif; text-anchor: middle" x="499.852123" y="501.124059" transform="rotate(-0 499.852123 501.124059)">Curing time (min)</text>
    </g>
   </g>
   <g id="matplotlib.axis_4">
    <g id="ytick_6">
     <g id="line2d_74">
      <path d="M 371.365281 471.21693 
L 628.338965 471.21693 
" clip-path="url(#peb08c0e50d)" style="fill: none; stroke: #e8e2d6; stroke-opacity: 0.6; stroke-width: 0.6; stroke-linecap: square"/>
     </g>
     <g id="line2d_75">
      <g>
       <use xlink:href="#mbfec3b0511" x="371.365281" y="471.21693" style="stroke: #000000; stroke-width: 1.2"/>
      </g>
     </g>
     <g id="text_51">
      <text style="font-size: 8px; font-family: 'Arial', 'Helvetica', 'Liberation Sans', 'DejaVu Sans', sans-serif; text-anchor: end" x="364.365281" y="474.129039" transform="rotate(-0 364.365281 474.129039)">0.0</text>
     </g>
    </g>
    <g id="ytick_7">
     <g id="line2d_76">
      <path d="M 371.365281 451.82865 
L 628.338965 451.82865 
" clip-path="url(#peb08c0e50d)" style="fill: none; stroke: #e8e2d6; stroke-opacity: 0.6; stroke-width: 0.6; stroke-linecap: square"/>
     </g>
     <g id="line2d_77">
      <g>
       <use xlink:href="#mbfec3b0511" x="371.365281" y="451.82865" style="stroke: #000000; stroke-width: 1.2"/>
      </g>
     </g>
     <g id="text_52">
      <text style="font-size: 8px; font-family: 'Arial', 'Helvetica', 'Liberation Sans', 'DejaVu Sans', sans-serif; text-anchor: end" x="364.365281" y="454.74076" transform="rotate(-0 364.365281 454.74076)">0.2</text>
     </g>
    </g>
    <g id="ytick_8">
     <g id="line2d_78">
      <path d="M 371.365281 432.440371 
L 628.338965 432.440371 
" clip-path="url(#peb08c0e50d)" style="fill: none; stroke: #e8e2d6; stroke-opacity: 0.6; stroke-width: 0.6; stroke-linecap: square"/>
     </g>
     <g id="line2d_79">
      <g>
       <use xlink:href="#mbfec3b0511" x="371.365281" y="432.440371" style="stroke: #000000; stroke-width: 1.2"/>
      </g>
     </g>
     <g id="text_53">
      <text style="font-size: 8px; font-family: 'Arial', 'Helvetica', 'Liberation Sans', 'DejaVu Sans', sans-serif; text-anchor: end" x="364.365281" y="435.35248" transform="rotate(-0 364.365281 435.35248)">0.4</text>
     </g>
    </g>
    <g id="ytick_9">
     <g id="line2d_80">
      <path d="M 371.365281 413.052091 
L 628.338965 413.052091 
" clip-path="url(#peb08c0e50d)" style="fill: none; stroke: #e8e2d6; stroke-opacity: 0.6; stroke-width: 0.6; stroke-linecap: square"/>
     </g>
     <g id="line2d_81">
      <g>
       <use xlink:href="#mbfec3b0511" x="371.365281" y="413.052091" style="stroke: #000000; stroke-width: 1.2"/>
      </g>
     </g>
     <g id="text_54">
      <text style="font-size: 8px; font-family: 'Arial', 'Helvetica', 'Liberation Sans', 'DejaVu Sans', sans-serif; text-anchor: end" x="364.365281" y="415.9642" transform="rotate(-0 364.365281 415.9642)">0.6</text>
     </g>
    </g>
    <g id="ytick_10">
     <g id="line2d_82">
      <path d="M 371.365281 393.663811 
L 628.338965 393.663811 
" clip-path="url(#peb08c0e50d)" style="fill: none; stroke: #e8e2d6; stroke-opacity: 0.6; stroke-width: 0.6; stroke-linecap: square"/>
     </g>
     <g id="line2d_83">
      <g>
       <use xlink:href="#mbfec3b0511" x="371.365281" y="393.663811" style="stroke: #000000; stroke-width: 1.2"/>
      </g>
     </g>
     <g id="text_55">
      <text style="font-size: 8px; font-family: 'Arial', 'Helvetica', 'Liberation Sans', 'DejaVu Sans', sans-serif; text-anchor: end" x="364.365281" y="396.57592" transform="rotate(-0 364.365281 396.57592)">0.8</text>
     </g>
    </g>
    <g id="ytick_11">
     <g id="line2d_84">
      <path d="M 371.365281 374.275531 
L 628.338965 374.275531 
" clip-path="url(#peb08c0e50d)" style="fill: none; stroke: #e8e2d6; stroke-opacity: 0.6; stroke-width: 0.6; stroke-linecap: square"/>
     </g>
     <g id="line2d_85">
      <g>
       <use xlink:href="#mbfec3b0511" x="371.365281" y="374.275531" style="stroke: #000000; stroke-width: 1.2"/>
      </g>
     </g>
     <g id="text_56">
      <text style="font-size: 8px; font-family: 'Arial', 'Helvetica', 'Liberation Sans', 'DejaVu Sans', sans-serif; text-anchor: end" x="364.365281" y="377.187641" transform="rotate(-0 364.365281 377.187641)">1.0</text>
     </g>
    </g>
    <g id="text_57">
     <!-- 915 cm$^{-1}$ area (norm.) -->
     <g transform="translate(347.265281 465.907696) rotate(-90)">
      <text>
       <tspan x="0" y="-0.68925" style="font-size: 9px; font-family: 'Arial'">9</tspan>
       <tspan x="5.005371" y="-0.68925" style="font-size: 9px; font-family: 'Arial'">1</tspan>
       <tspan x="10.010742" y="-0.68925" style="font-size: 9px; font-family: 'Arial'">5</tspan>
       <tspan x="15.016113" y="-0.68925" style="font-size: 9px; font-family: 'Arial'"> </tspan>
       <tspan x="17.516602" y="-0.68925" style="font-size: 9px; font-family: 'Arial'">c</tspan>
       <tspan x="22.016602" y="-0.68925" style="font-size: 9px; font-family: 'Arial'">m</tspan>
       <tspan x="39.132861" y="-0.68925" style="font-size: 9px; font-family: 'Arial'"> </tspan>
       <tspan x="41.63335" y="-0.68925" style="font-size: 9px; font-family: 'Arial'">a</tspan>
       <tspan x="46.638721" y="-0.68925" style="font-size: 9px; font-family: 'Arial'">r</tspan>
       <tspan x="49.635791" y="-0.68925" style="font-size: 9px; font-family: 'Arial'">e</tspan>
       <tspan x="54.641162" y="-0.68925" style="font-size: 9px; font-family: 'Arial'">a</tspan>
       <tspan x="59.646533" y="-0.68925" style="font-size: 9px; font-family: 'Arial'"> </tspan>
       <tspan x="62.147021" y="-0.68925" style="font-size: 9px; font-family: 'Arial'">(</tspan>
       <tspan x="65.144092" y="-0.68925" style="font-size: 9px; font-family: 'Arial'">n</tspan>
       <tspan x="70.149463" y="-0.68925" style="font-size: 9px; font-family: 'Arial'">o</tspan>
       <tspan x="75.154834" y="-0.68925" style="font-size: 9px; font-family: 'Arial'">r</tspan>
       <tspan x="78.151904" y="-0.68925" style="font-size: 9px; font-family: 'Arial'">m</tspan>
       <tspan x="85.648975" y="-0.68925" style="font-size: 9px; font-family: 'Arial'">.</tspan>
       <tspan x="88.149463" y="-0.68925" style="font-size: 9px; font-family: 'Arial'">)</tspan>
       <tspan x="29.599805" y="-4.40625" style="font-size: 6.3px; font-family: 'DejaVu Sans'">−</tspan>
       <tspan x="34.878516" y="-4.40625" style="font-size: 6.3px; font-family: 'DejaVu Sans'">1</tspan>
      </text>
     </g>
    </g>
   </g>
   <g id="line2d_86">
    <path d="M 383.045903 374.275531 
L 386.003022 377.526598 
L 388.960142 380.656522 
L 391.917261 383.669817 
L 394.874381 386.570827 
L 397.8315 389.363739 
L 400.78862 392.052579 
L 403.745739 394.641226 
L 406.702859 397.133412 
L 409.659978 399.532734 
L 412.617098 401.84265 
L 415.574217 404.066492 
L 418.531337 406.207468 
L 421.488456 408.268666 
L 424.445576 410.253057 
L 427.402695 412.163505 
L 430.359815 414.002765 
L 433.316934 415.773489 
L 436.274054 417.478231 
L 439.231173 419.119449 
L 442.188293 420.699512 
L 445.145412 422.220697 
L 448.102532 423.685198 
L 451.059651 425.095128 
L 454.016771 426.452521 
L 456.97389 427.759333 
L 459.93101 429.017451 
L 462.888129 430.228687 
L 465.845249 431.394789 
L 468.802368 432.517439 
L 471.759488 433.598257 
L 474.716607 434.6388 
L 477.673727 435.64057 
L 480.630846 436.605011 
L 483.587966 437.533514 
L 486.545085 438.427419 
L 489.502205 439.288014 
L 492.459324 440.116542 
L 495.416443 440.914196 
L 498.373563 441.682128 
L 501.330682 442.421444 
L 504.287802 443.133212 
L 507.244921 443.818457 
L 510.202041 444.478168 
L 513.15916 445.113296 
L 516.11628 445.724758 
L 519.073399 446.313435 
L 522.030519 446.880177 
L 524.987638 447.4258 
L 527.944758 447.951091 
L 530.901877 448.456809 
L 533.858997 448.943683 
L 536.816116 449.412414 
L 539.773236 449.863679 
L 542.730355 450.298129 
L 545.687475 450.71639 
L 548.644594 451.119066 
L 551.601714 451.506736 
L 554.558833 451.879961 
L 557.515953 452.239279 
L 560.473072 452.585208 
L 563.430192 452.918246 
L 566.387311 453.238874 
L 569.344431 453.547555 
L 572.30155 453.844734 
L 575.25867 454.130839 
L 578.215789 454.406283 
L 581.172909 454.671463 
L 584.130028 454.926762 
L 587.087148 455.172548 
L 590.044267 455.409175 
L 593.001387 455.636985 
L 595.958506 455.856306 
L 598.915626 456.067454 
L 601.872745 456.270734 
L 604.829865 456.46644 
L 607.786984 456.654853 
L 610.744104 456.836246 
L 613.701223 457.010879 
L 616.658343 457.179005 
" clip-path="url(#peb08c0e50d)" style="fill: none; stroke: #4f7c6a; stroke-width: 1.8; stroke-linecap: square"/>
   </g>
   <g id="line2d_87">
    <path d="M 437.555472 476.064 
L 437.555472 364.581391 
" clip-path="url(#peb08c0e50d)" style="fill: none; stroke-dasharray: 0.8,1.32; stroke-dashoffset: 0; stroke: #b85450; stroke-opacity: 0.7; stroke-width: 0.8"/>
   </g>
   <g id="patch_20">
    <path d="M 371.365281 476.064 
L 371.365281 364.581391 
" style="fill: none; stroke: #000000; stroke-width: 1.5; stroke-linejoin: miter; stroke-linecap: square"/>
   </g>
   <g id="patch_21">
    <path d="M 371.365281 476.064 
L 628.338965 476.064 
" style="fill: none; stroke: #000000; stroke-width: 1.5; stroke-linejoin: miter; stroke-linecap: square"/>
   </g>
   <g id="text_58">
    <text style="font-size: 7px; font-family: 'Arial', 'Helvetica', 'Liberation Sans', 'DejaVu Sans', sans-serif; fill: #b85450" transform="translate(441.449013 400.586232)">t_gel</text>
    <text style="font-size: 7px; font-family: 'Arial', 'Helvetica', 'Liberation Sans', 'DejaVu Sans', sans-serif; fill: #b85450" transform="translate(441.449013 408.205021)">~28 min</text>
   </g>
   <g id="text_59">
    <text style="font-weight: 700; font-size: 10px; font-family: 'Arial', 'Helvetica', 'Liberation Sans', 'DejaVu Sans', sans-serif; text-anchor: start" x="371.365281" y="358.581391" transform="rotate(-0 371.365281 358.581391)">(c) FTIR epoxy ring decay</text>
   </g>
  </g>
  <g id="text_60">
   <text style="font-weight: 700; font-size: 12px; font-family: 'Arial', 'Helvetica', 'Liberation Sans', 'DejaVu Sans', sans-serif; text-anchor: middle" x="325.938965" y="15.936328" transform="rotate(-0 325.938965 15.936328)">WER-EA curing sequence: mechanism and kinetic evidence</text>
  </g>
 </g>
 <defs>
  <clipPath id="p9749d2bb07">
   <rect x="42.438965" y="65.808" width="585.9" height="245.261739"/>
  </clipPath>
  <clipPath id="p44cc585653">
   <rect x="42.438965" y="364.581391" width="256.973684" height="111.482609"/>
  </clipPath>
  <clipPath id="peb08c0e50d">
   <rect x="371.365281" y="364.581391" width="256.973684" height="111.482609"/>
  </clipPath>
 </defs>
</svg>
