<?xml version="1.0" encoding="utf-8" standalone="no"?>
<!DOCTYPE svg PUBLIC "-//W3C//DTD SVG 1.1//EN"
  "http://www.w3.org/Graphics/SVG/1.1/DTD/svg11.dtd">
<svg xmlns:xlink="http://www.w3.org/1999/xlink" width="597.041953pt" height="323.332246pt" viewBox="0 0 597.041953 323.332246" xmlns="http://www.w3.org/2000/svg" version="1.1">
 <metadata>
  <rdf:RDF xmlns:dc="http://purl.org/dc/elements/1.1/" xmlns:cc="http://creativecommons.org/ns#" xmlns:rdf="http://www.w3.org/1999/02/22-rdf-syntax-ns#">
   <cc:Work>
    <dc:type rdf:resource="http://purl.org/dc/dcmitype/StillImage"/>
    <dc:date>2026-06-19T17:47:53.025033</dc:date>
    <dc:format>image/svg+xml</dc:format>
    <dc:creator>
     <cc:Agent>
      <dc:title>Matplotlib v3.11.0, https://matplotlib.org/</dc:title>
     </cc:Agent>
    </dc:creator>
   </cc:Work>
  </rdf:RDF>
 </metadata>
 <defs>
  <style type="text/css">*{stroke-linejoin: round; stroke-linecap: butt}</style>
 </defs>
 <g id="figure_1">
  <g id="patch_1">
   <path d="M 0 323.332246 
L 597.041953 323.332246 
L 597.041953 0 
L 0 0 
z
" style="fill: #ffffff"/>
  </g>
  <g id="axes_1">
   <g id="patch_2">
    <path d="M 40.094961 285.185957 
L 582.334687 285.185957 
L 582.334687 21.208301 
L 40.094961 21.208301 
z
" style="fill: #ffffff"/>
   </g>
   <g id="matplotlib.axis_1">
    <g id="xtick_1">
     <g id="line2d_1">
      <defs>
       <path id="me1e8186a20" d="M 0 0 
L 0 3.5 
" style="stroke: #000000; stroke-width: 1.2"/>
      </defs>
      <g>
       <use xlink:href="#me1e8186a20" x="582.334688" y="285.185957" style="stroke: #000000; stroke-width: 1.2"/>
      </g>
     </g>
     <g id="text_1">
      <text style="font-size: 9px; font-family: 'Arial', 'Helvetica', 'Liberation Sans', 'DejaVu Sans', sans-serif; text-anchor: middle" x="582.334688" y="298.738203" transform="rotate(-0 582.334688 298.738203)">500</text>
     </g>
    </g>
    <g id="xtick_2">
     <g id="line2d_2">
      <g>
       <use xlink:href="#me1e8186a20" x="504.871869" y="285.185957" style="stroke: #000000; stroke-width: 1.2"/>
      </g>
     </g>
     <g id="text_2">
      <text style="font-size: 9px; font-family: 'Arial', 'Helvetica', 'Liberation Sans', 'DejaVu Sans', sans-serif; text-anchor: middle" x="504.871869" y="298.738203" transform="rotate(-0 504.871869 298.738203)">1000</text>
     </g>
    </g>
    <g id="xtick_3">
     <g id="line2d_3">
      <g>
       <use xlink:href="#me1e8186a20" x="427.409051" y="285.185957" style="stroke: #000000; stroke-width: 1.2"/>
      </g>
     </g>
     <g id="text_3">
      <text style="font-size: 9px; font-family: 'Arial', 'Helvetica', 'Liberation Sans', 'DejaVu Sans', sans-serif; text-anchor: middle" x="427.409051" y="298.738203" transform="rotate(-0 427.409051 298.738203)">1500</text>
     </g>
    </g>
    <g id="xtick_4">
     <g id="line2d_4">
      <g>
       <use xlink:href="#me1e8186a20" x="349.946233" y="285.185957" style="stroke: #000000; stroke-width: 1.2"/>
      </g>
     </g>
     <g id="text_4">
      <text style="font-size: 9px; font-family: 'Arial', 'Helvetica', 'Liberation Sans', 'DejaVu Sans', sans-serif; text-anchor: middle" x="349.946233" y="298.738203" transform="rotate(-0 349.946233 298.738203)">2000</text>
     </g>
    </g>
    <g id="xtick_5">
     <g id="line2d_5">
      <g>
       <use xlink:href="#me1e8186a20" x="272.483415" y="285.185957" style="stroke: #000000; stroke-width: 1.2"/>
      </g>
     </g>
     <g id="text_5">
      <text style="font-size: 9px; font-family: 'Arial', 'Helvetica', 'Liberation Sans', 'DejaVu Sans', sans-serif; text-anchor: middle" x="272.483415" y="298.738203" transform="rotate(-0 272.483415 298.738203)">2500</text>
     </g>
    </g>
    <g id="xtick_6">
     <g id="line2d_6">
      <g>
       <use xlink:href="#me1e8186a20" x="195.020597" y="285.185957" style="stroke: #000000; stroke-width: 1.2"/>
      </g>
     </g>
     <g id="text_6">
      <text style="font-size: 9px; font-family: 'Arial', 'Helvetica', 'Liberation Sans', 'DejaVu Sans', sans-serif; text-anchor: middle" x="195.020597" y="298.738203" transform="rotate(-0 195.020597 298.738203)">3000</text>
     </g>
    </g>
    <g id="xtick_7">
     <g id="line2d_7">
      <g>
       <use xlink:href="#me1e8186a20" x="117.557779" y="285.185957" style="stroke: #000000; stroke-width: 1.2"/>
      </g>
     </g>
     <g id="text_7">
      <text style="font-size: 9px; font-family: 'Arial', 'Helvetica', 'Liberation Sans', 'DejaVu Sans', sans-serif; text-anchor: middle" x="117.557779" y="298.738203" transform="rotate(-0 117.557779 298.738203)">3500</text>
     </g>
    </g>
    <g id="xtick_8">
     <g id="line2d_8">
      <g>
       <use xlink:href="#me1e8186a20" x="40.094961" y="285.185957" style="stroke: #000000; stroke-width: 1.2"/>
      </g>
     </g>
     <g id="text_8">
      <text style="font-size: 9px; font-family: 'Arial', 'Helvetica', 'Liberation Sans', 'DejaVu Sans', sans-serif; text-anchor: middle" x="40.094961" y="298.738203" transform="rotate(-0 40.094961 298.738203)">4000</text>
     </g>
    </g>
    <g id="text_9">
     <!-- Wavenumber (cm$^{-1}$) -->
     <g transform="translate(264.914824 313.932246)">
      <text>
       <tspan x="0" y="-0.762187" style="font-size: 10px; font-family: 'Arial'">W</tspan>
       <tspan x="9.438477" y="-0.762187" style="font-size: 10px; font-family: 'Arial'">a</tspan>
       <tspan x="15" y="-0.762187" style="font-size: 10px; font-family: 'Arial'">v</tspan>
       <tspan x="20" y="-0.762187" style="font-size: 10px; font-family: 'Arial'">e</tspan>
       <tspan x="25.561523" y="-0.762187" style="font-size: 10px; font-family: 'Arial'">n</tspan>
       <tspan x="31.123047" y="-0.762187" style="font-size: 10px; font-family: 'Arial'">u</tspan>
       <tspan x="36.68457" y="-0.762187" style="font-size: 10px; font-family: 'Arial'">m</tspan>
       <tspan x="45.014648" y="-0.762187" style="font-size: 10px; font-family: 'Arial'">b</tspan>
       <tspan x="50.576172" y="-0.762187" style="font-size: 10px; font-family: 'Arial'">e</tspan>
       <tspan x="56.137695" y="-0.762187" style="font-size: 10px; font-family: 'Arial'">r</tspan>
       <tspan x="59.467773" y="-0.762187" style="font-size: 10px; font-family: 'Arial'"> </tspan>
       <tspan x="62.246094" y="-0.762187" style="font-size: 10px; font-family: 'Arial'">(</tspan>
       <tspan x="65.576172" y="-0.762187" style="font-size: 10px; font-family: 'Arial'">c</tspan>
       <tspan x="70.576172" y="-0.762187" style="font-size: 10px; font-family: 'Arial'">m</tspan>
       <tspan x="89.594238" y="-0.762187" style="font-size: 10px; font-family: 'Arial'">)</tspan>
       <tspan x="79.001953" y="-4.892187" style="font-size: 7px; font-family: 'DejaVu Sans'">−</tspan>
       <tspan x="84.867188" y="-4.892187" style="font-size: 7px; font-family: 'DejaVu Sans'">1</tspan>
      </text>
     </g>
    </g>
   </g>
   <g id="matplotlib.axis_2">
    <g id="ytick_1">
     <g id="line2d_9">
      <defs>
       <path id="m0f4bac70d5" d="M 0 0 
L -3.5 0 
" style="stroke: #000000; stroke-width: 1.2"/>
      </defs>
      <g>
       <use xlink:href="#m0f4bac70d5" x="40.094961" y="285.185957" style="stroke: #000000; stroke-width: 1.2"/>
      </g>
     </g>
     <g id="text_10">
      <text style="font-size: 9px; font-family: 'Arial', 'Helvetica', 'Liberation Sans', 'DejaVu Sans', sans-serif; text-anchor: end" x="33.094961" y="288.46208" transform="rotate(-0 33.094961 288.46208)">0.0</text>
     </g>
    </g>
    <g id="ytick_2">
     <g id="line2d_10">
      <g>
       <use xlink:href="#m0f4bac70d5" x="40.094961" y="250.434081" style="stroke: #000000; stroke-width: 1.2"/>
      </g>
     </g>
     <g id="text_11">
      <text style="font-size: 9px; font-family: 'Arial', 'Helvetica', 'Liberation Sans', 'DejaVu Sans', sans-serif; text-anchor: end" x="33.094961" y="253.710204" transform="rotate(-0 33.094961 253.710204)">0.1</text>
     </g>
    </g>
    <g id="ytick_3">
     <g id="line2d_11">
      <g>
       <use xlink:href="#m0f4bac70d5" x="40.094961" y="215.682204" style="stroke: #000000; stroke-width: 1.2"/>
      </g>
     </g>
     <g id="text_12">
      <text style="font-size: 9px; font-family: 'Arial', 'Helvetica', 'Liberation Sans', 'DejaVu Sans', sans-serif; text-anchor: end" x="33.094961" y="218.958327" transform="rotate(-0 33.094961 218.958327)">0.2</text>
     </g>
    </g>
    <g id="ytick_4">
     <g id="line2d_12">
      <g>
       <use xlink:href="#m0f4bac70d5" x="40.094961" y="180.930328" style="stroke: #000000; stroke-width: 1.2"/>
      </g>
     </g>
     <g id="text_13">
      <text style="font-size: 9px; font-family: 'Arial', 'Helvetica', 'Liberation Sans', 'DejaVu Sans', sans-serif; text-anchor: end" x="33.094961" y="184.206451" transform="rotate(-0 33.094961 184.206451)">0.3</text>
     </g>
    </g>
    <g id="ytick_5">
     <g id="line2d_13">
      <g>
       <use xlink:href="#m0f4bac70d5" x="40.094961" y="146.178452" style="stroke: #000000; stroke-width: 1.2"/>
      </g>
     </g>
     <g id="text_14">
      <text style="font-size: 9px; font-family: 'Arial', 'Helvetica', 'Liberation Sans', 'DejaVu Sans', sans-serif; text-anchor: end" x="33.094961" y="149.454575" transform="rotate(-0 33.094961 149.454575)">0.4</text>
     </g>
    </g>
    <g id="ytick_6">
     <g id="line2d_14">
      <g>
       <use xlink:href="#m0f4bac70d5" x="40.094961" y="111.426575" style="stroke: #000000; stroke-width: 1.2"/>
      </g>
     </g>
     <g id="text_15">
      <text style="font-size: 9px; font-family: 'Arial', 'Helvetica', 'Liberation Sans', 'DejaVu Sans', sans-serif; text-anchor: end" x="33.094961" y="114.702698" transform="rotate(-0 33.094961 114.702698)">0.5</text>
     </g>
    </g>
    <g id="ytick_7">
     <g id="line2d_15">
      <g>
       <use xlink:href="#m0f4bac70d5" x="40.094961" y="76.674699" style="stroke: #000000; stroke-width: 1.2"/>
      </g>
     </g>
     <g id="text_16">
      <text style="font-size: 9px; font-family: 'Arial', 'Helvetica', 'Liberation Sans', 'DejaVu Sans', sans-serif; text-anchor: end" x="33.094961" y="79.950822" transform="rotate(-0 33.094961 79.950822)">0.6</text>
     </g>
    </g>
    <g id="ytick_8">
     <g id="line2d_16">
      <g>
       <use xlink:href="#m0f4bac70d5" x="40.094961" y="41.922823" style="stroke: #000000; stroke-width: 1.2"/>
      </g>
     </g>
     <g id="text_17">
      <text style="font-size: 9px; font-family: 'Arial', 'Helvetica', 'Liberation Sans', 'DejaVu Sans', sans-serif; text-anchor: end" x="33.094961" y="45.198946" transform="rotate(-0 33.094961 45.198946)">0.7</text>
     </g>
    </g>
    <g id="text_18">
     <text style="font-size: 10px; font-family: 'Arial', 'Helvetica', 'Liberation Sans', 'DejaVu Sans', sans-serif; text-anchor: middle" x="14.480273" y="153.197129" transform="rotate(-90 14.480273 153.197129)">Absorbance (a.u.)</text>
    </g>
   </g>
   <g id="line2d_17">
    <path d="M 40.094961 180.861415 
L 51.863102 180.64436 
L 59.105035 180.306425 
L 64.536485 179.862604 
L 69.062693 179.311059 
L 73.588901 178.543493 
L 77.209867 177.740783 
L 80.830834 176.745024 
L 84.4518 175.53749 
L 88.072766 174.106945 
L 91.693733 172.452704 
L 95.314699 170.587469 
L 99.840907 168.003915 
L 106.177599 164.09227 
L 113.419532 159.656136 
L 117.040498 157.661651 
L 120.661465 155.93939 
L 123.377189 154.877704 
L 126.092914 154.04762 
L 128.808639 153.473628 
L 131.524364 153.172846 
L 134.240089 153.154051 
L 136.955814 153.417019 
L 139.671538 153.952122 
L 142.387263 154.740067 
L 145.102988 155.751573 
L 148.723955 157.377238 
L 159.586854 162.637296 
L 161.397337 163.245847 
L 163.20782 163.656011 
L 165.018304 163.804889 
L 166.828787 163.621105 
L 168.63927 163.025307 
L 169.544512 162.546233 
L 170.449753 161.931506 
L 171.354995 161.169729 
L 172.260237 160.249452 
L 173.165478 159.159312 
L 174.07072 157.888194 
L 175.881203 154.76089 
L 177.691686 150.79083 
L 179.502169 145.918447 
L 181.312653 140.108985 
L 183.123136 133.360269 
L 184.933619 125.709917 
L 186.744102 117.241213 
L 189.459827 103.307763 
L 197.607002 59.936369 
L 199.417485 51.872917 
L 201.227968 45.055909 
L 202.13321 42.200681 
L 203.038451 39.754215 
L 203.943693 37.741911 
L 204.848935 36.185041 
L 205.754176 35.100392 
L 206.659418 34.499997 
L 207.564659 34.390931 
L 208.469901 34.775197 
L 209.375143 35.649698 
L 210.280384 37.006294 
L 211.185626 38.831944 
L 212.090868 41.108932 
L 212.996109 43.815167 
L 214.806592 50.407426 
L 216.617076 58.360033 
L 218.427559 67.383463 
L 221.143284 82.240636 
L 227.479975 117.781052 
L 230.1957 131.379171 
L 232.006183 139.488702 
L 233.816666 146.740803 
L 235.627149 153.106169 
L 237.437633 158.593407 
L 239.248116 163.241604 
L 241.058599 167.112449 
L 242.869082 170.28258 
L 244.679566 172.836656 
L 246.490049 174.861501 
L 248.300532 176.441475 
L 250.111015 177.65513 
L 251.921499 178.573046 
L 253.731982 179.256706 
L 256.447707 179.954414 
L 259.163431 180.378466 
L 262.784398 180.684301 
L 268.215848 180.864215 
L 279.078747 180.927023 
L 373.223875 180.90176 
L 377.750083 180.771199 
L 380.465808 180.527803 
L 382.276291 180.214262 
L 384.086774 179.699249 
L 385.897257 178.884865 
L 387.707741 177.645825 
L 388.612982 176.821212 
L 389.518224 175.833262 
L 390.423465 174.661516 
L 391.328707 173.285929 
L 392.233949 171.687718 
L 393.13919 169.850346 
L 394.949673 165.409773 
L 396.760157 159.919266 
L 398.57064 153.441179 
L 401.286365 142.344329 
L 404.907331 127.116787 
L 406.717814 120.551971 
L 407.623056 117.788688 
L 408.528298 115.460145 
L 409.433539 113.622684 
L 410.338781 112.32176 
L 411.244023 111.590069 
L 412.149264 111.446186 
L 413.054506 111.893779 
L 413.959747 112.921454 
L 414.864989 114.503238 
L 415.770231 116.599668 
L 416.675472 119.15943 
L 418.485955 125.41727 
L 420.296439 132.715688 
L 424.822647 151.738034 
L 426.63313 158.431708 
L 428.443613 164.172563 
L 430.254096 168.867508 
L 432.06458 172.538548 
L 432.969821 174.020035 
L 433.875063 175.288343 
L 434.780304 176.363017 
L 436.590788 178.01292 
L 438.401271 179.129359 
L 440.211754 179.855873 
L 442.022237 180.310827 
L 444.737962 180.675925 
L 448.358929 180.861421 
L 455.600862 180.926972 
L 546.125023 180.930328 
L 582.334688 180.930328 
L 582.334688 180.930328 
" clip-path="url(#pb691a9bcb4)" style="fill: none; stroke: #8c8c8c; stroke-width: 1.5; stroke-linecap: square"/>
   </g>
   <g id="line2d_18">
    <path d="M 40.094961 180.814714 
L 48.242135 180.585828 
L 53.673585 180.25219 
L 58.199793 179.774961 
L 61.82076 179.197556 
L 65.441726 178.380106 
L 68.157451 177.564958 
L 70.873176 176.53692 
L 73.588901 175.256826 
L 76.304625 173.683461 
L 79.02035 171.775106 
L 81.736075 169.491574 
L 84.4518 166.796719 
L 87.167525 163.661342 
L 89.88325 160.066377 
L 92.598975 156.00618 
L 95.314699 151.491681 
L 98.030424 146.553139 
L 101.651391 139.401286 
L 106.177599 129.821863 
L 113.419532 114.283657 
L 116.135256 108.853947 
L 118.850981 103.881447 
L 120.661465 100.89571 
L 122.471948 98.222965 
L 124.282431 95.90197 
L 126.092914 93.96712 
L 127.903397 92.447586 
L 129.713881 91.366576 
L 131.524364 90.740726 
L 132.429606 90.601773 
L 133.334847 90.579649 
L 134.240089 90.674411 
L 135.14533 90.885653 
L 136.955814 91.653636 
L 138.766297 92.871144 
L 140.57678 94.51859 
L 142.387263 96.569603 
L 144.197747 98.991481 
L 146.00823 101.74571 
L 148.723955 106.403097 
L 151.439679 111.541122 
L 156.871129 122.483777 
L 160.492096 129.563641 
L 163.20782 134.338431 
L 165.018304 137.110215 
L 166.828787 139.447092 
L 168.63927 141.2532 
L 169.544512 141.926328 
L 170.449753 142.429478 
L 171.354995 142.750146 
L 172.260237 142.875977 
L 173.165478 142.794896 
L 174.07072 142.495265 
L 174.975961 141.966054 
L 175.881203 141.197027 
L 176.786445 140.17895 
L 177.691686 138.903806 
L 178.596928 137.365024 
L 179.502169 135.557714 
L 181.312653 131.127763 
L 183.123136 125.617291 
L 184.933619 119.070833 
L 186.744102 111.579655 
L 188.554586 103.285176 
L 191.27031 89.770764 
L 196.70176 62.203074 
L 198.512243 54.00731 
L 200.322727 46.850241 
L 202.13321 41.027982 
L 203.038451 38.698301 
L 203.943693 36.792451 
L 204.848935 35.332466 
L 205.754176 34.335862 
L 206.659418 33.815355 
L 207.564659 33.778665 
L 208.469901 34.228404 
L 209.375143 35.162043 
L 210.280384 36.571974 
L 211.185626 38.445654 
L 212.090868 40.76583 
L 212.996109 43.51084 
L 214.806592 50.168976 
L 216.617076 58.174218 
L 218.427559 67.239454 
L 221.143284 82.143382 
L 227.479975 117.743953 
L 230.1957 131.355122 
L 232.006183 139.470812 
L 233.816666 146.727567 
L 235.627149 153.096429 
L 237.437633 158.58628 
L 239.248116 163.236417 
L 241.058599 167.108694 
L 242.869082 170.279877 
L 244.679566 172.834721 
L 246.490049 174.860122 
L 248.300532 176.440498 
L 250.111015 177.654442 
L 251.921499 178.572565 
L 253.731982 179.256371 
L 256.447707 179.95422 
L 259.163431 180.378356 
L 262.784398 180.684251 
L 268.215848 180.8642 
L 279.078747 180.927021 
L 361.455734 180.887641 
L 365.0767 180.691759 
L 366.887183 180.410644 
L 368.697667 179.858349 
L 369.602908 179.421867 
L 370.50815 178.836371 
L 371.413392 178.062922 
L 372.318633 177.056845 
L 373.223875 175.768441 
L 374.129116 174.144325 
L 375.034358 172.129506 
L 375.9396 169.670231 
L 376.844841 166.71758 
L 377.750083 163.231692 
L 378.655324 159.186398 
L 380.465808 149.409419 
L 382.276291 137.618943 
L 387.707741 98.931675 
L 388.612982 93.69407 
L 389.518224 89.236448 
L 390.423465 85.673815 
L 391.328707 83.081662 
L 392.233949 81.49049 
L 393.13919 80.883475 
L 394.044432 81.197575 
L 394.949673 82.328027 
L 395.854915 84.135879 
L 396.760157 86.457904 
L 401.286365 99.818757 
L 402.191606 101.866957 
L 403.096848 103.519964 
L 404.00209 104.769191 
L 404.907331 105.640193 
L 405.812573 106.187897 
L 406.717814 106.490294 
L 410.338781 107.204838 
L 411.244023 107.749247 
L 412.149264 108.602323 
L 413.054506 109.816656 
L 413.959747 111.424927 
L 414.864989 113.439644 
L 415.770231 115.854016 
L 417.580714 121.769665 
L 419.391197 128.816625 
L 425.727888 155.186792 
L 427.538372 161.427985 
L 429.348855 166.651016 
L 431.159338 170.825838 
L 432.969821 174.019967 
L 433.875063 175.288302 
L 434.780304 176.362985 
L 436.590788 178.012844 
L 438.401271 179.129031 
L 440.211754 179.854514 
L 442.022237 180.305656 
L 443.832721 180.567169 
L 446.548445 180.697616 
L 448.358929 180.590211 
L 450.169412 180.211228 
L 451.074654 179.854513 
L 451.979895 179.334358 
L 452.885137 178.600884 
L 453.790378 177.597018 
L 454.69562 176.2616 
L 455.600862 174.53436 
L 456.506103 172.362814 
L 457.411345 169.710714 
L 458.316586 166.567347 
L 460.12707 158.943755 
L 463.748036 141.720191 
L 464.653278 138.125024 
L 465.558519 135.251814 
L 466.463761 133.282682 
L 467.369003 132.347142 
L 468.274244 132.50801 
L 469.179486 133.754427 
L 470.084727 136.003075 
L 470.989969 139.107388 
L 472.800452 147.07952 
L 475.516177 160.149471 
L 477.32666 167.534542 
L 478.231902 170.536079 
L 479.137144 173.046574 
L 480.042385 175.085281 
L 480.947627 176.694308 
L 481.852868 177.929487 
L 482.75811 178.85234 
L 483.663352 179.523768 
L 484.568593 179.999674 
L 486.379076 180.549794 
L 488.18956 180.788272 
L 491.810526 180.915263 
L 502.673426 180.895853 
L 504.483909 180.782705 
L 506.294392 180.4034 
L 507.199634 180.000515 
L 508.104875 179.362602 
L 509.010117 178.404671 
L 509.915358 177.042484 
L 510.8206 175.211946 
L 511.725842 172.893815 
L 513.536325 167.083612 
L 515.346808 161.04439 
L 516.25205 158.672088 
L 517.157291 157.125469 
L 518.062533 156.604341 
L 518.967775 157.178045 
L 519.873016 158.770299 
L 520.778258 161.175861 
L 524.399224 173.017242 
L 525.304466 175.312206 
L 526.209707 177.119086 
L 527.114949 178.459902 
L 528.020191 179.400272 
L 528.925432 180.024861 
L 529.830674 180.41833 
L 531.641157 180.787521 
L 534.356882 180.915376 
L 547.030265 180.930328 
L 582.334688 180.930328 
L 582.334688 180.930328 
" clip-path="url(#pb691a9bcb4)" style="fill: none; stroke: #4f7c6a; stroke-width: 1.5; stroke-linecap: square"/>
   </g>
   <g id="line2d_19">
    <path d="M 133.050343 285.185957 
L 133.050343 21.208301 
" clip-path="url(#pb691a9bcb4)" style="fill: none; stroke-dasharray: 0.8,1.32; stroke-dashoffset: 0; stroke: #b85450; stroke-opacity: 0.7; stroke-width: 0.8"/>
   </g>
   <g id="line2d_20">
    <path d="M 207.414648 285.185957 
L 207.414648 21.208301 
" clip-path="url(#pb691a9bcb4)" style="fill: none; stroke-dasharray: 0.8,1.32; stroke-dashoffset: 0; stroke: #b85450; stroke-opacity: 0.7; stroke-width: 0.8"/>
   </g>
   <g id="line2d_21">
    <path d="M 391.776155 285.185957 
L 391.776155 21.208301 
" clip-path="url(#pb691a9bcb4)" style="fill: none; stroke-dasharray: 0.8,1.32; stroke-dashoffset: 0; stroke: #b85450; stroke-opacity: 0.7; stroke-width: 0.8"/>
   </g>
   <g id="line2d_22">
    <path d="M 467.689717 285.185957 
L 467.689717 21.208301 
" clip-path="url(#pb691a9bcb4)" style="fill: none; stroke-dasharray: 0.8,1.32; stroke-dashoffset: 0; stroke: #b85450; stroke-opacity: 0.7; stroke-width: 0.8"/>
   </g>
   <g id="line2d_23">
    <path d="M 518.040548 285.185957 
L 518.040548 21.208301 
" clip-path="url(#pb691a9bcb4)" style="fill: none; stroke-dasharray: 0.8,1.32; stroke-dashoffset: 0; stroke: #b85450; stroke-opacity: 0.7; stroke-width: 0.8"/>
   </g>
   <g id="patch_3">
    <path d="M 40.094961 285.185957 
L 40.094961 21.208301 
" style="fill: none; stroke: #000000; stroke-width: 1.5; stroke-linejoin: miter; stroke-linecap: square"/>
   </g>
   <g id="patch_4">
    <path d="M 40.094961 285.185957 
L 582.334688 285.185957 
" style="fill: none; stroke: #000000; stroke-width: 1.5; stroke-linejoin: miter; stroke-linecap: square"/>
   </g>
   <g id="text_19">
    <text style="font-size: 6.5px; font-family: 'Arial', 'Helvetica', 'Liberation Sans', 'DejaVu Sans', sans-serif; fill: #b85450" transform="translate(125.821124 32.608592)">3400</text>
    <text style="font-size: 6.5px; font-family: 'Arial', 'Helvetica', 'Liberation Sans', 'DejaVu Sans', sans-serif; fill: #b85450" transform="translate(115.71464 39.686737)">-OH (broad)</text>
   </g>
   <g id="text_20">
    <text style="font-size: 6.5px; font-family: 'Arial', 'Helvetica', 'Liberation Sans', 'DejaVu Sans', sans-serif; fill: #b85450" transform="translate(200.185429 32.612274)">2920</text>
    <text style="font-size: 6.5px; font-family: 'Arial', 'Helvetica', 'Liberation Sans', 'DejaVu Sans', sans-serif; fill: #b85450" transform="translate(190.982851 39.686737)">C-H stretch</text>
   </g>
   <g id="text_21">
    <text style="font-size: 6.5px; font-family: 'Arial', 'Helvetica', 'Liberation Sans', 'DejaVu Sans', sans-serif; fill: #b85450" transform="translate(384.546936 25.534129)">1730</text>
    <text style="font-size: 6.5px; font-family: 'Arial', 'Helvetica', 'Liberation Sans', 'DejaVu Sans', sans-serif; fill: #b85450" transform="translate(376.875413 32.612274)">C=O ester</text>
    <text style="font-size: 6.5px; font-family: 'Arial', 'Helvetica', 'Liberation Sans', 'DejaVu Sans', sans-serif; fill: #b85450" transform="translate(372.275139 39.686737)">(WER curing)</text>
   </g>
   <g id="text_22">
    <text style="font-size: 6.5px; font-family: 'Arial', 'Helvetica', 'Liberation Sans', 'DejaVu Sans', sans-serif; fill: #b85450" transform="translate(460.460498 25.534129)">1240</text>
    <text style="font-size: 6.5px; font-family: 'Arial', 'Helvetica', 'Liberation Sans', 'DejaVu Sans', sans-serif; fill: #b85450" transform="translate(449.993467 32.612274)">C-O-C ether</text>
    <text style="font-size: 6.5px; font-family: 'Arial', 'Helvetica', 'Liberation Sans', 'DejaVu Sans', sans-serif; fill: #b85450" transform="translate(445.66081 39.686737)">(WER network)</text>
   </g>
   <g id="text_23">
    <text style="font-size: 6.5px; font-family: 'Arial', 'Helvetica', 'Liberation Sans', 'DejaVu Sans', sans-serif; fill: #b85450" transform="translate(512.618634 25.537684)">915</text>
    <text style="font-size: 6.5px; font-family: 'Arial', 'Helvetica', 'Liberation Sans', 'DejaVu Sans', sans-serif; fill: #b85450" transform="translate(503.046877 32.612147)">epoxy ring</text>
    <text style="font-size: 6.5px; font-family: 'Arial', 'Helvetica', 'Liberation Sans', 'DejaVu Sans', sans-serif; fill: #b85450" transform="translate(496.368127 39.686737)">(residual, cure)</text>
   </g>
   <g id="text_24">
    <text style="font-size: 11px; font-family: 'Arial', 'Helvetica', 'Liberation Sans', 'DejaVu Sans', sans-serif; text-anchor: middle" x="311.214824" y="15.208301" transform="rotate(-0 311.214824 15.208301)">WER-EA FTIR peak assignment card</text>
   </g>
   <g id="legend_1">
    <g id="line2d_24">
     <path d="M 254.225449 261.994395 
L 262.225449 261.994395 
L 270.225449 261.994395 
" style="fill: none; stroke: #8c8c8c; stroke-width: 1.5; stroke-linecap: square"/>
    </g>
    <g id="text_25">
     <text style="font-size: 8px; font-family: 'Arial', 'Helvetica', 'Liberation Sans', 'DejaVu Sans', sans-serif; text-anchor: start" x="276.625449" y="264.794395" transform="rotate(-0 276.625449 264.794395)">Unmodified EA</text>
    </g>
    <g id="line2d_25">
     <path d="M 254.225449 273.502207 
L 262.225449 273.502207 
L 270.225449 273.502207 
" style="fill: none; stroke: #4f7c6a; stroke-width: 1.5; stroke-linecap: square"/>
    </g>
    <g id="text_26">
     <text style="font-size: 8px; font-family: 'Arial', 'Helvetica', 'Liberation Sans', 'DejaVu Sans', sans-serif; text-anchor: start" x="276.625449" y="276.302207" transform="rotate(-0 276.625449 276.302207)">WER-modified EA (cured)</text>
    </g>
   </g>
  </g>
 </g>
 <defs>
  <clipPath id="pb691a9bcb4">
   <rect x="40.094961" y="21.208301" width="542.239727" height="263.977656"/>
  </clipPath>
 </defs>
</svg>
