<?xml version="1.0" encoding="utf-8" standalone="no"?>
<!DOCTYPE svg PUBLIC "-//W3C//DTD SVG 1.1//EN"
  "http://www.w3.org/Graphics/SVG/1.1/DTD/svg11.dtd">
<svg xmlns:xlink="http://www.w3.org/1999/xlink" width="524.567266pt" height="394.994707pt" viewBox="0 0 524.567266 394.994707" xmlns="http://www.w3.org/2000/svg" version="1.1">
 <metadata>
  <rdf:RDF xmlns:dc="http://purl.org/dc/elements/1.1/" xmlns:cc="http://creativecommons.org/ns#" xmlns:rdf="http://www.w3.org/1999/02/22-rdf-syntax-ns#">
   <cc:Work>
    <dc:type rdf:resource="http://purl.org/dc/dcmitype/StillImage"/>
    <dc:date>2026-06-19T17:47:58.771699</dc:date>
    <dc:format>image/svg+xml</dc:format>
    <dc:creator>
     <cc:Agent>
      <dc:title>Matplotlib v3.11.0, https://matplotlib.org/</dc:title>
     </cc:Agent>
    </dc:creator>
   </cc:Work>
  </rdf:RDF>
 </metadata>
 <defs>
  <style type="text/css">*{stroke-linejoin: round; stroke-linecap: butt}</style>
 </defs>
 <g id="figure_1">
  <g id="patch_1">
   <path d="M 0 394.994707 
L 524.567266 394.994707 
L 524.567266 0 
L 0 0 
z
" style="fill: #ffffff"/>
  </g>
  <g id="axes_1">
   <g id="patch_2">
    <path d="M 40.094766 358.963457 
L 511.112266 358.963457 
L 511.112266 21.208301 
L 40.094766 21.208301 
z
" style="fill: #ffffff"/>
   </g>
   <g id="PathCollection_1">
    <defs>
     <path id="md29d25d37e" d="M 0 5.59017 
C 1.48253 5.59017 2.90454 5.001154 3.952847 3.952847 
C 5.001154 2.90454 5.59017 1.48253 5.59017 0 
C 5.59017 -1.48253 5.001154 -2.90454 3.952847 -3.952847 
C 2.90454 -5.001154 1.48253 -5.59017 0 -5.59017 
C -1.48253 -5.59017 -2.90454 -5.001154 -3.952847 -3.952847 
C -5.001154 -2.90454 -5.59017 -1.48253 -5.59017 0 
C -5.59017 1.48253 -5.001154 2.90454 -3.952847 3.952847 
C -2.90454 5.001154 -1.48253 5.59017 0 5.59017 
z
" style="stroke: #000000; stroke-opacity: 0.8; stroke-width: 0.5"/>
    </defs>
    <g clip-path="url(#p38e1a0c994)">
     <use xlink:href="#md29d25d37e" x="416.908766" y="105.64709" style="fill: #4f7c6a; fill-opacity: 0.8; stroke: #000000; stroke-opacity: 0.8; stroke-width: 0.5"/>
    </g>
   </g>
   <g id="PathCollection_2">
    <defs>
     <path id="me5c1f294d8" d="M 0 13.693064 
C 3.631443 13.693064 7.11464 12.250276 9.682458 9.682458 
C 12.250276 7.11464 13.693064 3.631443 13.693064 0 
C 13.693064 -3.631443 12.250276 -7.11464 9.682458 -9.682458 
C 7.11464 -12.250276 3.631443 -13.693064 0 -13.693064 
C -3.631443 -13.693064 -7.11464 -12.250276 -9.682458 -9.682458 
C -12.250276 -7.11464 -13.693064 -3.631443 -13.693064 0 
C -13.693064 3.631443 -12.250276 7.11464 -9.682458 9.682458 
C -7.11464 12.250276 -3.631443 13.693064 0 13.693064 
z
" style="stroke: #000000; stroke-opacity: 0.8; stroke-width: 0.5"/>
    </defs>
    <g clip-path="url(#p38e1a0c994)">
     <use xlink:href="#me5c1f294d8" x="299.154391" y="71.871574" style="fill: #4b6f8a; fill-opacity: 0.8; stroke: #000000; stroke-opacity: 0.8; stroke-width: 0.5"/>
    </g>
   </g>
   <g id="PathCollection_3">
    <g clip-path="url(#p38e1a0c994)">
     <use xlink:href="#md29d25d37e" x="369.807016" y="156.310363" style="fill: #4f7c6a; fill-opacity: 0.8; stroke: #000000; stroke-opacity: 0.8; stroke-width: 0.5"/>
    </g>
   </g>
   <g id="PathCollection_4">
    <defs>
     <path id="md06406dd30" d="M 0 20.916501 
C 5.547121 20.916501 10.867793 18.712606 14.790199 14.790199 
C 18.712606 10.867793 20.916501 5.547121 20.916501 0 
C 20.916501 -5.547121 18.712606 -10.867793 14.790199 -14.790199 
C 10.867793 -18.712606 5.547121 -20.916501 0 -20.916501 
C -5.547121 -20.916501 -10.867793 -18.712606 -14.790199 -14.790199 
C -18.712606 -10.867793 -20.916501 -5.547121 -20.916501 0 
C -20.916501 5.547121 -18.712606 10.867793 -14.790199 14.790199 
C -10.867793 18.712606 -5.547121 20.916501 0 20.916501 
z
" style="stroke: #000000; stroke-opacity: 0.8; stroke-width: 0.5"/>
    </defs>
    <g clip-path="url(#p38e1a0c994)">
     <use xlink:href="#md06406dd30" x="157.849141" y="38.096059" style="fill: #8c8c8c; fill-opacity: 0.8; stroke: #000000; stroke-opacity: 0.8; stroke-width: 0.5"/>
    </g>
   </g>
   <g id="PathCollection_5">
    <defs>
     <path id="m387bbde74e" d="M 0 18.874586 
C 5.005599 18.874586 9.806855 16.885841 13.346348 13.346348 
C 16.885841 9.806855 18.874586 5.005599 18.874586 0 
C 18.874586 -5.005599 16.885841 -9.806855 13.346348 -13.346348 
C 9.806855 -16.885841 5.005599 -18.874586 0 -18.874586 
C -5.005599 -18.874586 -9.806855 -16.885841 -13.346348 -13.346348 
C -16.885841 -9.806855 -18.874586 -5.005599 -18.874586 0 
C -18.874586 5.005599 -16.885841 9.806855 -13.346348 13.346348 
C -9.806855 16.885841 -5.005599 18.874586 0 18.874586 
z
" style="stroke: #000000; stroke-opacity: 0.8; stroke-width: 0.5"/>
    </defs>
    <g clip-path="url(#p38e1a0c994)">
     <use xlink:href="#m387bbde74e" x="204.950891" y="48.228713" style="fill: #c47b45; fill-opacity: 0.8; stroke: #000000; stroke-opacity: 0.8; stroke-width: 0.5"/>
    </g>
   </g>
   <g id="PathCollection_6">
    <g clip-path="url(#p38e1a0c994)">
     <use xlink:href="#me5c1f294d8" x="228.501766" y="122.534848" style="fill: #4b6f8a; fill-opacity: 0.8; stroke: #000000; stroke-opacity: 0.8; stroke-width: 0.5"/>
    </g>
   </g>
   <g id="matplotlib.axis_1">
    <g id="xtick_1">
     <g id="line2d_1">
      <defs>
       <path id="m857d0770d0" d="M 0 0 
L 0 3.5 
" style="stroke: #000000; stroke-width: 1.2"/>
      </defs>
      <g>
       <use xlink:href="#m857d0770d0" x="40.094766" y="358.963457" style="stroke: #000000; stroke-width: 1.2"/>
      </g>
     </g>
     <g id="text_1">
      <text style="font-size: 9px; font-family: 'Arial', 'Helvetica', 'Liberation Sans', 'DejaVu Sans', sans-serif; text-anchor: middle" x="40.094766" y="372.515703" transform="rotate(-0 40.094766 372.515703)">0.0</text>
     </g>
    </g>
    <g id="xtick_2">
     <g id="line2d_2">
      <g>
       <use xlink:href="#m857d0770d0" x="134.298266" y="358.963457" style="stroke: #000000; stroke-width: 1.2"/>
      </g>
     </g>
     <g id="text_2">
      <text style="font-size: 9px; font-family: 'Arial', 'Helvetica', 'Liberation Sans', 'DejaVu Sans', sans-serif; text-anchor: middle" x="134.298266" y="372.515703" transform="rotate(-0 134.298266 372.515703)">0.2</text>
     </g>
    </g>
    <g id="xtick_3">
     <g id="line2d_3">
      <g>
       <use xlink:href="#m857d0770d0" x="228.501766" y="358.963457" style="stroke: #000000; stroke-width: 1.2"/>
      </g>
     </g>
     <g id="text_3">
      <text style="font-size: 9px; font-family: 'Arial', 'Helvetica', 'Liberation Sans', 'DejaVu Sans', sans-serif; text-anchor: middle" x="228.501766" y="372.515703" transform="rotate(-0 228.501766 372.515703)">0.4</text>
     </g>
    </g>
    <g id="xtick_4">
     <g id="line2d_4">
      <g>
       <use xlink:href="#m857d0770d0" x="322.705266" y="358.963457" style="stroke: #000000; stroke-width: 1.2"/>
      </g>
     </g>
     <g id="text_4">
      <text style="font-size: 9px; font-family: 'Arial', 'Helvetica', 'Liberation Sans', 'DejaVu Sans', sans-serif; text-anchor: middle" x="322.705266" y="372.515703" transform="rotate(-0 322.705266 372.515703)">0.6</text>
     </g>
    </g>
    <g id="xtick_5">
     <g id="line2d_5">
      <g>
       <use xlink:href="#m857d0770d0" x="416.908766" y="358.963457" style="stroke: #000000; stroke-width: 1.2"/>
      </g>
     </g>
     <g id="text_5">
      <text style="font-size: 9px; font-family: 'Arial', 'Helvetica', 'Liberation Sans', 'DejaVu Sans', sans-serif; text-anchor: middle" x="416.908766" y="372.515703" transform="rotate(-0 416.908766 372.515703)">0.8</text>
     </g>
    </g>
    <g id="xtick_6">
     <g id="line2d_6">
      <g>
       <use xlink:href="#m857d0770d0" x="511.112266" y="358.963457" style="stroke: #000000; stroke-width: 1.2"/>
      </g>
     </g>
     <g id="text_6">
      <text style="font-size: 9px; font-family: 'Arial', 'Helvetica', 'Liberation Sans', 'DejaVu Sans', sans-serif; text-anchor: middle" x="511.112266" y="372.515703" transform="rotate(-0 511.112266 372.515703)">1.0</text>
     </g>
    </g>
    <g id="text_7">
     <text style="font-size: 10px; font-family: 'Arial', 'Helvetica', 'Liberation Sans', 'DejaVu Sans', sans-serif; text-anchor: middle" x="275.603516" y="385.69002" transform="rotate(-0 275.603516 385.69002)">Evidence maturity</text>
    </g>
   </g>
   <g id="matplotlib.axis_2">
    <g id="ytick_1">
     <g id="line2d_7">
      <defs>
       <path id="m2c1cf26fb0" d="M 0 0 
L -3.5 0 
" style="stroke: #000000; stroke-width: 1.2"/>
      </defs>
      <g>
       <use xlink:href="#m2c1cf26fb0" x="40.094766" y="358.963457" style="stroke: #000000; stroke-width: 1.2"/>
      </g>
     </g>
     <g id="text_8">
      <text style="font-size: 9px; font-family: 'Arial', 'Helvetica', 'Liberation Sans', 'DejaVu Sans', sans-serif; text-anchor: end" x="33.094766" y="362.23958" transform="rotate(-0 33.094766 362.23958)">0.0</text>
     </g>
    </g>
    <g id="ytick_2">
     <g id="line2d_8">
      <g>
       <use xlink:href="#m2c1cf26fb0" x="40.094766" y="291.412426" style="stroke: #000000; stroke-width: 1.2"/>
      </g>
     </g>
     <g id="text_9">
      <text style="font-size: 9px; font-family: 'Arial', 'Helvetica', 'Liberation Sans', 'DejaVu Sans', sans-serif; text-anchor: end" x="33.094766" y="294.688549" transform="rotate(-0 33.094766 294.688549)">0.2</text>
     </g>
    </g>
    <g id="ytick_3">
     <g id="line2d_9">
      <g>
       <use xlink:href="#m2c1cf26fb0" x="40.094766" y="223.861395" style="stroke: #000000; stroke-width: 1.2"/>
      </g>
     </g>
     <g id="text_10">
      <text style="font-size: 9px; font-family: 'Arial', 'Helvetica', 'Liberation Sans', 'DejaVu Sans', sans-serif; text-anchor: end" x="33.094766" y="227.137518" transform="rotate(-0 33.094766 227.137518)">0.4</text>
     </g>
    </g>
    <g id="ytick_4">
     <g id="line2d_10">
      <g>
       <use xlink:href="#m2c1cf26fb0" x="40.094766" y="156.310363" style="stroke: #000000; stroke-width: 1.2"/>
      </g>
     </g>
     <g id="text_11">
      <text style="font-size: 9px; font-family: 'Arial', 'Helvetica', 'Liberation Sans', 'DejaVu Sans', sans-serif; text-anchor: end" x="33.094766" y="159.586486" transform="rotate(-0 33.094766 159.586486)">0.6</text>
     </g>
    </g>
    <g id="ytick_5">
     <g id="line2d_11">
      <g>
       <use xlink:href="#m2c1cf26fb0" x="40.094766" y="88.759332" style="stroke: #000000; stroke-width: 1.2"/>
      </g>
     </g>
     <g id="text_12">
      <text style="font-size: 9px; font-family: 'Arial', 'Helvetica', 'Liberation Sans', 'DejaVu Sans', sans-serif; text-anchor: end" x="33.094766" y="92.035455" transform="rotate(-0 33.094766 92.035455)">0.8</text>
     </g>
    </g>
    <g id="ytick_6">
     <g id="line2d_12">
      <g>
       <use xlink:href="#m2c1cf26fb0" x="40.094766" y="21.208301" style="stroke: #000000; stroke-width: 1.2"/>
      </g>
     </g>
     <g id="text_13">
      <text style="font-size: 9px; font-family: 'Arial', 'Helvetica', 'Liberation Sans', 'DejaVu Sans', sans-serif; text-anchor: end" x="33.094766" y="24.484424" transform="rotate(-0 33.094766 24.484424)">1.0</text>
     </g>
    </g>
    <g id="text_14">
     <text style="font-size: 10px; font-family: 'Arial', 'Helvetica', 'Liberation Sans', 'DejaVu Sans', sans-serif; text-anchor: middle" x="14.480273" y="190.085879" transform="rotate(-90 14.480273 190.085879)">Research importance</text>
    </g>
   </g>
   <g id="line2d_13">
    <path d="M 40.094766 358.963457 
L 511.112266 21.208301 
" clip-path="url(#p38e1a0c994)" style="fill: none; stroke-dasharray: 3.7,1.6; stroke-dashoffset: 0; stroke: #000000; stroke-opacity: 0.6"/>
   </g>
   <g id="patch_3">
    <path d="M 40.094766 358.963457 
L 40.094766 21.208301 
" style="fill: none; stroke: #000000; stroke-width: 1.5; stroke-linejoin: miter; stroke-linecap: square"/>
   </g>
   <g id="patch_4">
    <path d="M 40.094766 358.963457 
L 511.112266 358.963457 
" style="fill: none; stroke: #000000; stroke-width: 1.5; stroke-linejoin: miter; stroke-linecap: square"/>
   </g>
   <g id="text_15">
    <text style="font-size: 7px; font-family: 'Arial', 'Helvetica', 'Liberation Sans', 'DejaVu Sans', sans-serif" transform="translate(422.908766 92.028301)">Lab bonding</text>
    <text style="font-size: 7px; font-family: 'Arial', 'Helvetica', 'Liberation Sans', 'DejaVu Sans', sans-serif" transform="translate(422.908766 99.64709)">[measured]</text>
   </g>
   <g id="text_16">
    <text style="font-size: 7px; font-family: 'Arial', 'Helvetica', 'Liberation Sans', 'DejaVu Sans', sans-serif" transform="translate(305.154391 58.252785)">Curing mechanism</text>
    <text style="font-size: 7px; font-family: 'Arial', 'Helvetica', 'Liberation Sans', 'DejaVu Sans', sans-serif" transform="translate(305.154391 65.871574)">[inferred]</text>
   </g>
   <g id="text_17">
    <text style="font-size: 7px; font-family: 'Arial', 'Helvetica', 'Liberation Sans', 'DejaVu Sans', sans-serif" transform="translate(375.807016 142.691574)">Emulsion stability</text>
    <text style="font-size: 7px; font-family: 'Arial', 'Helvetica', 'Liberation Sans', 'DejaVu Sans', sans-serif" transform="translate(375.807016 150.310363)">[measured]</text>
   </g>
   <g id="text_18">
    <text style="font-size: 7px; font-family: 'Arial', 'Helvetica', 'Liberation Sans', 'DejaVu Sans', sans-serif" transform="translate(163.849141 24.477406)">Field validation</text>
    <text style="font-size: 7px; font-family: 'Arial', 'Helvetica', 'Liberation Sans', 'DejaVu Sans', sans-serif" transform="translate(163.849141 32.096059)">[missing]</text>
   </g>
   <g id="text_19">
    <text style="font-size: 7px; font-family: 'Arial', 'Helvetica', 'Liberation Sans', 'DejaVu Sans', sans-serif" transform="translate(210.950891 34.609924)">Long-term durability</text>
    <text style="font-size: 7px; font-family: 'Arial', 'Helvetica', 'Liberation Sans', 'DejaVu Sans', sans-serif" transform="translate(210.950891 42.228713)">[speculative]</text>
   </g>
   <g id="text_20">
    <text style="font-size: 7px; font-family: 'Arial', 'Helvetica', 'Liberation Sans', 'DejaVu Sans', sans-serif" transform="translate(234.501766 108.916059)">Standards harmony</text>
    <text style="font-size: 7px; font-family: 'Arial', 'Helvetica', 'Liberation Sans', 'DejaVu Sans', sans-serif" transform="translate(234.501766 116.534848)">[inferred]</text>
   </g>
   <g id="text_21">
    <text style="font-size: 11px; font-family: 'Arial', 'Helvetica', 'Liberation Sans', 'DejaVu Sans', sans-serif; text-anchor: middle" x="275.603516" y="15.208301" transform="rotate(-0 275.603516 15.208301)">WER-EA research gap matrix</text>
   </g>
   <g id="legend_1">
    <g id="text_22">
     <text style="font-size: 10px; font-family: 'Arial', 'Helvetica', 'Liberation Sans', 'DejaVu Sans', sans-serif; text-anchor: start" x="448.116953" y="310.281484" transform="rotate(-0 448.116953 310.281484)">evidence tier</text>
    </g>
    <g id="patch_5">
     <path d="M 449.155313 320.982168 
L 463.155313 320.982168 
L 463.155313 316.082168 
L 449.155313 316.082168 
z
" style="fill: #4f7c6a"/>
    </g>
    <g id="text_23">
     <text style="font-size: 7px; font-family: 'Arial', 'Helvetica', 'Liberation Sans', 'DejaVu Sans', sans-serif; text-anchor: start" x="468.755313" y="320.982168" transform="rotate(-0 468.755313 320.982168)">measured</text>
    </g>
    <g id="patch_6">
     <path d="M 449.155313 331.051504 
L 463.155313 331.051504 
L 463.155313 326.151504 
L 449.155313 326.151504 
z
" style="fill: #4b6f8a"/>
    </g>
    <g id="text_24">
     <text style="font-size: 7px; font-family: 'Arial', 'Helvetica', 'Liberation Sans', 'DejaVu Sans', sans-serif; text-anchor: start" x="468.755313" y="331.051504" transform="rotate(-0 468.755313 331.051504)">inferred</text>
    </g>
    <g id="patch_7">
     <path d="M 449.155313 341.12084 
L 463.155313 341.12084 
L 463.155313 336.22084 
L 449.155313 336.22084 
z
" style="fill: #c47b45"/>
    </g>
    <g id="text_25">
     <text style="font-size: 7px; font-family: 'Arial', 'Helvetica', 'Liberation Sans', 'DejaVu Sans', sans-serif; text-anchor: start" x="468.755313" y="341.12084" transform="rotate(-0 468.755313 341.12084)">speculative</text>
    </g>
    <g id="patch_8">
     <path d="M 449.155313 351.190176 
L 463.155313 351.190176 
L 463.155313 346.290176 
L 449.155313 346.290176 
z
" style="fill: #8c8c8c"/>
    </g>
    <g id="text_26">
     <text style="font-size: 7px; font-family: 'Arial', 'Helvetica', 'Liberation Sans', 'DejaVu Sans', sans-serif; text-anchor: start" x="468.755313" y="351.190176" transform="rotate(-0 468.755313 351.190176)">missing</text>
    </g>
   </g>
  </g>
 </g>
 <defs>
  <clipPath id="p38e1a0c994">
   <rect x="40.094766" y="21.208301" width="471.0175" height="337.755156"/>
  </clipPath>
 </defs>
</svg>
