<?xml version="1.0" encoding="utf-8" standalone="no"?>
<!DOCTYPE svg PUBLIC "-//W3C//DTD SVG 1.1//EN"
  "http://www.w3.org/Graphics/SVG/1.1/DTD/svg11.dtd">
<svg xmlns:xlink="http://www.w3.org/1999/xlink" width="712.8pt" height="280.887656pt" viewBox="0 0 712.8 280.887656" xmlns="http://www.w3.org/2000/svg" version="1.1">
 <metadata>
  <rdf:RDF xmlns:dc="http://purl.org/dc/elements/1.1/" xmlns:cc="http://creativecommons.org/ns#" xmlns:rdf="http://www.w3.org/1999/02/22-rdf-syntax-ns#">
   <cc:Work>
    <dc:type rdf:resource="http://purl.org/dc/dcmitype/StillImage"/>
    <dc:date>2026-06-19T20:42:53.718338</dc:date>
    <dc:format>image/svg+xml</dc:format>
    <dc:creator>
     <cc:Agent>
      <dc:title>Matplotlib v3.10.9, https://matplotlib.org/</dc:title>
     </cc:Agent>
    </dc:creator>
   </cc:Work>
  </rdf:RDF>
 </metadata>
 <defs>
  <style type="text/css">*{stroke-linejoin: round; stroke-linecap: butt}</style>
 </defs>
 <g id="figure_1">
  <g id="patch_1">
   <path d="M 0 280.887656 
L 712.8 280.887656 
L 712.8 0 
L 0 0 
z
" style="fill: #ffffff"/>
  </g>
  <g id="axes_1">
   <g id="patch_2">
    <path d="M 21.168 214.775656 
L 132.912 214.775656 
Q 139.896 214.775656 139.896 210.567656 
L 139.896 84.327656 
Q 139.896 80.119656 132.912 80.119656 
L 21.168 80.119656 
Q 14.184 80.119656 14.184 84.327656 
L 14.184 210.567656 
Q 14.184 214.775656 21.168 214.775656 
z
" clip-path="url(#p40a7e97143)" style="fill: #4f7c6a; opacity: 0.47; stroke: #4f7c6a; stroke-width: 1.5; stroke-linejoin: miter"/>
   </g>
   <g id="patch_3">
    <path d="M 153.864 214.775656 
L 265.608 214.775656 
Q 272.592 214.775656 272.592 210.567656 
L 272.592 84.327656 
Q 272.592 80.119656 265.608 80.119656 
L 153.864 80.119656 
Q 146.88 80.119656 146.88 84.327656 
L 146.88 210.567656 
Q 146.88 214.775656 153.864 214.775656 
z
" clip-path="url(#p40a7e97143)" style="fill: #4b6f8a; opacity: 0.425; stroke: #4b6f8a; stroke-width: 1.5; stroke-linejoin: miter"/>
   </g>
   <g id="patch_4">
    <path d="M 286.56 214.775656 
L 398.304 214.775656 
Q 405.288 214.775656 405.288 210.567656 
L 405.288 84.327656 
Q 405.288 80.119656 398.304 80.119656 
L 286.56 80.119656 
Q 279.576 80.119656 279.576 84.327656 
L 279.576 210.567656 
Q 279.576 214.775656 286.56 214.775656 
z
" clip-path="url(#p40a7e97143)" style="fill: #4b6f8a; opacity: 0.38; stroke: #4b6f8a; stroke-width: 1.5; stroke-linejoin: miter"/>
   </g>
   <g id="patch_5">
    <path d="M 419.256 214.775656 
L 531 214.775656 
Q 537.984 214.775656 537.984 210.567656 
L 537.984 84.327656 
Q 537.984 80.119656 531 80.119656 
L 419.256 80.119656 
Q 412.272 80.119656 412.272 84.327656 
L 412.272 210.567656 
Q 412.272 214.775656 419.256 214.775656 
z
" clip-path="url(#p40a7e97143)" style="fill: #c47b45; opacity: 0.335; stroke: #c47b45; stroke-width: 1.5; stroke-linejoin: miter"/>
   </g>
   <g id="patch_6">
    <path d="M 551.952 214.775656 
L 663.696 214.775656 
Q 670.68 214.775656 670.68 210.567656 
L 670.68 84.327656 
Q 670.68 80.119656 663.696 80.119656 
L 551.952 80.119656 
Q 544.968 80.119656 544.968 84.327656 
L 544.968 210.567656 
Q 544.968 214.775656 551.952 214.775656 
z
" clip-path="url(#p40a7e97143)" style="fill: #8c8c8c; opacity: 0.44; stroke: #8c8c8c; stroke-width: 1.5; stroke-linejoin: miter"/>
   </g>
   <g id="text_1">
    <text style="font-weight: 700; font-size: 8px; font-family: 'Arial', 'Helvetica', 'Liberation Sans', 'DejaVu Sans', sans-serif; text-anchor: middle" x="77.04" y="128.481406" transform="rotate(-0 77.04 128.481406)">Problem</text>
   </g>
   <g id="text_2">
    <text style="font-size: 7px; font-family: 'Arial', 'Helvetica', 'Liberation Sans', 'DejaVu Sans', sans-serif; fill: #4f7c6a" transform="translate(70.228672 179.127156)">0.90</text>
    <text style="font-size: 7px; font-family: 'Arial', 'Helvetica', 'Liberation Sans', 'DejaVu Sans', sans-serif; fill: #4f7c6a" transform="translate(59.146797 186.633344)">(measured)</text>
   </g>
   <g id="patch_7">
    <path d="M 186.786501 147.447656 
Q 167.834323 147.447656 150.559196 147.447656 
" style="fill: none; stroke: #8c8c8c; stroke-width: 1.5; stroke-linecap: round"/>
    <path d="M 154.559196 149.447656 
L 150.559196 147.447656 
L 154.559196 145.447656 
z
" style="fill: #8c8c8c; stroke: #8c8c8c; stroke-width: 1.5; stroke-linecap: round"/>
   </g>
   <g id="text_3">
    <text style="font-weight: 700; font-size: 8px; font-family: 'Arial', 'Helvetica', 'Liberation Sans', 'DejaVu Sans', sans-serif" transform="translate(194.61975 124.203781)">Material</text>
    <text style="font-weight: 700; font-size: 8px; font-family: 'Arial', 'Helvetica', 'Liberation Sans', 'DejaVu Sans', sans-serif" transform="translate(196.846625 132.654031)">design</text>
   </g>
   <g id="text_4">
    <text style="font-size: 7px; font-family: 'Arial', 'Helvetica', 'Liberation Sans', 'DejaVu Sans', sans-serif; fill: #4b6f8a" transform="translate(202.924672 179.127156)">0.75</text>
    <text style="font-size: 7px; font-family: 'Arial', 'Helvetica', 'Liberation Sans', 'DejaVu Sans', sans-serif; fill: #4b6f8a" transform="translate(195.539125 186.633344)">(inferred)</text>
   </g>
   <g id="patch_8">
    <path d="M 319.482501 147.447656 
Q 300.530323 147.447656 283.255196 147.447656 
" style="fill: none; stroke: #8c8c8c; stroke-width: 1.5; stroke-linecap: round"/>
    <path d="M 287.255196 149.447656 
L 283.255196 147.447656 
L 287.255196 145.447656 
z
" style="fill: #8c8c8c; stroke: #8c8c8c; stroke-width: 1.5; stroke-linecap: round"/>
   </g>
   <g id="text_5">
    <text style="font-weight: 700; font-size: 8px; font-family: 'Arial', 'Helvetica', 'Liberation Sans', 'DejaVu Sans', sans-serif" transform="translate(324.868875 124.256281)">Evidence</text>
    <text style="font-weight: 700; font-size: 8px; font-family: 'Arial', 'Helvetica', 'Liberation Sans', 'DejaVu Sans', sans-serif" transform="translate(331.98575 132.706531)">chain</text>
   </g>
   <g id="text_6">
    <text style="font-size: 7px; font-family: 'Arial', 'Helvetica', 'Liberation Sans', 'DejaVu Sans', sans-serif; fill: #4b6f8a" transform="translate(335.620672 179.127156)">0.60</text>
    <text style="font-size: 7px; font-family: 'Arial', 'Helvetica', 'Liberation Sans', 'DejaVu Sans', sans-serif; fill: #4b6f8a" transform="translate(328.235125 186.633344)">(inferred)</text>
   </g>
   <g id="patch_9">
    <path d="M 452.178501 147.447656 
Q 433.226323 147.447656 415.951196 147.447656 
" style="fill: none; stroke: #8c8c8c; stroke-width: 1.5; stroke-linecap: round"/>
    <path d="M 419.951196 149.447656 
L 415.951196 147.447656 
L 419.951196 145.447656 
z
" style="fill: #8c8c8c; stroke: #8c8c8c; stroke-width: 1.5; stroke-linecap: round"/>
   </g>
   <g id="text_7">
    <text style="font-weight: 700; font-size: 8px; font-family: 'Arial', 'Helvetica', 'Liberation Sans', 'DejaVu Sans', sans-serif; text-anchor: middle" x="475.128" y="128.481406" transform="rotate(-0 475.128 128.481406)">Application</text>
   </g>
   <g id="text_8">
    <text style="font-size: 7px; font-family: 'Arial', 'Helvetica', 'Liberation Sans', 'DejaVu Sans', sans-serif; fill: #c47b45" transform="translate(468.316672 179.127156)">0.45</text>
    <text style="font-size: 7px; font-family: 'Arial', 'Helvetica', 'Liberation Sans', 'DejaVu Sans', sans-serif; fill: #c47b45" transform="translate(455.287922 186.633344)">(speculative)</text>
   </g>
   <g id="patch_10">
    <path d="M 584.874501 147.447656 
Q 565.922323 147.447656 548.647196 147.447656 
" style="fill: none; stroke: #8c8c8c; stroke-width: 1.5; stroke-linecap: round"/>
    <path d="M 552.647196 149.447656 
L 548.647196 147.447656 
L 552.647196 145.447656 
z
" style="fill: #8c8c8c; stroke: #8c8c8c; stroke-width: 1.5; stroke-linecap: round"/>
   </g>
   <g id="text_9">
    <text style="font-weight: 700; font-size: 8px; font-family: 'Arial', 'Helvetica', 'Liberation Sans', 'DejaVu Sans', sans-serif; text-anchor: middle" x="607.824" y="128.530156" transform="rotate(-0 607.824 128.530156)">Gap</text>
   </g>
   <g id="text_10">
    <text style="font-size: 7px; font-family: 'Arial', 'Helvetica', 'Liberation Sans', 'DejaVu Sans', sans-serif; fill: #8c8c8c" transform="translate(601.012672 179.127156)">0.80</text>
    <text style="font-size: 7px; font-family: 'Arial', 'Helvetica', 'Liberation Sans', 'DejaVu Sans', sans-serif; fill: #8c8c8c" transform="translate(593.629859 186.633344)">(missing)</text>
   </g>
   <g id="text_11">
    <text style="font-size: 11px; font-family: 'Arial', 'Helvetica', 'Liberation Sans', 'DejaVu Sans', sans-serif; text-anchor: middle" x="356.4" y="15.207656" transform="rotate(-0 356.4 15.207656)">WER-EA review graphical abstract (data-informed)</text>
   </g>
   <g id="legend_1">
    <g id="patch_11">
     <path d="M 331.792031 270.687656 
L 381.007969 270.687656 
Q 382.207969 270.687656 382.207969 269.487656 
L 382.207969 227.581406 
Q 382.207969 226.381406 381.007969 226.381406 
L 331.792031 226.381406 
Q 330.592031 226.381406 330.592031 227.581406 
L 330.592031 269.487656 
Q 330.592031 270.687656 331.792031 270.687656 
z
" style="fill: #ffffff; opacity: 0.9; stroke: #cccccc; stroke-linejoin: miter"/>
    </g>
    <g id="text_12">
     <text style="font-size: 6px; font-family: 'Arial', 'Helvetica', 'Liberation Sans', 'DejaVu Sans', sans-serif; text-anchor: start" x="339.391406" y="233.076094" transform="rotate(-0 339.391406 233.076094)">evidence tier</text>
    </g>
    <g id="patch_12">
     <path d="M 332.992031 241.563281 
L 344.992031 241.563281 
L 344.992031 237.363281 
L 332.992031 237.363281 
z
" style="fill: #4f7c6a; opacity: 0.85"/>
    </g>
    <g id="text_13">
     <text style="font-size: 6px; font-family: 'Arial', 'Helvetica', 'Liberation Sans', 'DejaVu Sans', sans-serif; text-anchor: start" x="349.792031" y="241.563281" transform="rotate(-0 349.792031 241.563281)">measured</text>
    </g>
    <g id="patch_13">
     <path d="M 332.992031 250.050469 
L 344.992031 250.050469 
L 344.992031 245.850469 
L 332.992031 245.850469 
z
" style="fill: #4b6f8a; opacity: 0.85"/>
    </g>
    <g id="text_14">
     <text style="font-size: 6px; font-family: 'Arial', 'Helvetica', 'Liberation Sans', 'DejaVu Sans', sans-serif; text-anchor: start" x="349.792031" y="250.050469" transform="rotate(-0 349.792031 250.050469)">inferred</text>
    </g>
    <g id="patch_14">
     <path d="M 332.992031 258.537656 
L 344.992031 258.537656 
L 344.992031 254.337656 
L 332.992031 254.337656 
z
" style="fill: #c47b45; opacity: 0.85"/>
    </g>
    <g id="text_15">
     <text style="font-size: 6px; font-family: 'Arial', 'Helvetica', 'Liberation Sans', 'DejaVu Sans', sans-serif; text-anchor: start" x="349.792031" y="258.537656" transform="rotate(-0 349.792031 258.537656)">speculative</text>
    </g>
    <g id="patch_15">
     <path d="M 332.992031 267.024844 
L 344.992031 267.024844 
L 344.992031 262.824844 
L 332.992031 262.824844 
z
" style="fill: #8c8c8c; opacity: 0.85"/>
    </g>
    <g id="text_16">
     <text style="font-size: 6px; font-family: 'Arial', 'Helvetica', 'Liberation Sans', 'DejaVu Sans', sans-serif; text-anchor: start" x="349.792031" y="267.024844" transform="rotate(-0 349.792031 267.024844)">missing</text>
    </g>
   </g>
  </g>
 </g>
 <defs>
  <clipPath id="p40a7e97143">
   <rect x="7.2" y="21.207656" width="698.4" height="252.48"/>
  </clipPath>
 </defs>
</svg>
