<?xml version="1.0" encoding="utf-8" standalone="no"?>
<!DOCTYPE svg PUBLIC "-//W3C//DTD SVG 1.1//EN"
  "http://www.w3.org/Graphics/SVG/1.1/DTD/svg11.dtd">
<svg xmlns:xlink="http://www.w3.org/1999/xlink" width="750.994955pt" height="444.883584pt" viewBox="0 0 750.994955 444.883584" xmlns="http://www.w3.org/2000/svg" version="1.1">
 <metadata>
  <rdf:RDF xmlns:dc="http://purl.org/dc/elements/1.1/" xmlns:cc="http://creativecommons.org/ns#" xmlns:rdf="http://www.w3.org/1999/02/22-rdf-syntax-ns#">
   <cc:Work>
    <dc:type rdf:resource="http://purl.org/dc/dcmitype/StillImage"/>
    <dc:date>2026-06-19T17:49:29.850132</dc:date>
    <dc:format>image/svg+xml</dc:format>
    <dc:creator>
     <cc:Agent>
      <dc:title>Matplotlib v3.11.0, https://matplotlib.org/</dc:title>
     </cc:Agent>
    </dc:creator>
   </cc:Work>
  </rdf:RDF>
 </metadata>
 <defs>
  <style type="text/css">*{stroke-linejoin: round; stroke-linecap: butt}</style>
 </defs>
 <g id="figure_1">
  <g id="patch_1">
   <path d="M 0 444.883584 
L 750.994955 444.883584 
L 750.994955 -0 
L 0 -0 
z
" style="fill: #ffffff"/>
  </g>
  <g id="axes_1">
   <g id="patch_2">
    <path d="M 19.596477 110.60352 
L 74.140977 110.60352 
Q 76.124414 110.60352 76.124414 107.9424 
L 76.124414 81.3312 
Q 76.124414 78.67008 74.140977 78.67008 
L 19.596477 78.67008 
Q 17.613041 78.67008 17.613041 81.3312 
L 17.613041 107.9424 
Q 17.613041 110.60352 19.596477 110.60352 
z
" clip-path="url(#p922cc937b7)" style="fill: #484878; opacity: 0.3; stroke: #484878; stroke-width: 1.5; stroke-linejoin: miter"/>
   </g>
   <g id="patch_3">
    <path d="M 19.596477 200.41632 
L 74.140977 200.41632 
Q 76.124414 200.41632 76.124414 197.7552 
L 76.124414 171.144 
Q 76.124414 168.48288 74.140977 168.48288 
L 19.596477 168.48288 
Q 17.613041 168.48288 17.613041 171.144 
L 17.613041 197.7552 
Q 17.613041 200.41632 19.596477 200.41632 
z
" clip-path="url(#p922cc937b7)" style="fill: #7884b4; opacity: 0.3; stroke: #7884b4; stroke-width: 1.5; stroke-linejoin: miter"/>
   </g>
   <g id="patch_4">
    <path d="M 19.596477 290.22912 
L 74.140977 290.22912 
Q 76.124414 290.22912 76.124414 287.568 
L 76.124414 260.9568 
Q 76.124414 258.29568 74.140977 258.29568 
L 19.596477 258.29568 
Q 17.613041 258.29568 17.613041 260.9568 
L 17.613041 287.568 
Q 17.613041 290.22912 19.596477 290.22912 
z
" clip-path="url(#p922cc937b7)" style="fill: #4f7c6a; opacity: 0.3; stroke: #4f7c6a; stroke-width: 1.5; stroke-linejoin: miter"/>
   </g>
   <g id="patch_5">
    <path d="M 19.596477 380.04192 
L 74.140977 380.04192 
Q 76.124414 380.04192 76.124414 377.3808 
L 76.124414 350.7696 
Q 76.124414 348.10848 74.140977 348.10848 
L 19.596477 348.10848 
Q 17.613041 348.10848 17.613041 350.7696 
L 17.613041 377.3808 
Q 17.613041 380.04192 19.596477 380.04192 
z
" clip-path="url(#p922cc937b7)" style="fill: #c47b45; opacity: 0.3; stroke: #c47b45; stroke-width: 1.5; stroke-linejoin: miter"/>
   </g>
   <g id="line2d_1">
    <path d="M 74.140977 94.6368 
L 93.975341 121.248 
" clip-path="url(#p922cc937b7)" style="fill: none; stroke: #484878; stroke-opacity: 0.6; stroke-width: 0.8; stroke-linecap: square"/>
   </g>
   <g id="line2d_2">
    <path d="M 93.975341 121.248 
L 111.330409 121.248 
" clip-path="url(#p922cc937b7)" style="fill: none; stroke: #484878; stroke-opacity: 0.6; stroke-width: 0.8; stroke-linecap: square"/>
   </g>
   <g id="line2d_3">
    <path d="M 74.140977 94.6368 
L 93.975341 142.8696 
" clip-path="url(#p922cc937b7)" style="fill: none; stroke: #484878; stroke-opacity: 0.6; stroke-width: 0.8; stroke-linecap: square"/>
   </g>
   <g id="line2d_4">
    <path d="M 93.975341 142.8696 
L 111.330409 142.8696 
" clip-path="url(#p922cc937b7)" style="fill: none; stroke: #484878; stroke-opacity: 0.6; stroke-width: 0.8; stroke-linecap: square"/>
   </g>
   <g id="line2d_5">
    <path d="M 74.140977 94.6368 
L 93.975341 164.4912 
" clip-path="url(#p922cc937b7)" style="fill: none; stroke: #484878; stroke-opacity: 0.6; stroke-width: 0.8; stroke-linecap: square"/>
   </g>
   <g id="line2d_6">
    <path d="M 93.975341 164.4912 
L 111.330409 164.4912 
" clip-path="url(#p922cc937b7)" style="fill: none; stroke: #484878; stroke-opacity: 0.6; stroke-width: 0.8; stroke-linecap: square"/>
   </g>
   <g id="line2d_7">
    <path d="M 74.140977 184.4496 
L 93.975341 211.0608 
" clip-path="url(#p922cc937b7)" style="fill: none; stroke: #7884b4; stroke-opacity: 0.6; stroke-width: 0.8; stroke-linecap: square"/>
   </g>
   <g id="line2d_8">
    <path d="M 93.975341 211.0608 
L 111.330409 211.0608 
" clip-path="url(#p922cc937b7)" style="fill: none; stroke: #7884b4; stroke-opacity: 0.6; stroke-width: 0.8; stroke-linecap: square"/>
   </g>
   <g id="line2d_9">
    <path d="M 74.140977 184.4496 
L 93.975341 232.6824 
" clip-path="url(#p922cc937b7)" style="fill: none; stroke: #7884b4; stroke-opacity: 0.6; stroke-width: 0.8; stroke-linecap: square"/>
   </g>
   <g id="line2d_10">
    <path d="M 93.975341 232.6824 
L 111.330409 232.6824 
" clip-path="url(#p922cc937b7)" style="fill: none; stroke: #7884b4; stroke-opacity: 0.6; stroke-width: 0.8; stroke-linecap: square"/>
   </g>
   <g id="line2d_11">
    <path d="M 74.140977 184.4496 
L 93.975341 254.304 
" clip-path="url(#p922cc937b7)" style="fill: none; stroke: #7884b4; stroke-opacity: 0.6; stroke-width: 0.8; stroke-linecap: square"/>
   </g>
   <g id="line2d_12">
    <path d="M 93.975341 254.304 
L 111.330409 254.304 
" clip-path="url(#p922cc937b7)" style="fill: none; stroke: #7884b4; stroke-opacity: 0.6; stroke-width: 0.8; stroke-linecap: square"/>
   </g>
   <g id="line2d_13">
    <path d="M 74.140977 274.2624 
L 93.975341 300.8736 
" clip-path="url(#p922cc937b7)" style="fill: none; stroke: #4f7c6a; stroke-opacity: 0.6; stroke-width: 0.8; stroke-linecap: square"/>
   </g>
   <g id="line2d_14">
    <path d="M 93.975341 300.8736 
L 111.330409 300.8736 
" clip-path="url(#p922cc937b7)" style="fill: none; stroke: #4f7c6a; stroke-opacity: 0.6; stroke-width: 0.8; stroke-linecap: square"/>
   </g>
   <g id="line2d_15">
    <path d="M 74.140977 274.2624 
L 93.975341 322.4952 
" clip-path="url(#p922cc937b7)" style="fill: none; stroke: #4f7c6a; stroke-opacity: 0.6; stroke-width: 0.8; stroke-linecap: square"/>
   </g>
   <g id="line2d_16">
    <path d="M 93.975341 322.4952 
L 111.330409 322.4952 
" clip-path="url(#p922cc937b7)" style="fill: none; stroke: #4f7c6a; stroke-opacity: 0.6; stroke-width: 0.8; stroke-linecap: square"/>
   </g>
   <g id="line2d_17">
    <path d="M 74.140977 274.2624 
L 93.975341 344.1168 
" clip-path="url(#p922cc937b7)" style="fill: none; stroke: #4f7c6a; stroke-opacity: 0.6; stroke-width: 0.8; stroke-linecap: square"/>
   </g>
   <g id="line2d_18">
    <path d="M 93.975341 344.1168 
L 111.330409 344.1168 
" clip-path="url(#p922cc937b7)" style="fill: none; stroke: #4f7c6a; stroke-opacity: 0.6; stroke-width: 0.8; stroke-linecap: square"/>
   </g>
   <g id="line2d_19">
    <path d="M 74.140977 364.0752 
L 93.975341 390.6864 
" clip-path="url(#p922cc937b7)" style="fill: none; stroke: #c47b45; stroke-opacity: 0.6; stroke-width: 0.8; stroke-linecap: square"/>
   </g>
   <g id="line2d_20">
    <path d="M 93.975341 390.6864 
L 111.330409 390.6864 
" clip-path="url(#p922cc937b7)" style="fill: none; stroke: #c47b45; stroke-opacity: 0.6; stroke-width: 0.8; stroke-linecap: square"/>
   </g>
   <g id="line2d_21">
    <path d="M 74.140977 364.0752 
L 93.975341 412.308 
" clip-path="url(#p922cc937b7)" style="fill: none; stroke: #c47b45; stroke-opacity: 0.6; stroke-width: 0.8; stroke-linecap: square"/>
   </g>
   <g id="line2d_22">
    <path d="M 93.975341 412.308 
L 111.330409 412.308 
" clip-path="url(#p922cc937b7)" style="fill: none; stroke: #c47b45; stroke-opacity: 0.6; stroke-width: 0.8; stroke-linecap: square"/>
   </g>
   <g id="line2d_23">
    <path d="M 74.140977 364.0752 
L 93.975341 433.9296 
" clip-path="url(#p922cc937b7)" style="fill: none; stroke: #c47b45; stroke-opacity: 0.6; stroke-width: 0.8; stroke-linecap: square"/>
   </g>
   <g id="line2d_24">
    <path d="M 93.975341 433.9296 
L 111.330409 433.9296 
" clip-path="url(#p922cc937b7)" style="fill: none; stroke: #c47b45; stroke-opacity: 0.6; stroke-width: 0.8; stroke-linecap: square"/>
   </g>
   <g id="text_1">
    <text style="font-weight: 700; font-size: 9px; font-family: 'Arial', 'Helvetica', 'Liberation Sans', 'DejaVu Sans', sans-serif; text-anchor: middle; fill: #484878" x="46.868727" y="96.965902" transform="rotate(-0 46.868727 96.965902)">Asphalt</text>
   </g>
   <g id="text_2">
    <text style="font-weight: 700; font-size: 8px; font-family: 'Arial', 'Helvetica', 'Liberation Sans', 'DejaVu Sans', sans-serif; text-anchor: start" x="116.289" y="123.318312" transform="rotate(-0 116.289 123.318312)">AC-13</text>
   </g>
   <g id="text_3">
    <text style="font-weight: 700; font-size: 8px; font-family: 'Arial', 'Helvetica', 'Liberation Sans', 'DejaVu Sans', sans-serif; text-anchor: start" x="116.289" y="144.939912" transform="rotate(-0 116.289 144.939912)">SMA-13</text>
   </g>
   <g id="text_4">
    <text style="font-weight: 700; font-size: 8px; font-family: 'Arial', 'Helvetica', 'Liberation Sans', 'DejaVu Sans', sans-serif; text-anchor: start" x="116.289" y="166.561512" transform="rotate(-0 116.289 166.561512)">OGFC</text>
   </g>
   <g id="text_5">
    <text style="font-weight: 700; font-size: 9px; font-family: 'Arial', 'Helvetica', 'Liberation Sans', 'DejaVu Sans', sans-serif; text-anchor: middle; fill: #7884b4" x="46.868727" y="186.778702" transform="rotate(-0 46.868727 186.778702)">Emulsifier</text>
   </g>
   <g id="text_6">
    <text style="font-weight: 700; font-size: 8px; font-family: 'Arial', 'Helvetica', 'Liberation Sans', 'DejaVu Sans', sans-serif; text-anchor: start" x="116.289" y="213.131112" transform="rotate(-0 116.289 213.131112)">Cationic</text>
   </g>
   <g id="text_7">
    <text style="font-style: italic; font-size: 7px; font-family: 'Arial', 'Helvetica', 'Liberation Sans', 'DejaVu Sans', sans-serif; text-anchor: start; fill: #7884b4" x="185.709273" y="212.882577" transform="rotate(-0 185.709273 212.882577)">2-3%</text>
   </g>
   <g id="text_8">
    <text style="font-weight: 700; font-size: 8px; font-family: 'Arial', 'Helvetica', 'Liberation Sans', 'DejaVu Sans', sans-serif; text-anchor: start" x="116.289" y="234.752712" transform="rotate(-0 116.289 234.752712)">Anionic</text>
   </g>
   <g id="text_9">
    <text style="font-style: italic; font-size: 7px; font-family: 'Arial', 'Helvetica', 'Liberation Sans', 'DejaVu Sans', sans-serif; text-anchor: start; fill: #7884b4" x="185.709273" y="234.504177" transform="rotate(-0 185.709273 234.504177)">1.5-2.5%</text>
   </g>
   <g id="text_10">
    <text style="font-weight: 700; font-size: 8px; font-family: 'Arial', 'Helvetica', 'Liberation Sans', 'DejaVu Sans', sans-serif; text-anchor: start" x="116.289" y="256.374312" transform="rotate(-0 116.289 256.374312)">Non-ionic</text>
   </g>
   <g id="text_11">
    <text style="font-style: italic; font-size: 7px; font-family: 'Arial', 'Helvetica', 'Liberation Sans', 'DejaVu Sans', sans-serif; text-anchor: start; fill: #7884b4" x="185.709273" y="256.125777" transform="rotate(-0 185.709273 256.125777)">1-2%</text>
   </g>
   <g id="text_12">
    <text style="font-weight: 700; font-size: 9px; font-family: 'Arial', 'Helvetica', 'Liberation Sans', 'DejaVu Sans', sans-serif; text-anchor: middle; fill: #4f7c6a" x="46.868727" y="276.591502" transform="rotate(-0 46.868727 276.591502)">WER</text>
   </g>
   <g id="text_13">
    <text style="font-weight: 700; font-size: 8px; font-family: 'Arial', 'Helvetica', 'Liberation Sans', 'DejaVu Sans', sans-serif; text-anchor: start" x="116.289" y="302.943913" transform="rotate(-0 116.289 302.943913)">E-51</text>
   </g>
   <g id="text_14">
    <text style="font-style: italic; font-size: 7px; font-family: 'Arial', 'Helvetica', 'Liberation Sans', 'DejaVu Sans', sans-serif; text-anchor: start; fill: #4f7c6a" x="185.709273" y="302.695377" transform="rotate(-0 185.709273 302.695377)">5-8%</text>
   </g>
   <g id="text_15">
    <text style="font-weight: 700; font-size: 8px; font-family: 'Arial', 'Helvetica', 'Liberation Sans', 'DejaVu Sans', sans-serif; text-anchor: start" x="116.289" y="324.565512" transform="rotate(-0 116.289 324.565512)">E-44</text>
   </g>
   <g id="text_16">
    <text style="font-style: italic; font-size: 7px; font-family: 'Arial', 'Helvetica', 'Liberation Sans', 'DejaVu Sans', sans-serif; text-anchor: start; fill: #4f7c6a" x="185.709273" y="324.316977" transform="rotate(-0 185.709273 324.316977)">5-10%</text>
   </g>
   <g id="text_17">
    <text style="font-weight: 700; font-size: 8px; font-family: 'Arial', 'Helvetica', 'Liberation Sans', 'DejaVu Sans', sans-serif; text-anchor: start" x="116.289" y="346.187113" transform="rotate(-0 116.289 346.187113)">PEG-modified</text>
   </g>
   <g id="text_18">
    <text style="font-style: italic; font-size: 7px; font-family: 'Arial', 'Helvetica', 'Liberation Sans', 'DejaVu Sans', sans-serif; text-anchor: start; fill: #4f7c6a" x="185.709273" y="345.938577" transform="rotate(-0 185.709273 345.938577)">4-7%</text>
   </g>
   <g id="text_19">
    <text style="font-weight: 700; font-size: 9px; font-family: 'Arial', 'Helvetica', 'Liberation Sans', 'DejaVu Sans', sans-serif; text-anchor: middle; fill: #c47b45" x="46.868727" y="366.404214" transform="rotate(-0 46.868727 366.404214)">Curing agent</text>
   </g>
   <g id="text_20">
    <text style="font-weight: 700; font-size: 8px; font-family: 'Arial', 'Helvetica', 'Liberation Sans', 'DejaVu Sans', sans-serif; text-anchor: start" x="116.289" y="392.756634" transform="rotate(-0 116.289 392.756634)">Polyamine</text>
   </g>
   <g id="text_21">
    <text style="font-style: italic; font-size: 7px; font-family: 'Arial', 'Helvetica', 'Liberation Sans', 'DejaVu Sans', sans-serif; text-anchor: start; fill: #c47b45" x="185.709273" y="392.508177" transform="rotate(-0 185.709273 392.508177)">stoich.</text>
   </g>
   <g id="text_22">
    <text style="font-weight: 700; font-size: 8px; font-family: 'Arial', 'Helvetica', 'Liberation Sans', 'DejaVu Sans', sans-serif; text-anchor: start" x="116.289" y="414.378312" transform="rotate(-0 116.289 414.378312)">Imidazole</text>
   </g>
   <g id="text_23">
    <text style="font-style: italic; font-size: 7px; font-family: 'Arial', 'Helvetica', 'Liberation Sans', 'DejaVu Sans', sans-serif; text-anchor: start; fill: #c47b45" x="185.709273" y="414.129777" transform="rotate(-0 185.709273 414.129777)">0.5-2%</text>
   </g>
   <g id="text_24">
    <text style="font-weight: 700; font-size: 8px; font-family: 'Arial', 'Helvetica', 'Liberation Sans', 'DejaVu Sans', sans-serif; text-anchor: start" x="116.289" y="435.999834" transform="rotate(-0 116.289 435.999834)">Acrylic</text>
   </g>
   <g id="text_25">
    <text style="font-style: italic; font-size: 7px; font-family: 'Arial', 'Helvetica', 'Liberation Sans', 'DejaVu Sans', sans-serif; text-anchor: start; fill: #c47b45" x="185.709273" y="435.751377" transform="rotate(-0 185.709273 435.751377)">1-3%</text>
   </g>
   <g id="text_26">
    <text style="font-weight: 700; font-size: 10px; font-family: 'Arial', 'Helvetica', 'Liberation Sans', 'DejaVu Sans', sans-serif; text-anchor: start" x="7.2" y="48.72" transform="rotate(-0 7.2 48.72)">(a) Formulation taxonomy</text>
   </g>
  </g>
  <g id="axes_2">
   <g id="patch_6">
    <path d="M 647.502955 221.04 
C 647.502955 199.199058 643.200765 177.570491 634.842598 157.392092 
C 626.484432 137.213692 614.232833 118.877879 598.788954 103.434 
C 583.345076 87.990122 565.009263 75.738523 544.830863 67.380356 
C 524.652463 59.022189 503.023897 54.72 481.182955 54.72 
C 459.342012 54.72 437.713446 59.022189 417.535046 67.380356 
C 397.356647 75.738523 379.020833 87.990122 363.576955 103.434 
C 348.133076 118.877879 335.881477 137.213692 327.523311 157.392092 
C 319.165144 177.570491 314.862955 199.199058 314.862955 221.04 
C 314.862955 242.880942 319.165144 264.509509 327.523311 284.687908 
C 335.881477 304.866308 348.133076 323.202121 363.576955 338.646 
C 379.020833 354.089878 397.356647 366.341477 417.535046 374.699644 
C 437.713446 383.057811 459.342012 387.36 481.182955 387.36 
C 503.023897 387.36 524.652463 383.057811 544.830863 374.699644 
C 565.009263 366.341477 583.345076 354.089878 598.788954 338.646 
C 614.232833 323.202121 626.484432 304.866308 634.842598 284.687908 
C 643.200765 264.509509 647.502955 242.880942 647.502955 221.04 
M 481.182955 221.04 
C 481.182955 221.04 481.182955 221.04 481.182955 221.04 
C 481.182955 221.04 481.182955 221.04 481.182955 221.04 
C 481.182955 221.04 481.182955 221.04 481.182955 221.04 
C 481.182955 221.04 481.182955 221.04 481.182955 221.04 
C 481.182955 221.04 481.182955 221.04 481.182955 221.04 
C 481.182955 221.04 481.182955 221.04 481.182955 221.04 
C 481.182955 221.04 481.182955 221.04 481.182955 221.04 
C 481.182955 221.04 481.182955 221.04 481.182955 221.04 
C 481.182955 221.04 481.182955 221.04 481.182955 221.04 
C 481.182955 221.04 481.182955 221.04 481.182955 221.04 
C 481.182955 221.04 481.182955 221.04 481.182955 221.04 
C 481.182955 221.04 481.182955 221.04 481.182955 221.04 
C 481.182955 221.04 481.182955 221.04 481.182955 221.04 
C 481.182955 221.04 481.182955 221.04 481.182955 221.04 
C 481.182955 221.04 481.182955 221.04 481.182955 221.04 
C 481.182955 221.04 481.182955 221.04 481.182955 221.04 
z
" style="fill: #ffffff"/>
   </g>
   <g id="patch_7">
    <path d="M 539.394955 221.04 
L 506.880808 141.95014 
L 400.449531 162.383734 
L 427.360672 260.144177 
L 527.43909 363.401748 
z
" clip-path="url(#p8d443d8e4c)" style="fill: #484878; opacity: 0.12; stroke: #484878; stroke-linejoin: miter"/>
   </g>
   <g id="patch_8">
    <path d="M 564.342955 221.04 
L 522.29952 94.496224 
L 413.905101 172.159778 
L 413.905101 269.920222 
L 517.159949 331.765804 
z
" clip-path="url(#p8d443d8e4c)" style="fill: #7884b4; opacity: 0.12; stroke: #7884b4; stroke-linejoin: miter"/>
   </g>
   <g id="patch_9">
    <path d="M 630.870955 221.04 
L 517.159949 110.314196 
L 373.538389 142.831645 
L 366.810604 304.136377 
L 501.741237 284.311888 
z
" clip-path="url(#p8d443d8e4c)" style="fill: #4f7c6a; opacity: 0.12; stroke: #4f7c6a; stroke-linejoin: miter"/>
   </g>
   <g id="patch_10">
    <path d="M 597.606955 221.04 
L 501.741237 157.768112 
L 440.816243 191.711867 
L 400.449531 279.696266 
L 512.020378 315.947832 
z
" clip-path="url(#p8d443d8e4c)" style="fill: #c47b45; opacity: 0.12; stroke: #c47b45; stroke-linejoin: miter"/>
   </g>
   <g id="matplotlib.axis_1">
    <g id="xtick_1">
     <g id="line2d_25">
      <path d="M 481.182955 221.04 
L 647.502955 221.04 
" clip-path="url(#p8d443d8e4c)" style="fill: none; stroke: #b0b0b0; stroke-width: 0.8; stroke-linecap: square"/>
     </g>
     <g id="text_27">
      <text style="font-size: 8px; font-family: 'Arial', 'Helvetica', 'Liberation Sans', 'DejaVu Sans', sans-serif; text-anchor: middle" x="661.502955" y="223.110234" transform="rotate(-0 661.502955 223.110234)">Bonding</text>
     </g>
    </g>
    <g id="xtick_2">
     <g id="line2d_26">
      <path d="M 481.182955 221.04 
L 532.578661 62.86028 
" clip-path="url(#p8d443d8e4c)" style="fill: none; stroke: #b0b0b0; stroke-width: 0.8; stroke-linecap: square"/>
     </g>
     <g id="text_28">
      <text style="font-size: 8px; font-family: 'Arial', 'Helvetica', 'Liberation Sans', 'DejaVu Sans', sans-serif; text-anchor: middle" x="536.904899" y="51.615723" transform="rotate(-0 536.904899 51.615723)">Stability</text>
     </g>
    </g>
    <g id="xtick_3">
     <g id="line2d_27">
      <path d="M 481.182955 221.04 
L 346.627248 123.279557 
" clip-path="url(#p8d443d8e4c)" style="fill: none; stroke: #b0b0b0; stroke-width: 0.8; stroke-linecap: square"/>
     </g>
     <g id="text_29">
      <text style="font-size: 8px; font-family: 'Arial', 'Helvetica', 'Liberation Sans', 'DejaVu Sans', sans-serif; text-anchor: middle" x="335.30101" y="117.120798" transform="rotate(-0 335.30101 117.120798)">Rheology</text>
     </g>
    </g>
    <g id="xtick_4">
     <g id="line2d_28">
      <path d="M 481.182955 221.04 
L 346.627248 318.800443 
" clip-path="url(#p8d443d8e4c)" style="fill: none; stroke: #b0b0b0; stroke-width: 0.8; stroke-linecap: square"/>
     </g>
     <g id="text_30">
      <text style="font-size: 8px; font-family: 'Arial', 'Helvetica', 'Liberation Sans', 'DejaVu Sans', sans-serif; text-anchor: middle" x="335.30101" y="329.099671" transform="rotate(-0 335.30101 329.099671)">Durability</text>
     </g>
    </g>
    <g id="xtick_5">
     <g id="line2d_29">
      <path d="M 481.182955 221.04 
L 532.578661 379.21972 
" clip-path="url(#p8d443d8e4c)" style="fill: none; stroke: #b0b0b0; stroke-width: 0.8; stroke-linecap: square"/>
     </g>
     <g id="text_31">
      <text style="font-size: 8px; font-family: 'Arial', 'Helvetica', 'Liberation Sans', 'DejaVu Sans', sans-serif; text-anchor: middle" x="536.904899" y="394.604824" transform="rotate(-0 536.904899 394.604824)">Cost-eff.</text>
     </g>
    </g>
   </g>
   <g id="matplotlib.axis_2">
    <g id="ytick_1">
     <g id="line2d_30">
      <path d="M 514.446955 221.04 
C 514.446955 216.671812 513.586517 212.346098 511.914883 208.310418 
C 510.24325 204.274738 507.79293 200.607576 504.704155 197.5188 
C 501.615379 194.430024 497.948216 191.979705 493.912536 190.308071 
C 489.876856 188.636438 485.551143 187.776 481.182955 187.776 
C 476.814766 187.776 472.489053 188.636438 468.453373 190.308071 
C 464.417693 191.979705 460.75053 194.430024 457.661755 197.5188 
C 454.572979 200.607576 452.122659 204.274738 450.451026 208.310418 
C 448.779392 212.346098 447.918955 216.671812 447.918955 221.04 
C 447.918955 225.408188 448.779392 229.733902 450.451026 233.769582 
C 452.122659 237.805262 454.572979 241.472424 457.661755 244.5612 
C 460.75053 247.649976 464.417693 250.100295 468.453373 251.771929 
C 472.489053 253.443562 476.814766 254.304 481.182955 254.304 
C 485.551143 254.304 489.876856 253.443562 493.912536 251.771929 
C 497.948216 250.100295 501.615379 247.649976 504.704155 244.5612 
C 507.79293 241.472424 510.24325 237.805262 511.914883 233.769582 
C 513.586517 229.733902 514.446955 225.408188 514.446955 221.04 
" clip-path="url(#p8d443d8e4c)" style="fill: none; stroke: #b0b0b0; stroke-width: 0.8; stroke-linecap: square"/>
     </g>
     <g id="text_32">
      <text style="font-size: 7px; font-family: 'Arial', 'Helvetica', 'Liberation Sans', 'DejaVu Sans', sans-serif; text-anchor: start" x="511.914883" y="206.837274" transform="rotate(-0 511.914883 206.837274)">0.2</text>
     </g>
    </g>
    <g id="ytick_2">
     <g id="line2d_31">
      <path d="M 547.710955 221.04 
C 547.710955 212.303623 545.990079 203.652196 542.646812 195.580837 
C 539.303545 187.509477 534.402906 180.175151 528.225354 173.9976 
C 522.047803 167.820049 514.713478 162.919409 506.642118 159.576142 
C 498.570758 156.232876 489.919331 154.512 481.182955 154.512 
C 472.446578 154.512 463.795151 156.232876 455.723791 159.576142 
C 447.652431 162.919409 440.318106 167.820049 434.140555 173.9976 
C 427.963003 180.175151 423.062364 187.509477 419.719097 195.580837 
C 416.37583 203.652196 414.654955 212.303623 414.654955 221.04 
C 414.654955 229.776377 416.37583 238.427804 419.719097 246.499163 
C 423.062364 254.570523 427.963003 261.904849 434.140555 268.0824 
C 440.318106 274.259951 447.652431 279.160591 455.723791 282.503858 
C 463.795151 285.847124 472.446578 287.568 481.182955 287.568 
C 489.919331 287.568 498.570758 285.847124 506.642118 282.503858 
C 514.713478 279.160591 522.047803 274.259951 528.225354 268.0824 
C 534.402906 261.904849 539.303545 254.570523 542.646812 246.499163 
C 545.990079 238.427804 547.710955 229.776377 547.710955 221.04 
" clip-path="url(#p8d443d8e4c)" style="fill: none; stroke: #b0b0b0; stroke-width: 0.8; stroke-linecap: square"/>
     </g>
     <g id="text_33">
      <text style="font-size: 7px; font-family: 'Arial', 'Helvetica', 'Liberation Sans', 'DejaVu Sans', sans-serif; text-anchor: start" x="542.646812" y="194.107692" transform="rotate(-0 542.646812 194.107692)">0.4</text>
     </g>
    </g>
    <g id="ytick_3">
     <g id="line2d_32">
      <path d="M 580.974955 221.04 
C 580.974955 207.935435 578.393641 194.958295 573.378741 182.851255 
C 568.363841 170.744215 561.012881 159.742727 551.746554 150.4764 
C 542.480227 141.210073 531.478739 133.859114 519.3717 128.844214 
C 507.26466 123.829314 494.28752 121.248 481.182955 121.248 
C 468.078389 121.248 455.101249 123.829314 442.994209 128.844214 
C 430.88717 133.859114 419.885682 141.210073 410.619355 150.4764 
C 401.353028 159.742727 394.002068 170.744215 388.987168 182.851255 
C 383.972268 194.958295 381.390955 207.935435 381.390955 221.04 
C 381.390955 234.144565 383.972268 247.121705 388.987168 259.228745 
C 394.002068 271.335785 401.353028 282.337273 410.619355 291.6036 
C 419.885682 300.869927 430.88717 308.220886 442.994209 313.235786 
C 455.101249 318.250686 468.078389 320.832 481.182955 320.832 
C 494.28752 320.832 507.26466 318.250686 519.3717 313.235786 
C 531.478739 308.220886 542.480227 300.869927 551.746554 291.6036 
C 561.012881 282.337273 568.363841 271.335785 573.378741 259.228745 
C 578.393641 247.121705 580.974955 234.144565 580.974955 221.04 
" clip-path="url(#p8d443d8e4c)" style="fill: none; stroke: #b0b0b0; stroke-width: 0.8; stroke-linecap: square"/>
     </g>
     <g id="text_34">
      <text style="font-size: 7px; font-family: 'Arial', 'Helvetica', 'Liberation Sans', 'DejaVu Sans', sans-serif; text-anchor: start" x="573.378741" y="181.37811" transform="rotate(-0 573.378741 181.37811)">0.6</text>
     </g>
    </g>
    <g id="ytick_4">
     <g id="line2d_33">
      <path d="M 614.238955 221.04 
C 614.238955 203.567246 610.797203 186.264393 604.11067 170.121673 
C 597.424136 153.978954 587.622857 139.310303 575.267754 126.9552 
C 562.912652 114.600097 548.244001 104.798818 532.101281 98.112285 
C 515.958562 91.425752 498.655708 87.984 481.182955 87.984 
C 463.710201 87.984 446.407347 91.425752 430.264628 98.112285 
C 414.121908 104.798818 399.453257 114.600097 387.098155 126.9552 
C 374.743052 139.310303 364.941773 153.978954 358.255239 170.121673 
C 351.568706 186.264393 348.126955 203.567246 348.126955 221.04 
C 348.126955 238.512754 351.568706 255.815607 358.255239 271.958327 
C 364.941773 288.101046 374.743052 302.769697 387.098155 315.1248 
C 399.453257 327.479903 414.121908 337.281182 430.264628 343.967715 
C 446.407347 350.654248 463.710201 354.096 481.182955 354.096 
C 498.655708 354.096 515.958562 350.654248 532.101281 343.967715 
C 548.244001 337.281182 562.912652 327.479903 575.267754 315.1248 
C 587.622857 302.769697 597.424136 288.101046 604.11067 271.958327 
C 610.797203 255.815607 614.238955 238.512754 614.238955 221.04 
" clip-path="url(#p8d443d8e4c)" style="fill: none; stroke: #b0b0b0; stroke-width: 0.8; stroke-linecap: square"/>
     </g>
     <g id="text_35">
      <text style="font-size: 7px; font-family: 'Arial', 'Helvetica', 'Liberation Sans', 'DejaVu Sans', sans-serif; text-anchor: start" x="604.11067" y="168.648529" transform="rotate(-0 604.11067 168.648529)">0.8</text>
     </g>
    </g>
    <g id="ytick_5">
     <g id="line2d_34">
      <path d="M 647.502955 221.04 
C 647.502955 199.199058 643.200765 177.570491 634.842598 157.392092 
C 626.484432 137.213692 614.232833 118.877879 598.788954 103.434 
C 583.345076 87.990122 565.009263 75.738523 544.830863 67.380356 
C 524.652463 59.022189 503.023897 54.72 481.182955 54.72 
C 459.342012 54.72 437.713446 59.022189 417.535046 67.380356 
C 397.356647 75.738523 379.020833 87.990122 363.576955 103.434 
C 348.133076 118.877879 335.881477 137.213692 327.523311 157.392092 
C 319.165144 177.570491 314.862955 199.199058 314.862955 221.04 
C 314.862955 242.880942 319.165144 264.509509 327.523311 284.687908 
C 335.881477 304.866308 348.133076 323.202121 363.576955 338.646 
C 379.020833 354.089878 397.356647 366.341477 417.535046 374.699644 
C 437.713446 383.057811 459.342012 387.36 481.182955 387.36 
C 503.023897 387.36 524.652463 383.057811 544.830863 374.699644 
C 565.009263 366.341477 583.345076 354.089878 598.788954 338.646 
C 614.232833 323.202121 626.484432 304.866308 634.842598 284.687908 
C 643.200765 264.509509 647.502955 242.880942 647.502955 221.04 
" clip-path="url(#p8d443d8e4c)" style="fill: none; stroke: #b0b0b0; stroke-width: 0.8; stroke-linecap: square"/>
     </g>
     <g id="text_36">
      <text style="font-size: 7px; font-family: 'Arial', 'Helvetica', 'Liberation Sans', 'DejaVu Sans', sans-serif; text-anchor: start" x="634.842598" y="155.918947" transform="rotate(-0 634.842598 155.918947)">1.0</text>
     </g>
    </g>
   </g>
   <g id="line2d_35">
    <path d="M 539.394955 221.04 
L 506.880808 141.95014 
L 400.449531 162.383734 
L 427.360672 260.144177 
L 527.43909 363.401748 
L 539.394955 221.04 
" clip-path="url(#p8d443d8e4c)" style="fill: none; stroke: #484878; stroke-width: 2; stroke-linecap: square"/>
   </g>
   <g id="line2d_36">
    <path d="M 564.342955 221.04 
L 522.29952 94.496224 
L 413.905101 172.159778 
L 413.905101 269.920222 
L 517.159949 331.765804 
L 564.342955 221.04 
" clip-path="url(#p8d443d8e4c)" style="fill: none; stroke: #7884b4; stroke-width: 2; stroke-linecap: square"/>
   </g>
   <g id="line2d_37">
    <path d="M 630.870955 221.04 
L 517.159949 110.314196 
L 373.538389 142.831645 
L 366.810604 304.136377 
L 501.741237 284.311888 
L 630.870955 221.04 
" clip-path="url(#p8d443d8e4c)" style="fill: none; stroke: #4f7c6a; stroke-width: 2; stroke-linecap: square"/>
   </g>
   <g id="line2d_38">
    <path d="M 597.606955 221.04 
L 501.741237 157.768112 
L 440.816243 191.711867 
L 400.449531 279.696266 
L 512.020378 315.947832 
L 597.606955 221.04 
" clip-path="url(#p8d443d8e4c)" style="fill: none; stroke: #c47b45; stroke-width: 2; stroke-linecap: square"/>
   </g>
   <g id="patch_11">
    <path d="M 647.502955 221.04 
C 647.502955 199.199058 643.200765 177.570491 634.842598 157.392092 
C 626.484432 137.213692 614.232833 118.877879 598.788954 103.434 
C 583.345076 87.990122 565.009263 75.738523 544.830863 67.380356 
C 524.652463 59.022189 503.023897 54.72 481.182955 54.72 
C 459.342012 54.72 437.713446 59.022189 417.535046 67.380356 
C 397.356647 75.738523 379.020833 87.990122 363.576955 103.434 
C 348.133076 118.877879 335.881477 137.213692 327.523311 157.392092 
C 319.165144 177.570491 314.862955 199.199058 314.862955 221.04 
C 314.862955 242.880942 319.165144 264.509509 327.523311 284.687908 
C 335.881477 304.866308 348.133076 323.202121 363.576955 338.646 
C 379.020833 354.089878 397.356647 366.341477 417.535046 374.699644 
C 437.713446 383.057811 459.342012 387.36 481.182955 387.36 
C 503.023897 387.36 524.652463 383.057811 544.830863 374.699644 
C 565.009263 366.341477 583.345076 354.089878 598.788954 338.646 
C 614.232833 323.202121 626.484432 304.866308 634.842598 284.687908 
C 643.200765 264.509509 647.502955 242.880942 647.502955 221.04 
" style="fill: none; stroke: #000000; stroke-width: 1.5; stroke-linejoin: miter; stroke-linecap: square"/>
   </g>
   <g id="text_37">
    <text style="font-weight: 700; font-size: 10px; font-family: 'Arial', 'Helvetica', 'Liberation Sans', 'DejaVu Sans', sans-serif; text-anchor: start" x="314.862955" y="39.72" transform="rotate(-0 314.862955 39.72)">(b) Performance radar comparison</text>
   </g>
   <g id="legend_1">
    <g id="line2d_39">
     <path d="M 681.31558 23.749391 
L 688.31558 23.749391 
L 695.31558 23.749391 
" style="fill: none; stroke: #484878; stroke-width: 2; stroke-linecap: square"/>
    </g>
    <g id="text_38">
     <text style="font-size: 7px; font-family: 'Arial', 'Helvetica', 'Liberation Sans', 'DejaVu Sans', sans-serif; text-anchor: start" x="700.91558" y="26.199391" transform="rotate(-0 700.91558 26.199391)">Asphalt</text>
    </g>
    <g id="line2d_40">
     <path d="M 681.31558 33.818727 
L 688.31558 33.818727 
L 695.31558 33.818727 
" style="fill: none; stroke: #7884b4; stroke-width: 2; stroke-linecap: square"/>
    </g>
    <g id="text_39">
     <text style="font-size: 7px; font-family: 'Arial', 'Helvetica', 'Liberation Sans', 'DejaVu Sans', sans-serif; text-anchor: start" x="700.91558" y="36.268727" transform="rotate(-0 700.91558 36.268727)">Emulsifier</text>
    </g>
    <g id="line2d_41">
     <path d="M 681.31558 43.888063 
L 688.31558 43.888063 
L 695.31558 43.888063 
" style="fill: none; stroke: #4f7c6a; stroke-width: 2; stroke-linecap: square"/>
    </g>
    <g id="text_40">
     <text style="font-size: 7px; font-family: 'Arial', 'Helvetica', 'Liberation Sans', 'DejaVu Sans', sans-serif; text-anchor: start" x="700.91558" y="46.338063" transform="rotate(-0 700.91558 46.338063)">WER</text>
    </g>
    <g id="line2d_42">
     <path d="M 681.31558 53.957399 
L 688.31558 53.957399 
L 695.31558 53.957399 
" style="fill: none; stroke: #c47b45; stroke-width: 2; stroke-linecap: square"/>
    </g>
    <g id="text_41">
     <text style="font-size: 7px; font-family: 'Arial', 'Helvetica', 'Liberation Sans', 'DejaVu Sans', sans-serif; text-anchor: start" x="700.91558" y="56.407399" transform="rotate(-0 700.91558 56.407399)">Curing agent</text>
    </g>
   </g>
  </g>
  <g id="text_42">
   <text style="font-weight: 700; font-size: 12px; font-family: 'Arial', 'Helvetica', 'Liberation Sans', 'DejaVu Sans', sans-serif; text-anchor: middle" x="317.7" y="15.936328" transform="rotate(-0 317.7 15.936328)">WER-EA material system map: taxonomy + performance radar</text>
  </g>
 </g>
 <defs>
  <clipPath id="p922cc937b7">
   <rect x="7.2" y="54.72" width="247.929545" height="332.64"/>
  </clipPath>
  <clipPath id="p8d443d8e4c">
   <path d="M 647.502955 221.04 
C 647.502955 199.199058 643.200765 177.570491 634.842598 157.392092 
C 626.484432 137.213692 614.232833 118.877879 598.788954 103.434 
C 583.345076 87.990122 565.009263 75.738523 544.830863 67.380356 
C 524.652463 59.022189 503.023897 54.72 481.182955 54.72 
C 459.342012 54.72 437.713446 59.022189 417.535046 67.380356 
C 397.356647 75.738523 379.020833 87.990122 363.576955 103.434 
C 348.133076 118.877879 335.881477 137.213692 327.523311 157.392092 
C 319.165144 177.570491 314.862955 199.199058 314.862955 221.04 
C 314.862955 242.880942 319.165144 264.509509 327.523311 284.687908 
C 335.881477 304.866308 348.133076 323.202121 363.576955 338.646 
C 379.020833 354.089878 397.356647 366.341477 417.535046 374.699644 
C 437.713446 383.057811 459.342012 387.36 481.182955 387.36 
C 503.023897 387.36 524.652463 383.057811 544.830863 374.699644 
C 565.009263 366.341477 583.345076 354.089878 598.788954 338.646 
C 614.232833 323.202121 626.484432 304.866308 634.842598 284.687908 
C 643.200765 264.509509 647.502955 242.880942 647.502955 221.04 
M 481.182955 221.04 
C 481.182955 221.04 481.182955 221.04 481.182955 221.04 
C 481.182955 221.04 481.182955 221.04 481.182955 221.04 
C 481.182955 221.04 481.182955 221.04 481.182955 221.04 
C 481.182955 221.04 481.182955 221.04 481.182955 221.04 
C 481.182955 221.04 481.182955 221.04 481.182955 221.04 
C 481.182955 221.04 481.182955 221.04 481.182955 221.04 
C 481.182955 221.04 481.182955 221.04 481.182955 221.04 
C 481.182955 221.04 481.182955 221.04 481.182955 221.04 
C 481.182955 221.04 481.182955 221.04 481.182955 221.04 
C 481.182955 221.04 481.182955 221.04 481.182955 221.04 
C 481.182955 221.04 481.182955 221.04 481.182955 221.04 
C 481.182955 221.04 481.182955 221.04 481.182955 221.04 
C 481.182955 221.04 481.182955 221.04 481.182955 221.04 
C 481.182955 221.04 481.182955 221.04 481.182955 221.04 
C 481.182955 221.04 481.182955 221.04 481.182955 221.04 
C 481.182955 221.04 481.182955 221.04 481.182955 221.04 
z
"/>
  </clipPath>
 </defs>
</svg>
