<?xml version="1.0" encoding="utf-8" standalone="no"?>
<!DOCTYPE svg PUBLIC "-//W3C//DTD SVG 1.1//EN"
  "http://www.w3.org/Graphics/SVG/1.1/DTD/svg11.dtd">
<svg xmlns:xlink="http://www.w3.org/1999/xlink" width="640.8pt" height="352.8pt" viewBox="0 0 640.8 352.8" xmlns="http://www.w3.org/2000/svg" version="1.1">
 <metadata>
  <rdf:RDF xmlns:dc="http://purl.org/dc/elements/1.1/" xmlns:cc="http://creativecommons.org/ns#" xmlns:rdf="http://www.w3.org/1999/02/22-rdf-syntax-ns#">
   <cc:Work>
    <dc:type rdf:resource="http://purl.org/dc/dcmitype/StillImage"/>
    <dc:date>2026-06-19T16:33:27.229218</dc:date>
    <dc:format>image/svg+xml</dc:format>
    <dc:creator>
     <cc:Agent>
      <dc:title>Matplotlib v3.11.0, https://matplotlib.org/</dc:title>
     </cc:Agent>
    </dc:creator>
   </cc:Work>
  </rdf:RDF>
 </metadata>
 <defs>
  <style type="text/css">*{stroke-linejoin: round; stroke-linecap: butt}</style>
 </defs>
 <g id="figure_1">
  <g id="patch_1">
   <path d="M 0 352.8 
L 640.8 352.8 
L 640.8 0 
L 0 0 
z
" style="fill: #ffffff"/>
  </g>
  <g id="axes_1">
   <g id="patch_2">
    <path d="M 38.52 97.946122 
L 151.272 97.946122 
Q 157.536 97.946122 157.536 94.458039 
L 157.536 45.62488 
Q 157.536 42.136798 151.272 42.136798 
L 38.52 42.136798 
Q 32.256 42.136798 32.256 45.62488 
L 32.256 94.458039 
Q 32.256 97.946122 38.52 97.946122 
z
" clip-path="url(#pa86bb1eb81)" style="fill: #4b6f8a; opacity: 0.25; stroke: #4b6f8a; stroke-width: 1.5; stroke-linejoin: miter"/>
   </g>
   <g id="patch_3">
    <path d="M 176.328 90.969957 
L 276.552 90.969957 
Q 282.816 90.969957 282.816 87.481874 
L 282.816 45.62488 
Q 282.816 42.136798 276.552 42.136798 
L 176.328 42.136798 
Q 170.064 42.136798 170.064 45.62488 
L 170.064 87.481874 
Q 170.064 90.969957 176.328 90.969957 
z
" clip-path="url(#pa86bb1eb81)" style="fill: #ffffff; stroke: #4b6f8a; stroke-linejoin: miter"/>
   </g>
   <g id="patch_4">
    <path d="M 301.608 90.969957 
L 401.832 90.969957 
Q 408.096 90.969957 408.096 87.481874 
L 408.096 45.62488 
Q 408.096 42.136798 401.832 42.136798 
L 301.608 42.136798 
Q 295.344 42.136798 295.344 45.62488 
L 295.344 87.481874 
Q 295.344 90.969957 301.608 90.969957 
z
" clip-path="url(#pa86bb1eb81)" style="fill: #ffffff; stroke: #4b6f8a; stroke-linejoin: miter"/>
   </g>
   <g id="patch_5">
    <path d="M 426.888 90.969957 
L 527.112 90.969957 
Q 533.376 90.969957 533.376 87.481874 
L 533.376 45.62488 
Q 533.376 42.136798 527.112 42.136798 
L 426.888 42.136798 
Q 420.624 42.136798 420.624 45.62488 
L 420.624 87.481874 
Q 420.624 90.969957 426.888 90.969957 
z
" clip-path="url(#pa86bb1eb81)" style="fill: #ffffff; stroke: #4b6f8a; stroke-linejoin: miter"/>
   </g>
   <g id="patch_6">
    <path d="M 38.52 174.683943 
L 151.272 174.683943 
Q 157.536 174.683943 157.536 171.195861 
L 157.536 122.362702 
Q 157.536 118.874619 151.272 118.874619 
L 38.52 118.874619 
Q 32.256 118.874619 32.256 122.362702 
L 32.256 171.195861 
Q 32.256 174.683943 38.52 174.683943 
z
" clip-path="url(#pa86bb1eb81)" style="fill: #c47b45; opacity: 0.25; stroke: #c47b45; stroke-width: 1.5; stroke-linejoin: miter"/>
   </g>
   <g id="patch_7">
    <path d="M 176.328 167.707778 
L 276.552 167.707778 
Q 282.816 167.707778 282.816 164.219695 
L 282.816 122.362702 
Q 282.816 118.874619 276.552 118.874619 
L 176.328 118.874619 
Q 170.064 118.874619 170.064 122.362702 
L 170.064 164.219695 
Q 170.064 167.707778 176.328 167.707778 
z
" clip-path="url(#pa86bb1eb81)" style="fill: #ffffff; stroke: #c47b45; stroke-linejoin: miter"/>
   </g>
   <g id="patch_8">
    <path d="M 301.608 167.707778 
L 401.832 167.707778 
Q 408.096 167.707778 408.096 164.219695 
L 408.096 122.362702 
Q 408.096 118.874619 401.832 118.874619 
L 301.608 118.874619 
Q 295.344 118.874619 295.344 122.362702 
L 295.344 164.219695 
Q 295.344 167.707778 301.608 167.707778 
z
" clip-path="url(#pa86bb1eb81)" style="fill: #ffffff; stroke: #c47b45; stroke-linejoin: miter"/>
   </g>
   <g id="patch_9">
    <path d="M 426.888 167.707778 
L 527.112 167.707778 
Q 533.376 167.707778 533.376 164.219695 
L 533.376 122.362702 
Q 533.376 118.874619 527.112 118.874619 
L 426.888 118.874619 
Q 420.624 118.874619 420.624 122.362702 
L 420.624 164.219695 
Q 420.624 167.707778 426.888 167.707778 
z
" clip-path="url(#pa86bb1eb81)" style="fill: #ffffff; stroke: #c47b45; stroke-linejoin: miter"/>
   </g>
   <g id="patch_10">
    <path d="M 38.52 251.421765 
L 151.272 251.421765 
Q 157.536 251.421765 157.536 247.933682 
L 157.536 199.100523 
Q 157.536 195.61244 151.272 195.61244 
L 38.52 195.61244 
Q 32.256 195.61244 32.256 199.100523 
L 32.256 247.933682 
Q 32.256 251.421765 38.52 251.421765 
z
" clip-path="url(#pa86bb1eb81)" style="fill: #4f7c6a; opacity: 0.25; stroke: #4f7c6a; stroke-width: 1.5; stroke-linejoin: miter"/>
   </g>
   <g id="patch_11">
    <path d="M 176.328 244.445599 
L 276.552 244.445599 
Q 282.816 244.445599 282.816 240.957516 
L 282.816 199.100523 
Q 282.816 195.61244 276.552 195.61244 
L 176.328 195.61244 
Q 170.064 195.61244 170.064 199.100523 
L 170.064 240.957516 
Q 170.064 244.445599 176.328 244.445599 
z
" clip-path="url(#pa86bb1eb81)" style="fill: #ffffff; stroke: #4f7c6a; stroke-linejoin: miter"/>
   </g>
   <g id="patch_12">
    <path d="M 301.608 244.445599 
L 401.832 244.445599 
Q 408.096 244.445599 408.096 240.957516 
L 408.096 199.100523 
Q 408.096 195.61244 401.832 195.61244 
L 301.608 195.61244 
Q 295.344 195.61244 295.344 199.100523 
L 295.344 240.957516 
Q 295.344 244.445599 301.608 244.445599 
z
" clip-path="url(#pa86bb1eb81)" style="fill: #ffffff; stroke: #4f7c6a; stroke-linejoin: miter"/>
   </g>
   <g id="patch_13">
    <path d="M 426.888 244.445599 
L 527.112 244.445599 
Q 533.376 244.445599 533.376 240.957516 
L 533.376 199.100523 
Q 533.376 195.61244 527.112 195.61244 
L 426.888 195.61244 
Q 420.624 195.61244 420.624 199.100523 
L 420.624 240.957516 
Q 420.624 244.445599 426.888 244.445599 
z
" clip-path="url(#pa86bb1eb81)" style="fill: #ffffff; stroke: #4f7c6a; stroke-linejoin: miter"/>
   </g>
   <g id="patch_14">
    <path d="M 38.52 328.159586 
L 151.272 328.159586 
Q 157.536 328.159586 157.536 324.671503 
L 157.536 275.838344 
Q 157.536 272.350261 151.272 272.350261 
L 38.52 272.350261 
Q 32.256 272.350261 32.256 275.838344 
L 32.256 324.671503 
Q 32.256 328.159586 38.52 328.159586 
z
" clip-path="url(#pa86bb1eb81)" style="fill: #8b6f47; opacity: 0.25; stroke: #8b6f47; stroke-width: 1.5; stroke-linejoin: miter"/>
   </g>
   <g id="patch_15">
    <path d="M 176.328 321.18342 
L 276.552 321.18342 
Q 282.816 321.18342 282.816 317.695338 
L 282.816 275.838344 
Q 282.816 272.350261 276.552 272.350261 
L 176.328 272.350261 
Q 170.064 272.350261 170.064 275.838344 
L 170.064 317.695338 
Q 170.064 321.18342 176.328 321.18342 
z
" clip-path="url(#pa86bb1eb81)" style="fill: #ffffff; stroke: #8b6f47; stroke-linejoin: miter"/>
   </g>
   <g id="patch_16">
    <path d="M 301.608 321.18342 
L 401.832 321.18342 
Q 408.096 321.18342 408.096 317.695338 
L 408.096 275.838344 
Q 408.096 272.350261 401.832 272.350261 
L 301.608 272.350261 
Q 295.344 272.350261 295.344 275.838344 
L 295.344 317.695338 
Q 295.344 321.18342 301.608 321.18342 
z
" clip-path="url(#pa86bb1eb81)" style="fill: #ffffff; stroke: #8b6f47; stroke-linejoin: miter"/>
   </g>
   <g id="patch_17">
    <path d="M 426.888 321.18342 
L 527.112 321.18342 
Q 533.376 321.18342 533.376 317.695338 
L 533.376 275.838344 
Q 533.376 272.350261 527.112 272.350261 
L 426.888 272.350261 
Q 420.624 272.350261 420.624 275.838344 
L 420.624 317.695338 
Q 420.624 321.18342 426.888 321.18342 
z
" clip-path="url(#pa86bb1eb81)" style="fill: #ffffff; stroke: #8b6f47; stroke-linejoin: miter"/>
   </g>
   <g id="text_1">
    <text style="font-weight: 700; font-size: 9px; font-family: 'Arial', 'Helvetica', 'Liberation Sans', 'DejaVu Sans', sans-serif; text-anchor: middle; fill: #4b6f8a" x="94.896" y="68.882479" transform="rotate(-0 94.896 68.882479)">Asphalt</text>
   </g>
   <g id="text_2">
    <text style="font-size: 8px; font-family: 'Arial', 'Helvetica', 'Liberation Sans', 'DejaVu Sans', sans-serif; text-anchor: middle" x="226.44" y="68.62369" transform="rotate(-0 226.44 68.62369)">AC-13</text>
   </g>
   <g id="patch_18">
    <path d="M 153.269262 66.553377 
Q 163.797974 66.553377 174.326686 66.553377 
" style="fill: none; stroke: #4b6f8a; stroke-width: 0.8; stroke-linecap: round"/>
   </g>
   <g id="text_3">
    <text style="font-size: 8px; font-family: 'Arial', 'Helvetica', 'Liberation Sans', 'DejaVu Sans', sans-serif; text-anchor: middle" x="351.72" y="68.62369" transform="rotate(-0 351.72 68.62369)">SMA-13</text>
   </g>
   <g id="patch_19">
    <path d="M 153.267732 66.553377 
Q 226.439666 66.553377 299.611599 66.553377 
" style="fill: none; stroke: #4b6f8a; stroke-width: 0.8; stroke-linecap: round"/>
   </g>
   <g id="text_4">
    <text style="font-size: 8px; font-family: 'Arial', 'Helvetica', 'Liberation Sans', 'DejaVu Sans', sans-serif; text-anchor: middle" x="477" y="68.625955" transform="rotate(-0 477 68.625955)">OGFC</text>
   </g>
   <g id="patch_20">
    <path d="M 153.269644 66.553377 
Q 289.078889 66.553377 424.888134 66.553377 
" style="fill: none; stroke: #4b6f8a; stroke-width: 0.8; stroke-linecap: round"/>
   </g>
   <g id="text_5">
    <text style="font-weight: 700; font-size: 9px; font-family: 'Arial', 'Helvetica', 'Liberation Sans', 'DejaVu Sans', sans-serif; text-anchor: middle; fill: #c47b45" x="94.896" y="145.6203" transform="rotate(-0 94.896 145.6203)">Emulsifier</text>
   </g>
   <g id="text_6">
    <text style="font-size: 8px; font-family: 'Arial', 'Helvetica', 'Liberation Sans', 'DejaVu Sans', sans-serif; text-anchor: middle" x="226.44" y="145.361511" transform="rotate(-0 226.44 145.361511)">Cationic</text>
   </g>
   <g id="patch_21">
    <path d="M 153.269262 143.291198 
Q 163.797974 143.291198 174.326686 143.291198 
" style="fill: none; stroke: #c47b45; stroke-width: 0.8; stroke-linecap: round"/>
   </g>
   <g id="text_7">
    <text style="font-size: 8px; font-family: 'Arial', 'Helvetica', 'Liberation Sans', 'DejaVu Sans', sans-serif; text-anchor: middle" x="351.72" y="145.361511" transform="rotate(-0 351.72 145.361511)">Anionic</text>
   </g>
   <g id="patch_22">
    <path d="M 153.267732 143.291198 
Q 226.439666 143.291198 299.611599 143.291198 
" style="fill: none; stroke: #c47b45; stroke-width: 0.8; stroke-linecap: round"/>
   </g>
   <g id="text_8">
    <text style="font-size: 8px; font-family: 'Arial', 'Helvetica', 'Liberation Sans', 'DejaVu Sans', sans-serif; text-anchor: middle" x="477" y="145.361511" transform="rotate(-0 477 145.361511)">Non-ionic</text>
   </g>
   <g id="patch_23">
    <path d="M 153.269644 143.291198 
Q 289.078889 143.291198 424.888134 143.291198 
" style="fill: none; stroke: #c47b45; stroke-width: 0.8; stroke-linecap: round"/>
   </g>
   <g id="text_9">
    <text style="font-weight: 700; font-size: 9px; font-family: 'Arial', 'Helvetica', 'Liberation Sans', 'DejaVu Sans', sans-serif; text-anchor: middle; fill: #4f7c6a" x="94.896" y="222.358121" transform="rotate(-0 94.896 222.358121)">WER</text>
   </g>
   <g id="text_10">
    <text style="font-size: 8px; font-family: 'Arial', 'Helvetica', 'Liberation Sans', 'DejaVu Sans', sans-serif; text-anchor: middle" x="226.44" y="222.099332" transform="rotate(-0 226.44 222.099332)">E-51</text>
   </g>
   <g id="patch_24">
    <path d="M 153.269262 220.02902 
Q 163.797974 220.02902 174.326686 220.02902 
" style="fill: none; stroke: #4f7c6a; stroke-width: 0.8; stroke-linecap: round"/>
   </g>
   <g id="text_11">
    <text style="font-size: 8px; font-family: 'Arial', 'Helvetica', 'Liberation Sans', 'DejaVu Sans', sans-serif; text-anchor: middle" x="351.72" y="222.099332" transform="rotate(-0 351.72 222.099332)">E-44</text>
   </g>
   <g id="patch_25">
    <path d="M 153.267732 220.02902 
Q 226.439666 220.02902 299.611599 220.02902 
" style="fill: none; stroke: #4f7c6a; stroke-width: 0.8; stroke-linecap: round"/>
   </g>
   <g id="text_12">
    <text style="font-size: 8px; font-family: 'Arial', 'Helvetica', 'Liberation Sans', 'DejaVu Sans', sans-serif; text-anchor: middle" x="477" y="222.099332" transform="rotate(-0 477 222.099332)">PEG-modified</text>
   </g>
   <g id="patch_26">
    <path d="M 153.269644 220.02902 
Q 289.078889 220.02902 424.888134 220.02902 
" style="fill: none; stroke: #4f7c6a; stroke-width: 0.8; stroke-linecap: round"/>
   </g>
   <g id="text_13">
    <text style="font-weight: 700; font-size: 9px; font-family: 'Arial', 'Helvetica', 'Liberation Sans', 'DejaVu Sans', sans-serif; text-anchor: middle; fill: #8b6f47" x="94.896" y="299.095855" transform="rotate(-0 94.896 299.095855)">Curing agent</text>
   </g>
   <g id="text_14">
    <text style="font-size: 8px; font-family: 'Arial', 'Helvetica', 'Liberation Sans', 'DejaVu Sans', sans-serif; text-anchor: middle" x="226.44" y="298.837075" transform="rotate(-0 226.44 298.837075)">Polyamine</text>
   </g>
   <g id="patch_27">
    <path d="M 153.269262 296.766841 
Q 163.797974 296.766841 174.326686 296.766841 
" style="fill: none; stroke: #8b6f47; stroke-width: 0.8; stroke-linecap: round"/>
   </g>
   <g id="text_15">
    <text style="font-size: 8px; font-family: 'Arial', 'Helvetica', 'Liberation Sans', 'DejaVu Sans', sans-serif; text-anchor: middle" x="351.72" y="298.837153" transform="rotate(-0 351.72 298.837153)">Imidazole</text>
   </g>
   <g id="patch_28">
    <path d="M 153.267732 296.766841 
Q 226.439666 296.766841 299.611599 296.766841 
" style="fill: none; stroke: #8b6f47; stroke-width: 0.8; stroke-linecap: round"/>
   </g>
   <g id="text_16">
    <text style="font-size: 8px; font-family: 'Arial', 'Helvetica', 'Liberation Sans', 'DejaVu Sans', sans-serif; text-anchor: middle" x="477" y="298.837075" transform="rotate(-0 477 298.837075)">Acrylic</text>
   </g>
   <g id="patch_29">
    <path d="M 153.269644 296.766841 
Q 289.078889 296.766841 424.888134 296.766841 
" style="fill: none; stroke: #8b6f47; stroke-width: 0.8; stroke-linecap: round"/>
   </g>
   <g id="text_17">
    <text style="font-size: 11px; font-family: 'Arial', 'Helvetica', 'Liberation Sans', 'DejaVu Sans', sans-serif; text-anchor: middle" x="320.4" y="15.208301" transform="rotate(-0 320.4 15.208301)">WER-EA material system map</text>
   </g>
  </g>
 </g>
 <defs>
  <clipPath id="pa86bb1eb81">
   <rect x="7.2" y="21.208301" width="626.4" height="324.391699"/>
  </clipPath>
 </defs>
</svg>
