<?xml version="1.0" encoding="utf-8" standalone="no"?>
<!DOCTYPE svg PUBLIC "-//W3C//DTD SVG 1.1//EN"
  "http://www.w3.org/Graphics/SVG/1.1/DTD/svg11.dtd">
<svg xmlns:xlink="http://www.w3.org/1999/xlink" width="532.336992pt" height="338.400156pt" viewBox="0 0 532.336992 338.400156" xmlns="http://www.w3.org/2000/svg" version="1.1">
 <metadata>
  <rdf:RDF xmlns:dc="http://purl.org/dc/elements/1.1/" xmlns:cc="http://creativecommons.org/ns#" xmlns:rdf="http://www.w3.org/1999/02/22-rdf-syntax-ns#">
   <cc:Work>
    <dc:type rdf:resource="http://purl.org/dc/dcmitype/StillImage"/>
    <dc:date>2026-06-19T17:17:43.832680</dc:date>
    <dc:format>image/svg+xml</dc:format>
    <dc:creator>
     <cc:Agent>
      <dc:title>Matplotlib v3.11.0, https://matplotlib.org/</dc:title>
     </cc:Agent>
    </dc:creator>
   </cc:Work>
  </rdf:RDF>
 </metadata>
 <defs>
  <style type="text/css">*{stroke-linejoin: round; stroke-linecap: butt}</style>
 </defs>
 <g id="figure_1">
  <g id="patch_1">
   <path d="M 0 338.400156 
L 532.336992 338.400156 
L 532.336992 0 
L 0 0 
z
" style="fill: #ffffff"/>
  </g>
  <g id="axes_1">
   <g id="patch_2">
    <path d="M 42.599492 306.785937 
L 525.136992 306.785937 
L 525.136992 21.208301 
L 42.599492 21.208301 
z
" style="fill: #ffffff"/>
   </g>
   <g id="patch_3">
    <path d="M 64.533015 306.785937 
L 99.552925 306.785937 
L 99.552925 138.159142 
L 64.533015 138.159142 
z
" clip-path="url(#pcbeef32dec)" style="fill: #4b6f8a; stroke: #4f7c6a; stroke-width: 1.2; stroke-linejoin: miter"/>
   </g>
   <g id="patch_4">
    <path d="M 99.552925 306.785937 
L 134.572835 306.785937 
L 134.572835 75.604041 
L 99.552925 75.604041 
z
" clip-path="url(#pcbeef32dec)" style="fill: #c47b45; stroke: #4f7c6a; stroke-width: 1.2; stroke-linejoin: miter"/>
   </g>
   <g id="patch_5">
    <path d="M 156.690673 306.785937 
L 191.710584 306.785937 
L 191.710584 149.038291 
L 156.690673 149.038291 
z
" clip-path="url(#pcbeef32dec)" style="fill: #4b6f8a; stroke: #4f7c6a; stroke-width: 1.2; stroke-linejoin: miter"/>
   </g>
   <g id="patch_6">
    <path d="M 191.710584 306.785937 
L 226.730494 306.785937 
L 226.730494 89.202976 
L 191.710584 89.202976 
z
" clip-path="url(#pcbeef32dec)" style="fill: #c47b45; stroke: #4f7c6a; stroke-width: 1.2; stroke-linejoin: miter"/>
   </g>
   <g id="patch_7">
    <path d="M 248.848332 306.785937 
L 283.868242 306.785937 
L 283.868242 184.395522 
L 248.848332 184.395522 
z
" clip-path="url(#pcbeef32dec)" style="fill: #4b6f8a; stroke: #4b6f8a; stroke-width: 1.2; stroke-linejoin: miter"/>
   </g>
   <g id="patch_8">
    <path d="M 283.868242 306.785937 
L 318.888152 306.785937 
L 318.888152 110.961272 
L 283.868242 110.961272 
z
" clip-path="url(#pcbeef32dec)" style="fill: #c47b45; stroke: #4b6f8a; stroke-width: 1.2; stroke-linejoin: miter"/>
   </g>
   <g id="patch_9">
    <path d="M 341.00599 306.785937 
L 376.025901 306.785937 
L 376.025901 157.197652 
L 341.00599 157.197652 
z
" clip-path="url(#pcbeef32dec)" style="fill: #4b6f8a; stroke: #c47b45; stroke-width: 1.2; stroke-linejoin: miter"/>
   </g>
   <g id="patch_10">
    <path d="M 376.025901 306.785937 
L 411.045811 306.785937 
L 411.045811 94.64255 
L 376.025901 94.64255 
z
" clip-path="url(#pcbeef32dec)" style="fill: #c47b45; stroke: #c47b45; stroke-width: 1.2; stroke-linejoin: miter"/>
   </g>
   <g id="patch_11">
    <path d="M 433.163649 306.785937 
L 468.183559 306.785937 
L 468.183559 170.796587 
L 433.163649 170.796587 
z
" clip-path="url(#pcbeef32dec)" style="fill: url(#h62960a54ec); stroke: #8c8c8c; stroke-width: 0.7; stroke-linejoin: miter"/>
   </g>
   <g id="patch_12">
    <path d="M 468.183559 306.785937 
L 503.203469 306.785937 
L 503.203469 170.796587 
L 468.183559 170.796587 
z
" clip-path="url(#pcbeef32dec)" style="fill: url(#h62960a54ec); stroke: #8c8c8c; stroke-width: 0.7; stroke-linejoin: miter"/>
   </g>
   <g id="matplotlib.axis_1">
    <g id="xtick_1">
     <g id="line2d_1">
      <defs>
       <path id="m4a788951c9" d="M 0 0 
L 0 3.5 
" style="stroke: #000000; stroke-width: 1.2"/>
      </defs>
      <g>
       <use xlink:href="#m4a788951c9" x="99.552925" y="306.785937" style="stroke: #000000; stroke-width: 1.2"/>
      </g>
     </g>
     <g id="text_1">
      <text style="font-size: 8px; font-family: 'Arial', 'Helvetica', 'Liberation Sans', 'DejaVu Sans', sans-serif; fill: #4f7c6a" transform="translate(89.03355 320.209766)">Water</text>
      <text style="font-size: 8px; font-family: 'Arial', 'Helvetica', 'Liberation Sans', 'DejaVu Sans', sans-serif; fill: #4f7c6a" transform="translate(79.5448 328.916797)">[measured]</text>
     </g>
    </g>
    <g id="xtick_2">
     <g id="line2d_2">
      <g>
       <use xlink:href="#m4a788951c9" x="191.710584" y="306.785937" style="stroke: #000000; stroke-width: 1.2"/>
      </g>
     </g>
     <g id="text_2">
      <text style="font-size: 8px; font-family: 'Arial', 'Helvetica', 'Liberation Sans', 'DejaVu Sans', sans-serif; fill: #4f7c6a" transform="translate(181.480584 320.209766)">Aging</text>
      <text style="font-size: 8px; font-family: 'Arial', 'Helvetica', 'Liberation Sans', 'DejaVu Sans', sans-serif; fill: #4f7c6a" transform="translate(171.702459 328.916953)">[measured]</text>
     </g>
    </g>
    <g id="xtick_3">
     <g id="line2d_3">
      <g>
       <use xlink:href="#m4a788951c9" x="283.868242" y="306.785937" style="stroke: #000000; stroke-width: 1.2"/>
      </g>
     </g>
     <g id="text_3">
      <text style="font-size: 8px; font-family: 'Arial', 'Helvetica', 'Liberation Sans', 'DejaVu Sans', sans-serif; fill: #4b6f8a" transform="translate(261.639492 320.209766)">Freeze-thaw</text>
      <text style="font-size: 8px; font-family: 'Arial', 'Helvetica', 'Liberation Sans', 'DejaVu Sans', sans-serif; fill: #4b6f8a" transform="translate(268.084492 328.916797)">[inferred]</text>
     </g>
    </g>
    <g id="xtick_4">
     <g id="line2d_4">
      <g>
       <use xlink:href="#m4a788951c9" x="376.025901" y="306.785937" style="stroke: #000000; stroke-width: 1.2"/>
      </g>
     </g>
     <g id="text_4">
      <text style="font-size: 8px; font-family: 'Arial', 'Helvetica', 'Liberation Sans', 'DejaVu Sans', sans-serif; fill: #c47b45" transform="translate(367.577151 320.209766)">Heat</text>
      <text style="font-size: 8px; font-family: 'Arial', 'Helvetica', 'Liberation Sans', 'DejaVu Sans', sans-serif; fill: #c47b45" transform="translate(353.792776 328.916797)">[speculative]</text>
     </g>
    </g>
    <g id="xtick_5">
     <g id="line2d_5">
      <g>
       <use xlink:href="#m4a788951c9" x="468.183559" y="306.785937" style="stroke: #000000; stroke-width: 1.2"/>
      </g>
     </g>
     <g id="text_5">
      <text style="font-size: 8px; font-family: 'Arial', 'Helvetica', 'Liberation Sans', 'DejaVu Sans', sans-serif; fill: #8c8c8c" transform="translate(457.293559 320.209766)">Traffic</text>
      <text style="font-size: 8px; font-family: 'Arial', 'Helvetica', 'Liberation Sans', 'DejaVu Sans', sans-serif; fill: #8c8c8c" transform="translate(452.402934 328.916797)">[missing]</text>
     </g>
    </g>
   </g>
   <g id="matplotlib.axis_2">
    <g id="ytick_1">
     <g id="line2d_6">
      <defs>
       <path id="m55c7388114" d="M 0 0 
L -3.5 0 
" style="stroke: #000000; stroke-width: 1.2"/>
      </defs>
      <g>
       <use xlink:href="#m55c7388114" x="42.599492" y="306.785937" style="stroke: #000000; stroke-width: 1.2"/>
      </g>
     </g>
     <g id="text_6">
      <text style="font-size: 9px; font-family: 'Arial', 'Helvetica', 'Liberation Sans', 'DejaVu Sans', sans-serif; text-anchor: end" x="35.599492" y="310.062061" transform="rotate(-0 35.599492 310.062061)">0</text>
     </g>
    </g>
    <g id="ytick_2">
     <g id="line2d_7">
      <g>
       <use xlink:href="#m55c7388114" x="42.599492" y="252.390197" style="stroke: #000000; stroke-width: 1.2"/>
      </g>
     </g>
     <g id="text_7">
      <text style="font-size: 9px; font-family: 'Arial', 'Helvetica', 'Liberation Sans', 'DejaVu Sans', sans-serif; text-anchor: end" x="35.599492" y="255.66632" transform="rotate(-0 35.599492 255.66632)">20</text>
     </g>
    </g>
    <g id="ytick_3">
     <g id="line2d_8">
      <g>
       <use xlink:href="#m55c7388114" x="42.599492" y="197.994457" style="stroke: #000000; stroke-width: 1.2"/>
      </g>
     </g>
     <g id="text_8">
      <text style="font-size: 9px; font-family: 'Arial', 'Helvetica', 'Liberation Sans', 'DejaVu Sans', sans-serif; text-anchor: end" x="35.599492" y="201.27058" transform="rotate(-0 35.599492 201.27058)">40</text>
     </g>
    </g>
    <g id="ytick_4">
     <g id="line2d_9">
      <g>
       <use xlink:href="#m55c7388114" x="42.599492" y="143.598717" style="stroke: #000000; stroke-width: 1.2"/>
      </g>
     </g>
     <g id="text_9">
      <text style="font-size: 9px; font-family: 'Arial', 'Helvetica', 'Liberation Sans', 'DejaVu Sans', sans-serif; text-anchor: end" x="35.599492" y="146.87484" transform="rotate(-0 35.599492 146.87484)">60</text>
     </g>
    </g>
    <g id="ytick_5">
     <g id="line2d_10">
      <g>
       <use xlink:href="#m55c7388114" x="42.599492" y="89.202976" style="stroke: #000000; stroke-width: 1.2"/>
      </g>
     </g>
     <g id="text_10">
      <text style="font-size: 9px; font-family: 'Arial', 'Helvetica', 'Liberation Sans', 'DejaVu Sans', sans-serif; text-anchor: end" x="35.599492" y="92.479099" transform="rotate(-0 35.599492 92.479099)">80</text>
     </g>
    </g>
    <g id="ytick_6">
     <g id="line2d_11">
      <g>
       <use xlink:href="#m55c7388114" x="42.599492" y="34.807236" style="stroke: #000000; stroke-width: 1.2"/>
      </g>
     </g>
     <g id="text_11">
      <text style="font-size: 9px; font-family: 'Arial', 'Helvetica', 'Liberation Sans', 'DejaVu Sans', sans-serif; text-anchor: end" x="35.599492" y="38.083359" transform="rotate(-0 35.599492 38.083359)">100</text>
     </g>
    </g>
    <g id="text_12">
     <text style="font-size: 10px; font-family: 'Arial', 'Helvetica', 'Liberation Sans', 'DejaVu Sans', sans-serif; text-anchor: middle" x="14.480273" y="163.997119" transform="rotate(-90 14.480273 163.997119)">Retention (%)</text>
    </g>
   </g>
   <g id="line2d_12">
    <path d="M 42.599492 116.400846 
L 525.136992 116.400846 
" clip-path="url(#pcbeef32dec)" style="fill: none; stroke-dasharray: 3.7,1.6; stroke-dashoffset: 0; stroke: #d4a574"/>
   </g>
   <g id="patch_13">
    <path d="M 42.599492 306.785937 
L 42.599492 21.208301 
" style="fill: none; stroke: #000000; stroke-width: 1.5; stroke-linejoin: miter; stroke-linecap: square"/>
   </g>
   <g id="patch_14">
    <path d="M 42.599492 306.785937 
L 525.136992 306.785937 
" style="fill: none; stroke: #000000; stroke-width: 1.5; stroke-linejoin: miter; stroke-linecap: square"/>
   </g>
   <g id="text_13">
    <text style="font-size: 7px; font-family: 'Arial', 'Helvetica', 'Liberation Sans', 'DejaVu Sans', sans-serif; text-anchor: middle; fill: #555555" x="468.183559" y="165.357013" transform="rotate(-0 468.183559 165.357013)">no data</text>
   </g>
   <g id="text_14">
    <text style="font-size: 11px; font-family: 'Arial', 'Helvetica', 'Liberation Sans', 'DejaVu Sans', sans-serif; text-anchor: middle" x="283.868242" y="15.208301" transform="rotate(-0 283.868242 15.208301)">Durability retention challenge map (tiered)</text>
   </g>
   <g id="legend_1">
    <g id="patch_15">
     <path d="M 47.499492 46.946973 
L 114.632773 46.946973 
Q 116.032773 46.946973 116.032773 45.546973 
L 116.032773 26.108301 
Q 116.032773 24.708301 114.632773 24.708301 
L 47.499492 24.708301 
Q 46.099492 24.708301 46.099492 26.108301 
L 46.099492 45.546973 
Q 46.099492 46.946973 47.499492 46.946973 
z
" style="fill: #ffffff; opacity: 0.9; stroke: #cccccc; stroke-linejoin: miter"/>
    </g>
    <g id="patch_16">
     <path d="M 48.899492 32.604492 
L 62.899492 32.604492 
L 62.899492 27.704492 
L 48.899492 27.704492 
z
" style="fill: #4b6f8a; stroke: #4b6f8a; stroke-linejoin: miter"/>
    </g>
    <g id="text_15">
     <text style="font-size: 7px; font-family: 'Arial', 'Helvetica', 'Liberation Sans', 'DejaVu Sans', sans-serif; text-anchor: start" x="68.499492" y="32.604492" transform="rotate(-0 68.499492 32.604492)">Control</text>
    </g>
    <g id="patch_17">
     <path d="M 48.899492 42.673828 
L 62.899492 42.673828 
L 62.899492 37.773828 
L 48.899492 37.773828 
z
" style="fill: #c47b45; stroke: #c47b45; stroke-linejoin: miter"/>
    </g>
    <g id="text_16">
     <text style="font-size: 7px; font-family: 'Arial', 'Helvetica', 'Liberation Sans', 'DejaVu Sans', sans-serif; text-anchor: start" x="68.499492" y="42.673828" transform="rotate(-0 68.499492 42.673828)">WER modified</text>
    </g>
   </g>
   <g id="legend_2">
    <g id="patch_18">
     <path d="M 462.818398 77.155117 
L 520.236992 77.155117 
Q 521.636992 77.155117 521.636992 75.755117 
L 521.636992 26.108301 
Q 521.636992 24.708301 520.236992 24.708301 
L 462.818398 24.708301 
Q 461.418398 24.708301 461.418398 26.108301 
L 461.418398 75.755117 
Q 461.418398 77.155117 462.818398 77.155117 
z
" style="fill: #ffffff; opacity: 0.9; stroke: #cccccc; stroke-linejoin: miter"/>
    </g>
    <g id="text_17">
     <text style="font-size: 7px; font-family: 'Arial', 'Helvetica', 'Liberation Sans', 'DejaVu Sans', sans-serif; text-anchor: start" x="471.684336" y="32.604492" transform="rotate(-0 471.684336 32.604492)">evidence tier</text>
    </g>
    <g id="line2d_13">
     <path d="M 464.218398 40.223828 
L 471.218398 40.223828 
L 478.218398 40.223828 
" style="fill: none; stroke: #000000; stroke-opacity: 0; stroke-width: 1.5; stroke-linecap: square"/>
     <defs>
      <path id="m5e3f4ee098" d="M -3.5 3.5 
L 3.5 3.5 
L 3.5 -3.5 
L -3.5 -3.5 
z
" style="stroke: #333333; stroke-linejoin: miter"/>
     </defs>
     <g>
      <use xlink:href="#m5e3f4ee098" x="471.218398" y="40.223828" style="fill: #4f7c6a; stroke: #333333; stroke-linejoin: miter"/>
     </g>
    </g>
    <g id="text_18">
     <text style="font-size: 7px; font-family: 'Arial', 'Helvetica', 'Liberation Sans', 'DejaVu Sans', sans-serif; text-anchor: start" x="483.818398" y="42.673828" transform="rotate(-0 483.818398 42.673828)">measured</text>
    </g>
    <g id="line2d_14">
     <path d="M 464.218398 50.293164 
L 471.218398 50.293164 
L 478.218398 50.293164 
" style="fill: none; stroke: #000000; stroke-opacity: 0; stroke-width: 1.5; stroke-linecap: square"/>
     <defs>
      <path id="m26772a52ce" d="M -3.5 3.5 
L 3.5 3.5 
L 3.5 -3.5 
L -3.5 -3.5 
z
" style="stroke: #333333; stroke-linejoin: miter"/>
     </defs>
     <g>
      <use xlink:href="#m26772a52ce" x="471.218398" y="50.293164" style="fill: #4b6f8a; stroke: #333333; stroke-linejoin: miter"/>
     </g>
    </g>
    <g id="text_19">
     <text style="font-size: 7px; font-family: 'Arial', 'Helvetica', 'Liberation Sans', 'DejaVu Sans', sans-serif; text-anchor: start" x="483.818398" y="52.743164" transform="rotate(-0 483.818398 52.743164)">inferred</text>
    </g>
    <g id="line2d_15">
     <path d="M 464.218398 60.3625 
L 471.218398 60.3625 
L 478.218398 60.3625 
" style="fill: none; stroke: #000000; stroke-opacity: 0; stroke-width: 1.5; stroke-linecap: square"/>
     <defs>
      <path id="m3dd89dcf0e" d="M -3.5 3.5 
L 3.5 3.5 
L 3.5 -3.5 
L -3.5 -3.5 
z
" style="stroke: #333333; stroke-linejoin: miter"/>
     </defs>
     <g>
      <use xlink:href="#m3dd89dcf0e" x="471.218398" y="60.3625" style="fill: #c47b45; stroke: #333333; stroke-linejoin: miter"/>
     </g>
    </g>
    <g id="text_20">
     <text style="font-size: 7px; font-family: 'Arial', 'Helvetica', 'Liberation Sans', 'DejaVu Sans', sans-serif; text-anchor: start" x="483.818398" y="62.8125" transform="rotate(-0 483.818398 62.8125)">speculative</text>
    </g>
    <g id="line2d_16">
     <path d="M 464.218398 70.431836 
L 471.218398 70.431836 
L 478.218398 70.431836 
" style="fill: none; stroke: #000000; stroke-opacity: 0; stroke-width: 1.5; stroke-linecap: square"/>
     <defs>
      <path id="m145987641e" d="M -3.5 3.5 
L 3.5 3.5 
L 3.5 -3.5 
L -3.5 -3.5 
z
" style="stroke: #333333; stroke-linejoin: miter"/>
     </defs>
     <g>
      <use xlink:href="#m145987641e" x="471.218398" y="70.431836" style="fill: #8c8c8c; stroke: #333333; stroke-linejoin: miter"/>
     </g>
    </g>
    <g id="text_21">
     <text style="font-size: 7px; font-family: 'Arial', 'Helvetica', 'Liberation Sans', 'DejaVu Sans', sans-serif; text-anchor: start" x="483.818398" y="72.881836" transform="rotate(-0 483.818398 72.881836)">missing</text>
    </g>
   </g>
  </g>
 </g>
 <defs>
  <clipPath id="pcbeef32dec">
   <rect x="42.599492" y="21.208301" width="482.5375" height="285.577637"/>
  </clipPath>
 </defs>
 <defs>
  <pattern id="h62960a54ec" patternUnits="userSpaceOnUse" x="0" y="0" width="72" height="72">
   <rect x="0" y="0" width="73" height="73" fill="none"/>
   <path d="M -36 36 
L 36 -36 
M -30 42 
L 42 -30 
M -24 48 
L 48 -24 
M -18 54 
L 54 -18 
M -12 60 
L 60 -12 
M -6 66 
L 66 -6 
M 0 72 
L 72 0 
M 6 78 
L 78 6 
M 12 84 
L 84 12 
M 18 90 
L 90 18 
M 24 96 
L 96 24 
M 30 102 
L 102 30 
M 36 108 
L 108 36 
" style="fill: #8c8c8c; stroke: #8c8c8c; stroke-width: 1.0; stroke-linecap: butt; stroke-linejoin: miter"/>
  </pattern>
 </defs>
</svg>
