<?xml version="1.0" encoding="utf-8" standalone="no"?>
<!DOCTYPE svg PUBLIC "-//W3C//DTD SVG 1.1//EN"
  "http://www.w3.org/Graphics/SVG/1.1/DTD/svg11.dtd">
<svg xmlns:xlink="http://www.w3.org/1999/xlink" width="511.129688pt" height="351.794707pt" viewBox="0 0 511.129688 351.794707" xmlns="http://www.w3.org/2000/svg" version="1.1">
 <metadata>
  <rdf:RDF xmlns:dc="http://purl.org/dc/elements/1.1/" xmlns:cc="http://creativecommons.org/ns#" xmlns:rdf="http://www.w3.org/1999/02/22-rdf-syntax-ns#">
   <cc:Work>
    <dc:type rdf:resource="http://purl.org/dc/dcmitype/StillImage"/>
    <dc:date>2026-06-19T17:17:39.815594</dc:date>
    <dc:format>image/svg+xml</dc:format>
    <dc:creator>
     <cc:Agent>
      <dc:title>Matplotlib v3.11.0, https://matplotlib.org/</dc:title>
     </cc:Agent>
    </dc:creator>
   </cc:Work>
  </rdf:RDF>
 </metadata>
 <defs>
  <style type="text/css">*{stroke-linejoin: round; stroke-linecap: butt}</style>
 </defs>
 <g id="figure_1">
  <g id="patch_1">
   <path d="M 0 351.794707 
L 511.129688 351.794707 
L 511.129688 0 
L 0 0 
z
" style="fill: #ffffff"/>
  </g>
  <g id="axes_1">
   <g id="patch_2">
    <path d="M 37.594453 315.763457 
L 503.929688 315.763457 
L 503.929688 21.208301 
L 37.594453 21.208301 
z
" style="fill: #ffffff"/>
   </g>
   <g id="PathCollection_1">
    <defs>
     <path id="m447ddcc073" d="M 0 13.874437 
C 3.679544 13.874437 7.208878 12.412539 9.810708 9.810708 
C 12.412539 7.208878 13.874437 3.679544 13.874437 0 
C 13.874437 -3.679544 12.412539 -7.208878 9.810708 -9.810708 
C 7.208878 -12.412539 3.679544 -13.874437 0 -13.874437 
C -3.679544 -13.874437 -7.208878 -12.412539 -9.810708 -9.810708 
C -12.412539 -7.208878 -13.874437 -3.679544 -13.874437 0 
C -13.874437 3.679544 -12.412539 7.208878 -9.810708 9.810708 
C -7.208878 12.412539 -3.679544 13.874437 0 13.874437 
z
" style="stroke: #333333; stroke-opacity: 0.75; stroke-width: 0.7"/>
    </defs>
    <g clip-path="url(#p2a9577b53f)">
     <use xlink:href="#m447ddcc073" x="216.954159" y="199.311419" style="fill: #4f7c6a; fill-opacity: 0.75; stroke: #333333; stroke-opacity: 0.75; stroke-width: 0.7"/>
    </g>
   </g>
   <g id="PathCollection_2">
    <defs>
     <path id="mf4d8dea6fb" d="M 0 15.198684 
C 4.030738 15.198684 7.89693 13.597255 10.747093 10.747093 
C 13.597255 7.89693 15.198684 4.030738 15.198684 0 
C 15.198684 -4.030738 13.597255 -7.89693 10.747093 -10.747093 
C 7.89693 -13.597255 4.030738 -15.198684 0 -15.198684 
C -4.030738 -15.198684 -7.89693 -13.597255 -10.747093 -10.747093 
C -13.597255 -7.89693 -15.198684 -4.030738 -15.198684 0 
C -15.198684 4.030738 -13.597255 7.89693 -10.747093 10.747093 
C -7.89693 13.597255 -4.030738 15.198684 0 15.198684 
z
" style="stroke: #333333; stroke-opacity: 0.75; stroke-width: 0.7"/>
    </defs>
    <g clip-path="url(#p2a9577b53f)">
     <use xlink:href="#mf4d8dea6fb" x="166.733441" y="247.262258" style="fill: #4b6f8a; fill-opacity: 0.75; stroke: #333333; stroke-opacity: 0.75; stroke-width: 0.7"/>
    </g>
   </g>
   <g id="PathCollection_3">
    <defs>
     <path id="m8c1cb46e55" d="M 0 12.409674 
C 3.291084 12.409674 6.447817 11.102112 8.774964 8.774964 
C 11.102112 6.447817 12.409674 3.291084 12.409674 0 
C 12.409674 -3.291084 11.102112 -6.447817 8.774964 -8.774964 
C 6.447817 -11.102112 3.291084 -12.409674 0 -12.409674 
C -3.291084 -12.409674 -6.447817 -11.102112 -8.774964 -8.774964 
C -11.102112 -6.447817 -12.409674 -3.291084 -12.409674 0 
C -12.409674 3.291084 -11.102112 6.447817 -8.774964 8.774964 
C -6.447817 11.102112 -3.291084 12.409674 0 12.409674 
z
" style="stroke: #333333; stroke-opacity: 0.75; stroke-width: 0.7"/>
    </defs>
    <g clip-path="url(#p2a9577b53f)">
     <use xlink:href="#m8c1cb46e55" x="267.174876" y="158.210699" style="fill: #4f7c6a; fill-opacity: 0.75; stroke: #333333; stroke-opacity: 0.75; stroke-width: 0.7"/>
    </g>
   </g>
   <g id="PathCollection_4">
    <defs>
     <path id="mf39612818b" d="M 0 10.488088 
C 2.781474 10.488088 5.4494 9.382997 7.416198 7.416198 
C 9.382997 5.4494 10.488088 2.781474 10.488088 0 
C 10.488088 -2.781474 9.382997 -5.4494 7.416198 -7.416198 
C 5.4494 -9.382997 2.781474 -10.488088 0 -10.488088 
C -2.781474 -10.488088 -5.4494 -9.382997 -7.416198 -7.416198 
C -9.382997 -5.4494 -10.488088 -2.781474 -10.488088 0 
C -10.488088 2.781474 -9.382997 5.4494 -7.416198 7.416198 
C -5.4494 9.382997 -2.781474 10.488088 0 10.488088 
z
" style="stroke: #333333; stroke-opacity: 0.75; stroke-width: 0.7"/>
    </defs>
    <g clip-path="url(#p2a9577b53f)">
     <use xlink:href="#mf39612818b" x="324.569982" y="110.25986" style="fill: #4b6f8a; fill-opacity: 0.75; stroke: #333333; stroke-opacity: 0.75; stroke-width: 0.7"/>
    </g>
   </g>
   <g id="PathCollection_5">
    <defs>
     <path id="mee8d29f60d" d="M 0 9.082951 
C 2.408827 9.082951 4.719319 8.125914 6.422616 6.422616 
C 8.125914 4.719319 9.082951 2.408827 9.082951 0 
C 9.082951 -2.408827 8.125914 -4.719319 6.422616 -6.422616 
C 4.719319 -8.125914 2.408827 -9.082951 0 -9.082951 
C -2.408827 -9.082951 -4.719319 -8.125914 -6.422616 -6.422616 
C -8.125914 -4.719319 -9.082951 -2.408827 -9.082951 0 
C -9.082951 2.408827 -8.125914 4.719319 -6.422616 6.422616 
C -4.719319 8.125914 -2.408827 9.082951 0 9.082951 
z
" style="stroke: #333333; stroke-opacity: 0.75; stroke-width: 0.7"/>
    </defs>
    <g clip-path="url(#p2a9577b53f)">
     <use xlink:href="#mee8d29f60d" x="396.313864" y="76.00926" style="fill: #4f7c6a; fill-opacity: 0.75; stroke: #333333; stroke-opacity: 0.75; stroke-width: 0.7"/>
    </g>
   </g>
   <g id="matplotlib.axis_1">
    <g id="xtick_1">
     <g id="line2d_1">
      <path d="M 37.594453 315.763457 
L 37.594453 21.208301 
" clip-path="url(#p2a9577b53f)" style="fill: none; stroke: #e8e2d6; stroke-opacity: 0.7; stroke-width: 0.7; stroke-linecap: square"/>
     </g>
     <g id="line2d_2">
      <defs>
       <path id="m70182d7448" d="M 0 0 
L 0 3.5 
" style="stroke: #000000; stroke-width: 1.2"/>
      </defs>
      <g>
       <use xlink:href="#m70182d7448" x="37.594453" y="315.763457" style="stroke: #000000; stroke-width: 1.2"/>
      </g>
     </g>
     <g id="text_1">
      <text style="font-size: 9px; font-family: 'Arial', 'Helvetica', 'Liberation Sans', 'DejaVu Sans', sans-serif; text-anchor: middle" x="37.594453" y="329.315703" transform="rotate(-0 37.594453 329.315703)">0.3</text>
     </g>
    </g>
    <g id="xtick_2">
     <g id="line2d_3">
      <path d="M 109.338335 315.763457 
L 109.338335 21.208301 
" clip-path="url(#p2a9577b53f)" style="fill: none; stroke: #e8e2d6; stroke-opacity: 0.7; stroke-width: 0.7; stroke-linecap: square"/>
     </g>
     <g id="line2d_4">
      <g>
       <use xlink:href="#m70182d7448" x="109.338335" y="315.763457" style="stroke: #000000; stroke-width: 1.2"/>
      </g>
     </g>
     <g id="text_2">
      <text style="font-size: 9px; font-family: 'Arial', 'Helvetica', 'Liberation Sans', 'DejaVu Sans', sans-serif; text-anchor: middle" x="109.338335" y="329.315703" transform="rotate(-0 109.338335 329.315703)">0.4</text>
     </g>
    </g>
    <g id="xtick_3">
     <g id="line2d_5">
      <path d="M 181.082218 315.763457 
L 181.082218 21.208301 
" clip-path="url(#p2a9577b53f)" style="fill: none; stroke: #e8e2d6; stroke-opacity: 0.7; stroke-width: 0.7; stroke-linecap: square"/>
     </g>
     <g id="line2d_6">
      <g>
       <use xlink:href="#m70182d7448" x="181.082218" y="315.763457" style="stroke: #000000; stroke-width: 1.2"/>
      </g>
     </g>
     <g id="text_3">
      <text style="font-size: 9px; font-family: 'Arial', 'Helvetica', 'Liberation Sans', 'DejaVu Sans', sans-serif; text-anchor: middle" x="181.082218" y="329.315703" transform="rotate(-0 181.082218 329.315703)">0.5</text>
     </g>
    </g>
    <g id="xtick_4">
     <g id="line2d_7">
      <path d="M 252.8261 315.763457 
L 252.8261 21.208301 
" clip-path="url(#p2a9577b53f)" style="fill: none; stroke: #e8e2d6; stroke-opacity: 0.7; stroke-width: 0.7; stroke-linecap: square"/>
     </g>
     <g id="line2d_8">
      <g>
       <use xlink:href="#m70182d7448" x="252.8261" y="315.763457" style="stroke: #000000; stroke-width: 1.2"/>
      </g>
     </g>
     <g id="text_4">
      <text style="font-size: 9px; font-family: 'Arial', 'Helvetica', 'Liberation Sans', 'DejaVu Sans', sans-serif; text-anchor: middle" x="252.8261" y="329.315703" transform="rotate(-0 252.8261 329.315703)">0.6</text>
     </g>
    </g>
    <g id="xtick_5">
     <g id="line2d_9">
      <path d="M 324.569982 315.763457 
L 324.569982 21.208301 
" clip-path="url(#p2a9577b53f)" style="fill: none; stroke: #e8e2d6; stroke-opacity: 0.7; stroke-width: 0.7; stroke-linecap: square"/>
     </g>
     <g id="line2d_10">
      <g>
       <use xlink:href="#m70182d7448" x="324.569982" y="315.763457" style="stroke: #000000; stroke-width: 1.2"/>
      </g>
     </g>
     <g id="text_5">
      <text style="font-size: 9px; font-family: 'Arial', 'Helvetica', 'Liberation Sans', 'DejaVu Sans', sans-serif; text-anchor: middle" x="324.569982" y="329.315703" transform="rotate(-0 324.569982 329.315703)">0.7</text>
     </g>
    </g>
    <g id="xtick_6">
     <g id="line2d_11">
      <path d="M 396.313864 315.763457 
L 396.313864 21.208301 
" clip-path="url(#p2a9577b53f)" style="fill: none; stroke: #e8e2d6; stroke-opacity: 0.7; stroke-width: 0.7; stroke-linecap: square"/>
     </g>
     <g id="line2d_12">
      <g>
       <use xlink:href="#m70182d7448" x="396.313864" y="315.763457" style="stroke: #000000; stroke-width: 1.2"/>
      </g>
     </g>
     <g id="text_6">
      <text style="font-size: 9px; font-family: 'Arial', 'Helvetica', 'Liberation Sans', 'DejaVu Sans', sans-serif; text-anchor: middle" x="396.313864" y="329.315703" transform="rotate(-0 396.313864 329.315703)">0.8</text>
     </g>
    </g>
    <g id="xtick_7">
     <g id="line2d_13">
      <path d="M 468.057746 315.763457 
L 468.057746 21.208301 
" clip-path="url(#p2a9577b53f)" style="fill: none; stroke: #e8e2d6; stroke-opacity: 0.7; stroke-width: 0.7; stroke-linecap: square"/>
     </g>
     <g id="line2d_14">
      <g>
       <use xlink:href="#m70182d7448" x="468.057746" y="315.763457" style="stroke: #000000; stroke-width: 1.2"/>
      </g>
     </g>
     <g id="text_7">
      <text style="font-size: 9px; font-family: 'Arial', 'Helvetica', 'Liberation Sans', 'DejaVu Sans', sans-serif; text-anchor: middle" x="468.057746" y="329.315703" transform="rotate(-0 468.057746 329.315703)">0.9</text>
     </g>
    </g>
    <g id="text_8">
     <text style="font-size: 10px; font-family: 'Arial', 'Helvetica', 'Liberation Sans', 'DejaVu Sans', sans-serif; text-anchor: middle" x="270.76207" y="342.49002" transform="rotate(-0 270.76207 342.49002)">Mechanism understanding score</text>
    </g>
   </g>
   <g id="matplotlib.axis_2">
    <g id="ytick_1">
     <g id="line2d_15">
      <path d="M 37.594453 315.763457 
L 503.929688 315.763457 
" clip-path="url(#p2a9577b53f)" style="fill: none; stroke: #e8e2d6; stroke-opacity: 0.7; stroke-width: 0.7; stroke-linecap: square"/>
     </g>
     <g id="line2d_16">
      <defs>
       <path id="me35d611b49" d="M 0 0 
L -3.5 0 
" style="stroke: #000000; stroke-width: 1.2"/>
      </defs>
      <g>
       <use xlink:href="#me35d611b49" x="37.594453" y="315.763457" style="stroke: #000000; stroke-width: 1.2"/>
      </g>
     </g>
     <g id="text_9">
      <text style="font-size: 9px; font-family: 'Arial', 'Helvetica', 'Liberation Sans', 'DejaVu Sans', sans-serif; text-anchor: end" x="30.594453" y="319.03958" transform="rotate(-0 30.594453 319.03958)">55</text>
     </g>
    </g>
    <g id="ytick_2">
     <g id="line2d_17">
      <path d="M 37.594453 281.512857 
L 503.929688 281.512857 
" clip-path="url(#p2a9577b53f)" style="fill: none; stroke: #e8e2d6; stroke-opacity: 0.7; stroke-width: 0.7; stroke-linecap: square"/>
     </g>
     <g id="line2d_18">
      <g>
       <use xlink:href="#me35d611b49" x="37.594453" y="281.512857" style="stroke: #000000; stroke-width: 1.2"/>
      </g>
     </g>
     <g id="text_10">
      <text style="font-size: 9px; font-family: 'Arial', 'Helvetica', 'Liberation Sans', 'DejaVu Sans', sans-serif; text-anchor: end" x="30.594453" y="284.788981" transform="rotate(-0 30.594453 284.788981)">60</text>
     </g>
    </g>
    <g id="ytick_3">
     <g id="line2d_19">
      <path d="M 37.594453 247.262258 
L 503.929688 247.262258 
" clip-path="url(#p2a9577b53f)" style="fill: none; stroke: #e8e2d6; stroke-opacity: 0.7; stroke-width: 0.7; stroke-linecap: square"/>
     </g>
     <g id="line2d_20">
      <g>
       <use xlink:href="#me35d611b49" x="37.594453" y="247.262258" style="stroke: #000000; stroke-width: 1.2"/>
      </g>
     </g>
     <g id="text_11">
      <text style="font-size: 9px; font-family: 'Arial', 'Helvetica', 'Liberation Sans', 'DejaVu Sans', sans-serif; text-anchor: end" x="30.594453" y="250.538381" transform="rotate(-0 30.594453 250.538381)">65</text>
     </g>
    </g>
    <g id="ytick_4">
     <g id="line2d_21">
      <path d="M 37.594453 213.011658 
L 503.929688 213.011658 
" clip-path="url(#p2a9577b53f)" style="fill: none; stroke: #e8e2d6; stroke-opacity: 0.7; stroke-width: 0.7; stroke-linecap: square"/>
     </g>
     <g id="line2d_22">
      <g>
       <use xlink:href="#me35d611b49" x="37.594453" y="213.011658" style="stroke: #000000; stroke-width: 1.2"/>
      </g>
     </g>
     <g id="text_12">
      <text style="font-size: 9px; font-family: 'Arial', 'Helvetica', 'Liberation Sans', 'DejaVu Sans', sans-serif; text-anchor: end" x="30.594453" y="216.287781" transform="rotate(-0 30.594453 216.287781)">70</text>
     </g>
    </g>
    <g id="ytick_5">
     <g id="line2d_23">
      <path d="M 37.594453 178.761059 
L 503.929688 178.761059 
" clip-path="url(#p2a9577b53f)" style="fill: none; stroke: #e8e2d6; stroke-opacity: 0.7; stroke-width: 0.7; stroke-linecap: square"/>
     </g>
     <g id="line2d_24">
      <g>
       <use xlink:href="#me35d611b49" x="37.594453" y="178.761059" style="stroke: #000000; stroke-width: 1.2"/>
      </g>
     </g>
     <g id="text_13">
      <text style="font-size: 9px; font-family: 'Arial', 'Helvetica', 'Liberation Sans', 'DejaVu Sans', sans-serif; text-anchor: end" x="30.594453" y="182.037182" transform="rotate(-0 30.594453 182.037182)">75</text>
     </g>
    </g>
    <g id="ytick_6">
     <g id="line2d_25">
      <path d="M 37.594453 144.510459 
L 503.929688 144.510459 
" clip-path="url(#p2a9577b53f)" style="fill: none; stroke: #e8e2d6; stroke-opacity: 0.7; stroke-width: 0.7; stroke-linecap: square"/>
     </g>
     <g id="line2d_26">
      <g>
       <use xlink:href="#me35d611b49" x="37.594453" y="144.510459" style="stroke: #000000; stroke-width: 1.2"/>
      </g>
     </g>
     <g id="text_14">
      <text style="font-size: 9px; font-family: 'Arial', 'Helvetica', 'Liberation Sans', 'DejaVu Sans', sans-serif; text-anchor: end" x="30.594453" y="147.786582" transform="rotate(-0 30.594453 147.786582)">80</text>
     </g>
    </g>
    <g id="ytick_7">
     <g id="line2d_27">
      <path d="M 37.594453 110.25986 
L 503.929688 110.25986 
" clip-path="url(#p2a9577b53f)" style="fill: none; stroke: #e8e2d6; stroke-opacity: 0.7; stroke-width: 0.7; stroke-linecap: square"/>
     </g>
     <g id="line2d_28">
      <g>
       <use xlink:href="#me35d611b49" x="37.594453" y="110.25986" style="stroke: #000000; stroke-width: 1.2"/>
      </g>
     </g>
     <g id="text_15">
      <text style="font-size: 9px; font-family: 'Arial', 'Helvetica', 'Liberation Sans', 'DejaVu Sans', sans-serif; text-anchor: end" x="30.594453" y="113.535983" transform="rotate(-0 30.594453 113.535983)">85</text>
     </g>
    </g>
    <g id="ytick_8">
     <g id="line2d_29">
      <path d="M 37.594453 76.00926 
L 503.929688 76.00926 
" clip-path="url(#p2a9577b53f)" style="fill: none; stroke: #e8e2d6; stroke-opacity: 0.7; stroke-width: 0.7; stroke-linecap: square"/>
     </g>
     <g id="line2d_30">
      <g>
       <use xlink:href="#me35d611b49" x="37.594453" y="76.00926" style="stroke: #000000; stroke-width: 1.2"/>
      </g>
     </g>
     <g id="text_16">
      <text style="font-size: 9px; font-family: 'Arial', 'Helvetica', 'Liberation Sans', 'DejaVu Sans', sans-serif; text-anchor: end" x="30.594453" y="79.285383" transform="rotate(-0 30.594453 79.285383)">90</text>
     </g>
    </g>
    <g id="ytick_9">
     <g id="line2d_31">
      <path d="M 37.594453 41.758661 
L 503.929688 41.758661 
" clip-path="url(#p2a9577b53f)" style="fill: none; stroke: #e8e2d6; stroke-opacity: 0.7; stroke-width: 0.7; stroke-linecap: square"/>
     </g>
     <g id="line2d_32">
      <g>
       <use xlink:href="#me35d611b49" x="37.594453" y="41.758661" style="stroke: #000000; stroke-width: 1.2"/>
      </g>
     </g>
     <g id="text_17">
      <text style="font-size: 9px; font-family: 'Arial', 'Helvetica', 'Liberation Sans', 'DejaVu Sans', sans-serif; text-anchor: end" x="30.594453" y="45.034784" transform="rotate(-0 30.594453 45.034784)">95</text>
     </g>
    </g>
    <g id="text_18">
     <text style="font-size: 10px; font-family: 'Arial', 'Helvetica', 'Liberation Sans', 'DejaVu Sans', sans-serif; text-anchor: middle" x="14.480273" y="168.485879" transform="rotate(-90 14.480273 168.485879)">Performance score</text>
    </g>
   </g>
   <g id="patch_3">
    <path d="M 37.594453 315.763457 
L 37.594453 21.208301 
" style="fill: none; stroke: #000000; stroke-width: 1.5; stroke-linejoin: miter; stroke-linecap: square"/>
   </g>
   <g id="patch_4">
    <path d="M 37.594453 315.763457 
L 503.929688 315.763457 
" style="fill: none; stroke: #000000; stroke-width: 1.5; stroke-linejoin: miter; stroke-linecap: square"/>
   </g>
   <g id="text_19">
    <text style="font-size: 9px; font-family: 'Arial', 'Helvetica', 'Liberation Sans', 'DejaVu Sans', sans-serif; text-anchor: start" x="222.954159" y="193.311419" transform="rotate(-0 222.954159 193.311419)">SBR</text>
   </g>
   <g id="text_20">
    <text style="font-size: 9px; font-family: 'Arial', 'Helvetica', 'Liberation Sans', 'DejaVu Sans', sans-serif; text-anchor: start" x="172.733441" y="241.262258" transform="rotate(-0 172.733441 241.262258)">CR</text>
   </g>
   <g id="text_21">
    <text style="font-size: 9px; font-family: 'Arial', 'Helvetica', 'Liberation Sans', 'DejaVu Sans', sans-serif; text-anchor: start" x="273.174876" y="152.210699" transform="rotate(-0 273.174876 152.210699)">EVA</text>
   </g>
   <g id="text_22">
    <text style="font-size: 9px; font-family: 'Arial', 'Helvetica', 'Liberation Sans', 'DejaVu Sans', sans-serif; text-anchor: start" x="330.569982" y="104.25986" transform="rotate(-0 330.569982 104.25986)">PU</text>
   </g>
   <g id="text_23">
    <text style="font-size: 9px; font-family: 'Arial', 'Helvetica', 'Liberation Sans', 'DejaVu Sans', sans-serif; text-anchor: start" x="402.313864" y="70.00926" transform="rotate(-0 402.313864 70.00926)">Epoxy</text>
   </g>
   <g id="text_24">
    <text style="font-size: 7px; font-family: 'Arial', 'Helvetica', 'Liberation Sans', 'DejaVu Sans', sans-serif; text-anchor: start; fill: #555555" x="56.247863" y="38.086698" transform="rotate(-0 56.247863 38.086698)">bubble size = challenge (larger = harder)</text>
   </g>
   <g id="text_25">
    <text style="font-size: 11px; font-family: 'Arial', 'Helvetica', 'Liberation Sans', 'DejaVu Sans', sans-serif; text-anchor: middle" x="270.76207" y="15.208301" transform="rotate(-0 270.76207 15.208301)">Material-Mechanism-Performance-Challenge map</text>
   </g>
   <g id="legend_1">
    <g id="patch_5">
     <path d="M 441.611094 312.263457 
L 499.029688 312.263457 
Q 500.429688 312.263457 500.429688 310.863457 
L 500.429688 261.216641 
Q 500.429688 259.816641 499.029688 259.816641 
L 441.611094 259.816641 
Q 440.211094 259.816641 440.211094 261.216641 
L 440.211094 310.863457 
Q 440.211094 312.263457 441.611094 312.263457 
z
" style="fill: #ffffff; opacity: 0.9; stroke: #cccccc; stroke-linejoin: miter"/>
    </g>
    <g id="text_26">
     <text style="font-size: 7px; font-family: 'Arial', 'Helvetica', 'Liberation Sans', 'DejaVu Sans', sans-serif; text-anchor: start" x="450.477031" y="267.712832" transform="rotate(-0 450.477031 267.712832)">evidence tier</text>
    </g>
    <g id="line2d_33">
     <path d="M 443.011094 275.332168 
L 450.011094 275.332168 
L 457.011094 275.332168 
" style="fill: none; stroke: #000000; stroke-opacity: 0; stroke-width: 1.5; stroke-linecap: square"/>
     <defs>
      <path id="mf63265fdf1" d="M -3.5 3.5 
L 3.5 3.5 
L 3.5 -3.5 
L -3.5 -3.5 
z
" style="stroke: #333333; stroke-linejoin: miter"/>
     </defs>
     <g>
      <use xlink:href="#mf63265fdf1" x="450.011094" y="275.332168" style="fill: #4f7c6a; stroke: #333333; stroke-linejoin: miter"/>
     </g>
    </g>
    <g id="text_27">
     <text style="font-size: 7px; font-family: 'Arial', 'Helvetica', 'Liberation Sans', 'DejaVu Sans', sans-serif; text-anchor: start" x="462.611094" y="277.782168" transform="rotate(-0 462.611094 277.782168)">measured</text>
    </g>
    <g id="line2d_34">
     <path d="M 443.011094 285.401504 
L 450.011094 285.401504 
L 457.011094 285.401504 
" style="fill: none; stroke: #000000; stroke-opacity: 0; stroke-width: 1.5; stroke-linecap: square"/>
     <defs>
      <path id="m311416b88c" d="M -3.5 3.5 
L 3.5 3.5 
L 3.5 -3.5 
L -3.5 -3.5 
z
" style="stroke: #333333; stroke-linejoin: miter"/>
     </defs>
     <g>
      <use xlink:href="#m311416b88c" x="450.011094" y="285.401504" style="fill: #4b6f8a; stroke: #333333; stroke-linejoin: miter"/>
     </g>
    </g>
    <g id="text_28">
     <text style="font-size: 7px; font-family: 'Arial', 'Helvetica', 'Liberation Sans', 'DejaVu Sans', sans-serif; text-anchor: start" x="462.611094" y="287.851504" transform="rotate(-0 462.611094 287.851504)">inferred</text>
    </g>
    <g id="line2d_35">
     <path d="M 443.011094 295.47084 
L 450.011094 295.47084 
L 457.011094 295.47084 
" style="fill: none; stroke: #000000; stroke-opacity: 0; stroke-width: 1.5; stroke-linecap: square"/>
     <defs>
      <path id="me641839c49" d="M -3.5 3.5 
L 3.5 3.5 
L 3.5 -3.5 
L -3.5 -3.5 
z
" style="stroke: #333333; stroke-linejoin: miter"/>
     </defs>
     <g>
      <use xlink:href="#me641839c49" x="450.011094" y="295.47084" style="fill: #c47b45; stroke: #333333; stroke-linejoin: miter"/>
     </g>
    </g>
    <g id="text_29">
     <text style="font-size: 7px; font-family: 'Arial', 'Helvetica', 'Liberation Sans', 'DejaVu Sans', sans-serif; text-anchor: start" x="462.611094" y="297.92084" transform="rotate(-0 462.611094 297.92084)">speculative</text>
    </g>
    <g id="line2d_36">
     <path d="M 443.011094 305.540176 
L 450.011094 305.540176 
L 457.011094 305.540176 
" style="fill: none; stroke: #000000; stroke-opacity: 0; stroke-width: 1.5; stroke-linecap: square"/>
     <defs>
      <path id="mf8ab147f7a" d="M -3.5 3.5 
L 3.5 3.5 
L 3.5 -3.5 
L -3.5 -3.5 
z
" style="stroke: #333333; stroke-linejoin: miter"/>
     </defs>
     <g>
      <use xlink:href="#mf8ab147f7a" x="450.011094" y="305.540176" style="fill: #8c8c8c; stroke: #333333; stroke-linejoin: miter"/>
     </g>
    </g>
    <g id="text_30">
     <text style="font-size: 7px; font-family: 'Arial', 'Helvetica', 'Liberation Sans', 'DejaVu Sans', sans-serif; text-anchor: start" x="462.611094" y="307.990176" transform="rotate(-0 462.611094 307.990176)">missing</text>
    </g>
   </g>
  </g>
 </g>
 <defs>
  <clipPath id="p2a9577b53f">
   <rect x="37.594453" y="21.208301" width="466.335234" height="294.555156"/>
  </clipPath>
 </defs>
</svg>
