<?xml version="1.0" encoding="utf-8" standalone="no"?>
<!DOCTYPE svg PUBLIC "-//W3C//DTD SVG 1.1//EN"
  "http://www.w3.org/Graphics/SVG/1.1/DTD/svg11.dtd">
<svg xmlns:xlink="http://www.w3.org/1999/xlink" width="510.167266pt" height="366.194707pt" viewBox="0 0 510.167266 366.194707" xmlns="http://www.w3.org/2000/svg" version="1.1">
 <metadata>
  <rdf:RDF xmlns:dc="http://purl.org/dc/elements/1.1/" xmlns:cc="http://creativecommons.org/ns#" xmlns:rdf="http://www.w3.org/1999/02/22-rdf-syntax-ns#">
   <cc:Work>
    <dc:type rdf:resource="http://purl.org/dc/dcmitype/StillImage"/>
    <dc:date>2026-06-19T17:17:44.452389</dc:date>
    <dc:format>image/svg+xml</dc:format>
    <dc:creator>
     <cc:Agent>
      <dc:title>Matplotlib v3.11.0, https://matplotlib.org/</dc:title>
     </cc:Agent>
    </dc:creator>
   </cc:Work>
  </rdf:RDF>
 </metadata>
 <defs>
  <style type="text/css">*{stroke-linejoin: round; stroke-linecap: butt}</style>
 </defs>
 <g id="figure_1">
  <g id="patch_1">
   <path d="M 0 366.194707 
L 510.167266 366.194707 
L 510.167266 0 
L 0 0 
z
" style="fill: #ffffff"/>
  </g>
  <g id="axes_1">
   <g id="patch_2">
    <path d="M 40.094766 330.163457 
L 496.712266 330.163457 
L 496.712266 21.208301 
L 40.094766 21.208301 
z
" style="fill: #ffffff"/>
   </g>
   <g id="PathCollection_1">
    <defs>
     <path id="m0b11610a0f" d="M 0 5.477226 
C 1.452577 5.477226 2.845856 4.900111 3.872983 3.872983 
C 4.900111 2.845856 5.477226 1.452577 5.477226 0 
C 5.477226 -1.452577 4.900111 -2.845856 3.872983 -3.872983 
C 2.845856 -4.900111 1.452577 -5.477226 0 -5.477226 
C -1.452577 -5.477226 -2.845856 -4.900111 -3.872983 -3.872983 
C -4.900111 -2.845856 -5.477226 -1.452577 -5.477226 0 
C -5.477226 1.452577 -4.900111 2.845856 -3.872983 3.872983 
C -2.845856 4.900111 -1.452577 5.477226 0 5.477226 
z
" style="stroke: #333333; stroke-opacity: 0.78; stroke-width: 0.7"/>
    </defs>
    <g clip-path="url(#p25fa8cbd80)">
     <use xlink:href="#m0b11610a0f" x="428.219641" y="148.42513" style="fill: #4f7c6a; fill-opacity: 0.78; stroke: #333333; stroke-opacity: 0.78; stroke-width: 0.7"/>
    </g>
   </g>
   <g id="PathCollection_2">
    <defs>
     <path id="m2b4cd56e65" d="M 0 19.287302 
C 5.115052 19.287302 10.021294 17.25507 13.638182 13.638182 
C 17.25507 10.021294 19.287302 5.115052 19.287302 0 
C 19.287302 -5.115052 17.25507 -10.021294 13.638182 -13.638182 
C 10.021294 -17.25507 5.115052 -19.287302 0 -19.287302 
C -5.115052 -19.287302 -10.021294 -17.25507 -13.638182 -13.638182 
C -17.25507 -10.021294 -19.287302 -5.115052 -19.287302 0 
C -19.287302 5.115052 -17.25507 10.021294 -13.638182 13.638182 
C -10.021294 17.25507 -5.115052 19.287302 0 19.287302 
z
" style="stroke: #333333; stroke-opacity: 0.78; stroke-width: 0.7"/>
    </defs>
    <g clip-path="url(#p25fa8cbd80)">
     <use xlink:href="#m2b4cd56e65" x="177.080016" y="68.460266" style="fill: #8c8c8c; fill-opacity: 0.78; stroke: #333333; stroke-opacity: 0.78; stroke-width: 0.7"/>
    </g>
   </g>
   <g id="PathCollection_3">
    <defs>
     <path id="mf095a842d3" d="M 0 13.416408 
C 3.558073 13.416408 6.970895 12.00277 9.486833 9.486833 
C 12.00277 6.970895 13.416408 3.558073 13.416408 0 
C 13.416408 -3.558073 12.00277 -6.970895 9.486833 -9.486833 
C 6.970895 -12.00277 3.558073 -13.416408 0 -13.416408 
C -3.558073 -13.416408 -6.970895 -12.00277 -9.486833 -9.486833 
C -12.00277 -6.970895 -13.416408 -3.558073 -13.416408 0 
C -13.416408 3.558073 -12.00277 6.970895 -9.486833 9.486833 
C -6.970895 12.00277 -3.558073 13.416408 0 13.416408 
z
" style="stroke: #333333; stroke-opacity: 0.78; stroke-width: 0.7"/>
    </defs>
    <g clip-path="url(#p25fa8cbd80)">
     <use xlink:href="#mf095a842d3" x="291.234391" y="93.903632" style="fill: #4b6f8a; fill-opacity: 0.78; stroke: #333333; stroke-opacity: 0.78; stroke-width: 0.7"/>
    </g>
   </g>
   <g id="PathCollection_4">
    <defs>
     <path id="m17baca6394" d="M 0 14.491377 
C 3.843158 14.491377 7.529428 12.964474 10.246951 10.246951 
C 12.964474 7.529428 14.491377 3.843158 14.491377 0 
C 14.491377 -3.843158 12.964474 -7.529428 10.246951 -10.246951 
C 7.529428 -12.964474 3.843158 -14.491377 0 -14.491377 
C -3.843158 -14.491377 -7.529428 -12.964474 -10.246951 -10.246951 
C -12.964474 -7.529428 -14.491377 -3.843158 -14.491377 0 
C -14.491377 3.843158 -12.964474 7.529428 -10.246951 10.246951 
C -7.529428 12.964474 -3.843158 14.491377 0 14.491377 
z
" style="stroke: #333333; stroke-opacity: 0.78; stroke-width: 0.7"/>
    </defs>
    <g clip-path="url(#p25fa8cbd80)">
     <use xlink:href="#m17baca6394" x="222.741766" y="130.251297" style="fill: #4b6f8a; fill-opacity: 0.78; stroke: #333333; stroke-opacity: 0.78; stroke-width: 0.7"/>
    </g>
   </g>
   <g id="PathCollection_5">
    <defs>
     <path id="ma6296f1f3e" d="M 0 21.213203 
C 5.625807 21.213203 11.021954 18.978047 15 15 
C 18.978047 11.021954 21.213203 5.625807 21.213203 0 
C 21.213203 -5.625807 18.978047 -11.021954 15 -15 
C 11.021954 -18.978047 5.625807 -21.213203 0 -21.213203 
C -5.625807 -21.213203 -11.021954 -18.978047 -15 -15 
C -18.978047 -11.021954 -21.213203 -5.625807 -21.213203 0 
C -21.213203 5.625807 -18.978047 11.021954 -15 15 
C -11.021954 18.978047 -5.625807 21.213203 0 21.213203 
z
" style="stroke: #333333; stroke-opacity: 0.78; stroke-width: 0.7"/>
    </defs>
    <g clip-path="url(#p25fa8cbd80)">
     <use xlink:href="#ma6296f1f3e" x="131.418266" y="57.555966" style="fill: #8c8c8c; fill-opacity: 0.78; stroke: #333333; stroke-opacity: 0.78; stroke-width: 0.7"/>
    </g>
   </g>
   <g id="matplotlib.axis_1">
    <g id="xtick_1">
     <g id="line2d_1">
      <path d="M 40.094766 330.163457 
L 40.094766 21.208301 
" clip-path="url(#p25fa8cbd80)" style="fill: none; stroke: #e8e2d6; stroke-opacity: 0.7; stroke-width: 0.7; stroke-linecap: square"/>
     </g>
     <g id="line2d_2">
      <defs>
       <path id="m8efbfb98fa" d="M 0 0 
L 0 3.5 
" style="stroke: #000000; stroke-width: 1.2"/>
      </defs>
      <g>
       <use xlink:href="#m8efbfb98fa" x="40.094766" y="330.163457" style="stroke: #000000; stroke-width: 1.2"/>
      </g>
     </g>
     <g id="text_1">
      <text style="font-size: 9px; font-family: 'Arial', 'Helvetica', 'Liberation Sans', 'DejaVu Sans', sans-serif; text-anchor: middle" x="40.094766" y="343.715703" transform="rotate(-0 40.094766 343.715703)">0.0</text>
     </g>
    </g>
    <g id="xtick_2">
     <g id="line2d_3">
      <path d="M 131.418266 330.163457 
L 131.418266 21.208301 
" clip-path="url(#p25fa8cbd80)" style="fill: none; stroke: #e8e2d6; stroke-opacity: 0.7; stroke-width: 0.7; stroke-linecap: square"/>
     </g>
     <g id="line2d_4">
      <g>
       <use xlink:href="#m8efbfb98fa" x="131.418266" y="330.163457" style="stroke: #000000; stroke-width: 1.2"/>
      </g>
     </g>
     <g id="text_2">
      <text style="font-size: 9px; font-family: 'Arial', 'Helvetica', 'Liberation Sans', 'DejaVu Sans', sans-serif; text-anchor: middle" x="131.418266" y="343.715703" transform="rotate(-0 131.418266 343.715703)">0.2</text>
     </g>
    </g>
    <g id="xtick_3">
     <g id="line2d_5">
      <path d="M 222.741766 330.163457 
L 222.741766 21.208301 
" clip-path="url(#p25fa8cbd80)" style="fill: none; stroke: #e8e2d6; stroke-opacity: 0.7; stroke-width: 0.7; stroke-linecap: square"/>
     </g>
     <g id="line2d_6">
      <g>
       <use xlink:href="#m8efbfb98fa" x="222.741766" y="330.163457" style="stroke: #000000; stroke-width: 1.2"/>
      </g>
     </g>
     <g id="text_3">
      <text style="font-size: 9px; font-family: 'Arial', 'Helvetica', 'Liberation Sans', 'DejaVu Sans', sans-serif; text-anchor: middle" x="222.741766" y="343.715703" transform="rotate(-0 222.741766 343.715703)">0.4</text>
     </g>
    </g>
    <g id="xtick_4">
     <g id="line2d_7">
      <path d="M 314.065266 330.163457 
L 314.065266 21.208301 
" clip-path="url(#p25fa8cbd80)" style="fill: none; stroke: #e8e2d6; stroke-opacity: 0.7; stroke-width: 0.7; stroke-linecap: square"/>
     </g>
     <g id="line2d_8">
      <g>
       <use xlink:href="#m8efbfb98fa" x="314.065266" y="330.163457" style="stroke: #000000; stroke-width: 1.2"/>
      </g>
     </g>
     <g id="text_4">
      <text style="font-size: 9px; font-family: 'Arial', 'Helvetica', 'Liberation Sans', 'DejaVu Sans', sans-serif; text-anchor: middle" x="314.065266" y="343.715703" transform="rotate(-0 314.065266 343.715703)">0.6</text>
     </g>
    </g>
    <g id="xtick_5">
     <g id="line2d_9">
      <path d="M 405.388766 330.163457 
L 405.388766 21.208301 
" clip-path="url(#p25fa8cbd80)" style="fill: none; stroke: #e8e2d6; stroke-opacity: 0.7; stroke-width: 0.7; stroke-linecap: square"/>
     </g>
     <g id="line2d_10">
      <g>
       <use xlink:href="#m8efbfb98fa" x="405.388766" y="330.163457" style="stroke: #000000; stroke-width: 1.2"/>
      </g>
     </g>
     <g id="text_5">
      <text style="font-size: 9px; font-family: 'Arial', 'Helvetica', 'Liberation Sans', 'DejaVu Sans', sans-serif; text-anchor: middle" x="405.388766" y="343.715703" transform="rotate(-0 405.388766 343.715703)">0.8</text>
     </g>
    </g>
    <g id="xtick_6">
     <g id="line2d_11">
      <path d="M 496.712266 330.163457 
L 496.712266 21.208301 
" clip-path="url(#p25fa8cbd80)" style="fill: none; stroke: #e8e2d6; stroke-opacity: 0.7; stroke-width: 0.7; stroke-linecap: square"/>
     </g>
     <g id="line2d_12">
      <g>
       <use xlink:href="#m8efbfb98fa" x="496.712266" y="330.163457" style="stroke: #000000; stroke-width: 1.2"/>
      </g>
     </g>
     <g id="text_6">
      <text style="font-size: 9px; font-family: 'Arial', 'Helvetica', 'Liberation Sans', 'DejaVu Sans', sans-serif; text-anchor: middle" x="496.712266" y="343.715703" transform="rotate(-0 496.712266 343.715703)">1.0</text>
     </g>
    </g>
    <g id="text_7">
     <text style="font-size: 10px; font-family: 'Arial', 'Helvetica', 'Liberation Sans', 'DejaVu Sans', sans-serif; text-anchor: middle" x="268.403516" y="356.89002" transform="rotate(-0 268.403516 356.89002)">Evidence maturity</text>
    </g>
   </g>
   <g id="matplotlib.axis_2">
    <g id="ytick_1">
     <g id="line2d_13">
      <path d="M 40.094766 330.163457 
L 496.712266 330.163457 
" clip-path="url(#p25fa8cbd80)" style="fill: none; stroke: #e8e2d6; stroke-opacity: 0.7; stroke-width: 0.7; stroke-linecap: square"/>
     </g>
     <g id="line2d_14">
      <defs>
       <path id="mf1e2a70869" d="M 0 0 
L -3.5 0 
" style="stroke: #000000; stroke-width: 1.2"/>
      </defs>
      <g>
       <use xlink:href="#mf1e2a70869" x="40.094766" y="330.163457" style="stroke: #000000; stroke-width: 1.2"/>
      </g>
     </g>
     <g id="text_8">
      <text style="font-size: 9px; font-family: 'Arial', 'Helvetica', 'Liberation Sans', 'DejaVu Sans', sans-serif; text-anchor: end" x="33.094766" y="333.43958" transform="rotate(-0 33.094766 333.43958)">0.2</text>
     </g>
    </g>
    <g id="ytick_2">
     <g id="line2d_15">
      <path d="M 40.094766 293.815792 
L 496.712266 293.815792 
" clip-path="url(#p25fa8cbd80)" style="fill: none; stroke: #e8e2d6; stroke-opacity: 0.7; stroke-width: 0.7; stroke-linecap: square"/>
     </g>
     <g id="line2d_16">
      <g>
       <use xlink:href="#mf1e2a70869" x="40.094766" y="293.815792" style="stroke: #000000; stroke-width: 1.2"/>
      </g>
     </g>
     <g id="text_9">
      <text style="font-size: 9px; font-family: 'Arial', 'Helvetica', 'Liberation Sans', 'DejaVu Sans', sans-serif; text-anchor: end" x="33.094766" y="297.091915" transform="rotate(-0 33.094766 297.091915)">0.3</text>
     </g>
    </g>
    <g id="ytick_3">
     <g id="line2d_17">
      <path d="M 40.094766 257.468126 
L 496.712266 257.468126 
" clip-path="url(#p25fa8cbd80)" style="fill: none; stroke: #e8e2d6; stroke-opacity: 0.7; stroke-width: 0.7; stroke-linecap: square"/>
     </g>
     <g id="line2d_18">
      <g>
       <use xlink:href="#mf1e2a70869" x="40.094766" y="257.468126" style="stroke: #000000; stroke-width: 1.2"/>
      </g>
     </g>
     <g id="text_10">
      <text style="font-size: 9px; font-family: 'Arial', 'Helvetica', 'Liberation Sans', 'DejaVu Sans', sans-serif; text-anchor: end" x="33.094766" y="260.744249" transform="rotate(-0 33.094766 260.744249)">0.4</text>
     </g>
    </g>
    <g id="ytick_4">
     <g id="line2d_19">
      <path d="M 40.094766 221.120461 
L 496.712266 221.120461 
" clip-path="url(#p25fa8cbd80)" style="fill: none; stroke: #e8e2d6; stroke-opacity: 0.7; stroke-width: 0.7; stroke-linecap: square"/>
     </g>
     <g id="line2d_20">
      <g>
       <use xlink:href="#mf1e2a70869" x="40.094766" y="221.120461" style="stroke: #000000; stroke-width: 1.2"/>
      </g>
     </g>
     <g id="text_11">
      <text style="font-size: 9px; font-family: 'Arial', 'Helvetica', 'Liberation Sans', 'DejaVu Sans', sans-serif; text-anchor: end" x="33.094766" y="224.396584" transform="rotate(-0 33.094766 224.396584)">0.5</text>
     </g>
    </g>
    <g id="ytick_5">
     <g id="line2d_21">
      <path d="M 40.094766 184.772795 
L 496.712266 184.772795 
" clip-path="url(#p25fa8cbd80)" style="fill: none; stroke: #e8e2d6; stroke-opacity: 0.7; stroke-width: 0.7; stroke-linecap: square"/>
     </g>
     <g id="line2d_22">
      <g>
       <use xlink:href="#mf1e2a70869" x="40.094766" y="184.772795" style="stroke: #000000; stroke-width: 1.2"/>
      </g>
     </g>
     <g id="text_12">
      <text style="font-size: 9px; font-family: 'Arial', 'Helvetica', 'Liberation Sans', 'DejaVu Sans', sans-serif; text-anchor: end" x="33.094766" y="188.048918" transform="rotate(-0 33.094766 188.048918)">0.6</text>
     </g>
    </g>
    <g id="ytick_6">
     <g id="line2d_23">
      <path d="M 40.094766 148.42513 
L 496.712266 148.42513 
" clip-path="url(#p25fa8cbd80)" style="fill: none; stroke: #e8e2d6; stroke-opacity: 0.7; stroke-width: 0.7; stroke-linecap: square"/>
     </g>
     <g id="line2d_24">
      <g>
       <use xlink:href="#mf1e2a70869" x="40.094766" y="148.42513" style="stroke: #000000; stroke-width: 1.2"/>
      </g>
     </g>
     <g id="text_13">
      <text style="font-size: 9px; font-family: 'Arial', 'Helvetica', 'Liberation Sans', 'DejaVu Sans', sans-serif; text-anchor: end" x="33.094766" y="151.701253" transform="rotate(-0 33.094766 151.701253)">0.7</text>
     </g>
    </g>
    <g id="ytick_7">
     <g id="line2d_25">
      <path d="M 40.094766 112.077464 
L 496.712266 112.077464 
" clip-path="url(#p25fa8cbd80)" style="fill: none; stroke: #e8e2d6; stroke-opacity: 0.7; stroke-width: 0.7; stroke-linecap: square"/>
     </g>
     <g id="line2d_26">
      <g>
       <use xlink:href="#mf1e2a70869" x="40.094766" y="112.077464" style="stroke: #000000; stroke-width: 1.2"/>
      </g>
     </g>
     <g id="text_14">
      <text style="font-size: 9px; font-family: 'Arial', 'Helvetica', 'Liberation Sans', 'DejaVu Sans', sans-serif; text-anchor: end" x="33.094766" y="115.353587" transform="rotate(-0 33.094766 115.353587)">0.8</text>
     </g>
    </g>
    <g id="ytick_8">
     <g id="line2d_27">
      <path d="M 40.094766 75.729799 
L 496.712266 75.729799 
" clip-path="url(#p25fa8cbd80)" style="fill: none; stroke: #e8e2d6; stroke-opacity: 0.7; stroke-width: 0.7; stroke-linecap: square"/>
     </g>
     <g id="line2d_28">
      <g>
       <use xlink:href="#mf1e2a70869" x="40.094766" y="75.729799" style="stroke: #000000; stroke-width: 1.2"/>
      </g>
     </g>
     <g id="text_15">
      <text style="font-size: 9px; font-family: 'Arial', 'Helvetica', 'Liberation Sans', 'DejaVu Sans', sans-serif; text-anchor: end" x="33.094766" y="79.005922" transform="rotate(-0 33.094766 79.005922)">0.9</text>
     </g>
    </g>
    <g id="ytick_9">
     <g id="line2d_29">
      <path d="M 40.094766 39.382134 
L 496.712266 39.382134 
" clip-path="url(#p25fa8cbd80)" style="fill: none; stroke: #e8e2d6; stroke-opacity: 0.7; stroke-width: 0.7; stroke-linecap: square"/>
     </g>
     <g id="line2d_30">
      <g>
       <use xlink:href="#mf1e2a70869" x="40.094766" y="39.382134" style="stroke: #000000; stroke-width: 1.2"/>
      </g>
     </g>
     <g id="text_16">
      <text style="font-size: 9px; font-family: 'Arial', 'Helvetica', 'Liberation Sans', 'DejaVu Sans', sans-serif; text-anchor: end" x="33.094766" y="42.658257" transform="rotate(-0 33.094766 42.658257)">1.0</text>
     </g>
    </g>
    <g id="text_17">
     <text style="font-size: 10px; font-family: 'Arial', 'Helvetica', 'Liberation Sans', 'DejaVu Sans', sans-serif; text-anchor: middle" x="14.480273" y="175.685879" transform="rotate(-90 14.480273 175.685879)">Research importance</text>
    </g>
   </g>
   <g id="line2d_31">
    <path d="M 84.897763 367.194707 
L 496.712266 39.382134 
" clip-path="url(#p25fa8cbd80)" style="fill: none; stroke-dasharray: 3.7,1.6; stroke-dashoffset: 0; stroke: #000000; stroke-opacity: 0.5"/>
   </g>
   <g id="patch_3">
    <path d="M 40.094766 330.163457 
L 40.094766 21.208301 
" style="fill: none; stroke: #000000; stroke-width: 1.5; stroke-linejoin: miter; stroke-linecap: square"/>
   </g>
   <g id="patch_4">
    <path d="M 40.094766 330.163457 
L 496.712266 330.163457 
" style="fill: none; stroke: #000000; stroke-width: 1.5; stroke-linejoin: miter; stroke-linecap: square"/>
   </g>
   <g id="text_18">
    <text style="font-size: 8px; font-family: 'Arial', 'Helvetica', 'Liberation Sans', 'DejaVu Sans', sans-serif; text-anchor: start" x="435.219641" y="142.42513" transform="rotate(-0 435.219641 142.42513)">Lab evidence</text>
   </g>
   <g id="text_19">
    <text style="font-size: 8px; font-family: 'Arial', 'Helvetica', 'Liberation Sans', 'DejaVu Sans', sans-serif; text-anchor: start" x="184.080016" y="62.460266" transform="rotate(-0 184.080016 62.460266)">Field evidence</text>
   </g>
   <g id="text_20">
    <text style="font-size: 8px; font-family: 'Arial', 'Helvetica', 'Liberation Sans', 'DejaVu Sans', sans-serif; text-anchor: start" x="298.234391" y="87.903632" transform="rotate(-0 298.234391 87.903632)">Mechanism</text>
   </g>
   <g id="text_21">
    <text style="font-size: 8px; font-family: 'Arial', 'Helvetica', 'Liberation Sans', 'DejaVu Sans', sans-serif; text-anchor: start" x="229.741766" y="124.251297" transform="rotate(-0 229.741766 124.251297)">Standards</text>
   </g>
   <g id="text_22">
    <text style="font-size: 8px; font-family: 'Arial', 'Helvetica', 'Liberation Sans', 'DejaVu Sans', sans-serif; text-anchor: start" x="138.418266" y="51.555966" transform="rotate(-0 138.418266 51.555966)">Long-term</text>
   </g>
   <g id="text_23">
    <text style="font-size: 7px; font-family: 'Arial', 'Helvetica', 'Liberation Sans', 'DejaVu Sans', sans-serif; text-anchor: start; fill: #555555" x="58.359466" y="38.662698" transform="rotate(-0 58.359466 38.662698)">bubble size = gap (importance - maturity)</text>
   </g>
   <g id="text_24">
    <text style="font-size: 11px; font-family: 'Arial', 'Helvetica', 'Liberation Sans', 'DejaVu Sans', sans-serif; text-anchor: middle" x="268.403516" y="15.208301" transform="rotate(-0 268.403516 15.208301)">Research gap matrix (tiered)</text>
   </g>
   <g id="legend_1">
    <g id="patch_5">
     <path d="M 434.393672 326.663457 
L 491.812266 326.663457 
Q 493.212266 326.663457 493.212266 325.263457 
L 493.212266 275.616641 
Q 493.212266 274.216641 491.812266 274.216641 
L 434.393672 274.216641 
Q 432.993672 274.216641 432.993672 275.616641 
L 432.993672 325.263457 
Q 432.993672 326.663457 434.393672 326.663457 
z
" style="fill: #ffffff; opacity: 0.9; stroke: #cccccc; stroke-linejoin: miter"/>
    </g>
    <g id="text_25">
     <text style="font-size: 7px; font-family: 'Arial', 'Helvetica', 'Liberation Sans', 'DejaVu Sans', sans-serif; text-anchor: start" x="443.259609" y="282.112832" transform="rotate(-0 443.259609 282.112832)">evidence tier</text>
    </g>
    <g id="line2d_32">
     <path d="M 435.793672 289.732168 
L 442.793672 289.732168 
L 449.793672 289.732168 
" style="fill: none; stroke: #000000; stroke-opacity: 0; stroke-width: 1.5; stroke-linecap: square"/>
     <defs>
      <path id="m8a3e76c070" d="M -3.5 3.5 
L 3.5 3.5 
L 3.5 -3.5 
L -3.5 -3.5 
z
" style="stroke: #333333; stroke-linejoin: miter"/>
     </defs>
     <g>
      <use xlink:href="#m8a3e76c070" x="442.793672" y="289.732168" style="fill: #4f7c6a; stroke: #333333; stroke-linejoin: miter"/>
     </g>
    </g>
    <g id="text_26">
     <text style="font-size: 7px; font-family: 'Arial', 'Helvetica', 'Liberation Sans', 'DejaVu Sans', sans-serif; text-anchor: start" x="455.393672" y="292.182168" transform="rotate(-0 455.393672 292.182168)">measured</text>
    </g>
    <g id="line2d_33">
     <path d="M 435.793672 299.801504 
L 442.793672 299.801504 
L 449.793672 299.801504 
" style="fill: none; stroke: #000000; stroke-opacity: 0; stroke-width: 1.5; stroke-linecap: square"/>
     <defs>
      <path id="m6ed8a19e3e" d="M -3.5 3.5 
L 3.5 3.5 
L 3.5 -3.5 
L -3.5 -3.5 
z
" style="stroke: #333333; stroke-linejoin: miter"/>
     </defs>
     <g>
      <use xlink:href="#m6ed8a19e3e" x="442.793672" y="299.801504" style="fill: #4b6f8a; stroke: #333333; stroke-linejoin: miter"/>
     </g>
    </g>
    <g id="text_27">
     <text style="font-size: 7px; font-family: 'Arial', 'Helvetica', 'Liberation Sans', 'DejaVu Sans', sans-serif; text-anchor: start" x="455.393672" y="302.251504" transform="rotate(-0 455.393672 302.251504)">inferred</text>
    </g>
    <g id="line2d_34">
     <path d="M 435.793672 309.87084 
L 442.793672 309.87084 
L 449.793672 309.87084 
" style="fill: none; stroke: #000000; stroke-opacity: 0; stroke-width: 1.5; stroke-linecap: square"/>
     <defs>
      <path id="mda4632a20f" d="M -3.5 3.5 
L 3.5 3.5 
L 3.5 -3.5 
L -3.5 -3.5 
z
" style="stroke: #333333; stroke-linejoin: miter"/>
     </defs>
     <g>
      <use xlink:href="#mda4632a20f" x="442.793672" y="309.87084" style="fill: #c47b45; stroke: #333333; stroke-linejoin: miter"/>
     </g>
    </g>
    <g id="text_28">
     <text style="font-size: 7px; font-family: 'Arial', 'Helvetica', 'Liberation Sans', 'DejaVu Sans', sans-serif; text-anchor: start" x="455.393672" y="312.32084" transform="rotate(-0 455.393672 312.32084)">speculative</text>
    </g>
    <g id="line2d_35">
     <path d="M 435.793672 319.940176 
L 442.793672 319.940176 
L 449.793672 319.940176 
" style="fill: none; stroke: #000000; stroke-opacity: 0; stroke-width: 1.5; stroke-linecap: square"/>
     <defs>
      <path id="m0900f7d887" d="M -3.5 3.5 
L 3.5 3.5 
L 3.5 -3.5 
L -3.5 -3.5 
z
" style="stroke: #333333; stroke-linejoin: miter"/>
     </defs>
     <g>
      <use xlink:href="#m0900f7d887" x="442.793672" y="319.940176" style="fill: #8c8c8c; stroke: #333333; stroke-linejoin: miter"/>
     </g>
    </g>
    <g id="text_29">
     <text style="font-size: 7px; font-family: 'Arial', 'Helvetica', 'Liberation Sans', 'DejaVu Sans', sans-serif; text-anchor: start" x="455.393672" y="322.390176" transform="rotate(-0 455.393672 322.390176)">missing</text>
    </g>
   </g>
  </g>
 </g>
 <defs>
  <clipPath id="p25fa8cbd80">
   <rect x="40.094766" y="21.208301" width="456.6175" height="308.955156"/>
  </clipPath>
 </defs>
</svg>
