<?xml version="1.0" encoding="utf-8" standalone="no"?>
<!DOCTYPE svg PUBLIC "-//W3C//DTD SVG 1.1//EN"
  "http://www.w3.org/Graphics/SVG/1.1/DTD/svg11.dtd">
<svg xmlns:xlink="http://www.w3.org/1999/xlink" width="405.434325pt" height="440.64121pt" viewBox="0 0 405.434325 440.64121" xmlns="http://www.w3.org/2000/svg" version="1.1">
 <metadata>
  <rdf:RDF xmlns:dc="http://purl.org/dc/elements/1.1/" xmlns:cc="http://creativecommons.org/ns#" xmlns:rdf="http://www.w3.org/1999/02/22-rdf-syntax-ns#">
   <cc:Work>
    <dc:type rdf:resource="http://purl.org/dc/dcmitype/StillImage"/>
    <dc:date>2026-06-19T17:17:39.319482</dc:date>
    <dc:format>image/svg+xml</dc:format>
    <dc:creator>
     <cc:Agent>
      <dc:title>Matplotlib v3.11.0, https://matplotlib.org/</dc:title>
     </cc:Agent>
    </dc:creator>
   </cc:Work>
  </rdf:RDF>
 </metadata>
 <defs>
  <style type="text/css">*{stroke-linejoin: round; stroke-linecap: butt}</style>
 </defs>
 <g id="figure_1">
  <g id="patch_1">
   <path d="M 0 440.64121 
L 405.434325 440.64121 
L 405.434325 0 
L 0 0 
z
" style="fill: #ffffff"/>
  </g>
  <g id="axes_1">
   <g id="patch_2">
    <path d="M 370.0087 238.893521 
C 370.0087 215.07172 365.316324 191.481556 356.200116 169.473081 
C 347.083907 147.464607 333.721153 127.465832 316.876596 110.621275 
C 300.032039 93.776718 280.033263 80.413963 258.024789 71.297755 
C 236.016315 62.181546 212.426151 57.489171 188.60435 57.489171 
C 164.782549 57.489171 141.192385 62.181546 119.183911 71.297755 
C 97.175436 80.413963 77.176661 93.776718 60.332104 110.621275 
C 43.487547 127.465832 30.124792 147.464607 21.008584 169.473081 
C 11.892375 191.481556 7.2 215.07172 7.2 238.893521 
C 7.2 262.715322 11.892375 286.305485 21.008584 308.31396 
C 30.124792 330.322434 43.487547 350.321209 60.332104 367.165766 
C 77.176661 384.010323 97.175436 397.373078 119.183911 406.489286 
C 141.192385 415.605495 164.782549 420.29787 188.60435 420.29787 
C 212.426151 420.29787 236.016315 415.605495 258.024789 406.489286 
C 280.033263 397.373078 300.032039 384.010323 316.876596 367.165766 
C 333.721153 350.321209 347.083907 330.322434 356.200116 308.31396 
C 365.316324 286.305485 370.0087 262.715322 370.0087 238.893521 
M 188.60435 238.893521 
C 188.60435 238.893521 188.60435 238.893521 188.60435 238.893521 
C 188.60435 238.893521 188.60435 238.893521 188.60435 238.893521 
C 188.60435 238.893521 188.60435 238.893521 188.60435 238.893521 
C 188.60435 238.893521 188.60435 238.893521 188.60435 238.893521 
C 188.60435 238.893521 188.60435 238.893521 188.60435 238.893521 
C 188.60435 238.893521 188.60435 238.893521 188.60435 238.893521 
C 188.60435 238.893521 188.60435 238.893521 188.60435 238.893521 
C 188.60435 238.893521 188.60435 238.893521 188.60435 238.893521 
C 188.60435 238.893521 188.60435 238.893521 188.60435 238.893521 
C 188.60435 238.893521 188.60435 238.893521 188.60435 238.893521 
C 188.60435 238.893521 188.60435 238.893521 188.60435 238.893521 
C 188.60435 238.893521 188.60435 238.893521 188.60435 238.893521 
C 188.60435 238.893521 188.60435 238.893521 188.60435 238.893521 
C 188.60435 238.893521 188.60435 238.893521 188.60435 238.893521 
C 188.60435 238.893521 188.60435 238.893521 188.60435 238.893521 
C 188.60435 238.893521 188.60435 238.893521 188.60435 238.893521 
z
" style="fill: #ffffff"/>
   </g>
   <g id="patch_3">
    <path d="M 330.099743 238.893521 
L 219.435715 144.004337 
L 68.261804 151.459543 
L 137.238629 276.212901 
L 223.359707 345.85951 
z
" clip-path="url(#pd87aa86888)" style="fill: #4b6f8a; opacity: 0.2; stroke: #4b6f8a; stroke-linejoin: miter"/>
   </g>
   <g id="matplotlib.axis_1">
    <g id="xtick_1">
     <g id="line2d_1">
      <path d="M 188.60435 238.893521 
L 370.0087 238.893521 
" clip-path="url(#pd87aa86888)" style="fill: none; stroke: #b0b0b0; stroke-width: 0.8; stroke-linecap: square"/>
     </g>
     <g id="text_1">
      <text style="font-size: 8px; font-family: 'Arial', 'Helvetica', 'Liberation Sans', 'DejaVu Sans', sans-serif" transform="translate(369.783075 236.610317)">Material</text>
      <text style="font-size: 8px; font-family: 'Arial', 'Helvetica', 'Liberation Sans', 'DejaVu Sans', sans-serif" transform="translate(373.335575 245.317349)">scope</text>
     </g>
    </g>
    <g id="xtick_2">
     <g id="line2d_2">
      <path d="M 188.60435 238.893521 
L 244.661377 66.367732 
" clip-path="url(#pd87aa86888)" style="fill: none; stroke: #b0b0b0; stroke-width: 0.8; stroke-linecap: square"/>
     </g>
     <g id="text_2">
      <text style="font-size: 8px; font-family: 'Arial', 'Helvetica', 'Liberation Sans', 'DejaVu Sans', sans-serif" transform="translate(228.537615 50.769737)">Mechanism</text>
      <text style="font-size: 8px; font-family: 'Arial', 'Helvetica', 'Liberation Sans', 'DejaVu Sans', sans-serif" transform="translate(238.978865 59.476768)">depth</text>
     </g>
    </g>
    <g id="xtick_3">
     <g id="line2d_3">
      <path d="M 188.60435 238.893521 
L 41.845148 132.266719 
" clip-path="url(#pd87aa86888)" style="fill: none; stroke: #b0b0b0; stroke-width: 0.8; stroke-linecap: square"/>
     </g>
     <g id="text_3">
      <text style="font-size: 8px; font-family: 'Arial', 'Helvetica', 'Liberation Sans', 'DejaVu Sans', sans-serif" transform="translate(7.622035 121.754444)">Performance</text>
      <text style="font-size: 8px; font-family: 'Arial', 'Helvetica', 'Liberation Sans', 'DejaVu Sans', sans-serif" transform="translate(14.06516 130.461476)">coverage</text>
     </g>
    </g>
    <g id="xtick_4">
     <g id="line2d_4">
      <path d="M 188.60435 238.893521 
L 41.845148 345.520322 
" clip-path="url(#pd87aa86888)" style="fill: none; stroke: #b0b0b0; stroke-width: 0.8; stroke-linecap: square"/>
     </g>
     <g id="text_4">
      <text style="font-size: 8px; font-family: 'Arial', 'Helvetica', 'Liberation Sans', 'DejaVu Sans', sans-serif" transform="translate(13.84766 351.466034)">Durability</text>
      <text style="font-size: 8px; font-family: 'Arial', 'Helvetica', 'Liberation Sans', 'DejaVu Sans', sans-serif" transform="translate(14.508285 360.173222)">evidence</text>
     </g>
    </g>
    <g id="xtick_5">
     <g id="line2d_5">
      <path d="M 188.60435 238.893521 
L 244.661377 411.41931 
" clip-path="url(#pd87aa86888)" style="fill: none; stroke: #b0b0b0; stroke-width: 0.8; stroke-linecap: square"/>
     </g>
     <g id="text_5">
      <text style="font-size: 8px; font-family: 'Arial', 'Helvetica', 'Liberation Sans', 'DejaVu Sans', sans-serif" transform="translate(241.427615 422.45082)">Gap</text>
      <text style="font-size: 8px; font-family: 'Arial', 'Helvetica', 'Liberation Sans', 'DejaVu Sans', sans-serif" transform="translate(238.542615 431.157851)">clarity</text>
     </g>
    </g>
   </g>
   <g id="matplotlib.axis_2">
    <g id="ytick_1">
     <g id="line2d_6">
      <path d="M 224.88522 238.893521 
C 224.88522 234.12916 223.946745 229.411128 222.123503 225.009433 
C 220.300261 220.607738 217.62771 216.607983 214.258799 213.239071 
C 210.889888 209.87016 206.890133 207.197609 202.488438 205.374367 
C 198.086743 203.551126 193.36871 202.612651 188.60435 202.612651 
C 183.83999 202.612651 179.121957 203.551126 174.720262 205.374367 
C 170.318567 207.197609 166.318812 209.87016 162.949901 213.239071 
C 159.580989 216.607983 156.908438 220.607738 155.085197 225.009433 
C 153.261955 229.411128 152.32348 234.12916 152.32348 238.893521 
C 152.32348 243.657881 153.261955 248.375914 155.085197 252.777608 
C 156.908438 257.179303 159.580989 261.179058 162.949901 264.54797 
C 166.318812 267.916881 170.318567 270.589432 174.720262 272.412674 
C 179.121957 274.235915 183.83999 275.174391 188.60435 275.174391 
C 193.36871 275.174391 198.086743 274.235915 202.488438 272.412674 
C 206.890133 270.589432 210.889888 267.916881 214.258799 264.54797 
C 217.62771 261.179058 220.300261 257.179303 222.123503 252.777608 
C 223.946745 248.375914 224.88522 243.657881 224.88522 238.893521 
" clip-path="url(#pd87aa86888)" style="fill: none; stroke: #b0b0b0; stroke-width: 0.8; stroke-linecap: square"/>
     </g>
     <g id="text_6">
      <text style="font-size: 9px; font-family: 'Arial', 'Helvetica', 'Liberation Sans', 'DejaVu Sans', sans-serif; text-anchor: start" x="222.123503" y="223.11539" transform="rotate(-0 222.123503 223.11539)">0.2</text>
     </g>
    </g>
    <g id="ytick_2">
     <g id="line2d_7">
      <path d="M 261.16609 238.893521 
C 261.16609 229.3648 259.28914 219.928735 255.642656 211.125345 
C 251.996173 202.321955 246.651071 194.322445 239.913248 187.584622 
C 233.175425 180.846799 225.175915 175.501698 216.372526 171.855214 
C 207.569136 168.208731 198.13307 166.331781 188.60435 166.331781 
C 179.075629 166.331781 169.639564 168.208731 160.836174 171.855214 
C 152.032784 175.501698 144.033274 180.846799 137.295451 187.584622 
C 130.557629 194.322445 125.212527 202.321955 121.566043 211.125345 
C 117.91956 219.928735 116.04261 229.3648 116.04261 238.893521 
C 116.04261 248.422241 117.91956 257.858307 121.566043 266.661696 
C 125.212527 275.465086 130.557629 283.464596 137.295451 290.202419 
C 144.033274 296.940242 152.032784 302.285343 160.836174 305.931827 
C 169.639564 309.57831 179.075629 311.45526 188.60435 311.45526 
C 198.13307 311.45526 207.569136 309.57831 216.372526 305.931827 
C 225.175915 302.285343 233.175425 296.940242 239.913248 290.202419 
C 246.651071 283.464596 251.996173 275.465086 255.642656 266.661696 
C 259.28914 257.858307 261.16609 248.422241 261.16609 238.893521 
" clip-path="url(#pd87aa86888)" style="fill: none; stroke: #b0b0b0; stroke-width: 0.8; stroke-linecap: square"/>
     </g>
     <g id="text_7">
      <text style="font-size: 9px; font-family: 'Arial', 'Helvetica', 'Liberation Sans', 'DejaVu Sans', sans-serif; text-anchor: start" x="255.642656" y="209.231302" transform="rotate(-0 255.642656 209.231302)">0.4</text>
     </g>
    </g>
    <g id="ytick_3">
     <g id="line2d_8">
      <path d="M 297.44696 238.893521 
C 297.44696 224.60044 294.631534 210.446342 289.161809 197.241257 
C 283.692084 184.036172 275.674432 172.036907 265.567697 161.930173 
C 255.460963 151.823439 243.461698 143.805786 230.256613 138.336061 
C 217.051529 132.866336 202.89743 130.050911 188.60435 130.050911 
C 174.311269 130.050911 160.157171 132.866336 146.952086 138.336061 
C 133.747002 143.805786 121.747736 151.823439 111.641002 161.930173 
C 101.534268 172.036907 93.516615 184.036172 88.04689 197.241257 
C 82.577165 210.446342 79.76174 224.60044 79.76174 238.893521 
C 79.76174 253.186601 82.577165 267.340699 88.04689 280.545784 
C 93.516615 293.750869 101.534268 305.750134 111.641002 315.856868 
C 121.747736 325.963602 133.747002 333.981255 146.952086 339.45098 
C 160.157171 344.920705 174.311269 347.73613 188.60435 347.73613 
C 202.89743 347.73613 217.051529 344.920705 230.256613 339.45098 
C 243.461698 333.981255 255.460963 325.963602 265.567697 315.856868 
C 275.674432 305.750134 283.692084 293.750869 289.161809 280.545784 
C 294.631534 267.340699 297.44696 253.186601 297.44696 238.893521 
" clip-path="url(#pd87aa86888)" style="fill: none; stroke: #b0b0b0; stroke-width: 0.8; stroke-linecap: square"/>
     </g>
     <g id="text_8">
      <text style="font-size: 9px; font-family: 'Arial', 'Helvetica', 'Liberation Sans', 'DejaVu Sans', sans-serif; text-anchor: start" x="289.161809" y="195.347214" transform="rotate(-0 289.161809 195.347214)">0.6</text>
     </g>
    </g>
    <g id="ytick_4">
     <g id="line2d_9">
      <path d="M 333.72783 238.893521 
C 333.72783 219.83608 329.973929 200.963949 322.680963 183.357169 
C 315.387996 165.75039 304.697792 149.751369 291.222147 136.275724 
C 277.746501 122.800078 261.747481 112.109875 244.140701 104.816908 
C 226.533922 97.523941 207.661791 93.770041 188.60435 93.770041 
C 169.546909 93.770041 150.674778 97.523941 133.067998 104.816908 
C 115.461219 112.109875 99.462199 122.800078 85.986553 136.275724 
C 72.510908 149.751369 61.820704 165.75039 54.527737 183.357169 
C 47.23477 200.963949 43.48087 219.83608 43.48087 238.893521 
C 43.48087 257.950961 47.23477 276.823092 54.527737 294.429872 
C 61.820704 312.036651 72.510908 328.035672 85.986553 341.511317 
C 99.462199 354.986963 115.461219 365.677166 133.067998 372.970133 
C 150.674778 380.2631 169.546909 384.017 188.60435 384.017 
C 207.661791 384.017 226.533922 380.2631 244.140701 372.970133 
C 261.747481 365.677166 277.746501 354.986963 291.222147 341.511317 
C 304.697792 328.035672 315.387996 312.036651 322.680963 294.429872 
C 329.973929 276.823092 333.72783 257.950961 333.72783 238.893521 
" clip-path="url(#pd87aa86888)" style="fill: none; stroke: #b0b0b0; stroke-width: 0.8; stroke-linecap: square"/>
     </g>
     <g id="text_9">
      <text style="font-size: 9px; font-family: 'Arial', 'Helvetica', 'Liberation Sans', 'DejaVu Sans', sans-serif; text-anchor: start" x="322.680963" y="181.463126" transform="rotate(-0 322.680963 181.463126)">0.8</text>
     </g>
    </g>
    <g id="ytick_5">
     <g id="line2d_10">
      <path d="M 370.0087 238.893521 
C 370.0087 215.07172 365.316324 191.481556 356.200116 169.473081 
C 347.083907 147.464607 333.721153 127.465832 316.876596 110.621275 
C 300.032039 93.776718 280.033263 80.413963 258.024789 71.297755 
C 236.016315 62.181546 212.426151 57.489171 188.60435 57.489171 
C 164.782549 57.489171 141.192385 62.181546 119.183911 71.297755 
C 97.175436 80.413963 77.176661 93.776718 60.332104 110.621275 
C 43.487547 127.465832 30.124792 147.464607 21.008584 169.473081 
C 11.892375 191.481556 7.2 215.07172 7.2 238.893521 
C 7.2 262.715322 11.892375 286.305485 21.008584 308.31396 
C 30.124792 330.322434 43.487547 350.321209 60.332104 367.165766 
C 77.176661 384.010323 97.175436 397.373078 119.183911 406.489286 
C 141.192385 415.605495 164.782549 420.29787 188.60435 420.29787 
C 212.426151 420.29787 236.016315 415.605495 258.024789 406.489286 
C 280.033263 397.373078 300.032039 384.010323 316.876596 367.165766 
C 333.721153 350.321209 347.083907 330.322434 356.200116 308.31396 
C 365.316324 286.305485 370.0087 262.715322 370.0087 238.893521 
" clip-path="url(#pd87aa86888)" style="fill: none; stroke: #b0b0b0; stroke-width: 0.8; stroke-linecap: square"/>
     </g>
     <g id="text_10">
      <text style="font-size: 9px; font-family: 'Arial', 'Helvetica', 'Liberation Sans', 'DejaVu Sans', sans-serif; text-anchor: start" x="356.200116" y="167.579038" transform="rotate(-0 356.200116 167.579038)">1.0</text>
     </g>
    </g>
   </g>
   <g id="line2d_11">
    <path d="M 330.099743 238.893521 
L 219.435715 144.004337 
L 68.261804 151.459543 
L 137.238629 276.212901 
L 223.359707 345.85951 
L 330.099743 238.893521 
" clip-path="url(#pd87aa86888)" style="fill: none; stroke: #4b6f8a; stroke-width: 2; stroke-linecap: square"/>
    <defs>
     <path id="mc8d4b4a321" d="M 0 3 
C 0.795609 3 1.55874 2.683901 2.12132 2.12132 
C 2.683901 1.55874 3 0.795609 3 0 
C 3 -0.795609 2.683901 -1.55874 2.12132 -2.12132 
C 1.55874 -2.683901 0.795609 -3 0 -3 
C -0.795609 -3 -1.55874 -2.683901 -2.12132 -2.12132 
C -2.683901 -1.55874 -3 -0.795609 -3 0 
C -3 0.795609 -2.683901 1.55874 -2.12132 2.12132 
C -1.55874 2.683901 -0.795609 3 0 3 
z
" style="stroke: #4b6f8a"/>
    </defs>
    <g clip-path="url(#pd87aa86888)">
     <use xlink:href="#mc8d4b4a321" x="330.099743" y="238.893521" style="fill: #4b6f8a; stroke: #4b6f8a"/>
     <use xlink:href="#mc8d4b4a321" x="219.435715" y="144.004337" style="fill: #4b6f8a; stroke: #4b6f8a"/>
     <use xlink:href="#mc8d4b4a321" x="68.261804" y="151.459543" style="fill: #4b6f8a; stroke: #4b6f8a"/>
     <use xlink:href="#mc8d4b4a321" x="137.238629" y="276.212901" style="fill: #4b6f8a; stroke: #4b6f8a"/>
     <use xlink:href="#mc8d4b4a321" x="223.359707" y="345.85951" style="fill: #4b6f8a; stroke: #4b6f8a"/>
     <use xlink:href="#mc8d4b4a321" x="330.099743" y="238.893521" style="fill: #4b6f8a; stroke: #4b6f8a"/>
    </g>
   </g>
   <g id="line2d_12">
    <defs>
     <path id="m46aae0d07d" d="M 0 5 
C 1.326016 5 2.597899 4.473168 3.535534 3.535534 
C 4.473168 2.597899 5 1.326016 5 0 
C 5 -1.326016 4.473168 -2.597899 3.535534 -3.535534 
C 2.597899 -4.473168 1.326016 -5 0 -5 
C -1.326016 -5 -2.597899 -4.473168 -3.535534 -3.535534 
C -4.473168 -2.597899 -5 -1.326016 -5 0 
C -5 1.326016 -4.473168 2.597899 -3.535534 3.535534 
C -2.597899 4.473168 -1.326016 5 0 5 
z
" style="stroke: #333333; stroke-width: 0.8"/>
    </defs>
    <g clip-path="url(#pd87aa86888)">
     <use xlink:href="#m46aae0d07d" x="330.099743" y="238.893521" style="fill: #4f7c6a; stroke: #333333; stroke-width: 0.8"/>
    </g>
   </g>
   <g id="line2d_13">
    <defs>
     <path id="m495f39e408" d="M 0 5 
C 1.326016 5 2.597899 4.473168 3.535534 3.535534 
C 4.473168 2.597899 5 1.326016 5 0 
C 5 -1.326016 4.473168 -2.597899 3.535534 -3.535534 
C 2.597899 -4.473168 1.326016 -5 0 -5 
C -1.326016 -5 -2.597899 -4.473168 -3.535534 -3.535534 
C -4.473168 -2.597899 -5 -1.326016 -5 0 
C -5 1.326016 -4.473168 2.597899 -3.535534 3.535534 
C -2.597899 4.473168 -1.326016 5 0 5 
z
" style="stroke: #333333; stroke-width: 0.8"/>
    </defs>
    <g clip-path="url(#pd87aa86888)">
     <use xlink:href="#m495f39e408" x="219.435715" y="144.004337" style="fill: #4b6f8a; stroke: #333333; stroke-width: 0.8"/>
    </g>
   </g>
   <g id="line2d_14">
    <g clip-path="url(#pd87aa86888)">
     <use xlink:href="#m46aae0d07d" x="68.261804" y="151.459543" style="fill: #4f7c6a; stroke: #333333; stroke-width: 0.8"/>
    </g>
   </g>
   <g id="line2d_15">
    <defs>
     <path id="m33dbdaf2fa" d="M 0 5 
C 1.326016 5 2.597899 4.473168 3.535534 3.535534 
C 4.473168 2.597899 5 1.326016 5 0 
C 5 -1.326016 4.473168 -2.597899 3.535534 -3.535534 
C 2.597899 -4.473168 1.326016 -5 0 -5 
C -1.326016 -5 -2.597899 -4.473168 -3.535534 -3.535534 
C -4.473168 -2.597899 -5 -1.326016 -5 0 
C -5 1.326016 -4.473168 2.597899 -3.535534 3.535534 
C -2.597899 4.473168 -1.326016 5 0 5 
z
" style="stroke: #333333; stroke-width: 0.8"/>
    </defs>
    <g clip-path="url(#pd87aa86888)">
     <use xlink:href="#m33dbdaf2fa" x="137.238629" y="276.212901" style="fill: #8c8c8c; stroke: #333333; stroke-width: 0.8"/>
    </g>
   </g>
   <g id="line2d_16">
    <g clip-path="url(#pd87aa86888)">
     <use xlink:href="#m495f39e408" x="223.359707" y="345.85951" style="fill: #4b6f8a; stroke: #333333; stroke-width: 0.8"/>
    </g>
   </g>
   <g id="patch_4">
    <path d="M 370.0087 238.893521 
C 370.0087 215.07172 365.316324 191.481556 356.200116 169.473081 
C 347.083907 147.464607 333.721153 127.465832 316.876596 110.621275 
C 300.032039 93.776718 280.033263 80.413963 258.024789 71.297755 
C 236.016315 62.181546 212.426151 57.489171 188.60435 57.489171 
C 164.782549 57.489171 141.192385 62.181546 119.183911 71.297755 
C 97.175436 80.413963 77.176661 93.776718 60.332104 110.621275 
C 43.487547 127.465832 30.124792 147.464607 21.008584 169.473081 
C 11.892375 191.481556 7.2 215.07172 7.2 238.893521 
C 7.2 262.715322 11.892375 286.305485 21.008584 308.31396 
C 30.124792 330.322434 43.487547 350.321209 60.332104 367.165766 
C 77.176661 384.010323 97.175436 397.373078 119.183911 406.489286 
C 141.192385 415.605495 164.782549 420.29787 188.60435 420.29787 
C 212.426151 420.29787 236.016315 415.605495 258.024789 406.489286 
C 280.033263 397.373078 300.032039 384.010323 316.876596 367.165766 
C 333.721153 350.321209 347.083907 330.322434 356.200116 308.31396 
C 365.316324 286.305485 370.0087 262.715322 370.0087 238.893521 
" style="fill: none; stroke: #000000; stroke-width: 1.5; stroke-linejoin: miter; stroke-linecap: square"/>
   </g>
   <g id="text_11">
    <text style="font-size: 11px; font-family: 'Arial', 'Helvetica', 'Liberation Sans', 'DejaVu Sans', sans-serif; text-anchor: middle" x="188.60435" y="15.208301" transform="rotate(-0 188.60435 15.208301)">Review framework map (coverage + evidence tier)</text>
   </g>
   <g id="legend_1">
    <g id="patch_5">
     <path d="M 159.895053 416.79787 
L 217.313647 416.79787 
Q 218.713647 416.79787 218.713647 415.39787 
L 218.713647 365.751054 
Q 218.713647 364.351054 217.313647 364.351054 
L 159.895053 364.351054 
Q 158.495053 364.351054 158.495053 365.751054 
L 158.495053 415.39787 
Q 158.495053 416.79787 159.895053 416.79787 
z
" style="fill: #ffffff; opacity: 0.9; stroke: #cccccc; stroke-linejoin: miter"/>
    </g>
    <g id="text_12">
     <text style="font-size: 7px; font-family: 'Arial', 'Helvetica', 'Liberation Sans', 'DejaVu Sans', sans-serif; text-anchor: start" x="168.76099" y="372.247245" transform="rotate(-0 168.76099 372.247245)">evidence tier</text>
    </g>
    <g id="line2d_17">
     <path d="M 161.295053 379.866581 
L 168.295053 379.866581 
L 175.295053 379.866581 
" style="fill: none; stroke: #000000; stroke-opacity: 0; stroke-width: 1.5; stroke-linecap: square"/>
     <defs>
      <path id="md8715c37cf" d="M -3.5 3.5 
L 3.5 3.5 
L 3.5 -3.5 
L -3.5 -3.5 
z
" style="stroke: #333333; stroke-linejoin: miter"/>
     </defs>
     <g>
      <use xlink:href="#md8715c37cf" x="168.295053" y="379.866581" style="fill: #4f7c6a; stroke: #333333; stroke-linejoin: miter"/>
     </g>
    </g>
    <g id="text_13">
     <text style="font-size: 7px; font-family: 'Arial', 'Helvetica', 'Liberation Sans', 'DejaVu Sans', sans-serif; text-anchor: start" x="180.895053" y="382.316581" transform="rotate(-0 180.895053 382.316581)">measured</text>
    </g>
    <g id="line2d_18">
     <path d="M 161.295053 389.935917 
L 168.295053 389.935917 
L 175.295053 389.935917 
" style="fill: none; stroke: #000000; stroke-opacity: 0; stroke-width: 1.5; stroke-linecap: square"/>
     <defs>
      <path id="m8e39cd4148" d="M -3.5 3.5 
L 3.5 3.5 
L 3.5 -3.5 
L -3.5 -3.5 
z
" style="stroke: #333333; stroke-linejoin: miter"/>
     </defs>
     <g>
      <use xlink:href="#m8e39cd4148" x="168.295053" y="389.935917" style="fill: #4b6f8a; stroke: #333333; stroke-linejoin: miter"/>
     </g>
    </g>
    <g id="text_14">
     <text style="font-size: 7px; font-family: 'Arial', 'Helvetica', 'Liberation Sans', 'DejaVu Sans', sans-serif; text-anchor: start" x="180.895053" y="392.385917" transform="rotate(-0 180.895053 392.385917)">inferred</text>
    </g>
    <g id="line2d_19">
     <path d="M 161.295053 400.005253 
L 168.295053 400.005253 
L 175.295053 400.005253 
" style="fill: none; stroke: #000000; stroke-opacity: 0; stroke-width: 1.5; stroke-linecap: square"/>
     <defs>
      <path id="m39b804d826" d="M -3.5 3.5 
L 3.5 3.5 
L 3.5 -3.5 
L -3.5 -3.5 
z
" style="stroke: #333333; stroke-linejoin: miter"/>
     </defs>
     <g>
      <use xlink:href="#m39b804d826" x="168.295053" y="400.005253" style="fill: #c47b45; stroke: #333333; stroke-linejoin: miter"/>
     </g>
    </g>
    <g id="text_15">
     <text style="font-size: 7px; font-family: 'Arial', 'Helvetica', 'Liberation Sans', 'DejaVu Sans', sans-serif; text-anchor: start" x="180.895053" y="402.455253" transform="rotate(-0 180.895053 402.455253)">speculative</text>
    </g>
    <g id="line2d_20">
     <path d="M 161.295053 410.074589 
L 168.295053 410.074589 
L 175.295053 410.074589 
" style="fill: none; stroke: #000000; stroke-opacity: 0; stroke-width: 1.5; stroke-linecap: square"/>
     <defs>
      <path id="m2d30efa7ad" d="M -3.5 3.5 
L 3.5 3.5 
L 3.5 -3.5 
L -3.5 -3.5 
z
" style="stroke: #333333; stroke-linejoin: miter"/>
     </defs>
     <g>
      <use xlink:href="#m2d30efa7ad" x="168.295053" y="410.074589" style="fill: #8c8c8c; stroke: #333333; stroke-linejoin: miter"/>
     </g>
    </g>
    <g id="text_16">
     <text style="font-size: 7px; font-family: 'Arial', 'Helvetica', 'Liberation Sans', 'DejaVu Sans', sans-serif; text-anchor: start" x="180.895053" y="412.524589" transform="rotate(-0 180.895053 412.524589)">missing</text>
    </g>
   </g>
  </g>
 </g>
 <defs>
  <clipPath id="pd87aa86888">
   <path d="M 370.0087 238.893521 
C 370.0087 215.07172 365.316324 191.481556 356.200116 169.473081 
C 347.083907 147.464607 333.721153 127.465832 316.876596 110.621275 
C 300.032039 93.776718 280.033263 80.413963 258.024789 71.297755 
C 236.016315 62.181546 212.426151 57.489171 188.60435 57.489171 
C 164.782549 57.489171 141.192385 62.181546 119.183911 71.297755 
C 97.175436 80.413963 77.176661 93.776718 60.332104 110.621275 
C 43.487547 127.465832 30.124792 147.464607 21.008584 169.473081 
C 11.892375 191.481556 7.2 215.07172 7.2 238.893521 
C 7.2 262.715322 11.892375 286.305485 21.008584 308.31396 
C 30.124792 330.322434 43.487547 350.321209 60.332104 367.165766 
C 77.176661 384.010323 97.175436 397.373078 119.183911 406.489286 
C 141.192385 415.605495 164.782549 420.29787 188.60435 420.29787 
C 212.426151 420.29787 236.016315 415.605495 258.024789 406.489286 
C 280.033263 397.373078 300.032039 384.010323 316.876596 367.165766 
C 333.721153 350.321209 347.083907 330.322434 356.200116 308.31396 
C 365.316324 286.305485 370.0087 262.715322 370.0087 238.893521 
M 188.60435 238.893521 
C 188.60435 238.893521 188.60435 238.893521 188.60435 238.893521 
C 188.60435 238.893521 188.60435 238.893521 188.60435 238.893521 
C 188.60435 238.893521 188.60435 238.893521 188.60435 238.893521 
C 188.60435 238.893521 188.60435 238.893521 188.60435 238.893521 
C 188.60435 238.893521 188.60435 238.893521 188.60435 238.893521 
C 188.60435 238.893521 188.60435 238.893521 188.60435 238.893521 
C 188.60435 238.893521 188.60435 238.893521 188.60435 238.893521 
C 188.60435 238.893521 188.60435 238.893521 188.60435 238.893521 
C 188.60435 238.893521 188.60435 238.893521 188.60435 238.893521 
C 188.60435 238.893521 188.60435 238.893521 188.60435 238.893521 
C 188.60435 238.893521 188.60435 238.893521 188.60435 238.893521 
C 188.60435 238.893521 188.60435 238.893521 188.60435 238.893521 
C 188.60435 238.893521 188.60435 238.893521 188.60435 238.893521 
C 188.60435 238.893521 188.60435 238.893521 188.60435 238.893521 
C 188.60435 238.893521 188.60435 238.893521 188.60435 238.893521 
C 188.60435 238.893521 188.60435 238.893521 188.60435 238.893521 
z
"/>
  </clipPath>
 </defs>
</svg>
