<?xml version="1.0" encoding="utf-8" standalone="no"?>
<!DOCTYPE svg PUBLIC "-//W3C//DTD SVG 1.1//EN"
  "http://www.w3.org/Graphics/SVG/1.1/DTD/svg11.dtd">
<svg xmlns:xlink="http://www.w3.org/1999/xlink" width="558.543771pt" height="295.060845pt" viewBox="0 0 558.543771 295.060845" xmlns="http://www.w3.org/2000/svg" version="1.1">
 <metadata>
  <rdf:RDF xmlns:dc="http://purl.org/dc/elements/1.1/" xmlns:cc="http://creativecommons.org/ns#" xmlns:rdf="http://www.w3.org/1999/02/22-rdf-syntax-ns#">
   <cc:Work>
    <dc:type rdf:resource="http://purl.org/dc/dcmitype/StillImage"/>
    <dc:date>2026-06-12T15:05:02.304891</dc:date>
    <dc:format>image/svg+xml</dc:format>
    <dc:creator>
     <cc:Agent>
      <dc:title>Matplotlib v3.10.9, https://matplotlib.org/</dc:title>
     </cc:Agent>
    </dc:creator>
   </cc:Work>
  </rdf:RDF>
 </metadata>
 <defs>
  <style type="text/css">*{stroke-linejoin: round; stroke-linecap: butt}</style>
 </defs>
 <g id="figure_1">
  <g id="patch_1">
   <path d="M 0 295.060845 
L 558.543771 295.060845 
L 558.543771 0 
L 0 0 
z
" style="fill: #ffffff"/>
  </g>
  <g id="axes_1">
   <g id="patch_2">
    <path d="M 238.832124 157.32 
C 238.832124 142.556425 235.924021 127.936406 230.274246 114.296641 
C 224.62447 100.656876 216.342895 88.262623 205.903471 77.823199 
C 195.464046 67.383774 183.069793 59.102199 169.430028 53.452424 
C 155.790263 47.802648 141.170245 44.894545 126.406669 44.894545 
C 111.643094 44.894545 97.023076 47.802648 83.383311 53.452424 
C 69.743545 59.102199 57.349292 67.383774 46.909868 77.823199 
C 36.470444 88.262623 28.188869 100.656876 22.539093 114.296641 
C 16.889317 127.936406 13.981215 142.556425 13.981215 157.32 
C 13.981215 172.083575 16.889317 186.703594 22.539093 200.343359 
C 28.188869 213.983124 36.470444 226.377377 46.909868 236.816801 
C 57.349292 247.256226 69.743545 255.537801 83.383311 261.187576 
C 97.023076 266.837352 111.643094 269.745455 126.406669 269.745455 
C 141.170245 269.745455 155.790263 266.837352 169.430028 261.187576 
C 183.069793 255.537801 195.464046 247.256226 205.903471 236.816801 
C 216.342895 226.377377 224.62447 213.983124 230.274246 200.343359 
C 235.924021 186.703594 238.832124 172.083575 238.832124 157.32 
M 126.406669 157.32 
C 126.406669 157.32 126.406669 157.32 126.406669 157.32 
C 126.406669 157.32 126.406669 157.32 126.406669 157.32 
C 126.406669 157.32 126.406669 157.32 126.406669 157.32 
C 126.406669 157.32 126.406669 157.32 126.406669 157.32 
C 126.406669 157.32 126.406669 157.32 126.406669 157.32 
C 126.406669 157.32 126.406669 157.32 126.406669 157.32 
C 126.406669 157.32 126.406669 157.32 126.406669 157.32 
C 126.406669 157.32 126.406669 157.32 126.406669 157.32 
C 126.406669 157.32 126.406669 157.32 126.406669 157.32 
C 126.406669 157.32 126.406669 157.32 126.406669 157.32 
C 126.406669 157.32 126.406669 157.32 126.406669 157.32 
C 126.406669 157.32 126.406669 157.32 126.406669 157.32 
C 126.406669 157.32 126.406669 157.32 126.406669 157.32 
C 126.406669 157.32 126.406669 157.32 126.406669 157.32 
C 126.406669 157.32 126.406669 157.32 126.406669 157.32 
C 126.406669 157.32 126.406669 157.32 126.406669 157.32 
z
" style="fill: #ffffff"/>
   </g>
   <g id="patch_3">
    <path d="M 213.727411 157.32 
L 146.644364 95.03478 
L 38.101715 93.162695 
L 91.084687 182.982922 
L 146.644364 219.60522 
z
" clip-path="url(#p8cdde94618)" style="fill: #4b6f8a; opacity: 0.1; stroke: #4b6f8a; stroke-linejoin: miter"/>
   </g>
   <g id="patch_4">
    <path d="M 191.897225 157.32 
L 153.390262 74.27304 
L 73.423697 118.825617 
L 55.762706 208.645844 
L 153.390262 240.36696 
z
" clip-path="url(#p8cdde94618)" style="fill: #c47b45; opacity: 0.1; stroke: #c47b45; stroke-linejoin: miter"/>
   </g>
   <g id="matplotlib.axis_1">
    <g id="xtick_1">
     <g id="line2d_1">
      <path d="M 126.406669 157.32 
L 238.832124 157.32 
" clip-path="url(#p8cdde94618)" style="fill: none; stroke: #b0b0b0; stroke-width: 0.8; stroke-linecap: square"/>
     </g>
     <g id="text_1">
      <text style="font-size: 7px; font-family: 'Arial', 'Helvetica', 'Liberation Sans', 'DejaVu Sans', sans-serif; text-anchor: middle" x="252.832124" y="159.13125" transform="rotate(-0 252.832124 159.13125)">Strength</text>
     </g>
    </g>
    <g id="xtick_2">
     <g id="line2d_2">
      <path d="M 126.406669 157.32 
L 161.148045 50.397039 
" clip-path="url(#p8cdde94618)" style="fill: none; stroke: #b0b0b0; stroke-width: 0.8; stroke-linecap: square"/>
     </g>
     <g id="text_2">
      <text style="font-size: 7px; font-family: 'Arial', 'Helvetica', 'Liberation Sans', 'DejaVu Sans', sans-serif; text-anchor: middle" x="165.474283" y="38.850841" transform="rotate(-0 165.474283 38.850841)">Density</text>
     </g>
    </g>
    <g id="xtick_3">
     <g id="line2d_3">
      <path d="M 126.406669 157.32 
L 35.452566 91.237976 
" clip-path="url(#p8cdde94618)" style="fill: none; stroke: #b0b0b0; stroke-width: 0.8; stroke-linecap: square"/>
     </g>
     <g id="text_3">
      <text style="font-size: 7px; font-family: 'Arial', 'Helvetica', 'Liberation Sans', 'DejaVu Sans', sans-serif; text-anchor: middle" x="24.126328" y="84.818592" transform="rotate(-0 24.126328 84.818592)">Hardness</text>
     </g>
    </g>
    <g id="xtick_4">
     <g id="line2d_4">
      <path d="M 126.406669 157.32 
L 35.452566 223.402024 
" clip-path="url(#p8cdde94618)" style="fill: none; stroke: #b0b0b0; stroke-width: 0.8; stroke-linecap: square"/>
     </g>
     <g id="text_4">
      <text style="font-size: 7px; font-family: 'Arial', 'Helvetica', 'Liberation Sans', 'DejaVu Sans', sans-serif; text-anchor: middle" x="24.126328" y="233.399611" transform="rotate(-0 24.126328 233.399611)">Toughness</text>
     </g>
    </g>
    <g id="xtick_5">
     <g id="line2d_5">
      <path d="M 126.406669 157.32 
L 161.148045 264.242961 
" clip-path="url(#p8cdde94618)" style="fill: none; stroke: #b0b0b0; stroke-width: 0.8; stroke-linecap: square"/>
     </g>
     <g id="text_5">
      <text style="font-size: 7px; font-family: 'Arial', 'Helvetica', 'Liberation Sans', 'DejaVu Sans', sans-serif; text-anchor: middle" x="165.474283" y="279.369002" transform="rotate(-0 165.474283 279.369002)">Conductivity</text>
     </g>
    </g>
   </g>
   <g id="matplotlib.axis_2">
    <g id="ytick_1">
     <g id="line2d_6">
      <path d="M 148.236855 157.32 
C 148.236855 154.453286 147.672175 151.614448 146.575131 148.96595 
C 145.478087 146.317452 143.870014 143.910801 141.842941 141.883728 
C 139.815869 139.856655 137.409218 138.248582 134.76072 137.151539 
C 132.112222 136.054495 129.273383 135.489815 126.406669 135.489815 
C 123.539956 135.489815 120.701117 136.054495 118.052619 137.151539 
C 115.404121 138.248582 112.99747 139.856655 110.970397 141.883728 
C 108.943325 143.910801 107.335252 146.317452 106.238208 148.96595 
C 105.141164 151.614448 104.576484 154.453286 104.576484 157.32 
C 104.576484 160.186714 105.141164 163.025552 106.238208 165.67405 
C 107.335252 168.322548 108.943325 170.729199 110.970397 172.756272 
C 112.99747 174.783345 115.404121 176.391418 118.052619 177.488461 
C 120.701117 178.585505 123.539956 179.150185 126.406669 179.150185 
C 129.273383 179.150185 132.112222 178.585505 134.76072 177.488461 
C 137.409218 176.391418 139.815869 174.783345 141.842941 172.756272 
C 143.870014 170.729199 145.478087 168.322548 146.575131 165.67405 
C 147.672175 163.025552 148.236855 160.186714 148.236855 157.32 
" clip-path="url(#p8cdde94618)" style="fill: none; stroke: #b0b0b0; stroke-width: 0.8; stroke-linecap: square"/>
     </g>
     <g id="text_6">
      <text style="font-size: 9px; font-family: 'Arial', 'Helvetica', 'Liberation Sans', 'DejaVu Sans', sans-serif; text-anchor: start" x="146.575131" y="147.1772" transform="rotate(-0 146.575131 147.1772)">1</text>
     </g>
    </g>
    <g id="ytick_2">
     <g id="line2d_7">
      <path d="M 170.06704 157.32 
C 170.06704 151.586573 168.93768 145.908896 166.743592 140.611899 
C 164.549505 135.314903 161.333359 130.501601 157.279214 126.447456 
C 153.225068 122.39331 148.411766 119.177165 143.11477 116.983077 
C 137.817774 114.788989 132.140097 113.659629 126.406669 113.659629 
C 120.673242 113.659629 114.995565 114.788989 109.698569 116.983077 
C 104.401573 119.177165 99.588271 122.39331 95.534125 126.447456 
C 91.47998 130.501601 88.263834 135.314903 86.069747 140.611899 
C 83.875659 145.908896 82.746299 151.586573 82.746299 157.32 
C 82.746299 163.053427 83.875659 168.731104 86.069747 174.028101 
C 88.263834 179.325097 91.47998 184.138399 95.534125 188.192544 
C 99.588271 192.24669 104.401573 195.462835 109.698569 197.656923 
C 114.995565 199.851011 120.673242 200.980371 126.406669 200.980371 
C 132.140097 200.980371 137.817774 199.851011 143.11477 197.656923 
C 148.411766 195.462835 153.225068 192.24669 157.279214 188.192544 
C 161.333359 184.138399 164.549505 179.325097 166.743592 174.028101 
C 168.93768 168.731104 170.06704 163.053427 170.06704 157.32 
" clip-path="url(#p8cdde94618)" style="fill: none; stroke: #b0b0b0; stroke-width: 0.8; stroke-linecap: square"/>
     </g>
     <g id="text_7">
      <text style="font-size: 9px; font-family: 'Arial', 'Helvetica', 'Liberation Sans', 'DejaVu Sans', sans-serif; text-anchor: start" x="166.743592" y="138.823149" transform="rotate(-0 166.743592 138.823149)">2</text>
     </g>
    </g>
    <g id="ytick_3">
     <g id="line2d_8">
      <path d="M 191.897225 157.32 
C 191.897225 148.719859 190.203185 140.203343 186.912054 132.257849 
C 183.620922 124.312355 178.796704 117.092402 172.715486 111.011184 
C 166.634268 104.929966 159.414314 100.105747 151.46882 96.814616 
C 143.523326 93.523484 135.00681 91.829444 126.406669 91.829444 
C 117.806528 91.829444 109.290013 93.523484 101.344519 96.814616 
C 93.399024 100.105747 86.179071 104.929966 80.097853 111.011184 
C 74.016635 117.092402 69.192417 124.312355 65.901285 132.257849 
C 62.610154 140.203343 60.916113 148.719859 60.916113 157.32 
C 60.916113 165.920141 62.610154 174.436657 65.901285 182.382151 
C 69.192417 190.327645 74.016635 197.547598 80.097853 203.628816 
C 86.179071 209.710034 93.399024 214.534253 101.344519 217.825384 
C 109.290013 221.116516 117.806528 222.810556 126.406669 222.810556 
C 135.00681 222.810556 143.523326 221.116516 151.46882 217.825384 
C 159.414314 214.534253 166.634268 209.710034 172.715486 203.628816 
C 178.796704 197.547598 183.620922 190.327645 186.912054 182.382151 
C 190.203185 174.436657 191.897225 165.920141 191.897225 157.32 
" clip-path="url(#p8cdde94618)" style="fill: none; stroke: #b0b0b0; stroke-width: 0.8; stroke-linecap: square"/>
     </g>
     <g id="text_8">
      <text style="font-size: 9px; font-family: 'Arial', 'Helvetica', 'Liberation Sans', 'DejaVu Sans', sans-serif; text-anchor: start" x="186.912054" y="130.469099" transform="rotate(-0 186.912054 130.469099)">3</text>
     </g>
    </g>
    <g id="ytick_4">
     <g id="line2d_9">
      <path d="M 213.727411 157.32 
C 213.727411 145.853145 211.46869 134.497791 207.080515 123.903799 
C 202.69234 113.309807 196.260048 103.683202 188.151758 95.574912 
C 180.043467 87.466621 170.416863 81.03433 159.82287 76.646154 
C 149.228878 72.257979 137.873524 69.999259 126.406669 69.999259 
C 114.939815 69.999259 103.584461 72.257979 92.990468 76.646154 
C 82.396476 81.03433 72.769872 87.466621 64.661581 95.574912 
C 56.55329 103.683202 50.120999 113.309807 45.732824 123.903799 
C 41.344648 134.497791 39.085928 145.853145 39.085928 157.32 
C 39.085928 168.786855 41.344648 180.142209 45.732824 190.736201 
C 50.120999 201.330193 56.55329 210.956798 64.661581 219.065088 
C 72.769872 227.173379 82.396476 233.60567 92.990468 237.993846 
C 103.584461 242.382021 114.939815 244.640741 126.406669 244.640741 
C 137.873524 244.640741 149.228878 242.382021 159.82287 237.993846 
C 170.416863 233.60567 180.043467 227.173379 188.151758 219.065088 
C 196.260048 210.956798 202.69234 201.330193 207.080515 190.736201 
C 211.46869 180.142209 213.727411 168.786855 213.727411 157.32 
" clip-path="url(#p8cdde94618)" style="fill: none; stroke: #b0b0b0; stroke-width: 0.8; stroke-linecap: square"/>
     </g>
     <g id="text_9">
      <text style="font-size: 9px; font-family: 'Arial', 'Helvetica', 'Liberation Sans', 'DejaVu Sans', sans-serif; text-anchor: start" x="207.080515" y="122.115049" transform="rotate(-0 207.080515 122.115049)">4</text>
     </g>
    </g>
    <g id="ytick_5">
     <g id="line2d_10">
      <path d="M 235.557596 157.32 
C 235.557596 142.986432 232.734196 128.792239 227.248977 115.549749 
C 221.763757 102.307258 213.723393 90.274003 203.58803 80.13864 
C 193.452666 70.003276 181.419411 61.962912 168.176921 56.477693 
C 154.93443 50.992474 140.740238 48.169073 126.406669 48.169073 
C 112.073101 48.169073 97.878909 50.992474 84.636418 56.477693 
C 71.393928 61.962912 59.360672 70.003276 49.225309 80.13864 
C 39.089946 90.274003 31.049581 102.307258 25.564362 115.549749 
C 20.079143 128.792239 17.255743 142.986432 17.255743 157.32 
C 17.255743 171.653568 20.079143 185.847761 25.564362 199.090251 
C 31.049581 212.332742 39.089946 224.365997 49.225309 234.50136 
C 59.360672 244.636724 71.393928 252.677088 84.636418 258.162307 
C 97.878909 263.647526 112.073101 266.470927 126.406669 266.470927 
C 140.740238 266.470927 154.93443 263.647526 168.176921 258.162307 
C 181.419411 252.677088 193.452666 244.636724 203.58803 234.50136 
C 213.723393 224.365997 221.763757 212.332742 227.248977 199.090251 
C 232.734196 185.847761 235.557596 171.653568 235.557596 157.32 
" clip-path="url(#p8cdde94618)" style="fill: none; stroke: #b0b0b0; stroke-width: 0.8; stroke-linecap: square"/>
     </g>
     <g id="text_10">
      <text style="font-size: 9px; font-family: 'Arial', 'Helvetica', 'Liberation Sans', 'DejaVu Sans', sans-serif; text-anchor: start" x="227.248977" y="113.760999" transform="rotate(-0 227.248977 113.760999)">5</text>
     </g>
    </g>
   </g>
   <g id="line2d_11">
    <path d="M 213.727411 157.32 
L 146.644364 95.03478 
L 38.101715 93.162695 
L 91.084687 182.982922 
L 146.644364 219.60522 
L 213.727411 157.32 
" clip-path="url(#p8cdde94618)" style="fill: none; stroke: #4b6f8a; stroke-width: 1.5; stroke-linecap: square"/>
    <defs>
     <path id="mfc682b3807" d="M 0 3 
C 0.795609 3 1.55874 2.683901 2.12132 2.12132 
C 2.683901 1.55874 3 0.795609 3 0 
C 3 -0.795609 2.683901 -1.55874 2.12132 -2.12132 
C 1.55874 -2.683901 0.795609 -3 0 -3 
C -0.795609 -3 -1.55874 -2.683901 -2.12132 -2.12132 
C -2.683901 -1.55874 -3 -0.795609 -3 0 
C -3 0.795609 -2.683901 1.55874 -2.12132 2.12132 
C -1.55874 2.683901 -0.795609 3 0 3 
z
" style="stroke: #4b6f8a"/>
    </defs>
    <g clip-path="url(#p8cdde94618)">
     <use xlink:href="#mfc682b3807" x="213.727411" y="157.32" style="fill: #4b6f8a; stroke: #4b6f8a"/>
     <use xlink:href="#mfc682b3807" x="146.644364" y="95.03478" style="fill: #4b6f8a; stroke: #4b6f8a"/>
     <use xlink:href="#mfc682b3807" x="38.101715" y="93.162695" style="fill: #4b6f8a; stroke: #4b6f8a"/>
     <use xlink:href="#mfc682b3807" x="91.084687" y="182.982922" style="fill: #4b6f8a; stroke: #4b6f8a"/>
     <use xlink:href="#mfc682b3807" x="146.644364" y="219.60522" style="fill: #4b6f8a; stroke: #4b6f8a"/>
     <use xlink:href="#mfc682b3807" x="213.727411" y="157.32" style="fill: #4b6f8a; stroke: #4b6f8a"/>
    </g>
   </g>
   <g id="line2d_12">
    <path d="M 191.897225 157.32 
L 153.390262 74.27304 
L 73.423697 118.825617 
L 55.762706 208.645844 
L 153.390262 240.36696 
L 191.897225 157.32 
" clip-path="url(#p8cdde94618)" style="fill: none; stroke-dasharray: 5.55,2.4; stroke-dashoffset: 0; stroke: #c47b45; stroke-width: 1.5"/>
    <defs>
     <path id="mc3833397ad" d="M -3 3 
L 3 3 
L 3 -3 
L -3 -3 
z
" style="stroke: #c47b45; stroke-linejoin: miter"/>
    </defs>
    <g clip-path="url(#p8cdde94618)">
     <use xlink:href="#mc3833397ad" x="191.897225" y="157.32" style="fill: #c47b45; stroke: #c47b45; stroke-linejoin: miter"/>
     <use xlink:href="#mc3833397ad" x="153.390262" y="74.27304" style="fill: #c47b45; stroke: #c47b45; stroke-linejoin: miter"/>
     <use xlink:href="#mc3833397ad" x="73.423697" y="118.825617" style="fill: #c47b45; stroke: #c47b45; stroke-linejoin: miter"/>
     <use xlink:href="#mc3833397ad" x="55.762706" y="208.645844" style="fill: #c47b45; stroke: #c47b45; stroke-linejoin: miter"/>
     <use xlink:href="#mc3833397ad" x="153.390262" y="240.36696" style="fill: #c47b45; stroke: #c47b45; stroke-linejoin: miter"/>
     <use xlink:href="#mc3833397ad" x="191.897225" y="157.32" style="fill: #c47b45; stroke: #c47b45; stroke-linejoin: miter"/>
    </g>
   </g>
   <g id="patch_5">
    <path d="M 238.832124 157.32 
C 238.832124 142.556425 235.924021 127.936406 230.274246 114.296641 
C 224.62447 100.656876 216.342895 88.262623 205.903471 77.823199 
C 195.464046 67.383774 183.069793 59.102199 169.430028 53.452424 
C 155.790263 47.802648 141.170245 44.894545 126.406669 44.894545 
C 111.643094 44.894545 97.023076 47.802648 83.383311 53.452424 
C 69.743545 59.102199 57.349292 67.383774 46.909868 77.823199 
C 36.470444 88.262623 28.188869 100.656876 22.539093 114.296641 
C 16.889317 127.936406 13.981215 142.556425 13.981215 157.32 
C 13.981215 172.083575 16.889317 186.703594 22.539093 200.343359 
C 28.188869 213.983124 36.470444 226.377377 46.909868 236.816801 
C 57.349292 247.256226 69.743545 255.537801 83.383311 261.187576 
C 97.023076 266.837352 111.643094 269.745455 126.406669 269.745455 
C 141.170245 269.745455 155.790263 266.837352 169.430028 261.187576 
C 183.069793 255.537801 195.464046 247.256226 205.903471 236.816801 
C 216.342895 226.377377 224.62447 213.983124 230.274246 200.343359 
C 235.924021 186.703594 238.832124 172.083575 238.832124 157.32 
" style="fill: none; stroke: #000000; stroke-width: 1.5; stroke-linejoin: miter; stroke-linecap: square"/>
   </g>
   <g id="text_11">
    <text style="font-weight: 700; font-size: 12px; font-family: 'Arial', 'Helvetica', 'Liberation Sans', 'DejaVu Sans', sans-serif; text-anchor: start" x="18.478233" y="57.980939" transform="rotate(-0 18.478233 57.980939)">a</text>
   </g>
   <g id="legend_1">
    <g id="line2d_13">
     <path d="M 181.423374 53.755014 
L 188.423374 53.755014 
L 195.423374 53.755014 
" style="fill: none; stroke: #4b6f8a; stroke-width: 1.5; stroke-linecap: square"/>
     <g>
      <use xlink:href="#mfc682b3807" x="188.423374" y="53.755014" style="fill: #4b6f8a; stroke: #4b6f8a"/>
     </g>
    </g>
    <g id="text_12">
     <text style="font-size: 7px; font-family: 'Arial', 'Helvetica', 'Liberation Sans', 'DejaVu Sans', sans-serif; text-anchor: start" x="201.023374" y="56.205014" transform="rotate(-0 201.023374 56.205014)">Material A</text>
    </g>
    <g id="line2d_14">
     <path d="M 181.423374 63.656733 
L 188.423374 63.656733 
L 195.423374 63.656733 
" style="fill: none; stroke-dasharray: 5.55,2.4; stroke-dashoffset: 0; stroke: #c47b45; stroke-width: 1.5"/>
     <g>
      <use xlink:href="#mc3833397ad" x="188.423374" y="63.656733" style="fill: #c47b45; stroke: #c47b45; stroke-linejoin: miter"/>
     </g>
    </g>
    <g id="text_13">
     <text style="font-size: 7px; font-family: 'Arial', 'Helvetica', 'Liberation Sans', 'DejaVu Sans', sans-serif; text-anchor: start" x="201.023374" y="66.106733" transform="rotate(-0 201.023374 66.106733)">Material B</text>
    </g>
   </g>
  </g>
  <g id="axes_2">
   <g id="patch_6">
    <path d="M 533.042052 157.32 
C 533.042052 142.556425 530.13395 127.936406 524.484174 114.296641 
C 518.834398 100.656876 510.552823 88.262623 500.113399 77.823199 
C 489.673974 67.383774 477.279721 59.102199 463.639956 53.452424 
C 450.000191 47.802648 435.380173 44.894545 420.616597 44.894545 
C 405.853022 44.894545 391.233004 47.802648 377.593239 53.452424 
C 363.953473 59.102199 351.55922 67.383774 341.119796 77.823199 
C 330.680372 88.262623 322.398797 100.656876 316.749021 114.296641 
C 311.099245 127.936406 308.191143 142.556425 308.191143 157.32 
C 308.191143 172.083575 311.099245 186.703594 316.749021 200.343359 
C 322.398797 213.983124 330.680372 226.377377 341.119796 236.816801 
C 351.55922 247.256226 363.953473 255.537801 377.593239 261.187576 
C 391.233004 266.837352 405.853022 269.745455 420.616597 269.745455 
C 435.380173 269.745455 450.000191 266.837352 463.639956 261.187576 
C 477.279721 255.537801 489.673974 247.256226 500.113399 236.816801 
C 510.552823 226.377377 518.834398 213.983124 524.484174 200.343359 
C 530.13395 186.703594 533.042052 172.083575 533.042052 157.32 
M 420.616597 157.32 
C 420.616597 157.32 420.616597 157.32 420.616597 157.32 
C 420.616597 157.32 420.616597 157.32 420.616597 157.32 
C 420.616597 157.32 420.616597 157.32 420.616597 157.32 
C 420.616597 157.32 420.616597 157.32 420.616597 157.32 
C 420.616597 157.32 420.616597 157.32 420.616597 157.32 
C 420.616597 157.32 420.616597 157.32 420.616597 157.32 
C 420.616597 157.32 420.616597 157.32 420.616597 157.32 
C 420.616597 157.32 420.616597 157.32 420.616597 157.32 
C 420.616597 157.32 420.616597 157.32 420.616597 157.32 
C 420.616597 157.32 420.616597 157.32 420.616597 157.32 
C 420.616597 157.32 420.616597 157.32 420.616597 157.32 
C 420.616597 157.32 420.616597 157.32 420.616597 157.32 
C 420.616597 157.32 420.616597 157.32 420.616597 157.32 
C 420.616597 157.32 420.616597 157.32 420.616597 157.32 
C 420.616597 157.32 420.616597 157.32 420.616597 157.32 
C 420.616597 157.32 420.616597 157.32 420.616597 157.32 
z
" style="fill: #ffffff"/>
   </g>
   <g id="patch_7">
    <path d="M 420.616597 157.32 
C 420.616597 157.32 420.616597 157.32 420.616597 157.32 
C 420.616597 157.32 420.616597 157.32 420.616597 157.32 
L 515.844417 108.370578 
C 518.93578 114.384617 521.450485 120.678005 523.354815 127.166357 
C 525.259145 133.654709 526.544549 140.308896 527.193794 147.039695 
z
" clip-path="url(#p5581743c07)" style="fill: #8b6f47; opacity: 0.7; stroke: #ffffff; stroke-linejoin: miter"/>
   </g>
   <g id="patch_8">
    <path d="M 420.616597 157.32 
C 420.616597 157.32 420.616597 157.32 420.616597 157.32 
C 420.616597 157.32 420.616597 157.32 420.616597 157.32 
L 468.25755 102.710259 
C 471.706386 105.718986 474.862459 109.047673 477.683452 112.651685 
C 480.504444 116.255698 482.977691 120.118857 485.070031 124.189363 
z
" clip-path="url(#p5581743c07)" style="fill: #8b6f47; opacity: 0.7; stroke: #ffffff; stroke-linejoin: miter"/>
   </g>
   <g id="patch_9">
    <path d="M 420.616597 157.32 
C 420.616597 157.32 420.616597 157.32 420.616597 157.32 
C 420.616597 157.32 420.616597 157.32 420.616597 157.32 
L 445.621131 86.341328 
C 450.103733 87.92047 454.426679 89.92071 458.532005 92.315228 
C 462.637331 94.709746 466.506605 97.487792 470.087947 100.612117 
z
" clip-path="url(#p5581743c07)" style="fill: #8b6f47; opacity: 0.7; stroke: #ffffff; stroke-linejoin: miter"/>
   </g>
   <g id="patch_10">
    <path d="M 420.616597 157.32 
C 420.616597 157.32 420.616597 157.32 420.616597 157.32 
C 420.616597 157.32 420.616597 157.32 420.616597 157.32 
L 417.370736 76.086969 
C 422.500945 75.88198 427.639057 76.163441 432.716177 76.927581 
C 437.793298 77.69172 442.786633 78.935107 447.629232 80.641069 
z
" clip-path="url(#p5581743c07)" style="fill: #8b6f47; opacity: 0.7; stroke: #ffffff; stroke-linejoin: miter"/>
   </g>
   <g id="patch_11">
    <path d="M 420.616597 157.32 
C 420.616597 157.32 420.616597 157.32 420.616597 157.32 
C 420.616597 157.32 420.616597 157.32 420.616597 157.32 
L 402.021641 115.521295 
C 404.661406 114.346945 407.406492 113.425299 410.220094 112.768716 
C 413.033695 112.112133 415.90318 111.72356 418.790073 111.608208 
z
" clip-path="url(#p5581743c07)" style="fill: #8b6f47; opacity: 0.7; stroke: #ffffff; stroke-linejoin: miter"/>
   </g>
   <g id="patch_12">
    <path d="M 420.616597 157.32 
C 420.616597 157.32 420.616597 157.32 420.616597 157.32 
C 420.616597 157.32 420.616597 157.32 420.616597 157.32 
L 402.339687 139.470257 
C 403.466974 138.315993 404.701075 137.271109 406.025443 136.349616 
C 407.349811 135.428123 408.758501 134.634158 410.232623 133.978366 
z
" clip-path="url(#p5581743c07)" style="fill: #8b6f47; opacity: 0.7; stroke: #ffffff; stroke-linejoin: miter"/>
   </g>
   <g id="patch_13">
    <path d="M 420.616597 157.32 
C 420.616597 157.32 420.616597 157.32 420.616597 157.32 
C 420.616597 157.32 420.616597 157.32 420.616597 157.32 
L 326.97035 118.285274 
C 329.435558 112.371118 332.455487 106.70377 335.989647 101.359221 
C 339.523806 96.014672 343.556328 91.016916 348.033144 86.432965 
z
" clip-path="url(#p5581743c07)" style="fill: #8b6f47; opacity: 0.7; stroke: #ffffff; stroke-linejoin: miter"/>
   </g>
   <g id="patch_14">
    <path d="M 420.616597 157.32 
C 420.616597 157.32 420.616597 157.32 420.616597 157.32 
C 420.616597 157.32 420.616597 157.32 420.616597 157.32 
L 366.797882 156.443273 
C 366.853251 153.044393 367.230476 149.658389 367.924499 146.330661 
C 368.618522 143.002932 369.626227 139.74842 370.934103 136.610761 
z
" clip-path="url(#p5581743c07)" style="fill: #8b6f47; opacity: 0.7; stroke: #ffffff; stroke-linejoin: miter"/>
   </g>
   <g id="patch_15">
    <path d="M 420.616597 157.32 
C 420.616597 157.32 420.616597 157.32 420.616597 157.32 
C 420.616597 157.32 420.616597 157.32 420.616597 157.32 
L 392.816294 167.858889 
C 392.150718 166.103183 391.652958 164.288367 391.329685 162.438775 
C 391.006413 160.589182 390.859081 158.713118 390.889664 156.835737 
z
" clip-path="url(#p5581743c07)" style="fill: #8b6f47; opacity: 0.7; stroke: #ffffff; stroke-linejoin: miter"/>
   </g>
   <g id="patch_16">
    <path d="M 420.616597 157.32 
C 420.616597 157.32 420.616597 157.32 420.616597 157.32 
C 420.616597 157.32 420.616597 157.32 420.616597 157.32 
L 342.874694 228.447531 
C 338.38269 223.537802 334.365875 218.21356 330.878107 212.546196 
C 327.39034 206.878832 324.447279 200.893788 322.088385 194.671316 
z
" clip-path="url(#p5581743c07)" style="fill: #8b6f47; opacity: 0.7; stroke: #ffffff; stroke-linejoin: miter"/>
   </g>
   <g id="patch_17">
    <path d="M 420.616597 157.32 
C 420.616597 157.32 420.616597 157.32 420.616597 157.32 
C 420.616597 157.32 420.616597 157.32 420.616597 157.32 
L 379.277148 242.646995 
C 373.888388 240.036235 368.759046 236.92085 363.957897 233.342614 
C 359.156748 229.764378 354.705347 225.739355 350.663382 221.321514 
z
" clip-path="url(#p5581743c07)" style="fill: #8b6f47; opacity: 0.7; stroke: #ffffff; stroke-linejoin: miter"/>
   </g>
   <g id="patch_18">
    <path d="M 420.616597 157.32 
C 420.616597 157.32 420.616597 157.32 420.616597 157.32 
C 420.616597 157.32 420.616597 157.32 420.616597 157.32 
L 413.260376 258.587604 
C 406.864899 258.123027 400.527789 257.053642 394.334015 255.393786 
C 388.140242 253.73393 382.117612 251.491055 376.34688 248.695236 
z
" clip-path="url(#p5581743c07)" style="fill: #8b6f47; opacity: 0.7; stroke: #ffffff; stroke-linejoin: miter"/>
   </g>
   <g id="patch_19">
    <path d="M 420.616597 157.32 
C 420.616597 157.32 420.616597 157.32 420.616597 157.32 
C 420.616597 157.32 420.616597 157.32 420.616597 157.32 
L 433.833038 199.135669 
C 431.192202 199.970343 428.478224 200.552973 425.727495 200.875748 
C 422.976765 201.198522 420.201634 201.259992 417.439311 201.059333 
z
" clip-path="url(#p5581743c07)" style="fill: #8b6f47; opacity: 0.7; stroke: #ffffff; stroke-linejoin: miter"/>
   </g>
   <g id="patch_20">
    <path d="M 420.616597 157.32 
C 420.616597 157.32 420.616597 157.32 420.616597 157.32 
C 420.616597 157.32 420.616597 157.32 420.616597 157.32 
L 448.369558 191.306663 
C 446.223156 193.059379 443.915536 194.60483 441.477638 195.922293 
C 439.039741 197.239755 436.482511 198.323315 433.840236 199.158444 
z
" clip-path="url(#p5581743c07)" style="fill: #8b6f47; opacity: 0.7; stroke: #ffffff; stroke-linejoin: miter"/>
   </g>
   <g id="patch_21">
    <path d="M 420.616597 157.32 
C 420.616597 157.32 420.616597 157.32 420.616597 157.32 
C 420.616597 157.32 420.616597 157.32 420.616597 157.32 
L 461.966733 180.307638 
C 460.514966 182.919073 458.819074 185.387119 456.901795 187.678683 
C 454.984516 189.970246 452.854458 192.075039 450.540182 193.96484 
z
" clip-path="url(#p5581743c07)" style="fill: #8b6f47; opacity: 0.7; stroke: #ffffff; stroke-linejoin: miter"/>
   </g>
   <g id="patch_22">
    <path d="M 420.616597 157.32 
C 420.616597 157.32 420.616597 157.32 420.616597 157.32 
C 420.616597 157.32 420.616597 157.32 420.616597 157.32 
L 499.939162 167.588712 
C 499.290649 172.598267 498.169031 177.535142 496.589345 182.333142 
C 495.00966 187.131141 492.978999 191.768725 490.524592 196.18371 
z
" clip-path="url(#p5581743c07)" style="fill: #8b6f47; opacity: 0.7; stroke: #ffffff; stroke-linejoin: miter"/>
   </g>
   <g id="matplotlib.axis_3">
    <g id="xtick_6">
     <g id="line2d_15">
      <path d="M 420.616597 157.32 
L 533.042052 157.32 
" clip-path="url(#p5581743c07)" style="fill: none; stroke: #b0b0b0; stroke-width: 0.8; stroke-linecap: square"/>
     </g>
     <g id="text_14">
      <text style="font-size: 9px; font-family: 'Arial', 'Helvetica', 'Liberation Sans', 'DejaVu Sans', sans-serif; text-anchor: middle" x="547.042052" y="159.646641" transform="rotate(-0 547.042052 159.646641)">0°</text>
     </g>
    </g>
    <g id="xtick_7">
     <g id="line2d_16">
      <path d="M 420.616597 157.32 
L 500.113399 77.823199 
" clip-path="url(#p5581743c07)" style="fill: none; stroke: #b0b0b0; stroke-width: 0.8; stroke-linecap: square"/>
     </g>
     <g id="text_15">
      <text style="font-size: 9px; font-family: 'Arial', 'Helvetica', 'Liberation Sans', 'DejaVu Sans', sans-serif; text-anchor: middle" x="510.012894" y="70.250344" transform="rotate(-0 510.012894 70.250344)">45°</text>
     </g>
    </g>
    <g id="xtick_8">
     <g id="line2d_17">
      <path d="M 420.616597 157.32 
L 420.616597 44.894545 
" clip-path="url(#p5581743c07)" style="fill: none; stroke: #b0b0b0; stroke-width: 0.8; stroke-linecap: square"/>
     </g>
     <g id="text_16">
      <text style="font-size: 9px; font-family: 'Arial', 'Helvetica', 'Liberation Sans', 'DejaVu Sans', sans-serif; text-anchor: middle" x="420.616597" y="33.221186" transform="rotate(-0 420.616597 33.221186)">90°</text>
     </g>
    </g>
    <g id="xtick_9">
     <g id="line2d_18">
      <path d="M 420.616597 157.32 
L 341.119796 77.823199 
" clip-path="url(#p5581743c07)" style="fill: none; stroke: #b0b0b0; stroke-width: 0.8; stroke-linecap: square"/>
     </g>
     <g id="text_17">
      <text style="font-size: 9px; font-family: 'Arial', 'Helvetica', 'Liberation Sans', 'DejaVu Sans', sans-serif; text-anchor: middle" x="331.220301" y="70.250344" transform="rotate(-0 331.220301 70.250344)">135°</text>
     </g>
    </g>
    <g id="xtick_10">
     <g id="line2d_19">
      <path d="M 420.616597 157.32 
L 308.191143 157.32 
" clip-path="url(#p5581743c07)" style="fill: none; stroke: #b0b0b0; stroke-width: 0.8; stroke-linecap: square"/>
     </g>
     <g id="text_18">
      <text style="font-size: 9px; font-family: 'Arial', 'Helvetica', 'Liberation Sans', 'DejaVu Sans', sans-serif; text-anchor: middle" x="294.191143" y="159.646641" transform="rotate(-0 294.191143 159.646641)">180°</text>
     </g>
    </g>
    <g id="xtick_11">
     <g id="line2d_20">
      <path d="M 420.616597 157.32 
L 341.119796 236.816801 
" clip-path="url(#p5581743c07)" style="fill: none; stroke: #b0b0b0; stroke-width: 0.8; stroke-linecap: square"/>
     </g>
     <g id="text_19">
      <text style="font-size: 9px; font-family: 'Arial', 'Helvetica', 'Liberation Sans', 'DejaVu Sans', sans-serif; text-anchor: middle" x="331.220301" y="249.042937" transform="rotate(-0 331.220301 249.042937)">225°</text>
     </g>
    </g>
    <g id="xtick_12">
     <g id="line2d_21">
      <path d="M 420.616597 157.32 
L 420.616597 269.745455 
" clip-path="url(#p5581743c07)" style="fill: none; stroke: #b0b0b0; stroke-width: 0.8; stroke-linecap: square"/>
     </g>
     <g id="text_20">
      <text style="font-size: 9px; font-family: 'Arial', 'Helvetica', 'Liberation Sans', 'DejaVu Sans', sans-serif; text-anchor: middle" x="420.616597" y="286.072095" transform="rotate(-0 420.616597 286.072095)">270°</text>
     </g>
    </g>
    <g id="xtick_13">
     <g id="line2d_22">
      <path d="M 420.616597 157.32 
L 500.113399 236.816801 
" clip-path="url(#p5581743c07)" style="fill: none; stroke: #b0b0b0; stroke-width: 0.8; stroke-linecap: square"/>
     </g>
     <g id="text_21">
      <text style="font-size: 9px; font-family: 'Arial', 'Helvetica', 'Liberation Sans', 'DejaVu Sans', sans-serif; text-anchor: middle" x="510.012894" y="249.042937" transform="rotate(-0 510.012894 249.042937)">315°</text>
     </g>
    </g>
   </g>
   <g id="matplotlib.axis_4">
    <g id="ytick_6">
     <g id="line2d_23">
      <path d="M 438.724956 157.32 
C 438.724956 154.942032 438.256548 152.587187 437.346539 150.390231 
C 436.43653 148.193275 435.102618 146.196934 433.42114 144.515457 
C 431.739663 142.83398 429.743322 141.500067 427.546366 140.590058 
C 425.34941 139.68005 422.994565 139.211642 420.616597 139.211642 
C 418.23863 139.211642 415.883785 139.68005 413.686829 140.590058 
C 411.489873 141.500067 409.493532 142.83398 407.812054 144.515457 
C 406.130577 146.196934 404.796665 148.193275 403.886656 150.390231 
C 402.976647 152.587187 402.508239 154.942032 402.508239 157.32 
C 402.508239 159.697968 402.976647 162.052813 403.886656 164.249769 
C 404.796665 166.446725 406.130577 168.443066 407.812054 170.124543 
C 409.493532 171.80602 411.489873 173.139933 413.686829 174.049942 
C 415.883785 174.95995 418.23863 175.428358 420.616597 175.428358 
C 422.994565 175.428358 425.34941 174.95995 427.546366 174.049942 
C 429.743322 173.139933 431.739663 171.80602 433.42114 170.124543 
C 435.102618 168.443066 436.43653 166.446725 437.346539 164.249769 
C 438.256548 162.052813 438.724956 159.697968 438.724956 157.32 
" clip-path="url(#p5581743c07)" style="fill: none; stroke: #b0b0b0; stroke-width: 0.8; stroke-linecap: square"/>
     </g>
     <g id="text_22">
      <text style="font-size: 9px; font-family: 'Arial', 'Helvetica', 'Liberation Sans', 'DejaVu Sans', sans-serif; text-anchor: start" x="437.346539" y="148.601481" transform="rotate(-0 437.346539 148.601481)">0.2</text>
     </g>
    </g>
    <g id="ytick_7">
     <g id="line2d_24">
      <path d="M 456.833314 157.32 
C 456.833314 152.564064 455.896498 147.854374 454.076481 143.460463 
C 452.256463 139.066551 449.588638 135.073868 446.225683 131.710914 
C 442.862729 128.34796 438.870046 125.680135 434.476135 123.860117 
C 430.082223 122.040099 425.372533 121.103283 420.616597 121.103283 
C 415.860662 121.103283 411.150972 122.040099 406.75706 123.860117 
C 402.363148 125.680135 398.370466 128.34796 395.007512 131.710914 
C 391.644557 135.073868 388.976732 139.066551 387.156714 143.460463 
C 385.336696 147.854374 384.399881 152.564064 384.399881 157.32 
C 384.399881 162.075936 385.336696 166.785626 387.156714 171.179537 
C 388.976732 175.573449 391.644557 179.566132 395.007512 182.929086 
C 398.370466 186.29204 402.363148 188.959865 406.75706 190.779883 
C 411.150972 192.599901 415.860662 193.536717 420.616597 193.536717 
C 425.372533 193.536717 430.082223 192.599901 434.476135 190.779883 
C 438.870046 188.959865 442.862729 186.29204 446.225683 182.929086 
C 449.588638 179.566132 452.256463 175.573449 454.076481 171.179537 
C 455.896498 166.785626 456.833314 162.075936 456.833314 157.32 
" clip-path="url(#p5581743c07)" style="fill: none; stroke: #b0b0b0; stroke-width: 0.8; stroke-linecap: square"/>
     </g>
     <g id="text_23">
      <text style="font-size: 9px; font-family: 'Arial', 'Helvetica', 'Liberation Sans', 'DejaVu Sans', sans-serif; text-anchor: start" x="454.076481" y="141.671713" transform="rotate(-0 454.076481 141.671713)">0.4</text>
     </g>
    </g>
    <g id="ytick_8">
     <g id="line2d_25">
      <path d="M 474.941672 157.32 
C 474.941672 150.186097 473.536449 143.121561 470.806422 136.530694 
C 468.076396 129.939826 464.074658 123.950803 459.030226 118.906371 
C 453.985795 113.86194 447.996771 109.860202 441.405904 107.130175 
C 434.815036 104.400149 427.750501 102.994925 420.616597 102.994925 
C 413.482694 102.994925 406.418159 104.400149 399.827291 107.130175 
C 393.236424 109.860202 387.2474 113.86194 382.202969 118.906371 
C 377.158537 123.950803 373.156799 129.939826 370.426773 136.530694 
C 367.696746 143.121561 366.291523 150.186097 366.291523 157.32 
C 366.291523 164.453903 367.696746 171.518439 370.426773 178.109306 
C 373.156799 184.700174 377.158537 190.689197 382.202969 195.733629 
C 387.2474 200.77806 393.236424 204.779798 399.827291 207.509825 
C 406.418159 210.239851 413.482694 211.645075 420.616597 211.645075 
C 427.750501 211.645075 434.815036 210.239851 441.405904 207.509825 
C 447.996771 204.779798 453.985795 200.77806 459.030226 195.733629 
C 464.074658 190.689197 468.076396 184.700174 470.806422 178.109306 
C 473.536449 171.518439 474.941672 164.453903 474.941672 157.32 
" clip-path="url(#p5581743c07)" style="fill: none; stroke: #b0b0b0; stroke-width: 0.8; stroke-linecap: square"/>
     </g>
     <g id="text_24">
      <text style="font-size: 9px; font-family: 'Arial', 'Helvetica', 'Liberation Sans', 'DejaVu Sans', sans-serif; text-anchor: start" x="470.806422" y="134.741944" transform="rotate(-0 470.806422 134.741944)">0.6</text>
     </g>
    </g>
    <g id="ytick_9">
     <g id="line2d_26">
      <path d="M 493.050031 157.32 
C 493.050031 147.808129 491.176399 138.388748 487.536364 129.600925 
C 483.896328 120.813102 478.560678 112.827737 471.834769 106.101828 
C 465.10886 99.37592 457.123495 94.040269 448.335672 90.400234 
C 439.547849 86.760198 430.128469 84.886567 420.616597 84.886567 
C 411.104726 84.886567 401.685346 86.760198 392.897523 90.400234 
C 384.109699 94.040269 376.124334 99.37592 369.398426 106.101828 
C 362.672517 112.827737 357.336867 120.813102 353.696831 129.600925 
C 350.056796 138.388748 348.183164 147.808129 348.183164 157.32 
C 348.183164 166.831871 350.056796 176.251252 353.696831 185.039075 
C 357.336867 193.826898 362.672517 201.812263 369.398426 208.538172 
C 376.124334 215.26408 384.109699 220.599731 392.897523 224.239766 
C 401.685346 227.879802 411.104726 229.753433 420.616597 229.753433 
C 430.128469 229.753433 439.547849 227.879802 448.335672 224.239766 
C 457.123495 220.599731 465.10886 215.26408 471.834769 208.538172 
C 478.560678 201.812263 483.896328 193.826898 487.536364 185.039075 
C 491.176399 176.251252 493.050031 166.831871 493.050031 157.32 
" clip-path="url(#p5581743c07)" style="fill: none; stroke: #b0b0b0; stroke-width: 0.8; stroke-linecap: square"/>
     </g>
     <g id="text_25">
      <text style="font-size: 9px; font-family: 'Arial', 'Helvetica', 'Liberation Sans', 'DejaVu Sans', sans-serif; text-anchor: start" x="487.536364" y="127.812175" transform="rotate(-0 487.536364 127.812175)">0.8</text>
     </g>
    </g>
    <g id="ytick_10">
     <g id="line2d_27">
      <path d="M 511.158389 157.32 
C 511.158389 145.430161 508.81635 133.655935 504.266305 122.671156 
C 499.716261 111.686377 493.046698 101.704671 484.639312 93.297285 
C 476.231926 84.889899 466.25022 78.220337 455.265441 73.670292 
C 444.280662 69.120248 432.506437 66.778209 420.616597 66.778209 
C 408.726758 66.778209 396.952533 69.120248 385.967754 73.670292 
C 374.982975 78.220337 365.001269 84.889899 356.593883 93.297285 
C 348.186497 101.704671 341.516934 111.686377 336.966889 122.671156 
C 332.416845 133.655935 330.074806 145.430161 330.074806 157.32 
C 330.074806 169.209839 332.416845 180.984065 336.966889 191.968844 
C 341.516934 202.953623 348.186497 212.935329 356.593883 221.342715 
C 365.001269 229.750101 374.982975 236.419663 385.967754 240.969708 
C 396.952533 245.519752 408.726758 247.861791 420.616597 247.861791 
C 432.506437 247.861791 444.280662 245.519752 455.265441 240.969708 
C 466.25022 236.419663 476.231926 229.750101 484.639312 221.342715 
C 493.046698 212.935329 499.716261 202.953623 504.266305 191.968844 
C 508.81635 180.984065 511.158389 169.209839 511.158389 157.32 
" clip-path="url(#p5581743c07)" style="fill: none; stroke: #b0b0b0; stroke-width: 0.8; stroke-linecap: square"/>
     </g>
     <g id="text_26">
      <text style="font-size: 9px; font-family: 'Arial', 'Helvetica', 'Liberation Sans', 'DejaVu Sans', sans-serif; text-anchor: start" x="504.266305" y="120.882406" transform="rotate(-0 504.266305 120.882406)">1.0</text>
     </g>
    </g>
    <g id="ytick_11">
     <g id="line2d_28">
      <path d="M 529.266747 157.32 
C 529.266747 143.052193 526.4563 128.923123 520.996247 115.741388 
C 515.536194 102.559653 507.532718 90.581605 497.443855 80.492742 
C 487.354992 70.403879 475.376944 62.400404 462.19521 56.94035 
C 449.013475 51.480297 434.884404 48.66985 420.616597 48.66985 
C 406.34879 48.66985 392.21972 51.480297 379.037985 56.94035 
C 365.85625 62.400404 353.878203 70.403879 343.78934 80.492742 
C 333.700477 90.581605 325.697001 102.559653 320.236948 115.741388 
C 314.776895 128.923123 311.966448 143.052193 311.966448 157.32 
C 311.966448 171.587807 314.776895 185.716877 320.236948 198.898612 
C 325.697001 212.080347 333.700477 224.058395 343.78934 234.147258 
C 353.878203 244.236121 365.85625 252.239596 379.037985 257.69965 
C 392.21972 263.159703 406.34879 265.97015 420.616597 265.97015 
C 434.884404 265.97015 449.013475 263.159703 462.19521 257.69965 
C 475.376944 252.239596 487.354992 244.236121 497.443855 234.147258 
C 507.532718 224.058395 515.536194 212.080347 520.996247 198.898612 
C 526.4563 185.716877 529.266747 171.587807 529.266747 157.32 
" clip-path="url(#p5581743c07)" style="fill: none; stroke: #b0b0b0; stroke-width: 0.8; stroke-linecap: square"/>
     </g>
     <g id="text_27">
      <text style="font-size: 9px; font-family: 'Arial', 'Helvetica', 'Liberation Sans', 'DejaVu Sans', sans-serif; text-anchor: start" x="520.996247" y="113.952638" transform="rotate(-0 520.996247 113.952638)">1.2</text>
     </g>
    </g>
   </g>
   <g id="patch_23">
    <path d="M 533.042052 157.32 
C 533.042052 142.556425 530.13395 127.936406 524.484174 114.296641 
C 518.834398 100.656876 510.552823 88.262623 500.113399 77.823199 
C 489.673974 67.383774 477.279721 59.102199 463.639956 53.452424 
C 450.000191 47.802648 435.380173 44.894545 420.616597 44.894545 
C 405.853022 44.894545 391.233004 47.802648 377.593239 53.452424 
C 363.953473 59.102199 351.55922 67.383774 341.119796 77.823199 
C 330.680372 88.262623 322.398797 100.656876 316.749021 114.296641 
C 311.099245 127.936406 308.191143 142.556425 308.191143 157.32 
C 308.191143 172.083575 311.099245 186.703594 316.749021 200.343359 
C 322.398797 213.983124 330.680372 226.377377 341.119796 236.816801 
C 351.55922 247.256226 363.953473 255.537801 377.593239 261.187576 
C 391.233004 266.837352 405.853022 269.745455 420.616597 269.745455 
C 435.380173 269.745455 450.000191 266.837352 463.639956 261.187576 
C 477.279721 255.537801 489.673974 247.256226 500.113399 236.816801 
C 510.552823 226.377377 518.834398 213.983124 524.484174 200.343359 
C 530.13395 186.703594 533.042052 172.083575 533.042052 157.32 
" style="fill: none; stroke: #000000; stroke-width: 1.5; stroke-linejoin: miter; stroke-linecap: square"/>
   </g>
   <g id="text_28">
    <text style="font-weight: 700; font-size: 12px; font-family: 'Arial', 'Helvetica', 'Liberation Sans', 'DejaVu Sans', sans-serif; text-anchor: start" x="312.688161" y="57.980939" transform="rotate(-0 312.688161 57.980939)">b</text>
   </g>
  </g>
  <g id="text_29">
   <text style="font-weight: 700; font-size: 14px; font-family: 'Arial', 'Helvetica', 'Liberation Sans', 'DejaVu Sans', sans-serif; text-anchor: middle" x="278.169061" y="17.220937" transform="rotate(-0 278.169061 17.220937)">Radar and Polar Charts</text>
  </g>
 </g>
 <defs>
  <clipPath id="p8cdde94618">
   <path d="M 238.832124 157.32 
C 238.832124 142.556425 235.924021 127.936406 230.274246 114.296641 
C 224.62447 100.656876 216.342895 88.262623 205.903471 77.823199 
C 195.464046 67.383774 183.069793 59.102199 169.430028 53.452424 
C 155.790263 47.802648 141.170245 44.894545 126.406669 44.894545 
C 111.643094 44.894545 97.023076 47.802648 83.383311 53.452424 
C 69.743545 59.102199 57.349292 67.383774 46.909868 77.823199 
C 36.470444 88.262623 28.188869 100.656876 22.539093 114.296641 
C 16.889317 127.936406 13.981215 142.556425 13.981215 157.32 
C 13.981215 172.083575 16.889317 186.703594 22.539093 200.343359 
C 28.188869 213.983124 36.470444 226.377377 46.909868 236.816801 
C 57.349292 247.256226 69.743545 255.537801 83.383311 261.187576 
C 97.023076 266.837352 111.643094 269.745455 126.406669 269.745455 
C 141.170245 269.745455 155.790263 266.837352 169.430028 261.187576 
C 183.069793 255.537801 195.464046 247.256226 205.903471 236.816801 
C 216.342895 226.377377 224.62447 213.983124 230.274246 200.343359 
C 235.924021 186.703594 238.832124 172.083575 238.832124 157.32 
M 126.406669 157.32 
C 126.406669 157.32 126.406669 157.32 126.406669 157.32 
C 126.406669 157.32 126.406669 157.32 126.406669 157.32 
C 126.406669 157.32 126.406669 157.32 126.406669 157.32 
C 126.406669 157.32 126.406669 157.32 126.406669 157.32 
C 126.406669 157.32 126.406669 157.32 126.406669 157.32 
C 126.406669 157.32 126.406669 157.32 126.406669 157.32 
C 126.406669 157.32 126.406669 157.32 126.406669 157.32 
C 126.406669 157.32 126.406669 157.32 126.406669 157.32 
C 126.406669 157.32 126.406669 157.32 126.406669 157.32 
C 126.406669 157.32 126.406669 157.32 126.406669 157.32 
C 126.406669 157.32 126.406669 157.32 126.406669 157.32 
C 126.406669 157.32 126.406669 157.32 126.406669 157.32 
C 126.406669 157.32 126.406669 157.32 126.406669 157.32 
C 126.406669 157.32 126.406669 157.32 126.406669 157.32 
C 126.406669 157.32 126.406669 157.32 126.406669 157.32 
C 126.406669 157.32 126.406669 157.32 126.406669 157.32 
z
"/>
  </clipPath>
  <clipPath id="p5581743c07">
   <path d="M 533.042052 157.32 
C 533.042052 142.556425 530.13395 127.936406 524.484174 114.296641 
C 518.834398 100.656876 510.552823 88.262623 500.113399 77.823199 
C 489.673974 67.383774 477.279721 59.102199 463.639956 53.452424 
C 450.000191 47.802648 435.380173 44.894545 420.616597 44.894545 
C 405.853022 44.894545 391.233004 47.802648 377.593239 53.452424 
C 363.953473 59.102199 351.55922 67.383774 341.119796 77.823199 
C 330.680372 88.262623 322.398797 100.656876 316.749021 114.296641 
C 311.099245 127.936406 308.191143 142.556425 308.191143 157.32 
C 308.191143 172.083575 311.099245 186.703594 316.749021 200.343359 
C 322.398797 213.983124 330.680372 226.377377 341.119796 236.816801 
C 351.55922 247.256226 363.953473 255.537801 377.593239 261.187576 
C 391.233004 266.837352 405.853022 269.745455 420.616597 269.745455 
C 435.380173 269.745455 450.000191 266.837352 463.639956 261.187576 
C 477.279721 255.537801 489.673974 247.256226 500.113399 236.816801 
C 510.552823 226.377377 518.834398 213.983124 524.484174 200.343359 
C 530.13395 186.703594 533.042052 172.083575 533.042052 157.32 
M 420.616597 157.32 
C 420.616597 157.32 420.616597 157.32 420.616597 157.32 
C 420.616597 157.32 420.616597 157.32 420.616597 157.32 
C 420.616597 157.32 420.616597 157.32 420.616597 157.32 
C 420.616597 157.32 420.616597 157.32 420.616597 157.32 
C 420.616597 157.32 420.616597 157.32 420.616597 157.32 
C 420.616597 157.32 420.616597 157.32 420.616597 157.32 
C 420.616597 157.32 420.616597 157.32 420.616597 157.32 
C 420.616597 157.32 420.616597 157.32 420.616597 157.32 
C 420.616597 157.32 420.616597 157.32 420.616597 157.32 
C 420.616597 157.32 420.616597 157.32 420.616597 157.32 
C 420.616597 157.32 420.616597 157.32 420.616597 157.32 
C 420.616597 157.32 420.616597 157.32 420.616597 157.32 
C 420.616597 157.32 420.616597 157.32 420.616597 157.32 
C 420.616597 157.32 420.616597 157.32 420.616597 157.32 
C 420.616597 157.32 420.616597 157.32 420.616597 157.32 
C 420.616597 157.32 420.616597 157.32 420.616597 157.32 
z
"/>
  </clipPath>
 </defs>
</svg>
