<?xml version="1.0" encoding="utf-8" standalone="no"?>
<!DOCTYPE svg PUBLIC "-//W3C//DTD SVG 1.1//EN"
  "http://www.w3.org/Graphics/SVG/1.1/DTD/svg11.dtd">
<svg xmlns:xlink="http://www.w3.org/1999/xlink" width="864pt" height="360pt" viewBox="0 0 864 360" xmlns="http://www.w3.org/2000/svg" version="1.1">
 <metadata>
  <rdf:RDF xmlns:dc="http://purl.org/dc/elements/1.1/" xmlns:cc="http://creativecommons.org/ns#" xmlns:rdf="http://www.w3.org/1999/02/22-rdf-syntax-ns#">
   <cc:Work>
    <dc:type rdf:resource="http://purl.org/dc/dcmitype/StillImage"/>
    <dc:date>2026-06-20T18:12:29.070281</dc:date>
    <dc:format>image/svg+xml</dc:format>
    <dc:creator>
     <cc:Agent>
      <dc:title>Matplotlib v3.11.0, https://matplotlib.org/</dc:title>
     </cc:Agent>
    </dc:creator>
   </cc:Work>
  </rdf:RDF>
 </metadata>
 <defs>
  <style type="text/css">*{stroke-linejoin: round; stroke-linecap: butt}</style>
 </defs>
 <g id="figure_1">
  <g id="patch_1">
   <path d="M 0 360 
L 864 360 
L 864 0 
L 0 0 
z
" style="fill: #ffffff"/>
  </g>
  <g id="axes_1">
   <g id="patch_2">
    <path d="M 98.496 172.921263 
C 111.762944 172.921263 124.488295 170.908079 133.869441 167.325091 
C 143.250587 163.742103 148.5216 158.881847 148.5216 153.814737 
C 148.5216 148.747627 143.250587 143.88737 133.869441 140.304383 
C 124.488295 136.721395 111.762944 134.708211 98.496 134.708211 
C 85.229056 134.708211 72.503705 136.721395 63.122559 140.304383 
C 53.741413 143.88737 48.4704 148.747627 48.4704 153.814737 
C 48.4704 158.881847 53.741413 163.742103 63.122559 167.325091 
C 72.503705 170.908079 85.229056 172.921263 98.496 172.921263 
z
" clip-path="url(#p213b7d0f09)" style="fill: #3775ba; opacity: 0.9; stroke: #3775ba; stroke-linejoin: miter"/>
   </g>
   <g id="patch_3">
    <path d="M 281.9232 172.921263 
C 295.190144 172.921263 307.915495 170.908079 317.296641 167.325091 
C 326.677787 163.742103 331.9488 158.881847 331.9488 153.814737 
C 331.9488 148.747627 326.677787 143.88737 317.296641 140.304383 
C 307.915495 136.721395 295.190144 134.708211 281.9232 134.708211 
C 268.656256 134.708211 255.930905 136.721395 246.549759 140.304383 
C 237.168613 143.88737 231.8976 148.747627 231.8976 153.814737 
C 231.8976 158.881847 237.168613 163.742103 246.549759 167.325091 
C 255.930905 170.908079 268.656256 172.921263 281.9232 172.921263 
z
" clip-path="url(#p213b7d0f09)" style="fill: #7aa6d4; opacity: 0.9; stroke: #7aa6d4; stroke-linejoin: miter"/>
   </g>
   <g id="patch_4">
    <path d="M 465.3504 172.921263 
C 478.617344 172.921263 491.342695 170.908079 500.723841 167.325091 
C 510.104987 163.742103 515.376 158.881847 515.376 153.814737 
C 515.376 148.747627 510.104987 143.88737 500.723841 140.304383 
C 491.342695 136.721395 478.617344 134.708211 465.3504 134.708211 
C 452.083456 134.708211 439.358105 136.721395 429.976959 140.304383 
C 420.595813 143.88737 415.3248 148.747627 415.3248 153.814737 
C 415.3248 158.881847 420.595813 163.742103 429.976959 167.325091 
C 439.358105 170.908079 452.083456 172.921263 465.3504 172.921263 
z
" clip-path="url(#p213b7d0f09)" style="fill: #e07c3e; opacity: 0.9; stroke: #e07c3e; stroke-linejoin: miter"/>
   </g>
   <g id="patch_5">
    <path d="M 648.7776 172.921263 
C 662.044544 172.921263 674.769895 170.908079 684.151041 167.325091 
C 693.532187 163.742103 698.8032 158.881847 698.8032 153.814737 
C 698.8032 148.747627 693.532187 143.88737 684.151041 140.304383 
C 674.769895 136.721395 662.044544 134.708211 648.7776 134.708211 
C 635.510656 134.708211 622.785305 136.721395 613.404159 140.304383 
C 604.023013 143.88737 598.752 148.747627 598.752 153.814737 
C 598.752 158.881847 604.023013 163.742103 613.404159 167.325091 
C 622.785305 170.908079 635.510656 172.921263 648.7776 172.921263 
z
" clip-path="url(#p213b7d0f09)" style="fill: #b64342; opacity: 0.9; stroke: #b64342; stroke-linejoin: miter"/>
   </g>
   <g id="patch_6">
    <path d="M 281.9232 300.298105 
C 295.190144 300.298105 307.915495 298.284921 317.296641 294.701933 
C 326.677787 291.118945 331.9488 286.258689 331.9488 281.191579 
C 331.9488 276.124469 326.677787 271.264212 317.296641 267.681225 
C 307.915495 264.098237 295.190144 262.085053 281.9232 262.085053 
C 268.656256 262.085053 255.930905 264.098237 246.549759 267.681225 
C 237.168613 271.264212 231.8976 276.124469 231.8976 281.191579 
C 231.8976 286.258689 237.168613 291.118945 246.549759 294.701933 
C 255.930905 298.284921 268.656256 300.298105 281.9232 300.298105 
z
" clip-path="url(#p213b7d0f09)" style="fill: #c49a6c; opacity: 0.9; stroke: #c49a6c; stroke-linejoin: miter"/>
   </g>
   <g id="patch_7">
    <path d="M 465.3504 300.298105 
C 478.617344 300.298105 491.342695 298.284921 500.723841 294.701933 
C 510.104987 291.118945 515.376 286.258689 515.376 281.191579 
C 515.376 276.124469 510.104987 271.264212 500.723841 267.681225 
C 491.342695 264.098237 478.617344 262.085053 465.3504 262.085053 
C 452.083456 262.085053 439.358105 264.098237 429.976959 267.681225 
C 420.595813 271.264212 415.3248 276.124469 415.3248 281.191579 
C 415.3248 286.258689 420.595813 291.118945 429.976959 294.701933 
C 439.358105 298.284921 452.083456 300.298105 465.3504 300.298105 
z
" clip-path="url(#p213b7d0f09)" style="fill: #c49a6c; opacity: 0.9; stroke: #c49a6c; stroke-linejoin: miter"/>
   </g>
   <g id="text_1">
    <text style="font-weight: 700; font-size: 9px; font-family: 'Arial', 'DejaVu Sans', 'Liberation Sans', sans-serif; fill: #ffffff" transform="translate(81.749672 151.246133)">Citation</text>
    <text style="font-weight: 700; font-size: 9px; font-family: 'Arial', 'DejaVu Sans', 'Liberation Sans', sans-serif; fill: #ffffff" transform="translate(84.989672 161.041543)">matrix</text>
   </g>
   <g id="text_2">
    <text style="font-weight: 700; font-size: 9px; font-family: 'Arial', 'DejaVu Sans', 'Liberation Sans', sans-serif; fill: #ffffff" transform="translate(266.666091 151.246133)">Reader</text>
    <text style="font-weight: 700; font-size: 9px; font-family: 'Arial', 'DejaVu Sans', 'Liberation Sans', sans-serif; fill: #ffffff" transform="translate(264.662888 161.041543)">extracts</text>
   </g>
   <g id="text_3">
    <text style="font-weight: 700; font-size: 9px; font-family: 'Arial', 'DejaVu Sans', 'Liberation Sans', sans-serif; fill: #ffffff" transform="translate(451.600791 151.246045)">Figure</text>
    <text style="font-weight: 700; font-size: 9px; font-family: 'Arial', 'DejaVu Sans', 'Liberation Sans', sans-serif; fill: #ffffff" transform="translate(447.5979 161.041631)">contract</text>
   </g>
   <g id="text_4">
    <text style="font-weight: 700; font-size: 9px; font-family: 'Arial', 'DejaVu Sans', 'Liberation Sans', sans-serif; fill: #ffffff" transform="translate(636.400491 151.246133)">Plot +</text>
    <text style="font-weight: 700; font-size: 9px; font-family: 'Arial', 'DejaVu Sans', 'Liberation Sans', sans-serif; fill: #ffffff" transform="translate(642.0276 161.041543)">QA</text>
   </g>
   <g id="text_5">
    <text style="font-weight: 700; font-size: 9px; font-family: 'Arial', 'DejaVu Sans', 'Liberation Sans', sans-serif" transform="translate(269.669138 278.622975)">Claim</text>
    <text style="font-weight: 700; font-size: 9px; font-family: 'Arial', 'DejaVu Sans', 'Liberation Sans', sans-serif" transform="translate(260.921559 288.418386)">validation</text>
   </g>
   <g id="text_6">
    <text style="font-weight: 700; font-size: 9px; font-family: 'Arial', 'DejaVu Sans', 'Liberation Sans', sans-serif" transform="translate(458.850713 278.622975)">KB</text>
    <text style="font-weight: 700; font-size: 9px; font-family: 'Arial', 'DejaVu Sans', 'Liberation Sans', sans-serif" transform="translate(439.086572 288.418386)">cross-check</text>
   </g>
   <g id="patch_8">
    <path d="M 150.524069 153.814737 
Q 190.210055 153.814737 227.659974 153.814737 
" style="fill: none; stroke: #4d4d4d; stroke-width: 2; stroke-linecap: round"/>
    <path d="M 222.059974 151.014737 
L 227.659974 153.814737 
L 222.059974 156.614737 
" style="fill: none; stroke: #4d4d4d; stroke-width: 2; stroke-linecap: round"/>
   </g>
   <g id="patch_9">
    <path d="M 333.951269 153.814737 
Q 373.637255 153.814737 411.087174 153.814737 
" style="fill: none; stroke: #4d4d4d; stroke-width: 2; stroke-linecap: round"/>
    <path d="M 405.487174 151.014737 
L 411.087174 153.814737 
L 405.487174 156.614737 
" style="fill: none; stroke: #4d4d4d; stroke-width: 2; stroke-linecap: round"/>
   </g>
   <g id="patch_10">
    <path d="M 517.378469 153.814737 
Q 557.064455 153.814737 594.514374 153.814737 
" style="fill: none; stroke: #4d4d4d; stroke-width: 2; stroke-linecap: round"/>
    <path d="M 588.914374 151.014737 
L 594.514374 153.814737 
L 588.914374 156.614737 
" style="fill: none; stroke: #4d4d4d; stroke-width: 2; stroke-linecap: round"/>
   </g>
   <g id="patch_11">
    <path d="M 281.9232 174.921244 
Q 281.9232 217.504308 281.9232 258.41032 
" style="fill: none; stroke-dasharray: 5.55,2.4; stroke-dashoffset: 0; stroke: #4d4d4d; stroke-width: 1.5; stroke-linecap: round"/>
    <path d="M 284.7232 252.81032 
L 281.9232 258.41032 
L 279.1232 252.81032 
" style="fill: none; stroke-dasharray: 5.55,2.4; stroke-dashoffset: 0; stroke: #4d4d4d; stroke-width: 1.5; stroke-linecap: round"/>
   </g>
   <g id="patch_12">
    <path d="M 465.3504 174.921244 
Q 465.3504 217.504308 465.3504 258.41032 
" style="fill: none; stroke-dasharray: 5.55,2.4; stroke-dashoffset: 0; stroke: #4d4d4d; stroke-width: 1.5; stroke-linecap: round"/>
    <path d="M 468.1504 252.81032 
L 465.3504 258.41032 
L 462.5504 252.81032 
" style="fill: none; stroke-dasharray: 5.55,2.4; stroke-dashoffset: 0; stroke: #4d4d4d; stroke-width: 1.5; stroke-linecap: round"/>
   </g>
   <g id="text_7">
    <text style="font-size: 16.8px; font-family: 'Arial', 'DejaVu Sans', 'Liberation Sans', sans-serif; text-anchor: middle" x="432" y="27.36" transform="rotate(-0 432 27.36)">Evidence chain: handoff -&gt; claim validation</text>
   </g>
  </g>
 </g>
 <defs>
  <clipPath id="p213b7d0f09">
   <rect x="15.12" y="42.36" width="833.76" height="302.52"/>
  </clipPath>
 </defs>
</svg>
