<?xml version="1.0" encoding="utf-8" standalone="no"?>
<!DOCTYPE svg PUBLIC "-//W3C//DTD SVG 1.1//EN"
  "http://www.w3.org/Graphics/SVG/1.1/DTD/svg11.dtd">
<svg xmlns:xlink="http://www.w3.org/1999/xlink" width="720pt" height="360pt" viewBox="0 0 720 360" xmlns="http://www.w3.org/2000/svg" version="1.1">
 <metadata>
  <rdf:RDF xmlns:dc="http://purl.org/dc/elements/1.1/" xmlns:cc="http://creativecommons.org/ns#" xmlns:rdf="http://www.w3.org/1999/02/22-rdf-syntax-ns#">
   <cc:Work>
    <dc:type rdf:resource="http://purl.org/dc/dcmitype/StillImage"/>
    <dc:date>2026-06-20T18:12:28.820575</dc:date>
    <dc:format>image/svg+xml</dc:format>
    <dc:creator>
     <cc:Agent>
      <dc:title>Matplotlib v3.11.0, https://matplotlib.org/</dc:title>
     </cc:Agent>
    </dc:creator>
   </cc:Work>
  </rdf:RDF>
 </metadata>
 <defs>
  <style type="text/css">*{stroke-linejoin: round; stroke-linecap: butt}</style>
 </defs>
 <g id="figure_1">
  <g id="patch_1">
   <path d="M 0 360 
L 720 360 
L 720 0 
L 0 0 
z
" style="fill: #ffffff"/>
  </g>
  <g id="axes_1">
   <g id="patch_2">
    <path d="M 11.6712 164.379789 
L 128.9304 164.379789 
Q 135.828 164.379789 135.828 160.908632 
L 135.828 112.312421 
Q 135.828 108.841263 128.9304 108.841263 
L 11.6712 108.841263 
Q 4.7736 108.841263 4.7736 112.312421 
L 4.7736 160.908632 
Q 4.7736 164.379789 11.6712 164.379789 
z
" clip-path="url(#p9726ac42d2)" style="fill: #4d4d4d; stroke: #000000; stroke-width: 1.5; stroke-linejoin: miter"/>
   </g>
   <g id="patch_3">
    <path d="M 163.4184 164.379789 
L 280.6776 164.379789 
Q 287.5752 164.379789 287.5752 160.908632 
L 287.5752 112.312421 
Q 287.5752 108.841263 280.6776 108.841263 
L 163.4184 108.841263 
Q 156.5208 108.841263 156.5208 112.312421 
L 156.5208 160.908632 
Q 156.5208 164.379789 163.4184 164.379789 
z
" clip-path="url(#p9726ac42d2)" style="fill: #7aa6d4; stroke: #000000; stroke-width: 1.5; stroke-linejoin: miter"/>
   </g>
   <g id="patch_4">
    <path d="M 335.8584 164.379789 
L 453.1176 164.379789 
Q 460.0152 164.379789 460.0152 160.908632 
L 460.0152 112.312421 
Q 460.0152 108.841263 453.1176 108.841263 
L 335.8584 108.841263 
Q 328.9608 108.841263 328.9608 112.312421 
L 328.9608 160.908632 
Q 328.9608 164.379789 335.8584 164.379789 
z
" clip-path="url(#p9726ac42d2)" style="fill: #3775ba; stroke: #000000; stroke-width: 1.5; stroke-linejoin: miter"/>
   </g>
   <g id="patch_5">
    <path d="M 508.2984 164.379789 
L 625.5576 164.379789 
Q 632.4552 164.379789 632.4552 160.908632 
L 632.4552 112.312421 
Q 632.4552 108.841263 625.5576 108.841263 
L 508.2984 108.841263 
Q 501.4008 108.841263 501.4008 112.312421 
L 501.4008 160.908632 
Q 501.4008 164.379789 508.2984 164.379789 
z
" clip-path="url(#p9726ac42d2)" style="fill: #e07c3e; stroke: #000000; stroke-width: 1.5; stroke-linejoin: miter"/>
   </g>
   <g id="patch_6">
    <path d="M 163.4184 303.226105 
L 280.6776 303.226105 
Q 287.5752 303.226105 287.5752 299.754947 
L 287.5752 251.158737 
Q 287.5752 247.687579 280.6776 247.687579 
L 163.4184 247.687579 
Q 156.5208 247.687579 156.5208 251.158737 
L 156.5208 299.754947 
Q 156.5208 303.226105 163.4184 303.226105 
z
" clip-path="url(#p9726ac42d2)" style="fill: #c49a6c; stroke: #000000; stroke-width: 1.5; stroke-linejoin: miter"/>
   </g>
   <g id="patch_7">
    <path d="M 335.8584 303.226105 
L 453.1176 303.226105 
Q 460.0152 303.226105 460.0152 299.754947 
L 460.0152 251.158737 
Q 460.0152 247.687579 453.1176 247.687579 
L 335.8584 247.687579 
Q 328.9608 247.687579 328.9608 251.158737 
L 328.9608 299.754947 
Q 328.9608 303.226105 335.8584 303.226105 
z
" clip-path="url(#p9726ac42d2)" style="fill: #c49a6c; stroke: #000000; stroke-width: 1.5; stroke-linejoin: miter"/>
   </g>
   <g id="text_1">
    <text style="font-weight: 700; font-size: 10px; font-family: 'Arial', 'DejaVu Sans', 'Liberation Sans', sans-serif; text-anchor: middle; fill: #ffffff" x="70.3008" y="139.198417" transform="rotate(-0 70.3008 139.198417)">Bitumen</text>
   </g>
   <g id="text_2">
    <text style="font-weight: 700; font-size: 10px; font-family: 'Arial', 'DejaVu Sans', 'Liberation Sans', sans-serif; text-anchor: middle" x="222.048" y="139.198319" transform="rotate(-0 222.048 139.198319)">+ Epoxy resin</text>
   </g>
   <g id="text_3">
    <text style="font-weight: 700; font-size: 10px; font-family: 'Arial', 'DejaVu Sans', 'Liberation Sans', sans-serif; text-anchor: middle; fill: #ffffff" x="394.488" y="139.198417" transform="rotate(-0 394.488 139.198417)">Network IPN</text>
   </g>
   <g id="text_4">
    <text style="font-weight: 700; font-size: 10px; font-family: 'Arial', 'DejaVu Sans', 'Liberation Sans', sans-serif; fill: #ffffff" transform="translate(551.642844 128.31453)">↑ 28 %</text>
    <text style="font-weight: 700; font-size: 10px; font-family: 'Arial', 'DejaVu Sans', 'Liberation Sans', sans-serif; fill: #ffffff" transform="translate(551.101437 139.198319)">rutting</text>
    <text style="font-weight: 700; font-size: 10px; font-family: 'Arial', 'DejaVu Sans', 'Liberation Sans', sans-serif; fill: #ffffff" transform="translate(542.191281 150.082304)">resistance</text>
   </g>
   <g id="text_5">
    <text style="font-weight: 700; font-size: 10px; font-family: 'Arial', 'DejaVu Sans', 'Liberation Sans', sans-serif" transform="translate(190.382375 267.160846)">Compatibility</text>
    <text style="font-weight: 700; font-size: 10px; font-family: 'Arial', 'DejaVu Sans', 'Liberation Sans', sans-serif" transform="translate(203.719094 278.04483)">window</text>
    <text style="font-weight: 700; font-size: 10px; font-family: 'Arial', 'DejaVu Sans', 'Liberation Sans', sans-serif" transform="translate(193.978469 288.928619)">0.5–1.5 wt%</text>
   </g>
   <g id="text_6">
    <text style="font-weight: 700; font-size: 10px; font-family: 'Arial', 'DejaVu Sans', 'Liberation Sans', sans-serif" transform="translate(375.873156 267.160748)">Storage</text>
    <text style="font-weight: 700; font-size: 10px; font-family: 'Arial', 'DejaVu Sans', 'Liberation Sans', sans-serif" transform="translate(375.595813 278.044733)">stability</text>
    <text style="font-weight: 700; font-size: 10px; font-family: 'Arial', 'DejaVu Sans', 'Liberation Sans', sans-serif" transform="translate(370.045813 288.928717)">monitored</text>
   </g>
   <g id="patch_8">
    <path d="M 130.930131 136.610526 
Q 146.172888 136.610526 159.179576 136.610526 
" style="fill: none; stroke: #4d4d4d; stroke-width: 2; stroke-linecap: round"/>
    <path d="M 153.579576 133.810526 
L 159.179576 136.610526 
L 153.579576 139.410526 
" style="fill: none; stroke: #4d4d4d; stroke-width: 2; stroke-linecap: round"/>
   </g>
   <g id="patch_9">
    <path d="M 282.674805 136.610526 
Q 308.26519 136.610526 331.619507 136.610526 
" style="fill: none; stroke: #4d4d4d; stroke-width: 2; stroke-linecap: round"/>
    <path d="M 326.019507 133.810526 
L 331.619507 136.610526 
L 326.019507 139.410526 
" style="fill: none; stroke: #4d4d4d; stroke-width: 2; stroke-linecap: round"/>
   </g>
   <g id="patch_10">
    <path d="M 455.114805 136.610526 
Q 480.70519 136.610526 504.059507 136.610526 
" style="fill: none; stroke: #4d4d4d; stroke-width: 2; stroke-linecap: round"/>
    <path d="M 498.459507 133.810526 
L 504.059507 136.610526 
L 498.459507 139.410526 
" style="fill: none; stroke: #4d4d4d; stroke-width: 2; stroke-linecap: round"/>
   </g>
   <g id="patch_11">
    <path d="M 222.048 162.910946 
Q 222.048 206.034351 222.048 247.480706 
" style="fill: none; stroke-dasharray: 5.55,2.4; stroke-dashoffset: 0; stroke: #4d4d4d; stroke-width: 1.5; stroke-linecap: round"/>
    <path d="M 224.848 241.880706 
L 222.048 247.480706 
L 219.248 241.880706 
" style="fill: none; stroke-dasharray: 5.55,2.4; stroke-dashoffset: 0; stroke: #4d4d4d; stroke-width: 1.5; stroke-linecap: round"/>
   </g>
   <g id="patch_12">
    <path d="M 394.488 162.910946 
Q 394.488 206.034351 394.488 247.480706 
" style="fill: none; stroke-dasharray: 5.55,2.4; stroke-dashoffset: 0; stroke: #4d4d4d; stroke-width: 1.5; stroke-linecap: round"/>
    <path d="M 397.288 241.880706 
L 394.488 247.480706 
L 391.688 241.880706 
" style="fill: none; stroke-dasharray: 5.55,2.4; stroke-dashoffset: 0; stroke: #4d4d4d; stroke-width: 1.5; stroke-linecap: round"/>
   </g>
  </g>
 </g>
 <defs>
  <clipPath id="p9726ac42d2">
   <rect x="15.12" y="15.12" width="689.76" height="329.76"/>
  </clipPath>
 </defs>
</svg>
