<?xml version="1.0" encoding="utf-8" standalone="no"?>
<!DOCTYPE svg PUBLIC "-//W3C//DTD SVG 1.1//EN"
  "http://www.w3.org/Graphics/SVG/1.1/DTD/svg11.dtd">
<svg xmlns:xlink="http://www.w3.org/1999/xlink" width="792pt" height="396pt" viewBox="0 0 792 396" xmlns="http://www.w3.org/2000/svg" version="1.1">
 <metadata>
  <rdf:RDF xmlns:dc="http://purl.org/dc/elements/1.1/" xmlns:cc="http://creativecommons.org/ns#" xmlns:rdf="http://www.w3.org/1999/02/22-rdf-syntax-ns#">
   <cc:Work>
    <dc:type rdf:resource="http://purl.org/dc/dcmitype/StillImage"/>
    <dc:date>2026-06-20T18:10:34.395766</dc:date>
    <dc:format>image/svg+xml</dc:format>
    <dc:creator>
     <cc:Agent>
      <dc:title>Matplotlib v3.11.0, https://matplotlib.org/</dc:title>
     </cc:Agent>
    </dc:creator>
   </cc:Work>
  </rdf:RDF>
 </metadata>
 <defs>
  <style type="text/css">*{stroke-linejoin: round; stroke-linecap: butt}</style>
 </defs>
 <g id="figure_1">
  <g id="patch_1">
   <path d="M 0 396 
L 792 396 
L 792 0 
L 0 0 
z
" style="fill: #ffffff"/>
  </g>
  <g id="axes_1">
   <g id="patch_2">
    <path d="M 87.668571 259.577 
C 104.022662 259.577 119.709132 254.523948 131.27322 245.53072 
C 142.837308 236.537492 149.334857 224.338345 149.334857 211.62 
C 149.334857 198.901655 142.837308 186.702508 131.27322 177.70928 
C 119.709132 168.716052 104.022662 163.663 87.668571 163.663 
C 71.314481 163.663 55.628011 168.716052 44.063923 177.70928 
C 32.499835 186.702508 26.002286 198.901655 26.002286 211.62 
C 26.002286 224.338345 32.499835 236.537492 44.063923 245.53072 
C 55.628011 254.523948 71.314481 259.577 87.668571 259.577 
z
" clip-path="url(#pa6b4738472)" style="fill: #3775ba; opacity: 0.85; stroke: #3775ba; stroke-linejoin: miter"/>
   </g>
   <g id="patch_3">
    <path d="M 269.04 259.577 
C 285.39409 259.577 301.080561 254.523948 312.644649 245.53072 
C 324.208737 236.537492 330.706286 224.338345 330.706286 211.62 
C 330.706286 198.901655 324.208737 186.702508 312.644649 177.70928 
C 301.080561 168.716052 285.39409 163.663 269.04 163.663 
C 252.68591 163.663 236.999439 168.716052 225.435351 177.70928 
C 213.871263 186.702508 207.373714 198.901655 207.373714 211.62 
C 207.373714 224.338345 213.871263 236.537492 225.435351 245.53072 
C 236.999439 254.523948 252.68591 259.577 269.04 259.577 
z
" clip-path="url(#pa6b4738472)" style="fill: #3775ba; opacity: 0.85; stroke: #3775ba; stroke-linejoin: miter"/>
   </g>
   <g id="patch_4">
    <path d="M 450.411429 259.577 
C 466.765519 259.577 482.451989 254.523948 494.016077 245.53072 
C 505.580165 236.537492 512.077714 224.338345 512.077714 211.62 
C 512.077714 198.901655 505.580165 186.702508 494.016077 177.70928 
C 482.451989 168.716052 466.765519 163.663 450.411429 163.663 
C 434.057338 163.663 418.370868 168.716052 406.80678 177.70928 
C 395.242692 186.702508 388.745143 198.901655 388.745143 211.62 
C 388.745143 224.338345 395.242692 236.537492 406.80678 245.53072 
C 418.370868 254.523948 434.057338 259.577 450.411429 259.577 
z
" clip-path="url(#pa6b4738472)" style="fill: #3775ba; opacity: 0.85; stroke: #3775ba; stroke-linejoin: miter"/>
   </g>
   <g id="patch_5">
    <path d="M 653.547429 259.577 
C 669.901519 259.577 685.587989 254.523948 697.152077 245.53072 
C 708.716165 236.537492 715.213714 224.338345 715.213714 211.62 
C 715.213714 198.901655 708.716165 186.702508 697.152077 177.70928 
C 685.587989 168.716052 669.901519 163.663 653.547429 163.663 
C 637.193338 163.663 621.506868 168.716052 609.94278 177.70928 
C 598.378692 186.702508 591.881143 198.901655 591.881143 211.62 
C 591.881143 224.338345 598.378692 236.537492 609.94278 245.53072 
C 621.506868 254.523948 637.193338 259.577 653.547429 259.577 
z
" clip-path="url(#pa6b4738472)" style="fill: #3775ba; opacity: 0.85; stroke: #3775ba; stroke-linejoin: miter"/>
   </g>
   <g id="text_1">
    <text style="font-weight: 700; font-size: 14px; font-family: 'Arial', 'DejaVu Sans', 'Liberation Sans', sans-serif; text-anchor: middle" x="87.668571" y="143.916" transform="rotate(-0 87.668571 143.916)">Atom</text>
   </g>
   <g id="text_2">
    <text style="font-size: 9px; font-family: 'Arial', 'DejaVu Sans', 'Liberation Sans', sans-serif; text-anchor: middle; fill: #ffffff" x="87.668571" y="225.233014" transform="rotate(-0 87.668571 225.233014)">Au(111) lattice</text>
   </g>
   <g id="text_3">
    <text style="font-weight: 700; font-size: 14px; font-family: 'Arial', 'DejaVu Sans', 'Liberation Sans', sans-serif; text-anchor: middle" x="269.04" y="143.916" transform="rotate(-0 269.04 143.916)">Nano</text>
   </g>
   <g id="text_4">
    <text style="font-size: 9px; font-family: 'Arial', 'DejaVu Sans', 'Liberation Sans', sans-serif; fill: #ffffff" transform="translate(237.770625 220.335396)">Au nanoparticle</text>
    <text style="font-size: 9px; font-family: 'Arial', 'DejaVu Sans', 'Liberation Sans', sans-serif; fill: #ffffff" transform="translate(250.658203 230.130807)">D = 8 nm</text>
   </g>
   <g id="text_5">
    <text style="font-weight: 700; font-size: 14px; font-family: 'Arial', 'DejaVu Sans', 'Liberation Sans', sans-serif; text-anchor: middle" x="450.411429" y="143.916" transform="rotate(-0 450.411429 143.916)">Micro</text>
   </g>
   <g id="text_6">
    <text style="font-size: 9px; font-family: 'Arial', 'DejaVu Sans', 'Liberation Sans', sans-serif; fill: #ffffff" transform="translate(415.145491 220.335396)">Mesoporous shell</text>
    <text style="font-size: 9px; font-family: 'Arial', 'DejaVu Sans', 'Liberation Sans', sans-serif; fill: #ffffff" transform="translate(425.774632 230.130807)">Pore = 4 nm</text>
   </g>
   <g id="text_7">
    <text style="font-weight: 700; font-size: 14px; font-family: 'Arial', 'DejaVu Sans', 'Liberation Sans', sans-serif; text-anchor: middle" x="653.547429" y="143.916" transform="rotate(-0 653.547429 143.916)">Macro</text>
   </g>
   <g id="text_8">
    <text style="font-size: 9px; font-family: 'Arial', 'DejaVu Sans', 'Liberation Sans', sans-serif; fill: #ffffff" transform="translate(626.535475 220.335309)">Bulk monolith</text>
    <text style="font-size: 9px; font-family: 'Arial', 'DejaVu Sans', 'Liberation Sans', sans-serif; fill: #ffffff" transform="translate(624.601882 230.130719)">ρ = 0.06 g/cm³</text>
   </g>
   <g id="patch_6">
    <path d="M 151.336319 211.62 
Q 178.354593 211.62 203.136799 211.62 
" style="fill: none; stroke: #4d4d4d; stroke-width: 2; stroke-linecap: round"/>
    <path d="M 197.536799 208.82 
L 203.136799 211.62 
L 197.536799 214.42 
" style="fill: none; stroke: #4d4d4d; stroke-width: 2; stroke-linecap: round"/>
   </g>
   <g id="patch_7">
    <path d="M 332.707748 211.62 
Q 359.726022 211.62 384.508228 211.62 
" style="fill: none; stroke: #4d4d4d; stroke-width: 2; stroke-linecap: round"/>
    <path d="M 378.908228 208.82 
L 384.508228 211.62 
L 378.908228 214.42 
" style="fill: none; stroke: #4d4d4d; stroke-width: 2; stroke-linecap: round"/>
   </g>
   <g id="patch_8">
    <path d="M 514.079619 211.62 
Q 551.980795 211.62 587.645902 211.62 
" style="fill: none; stroke: #4d4d4d; stroke-width: 2; stroke-linecap: round"/>
    <path d="M 582.045902 208.82 
L 587.645902 211.62 
L 582.045902 214.42 
" style="fill: none; stroke: #4d4d4d; stroke-width: 2; stroke-linecap: round"/>
   </g>
   <g id="text_9">
    <text style="font-size: 10px; font-family: 'Arial', 'DejaVu Sans', 'Liberation Sans', sans-serif; text-anchor: middle; fill: #4d4d4d" x="87.668571" y="324.46" transform="rotate(-0 87.668571 324.46)">~0.3 nm</text>
   </g>
   <g id="text_10">
    <text style="font-size: 10px; font-family: 'Arial', 'DejaVu Sans', 'Liberation Sans', sans-serif; text-anchor: middle; fill: #4d4d4d" x="269.04" y="324.46" transform="rotate(-0 269.04 324.46)">~10 nm</text>
   </g>
   <g id="text_11">
    <text style="font-size: 10px; font-family: 'Arial', 'DejaVu Sans', 'Liberation Sans', sans-serif; text-anchor: middle; fill: #4d4d4d" x="450.411429" y="324.46" transform="rotate(-0 450.411429 324.46)">~1 µm</text>
   </g>
   <g id="text_12">
    <text style="font-size: 10px; font-family: 'Arial', 'DejaVu Sans', 'Liberation Sans', sans-serif; text-anchor: middle; fill: #4d4d4d" x="653.547429" y="324.46" transform="rotate(-0 653.547429 324.46)">~1 cm</text>
   </g>
   <g id="text_13">
    <text style="font-size: 16.8px; font-family: 'Arial', 'DejaVu Sans', 'Liberation Sans', sans-serif; text-anchor: middle" x="396" y="27.36" transform="rotate(-0 396 27.36)">Multiscale architecture across four length scales</text>
   </g>
  </g>
 </g>
 <defs>
  <clipPath id="pa6b4738472">
   <rect x="15.12" y="42.36" width="761.76" height="338.52"/>
  </clipPath>
 </defs>
</svg>
