<?xml version="1.0" encoding="utf-8" standalone="no"?>
<!DOCTYPE svg PUBLIC "-//W3C//DTD SVG 1.1//EN"
  "http://www.w3.org/Graphics/SVG/1.1/DTD/svg11.dtd">
<svg xmlns:xlink="http://www.w3.org/1999/xlink" width="720pt" height="432pt" viewBox="0 0 720 432" xmlns="http://www.w3.org/2000/svg" version="1.1">
 <metadata>
  <rdf:RDF xmlns:dc="http://purl.org/dc/elements/1.1/" xmlns:cc="http://creativecommons.org/ns#" xmlns:rdf="http://www.w3.org/1999/02/22-rdf-syntax-ns#">
   <cc:Work>
    <dc:type rdf:resource="http://purl.org/dc/dcmitype/StillImage"/>
    <dc:date>2026-06-20T18:10:33.063971</dc:date>
    <dc:format>image/svg+xml</dc:format>
    <dc:creator>
     <cc:Agent>
      <dc:title>Matplotlib v3.11.0, https://matplotlib.org/</dc:title>
     </cc:Agent>
    </dc:creator>
   </cc:Work>
  </rdf:RDF>
 </metadata>
 <defs>
  <style type="text/css">*{stroke-linejoin: round; stroke-linecap: butt}</style>
 </defs>
 <g id="figure_1">
  <g id="patch_1">
   <path d="M 0 432 
L 720 432 
L 720 0 
L 0 0 
z
" style="fill: #ffffff"/>
  </g>
  <g id="axes_1">
   <g id="patch_2">
    <path d="M 58.698672 376.835039 
L 350.28 376.835039 
L 350.28 20.216191 
L 58.698672 20.216191 
z
" style="fill: #ffffff"/>
   </g>
   <g id="FillBetweenPolyCollection_1">
    <defs>
     <path id="m3ec8a545ec" d="M 71.952369 -74.102893 
L 71.952369 -73.199911 
L 95.194474 -73.199911 
L 111.705166 -73.199911 
L 124.52032 -73.199911 
L 134.995418 -73.199911 
L 143.854521 -73.199911 
L 151.530229 -73.199911 
L 158.301764 -73.199911 
L 164.35987 -73.199911 
L 169.84065 -73.199911 
L 174.844631 -73.199911 
L 179.448171 -73.199911 
L 183.710639 -73.199911 
L 187.679107 -73.199911 
L 191.391528 -73.199911 
L 194.878949 -73.199911 
L 198.167093 -73.199911 
L 201.277507 -73.199911 
L 204.228424 -73.199911 
L 207.035405 -73.199911 
L 209.711843 -73.199911 
L 212.269341 -73.199911 
L 214.718023 -73.199911 
L 217.066771 -73.199911 
L 219.323424 -73.199911 
L 221.494932 -73.199911 
L 223.587488 -73.199911 
L 225.606631 -73.199911 
L 227.557339 -73.199911 
L 229.444098 -73.199911 
L 231.27097 -73.199911 
L 233.041638 -73.199911 
L 234.759459 -73.199911 
L 236.427496 -73.199911 
L 238.048552 -73.199911 
L 239.625203 -73.199911 
L 241.159815 -73.199911 
L 242.654574 -73.199911 
L 244.111496 -73.199911 
L 245.532451 -73.199911 
L 246.91917 -73.199911 
L 248.273265 -73.199911 
L 249.596236 -73.199911 
L 250.889482 -73.199911 
L 252.154309 -73.199911 
L 253.391938 -73.199911 
L 254.603517 -73.199911 
L 255.790117 -73.199911 
L 256.952749 -73.199911 
L 258.092362 -73.199911 
L 259.209849 -73.199911 
L 260.306054 -73.199911 
L 261.381771 -73.199911 
L 262.437753 -73.199911 
L 263.474711 -73.199911 
L 264.493318 -73.199911 
L 265.494212 -73.199911 
L 266.477999 -73.199911 
L 267.445254 -73.199911 
L 268.396523 -73.199911 
L 269.332326 -73.199911 
L 270.253158 -73.199911 
L 271.15949 -73.199911 
L 272.051773 -73.199911 
L 272.930434 -73.199911 
L 273.795884 -73.199911 
L 274.648514 -73.199911 
L 275.488698 -73.199911 
L 276.316794 -73.199911 
L 277.133146 -73.199911 
L 277.938081 -73.199911 
L 278.731915 -73.199911 
L 279.51495 -73.199911 
L 280.287475 -73.199911 
L 281.049769 -73.199911 
L 281.8021 -73.199911 
L 282.544724 -73.199911 
L 283.277889 -73.199911 
L 284.001833 -73.199911 
L 284.716784 -73.199911 
L 285.422964 -73.199911 
L 286.120585 -73.199911 
L 286.809852 -73.199911 
L 287.490963 -73.199911 
L 288.164108 -73.199911 
L 288.829472 -73.199911 
L 289.487233 -73.199911 
L 290.137562 -73.199911 
L 290.780626 -73.199911 
L 291.416584 -73.199911 
L 292.045593 -73.199911 
L 292.667802 -73.199911 
L 293.283357 -73.199911 
L 293.892399 -73.199911 
L 294.495064 -73.199911 
L 295.091484 -73.199911 
L 295.681788 -73.199911 
L 296.266099 -73.199911 
L 296.844539 -73.199911 
L 297.417223 -73.199911 
L 297.984265 -73.199911 
L 298.545776 -73.199911 
L 299.101862 -73.199911 
L 299.652627 -73.199911 
L 300.198172 -73.199911 
L 300.738595 -73.199911 
L 301.273991 -73.199911 
L 301.804453 -73.199911 
L 302.330071 -73.199911 
L 302.850933 -73.199911 
L 303.367123 -73.199911 
L 303.878726 -73.199911 
L 304.385821 -73.199911 
L 304.888488 -73.199911 
L 305.386803 -73.199911 
L 305.880841 -73.199911 
L 306.370675 -73.199911 
L 306.856376 -73.199911 
L 307.338012 -73.199911 
L 307.815652 -73.199911 
L 308.28936 -73.199911 
L 308.759202 -73.199911 
L 309.22524 -73.199911 
L 309.687535 -73.199911 
L 310.146147 -73.199911 
L 310.601133 -73.199911 
L 311.052551 -73.199911 
L 311.500457 -73.199911 
L 311.944903 -73.199911 
L 312.385945 -73.199911 
L 312.823632 -73.199911 
L 313.258017 -73.199911 
L 313.689148 -73.199911 
L 314.117074 -73.199911 
L 314.541842 -73.199911 
L 314.963498 -73.199911 
L 315.382088 -73.199911 
L 315.797655 -73.199911 
L 316.210244 -73.199911 
L 316.619897 -73.199911 
L 317.026654 -73.199911 
L 317.430558 -73.199911 
L 317.831647 -73.199911 
L 318.22996 -73.199911 
L 318.625536 -73.199911 
L 319.018412 -73.199911 
L 319.408625 -73.199911 
L 319.79621 -73.199911 
L 320.181202 -73.199911 
L 320.563637 -73.199911 
L 320.943547 -73.199911 
L 321.320967 -73.199911 
L 321.695928 -73.199911 
L 322.068462 -73.199911 
L 322.4386 -73.199911 
L 322.806374 -73.199911 
L 323.171812 -73.199911 
L 323.534945 -73.199911 
L 323.895802 -73.199911 
L 324.25441 -73.199911 
L 324.610798 -73.199911 
L 324.964993 -73.199911 
L 325.317022 -73.199911 
L 325.666911 -73.199911 
L 326.014686 -73.199911 
L 326.360372 -73.199911 
L 326.703994 -73.199911 
L 327.045578 -73.199911 
L 327.385146 -73.199911 
L 327.722723 -73.199911 
L 328.058331 -73.199911 
L 328.391994 -73.199911 
L 328.723734 -73.199911 
L 329.053573 -73.199911 
L 329.381533 -73.199911 
L 329.707634 -73.199911 
L 330.031899 -73.199911 
L 330.354347 -73.199911 
L 330.674998 -73.199911 
L 330.993874 -73.199911 
L 331.310992 -73.199911 
L 331.626373 -73.199911 
L 331.940036 -73.199911 
L 332.251998 -73.199911 
L 332.562279 -73.199911 
L 332.870896 -73.199911 
L 333.177867 -73.199911 
L 333.48321 -73.199911 
L 333.786942 -73.199911 
L 334.089079 -73.199911 
L 334.389639 -73.199911 
L 334.688637 -73.199911 
L 334.98609 -73.199911 
L 335.282014 -73.199911 
L 335.576424 -73.199911 
L 335.869337 -73.199911 
L 336.160766 -73.199911 
L 336.450727 -73.199911 
L 336.739234 -73.199911 
L 337.026303 -73.199911 
L 337.026303 -73.064695 
L 337.026303 -73.064695 
L 336.739234 -73.415225 
L 336.450727 -72.667123 
L 336.160766 -74.799352 
L 335.869337 -71.749258 
L 335.576424 -71.376166 
L 335.282014 -76.61163 
L 334.98609 -72.967119 
L 334.688637 -73.457784 
L 334.389639 -77.382273 
L 334.089079 -77.339045 
L 333.786942 -71.374909 
L 333.48321 -71.7959 
L 333.177867 -74.779293 
L 332.870896 -77.669825 
L 332.562279 -75.626759 
L 332.251998 -77.200197 
L 331.940036 -74.377579 
L 331.626373 -75.907148 
L 331.310992 -78.38511 
L 330.993874 -76.65174 
L 330.674998 -76.193361 
L 330.354347 -77.14871 
L 330.031899 -80.442183 
L 329.707634 -78.088959 
L 329.381533 -75.694991 
L 329.053573 -76.379536 
L 328.723734 -78.566168 
L 328.391994 -81.074788 
L 328.058331 -79.61461 
L 327.722723 -81.675863 
L 327.385146 -82.338652 
L 327.045578 -84.401567 
L 326.703994 -86.554823 
L 326.360372 -83.996705 
L 326.014686 -88.729704 
L 325.666911 -86.705062 
L 325.317022 -94.062094 
L 324.964993 -89.831126 
L 324.610798 -90.969567 
L 324.25441 -92.256879 
L 323.895802 -95.479709 
L 323.534945 -100.421341 
L 323.171812 -100.778422 
L 322.806374 -106.270572 
L 322.4386 -104.91655 
L 322.068462 -106.483215 
L 321.695928 -106.650901 
L 321.320967 -110.622702 
L 320.943547 -115.196786 
L 320.563637 -118.761962 
L 320.181202 -123.641724 
L 319.79621 -124.377146 
L 319.408625 -126.707275 
L 319.018412 -130.491922 
L 318.625536 -133.183268 
L 318.22996 -138.949585 
L 317.831647 -137.79654 
L 317.430558 -143.860795 
L 317.026654 -150.5256 
L 316.619897 -159.461247 
L 316.210244 -161.569366 
L 315.797655 -163.233762 
L 315.382088 -166.205694 
L 314.963498 -167.575143 
L 314.541842 -170.709088 
L 314.117074 -177.265123 
L 313.689148 -183.009069 
L 313.258017 -182.934936 
L 312.823632 -188.846106 
L 312.385945 -191.618382 
L 311.944903 -195.96361 
L 311.500457 -198.523667 
L 311.052551 -207.41362 
L 310.601133 -208.600394 
L 310.146147 -212.830457 
L 309.687535 -216.989444 
L 309.22524 -217.620553 
L 308.759202 -220.272427 
L 308.28936 -220.378974 
L 307.815652 -224.270315 
L 307.338012 -230.062105 
L 306.856376 -228.724639 
L 306.370675 -230.745916 
L 305.880841 -230.551352 
L 305.386803 -232.840712 
L 304.888488 -230.592087 
L 304.385821 -232.84456 
L 303.878726 -234.781374 
L 303.367123 -235.162147 
L 302.850933 -230.516146 
L 302.330071 -235.1206 
L 301.804453 -231.90601 
L 301.273991 -229.568274 
L 300.738595 -229.698605 
L 300.198172 -226.607327 
L 299.652627 -228.101482 
L 299.101862 -223.789043 
L 298.545776 -224.786728 
L 297.984265 -218.855792 
L 297.417223 -215.037859 
L 296.844539 -214.720763 
L 296.266099 -208.784678 
L 295.681788 -204.845108 
L 295.091484 -201.163706 
L 294.495064 -197.117681 
L 293.892399 -196.677705 
L 293.283357 -192.207842 
L 292.667802 -189.000102 
L 292.045593 -186.608334 
L 291.416584 -182.184477 
L 290.780626 -178.232887 
L 290.137562 -173.246761 
L 289.487233 -168.225141 
L 288.829472 -166.106322 
L 288.164108 -158.691144 
L 287.490963 -156.337033 
L 286.809852 -152.424775 
L 286.120585 -147.928022 
L 285.422964 -146.351907 
L 284.716784 -141.054517 
L 284.001833 -139.266926 
L 283.277889 -134.746997 
L 282.544724 -130.086249 
L 281.8021 -128.96099 
L 281.049769 -124.590129 
L 280.287475 -122.151433 
L 279.51495 -116.262318 
L 278.731915 -112.915713 
L 277.938081 -109.834858 
L 277.133146 -109.347929 
L 276.316794 -108.913815 
L 275.488698 -103.830363 
L 274.648514 -101.757651 
L 273.795884 -101.877611 
L 272.930434 -99.651324 
L 272.051773 -97.455811 
L 271.15949 -94.773617 
L 270.253158 -92.053461 
L 269.332326 -87.728675 
L 268.396523 -91.563109 
L 267.445254 -86.464318 
L 266.477999 -89.911191 
L 265.494212 -85.130526 
L 264.493318 -83.270723 
L 263.474711 -82.566946 
L 262.437753 -81.907038 
L 261.381771 -78.727995 
L 260.306054 -82.117552 
L 259.209849 -80.678527 
L 258.092362 -79.54532 
L 256.952749 -80.148463 
L 255.790117 -78.658168 
L 254.603517 -79.440916 
L 253.391938 -77.651672 
L 252.154309 -77.015723 
L 250.889482 -76.858516 
L 249.596236 -74.698252 
L 248.273265 -76.814956 
L 246.91917 -76.931997 
L 245.532451 -76.488418 
L 244.111496 -73.28702 
L 242.654574 -73.049221 
L 241.159815 -74.327669 
L 239.625203 -76.666802 
L 238.048552 -75.487387 
L 236.427496 -72.47784 
L 234.759459 -72.97004 
L 233.041638 -73.081326 
L 231.27097 -78.12351 
L 229.444098 -74.598615 
L 227.557339 -74.49357 
L 225.606631 -74.342172 
L 223.587488 -74.64472 
L 221.494932 -72.887934 
L 219.323424 -72.922735 
L 217.066771 -74.101263 
L 214.718023 -78.571029 
L 212.269341 -78.761988 
L 209.711843 -88.275879 
L 207.035405 -104.644215 
L 204.228424 -133.637068 
L 201.277507 -170.444135 
L 198.167093 -226.217503 
L 194.878949 -283.770796 
L 191.391528 -342.881377 
L 187.679107 -384.31794 
L 183.710639 -395.573861 
L 179.448171 -380.003546 
L 174.844631 -337.460722 
L 169.84065 -276.411479 
L 164.35987 -218.416289 
L 158.301764 -166.028314 
L 151.530229 -128.059957 
L 143.854521 -99.538457 
L 134.995418 -83.217837 
L 124.52032 -81.194347 
L 111.705166 -77.135339 
L 95.194474 -71.981482 
L 71.952369 -74.102893 
z
" style="stroke: #7aa6d4; stroke-opacity: 0.4"/>
    </defs>
    <g clip-path="url(#p513f3cb9af)">
     <use xlink:href="#m3ec8a545ec" x="0" y="432" style="fill: #7aa6d4; fill-opacity: 0.4; stroke: #7aa6d4; stroke-opacity: 0.4"/>
    </g>
   </g>
   <g id="matplotlib.axis_1">
    <g id="xtick_1">
     <g id="line2d_1">
      <defs>
       <path id="m74c8b06235" d="M 0 0 
L 0 3.5 
" style="stroke: #000000; stroke-width: 0.8"/>
      </defs>
      <g>
       <use xlink:href="#m74c8b06235" x="111.849971" y="376.835039" style="stroke: #000000; stroke-width: 0.8"/>
      </g>
     </g>
     <g id="text_1">
      <!-- $\mathdefault{10^{0}}$ -->
      <g transform="translate(101.069971 396.715039)">
       <text>
        <tspan x="0" y="-0.17425" style="font-size: 14px; font-family: 'Arial'">1</tspan>
        <tspan x="7.786133" y="-0.17425" style="font-size: 14px; font-family: 'Arial'">0</tspan>
        <tspan x="15.70625" y="-5.95625" style="font-size: 9.8px; font-family: 'Arial'">0</tspan>
       </text>
      </g>
     </g>
    </g>
    <g id="xtick_2">
     <g id="line2d_2">
      <g>
       <use xlink:href="#m74c8b06235" x="244.386939" y="376.835039" style="stroke: #000000; stroke-width: 0.8"/>
      </g>
     </g>
     <g id="text_2">
      <!-- $\mathdefault{10^{1}}$ -->
      <g transform="translate(233.606939 396.715039)">
       <text>
        <tspan x="0" y="-0.17425" style="font-size: 14px; font-family: 'Arial'">1</tspan>
        <tspan x="7.786133" y="-0.17425" style="font-size: 14px; font-family: 'Arial'">0</tspan>
        <tspan x="15.70625" y="-5.95625" style="font-size: 9.8px; font-family: 'Arial'">1</tspan>
       </text>
      </g>
     </g>
    </g>
    <g id="xtick_3">
     <g id="line2d_3">
      <defs>
       <path id="m54c3fa038d" d="M 0 0 
L 0 2 
" style="stroke: #000000; stroke-width: 0.6"/>
      </defs>
      <g>
       <use xlink:href="#m54c3fa038d" x="59.108209" y="376.835039" style="stroke: #000000; stroke-width: 0.6"/>
      </g>
     </g>
    </g>
    <g id="xtick_4">
     <g id="line2d_4">
      <g>
       <use xlink:href="#m54c3fa038d" x="71.952369" y="376.835039" style="stroke: #000000; stroke-width: 0.6"/>
      </g>
     </g>
    </g>
    <g id="xtick_5">
     <g id="line2d_5">
      <g>
       <use xlink:href="#m54c3fa038d" x="82.446811" y="376.835039" style="stroke: #000000; stroke-width: 0.6"/>
      </g>
     </g>
    </g>
    <g id="xtick_6">
     <g id="line2d_6">
      <g>
       <use xlink:href="#m54c3fa038d" x="91.319735" y="376.835039" style="stroke: #000000; stroke-width: 0.6"/>
      </g>
     </g>
    </g>
    <g id="xtick_7">
     <g id="line2d_7">
      <g>
       <use xlink:href="#m54c3fa038d" x="99.005812" y="376.835039" style="stroke: #000000; stroke-width: 0.6"/>
      </g>
     </g>
    </g>
    <g id="xtick_8">
     <g id="line2d_8">
      <g>
       <use xlink:href="#m54c3fa038d" x="105.785412" y="376.835039" style="stroke: #000000; stroke-width: 0.6"/>
      </g>
     </g>
    </g>
    <g id="xtick_9">
     <g id="line2d_9">
      <g>
       <use xlink:href="#m54c3fa038d" x="151.747574" y="376.835039" style="stroke: #000000; stroke-width: 0.6"/>
      </g>
     </g>
    </g>
    <g id="xtick_10">
     <g id="line2d_10">
      <g>
       <use xlink:href="#m54c3fa038d" x="175.086175" y="376.835039" style="stroke: #000000; stroke-width: 0.6"/>
      </g>
     </g>
    </g>
    <g id="xtick_11">
     <g id="line2d_11">
      <g>
       <use xlink:href="#m54c3fa038d" x="191.645177" y="376.835039" style="stroke: #000000; stroke-width: 0.6"/>
      </g>
     </g>
    </g>
    <g id="xtick_12">
     <g id="line2d_12">
      <g>
       <use xlink:href="#m54c3fa038d" x="204.489336" y="376.835039" style="stroke: #000000; stroke-width: 0.6"/>
      </g>
     </g>
    </g>
    <g id="xtick_13">
     <g id="line2d_13">
      <g>
       <use xlink:href="#m54c3fa038d" x="214.983778" y="376.835039" style="stroke: #000000; stroke-width: 0.6"/>
      </g>
     </g>
    </g>
    <g id="xtick_14">
     <g id="line2d_14">
      <g>
       <use xlink:href="#m54c3fa038d" x="223.856703" y="376.835039" style="stroke: #000000; stroke-width: 0.6"/>
      </g>
     </g>
    </g>
    <g id="xtick_15">
     <g id="line2d_15">
      <g>
       <use xlink:href="#m54c3fa038d" x="231.542779" y="376.835039" style="stroke: #000000; stroke-width: 0.6"/>
      </g>
     </g>
    </g>
    <g id="xtick_16">
     <g id="line2d_16">
      <g>
       <use xlink:href="#m54c3fa038d" x="238.32238" y="376.835039" style="stroke: #000000; stroke-width: 0.6"/>
      </g>
     </g>
    </g>
    <g id="xtick_17">
     <g id="line2d_17">
      <g>
       <use xlink:href="#m54c3fa038d" x="284.284541" y="376.835039" style="stroke: #000000; stroke-width: 0.6"/>
      </g>
     </g>
    </g>
    <g id="xtick_18">
     <g id="line2d_18">
      <g>
       <use xlink:href="#m54c3fa038d" x="307.623143" y="376.835039" style="stroke: #000000; stroke-width: 0.6"/>
      </g>
     </g>
    </g>
    <g id="xtick_19">
     <g id="line2d_19">
      <g>
       <use xlink:href="#m54c3fa038d" x="324.182144" y="376.835039" style="stroke: #000000; stroke-width: 0.6"/>
      </g>
     </g>
    </g>
    <g id="xtick_20">
     <g id="line2d_20">
      <g>
       <use xlink:href="#m54c3fa038d" x="337.026303" y="376.835039" style="stroke: #000000; stroke-width: 0.6"/>
      </g>
     </g>
    </g>
    <g id="xtick_21">
     <g id="line2d_21">
      <g>
       <use xlink:href="#m54c3fa038d" x="347.520745" y="376.835039" style="stroke: #000000; stroke-width: 0.6"/>
      </g>
     </g>
    </g>
    <g id="text_3">
     <text style="font-size: 14px; font-family: 'Arial', 'DejaVu Sans', 'Liberation Sans', sans-serif; text-anchor: middle" x="204.489336" y="413.853711" transform="rotate(-0 204.489336 413.853711)">Pore diameter (nm)</text>
    </g>
   </g>
   <g id="matplotlib.axis_2">
    <g id="ytick_1">
     <g id="line2d_22">
      <defs>
       <path id="m5fad24cf1a" d="M 0 0 
L -3.5 0 
" style="stroke: #000000; stroke-width: 0.8"/>
      </defs>
      <g>
       <use xlink:href="#m5fad24cf1a" x="58.698672" y="358.800089" style="stroke: #000000; stroke-width: 0.8"/>
      </g>
     </g>
     <g id="text_4">
      <text style="font-size: 14px; font-family: 'Arial', 'DejaVu Sans', 'Liberation Sans', sans-serif; text-anchor: end" x="51.698672" y="363.89628" transform="rotate(-0 51.698672 363.89628)">0.0</text>
     </g>
    </g>
    <g id="ytick_2">
     <g id="line2d_23">
      <g>
       <use xlink:href="#m5fad24cf1a" x="58.698672" y="318.517593" style="stroke: #000000; stroke-width: 0.8"/>
      </g>
     </g>
     <g id="text_5">
      <text style="font-size: 14px; font-family: 'Arial', 'DejaVu Sans', 'Liberation Sans', sans-serif; text-anchor: end" x="51.698672" y="323.613784" transform="rotate(-0 51.698672 323.613784)">0.1</text>
     </g>
    </g>
    <g id="ytick_3">
     <g id="line2d_24">
      <g>
       <use xlink:href="#m5fad24cf1a" x="58.698672" y="278.235097" style="stroke: #000000; stroke-width: 0.8"/>
      </g>
     </g>
     <g id="text_6">
      <text style="font-size: 14px; font-family: 'Arial', 'DejaVu Sans', 'Liberation Sans', sans-serif; text-anchor: end" x="51.698672" y="283.331289" transform="rotate(-0 51.698672 283.331289)">0.2</text>
     </g>
    </g>
    <g id="ytick_4">
     <g id="line2d_25">
      <g>
       <use xlink:href="#m5fad24cf1a" x="58.698672" y="237.952601" style="stroke: #000000; stroke-width: 0.8"/>
      </g>
     </g>
     <g id="text_7">
      <text style="font-size: 14px; font-family: 'Arial', 'DejaVu Sans', 'Liberation Sans', sans-serif; text-anchor: end" x="51.698672" y="243.048793" transform="rotate(-0 51.698672 243.048793)">0.3</text>
     </g>
    </g>
    <g id="ytick_5">
     <g id="line2d_26">
      <g>
       <use xlink:href="#m5fad24cf1a" x="58.698672" y="197.670106" style="stroke: #000000; stroke-width: 0.8"/>
      </g>
     </g>
     <g id="text_8">
      <text style="font-size: 14px; font-family: 'Arial', 'DejaVu Sans', 'Liberation Sans', sans-serif; text-anchor: end" x="51.698672" y="202.766297" transform="rotate(-0 51.698672 202.766297)">0.4</text>
     </g>
    </g>
    <g id="ytick_6">
     <g id="line2d_27">
      <g>
       <use xlink:href="#m5fad24cf1a" x="58.698672" y="157.38761" style="stroke: #000000; stroke-width: 0.8"/>
      </g>
     </g>
     <g id="text_9">
      <text style="font-size: 14px; font-family: 'Arial', 'DejaVu Sans', 'Liberation Sans', sans-serif; text-anchor: end" x="51.698672" y="162.483801" transform="rotate(-0 51.698672 162.483801)">0.5</text>
     </g>
    </g>
    <g id="ytick_7">
     <g id="line2d_28">
      <g>
       <use xlink:href="#m5fad24cf1a" x="58.698672" y="117.105114" style="stroke: #000000; stroke-width: 0.8"/>
      </g>
     </g>
     <g id="text_10">
      <text style="font-size: 14px; font-family: 'Arial', 'DejaVu Sans', 'Liberation Sans', sans-serif; text-anchor: end" x="51.698672" y="122.201306" transform="rotate(-0 51.698672 122.201306)">0.6</text>
     </g>
    </g>
    <g id="ytick_8">
     <g id="line2d_29">
      <g>
       <use xlink:href="#m5fad24cf1a" x="58.698672" y="76.822618" style="stroke: #000000; stroke-width: 0.8"/>
      </g>
     </g>
     <g id="text_11">
      <text style="font-size: 14px; font-family: 'Arial', 'DejaVu Sans', 'Liberation Sans', sans-serif; text-anchor: end" x="51.698672" y="81.91881" transform="rotate(-0 51.698672 81.91881)">0.7</text>
     </g>
    </g>
    <g id="ytick_9">
     <g id="line2d_30">
      <g>
       <use xlink:href="#m5fad24cf1a" x="58.698672" y="36.540123" style="stroke: #000000; stroke-width: 0.8"/>
      </g>
     </g>
     <g id="text_12">
      <text style="font-size: 14px; font-family: 'Arial', 'DejaVu Sans', 'Liberation Sans', sans-serif; text-anchor: end" x="51.698672" y="41.636314" transform="rotate(-0 51.698672 41.636314)">0.8</text>
     </g>
    </g>
    <g id="text_13">
     <text style="font-size: 14px; font-family: 'Arial', 'DejaVu Sans', 'Liberation Sans', sans-serif; text-anchor: middle" x="25.292109" y="198.525615" transform="rotate(-90 25.292109 198.525615)">dV/dlogD (cm³/g)</text>
    </g>
   </g>
   <g id="line2d_31">
    <path d="M 71.952369 357.897107 
L 95.194474 360.018518 
L 124.52032 350.805653 
L 134.995418 348.782163 
L 143.854521 332.461543 
L 151.530229 303.940043 
L 158.301764 265.971686 
L 164.35987 213.583711 
L 169.84065 155.588521 
L 174.844631 94.539278 
L 179.448171 51.996454 
L 183.710639 36.426139 
L 187.679107 47.68206 
L 191.391528 89.118623 
L 198.167093 205.782497 
L 201.277507 261.555865 
L 204.228424 298.362932 
L 207.035405 327.355785 
L 209.711843 343.724121 
L 212.269341 353.238012 
L 214.718023 353.428971 
L 217.066771 357.898737 
L 219.323424 359.077265 
L 221.494932 359.112066 
L 223.587488 357.35528 
L 225.606631 357.657828 
L 229.444098 357.401385 
L 231.27097 353.87649 
L 233.041638 358.918674 
L 234.759459 359.02996 
L 236.427496 359.52216 
L 238.048552 356.512613 
L 239.625203 355.333198 
L 241.159815 357.672331 
L 242.654574 358.950779 
L 244.111496 358.71298 
L 245.532451 355.511582 
L 246.91917 355.068003 
L 248.273265 355.185044 
L 249.596236 357.301748 
L 250.889482 355.141484 
L 252.154309 354.984277 
L 253.391938 354.348328 
L 254.603517 352.559084 
L 255.790117 353.341832 
L 256.952749 351.851537 
L 258.092362 352.45468 
L 259.209849 351.321473 
L 260.306054 349.882448 
L 261.381771 353.272005 
L 262.437753 350.092962 
L 264.493318 348.729277 
L 265.494212 346.869474 
L 266.477999 342.088809 
L 267.445254 345.535682 
L 268.396523 340.436891 
L 269.332326 344.271325 
L 270.253158 339.946539 
L 272.051773 334.544189 
L 273.795884 330.122389 
L 274.648514 330.242349 
L 275.488698 328.169637 
L 276.316794 323.086185 
L 277.938081 322.165142 
L 279.51495 315.737682 
L 280.287475 309.848567 
L 281.049769 307.409871 
L 281.8021 303.03901 
L 282.544724 301.913751 
L 284.001833 292.733074 
L 284.716784 290.945483 
L 285.422964 285.648093 
L 286.120585 284.071978 
L 287.490963 275.662967 
L 288.164108 273.308856 
L 288.829472 265.893678 
L 289.487233 263.774859 
L 290.780626 253.767113 
L 292.045593 245.391666 
L 292.667802 242.999898 
L 293.283357 239.792158 
L 293.892399 235.322295 
L 294.495064 234.882319 
L 296.266099 223.215322 
L 296.844539 217.279237 
L 297.417223 216.962141 
L 297.984265 213.144208 
L 298.545776 207.213272 
L 299.101862 208.210957 
L 299.652627 203.898518 
L 300.198172 205.392673 
L 300.738595 202.301395 
L 301.273991 202.431726 
L 301.804453 200.09399 
L 302.330071 196.8794 
L 302.850933 201.483854 
L 303.367123 196.837853 
L 303.878726 197.218626 
L 304.888488 201.407913 
L 305.386803 199.159288 
L 305.880841 201.448648 
L 306.370675 201.254084 
L 306.856376 203.275361 
L 307.338012 201.937895 
L 307.815652 207.729685 
L 308.28936 211.621026 
L 308.759202 211.727573 
L 309.22524 214.379447 
L 309.687535 215.010556 
L 310.601133 223.399606 
L 311.052551 224.58638 
L 311.500457 233.476333 
L 311.944903 236.03639 
L 312.385945 240.381618 
L 312.823632 243.153894 
L 313.258017 249.065064 
L 313.689148 248.990931 
L 314.541842 261.290912 
L 314.963498 264.424857 
L 315.382088 265.794306 
L 315.797655 268.766238 
L 316.619897 272.538753 
L 317.430558 288.139205 
L 317.831647 294.20346 
L 318.22996 293.050415 
L 318.625536 298.816732 
L 319.018412 301.508078 
L 319.408625 305.292725 
L 319.79621 307.622854 
L 320.181202 308.358276 
L 320.943547 316.803214 
L 321.695928 325.349099 
L 322.068462 325.516785 
L 322.4386 327.08345 
L 322.806374 325.729428 
L 323.171812 331.221578 
L 323.534945 331.578659 
L 323.895802 336.520291 
L 324.25441 339.743121 
L 324.964993 342.168874 
L 325.317022 337.937906 
L 325.666911 345.294938 
L 326.014686 343.270296 
L 326.360372 348.003295 
L 326.703994 345.445177 
L 327.385146 349.661348 
L 327.722723 350.324137 
L 328.058331 352.38539 
L 328.391994 350.925212 
L 329.053573 355.620464 
L 329.381533 356.305009 
L 330.031899 351.557817 
L 330.354347 354.85129 
L 330.674998 355.806639 
L 330.993874 355.34826 
L 331.310992 353.61489 
L 331.626373 356.092852 
L 331.940036 357.622421 
L 332.251998 354.799803 
L 332.562279 356.373241 
L 332.870896 354.330175 
L 333.48321 360.2041 
L 333.786942 360.625091 
L 334.089079 354.660955 
L 334.389639 354.617727 
L 334.688637 358.542216 
L 334.98609 359.032881 
L 335.282014 355.38837 
L 335.576424 360.623834 
L 335.869337 360.250742 
L 336.160766 357.200648 
L 336.450727 359.332877 
L 336.739234 358.584775 
L 337.026303 358.935305 
L 337.026303 358.935305 
" clip-path="url(#p513f3cb9af)" style="fill: none; stroke: #3775ba; stroke-width: 2.2; stroke-linecap: square"/>
   </g>
   <g id="line2d_32">
    <path d="M 183.9591 376.835039 
L 183.9591 20.216191 
" clip-path="url(#p513f3cb9af)" style="fill: none; stroke-dasharray: 3.7,1.6; stroke-dashoffset: 0; stroke: #e07c3e"/>
   </g>
   <g id="line2d_33">
    <path d="M 303.651908 376.835039 
L 303.651908 20.216191 
" clip-path="url(#p513f3cb9af)" style="fill: none; stroke-dasharray: 3.7,1.6; stroke-dashoffset: 0; stroke: #b64342"/>
   </g>
   <g id="patch_3">
    <path d="M 58.698672 376.835039 
L 58.698672 20.216191 
" style="fill: none; stroke: #000000; stroke-width: 1.8; stroke-linejoin: miter; stroke-linecap: square"/>
   </g>
   <g id="patch_4">
    <path d="M 58.698672 376.835039 
L 350.28 376.835039 
" style="fill: none; stroke: #000000; stroke-width: 1.8; stroke-linejoin: miter; stroke-linecap: square"/>
   </g>
   <g id="legend_1">
    <g id="line2d_34">
     <path d="M 197.323438 38.108574 
L 211.323438 38.108574 
L 225.323438 38.108574 
" style="fill: none; stroke-dasharray: 3.7,1.6; stroke-dashoffset: 0; stroke: #e07c3e"/>
    </g>
    <g id="text_14">
     <text style="font-size: 14px; font-family: 'Arial', 'DejaVu Sans', 'Liberation Sans', sans-serif; text-anchor: start" x="236.523438" y="43.008574" transform="rotate(-0 236.523438 43.008574)">Mesopore peak</text>
    </g>
    <g id="line2d_35">
     <path d="M 197.323438 58.247246 
L 211.323438 58.247246 
L 225.323438 58.247246 
" style="fill: none; stroke-dasharray: 3.7,1.6; stroke-dashoffset: 0; stroke: #b64342"/>
    </g>
    <g id="text_15">
     <text style="font-size: 14px; font-family: 'Arial', 'DejaVu Sans', 'Liberation Sans', sans-serif; text-anchor: start" x="236.523438" y="63.147246" transform="rotate(-0 236.523438 63.147246)">Macropore peak</text>
    </g>
   </g>
  </g>
  <g id="axes_2">
   <g id="patch_5">
    <path d="M 413.298672 376.835039 
L 704.88 376.835039 
L 704.88 20.216191 
L 413.298672 20.216191 
z
" style="fill: #ffffff"/>
   </g>
   <g id="matplotlib.axis_3">
    <g id="xtick_22">
     <g id="line2d_36">
      <g>
       <use xlink:href="#m74c8b06235" x="466.449971" y="376.835039" style="stroke: #000000; stroke-width: 0.8"/>
      </g>
     </g>
     <g id="text_16">
      <!-- $\mathdefault{10^{0}}$ -->
      <g transform="translate(455.669971 396.715039)">
       <text>
        <tspan x="0" y="-0.17425" style="font-size: 14px; font-family: 'Arial'">1</tspan>
        <tspan x="7.786133" y="-0.17425" style="font-size: 14px; font-family: 'Arial'">0</tspan>
        <tspan x="15.70625" y="-5.95625" style="font-size: 9.8px; font-family: 'Arial'">0</tspan>
       </text>
      </g>
     </g>
    </g>
    <g id="xtick_23">
     <g id="line2d_37">
      <g>
       <use xlink:href="#m74c8b06235" x="598.986939" y="376.835039" style="stroke: #000000; stroke-width: 0.8"/>
      </g>
     </g>
     <g id="text_17">
      <!-- $\mathdefault{10^{1}}$ -->
      <g transform="translate(588.206939 396.715039)">
       <text>
        <tspan x="0" y="-0.17425" style="font-size: 14px; font-family: 'Arial'">1</tspan>
        <tspan x="7.786133" y="-0.17425" style="font-size: 14px; font-family: 'Arial'">0</tspan>
        <tspan x="15.70625" y="-5.95625" style="font-size: 9.8px; font-family: 'Arial'">1</tspan>
       </text>
      </g>
     </g>
    </g>
    <g id="xtick_24">
     <g id="line2d_38">
      <g>
       <use xlink:href="#m54c3fa038d" x="413.708209" y="376.835039" style="stroke: #000000; stroke-width: 0.6"/>
      </g>
     </g>
    </g>
    <g id="xtick_25">
     <g id="line2d_39">
      <g>
       <use xlink:href="#m54c3fa038d" x="426.552369" y="376.835039" style="stroke: #000000; stroke-width: 0.6"/>
      </g>
     </g>
    </g>
    <g id="xtick_26">
     <g id="line2d_40">
      <g>
       <use xlink:href="#m54c3fa038d" x="437.046811" y="376.835039" style="stroke: #000000; stroke-width: 0.6"/>
      </g>
     </g>
    </g>
    <g id="xtick_27">
     <g id="line2d_41">
      <g>
       <use xlink:href="#m54c3fa038d" x="445.919735" y="376.835039" style="stroke: #000000; stroke-width: 0.6"/>
      </g>
     </g>
    </g>
    <g id="xtick_28">
     <g id="line2d_42">
      <g>
       <use xlink:href="#m54c3fa038d" x="453.605812" y="376.835039" style="stroke: #000000; stroke-width: 0.6"/>
      </g>
     </g>
    </g>
    <g id="xtick_29">
     <g id="line2d_43">
      <g>
       <use xlink:href="#m54c3fa038d" x="460.385412" y="376.835039" style="stroke: #000000; stroke-width: 0.6"/>
      </g>
     </g>
    </g>
    <g id="xtick_30">
     <g id="line2d_44">
      <g>
       <use xlink:href="#m54c3fa038d" x="506.347574" y="376.835039" style="stroke: #000000; stroke-width: 0.6"/>
      </g>
     </g>
    </g>
    <g id="xtick_31">
     <g id="line2d_45">
      <g>
       <use xlink:href="#m54c3fa038d" x="529.686175" y="376.835039" style="stroke: #000000; stroke-width: 0.6"/>
      </g>
     </g>
    </g>
    <g id="xtick_32">
     <g id="line2d_46">
      <g>
       <use xlink:href="#m54c3fa038d" x="546.245177" y="376.835039" style="stroke: #000000; stroke-width: 0.6"/>
      </g>
     </g>
    </g>
    <g id="xtick_33">
     <g id="line2d_47">
      <g>
       <use xlink:href="#m54c3fa038d" x="559.089336" y="376.835039" style="stroke: #000000; stroke-width: 0.6"/>
      </g>
     </g>
    </g>
    <g id="xtick_34">
     <g id="line2d_48">
      <g>
       <use xlink:href="#m54c3fa038d" x="569.583778" y="376.835039" style="stroke: #000000; stroke-width: 0.6"/>
      </g>
     </g>
    </g>
    <g id="xtick_35">
     <g id="line2d_49">
      <g>
       <use xlink:href="#m54c3fa038d" x="578.456703" y="376.835039" style="stroke: #000000; stroke-width: 0.6"/>
      </g>
     </g>
    </g>
    <g id="xtick_36">
     <g id="line2d_50">
      <g>
       <use xlink:href="#m54c3fa038d" x="586.142779" y="376.835039" style="stroke: #000000; stroke-width: 0.6"/>
      </g>
     </g>
    </g>
    <g id="xtick_37">
     <g id="line2d_51">
      <g>
       <use xlink:href="#m54c3fa038d" x="592.92238" y="376.835039" style="stroke: #000000; stroke-width: 0.6"/>
      </g>
     </g>
    </g>
    <g id="xtick_38">
     <g id="line2d_52">
      <g>
       <use xlink:href="#m54c3fa038d" x="638.884541" y="376.835039" style="stroke: #000000; stroke-width: 0.6"/>
      </g>
     </g>
    </g>
    <g id="xtick_39">
     <g id="line2d_53">
      <g>
       <use xlink:href="#m54c3fa038d" x="662.223143" y="376.835039" style="stroke: #000000; stroke-width: 0.6"/>
      </g>
     </g>
    </g>
    <g id="xtick_40">
     <g id="line2d_54">
      <g>
       <use xlink:href="#m54c3fa038d" x="678.782144" y="376.835039" style="stroke: #000000; stroke-width: 0.6"/>
      </g>
     </g>
    </g>
    <g id="xtick_41">
     <g id="line2d_55">
      <g>
       <use xlink:href="#m54c3fa038d" x="691.626303" y="376.835039" style="stroke: #000000; stroke-width: 0.6"/>
      </g>
     </g>
    </g>
    <g id="xtick_42">
     <g id="line2d_56">
      <g>
       <use xlink:href="#m54c3fa038d" x="702.120745" y="376.835039" style="stroke: #000000; stroke-width: 0.6"/>
      </g>
     </g>
    </g>
    <g id="text_18">
     <text style="font-size: 14px; font-family: 'Arial', 'DejaVu Sans', 'Liberation Sans', sans-serif; text-anchor: middle" x="559.089336" y="413.853711" transform="rotate(-0 559.089336 413.853711)">Pore diameter (nm)</text>
    </g>
   </g>
   <g id="matplotlib.axis_4">
    <g id="ytick_10">
     <g id="line2d_57">
      <g>
       <use xlink:href="#m5fad24cf1a" x="413.298672" y="376.835039" style="stroke: #000000; stroke-width: 0.8"/>
      </g>
     </g>
     <g id="text_19">
      <text style="font-size: 14px; font-family: 'Arial', 'DejaVu Sans', 'Liberation Sans', sans-serif; text-anchor: end" x="406.298672" y="381.93123" transform="rotate(-0 406.298672 381.93123)">0</text>
     </g>
    </g>
    <g id="ytick_11">
     <g id="line2d_58">
      <g>
       <use xlink:href="#m5fad24cf1a" x="413.298672" y="305.51127" style="stroke: #000000; stroke-width: 0.8"/>
      </g>
     </g>
     <g id="text_20">
      <text style="font-size: 14px; font-family: 'Arial', 'DejaVu Sans', 'Liberation Sans', sans-serif; text-anchor: end" x="406.298672" y="310.607461" transform="rotate(-0 406.298672 310.607461)">20</text>
     </g>
    </g>
    <g id="ytick_12">
     <g id="line2d_59">
      <g>
       <use xlink:href="#m5fad24cf1a" x="413.298672" y="234.1875" style="stroke: #000000; stroke-width: 0.8"/>
      </g>
     </g>
     <g id="text_21">
      <text style="font-size: 14px; font-family: 'Arial', 'DejaVu Sans', 'Liberation Sans', sans-serif; text-anchor: end" x="406.298672" y="239.283691" transform="rotate(-0 406.298672 239.283691)">40</text>
     </g>
    </g>
    <g id="ytick_13">
     <g id="line2d_60">
      <g>
       <use xlink:href="#m5fad24cf1a" x="413.298672" y="162.86373" style="stroke: #000000; stroke-width: 0.8"/>
      </g>
     </g>
     <g id="text_22">
      <text style="font-size: 14px; font-family: 'Arial', 'DejaVu Sans', 'Liberation Sans', sans-serif; text-anchor: end" x="406.298672" y="167.959922" transform="rotate(-0 406.298672 167.959922)">60</text>
     </g>
    </g>
    <g id="ytick_14">
     <g id="line2d_61">
      <g>
       <use xlink:href="#m5fad24cf1a" x="413.298672" y="91.539961" style="stroke: #000000; stroke-width: 0.8"/>
      </g>
     </g>
     <g id="text_23">
      <text style="font-size: 14px; font-family: 'Arial', 'DejaVu Sans', 'Liberation Sans', sans-serif; text-anchor: end" x="406.298672" y="96.636152" transform="rotate(-0 406.298672 96.636152)">80</text>
     </g>
    </g>
    <g id="ytick_15">
     <g id="line2d_62">
      <g>
       <use xlink:href="#m5fad24cf1a" x="413.298672" y="20.216191" style="stroke: #000000; stroke-width: 0.8"/>
      </g>
     </g>
     <g id="text_24">
      <text style="font-size: 14px; font-family: 'Arial', 'DejaVu Sans', 'Liberation Sans', sans-serif; text-anchor: end" x="406.298672" y="25.312383" transform="rotate(-0 406.298672 25.312383)">100</text>
     </g>
    </g>
    <g id="text_25">
     <text style="font-size: 14px; font-family: 'Arial', 'DejaVu Sans', 'Liberation Sans', sans-serif; text-anchor: middle" x="375.996172" y="198.525615" transform="rotate(-90 375.996172 198.525615)">Cumulative pore volume (%)</text>
    </g>
   </g>
   <g id="line2d_63">
    <path d="M 426.552369 376.808916 
L 449.794474 376.844165 
L 466.305166 376.730312 
L 489.595418 376.20921 
L 498.454521 375.44723 
L 506.130229 373.860116 
L 512.901764 371.174568 
L 518.95987 366.973423 
L 524.44065 361.094464 
L 529.444631 353.449336 
L 534.048171 344.573434 
L 538.310639 335.247078 
L 542.279107 326.24636 
L 545.991528 318.444411 
L 549.478949 312.352545 
L 552.767093 307.925709 
L 555.877507 305.112411 
L 558.828424 303.363949 
L 561.635405 302.454258 
L 564.311843 302.018107 
L 569.318023 301.701807 
L 584.044098 301.54004 
L 585.87097 301.397599 
L 592.648552 301.362392 
L 595.759815 301.229468 
L 600.132451 301.13617 
L 609.203517 300.354687 
L 612.692362 299.812181 
L 617.037753 298.926006 
L 620.094212 298.018509 
L 624.853158 295.654295 
L 626.651773 294.328433 
L 628.395884 292.733535 
L 630.088698 291.021207 
L 632.538081 287.882366 
L 634.11495 285.487573 
L 635.649769 282.584663 
L 637.877889 277.545174 
L 639.316784 273.67079 
L 641.409852 267.100589 
L 642.764108 262.22213 
L 644.737562 253.890844 
L 646.645593 244.418333 
L 648.492399 234.053036 
L 650.281788 222.957515 
L 652.017223 210.837378 
L 654.252627 193.400157 
L 656.404453 175.31932 
L 661.456376 129.3237 
L 664.287535 103.564379 
L 666.544903 84.547602 
L 668.717074 68.413959 
L 671.219897 52.515206 
L 672.431647 46.365124 
L 673.618412 41.070165 
L 675.163637 35.2642 
L 676.295928 31.998825 
L 677.771812 28.363767 
L 678.495802 26.931684 
L 680.266911 24.390881 
L 680.960372 23.629247 
L 681.645578 22.918819 
L 682.991994 21.995821 
L 683.653573 21.748587 
L 684.307634 21.534962 
L 684.954347 21.211202 
L 688.08321 20.44201 
L 688.386942 20.494808 
L 689.288637 20.246605 
L 691.626303 20.216191 
L 691.626303 20.216191 
" clip-path="url(#pd0c46d674c)" style="fill: none; stroke: #e07c3e; stroke-width: 2.2; stroke-linecap: square"/>
   </g>
   <g id="patch_6">
    <path d="M 413.298672 376.835039 
L 413.298672 20.216191 
" style="fill: none; stroke: #000000; stroke-width: 1.8; stroke-linejoin: miter; stroke-linecap: square"/>
   </g>
   <g id="patch_7">
    <path d="M 413.298672 376.835039 
L 704.88 376.835039 
" style="fill: none; stroke: #000000; stroke-width: 1.8; stroke-linejoin: miter; stroke-linecap: square"/>
   </g>
  </g>
 </g>
 <defs>
  <clipPath id="p513f3cb9af">
   <rect x="58.698672" y="20.216191" width="291.581328" height="356.618848"/>
  </clipPath>
  <clipPath id="pd0c46d674c">
   <rect x="413.298672" y="20.216191" width="291.581328" height="356.618848"/>
  </clipPath>
 </defs>
</svg>
