<?xml version="1.0" encoding="utf-8" standalone="no"?>
<!DOCTYPE svg PUBLIC "-//W3C//DTD SVG 1.1//EN"
  "http://www.w3.org/Graphics/SVG/1.1/DTD/svg11.dtd">
<svg xmlns:xlink="http://www.w3.org/1999/xlink" width="576pt" height="324pt" viewBox="0 0 576 324" xmlns="http://www.w3.org/2000/svg" version="1.1">
 <metadata>
  <rdf:RDF xmlns:dc="http://purl.org/dc/elements/1.1/" xmlns:cc="http://creativecommons.org/ns#" xmlns:rdf="http://www.w3.org/1999/02/22-rdf-syntax-ns#">
   <cc:Work>
    <dc:type rdf:resource="http://purl.org/dc/dcmitype/StillImage"/>
    <dc:date>2026-06-20T18:10:34.746651</dc:date>
    <dc:format>image/svg+xml</dc:format>
    <dc:creator>
     <cc:Agent>
      <dc:title>Matplotlib v3.11.0, https://matplotlib.org/</dc:title>
     </cc:Agent>
    </dc:creator>
   </cc:Work>
  </rdf:RDF>
 </metadata>
 <defs>
  <style type="text/css">*{stroke-linejoin: round; stroke-linecap: butt}</style>
 </defs>
 <g id="figure_1">
  <g id="patch_1">
   <path d="M 0 324 
L 576 324 
L 576 0 
L 0 0 
z
" style="fill: #ffffff"/>
  </g>
  <g id="axes_1">
   <g id="patch_2">
    <path d="M 80.6112 216.555429 
C 92.19018 216.555429 103.296473 213.018011 111.484048 206.72225 
C 119.671623 200.426489 124.272 191.886407 124.272 182.982857 
C 124.272 174.079307 119.671623 165.539225 111.484048 159.243464 
C 103.296473 152.947704 92.19018 149.410286 80.6112 149.410286 
C 69.03222 149.410286 57.925927 152.947704 49.738352 159.243464 
C 41.550777 165.539225 36.9504 174.079307 36.9504 182.982857 
C 36.9504 191.886407 41.550777 200.426489 49.738352 206.72225 
C 57.925927 213.018011 69.03222 216.555429 80.6112 216.555429 
z
" clip-path="url(#pde01cf0ade)" style="fill: #b64342; opacity: 0.85; stroke: #b64342; stroke-linejoin: miter"/>
   </g>
   <g id="patch_3">
    <path d="M 315.288 216.555429 
L 424.44 216.555429 
L 424.44 149.410286 
L 315.288 149.410286 
z
" clip-path="url(#pde01cf0ade)" style="fill: #3775ba; opacity: 0.85; stroke: #3775ba; stroke-linejoin: miter"/>
   </g>
   <g id="text_1">
    <text style="font-weight: 700; font-size: 22px; font-family: 'Arial', 'DejaVu Sans', 'Liberation Sans', sans-serif; text-anchor: middle; fill: #ffffff" x="80.6112" y="188.676217" transform="rotate(-0 80.6112 188.676217)">?</text>
   </g>
   <g id="text_2">
    <text style="font-size: 11px; font-family: 'Arial', 'DejaVu Sans', 'Liberation Sans', sans-serif; text-anchor: middle" x="80.6112" y="275.307429" transform="rotate(-0 80.6112 275.307429)">Challenge</text>
   </g>
   <g id="patch_4">
    <path d="M 137.187831 182.982857 
Q 211.592889 182.982857 282.643844 182.982857 
" style="fill: none; stroke: #3775ba; stroke-width: 3; stroke-linecap: round"/>
    <path d="M 277.043844 180.182857 
L 282.643844 182.982857 
L 277.043844 185.782857 
" style="fill: none; stroke: #3775ba; stroke-width: 3; stroke-linecap: round"/>
   </g>
   <g id="text_3">
    <text style="font-size: 10px; font-family: 'Arial', 'DejaVu Sans', 'Liberation Sans', sans-serif; fill: #3775ba" transform="translate(170.749069 121.740211)">mechanism-driven</text>
    <text style="font-size: 10px; font-family: 'Arial', 'DejaVu Sans', 'Liberation Sans', sans-serif; fill: #3775ba" transform="translate(175.189694 132.624)">materials design</text>
   </g>
   <g id="text_4">
    <text style="font-weight: 700; font-size: 11px; font-family: 'Arial', 'DejaVu Sans', 'Liberation Sans', sans-serif; fill: #ffffff" transform="translate(353.050328 179.843345)">↑ 35 %</text>
    <text style="font-weight: 700; font-size: 11px; font-family: 'Arial', 'DejaVu Sans', 'Liberation Sans', sans-serif; fill: #ffffff" transform="translate(347.865719 191.815513)">strength</text>
   </g>
   <g id="text_5">
    <text style="font-size: 11px; font-family: 'Arial', 'DejaVu Sans', 'Liberation Sans', sans-serif; text-anchor: middle" x="369.864" y="275.307429" transform="rotate(-0 369.864 275.307429)">Outcome</text>
   </g>
   <g id="text_6">
    <text style="font-weight: 700; font-size: 14px; font-family: 'Arial', 'DejaVu Sans', 'Liberation Sans', sans-serif; text-anchor: middle" x="288" y="36.102857" transform="rotate(-0 288 36.102857)">Graphical abstract template</text>
   </g>
  </g>
 </g>
 <defs>
  <clipPath id="pde01cf0ade">
   <rect x="15.12" y="15.12" width="545.76" height="293.76"/>
  </clipPath>
 </defs>
</svg>
