<?xml version="1.0" encoding="utf-8" standalone="no"?>
<!DOCTYPE svg PUBLIC "-//W3C//DTD SVG 1.1//EN"
  "http://www.w3.org/Graphics/SVG/1.1/DTD/svg11.dtd">
<svg xmlns:xlink="http://www.w3.org/1999/xlink" width="720pt" height="432pt" viewBox="0 0 720 432" xmlns="http://www.w3.org/2000/svg" version="1.1">
 <metadata>
  <rdf:RDF xmlns:dc="http://purl.org/dc/elements/1.1/" xmlns:cc="http://creativecommons.org/ns#" xmlns:rdf="http://www.w3.org/1999/02/22-rdf-syntax-ns#">
   <cc:Work>
    <dc:type rdf:resource="http://purl.org/dc/dcmitype/StillImage"/>
    <dc:date>2026-06-20T18:10:33.553235</dc:date>
    <dc:format>image/svg+xml</dc:format>
    <dc:creator>
     <cc:Agent>
      <dc:title>Matplotlib v3.11.0, https://matplotlib.org/</dc:title>
     </cc:Agent>
    </dc:creator>
   </cc:Work>
  </rdf:RDF>
 </metadata>
 <defs>
  <style type="text/css">*{stroke-linejoin: round; stroke-linecap: butt}</style>
 </defs>
 <g id="figure_1">
  <g id="patch_1">
   <path d="M 0 432 
L 720 432 
L 720 0 
L 0 0 
z
" style="fill: #ffffff"/>
  </g>
  <g id="axes_1">
   <g id="patch_2">
    <path d="M 70.938672 261.310006 
L 332.450664 261.310006 
L 332.450664 130.645033 
L 70.938672 130.645033 
z
" style="fill: #ffffff"/>
   </g>
   <g id="matplotlib.axis_1">
    <g id="xtick_1">
     <g id="line2d_1">
      <defs>
       <path id="mef5d4ca17e" d="M 0 0 
L 0 3.5 
" style="stroke: #000000; stroke-width: 0.8"/>
      </defs>
      <g>
       <use xlink:href="#mef5d4ca17e" x="120.467468" y="261.310006" style="stroke: #000000; stroke-width: 0.8"/>
      </g>
     </g>
     <g id="text_1">
      <text style="font-size: 14px; font-family: 'Arial', 'DejaVu Sans', 'Liberation Sans', sans-serif; text-anchor: middle" x="120.467468" y="278.502389" transform="rotate(-0 120.467468 278.502389)">50</text>
     </g>
    </g>
    <g id="xtick_2">
     <g id="line2d_2">
      <g>
       <use xlink:href="#mef5d4ca17e" x="169.996275" y="261.310006" style="stroke: #000000; stroke-width: 0.8"/>
      </g>
     </g>
     <g id="text_2">
      <text style="font-size: 14px; font-family: 'Arial', 'DejaVu Sans', 'Liberation Sans', sans-serif; text-anchor: middle" x="169.996275" y="278.502389" transform="rotate(-0 169.996275 278.502389)">100</text>
     </g>
    </g>
    <g id="xtick_3">
     <g id="line2d_3">
      <g>
       <use xlink:href="#mef5d4ca17e" x="219.525082" y="261.310006" style="stroke: #000000; stroke-width: 0.8"/>
      </g>
     </g>
     <g id="text_3">
      <text style="font-size: 14px; font-family: 'Arial', 'DejaVu Sans', 'Liberation Sans', sans-serif; text-anchor: middle" x="219.525082" y="278.502389" transform="rotate(-0 219.525082 278.502389)">150</text>
     </g>
    </g>
    <g id="xtick_4">
     <g id="line2d_4">
      <g>
       <use xlink:href="#mef5d4ca17e" x="269.05389" y="261.310006" style="stroke: #000000; stroke-width: 0.8"/>
      </g>
     </g>
     <g id="text_4">
      <text style="font-size: 14px; font-family: 'Arial', 'DejaVu Sans', 'Liberation Sans', sans-serif; text-anchor: middle" x="269.05389" y="278.502389" transform="rotate(-0 269.05389 278.502389)">200</text>
     </g>
    </g>
    <g id="xtick_5">
     <g id="line2d_5">
      <g>
       <use xlink:href="#mef5d4ca17e" x="318.582697" y="261.310006" style="stroke: #000000; stroke-width: 0.8"/>
      </g>
     </g>
     <g id="text_5">
      <text style="font-size: 14px; font-family: 'Arial', 'DejaVu Sans', 'Liberation Sans', sans-serif; text-anchor: middle" x="318.582697" y="278.502389" transform="rotate(-0 318.582697 278.502389)">250</text>
     </g>
    </g>
    <g id="text_6">
     <text style="font-size: 14px; font-family: 'Arial', 'DejaVu Sans', 'Liberation Sans', sans-serif; text-anchor: middle" x="201.694668" y="295.641061" transform="rotate(-0 201.694668 295.641061)">Z' (Ω)</text>
    </g>
   </g>
   <g id="matplotlib.axis_2">
    <g id="ytick_1">
     <g id="line2d_6">
      <defs>
       <path id="m3f520dabf1" d="M 0 0 
L -3.5 0 
" style="stroke: #000000; stroke-width: 0.8"/>
      </defs>
      <g>
       <use xlink:href="#m3f520dabf1" x="70.938672" y="235.604127" style="stroke: #000000; stroke-width: 0.8"/>
      </g>
     </g>
     <g id="text_7">
      <text style="font-size: 14px; font-family: 'Arial', 'DejaVu Sans', 'Liberation Sans', sans-serif; text-anchor: end" x="63.938672" y="240.700318" transform="rotate(-0 63.938672 240.700318)">−100</text>
     </g>
    </g>
    <g id="ytick_2">
     <g id="line2d_7">
      <g>
       <use xlink:href="#m3f520dabf1" x="70.938672" y="186.07532" style="stroke: #000000; stroke-width: 0.8"/>
      </g>
     </g>
     <g id="text_8">
      <text style="font-size: 14px; font-family: 'Arial', 'DejaVu Sans', 'Liberation Sans', sans-serif; text-anchor: end" x="63.938672" y="191.171511" transform="rotate(-0 63.938672 191.171511)">−50</text>
     </g>
    </g>
    <g id="ytick_3">
     <g id="line2d_8">
      <g>
       <use xlink:href="#m3f520dabf1" x="70.938672" y="136.546512" style="stroke: #000000; stroke-width: 0.8"/>
      </g>
     </g>
     <g id="text_9">
      <text style="font-size: 14px; font-family: 'Arial', 'DejaVu Sans', 'Liberation Sans', sans-serif; text-anchor: end" x="63.938672" y="141.642704" transform="rotate(-0 63.938672 141.642704)">0</text>
     </g>
    </g>
    <g id="text_10">
     <text style="font-size: 14px; font-family: 'Arial', 'DejaVu Sans', 'Liberation Sans', sans-serif; text-anchor: middle" x="25.459297" y="195.97752" transform="rotate(-90 25.459297 195.97752)">-Z'' (Ω)</text>
    </g>
   </g>
   <g id="line2d_9">
    <defs>
     <path id="m0ea63f73f3" d="M 0 2 
C 0.530406 2 1.03916 1.789267 1.414214 1.414214 
C 1.789267 1.03916 2 0.530406 2 0 
C 2 -0.530406 1.789267 -1.03916 1.414214 -1.414214 
C 1.03916 -1.789267 0.530406 -2 0 -2 
C -0.530406 -2 -1.03916 -1.789267 -1.414214 -1.414214 
C -1.789267 -1.03916 -2 -0.530406 -2 0 
C -2 0.530406 -1.789267 1.03916 -1.414214 1.414214 
C -1.03916 1.789267 -0.530406 2 0 2 
z
" style="stroke: #3775ba"/>
    </defs>
    <g clip-path="url(#pfc44bd1bfc)">
     <use xlink:href="#m0ea63f73f3" x="320.563755" y="136.695888" style="fill: #3775ba; stroke: #3775ba"/>
     <use xlink:href="#m0ea63f73f3" x="320.563708" y="136.729696" style="fill: #3775ba; stroke: #3775ba"/>
     <use xlink:href="#m0ea63f73f3" x="320.563637" y="136.771156" style="fill: #3775ba; stroke: #3775ba"/>
     <use xlink:href="#m0ea63f73f3" x="320.56353" y="136.822" style="fill: #3775ba; stroke: #3775ba"/>
     <use xlink:href="#m0ea63f73f3" x="320.563369" y="136.88435" style="fill: #3775ba; stroke: #3775ba"/>
     <use xlink:href="#m0ea63f73f3" x="320.563127" y="136.960813" style="fill: #3775ba; stroke: #3775ba"/>
     <use xlink:href="#m0ea63f73f3" x="320.562763" y="137.054581" style="fill: #3775ba; stroke: #3775ba"/>
     <use xlink:href="#m0ea63f73f3" x="320.562216" y="137.169571" style="fill: #3775ba; stroke: #3775ba"/>
     <use xlink:href="#m0ea63f73f3" x="320.561393" y="137.310586" style="fill: #3775ba; stroke: #3775ba"/>
     <use xlink:href="#m0ea63f73f3" x="320.560156" y="137.483515" style="fill: #3775ba; stroke: #3775ba"/>
     <use xlink:href="#m0ea63f73f3" x="320.558295" y="137.695578" style="fill: #3775ba; stroke: #3775ba"/>
     <use xlink:href="#m0ea63f73f3" x="320.555497" y="137.95563" style="fill: #3775ba; stroke: #3775ba"/>
     <use xlink:href="#m0ea63f73f3" x="320.551288" y="138.274526" style="fill: #3775ba; stroke: #3775ba"/>
     <use xlink:href="#m0ea63f73f3" x="320.54496" y="138.665572" style="fill: #3775ba; stroke: #3775ba"/>
     <use xlink:href="#m0ea63f73f3" x="320.535443" y="139.145076" style="fill: #3775ba; stroke: #3775ba"/>
     <use xlink:href="#m0ea63f73f3" x="320.521131" y="139.733019" style="fill: #3775ba; stroke: #3775ba"/>
     <use xlink:href="#m0ea63f73f3" x="320.499612" y="140.45387" style="fill: #3775ba; stroke: #3775ba"/>
     <use xlink:href="#m0ea63f73f3" x="320.467257" y="141.337572" style="fill: #3775ba; stroke: #3775ba"/>
     <use xlink:href="#m0ea63f73f3" x="320.418616" y="142.420734" style="fill: #3775ba; stroke: #3775ba"/>
     <use xlink:href="#m0ea63f73f3" x="320.345502" y="143.748033" style="fill: #3775ba; stroke: #3775ba"/>
     <use xlink:href="#m0ea63f73f3" x="320.235631" y="145.373873" style="fill: #3775ba; stroke: #3775ba"/>
     <use xlink:href="#m0ea63f73f3" x="320.070589" y="147.36425" style="fill: #3775ba; stroke: #3775ba"/>
     <use xlink:href="#m0ea63f73f3" x="319.822817" y="149.798782" style="fill: #3775ba; stroke: #3775ba"/>
     <use xlink:href="#m0ea63f73f3" x="319.451168" y="152.772692" style="fill: #3775ba; stroke: #3775ba"/>
     <use xlink:href="#m0ea63f73f3" x="318.894439" y="156.398357" style="fill: #3775ba; stroke: #3775ba"/>
     <use xlink:href="#m0ea63f73f3" x="318.062097" y="160.805602" style="fill: #3775ba; stroke: #3775ba"/>
     <use xlink:href="#m0ea63f73f3" x="316.821342" y="166.139263" style="fill: #3775ba; stroke: #3775ba"/>
     <use xlink:href="#m0ea63f73f3" x="314.979835" y="172.551411" style="fill: #3775ba; stroke: #3775ba"/>
     <use xlink:href="#m0ea63f73f3" x="312.26435" y="180.18396" style="fill: #3775ba; stroke: #3775ba"/>
     <use xlink:href="#m0ea63f73f3" x="308.298106" y="189.135373" style="fill: #3775ba; stroke: #3775ba"/>
     <use xlink:href="#m0ea63f73f3" x="302.58496" y="199.403729" style="fill: #3775ba; stroke: #3775ba"/>
     <use xlink:href="#m0ea63f73f3" x="294.518138" y="210.800694" style="fill: #3775ba; stroke: #3775ba"/>
     <use xlink:href="#m0ea63f73f3" x="283.443248" y="222.842797" style="fill: #3775ba; stroke: #3775ba"/>
     <use xlink:href="#m0ea63f73f3" x="268.810473" y="234.655362" style="fill: #3775ba; stroke: #3775ba"/>
     <use xlink:href="#m0ea63f73f3" x="250.426129" y="244.967547" style="fill: #3775ba; stroke: #3775ba"/>
     <use xlink:href="#m0ea63f73f3" x="228.735573" y="252.299109" style="fill: #3775ba; stroke: #3775ba"/>
     <use xlink:href="#m0ea63f73f3" x="204.963778" y="255.370689" style="fill: #3775ba; stroke: #3775ba"/>
     <use xlink:href="#m0ea63f73f3" x="180.927393" y="253.587489" style="fill: #3775ba; stroke: #3775ba"/>
     <use xlink:href="#m0ea63f73f3" x="158.523766" y="247.299125" style="fill: #3775ba; stroke: #3775ba"/>
     <use xlink:href="#m0ea63f73f3" x="139.171926" y="237.644352" style="fill: #3775ba; stroke: #3775ba"/>
     <use xlink:href="#m0ea63f73f3" x="123.524709" y="226.097182" style="fill: #3775ba; stroke: #3775ba"/>
     <use xlink:href="#m0ea63f73f3" x="111.534954" y="214.013214" style="fill: #3775ba; stroke: #3775ba"/>
     <use xlink:href="#m0ea63f73f3" x="102.72068" y="202.379732" style="fill: #3775ba; stroke: #3775ba"/>
     <use xlink:href="#m0ea63f73f3" x="96.436332" y="191.778253" style="fill: #3775ba; stroke: #3775ba"/>
     <use xlink:href="#m0ea63f73f3" x="92.052963" y="182.465558" style="fill: #3775ba; stroke: #3775ba"/>
     <use xlink:href="#m0ea63f73f3" x="89.042111" y="174.484137" style="fill: #3775ba; stroke: #3775ba"/>
     <use xlink:href="#m0ea63f73f3" x="86.995757" y="167.75583" style="fill: #3775ba; stroke: #3775ba"/>
     <use xlink:href="#m0ea63f73f3" x="85.614904" y="162.146318" style="fill: #3775ba; stroke: #3775ba"/>
     <use xlink:href="#m0ea63f73f3" x="84.687642" y="157.504024" style="fill: #3775ba; stroke: #3775ba"/>
     <use xlink:href="#m0ea63f73f3" x="84.067002" y="153.681087" style="fill: #3775ba; stroke: #3775ba"/>
     <use xlink:href="#m0ea63f73f3" x="83.652501" y="150.543232" style="fill: #3775ba; stroke: #3775ba"/>
     <use xlink:href="#m0ea63f73f3" x="83.376075" y="147.973325" style="fill: #3775ba; stroke: #3775ba"/>
     <use xlink:href="#m0ea63f73f3" x="83.191911" y="145.871636" style="fill: #3775ba; stroke: #3775ba"/>
     <use xlink:href="#m0ea63f73f3" x="83.069293" y="144.154526" style="fill: #3775ba; stroke: #3775ba"/>
     <use xlink:href="#m0ea63f73f3" x="82.987689" y="142.752528" style="fill: #3775ba; stroke: #3775ba"/>
     <use xlink:href="#m0ea63f73f3" x="82.933396" y="141.608307" style="fill: #3775ba; stroke: #3775ba"/>
     <use xlink:href="#m0ea63f73f3" x="82.897281" y="140.674733" style="fill: #3775ba; stroke: #3775ba"/>
     <use xlink:href="#m0ea63f73f3" x="82.87326" y="139.913172" style="fill: #3775ba; stroke: #3775ba"/>
     <use xlink:href="#m0ea63f73f3" x="82.857285" y="139.292008" style="fill: #3775ba; stroke: #3775ba"/>
     <use xlink:href="#m0ea63f73f3" x="82.846661" y="138.785402" style="fill: #3775ba; stroke: #3775ba"/>
     <use xlink:href="#m0ea63f73f3" x="82.839596" y="138.372248" style="fill: #3775ba; stroke: #3775ba"/>
     <use xlink:href="#m0ea63f73f3" x="82.834898" y="138.035321" style="fill: #3775ba; stroke: #3775ba"/>
     <use xlink:href="#m0ea63f73f3" x="82.831775" y="137.760564" style="fill: #3775ba; stroke: #3775ba"/>
     <use xlink:href="#m0ea63f73f3" x="82.829697" y="137.536508" style="fill: #3775ba; stroke: #3775ba"/>
     <use xlink:href="#m0ea63f73f3" x="82.828316" y="137.3538" style="fill: #3775ba; stroke: #3775ba"/>
     <use xlink:href="#m0ea63f73f3" x="82.827397" y="137.20481" style="fill: #3775ba; stroke: #3775ba"/>
     <use xlink:href="#m0ea63f73f3" x="82.826787" y="137.083317" style="fill: #3775ba; stroke: #3775ba"/>
     <use xlink:href="#m0ea63f73f3" x="82.826381" y="136.984245" style="fill: #3775ba; stroke: #3775ba"/>
     <use xlink:href="#m0ea63f73f3" x="82.826111" y="136.903458" style="fill: #3775ba; stroke: #3775ba"/>
     <use xlink:href="#m0ea63f73f3" x="82.825931" y="136.837581" style="fill: #3775ba; stroke: #3775ba"/>
     <use xlink:href="#m0ea63f73f3" x="82.825812" y="136.783861" style="fill: #3775ba; stroke: #3775ba"/>
     <use xlink:href="#m0ea63f73f3" x="82.825732" y="136.740056" style="fill: #3775ba; stroke: #3775ba"/>
     <use xlink:href="#m0ea63f73f3" x="82.825679" y="136.704336" style="fill: #3775ba; stroke: #3775ba"/>
     <use xlink:href="#m0ea63f73f3" x="82.825644" y="136.675208" style="fill: #3775ba; stroke: #3775ba"/>
     <use xlink:href="#m0ea63f73f3" x="82.825621" y="136.651456" style="fill: #3775ba; stroke: #3775ba"/>
     <use xlink:href="#m0ea63f73f3" x="82.825605" y="136.632088" style="fill: #3775ba; stroke: #3775ba"/>
     <use xlink:href="#m0ea63f73f3" x="82.825595" y="136.616294" style="fill: #3775ba; stroke: #3775ba"/>
     <use xlink:href="#m0ea63f73f3" x="82.825588" y="136.603415" style="fill: #3775ba; stroke: #3775ba"/>
     <use xlink:href="#m0ea63f73f3" x="82.825584" y="136.592913" style="fill: #3775ba; stroke: #3775ba"/>
     <use xlink:href="#m0ea63f73f3" x="82.825581" y="136.58435" style="fill: #3775ba; stroke: #3775ba"/>
    </g>
   </g>
   <g id="line2d_10">
    <path d="M 320.563755 136.695888 
L 320.563708 136.729696 
L 320.563637 136.771156 
L 320.56353 136.822 
L 320.563369 136.88435 
L 320.563127 136.960813 
L 320.562763 137.054581 
L 320.562216 137.169571 
L 320.561393 137.310586 
L 320.560156 137.483515 
L 320.558295 137.695578 
L 320.555497 137.95563 
L 320.551288 138.274526 
L 320.54496 138.665572 
L 320.535443 139.145076 
L 320.521131 139.733019 
L 320.499612 140.45387 
L 320.467257 141.337572 
L 320.418616 142.420734 
L 320.345502 143.748033 
L 320.235631 145.373873 
L 320.070589 147.36425 
L 319.822817 149.798782 
L 319.451168 152.772692 
L 318.894439 156.398357 
L 318.062097 160.805602 
L 316.821342 166.139263 
L 314.979835 172.551411 
L 312.26435 180.18396 
L 308.298106 189.135373 
L 302.58496 199.403729 
L 294.518138 210.800694 
L 283.443248 222.842797 
L 268.810473 234.655362 
L 250.426129 244.967547 
L 228.735573 252.299109 
L 204.963778 255.370689 
L 180.927393 253.587489 
L 158.523766 247.299125 
L 139.171926 237.644352 
L 123.524709 226.097182 
L 111.534954 214.013214 
L 102.72068 202.379732 
L 96.436332 191.778253 
L 92.052963 182.465558 
L 89.042111 174.484137 
L 86.995757 167.75583 
L 85.614904 162.146318 
L 84.687642 157.504024 
L 84.067002 153.681087 
L 83.652501 150.543232 
L 83.376075 147.973325 
L 83.191911 145.871636 
L 83.069293 144.154526 
L 82.987689 142.752528 
L 82.933396 141.608307 
L 82.897281 140.674733 
L 82.87326 139.913172 
L 82.857285 139.292008 
L 82.846661 138.785402 
L 82.839596 138.372248 
L 82.834898 138.035321 
L 82.831775 137.760564 
L 82.829697 137.536508 
L 82.828316 137.3538 
L 82.827397 137.20481 
L 82.826787 137.083317 
L 82.826381 136.984245 
L 82.826111 136.903458 
L 82.825931 136.837581 
L 82.825812 136.783861 
L 82.825732 136.740056 
L 82.825679 136.704336 
L 82.825644 136.675208 
L 82.825621 136.651456 
L 82.825605 136.632088 
L 82.825595 136.616294 
L 82.825588 136.603415 
L 82.825584 136.592913 
L 82.825581 136.58435 
" clip-path="url(#pfc44bd1bfc)" style="fill: none; stroke: #7aa6d4; stroke-opacity: 0.7; stroke-linecap: square"/>
   </g>
   <g id="patch_3">
    <path d="M 70.938672 261.310006 
L 70.938672 130.645033 
" style="fill: none; stroke: #000000; stroke-width: 1.8; stroke-linejoin: miter; stroke-linecap: square"/>
   </g>
   <g id="patch_4">
    <path d="M 70.938672 261.310006 
L 332.450664 261.310006 
" style="fill: none; stroke: #000000; stroke-width: 1.8; stroke-linejoin: miter; stroke-linecap: square"/>
   </g>
   <g id="legend_1">
    <g id="line2d_11">
     <g>
      <use xlink:href="#m0ea63f73f3" x="181.309355" y="148.537416" style="fill: #3775ba; stroke: #3775ba"/>
     </g>
    </g>
    <g id="text_11">
     <text style="font-size: 14px; font-family: 'Arial', 'DejaVu Sans', 'Liberation Sans', sans-serif; text-anchor: start" x="206.509355" y="153.437416" transform="rotate(-0 206.509355 153.437416)">Data</text>
    </g>
   </g>
  </g>
  <g id="axes_2">
   <g id="patch_5">
    <path d="M 395.469336 376.835039 
L 656.981328 376.835039 
L 656.981328 15.12 
L 395.469336 15.12 
z
" style="fill: #ffffff"/>
   </g>
   <g id="matplotlib.axis_3">
    <g id="xtick_6">
     <g id="line2d_12">
      <g>
       <use xlink:href="#mef5d4ca17e" x="441.318841" y="376.835039" style="stroke: #000000; stroke-width: 0.8"/>
      </g>
     </g>
     <g id="text_12">
      <!-- $\mathdefault{10^{0}}$ -->
      <g transform="translate(430.538841 396.715039)">
       <text>
        <tspan x="0" y="-0.17425" style="font-size: 14px; font-family: 'Arial'">1</tspan>
        <tspan x="7.786133" y="-0.17425" style="font-size: 14px; font-family: 'Arial'">0</tspan>
        <tspan x="15.70625" y="-5.95625" style="font-size: 9.8px; font-family: 'Arial'">0</tspan>
       </text>
      </g>
     </g>
    </g>
    <g id="xtick_7">
     <g id="line2d_13">
      <g>
       <use xlink:href="#mef5d4ca17e" x="509.244034" y="376.835039" style="stroke: #000000; stroke-width: 0.8"/>
      </g>
     </g>
     <g id="text_13">
      <!-- $\mathdefault{10^{2}}$ -->
      <g transform="translate(498.464034 396.715039)">
       <text>
        <tspan x="0" y="-0.17425" style="font-size: 14px; font-family: 'Arial'">1</tspan>
        <tspan x="7.786133" y="-0.17425" style="font-size: 14px; font-family: 'Arial'">0</tspan>
        <tspan x="15.70625" y="-5.95625" style="font-size: 9.8px; font-family: 'Arial'">2</tspan>
       </text>
      </g>
     </g>
    </g>
    <g id="xtick_8">
     <g id="line2d_14">
      <g>
       <use xlink:href="#mef5d4ca17e" x="577.169227" y="376.835039" style="stroke: #000000; stroke-width: 0.8"/>
      </g>
     </g>
     <g id="text_14">
      <!-- $\mathdefault{10^{4}}$ -->
      <g transform="translate(566.389227 396.715039)">
       <text>
        <tspan x="0" y="-0.207062" style="font-size: 14px; font-family: 'Arial'">1</tspan>
        <tspan x="7.786133" y="-0.207062" style="font-size: 14px; font-family: 'Arial'">0</tspan>
        <tspan x="15.70625" y="-5.989062" style="font-size: 9.8px; font-family: 'Arial'">4</tspan>
       </text>
      </g>
     </g>
    </g>
    <g id="xtick_9">
     <g id="line2d_15">
      <g>
       <use xlink:href="#mef5d4ca17e" x="645.094419" y="376.835039" style="stroke: #000000; stroke-width: 0.8"/>
      </g>
     </g>
     <g id="text_15">
      <!-- $\mathdefault{10^{6}}$ -->
      <g transform="translate(634.314419 396.715039)">
       <text>
        <tspan x="0" y="-0.17425" style="font-size: 14px; font-family: 'Arial'">1</tspan>
        <tspan x="7.786133" y="-0.17425" style="font-size: 14px; font-family: 'Arial'">0</tspan>
        <tspan x="15.70625" y="-5.95625" style="font-size: 9.8px; font-family: 'Arial'">6</tspan>
       </text>
      </g>
     </g>
    </g>
    <g id="text_16">
     <text style="font-size: 14px; font-family: 'Arial', 'DejaVu Sans', 'Liberation Sans', sans-serif; text-anchor: middle" x="526.225332" y="413.853711" transform="rotate(-0 526.225332 413.853711)">Frequency (Hz)</text>
    </g>
   </g>
   <g id="matplotlib.axis_4">
    <g id="ytick_4">
     <g id="line2d_16">
      <g>
       <use xlink:href="#m3f520dabf1" x="395.469336" y="308.328469" style="stroke: #000000; stroke-width: 0.8"/>
      </g>
     </g>
     <g id="text_17">
      <text style="font-size: 14px; font-family: 'Arial', 'DejaVu Sans', 'Liberation Sans', sans-serif; text-anchor: end; fill: #3775ba" x="388.469336" y="313.424661" transform="rotate(-0 388.469336 313.424661)">50</text>
     </g>
    </g>
    <g id="ytick_5">
     <g id="line2d_17">
      <g>
       <use xlink:href="#m3f520dabf1" x="395.469336" y="239.8218" style="stroke: #000000; stroke-width: 0.8"/>
      </g>
     </g>
     <g id="text_18">
      <text style="font-size: 14px; font-family: 'Arial', 'DejaVu Sans', 'Liberation Sans', sans-serif; text-anchor: end; fill: #3775ba" x="388.469336" y="244.917991" transform="rotate(-0 388.469336 244.917991)">100</text>
     </g>
    </g>
    <g id="ytick_6">
     <g id="line2d_18">
      <g>
       <use xlink:href="#m3f520dabf1" x="395.469336" y="171.31513" style="stroke: #000000; stroke-width: 0.8"/>
      </g>
     </g>
     <g id="text_19">
      <text style="font-size: 14px; font-family: 'Arial', 'DejaVu Sans', 'Liberation Sans', sans-serif; text-anchor: end; fill: #3775ba" x="388.469336" y="176.411322" transform="rotate(-0 388.469336 176.411322)">150</text>
     </g>
    </g>
    <g id="ytick_7">
     <g id="line2d_19">
      <g>
       <use xlink:href="#m3f520dabf1" x="395.469336" y="102.808461" style="stroke: #000000; stroke-width: 0.8"/>
      </g>
     </g>
     <g id="text_20">
      <text style="font-size: 14px; font-family: 'Arial', 'DejaVu Sans', 'Liberation Sans', sans-serif; text-anchor: end; fill: #3775ba" x="388.469336" y="107.904652" transform="rotate(-0 388.469336 107.904652)">200</text>
     </g>
    </g>
    <g id="ytick_8">
     <g id="line2d_20">
      <g>
       <use xlink:href="#m3f520dabf1" x="395.469336" y="34.301791" style="stroke: #000000; stroke-width: 0.8"/>
      </g>
     </g>
     <g id="text_21">
      <text style="font-size: 14px; font-family: 'Arial', 'DejaVu Sans', 'Liberation Sans', sans-serif; text-anchor: end; fill: #3775ba" x="388.469336" y="39.397983" transform="rotate(-0 388.469336 39.397983)">250</text>
     </g>
    </g>
    <g id="text_22">
     <text style="font-size: 14px; font-family: 'Arial', 'DejaVu Sans', 'Liberation Sans', sans-serif; text-anchor: middle; fill: #3775ba" x="358.166836" y="195.97752" transform="rotate(-90 358.166836 195.97752)">|Z| (Ω)</text>
    </g>
   </g>
   <g id="line2d_21">
    <path d="M 407.356245 31.561593 
L 410.365589 31.561627 
L 413.374933 31.561678 
L 416.384277 31.561756 
L 419.393621 31.561873 
L 422.402965 31.562048 
L 425.412309 31.562311 
L 428.421653 31.562708 
L 431.430997 31.563304 
L 434.440341 31.5642 
L 437.449685 31.565549 
L 440.459028 31.567576 
L 443.468372 31.570625 
L 446.477716 31.575211 
L 449.48706 31.582106 
L 452.496404 31.592476 
L 455.505748 31.608069 
L 458.515092 31.631514 
L 461.524436 31.666765 
L 464.53378 31.719757 
L 467.543124 31.799406 
L 470.552468 31.919085 
L 473.561812 32.098833 
L 476.571156 32.368624 
L 479.5805 32.773166 
L 482.589844 33.378868 
L 485.599188 34.283765 
L 488.608532 35.631221 
L 491.617876 37.627943 
L 494.62722 40.565667 
L 497.636564 44.842975 
L 500.645908 50.978021 
L 503.655252 59.593984 
L 506.664596 71.350306 
L 509.67394 86.795387 
L 512.683284 106.148991 
L 515.692628 129.09 
L 518.701972 154.682177 
L 521.711316 181.532519 
L 524.72066 208.13085 
L 527.730004 233.194507 
L 530.739348 255.864063 
L 533.748692 275.720821 
L 536.758036 292.692614 
L 539.76738 306.928713 
L 542.776724 318.692726 
L 545.786068 328.289052 
L 548.795412 336.020141 
L 551.804756 342.166097 
L 554.8141 346.97834 
L 557.823444 350.680827 
L 560.832788 353.47387 
L 563.842132 355.537041 
L 566.851476 357.029537 
L 569.86082 358.088555 
L 572.870164 358.827615 
L 575.879508 359.336514 
L 578.888852 359.683348 
L 581.898196 359.917949 
L 584.90754 360.075781 
L 587.916884 360.181566 
L 590.926228 360.252284 
L 593.935572 360.299476 
L 596.944916 360.330932 
L 599.95426 360.351882 
L 602.963604 360.365827 
L 605.972948 360.375107 
L 608.982292 360.38128 
L 611.991636 360.385386 
L 615.00098 360.388117 
L 618.010324 360.389933 
L 621.019668 360.391141 
L 624.029012 360.391944 
L 627.038355 360.392478 
L 630.047699 360.392833 
L 633.057043 360.393069 
L 636.066387 360.393226 
L 639.075731 360.393331 
L 642.085075 360.3934 
L 645.094419 360.393446 
" clip-path="url(#p714823ab2a)" style="fill: none; stroke: #3775ba; stroke-width: 2; stroke-linecap: square"/>
   </g>
   <g id="patch_6">
    <path d="M 395.469336 376.835039 
L 395.469336 15.12 
" style="fill: none; stroke: #000000; stroke-width: 1.8; stroke-linejoin: miter; stroke-linecap: square"/>
   </g>
   <g id="patch_7">
    <path d="M 395.469336 376.835039 
L 656.981328 376.835039 
" style="fill: none; stroke: #000000; stroke-width: 1.8; stroke-linejoin: miter; stroke-linecap: square"/>
   </g>
  </g>
  <g id="axes_3">
   <g id="matplotlib.axis_5">
    <g id="ytick_9">
     <g id="line2d_22">
      <defs>
       <path id="ma68ba0b83a" d="M 0 0 
L 3.5 0 
" style="stroke: #000000; stroke-width: 0.8"/>
      </defs>
      <g>
       <use xlink:href="#ma68ba0b83a" x="656.981328" y="333.661088" style="stroke: #000000; stroke-width: 0.8"/>
      </g>
     </g>
     <g id="text_23">
      <text style="font-size: 14px; font-family: 'Arial', 'DejaVu Sans', 'Liberation Sans', sans-serif; text-anchor: start; fill: #e07c3e" x="663.981328" y="338.75728" transform="rotate(-0 663.981328 338.75728)">−60</text>
     </g>
    </g>
    <g id="ytick_10">
     <g id="line2d_23">
      <g>
       <use xlink:href="#ma68ba0b83a" x="656.981328" y="283.282385" style="stroke: #000000; stroke-width: 0.8"/>
      </g>
     </g>
     <g id="text_24">
      <text style="font-size: 14px; font-family: 'Arial', 'DejaVu Sans', 'Liberation Sans', sans-serif; text-anchor: start; fill: #e07c3e" x="663.981328" y="288.378576" transform="rotate(-0 663.981328 288.378576)">−50</text>
     </g>
    </g>
    <g id="ytick_11">
     <g id="line2d_24">
      <g>
       <use xlink:href="#ma68ba0b83a" x="656.981328" y="232.903681" style="stroke: #000000; stroke-width: 0.8"/>
      </g>
     </g>
     <g id="text_25">
      <text style="font-size: 14px; font-family: 'Arial', 'DejaVu Sans', 'Liberation Sans', sans-serif; text-anchor: start; fill: #e07c3e" x="663.981328" y="237.999872" transform="rotate(-0 663.981328 237.999872)">−40</text>
     </g>
    </g>
    <g id="ytick_12">
     <g id="line2d_25">
      <g>
       <use xlink:href="#ma68ba0b83a" x="656.981328" y="182.524977" style="stroke: #000000; stroke-width: 0.8"/>
      </g>
     </g>
     <g id="text_26">
      <text style="font-size: 14px; font-family: 'Arial', 'DejaVu Sans', 'Liberation Sans', sans-serif; text-anchor: start; fill: #e07c3e" x="663.981328" y="187.621168" transform="rotate(-0 663.981328 187.621168)">−30</text>
     </g>
    </g>
    <g id="ytick_13">
     <g id="line2d_26">
      <g>
       <use xlink:href="#ma68ba0b83a" x="656.981328" y="132.146273" style="stroke: #000000; stroke-width: 0.8"/>
      </g>
     </g>
     <g id="text_27">
      <text style="font-size: 14px; font-family: 'Arial', 'DejaVu Sans', 'Liberation Sans', sans-serif; text-anchor: start; fill: #e07c3e" x="663.981328" y="137.242465" transform="rotate(-0 663.981328 137.242465)">−20</text>
     </g>
    </g>
    <g id="ytick_14">
     <g id="line2d_27">
      <g>
       <use xlink:href="#ma68ba0b83a" x="656.981328" y="81.76757" style="stroke: #000000; stroke-width: 0.8"/>
      </g>
     </g>
     <g id="text_28">
      <text style="font-size: 14px; font-family: 'Arial', 'DejaVu Sans', 'Liberation Sans', sans-serif; text-anchor: start; fill: #e07c3e" x="663.981328" y="86.863761" transform="rotate(-0 663.981328 86.863761)">−10</text>
     </g>
    </g>
    <g id="ytick_15">
     <g id="line2d_28">
      <g>
       <use xlink:href="#ma68ba0b83a" x="656.981328" y="31.388866" style="stroke: #000000; stroke-width: 0.8"/>
      </g>
     </g>
     <g id="text_29">
      <text style="font-size: 14px; font-family: 'Arial', 'DejaVu Sans', 'Liberation Sans', sans-serif; text-anchor: start; fill: #e07c3e" x="663.981328" y="36.485057" transform="rotate(-0 663.981328 36.485057)">0</text>
     </g>
    </g>
    <g id="text_30">
     <text style="font-size: 14px; font-family: 'Arial', 'DejaVu Sans', 'Liberation Sans', sans-serif; text-anchor: middle; fill: #e07c3e" x="701.921211" y="195.97752" transform="rotate(-90 701.921211 195.97752)">-Phase (°)</text>
    </g>
   </g>
   <g id="line2d_29">
    <path d="M 407.356245 31.561593 
L 410.365589 31.600686 
L 413.374933 31.648628 
L 416.384277 31.70742 
L 419.393621 31.779518 
L 422.402965 31.867934 
L 425.412309 31.976362 
L 428.421653 32.10933 
L 431.430997 32.272392 
L 434.440341 32.472359 
L 437.449685 32.717583 
L 440.459028 33.018306 
L 443.468372 33.387086 
L 446.477716 33.839321 
L 449.48706 34.393893 
L 452.496404 35.073945 
L 455.505748 35.907848 
L 458.515092 36.930368 
L 461.524436 38.184094 
L 464.53378 39.721164 
L 467.543124 41.605365 
L 470.552468 43.914622 
L 473.561812 46.743967 
L 476.571156 50.208952 
L 479.5805 54.449481 
L 482.589844 59.633824 
L 485.599188 65.962351 
L 488.608532 73.669973 
L 491.617876 83.025479 
L 494.62722 94.324618 
L 497.636564 107.872014 
L 500.645908 123.945226 
L 503.655252 142.734103 
L 506.664596 164.253352 
L 509.67394 188.240221 
L 512.683284 214.072466 
L 515.692628 240.760743 
L 518.701972 267.056472 
L 521.711316 291.657519 
L 524.72066 313.427377 
L 527.730004 331.533307 
L 530.739348 345.466282 
L 533.748692 354.973015 
L 536.758036 359.956981 
L 539.76738 360.393446 
L 542.776724 356.281107 
L 545.786068 347.637763 
L 548.795412 334.540518 
L 551.804756 317.204858 
L 554.8141 296.083728 
L 557.823444 271.945875 
L 560.832788 245.876637 
L 563.842132 219.161977 
L 566.851476 193.07858 
L 569.86082 168.677613 
L 572.870164 146.654382 
L 575.879508 127.335731 
L 578.888852 110.752228 
L 581.898196 96.740098 
L 584.90754 85.033059 
L 587.916884 75.328219 
L 590.926228 67.326276 
L 593.935572 60.752469 
L 596.944916 55.365196 
L 599.95426 50.957587 
L 602.963604 47.355482 
L 605.972948 44.413846 
L 608.982292 42.012762 
L 611.991636 40.05354 
L 615.00098 38.455218 
L 618.010324 37.151503 
L 621.019668 36.088197 
L 624.029012 35.221023 
L 627.038355 34.513834 
L 630.047699 33.937131 
L 633.057043 33.466846 
L 636.066387 33.083347 
L 639.075731 32.770621 
L 642.085075 32.515609 
L 645.094419 32.30766 
" clip-path="url(#p714823ab2a)" style="fill: none; stroke-dasharray: 7.4,3.2; stroke-dashoffset: 0; stroke: #e07c3e; stroke-width: 2"/>
   </g>
   <g id="patch_8">
    <path d="M 395.469336 376.835039 
L 395.469336 15.12 
" style="fill: none; stroke: #000000; stroke-width: 1.8; stroke-linejoin: miter; stroke-linecap: square"/>
   </g>
   <g id="patch_9">
    <path d="M 395.469336 376.835039 
L 656.981328 376.835039 
" style="fill: none; stroke: #000000; stroke-width: 1.8; stroke-linejoin: miter; stroke-linecap: square"/>
   </g>
  </g>
 </g>
 <defs>
  <clipPath id="pfc44bd1bfc">
   <rect x="70.938672" y="130.645033" width="261.511992" height="130.664974"/>
  </clipPath>
  <clipPath id="p714823ab2a">
   <rect x="395.469336" y="15.12" width="261.511992" height="361.715039"/>
  </clipPath>
 </defs>
</svg>
