<?xml version="1.0" encoding="utf-8" standalone="no"?>
<!DOCTYPE svg PUBLIC "-//W3C//DTD SVG 1.1//EN"
  "http://www.w3.org/Graphics/SVG/1.1/DTD/svg11.dtd">
<svg xmlns:xlink="http://www.w3.org/1999/xlink" width="720pt" height="432pt" viewBox="0 0 720 432" xmlns="http://www.w3.org/2000/svg" version="1.1">
 <metadata>
  <rdf:RDF xmlns:dc="http://purl.org/dc/elements/1.1/" xmlns:cc="http://creativecommons.org/ns#" xmlns:rdf="http://www.w3.org/1999/02/22-rdf-syntax-ns#">
   <cc:Work>
    <dc:type rdf:resource="http://purl.org/dc/dcmitype/StillImage"/>
    <dc:date>2026-06-20T18:10:34.033684</dc:date>
    <dc:format>image/svg+xml</dc:format>
    <dc:creator>
     <cc:Agent>
      <dc:title>Matplotlib v3.11.0, https://matplotlib.org/</dc:title>
     </cc:Agent>
    </dc:creator>
   </cc:Work>
  </rdf:RDF>
 </metadata>
 <defs>
  <style type="text/css">*{stroke-linejoin: round; stroke-linecap: butt}</style>
 </defs>
 <g id="figure_1">
  <g id="patch_1">
   <path d="M 0 432 
L 720 432 
L 720 0 
L 0 0 
z
" style="fill: #ffffff"/>
  </g>
  <g id="axes_1">
   <g id="patch_2">
    <path d="M 63.018672 376.835039 
L 664.901328 376.835039 
L 664.901328 15.12 
L 63.018672 15.12 
z
" style="fill: #ffffff"/>
   </g>
   <g id="matplotlib.axis_1">
    <g id="xtick_1">
     <g id="line2d_1">
      <defs>
       <path id="m45cec81845" d="M 0 0 
L 0 3.5 
" style="stroke: #000000; stroke-width: 0.8"/>
      </defs>
      <g>
       <use xlink:href="#m45cec81845" x="90.376974" y="376.835039" style="stroke: #000000; stroke-width: 0.8"/>
      </g>
     </g>
     <g id="text_1">
      <!-- $\mathdefault{10^{5}}$ -->
      <g transform="translate(79.596974 396.575039)">
       <text>
        <tspan x="0" y="-0.294563" style="font-size: 14px; font-family: 'Arial'">1</tspan>
        <tspan x="7.786133" y="-0.294563" style="font-size: 14px; font-family: 'Arial'">0</tspan>
        <tspan x="15.70625" y="-6.076563" style="font-size: 9.8px; font-family: 'Arial'">5</tspan>
       </text>
      </g>
     </g>
    </g>
    <g id="xtick_2">
     <g id="line2d_2">
      <g>
       <use xlink:href="#m45cec81845" x="227.168487" y="376.835039" style="stroke: #000000; stroke-width: 0.8"/>
      </g>
     </g>
     <g id="text_2">
      <!-- $\mathdefault{10^{6}}$ -->
      <g transform="translate(216.388487 396.715039)">
       <text>
        <tspan x="0" y="-0.17425" style="font-size: 14px; font-family: 'Arial'">1</tspan>
        <tspan x="7.786133" y="-0.17425" style="font-size: 14px; font-family: 'Arial'">0</tspan>
        <tspan x="15.70625" y="-5.95625" style="font-size: 9.8px; font-family: 'Arial'">6</tspan>
       </text>
      </g>
     </g>
    </g>
    <g id="xtick_3">
     <g id="line2d_3">
      <g>
       <use xlink:href="#m45cec81845" x="363.96" y="376.835039" style="stroke: #000000; stroke-width: 0.8"/>
      </g>
     </g>
     <g id="text_3">
      <!-- $\mathdefault{10^{7}}$ -->
      <g transform="translate(353.18 396.575039)">
       <text>
        <tspan x="0" y="-0.294563" style="font-size: 14px; font-family: 'Arial'">1</tspan>
        <tspan x="7.786133" y="-0.294563" style="font-size: 14px; font-family: 'Arial'">0</tspan>
        <tspan x="15.70625" y="-6.076563" style="font-size: 9.8px; font-family: 'Arial'">7</tspan>
       </text>
      </g>
     </g>
    </g>
    <g id="xtick_4">
     <g id="line2d_4">
      <g>
       <use xlink:href="#m45cec81845" x="500.751513" y="376.835039" style="stroke: #000000; stroke-width: 0.8"/>
      </g>
     </g>
     <g id="text_4">
      <!-- $\mathdefault{10^{8}}$ -->
      <g transform="translate(489.971513 396.715039)">
       <text>
        <tspan x="0" y="-0.17425" style="font-size: 14px; font-family: 'Arial'">1</tspan>
        <tspan x="7.786133" y="-0.17425" style="font-size: 14px; font-family: 'Arial'">0</tspan>
        <tspan x="15.70625" y="-5.95625" style="font-size: 9.8px; font-family: 'Arial'">8</tspan>
       </text>
      </g>
     </g>
    </g>
    <g id="xtick_5">
     <g id="line2d_5">
      <g>
       <use xlink:href="#m45cec81845" x="637.543026" y="376.835039" style="stroke: #000000; stroke-width: 0.8"/>
      </g>
     </g>
     <g id="text_5">
      <!-- $\mathdefault{10^{9}}$ -->
      <g transform="translate(626.763026 396.715039)">
       <text>
        <tspan x="0" y="-0.17425" style="font-size: 14px; font-family: 'Arial'">1</tspan>
        <tspan x="7.786133" y="-0.17425" style="font-size: 14px; font-family: 'Arial'">0</tspan>
        <tspan x="15.70625" y="-5.95625" style="font-size: 9.8px; font-family: 'Arial'">9</tspan>
       </text>
      </g>
     </g>
    </g>
    <g id="xtick_6">
     <g id="line2d_6">
      <defs>
       <path id="m876422e512" d="M 0 0 
L 0 2 
" style="stroke: #000000; stroke-width: 0.6"/>
      </defs>
      <g>
       <use xlink:href="#m876422e512" x="69.187701" y="376.835039" style="stroke: #000000; stroke-width: 0.6"/>
      </g>
     </g>
    </g>
    <g id="xtick_7">
     <g id="line2d_7">
      <g>
       <use xlink:href="#m876422e512" x="77.120507" y="376.835039" style="stroke: #000000; stroke-width: 0.6"/>
      </g>
     </g>
    </g>
    <g id="xtick_8">
     <g id="line2d_8">
      <g>
       <use xlink:href="#m876422e512" x="84.117738" y="376.835039" style="stroke: #000000; stroke-width: 0.6"/>
      </g>
     </g>
    </g>
    <g id="xtick_9">
     <g id="line2d_9">
      <g>
       <use xlink:href="#m876422e512" x="131.555323" y="376.835039" style="stroke: #000000; stroke-width: 0.6"/>
      </g>
     </g>
    </g>
    <g id="xtick_10">
     <g id="line2d_10">
      <g>
       <use xlink:href="#m876422e512" x="155.643113" y="376.835039" style="stroke: #000000; stroke-width: 0.6"/>
      </g>
     </g>
    </g>
    <g id="xtick_11">
     <g id="line2d_11">
      <g>
       <use xlink:href="#m876422e512" x="172.733671" y="376.835039" style="stroke: #000000; stroke-width: 0.6"/>
      </g>
     </g>
    </g>
    <g id="xtick_12">
     <g id="line2d_12">
      <g>
       <use xlink:href="#m876422e512" x="185.990139" y="376.835039" style="stroke: #000000; stroke-width: 0.6"/>
      </g>
     </g>
    </g>
    <g id="xtick_13">
     <g id="line2d_13">
      <g>
       <use xlink:href="#m876422e512" x="196.821461" y="376.835039" style="stroke: #000000; stroke-width: 0.6"/>
      </g>
     </g>
    </g>
    <g id="xtick_14">
     <g id="line2d_14">
      <g>
       <use xlink:href="#m876422e512" x="205.979214" y="376.835039" style="stroke: #000000; stroke-width: 0.6"/>
      </g>
     </g>
    </g>
    <g id="xtick_15">
     <g id="line2d_15">
      <g>
       <use xlink:href="#m876422e512" x="213.91202" y="376.835039" style="stroke: #000000; stroke-width: 0.6"/>
      </g>
     </g>
    </g>
    <g id="xtick_16">
     <g id="line2d_16">
      <g>
       <use xlink:href="#m876422e512" x="220.909251" y="376.835039" style="stroke: #000000; stroke-width: 0.6"/>
      </g>
     </g>
    </g>
    <g id="xtick_17">
     <g id="line2d_17">
      <g>
       <use xlink:href="#m876422e512" x="268.346836" y="376.835039" style="stroke: #000000; stroke-width: 0.6"/>
      </g>
     </g>
    </g>
    <g id="xtick_18">
     <g id="line2d_18">
      <g>
       <use xlink:href="#m876422e512" x="292.434625" y="376.835039" style="stroke: #000000; stroke-width: 0.6"/>
      </g>
     </g>
    </g>
    <g id="xtick_19">
     <g id="line2d_19">
      <g>
       <use xlink:href="#m876422e512" x="309.525184" y="376.835039" style="stroke: #000000; stroke-width: 0.6"/>
      </g>
     </g>
    </g>
    <g id="xtick_20">
     <g id="line2d_20">
      <g>
       <use xlink:href="#m876422e512" x="322.781651" y="376.835039" style="stroke: #000000; stroke-width: 0.6"/>
      </g>
     </g>
    </g>
    <g id="xtick_21">
     <g id="line2d_21">
      <g>
       <use xlink:href="#m876422e512" x="333.612974" y="376.835039" style="stroke: #000000; stroke-width: 0.6"/>
      </g>
     </g>
    </g>
    <g id="xtick_22">
     <g id="line2d_22">
      <g>
       <use xlink:href="#m876422e512" x="342.770727" y="376.835039" style="stroke: #000000; stroke-width: 0.6"/>
      </g>
     </g>
    </g>
    <g id="xtick_23">
     <g id="line2d_23">
      <g>
       <use xlink:href="#m876422e512" x="350.703533" y="376.835039" style="stroke: #000000; stroke-width: 0.6"/>
      </g>
     </g>
    </g>
    <g id="xtick_24">
     <g id="line2d_24">
      <g>
       <use xlink:href="#m876422e512" x="357.700764" y="376.835039" style="stroke: #000000; stroke-width: 0.6"/>
      </g>
     </g>
    </g>
    <g id="xtick_25">
     <g id="line2d_25">
      <g>
       <use xlink:href="#m876422e512" x="405.138349" y="376.835039" style="stroke: #000000; stroke-width: 0.6"/>
      </g>
     </g>
    </g>
    <g id="xtick_26">
     <g id="line2d_26">
      <g>
       <use xlink:href="#m876422e512" x="429.226138" y="376.835039" style="stroke: #000000; stroke-width: 0.6"/>
      </g>
     </g>
    </g>
    <g id="xtick_27">
     <g id="line2d_27">
      <g>
       <use xlink:href="#m876422e512" x="446.316697" y="376.835039" style="stroke: #000000; stroke-width: 0.6"/>
      </g>
     </g>
    </g>
    <g id="xtick_28">
     <g id="line2d_28">
      <g>
       <use xlink:href="#m876422e512" x="459.573164" y="376.835039" style="stroke: #000000; stroke-width: 0.6"/>
      </g>
     </g>
    </g>
    <g id="xtick_29">
     <g id="line2d_29">
      <g>
       <use xlink:href="#m876422e512" x="470.404487" y="376.835039" style="stroke: #000000; stroke-width: 0.6"/>
      </g>
     </g>
    </g>
    <g id="xtick_30">
     <g id="line2d_30">
      <g>
       <use xlink:href="#m876422e512" x="479.562239" y="376.835039" style="stroke: #000000; stroke-width: 0.6"/>
      </g>
     </g>
    </g>
    <g id="xtick_31">
     <g id="line2d_31">
      <g>
       <use xlink:href="#m876422e512" x="487.495046" y="376.835039" style="stroke: #000000; stroke-width: 0.6"/>
      </g>
     </g>
    </g>
    <g id="xtick_32">
     <g id="line2d_32">
      <g>
       <use xlink:href="#m876422e512" x="494.492276" y="376.835039" style="stroke: #000000; stroke-width: 0.6"/>
      </g>
     </g>
    </g>
    <g id="xtick_33">
     <g id="line2d_33">
      <g>
       <use xlink:href="#m876422e512" x="541.929861" y="376.835039" style="stroke: #000000; stroke-width: 0.6"/>
      </g>
     </g>
    </g>
    <g id="xtick_34">
     <g id="line2d_34">
      <g>
       <use xlink:href="#m876422e512" x="566.017651" y="376.835039" style="stroke: #000000; stroke-width: 0.6"/>
      </g>
     </g>
    </g>
    <g id="xtick_35">
     <g id="line2d_35">
      <g>
       <use xlink:href="#m876422e512" x="583.10821" y="376.835039" style="stroke: #000000; stroke-width: 0.6"/>
      </g>
     </g>
    </g>
    <g id="xtick_36">
     <g id="line2d_36">
      <g>
       <use xlink:href="#m876422e512" x="596.364677" y="376.835039" style="stroke: #000000; stroke-width: 0.6"/>
      </g>
     </g>
    </g>
    <g id="xtick_37">
     <g id="line2d_37">
      <g>
       <use xlink:href="#m876422e512" x="607.195999" y="376.835039" style="stroke: #000000; stroke-width: 0.6"/>
      </g>
     </g>
    </g>
    <g id="xtick_38">
     <g id="line2d_38">
      <g>
       <use xlink:href="#m876422e512" x="616.353752" y="376.835039" style="stroke: #000000; stroke-width: 0.6"/>
      </g>
     </g>
    </g>
    <g id="xtick_39">
     <g id="line2d_39">
      <g>
       <use xlink:href="#m876422e512" x="624.286558" y="376.835039" style="stroke: #000000; stroke-width: 0.6"/>
      </g>
     </g>
    </g>
    <g id="xtick_40">
     <g id="line2d_40">
      <g>
       <use xlink:href="#m876422e512" x="631.283789" y="376.835039" style="stroke: #000000; stroke-width: 0.6"/>
      </g>
     </g>
    </g>
    <g id="text_6">
     <text style="font-size: 14px; font-family: 'Arial', 'DejaVu Sans', 'Liberation Sans', sans-serif; text-anchor: middle" x="363.96" y="413.853711" transform="rotate(-0 363.96 413.853711)">Pressure (Pa)</text>
    </g>
   </g>
   <g id="matplotlib.axis_2">
    <g id="ytick_1">
     <g id="line2d_41">
      <defs>
       <path id="maf6d27012e" d="M 0 0 
L -3.5 0 
" style="stroke: #000000; stroke-width: 0.8"/>
      </defs>
      <g>
       <use xlink:href="#maf6d27012e" x="63.018672" y="360.393528" style="stroke: #000000; stroke-width: 0.8"/>
      </g>
     </g>
     <g id="text_7">
      <text style="font-size: 14px; font-family: 'Arial', 'DejaVu Sans', 'Liberation Sans', sans-serif; text-anchor: end; fill: #3775ba" x="56.018672" y="365.489719" transform="rotate(-0 56.018672 365.489719)">0</text>
     </g>
    </g>
    <g id="ytick_2">
     <g id="line2d_42">
      <g>
       <use xlink:href="#maf6d27012e" x="63.018672" y="294.205978" style="stroke: #000000; stroke-width: 0.8"/>
      </g>
     </g>
     <g id="text_8">
      <text style="font-size: 14px; font-family: 'Arial', 'DejaVu Sans', 'Liberation Sans', sans-serif; text-anchor: end; fill: #3775ba" x="56.018672" y="299.302169" transform="rotate(-0 56.018672 299.302169)">20</text>
     </g>
    </g>
    <g id="ytick_3">
     <g id="line2d_43">
      <g>
       <use xlink:href="#maf6d27012e" x="63.018672" y="228.018428" style="stroke: #000000; stroke-width: 0.8"/>
      </g>
     </g>
     <g id="text_9">
      <text style="font-size: 14px; font-family: 'Arial', 'DejaVu Sans', 'Liberation Sans', sans-serif; text-anchor: end; fill: #3775ba" x="56.018672" y="233.114619" transform="rotate(-0 56.018672 233.114619)">40</text>
     </g>
    </g>
    <g id="ytick_4">
     <g id="line2d_44">
      <g>
       <use xlink:href="#maf6d27012e" x="63.018672" y="161.830878" style="stroke: #000000; stroke-width: 0.8"/>
      </g>
     </g>
     <g id="text_10">
      <text style="font-size: 14px; font-family: 'Arial', 'DejaVu Sans', 'Liberation Sans', sans-serif; text-anchor: end; fill: #3775ba" x="56.018672" y="166.927069" transform="rotate(-0 56.018672 166.927069)">60</text>
     </g>
    </g>
    <g id="ytick_5">
     <g id="line2d_45">
      <g>
       <use xlink:href="#maf6d27012e" x="63.018672" y="95.643328" style="stroke: #000000; stroke-width: 0.8"/>
      </g>
     </g>
     <g id="text_11">
      <text style="font-size: 14px; font-family: 'Arial', 'DejaVu Sans', 'Liberation Sans', sans-serif; text-anchor: end; fill: #3775ba" x="56.018672" y="100.73952" transform="rotate(-0 56.018672 100.73952)">80</text>
     </g>
    </g>
    <g id="ytick_6">
     <g id="line2d_46">
      <g>
       <use xlink:href="#maf6d27012e" x="63.018672" y="29.455778" style="stroke: #000000; stroke-width: 0.8"/>
      </g>
     </g>
     <g id="text_12">
      <text style="font-size: 14px; font-family: 'Arial', 'DejaVu Sans', 'Liberation Sans', sans-serif; text-anchor: end; fill: #3775ba" x="56.018672" y="34.55197" transform="rotate(-0 56.018672 34.55197)">100</text>
     </g>
    </g>
    <g id="text_13">
     <text style="font-size: 14px; font-family: 'Arial', 'DejaVu Sans', 'Liberation Sans', sans-serif; text-anchor: middle; fill: #3775ba" x="25.716172" y="195.97752" transform="rotate(-90 25.716172 195.97752)">Cumulative intrusion (mL/g)</text>
    </g>
   </g>
   <g id="line2d_47">
    <path d="M 90.376974 360.393446 
L 95.903904 359.145338 
L 101.430834 356.682223 
L 106.957764 353.390134 
L 112.484694 349.36301 
L 118.011623 344.773473 
L 123.538553 339.599116 
L 129.065483 333.893059 
L 134.592413 327.92014 
L 140.119343 321.619741 
L 145.646273 314.957011 
L 151.173202 308.057317 
L 156.700132 300.968196 
L 162.227062 293.778321 
L 167.753992 286.393611 
L 173.280922 278.857504 
L 178.807851 271.382481 
L 184.334781 263.802325 
L 189.861711 256.296762 
L 195.388641 248.753381 
L 200.915571 241.271055 
L 206.4425 233.727018 
L 211.96943 226.314414 
L 217.49636 218.879967 
L 223.02329 211.548473 
L 228.55022 204.349019 
L 234.077149 197.425581 
L 239.604079 190.504211 
L 245.131009 183.69329 
L 250.657939 177.023236 
L 256.184869 170.621061 
L 261.711799 164.314759 
L 267.238728 158.212515 
L 272.765658 152.274358 
L 278.292588 146.391249 
L 283.819518 140.813226 
L 289.346448 135.367133 
L 294.873377 130.044637 
L 300.400307 125.00395 
L 305.927237 120.116391 
L 311.454167 115.397614 
L 316.981097 110.863998 
L 322.508026 106.59585 
L 328.034956 102.419386 
L 333.561886 98.333078 
L 339.088816 94.61105 
L 344.615746 90.898253 
L 350.142675 87.399246 
L 355.669605 84.111461 
L 361.196535 80.805533 
L 366.723465 77.733953 
L 372.250395 74.940141 
L 377.777325 72.205386 
L 383.304254 69.576107 
L 388.831184 67.131492 
L 394.358114 64.758432 
L 399.885044 62.559461 
L 405.411974 60.431652 
L 410.938903 58.367788 
L 416.465833 56.554153 
L 421.992763 54.788006 
L 427.519693 53.167048 
L 433.046623 51.60358 
L 438.573552 50.219285 
L 444.100482 48.882612 
L 449.627412 47.604232 
L 455.154342 46.332933 
L 460.681272 45.120895 
L 466.208201 44.143972 
L 471.735131 43.200022 
L 477.262061 42.225031 
L 482.788991 41.485622 
L 488.315921 40.702539 
L 493.842851 39.949561 
L 499.36978 39.158178 
L 504.89671 38.452637 
L 510.42364 37.859823 
L 515.95057 37.312479 
L 521.4775 36.797452 
L 527.004429 36.202715 
L 532.531359 35.772496 
L 538.058289 35.367169 
L 543.585219 34.949416 
L 549.112149 34.592001 
L 554.639078 34.26676 
L 560.166008 34.027516 
L 565.692938 33.738918 
L 571.219868 33.500939 
L 576.746798 33.176931 
L 582.273727 32.905973 
L 587.800657 32.697596 
L 593.327587 32.459885 
L 598.854517 32.30423 
L 604.381447 32.07066 
L 609.908377 31.920265 
L 615.435306 31.743112 
L 620.962236 31.701318 
L 626.489166 31.561593 
L 632.016096 31.566218 
L 637.543026 31.602747 
" clip-path="url(#pb24d965971)" style="fill: none; stroke: #3775ba; stroke-width: 2.2; stroke-linecap: square"/>
   </g>
   <g id="patch_3">
    <path d="M 63.018672 376.835039 
L 63.018672 15.12 
" style="fill: none; stroke: #000000; stroke-width: 1.8; stroke-linejoin: miter; stroke-linecap: square"/>
   </g>
   <g id="patch_4">
    <path d="M 63.018672 376.835039 
L 664.901328 376.835039 
" style="fill: none; stroke: #000000; stroke-width: 1.8; stroke-linejoin: miter; stroke-linecap: square"/>
   </g>
  </g>
  <g id="axes_2">
   <g id="matplotlib.axis_3">
    <g id="ytick_7">
     <g id="line2d_48">
      <defs>
       <path id="m015797ebab" d="M 0 0 
L 3.5 0 
" style="stroke: #000000; stroke-width: 0.8"/>
      </defs>
      <g>
       <use xlink:href="#m015797ebab" x="664.901328" y="358.808647" style="stroke: #000000; stroke-width: 0.8"/>
      </g>
     </g>
     <g id="text_14">
      <text style="font-size: 14px; font-family: 'Arial', 'DejaVu Sans', 'Liberation Sans', sans-serif; text-anchor: start; fill: #e07c3e" x="671.901328" y="363.904838" transform="rotate(-0 671.901328 363.904838)">0</text>
     </g>
    </g>
    <g id="ytick_8">
     <g id="line2d_49">
      <g>
       <use xlink:href="#m015797ebab" x="664.901328" y="300.797583" style="stroke: #000000; stroke-width: 0.8"/>
      </g>
     </g>
     <g id="text_15">
      <text style="font-size: 14px; font-family: 'Arial', 'DejaVu Sans', 'Liberation Sans', sans-serif; text-anchor: start; fill: #e07c3e" x="671.901328" y="305.893774" transform="rotate(-0 671.901328 305.893774)">10</text>
     </g>
    </g>
    <g id="ytick_9">
     <g id="line2d_50">
      <g>
       <use xlink:href="#m015797ebab" x="664.901328" y="242.786519" style="stroke: #000000; stroke-width: 0.8"/>
      </g>
     </g>
     <g id="text_16">
      <text style="font-size: 14px; font-family: 'Arial', 'DejaVu Sans', 'Liberation Sans', sans-serif; text-anchor: start; fill: #e07c3e" x="671.901328" y="247.88271" transform="rotate(-0 671.901328 247.88271)">20</text>
     </g>
    </g>
    <g id="ytick_10">
     <g id="line2d_51">
      <g>
       <use xlink:href="#m015797ebab" x="664.901328" y="184.775454" style="stroke: #000000; stroke-width: 0.8"/>
      </g>
     </g>
     <g id="text_17">
      <text style="font-size: 14px; font-family: 'Arial', 'DejaVu Sans', 'Liberation Sans', sans-serif; text-anchor: start; fill: #e07c3e" x="671.901328" y="189.871646" transform="rotate(-0 671.901328 189.871646)">30</text>
     </g>
    </g>
    <g id="ytick_11">
     <g id="line2d_52">
      <g>
       <use xlink:href="#m015797ebab" x="664.901328" y="126.76439" style="stroke: #000000; stroke-width: 0.8"/>
      </g>
     </g>
     <g id="text_18">
      <text style="font-size: 14px; font-family: 'Arial', 'DejaVu Sans', 'Liberation Sans', sans-serif; text-anchor: start; fill: #e07c3e" x="671.901328" y="131.860582" transform="rotate(-0 671.901328 131.860582)">40</text>
     </g>
    </g>
    <g id="ytick_12">
     <g id="line2d_53">
      <g>
       <use xlink:href="#m015797ebab" x="664.901328" y="68.753326" style="stroke: #000000; stroke-width: 0.8"/>
      </g>
     </g>
     <g id="text_19">
      <text style="font-size: 14px; font-family: 'Arial', 'DejaVu Sans', 'Liberation Sans', sans-serif; text-anchor: start; fill: #e07c3e" x="671.901328" y="73.849517" transform="rotate(-0 671.901328 73.849517)">50</text>
     </g>
    </g>
    <g id="text_20">
     <text style="font-size: 14px; font-family: 'Arial', 'DejaVu Sans', 'Liberation Sans', sans-serif; text-anchor: middle; fill: #e07c3e" x="701.664336" y="195.97752" transform="rotate(-90 701.664336 195.97752)">dV/dlogP (mL/g)</text>
    </g>
   </g>
   <g id="line2d_54">
    <path d="M 90.376974 304.659462 
L 95.903904 278.302907 
L 101.430834 233.963852 
L 106.957764 200.036573 
L 112.484694 171.89167 
L 118.011623 147.005324 
L 123.538553 122.785183 
L 129.065483 105.462375 
L 134.592413 92.569636 
L 140.119343 77.60589 
L 145.646273 64.60567 
L 151.173202 55.356205 
L 156.700132 49.061434 
L 162.227062 42.649362 
L 167.753992 35.138747 
L 173.280922 33.179612 
L 178.807851 32.22407 
L 184.334781 31.561593 
L 189.861711 32.359345 
L 195.388641 32.863416 
L 200.915571 32.849162 
L 206.4425 34.361617 
L 211.96943 36.738897 
L 217.49636 38.49838 
L 223.02329 43.595975 
L 228.55022 52.447719 
L 234.077149 58.480059 
L 239.604079 60.920831 
L 245.131009 66.37252 
L 250.657939 75.239237 
L 256.184869 83.129917 
L 261.711799 89.636186 
L 267.238728 97.622192 
L 272.765658 102.375779 
L 278.292588 110.187952 
L 283.819518 119.66793 
L 289.346448 125.210978 
L 294.873377 134.005232 
L 300.400307 143.440097 
L 305.927237 150.423154 
L 311.454167 158.101071 
L 316.981097 167.876319 
L 322.508026 175.62384 
L 328.034956 179.568412 
L 333.561886 189.426259 
L 339.088816 197.528659 
L 344.615746 202.366544 
L 350.142675 211.586118 
L 355.669605 215.774487 
L 361.196535 220.464515 
L 366.723465 231.573599 
L 372.250395 238.880188 
L 377.777325 242.449312 
L 383.304254 248.74316 
L 388.831184 254.301194 
L 394.358114 259.629837 
L 399.885044 264.94996 
L 405.411974 267.880754 
L 410.938903 274.695963 
L 416.465833 281.154205 
L 421.992763 285.333845 
L 427.519693 289.730473 
L 433.046623 294.86428 
L 438.573552 299.784018 
L 444.100482 302.081605 
L 449.627412 303.49973 
L 455.154342 304.938845 
L 460.681272 311.324587 
L 466.208201 317.140093 
L 471.735131 317.182014 
L 477.262061 321.619024 
L 482.788991 325.781974 
L 488.315921 325.487625 
L 493.842851 325.307598 
L 499.36978 326.336613 
L 504.89671 330.64406 
L 510.42364 334.075772 
L 515.95057 335.763152 
L 521.4775 334.73508 
L 527.004429 336.574789 
L 532.531359 340.683561 
L 538.058289 340.953983 
L 543.585219 341.993296 
L 549.112149 344.000127 
L 554.639078 346.563552 
L 560.166008 347.358426 
L 565.692938 347.385876 
L 571.219868 346.617737 
L 576.746798 345.902342 
L 582.273727 348.410685 
L 587.800657 349.13189 
L 593.327587 350.275552 
L 598.854517 350.365374 
L 604.381447 350.479488 
L 609.908377 351.703324 
L 615.435306 354.059118 
L 620.962236 354.871029 
L 626.489166 355.877996 
L 632.016096 359.701377 
L 637.543026 360.393446 
" clip-path="url(#pb24d965971)" style="fill: none; stroke: #e07c3e; stroke-width: 1.8; stroke-linecap: square"/>
   </g>
   <g id="patch_5">
    <path d="M 63.018672 376.835039 
L 63.018672 15.12 
" style="fill: none; stroke: #000000; stroke-width: 1.8; stroke-linejoin: miter; stroke-linecap: square"/>
   </g>
   <g id="patch_6">
    <path d="M 63.018672 376.835039 
L 664.901328 376.835039 
" style="fill: none; stroke: #000000; stroke-width: 1.8; stroke-linejoin: miter; stroke-linecap: square"/>
   </g>
  </g>
 </g>
 <defs>
  <clipPath id="pb24d965971">
   <rect x="63.018672" y="15.12" width="601.882656" height="361.715039"/>
  </clipPath>
 </defs>
</svg>
