<?xml version="1.0" encoding="utf-8" standalone="no"?>
<!DOCTYPE svg PUBLIC "-//W3C//DTD SVG 1.1//EN"
  "http://www.w3.org/Graphics/SVG/1.1/DTD/svg11.dtd">
<svg xmlns:xlink="http://www.w3.org/1999/xlink" width="567.506386pt" height="427.07625pt" viewBox="0 0 567.506386 427.07625" xmlns="http://www.w3.org/2000/svg" version="1.1">
 <metadata>
  <rdf:RDF xmlns:dc="http://purl.org/dc/elements/1.1/" xmlns:cc="http://creativecommons.org/ns#" xmlns:rdf="http://www.w3.org/1999/02/22-rdf-syntax-ns#">
   <cc:Work>
    <dc:type rdf:resource="http://purl.org/dc/dcmitype/StillImage"/>
    <dc:date>2026-06-12T15:05:03.305299</dc:date>
    <dc:format>image/svg+xml</dc:format>
    <dc:creator>
     <cc:Agent>
      <dc:title>Matplotlib v3.10.9, https://matplotlib.org/</dc:title>
     </cc:Agent>
    </dc:creator>
   </cc:Work>
  </rdf:RDF>
 </metadata>
 <defs>
  <style type="text/css">*{stroke-linejoin: round; stroke-linecap: butt}</style>
 </defs>
 <g id="figure_1">
  <g id="patch_1">
   <path d="M 0 427.07625
L 567.506386 427.07625
L 567.506386 0
L 0 0
z
" style="fill: #ffffff"/>
  </g>
  <g id="axes_1">
   <g id="patch_2">
    <path d="M 37.472188 199.08
L 276.629577 199.08
L 276.629577 33.12
L 37.472188 33.12
z
" style="fill: #ffffff"/>
   </g>
   <g id="matplotlib.axis_1">
    <g id="xtick_1">
     <g id="line2d_1">
      <defs>
       <path id="m3c48ccfc00" d="M 0 0
L 0 3.5
" style="stroke: #000000; stroke-width: 1.2"/>
      </defs>
      <g>
       <use xlink:href="#m3c48ccfc00" x="67.366861" y="199.08" style="stroke: #000000; stroke-width: 1.2"/>
      </g>
     </g>
     <g id="text_1">
      <text style="font-size: 8px; font-family: 'Arial', 'Helvetica', 'Liberation Sans', 'DejaVu Sans', sans-serif; text-anchor: middle" x="67.366861" y="211.80625" transform="rotate(-0 67.366861 211.80625)">A</text>
     </g>
    </g>
    <g id="xtick_2">
     <g id="line2d_2">
      <g>
       <use xlink:href="#m3c48ccfc00" x="127.156209" y="199.08" style="stroke: #000000; stroke-width: 1.2"/>
      </g>
     </g>
     <g id="text_2">
      <text style="font-size: 8px; font-family: 'Arial', 'Helvetica', 'Liberation Sans', 'DejaVu Sans', sans-serif; text-anchor: middle" x="127.156209" y="211.80625" transform="rotate(-0 127.156209 211.80625)">B</text>
     </g>
    </g>
    <g id="xtick_3">
     <g id="line2d_3">
      <g>
       <use xlink:href="#m3c48ccfc00" x="186.945556" y="199.08" style="stroke: #000000; stroke-width: 1.2"/>
      </g>
     </g>
     <g id="text_3">
      <text style="font-size: 8px; font-family: 'Arial', 'Helvetica', 'Liberation Sans', 'DejaVu Sans', sans-serif; text-anchor: middle" x="186.945556" y="211.80625" transform="rotate(-0 186.945556 211.80625)">C</text>
     </g>
    </g>
    <g id="xtick_4">
     <g id="line2d_4">
      <g>
       <use xlink:href="#m3c48ccfc00" x="246.734904" y="199.08" style="stroke: #000000; stroke-width: 1.2"/>
      </g>
     </g>
     <g id="text_4">
      <text style="font-size: 8px; font-family: 'Arial', 'Helvetica', 'Liberation Sans', 'DejaVu Sans', sans-serif; text-anchor: middle" x="246.734904" y="211.80625" transform="rotate(-0 246.734904 211.80625)">D</text>
     </g>
    </g>
   </g>
   <g id="matplotlib.axis_2">
    <g id="ytick_1">
     <g id="line2d_5">
      <defs>
       <path id="m01bcc28712" d="M 0 0
L -3.5 0
" style="stroke: #000000; stroke-width: 1.2"/>
      </defs>
      <g>
       <use xlink:href="#m01bcc28712" x="37.472188" y="173.14115" style="stroke: #000000; stroke-width: 1.2"/>
      </g>
     </g>
     <g id="text_5">
      <text style="font-size: 9px; font-family: 'Arial', 'Helvetica', 'Liberation Sans', 'DejaVu Sans', sans-serif; text-anchor: end" x="30.472188" y="176.362166" transform="rotate(-0 30.472188 176.362166)">30</text>
     </g>
    </g>
    <g id="ytick_2">
     <g id="line2d_6">
      <g>
       <use xlink:href="#m01bcc28712" x="37.472188" y="143.459249" style="stroke: #000000; stroke-width: 1.2"/>
      </g>
     </g>
     <g id="text_6">
      <text style="font-size: 9px; font-family: 'Arial', 'Helvetica', 'Liberation Sans', 'DejaVu Sans', sans-serif; text-anchor: end" x="30.472188" y="146.680264" transform="rotate(-0 30.472188 146.680264)">40</text>
     </g>
    </g>
    <g id="ytick_3">
     <g id="line2d_7">
      <g>
       <use xlink:href="#m01bcc28712" x="37.472188" y="113.777347" style="stroke: #000000; stroke-width: 1.2"/>
      </g>
     </g>
     <g id="text_7">
      <text style="font-size: 9px; font-family: 'Arial', 'Helvetica', 'Liberation Sans', 'DejaVu Sans', sans-serif; text-anchor: end" x="30.472188" y="116.998362" transform="rotate(-0 30.472188 116.998362)">50</text>
     </g>
    </g>
    <g id="ytick_4">
     <g id="line2d_8">
      <g>
       <use xlink:href="#m01bcc28712" x="37.472188" y="84.095445" style="stroke: #000000; stroke-width: 1.2"/>
      </g>
     </g>
     <g id="text_8">
      <text style="font-size: 9px; font-family: 'Arial', 'Helvetica', 'Liberation Sans', 'DejaVu Sans', sans-serif; text-anchor: end" x="30.472188" y="87.316461" transform="rotate(-0 30.472188 87.316461)">60</text>
     </g>
    </g>
    <g id="ytick_5">
     <g id="line2d_9">
      <g>
       <use xlink:href="#m01bcc28712" x="37.472188" y="54.413543" style="stroke: #000000; stroke-width: 1.2"/>
      </g>
     </g>
     <g id="text_9">
      <text style="font-size: 9px; font-family: 'Arial', 'Helvetica', 'Liberation Sans', 'DejaVu Sans', sans-serif; text-anchor: end" x="30.472188" y="57.634559" transform="rotate(-0 30.472188 57.634559)">70</text>
     </g>
    </g>
    <g id="text_10">
     <text style="font-size: 10px; font-family: 'Arial', 'Helvetica', 'Liberation Sans', 'DejaVu Sans', sans-serif; text-anchor: middle" x="14.357813" y="116.1" transform="rotate(-90 14.357813 116.1)">Property</text>
    </g>
   </g>
   <g id="patch_3">
    <path d="M 52.419524 131.320862
L 82.314198 131.320862
L 82.314198 103.081908
L 52.419524 103.081908
L 52.419524 131.320862
z
" clip-path="url(#p9d63515758)" style="fill: #1f77b4; stroke: #000000; stroke-linejoin: miter"/>
   </g>
   <g id="line2d_10">
    <path d="M 67.366861 131.320862
L 67.366861 170.567143
" clip-path="url(#p9d63515758)" style="fill: none; stroke: #000000; stroke-linecap: square"/>
   </g>
   <g id="line2d_11">
    <path d="M 67.366861 103.081908
L 67.366861 66.903307
" clip-path="url(#p9d63515758)" style="fill: none; stroke: #000000; stroke-linecap: square"/>
   </g>
   <g id="line2d_12">
    <path d="M 59.893193 170.567143
L 74.84053 170.567143
" clip-path="url(#p9d63515758)" style="fill: none; stroke: #000000; stroke-linecap: square"/>
   </g>
   <g id="line2d_13">
    <path d="M 59.893193 66.903307
L 74.84053 66.903307
" clip-path="url(#p9d63515758)" style="fill: none; stroke: #000000; stroke-linecap: square"/>
   </g>
   <g id="line2d_14"/>
   <g id="patch_4">
    <path d="M 112.208872 134.825189
L 142.103546 134.825189
L 142.103546 97.610749
L 112.208872 97.610749
L 112.208872 134.825189
z
" clip-path="url(#p9d63515758)" style="fill: #1f77b4; stroke: #000000; stroke-linejoin: miter"/>
   </g>
   <g id="line2d_15">
    <path d="M 127.156209 134.825189
L 127.156209 171.944083
" clip-path="url(#p9d63515758)" style="fill: none; stroke: #000000; stroke-linecap: square"/>
   </g>
   <g id="line2d_16">
    <path d="M 127.156209 97.610749
L 127.156209 58.798208
" clip-path="url(#p9d63515758)" style="fill: none; stroke: #000000; stroke-linecap: square"/>
   </g>
   <g id="line2d_17">
    <path d="M 119.68254 171.944083
L 134.629877 171.944083
" clip-path="url(#p9d63515758)" style="fill: none; stroke: #000000; stroke-linecap: square"/>
   </g>
   <g id="line2d_18">
    <path d="M 119.68254 58.798208
L 134.629877 58.798208
" clip-path="url(#p9d63515758)" style="fill: none; stroke: #000000; stroke-linecap: square"/>
   </g>
   <g id="line2d_19"/>
   <g id="patch_5">
    <path d="M 171.998219 129.038057
L 201.892893 129.038057
L 201.892893 91.880675
L 171.998219 91.880675
L 171.998219 129.038057
z
" clip-path="url(#p9d63515758)" style="fill: #1f77b4; stroke: #000000; stroke-linejoin: miter"/>
   </g>
   <g id="line2d_20">
    <path d="M 186.945556 129.038057
L 186.945556 172.772172
" clip-path="url(#p9d63515758)" style="fill: none; stroke: #000000; stroke-linecap: square"/>
   </g>
   <g id="line2d_21">
    <path d="M 186.945556 91.880675
L 186.945556 67.335747
" clip-path="url(#p9d63515758)" style="fill: none; stroke: #000000; stroke-linecap: square"/>
   </g>
   <g id="line2d_22">
    <path d="M 179.471888 172.772172
L 194.419225 172.772172
" clip-path="url(#p9d63515758)" style="fill: none; stroke: #000000; stroke-linecap: square"/>
   </g>
   <g id="line2d_23">
    <path d="M 179.471888 67.335747
L 194.419225 67.335747
" clip-path="url(#p9d63515758)" style="fill: none; stroke: #000000; stroke-linecap: square"/>
   </g>
   <g id="line2d_24">
    <defs>
     <path id="mf072098b29" d="M 0 3
C 0.795609 3 1.55874 2.683901 2.12132 2.12132
C 2.683901 1.55874 3 0.795609 3 0
C 3 -0.795609 2.683901 -1.55874 2.12132 -2.12132
C 1.55874 -2.683901 0.795609 -3 0 -3
C -0.795609 -3 -1.55874 -2.683901 -2.12132 -2.12132
C -2.683901 -1.55874 -3 -0.795609 -3 0
C -3 0.795609 -2.683901 1.55874 -2.12132 2.12132
C -1.55874 2.683901 -0.795609 3 0 3
z
" style="stroke: #000000"/>
    </defs>
    <g clip-path="url(#p9d63515758)">
     <use xlink:href="#mf072098b29" x="186.945556" y="191.536364" style="fill-opacity: 0; stroke: #000000"/>
    </g>
   </g>
   <g id="patch_6">
    <path d="M 231.787567 125.049338
L 261.682241 125.049338
L 261.682241 105.248133
L 231.787567 105.248133
L 231.787567 125.049338
z
" clip-path="url(#p9d63515758)" style="fill: #1f77b4; stroke: #000000; stroke-linejoin: miter"/>
   </g>
   <g id="line2d_25">
    <path d="M 246.734904 125.049338
L 246.734904 148.465934
" clip-path="url(#p9d63515758)" style="fill: none; stroke: #000000; stroke-linecap: square"/>
   </g>
   <g id="line2d_26">
    <path d="M 246.734904 105.248133
L 246.734904 79.856192
" clip-path="url(#p9d63515758)" style="fill: none; stroke: #000000; stroke-linecap: square"/>
   </g>
   <g id="line2d_27">
    <path d="M 239.261235 148.465934
L 254.208572 148.465934
" clip-path="url(#p9d63515758)" style="fill: none; stroke: #000000; stroke-linecap: square"/>
   </g>
   <g id="line2d_28">
    <path d="M 239.261235 79.856192
L 254.208572 79.856192
" clip-path="url(#p9d63515758)" style="fill: none; stroke: #000000; stroke-linecap: square"/>
   </g>
   <g id="line2d_29">
    <g clip-path="url(#p9d63515758)">
     <use xlink:href="#mf072098b29" x="246.734904" y="157.217254" style="fill-opacity: 0; stroke: #000000"/>
     <use xlink:href="#mf072098b29" x="246.734904" y="155.788242" style="fill-opacity: 0; stroke: #000000"/>
     <use xlink:href="#mf072098b29" x="246.734904" y="170.730126" style="fill-opacity: 0; stroke: #000000"/>
     <use xlink:href="#mf072098b29" x="246.734904" y="57.791762" style="fill-opacity: 0; stroke: #000000"/>
     <use xlink:href="#mf072098b29" x="246.734904" y="40.663636" style="fill-opacity: 0; stroke: #000000"/>
    </g>
   </g>
   <g id="line2d_30">
    <path d="M 52.419524 120.727221
L 82.314198 120.727221
" clip-path="url(#p9d63515758)" style="fill: none; stroke: #ff7f0e"/>
   </g>
   <g id="line2d_31">
    <path d="M 112.208872 115.693989
L 142.103546 115.693989
" clip-path="url(#p9d63515758)" style="fill: none; stroke: #ff7f0e"/>
   </g>
   <g id="line2d_32">
    <path d="M 171.998219 113.017178
L 201.892893 113.017178
" clip-path="url(#p9d63515758)" style="fill: none; stroke: #ff7f0e"/>
   </g>
   <g id="line2d_33">
    <path d="M 231.787567 114.685994
L 261.682241 114.685994
" clip-path="url(#p9d63515758)" style="fill: none; stroke: #ff7f0e"/>
   </g>
   <g id="patch_7">
    <path d="M 37.472188 199.08
L 37.472188 33.12
" style="fill: none; stroke: #000000; stroke-width: 1.5; stroke-linejoin: miter; stroke-linecap: square"/>
   </g>
   <g id="patch_8">
    <path d="M 37.472188 199.08
L 276.629577 199.08
" style="fill: none; stroke: #000000; stroke-width: 1.5; stroke-linejoin: miter; stroke-linecap: square"/>
   </g>
   <g id="text_11">
    <text style="font-weight: 700; font-size: 12px; font-family: 'Arial', 'Helvetica', 'Liberation Sans', 'DejaVu Sans', sans-serif; text-anchor: start" x="42.255335" y="45.028575" transform="rotate(-0 42.255335 45.028575)">a</text>
   </g>
  </g>
  <g id="axes_2">
   <g id="patch_9">
    <path d="M 318.589577 199.08
L 557.746967 199.08
L 557.746967 33.12
L 318.589577 33.12
z
" style="fill: #ffffff"/>
   </g>
   <g id="patch_10">
    <path d="M 332.106231 199.08
L 348.705861 199.08
L 348.705861 146.394286
L 332.106231 146.394286
z
" clip-path="url(#p3bdbc03ca0)" style="fill: #4b6f8a; opacity: 0.7; stroke: #ffffff; stroke-linejoin: miter"/>
   </g>
   <g id="patch_11">
    <path d="M 348.705861 199.08
L 365.305492 199.08
L 365.305492 146.394286
L 348.705861 146.394286
z
" clip-path="url(#p3bdbc03ca0)" style="fill: #4b6f8a; opacity: 0.7; stroke: #ffffff; stroke-linejoin: miter"/>
   </g>
   <g id="patch_12">
    <path d="M 365.305492 199.08
L 381.905123 199.08
L 381.905123 172.737143
L 365.305492 172.737143
z
" clip-path="url(#p3bdbc03ca0)" style="fill: #4b6f8a; opacity: 0.7; stroke: #ffffff; stroke-linejoin: miter"/>
   </g>
   <g id="patch_13">
    <path d="M 381.905123 199.08
L 398.504753 199.08
L 398.504753 146.394286
L 381.905123 146.394286
z
" clip-path="url(#p3bdbc03ca0)" style="fill: #4b6f8a; opacity: 0.7; stroke: #ffffff; stroke-linejoin: miter"/>
   </g>
   <g id="patch_14">
    <path d="M 398.504753 199.08
L 415.104384 199.08
L 415.104384 41.022857
L 398.504753 41.022857
z
" clip-path="url(#p3bdbc03ca0)" style="fill: #4b6f8a; opacity: 0.7; stroke: #ffffff; stroke-linejoin: miter"/>
   </g>
   <g id="patch_15">
    <path d="M 415.104384 199.08
L 431.704014 199.08
L 431.704014 93.708571
L 415.104384 93.708571
z
" clip-path="url(#p3bdbc03ca0)" style="fill: #4b6f8a; opacity: 0.7; stroke: #ffffff; stroke-linejoin: miter"/>
   </g>
   <g id="patch_16">
    <path d="M 431.704014 199.08
L 448.303645 199.08
L 448.303645 120.051429
L 431.704014 120.051429
z
" clip-path="url(#p3bdbc03ca0)" style="fill: #4b6f8a; opacity: 0.7; stroke: #ffffff; stroke-linejoin: miter"/>
   </g>
   <g id="patch_17">
    <path d="M 448.303645 199.08
L 464.903276 199.08
L 464.903276 120.051429
L 448.303645 120.051429
z
" clip-path="url(#p3bdbc03ca0)" style="fill: #4b6f8a; opacity: 0.7; stroke: #ffffff; stroke-linejoin: miter"/>
   </g>
   <g id="patch_18">
    <path d="M 464.903276 199.08
L 481.502906 199.08
L 481.502906 120.051429
L 464.903276 120.051429
z
" clip-path="url(#p3bdbc03ca0)" style="fill: #4b6f8a; opacity: 0.7; stroke: #ffffff; stroke-linejoin: miter"/>
   </g>
   <g id="patch_19">
    <path d="M 481.502906 199.08
L 498.102537 199.08
L 498.102537 172.737143
L 481.502906 172.737143
z
" clip-path="url(#p3bdbc03ca0)" style="fill: #4b6f8a; opacity: 0.7; stroke: #ffffff; stroke-linejoin: miter"/>
   </g>
   <g id="patch_20">
    <path d="M 498.102537 199.08
L 514.702167 199.08
L 514.702167 199.08
L 498.102537 199.08
z
" clip-path="url(#p3bdbc03ca0)" style="fill: #4b6f8a; opacity: 0.7; stroke: #ffffff; stroke-linejoin: miter"/>
   </g>
   <g id="patch_21">
    <path d="M 514.702167 199.08
L 531.301798 199.08
L 531.301798 120.051429
L 514.702167 120.051429
z
" clip-path="url(#p3bdbc03ca0)" style="fill: #4b6f8a; opacity: 0.7; stroke: #ffffff; stroke-linejoin: miter"/>
   </g>
   <g id="patch_22">
    <path d="M 329.460368 199.08
L 347.578352 199.08
L 347.578352 146.394286
L 329.460368 146.394286
z
" clip-path="url(#p3bdbc03ca0)" style="fill: #c47b45; opacity: 0.5; stroke: #ffffff; stroke-linejoin: miter"/>
   </g>
   <g id="patch_23">
    <path d="M 347.578352 199.08
L 365.696336 199.08
L 365.696336 146.394286
L 347.578352 146.394286
z
" clip-path="url(#p3bdbc03ca0)" style="fill: #c47b45; opacity: 0.5; stroke: #ffffff; stroke-linejoin: miter"/>
   </g>
   <g id="patch_24">
    <path d="M 365.696336 199.08
L 383.81432 199.08
L 383.81432 146.394286
L 365.696336 146.394286
z
" clip-path="url(#p3bdbc03ca0)" style="fill: #c47b45; opacity: 0.5; stroke: #ffffff; stroke-linejoin: miter"/>
   </g>
   <g id="patch_25">
    <path d="M 383.81432 199.08
L 401.932304 199.08
L 401.932304 146.394286
L 383.81432 146.394286
z
" clip-path="url(#p3bdbc03ca0)" style="fill: #c47b45; opacity: 0.5; stroke: #ffffff; stroke-linejoin: miter"/>
   </g>
   <g id="patch_26">
    <path d="M 401.932304 199.08
L 420.050288 199.08
L 420.050288 93.708571
L 401.932304 93.708571
z
" clip-path="url(#p3bdbc03ca0)" style="fill: #c47b45; opacity: 0.5; stroke: #ffffff; stroke-linejoin: miter"/>
   </g>
   <g id="patch_27">
    <path d="M 420.050288 199.08
L 438.168272 199.08
L 438.168272 120.051429
L 420.050288 120.051429
z
" clip-path="url(#p3bdbc03ca0)" style="fill: #c47b45; opacity: 0.5; stroke: #ffffff; stroke-linejoin: miter"/>
   </g>
   <g id="patch_28">
    <path d="M 438.168272 199.08
L 456.286256 199.08
L 456.286256 93.708571
L 438.168272 93.708571
z
" clip-path="url(#p3bdbc03ca0)" style="fill: #c47b45; opacity: 0.5; stroke: #ffffff; stroke-linejoin: miter"/>
   </g>
   <g id="patch_29">
    <path d="M 456.286256 199.08
L 474.404241 199.08
L 474.404241 120.051429
L 456.286256 120.051429
z
" clip-path="url(#p3bdbc03ca0)" style="fill: #c47b45; opacity: 0.5; stroke: #ffffff; stroke-linejoin: miter"/>
   </g>
   <g id="patch_30">
    <path d="M 474.404241 199.08
L 492.522225 199.08
L 492.522225 120.051429
L 474.404241 120.051429
z
" clip-path="url(#p3bdbc03ca0)" style="fill: #c47b45; opacity: 0.5; stroke: #ffffff; stroke-linejoin: miter"/>
   </g>
   <g id="patch_31">
    <path d="M 492.522225 199.08
L 510.640209 199.08
L 510.640209 93.708571
L 492.522225 93.708571
z
" clip-path="url(#p3bdbc03ca0)" style="fill: #c47b45; opacity: 0.5; stroke: #ffffff; stroke-linejoin: miter"/>
   </g>
   <g id="patch_32">
    <path d="M 510.640209 199.08
L 528.758193 199.08
L 528.758193 199.08
L 510.640209 199.08
z
" clip-path="url(#p3bdbc03ca0)" style="fill: #c47b45; opacity: 0.5; stroke: #ffffff; stroke-linejoin: miter"/>
   </g>
   <g id="patch_33">
    <path d="M 528.758193 199.08
L 546.876177 199.08
L 546.876177 172.737143
L 528.758193 172.737143
z
" clip-path="url(#p3bdbc03ca0)" style="fill: #c47b45; opacity: 0.5; stroke: #ffffff; stroke-linejoin: miter"/>
   </g>
   <g id="matplotlib.axis_3">
    <g id="xtick_5">
     <g id="line2d_34">
      <g>
       <use xlink:href="#m3c48ccfc00" x="327.160139" y="199.08" style="stroke: #000000; stroke-width: 1.2"/>
      </g>
     </g>
     <g id="text_12">
      <text style="font-size: 9px; font-family: 'Arial', 'Helvetica', 'Liberation Sans', 'DejaVu Sans', sans-serif; text-anchor: middle" x="327.160139" y="212.522031" transform="rotate(-0 327.160139 212.522031)">30</text>
     </g>
    </g>
    <g id="xtick_6">
     <g id="line2d_35">
      <g>
       <use xlink:href="#m3c48ccfc00" x="384.19549" y="199.08" style="stroke: #000000; stroke-width: 1.2"/>
      </g>
     </g>
     <g id="text_13">
      <text style="font-size: 9px; font-family: 'Arial', 'Helvetica', 'Liberation Sans', 'DejaVu Sans', sans-serif; text-anchor: middle" x="384.19549" y="212.522031" transform="rotate(-0 384.19549 212.522031)">40</text>
     </g>
    </g>
    <g id="xtick_7">
     <g id="line2d_36">
      <g>
       <use xlink:href="#m3c48ccfc00" x="441.230841" y="199.08" style="stroke: #000000; stroke-width: 1.2"/>
      </g>
     </g>
     <g id="text_14">
      <text style="font-size: 9px; font-family: 'Arial', 'Helvetica', 'Liberation Sans', 'DejaVu Sans', sans-serif; text-anchor: middle" x="441.230841" y="212.522031" transform="rotate(-0 441.230841 212.522031)">50</text>
     </g>
    </g>
    <g id="xtick_8">
     <g id="line2d_37">
      <g>
       <use xlink:href="#m3c48ccfc00" x="498.266192" y="199.08" style="stroke: #000000; stroke-width: 1.2"/>
      </g>
     </g>
     <g id="text_15">
      <text style="font-size: 9px; font-family: 'Arial', 'Helvetica', 'Liberation Sans', 'DejaVu Sans', sans-serif; text-anchor: middle" x="498.266192" y="212.522031" transform="rotate(-0 498.266192 212.522031)">60</text>
     </g>
    </g>
    <g id="xtick_9">
     <g id="line2d_38">
      <g>
       <use xlink:href="#m3c48ccfc00" x="555.301542" y="199.08" style="stroke: #000000; stroke-width: 1.2"/>
      </g>
     </g>
     <g id="text_16">
      <text style="font-size: 9px; font-family: 'Arial', 'Helvetica', 'Liberation Sans', 'DejaVu Sans', sans-serif; text-anchor: middle" x="555.301542" y="212.522031" transform="rotate(-0 555.301542 212.522031)">70</text>
     </g>
    </g>
    <g id="text_17">
     <text style="font-size: 10px; font-family: 'Arial', 'Helvetica', 'Liberation Sans', 'DejaVu Sans', sans-serif; text-anchor: middle" x="438.168272" y="225.468594" transform="rotate(-0 438.168272 225.468594)">Property</text>
    </g>
   </g>
   <g id="matplotlib.axis_4">
    <g id="ytick_6">
     <g id="line2d_39">
      <g>
       <use xlink:href="#m01bcc28712" x="318.589577" y="199.08" style="stroke: #000000; stroke-width: 1.2"/>
      </g>
     </g>
     <g id="text_18">
      <text style="font-size: 9px; font-family: 'Arial', 'Helvetica', 'Liberation Sans', 'DejaVu Sans', sans-serif; text-anchor: end" x="311.589577" y="202.301016" transform="rotate(-0 311.589577 202.301016)">0</text>
     </g>
    </g>
    <g id="ytick_7">
     <g id="line2d_40">
      <g>
       <use xlink:href="#m01bcc28712" x="318.589577" y="172.737143" style="stroke: #000000; stroke-width: 1.2"/>
      </g>
     </g>
     <g id="text_19">
      <text style="font-size: 9px; font-family: 'Arial', 'Helvetica', 'Liberation Sans', 'DejaVu Sans', sans-serif; text-anchor: end" x="311.589577" y="175.958158" transform="rotate(-0 311.589577 175.958158)">1</text>
     </g>
    </g>
    <g id="ytick_8">
     <g id="line2d_41">
      <g>
       <use xlink:href="#m01bcc28712" x="318.589577" y="146.394286" style="stroke: #000000; stroke-width: 1.2"/>
      </g>
     </g>
     <g id="text_20">
      <text style="font-size: 9px; font-family: 'Arial', 'Helvetica', 'Liberation Sans', 'DejaVu Sans', sans-serif; text-anchor: end" x="311.589577" y="149.615301" transform="rotate(-0 311.589577 149.615301)">2</text>
     </g>
    </g>
    <g id="ytick_9">
     <g id="line2d_42">
      <g>
       <use xlink:href="#m01bcc28712" x="318.589577" y="120.051429" style="stroke: #000000; stroke-width: 1.2"/>
      </g>
     </g>
     <g id="text_21">
      <text style="font-size: 9px; font-family: 'Arial', 'Helvetica', 'Liberation Sans', 'DejaVu Sans', sans-serif; text-anchor: end" x="311.589577" y="123.272444" transform="rotate(-0 311.589577 123.272444)">3</text>
     </g>
    </g>
    <g id="ytick_10">
     <g id="line2d_43">
      <g>
       <use xlink:href="#m01bcc28712" x="318.589577" y="93.708571" style="stroke: #000000; stroke-width: 1.2"/>
      </g>
     </g>
     <g id="text_22">
      <text style="font-size: 9px; font-family: 'Arial', 'Helvetica', 'Liberation Sans', 'DejaVu Sans', sans-serif; text-anchor: end" x="311.589577" y="96.929587" transform="rotate(-0 311.589577 96.929587)">4</text>
     </g>
    </g>
    <g id="ytick_11">
     <g id="line2d_44">
      <g>
       <use xlink:href="#m01bcc28712" x="318.589577" y="67.365714" style="stroke: #000000; stroke-width: 1.2"/>
      </g>
     </g>
     <g id="text_23">
      <text style="font-size: 9px; font-family: 'Arial', 'Helvetica', 'Liberation Sans', 'DejaVu Sans', sans-serif; text-anchor: end" x="311.589577" y="70.58673" transform="rotate(-0 311.589577 70.58673)">5</text>
     </g>
    </g>
    <g id="ytick_12">
     <g id="line2d_45">
      <g>
       <use xlink:href="#m01bcc28712" x="318.589577" y="41.022857" style="stroke: #000000; stroke-width: 1.2"/>
      </g>
     </g>
     <g id="text_24">
      <text style="font-size: 9px; font-family: 'Arial', 'Helvetica', 'Liberation Sans', 'DejaVu Sans', sans-serif; text-anchor: end" x="311.589577" y="44.243873" transform="rotate(-0 311.589577 44.243873)">6</text>
     </g>
    </g>
    <g id="text_25">
     <text style="font-size: 10px; font-family: 'Arial', 'Helvetica', 'Liberation Sans', 'DejaVu Sans', sans-serif; text-anchor: middle" x="300.597234" y="116.1" transform="rotate(-90 300.597234 116.1)">Count</text>
    </g>
   </g>
   <g id="patch_34">
    <path d="M 318.589577 199.08
L 318.589577 33.12
" style="fill: none; stroke: #000000; stroke-width: 1.5; stroke-linejoin: miter; stroke-linecap: square"/>
   </g>
   <g id="patch_35">
    <path d="M 318.589577 199.08
L 557.746967 199.08
" style="fill: none; stroke: #000000; stroke-width: 1.5; stroke-linejoin: miter; stroke-linecap: square"/>
   </g>
   <g id="text_26">
    <text style="font-weight: 700; font-size: 12px; font-family: 'Arial', 'Helvetica', 'Liberation Sans', 'DejaVu Sans', sans-serif; text-anchor: start" x="323.372725" y="45.028575" transform="rotate(-0 323.372725 45.028575)">b</text>
   </g>
  </g>
  <g id="axes_3">
   <g id="patch_36">
    <path d="M 37.472188 405.56
L 276.629577 405.56
L 276.629577 239.6
L 37.472188 239.6
z
" style="fill: #ffffff"/>
   </g>
   <g id="FillBetweenPolyCollection_1">
    <path d="M 67.708447 377.047143
L 60.03691 377.047143
L 59.814416 376.000034
L 59.591416 374.952924
L 59.368479 373.905815
L 59.146063 372.858705
L 58.924498 371.811596
L 58.70397 370.764486
L 58.484515 369.717377
L 58.266008 368.670267
L 58.048163 367.623158
L 57.830534 366.576049
L 57.612523 365.528939
L 57.393386 364.48183
L 57.172258 363.43472
L 56.948167 362.387611
L 56.720065 361.340501
L 56.486857 360.293392
L 56.247437 359.246282
L 56.000728 358.199173
L 55.745725 357.152063
L 55.481535 356.104954
L 55.207425 355.057845
L 54.922866 354.010735
L 54.627568 352.963626
L 54.321525 351.916516
L 54.005042 350.869407
L 53.678758 349.822297
L 53.343664 348.775188
L 53.00111 347.728078
L 52.652794 346.680969
L 52.30075 345.633859
L 51.94732 344.58675
L 51.595112 343.539641
L 51.246951 342.492531
L 50.905824 341.445422
L 50.57481 340.398312
L 50.257011 339.351203
L 49.95548 338.304093
L 49.673148 337.256984
L 49.412754 336.209874
L 49.176779 335.162765
L 48.967394 334.115655
L 48.786413 333.068546
L 48.635259 332.021437
L 48.514944 330.974327
L 48.426065 329.927218
L 48.368809 328.880108
L 48.342978 327.832999
L 48.348019 326.785889
L 48.383067 325.73878
L 48.446997 324.69167
L 48.538478 323.644561
L 48.656034 322.597451
L 48.798097 321.550342
L 48.963062 320.503233
L 49.149336 319.456123
L 49.355378 318.409014
L 49.579726 317.361904
L 49.821019 316.314795
L 50.078006 315.267685
L 50.34954 314.220576
L 50.634569 313.173466
L 50.932112 312.126357
L 51.241231 311.079247
L 51.560999 310.032138
L 51.890465 308.985029
L 52.228619 307.937919
L 52.574358 306.89081
L 52.926463 305.8437
L 53.283576 304.796591
L 53.644193 303.749481
L 54.006662 302.702372
L 54.369192 301.655262
L 54.729876 300.608153
L 55.086723 299.561043
L 55.437697 298.513934
L 55.780766 297.466825
L 56.113954 296.419715
L 56.435398 295.372606
L 56.743409 294.325496
L 57.036517 293.278387
L 57.313531 292.231277
L 57.573575 291.184168
L 57.816123 290.137058
L 58.041018 289.089949
L 58.248486 288.042839
L 58.439128 286.99573
L 58.613902 285.948621
L 58.774095 284.901511
L 58.921281 283.854402
L 59.057266 282.807292
L 59.18403 281.760183
L 59.303661 280.713073
L 59.418286 279.665964
L 59.53 278.618854
L 59.640803 277.571745
L 59.752536 276.524635
L 59.866827 275.477526
L 59.985046 274.430417
L 60.108274 273.383307
L 67.637084 273.383307
L 67.637084 273.383307
L 67.760311 274.430417
L 67.87853 275.477526
L 67.992821 276.524635
L 68.104554 277.571745
L 68.215357 278.618854
L 68.327071 279.665964
L 68.441696 280.713073
L 68.561327 281.760183
L 68.688091 282.807292
L 68.824076 283.854402
L 68.971262 284.901511
L 69.131455 285.948621
L 69.306229 286.99573
L 69.496871 288.042839
L 69.704339 289.089949
L 69.929235 290.137058
L 70.171782 291.184168
L 70.431826 292.231277
L 70.70884 293.278387
L 71.001948 294.325496
L 71.309959 295.372606
L 71.631404 296.419715
L 71.964591 297.466825
L 72.30766 298.513934
L 72.658634 299.561043
L 73.015481 300.608153
L 73.376165 301.655262
L 73.738695 302.702372
L 74.101164 303.749481
L 74.461781 304.796591
L 74.818895 305.8437
L 75.170999 306.89081
L 75.516739 307.937919
L 75.854892 308.985029
L 76.184358 310.032138
L 76.504126 311.079247
L 76.813245 312.126357
L 77.110788 313.173466
L 77.395817 314.220576
L 77.667351 315.267685
L 77.924338 316.314795
L 78.165632 317.361904
L 78.389979 318.409014
L 78.596021 319.456123
L 78.782295 320.503233
L 78.94726 321.550342
L 79.089323 322.597451
L 79.206879 323.644561
L 79.298361 324.69167
L 79.362291 325.73878
L 79.397338 326.785889
L 79.402379 327.832999
L 79.376548 328.880108
L 79.319293 329.927218
L 79.230413 330.974327
L 79.110098 332.021437
L 78.958944 333.068546
L 78.777963 334.115655
L 78.568578 335.162765
L 78.332604 336.209874
L 78.072209 337.256984
L 77.789877 338.304093
L 77.488346 339.351203
L 77.170547 340.398312
L 76.839533 341.445422
L 76.498406 342.492531
L 76.150245 343.539641
L 75.798037 344.58675
L 75.444607 345.633859
L 75.092563 346.680969
L 74.744247 347.728078
L 74.401693 348.775188
L 74.0666 349.822297
L 73.740315 350.869407
L 73.423832 351.916516
L 73.117789 352.963626
L 72.822492 354.010735
L 72.537932 355.057845
L 72.263822 356.104954
L 71.999633 357.152063
L 71.744629 358.199173
L 71.497921 359.246282
L 71.258501 360.293392
L 71.025292 361.340501
L 70.79719 362.387611
L 70.573099 363.43472
L 70.351971 364.48183
L 70.132835 365.528939
L 69.914823 366.576049
L 69.697194 367.623158
L 69.479349 368.670267
L 69.260842 369.717377
L 69.041387 370.764486
L 68.82086 371.811596
L 68.599294 372.858705
L 68.376879 373.905815
L 68.153941 374.952924
L 67.930941 376.000034
L 67.708447 377.047143
z
" clip-path="url(#p3bfe41bac7)" style="fill: #4b6f8a; fill-opacity: 0.7"/>
   </g>
   <g id="FillBetweenPolyCollection_2">
    <path d="M 130.231743 378.424083
L 121.75122 378.424083
L 121.485453 377.281195
L 121.217795 376.138308
L 120.948992 374.99542
L 120.679697 373.852532
L 120.410459 372.709645
L 120.141717 371.566757
L 119.873791 370.42387
L 119.60689 369.280982
L 119.341106 368.138094
L 119.076426 366.995207
L 118.812742 365.852319
L 118.549863 364.709431
L 118.287531 363.566544
L 118.025443 362.423656
L 117.763269 361.280768
L 117.500675 360.137881
L 117.237348 358.994993
L 116.973019 357.852106
L 116.707483 356.709218
L 116.440622 355.56633
L 116.172421 354.423443
L 115.902988 353.280555
L 115.632555 352.137667
L 115.361491 350.99478
L 115.090298 349.851892
L 114.819607 348.709005
L 114.550164 347.566117
L 114.282816 346.423229
L 114.018489 345.280342
L 113.758164 344.137454
L 113.502848 342.994566
L 113.25355 341.851679
L 113.01125 340.708791
L 112.776878 339.565904
L 112.551289 338.423016
L 112.335248 337.280128
L 112.129416 336.137241
L 111.934349 334.994353
L 111.750494 333.851465
L 111.578196 332.708578
L 111.417713 331.56569
L 111.269227 330.422803
L 111.132868 329.279915
L 111.008728 328.137027
L 110.896885 326.99414
L 110.797424 325.851252
L 110.710449 324.708364
L 110.636097 323.565477
L 110.574551 322.422589
L 110.526042 321.279701
L 110.490851 320.136814
L 110.469307 318.993926
L 110.461781 317.851039
L 110.468681 316.708151
L 110.490447 315.565263
L 110.527539 314.422376
L 110.580432 313.279488
L 110.649615 312.1366
L 110.735582 310.993713
L 110.838833 309.850825
L 110.959867 308.707938
L 111.099186 307.56505
L 111.257284 306.422162
L 111.434641 305.279275
L 111.631714 304.136387
L 111.848919 302.993499
L 112.08661 301.850612
L 112.345053 300.707724
L 112.624394 299.564837
L 112.924627 298.421949
L 113.245556 297.279061
L 113.58676 296.136174
L 113.947561 294.993286
L 114.326996 293.850398
L 114.723794 292.707511
L 115.136372 291.564623
L 115.562832 290.421735
L 116.000981 289.278848
L 116.448354 288.13596
L 116.902258 286.993073
L 117.359827 285.850185
L 117.818081 284.707297
L 118.274002 283.56441
L 118.724603 282.421522
L 119.167009 281.278634
L 119.598522 280.135747
L 120.016699 278.992859
L 120.419396 277.849972
L 120.804825 276.707084
L 121.171579 275.564196
L 121.518651 274.421309
L 121.845436 273.278421
L 122.151718 272.135533
L 122.437644 270.992646
L 122.703688 269.849758
L 122.9506 268.706871
L 123.179359 267.563983
L 123.39111 266.421095
L 123.587113 265.278208
L 128.39585 265.278208
L 128.39585 265.278208
L 128.591852 266.421095
L 128.803604 267.563983
L 129.032362 268.706871
L 129.279275 269.849758
L 129.545318 270.992646
L 129.831244 272.135533
L 130.137526 273.278421
L 130.464311 274.421309
L 130.811383 275.564196
L 131.178137 276.707084
L 131.563566 277.849972
L 131.966264 278.992859
L 132.38444 280.135747
L 132.815954 281.278634
L 133.258359 282.421522
L 133.70896 283.56441
L 134.164881 284.707297
L 134.623136 285.850185
L 135.080704 286.993073
L 135.534609 288.13596
L 135.981981 289.278848
L 136.42013 290.421735
L 136.846591 291.564623
L 137.259169 292.707511
L 137.655967 293.850398
L 138.035401 294.993286
L 138.396202 296.136174
L 138.737406 297.279061
L 139.058335 298.421949
L 139.358568 299.564837
L 139.637909 300.707724
L 139.896352 301.850612
L 140.134043 302.993499
L 140.351248 304.136387
L 140.548321 305.279275
L 140.725678 306.422162
L 140.883776 307.56505
L 141.023095 308.707938
L 141.14413 309.850825
L 141.24738 310.993713
L 141.333347 312.1366
L 141.40253 313.279488
L 141.455424 314.422376
L 141.492515 315.565263
L 141.514281 316.708151
L 141.521182 317.851039
L 141.513656 318.993926
L 141.492111 320.136814
L 141.45692 321.279701
L 141.408411 322.422589
L 141.346865 323.565477
L 141.272514 324.708364
L 141.185538 325.851252
L 141.086077 326.99414
L 140.974235 328.137027
L 140.850094 329.279915
L 140.713735 330.422803
L 140.56525 331.56569
L 140.404766 332.708578
L 140.232469 333.851465
L 140.048613 334.994353
L 139.853546 336.137241
L 139.647714 337.280128
L 139.431673 338.423016
L 139.206084 339.565904
L 138.971712 340.708791
L 138.729413 341.851679
L 138.480114 342.994566
L 138.224798 344.137454
L 137.964473 345.280342
L 137.700146 346.423229
L 137.432799 347.566117
L 137.163356 348.709005
L 136.892664 349.851892
L 136.621472 350.99478
L 136.350408 352.137667
L 136.079975 353.280555
L 135.810541 354.423443
L 135.542341 355.56633
L 135.275479 356.709218
L 135.009943 357.852106
L 134.745614 358.994993
L 134.482287 360.137881
L 134.219694 361.280768
L 133.957519 362.423656
L 133.695431 363.566544
L 133.4331 364.709431
L 133.17022 365.852319
L 132.906536 366.995207
L 132.641857 368.138094
L 132.376072 369.280982
L 132.109171 370.42387
L 131.841246 371.566757
L 131.572503 372.709645
L 131.303265 373.852532
L 131.03397 374.99542
L 130.765167 376.138308
L 130.49751 377.281195
L 130.231743 378.424083
z
" clip-path="url(#p3bfe41bac7)" style="fill: #c47b45; fill-opacity: 0.7"/>
   </g>
   <g id="FillBetweenPolyCollection_3">
    <path d="M 189.693918 398.016364
L 186.526649 398.016364
L 186.468969 396.761812
L 186.415045 395.50726
L 186.364842 394.252709
L 186.318192 392.998157
L 186.27479 391.743605
L 186.234193 390.489054
L 186.195822 389.234502
L 186.158957 387.97995
L 186.12275 386.725399
L 186.086219 385.470847
L 186.048262 384.216295
L 186.007663 382.961743
L 185.963103 381.707192
L 185.913171 380.45264
L 185.856382 379.198088
L 185.79119 377.943537
L 185.716014 376.688985
L 185.629253 375.434433
L 185.529315 374.179882
L 185.414639 372.92533
L 185.283726 371.670778
L 185.13516 370.416227
L 184.967639 369.161675
L 184.780003 367.907123
L 184.571253 366.652572
L 184.340584 365.39802
L 184.0874 364.143468
L 183.811335 362.888917
L 183.512273 361.634365
L 183.190361 360.379813
L 182.84602 359.125262
L 182.479956 357.87071
L 182.093163 356.616158
L 181.686926 355.361607
L 181.262822 354.107055
L 180.822709 352.852503
L 180.368723 351.597952
L 179.903254 350.3434
L 179.428932 349.088848
L 178.948601 347.834297
L 178.465281 346.579745
L 177.982141 345.325193
L 177.502447 344.070641
L 177.029523 342.81609
L 176.566701 341.561538
L 176.117266 340.306986
L 175.684409 339.052435
L 175.271173 337.797883
L 174.880409 336.543331
L 174.514728 335.28878
L 174.176469 334.034228
L 173.867662 332.779676
L 173.59001 331.525125
L 173.344868 330.270573
L 173.133241 329.016021
L 172.955781 327.76147
L 172.812796 326.506918
L 172.704262 325.252366
L 172.629844 323.997815
L 172.588915 322.743263
L 172.580583 321.488711
L 172.60372 320.23416
L 172.656984 318.979608
L 172.738851 317.725056
L 172.847639 316.470505
L 172.981535 315.215953
L 173.138619 313.961401
L 173.316889 312.70685
L 173.514284 311.452298
L 173.72871 310.197746
L 173.958061 308.943194
L 174.200248 307.688643
L 174.453219 306.434091
L 174.714992 305.179539
L 174.983678 303.924988
L 175.257509 302.670436
L 175.534869 301.415884
L 175.814312 300.161333
L 176.094596 298.906781
L 176.374698 297.652229
L 176.653829 296.397678
L 176.931453 295.143126
L 177.207285 293.888574
L 177.481293 292.634023
L 177.753687 291.379471
L 178.0249 290.124919
L 178.295562 288.870368
L 178.566469 287.615816
L 178.838533 286.361264
L 179.112745 285.106713
L 179.390114 283.852161
L 179.671617 282.597609
L 179.958141 281.343058
L 180.250432 280.088506
L 180.549043 278.833954
L 180.854294 277.579403
L 181.166237 276.324851
L 181.484631 275.070299
L 181.808934 273.815747
L 194.411633 273.815747
L 194.411633 273.815747
L 194.735936 275.070299
L 195.05433 276.324851
L 195.366273 277.579403
L 195.671524 278.833954
L 195.970135 280.088506
L 196.262426 281.343058
L 196.54895 282.597609
L 196.830453 283.852161
L 197.107822 285.106713
L 197.382034 286.361264
L 197.654099 287.615816
L 197.925005 288.870368
L 198.195668 290.124919
L 198.46688 291.379471
L 198.739274 292.634023
L 199.013282 293.888574
L 199.289115 295.143126
L 199.566739 296.397678
L 199.84587 297.652229
L 200.125971 298.906781
L 200.406255 300.161333
L 200.685699 301.415884
L 200.963058 302.670436
L 201.23689 303.924988
L 201.505576 305.179539
L 201.767349 306.434091
L 202.02032 307.688643
L 202.262506 308.943194
L 202.491858 310.197746
L 202.706284 311.452298
L 202.903679 312.70685
L 203.081949 313.961401
L 203.239033 315.215953
L 203.372929 316.470505
L 203.481717 317.725056
L 203.563584 318.979608
L 203.616848 320.23416
L 203.639984 321.488711
L 203.631653 322.743263
L 203.590723 323.997815
L 203.516305 325.252366
L 203.407771 326.506918
L 203.264787 327.76147
L 203.087327 329.016021
L 202.8757 330.270573
L 202.630558 331.525125
L 202.352905 332.779676
L 202.044098 334.034228
L 201.705839 335.28878
L 201.340159 336.543331
L 200.949394 337.797883
L 200.536159 339.052435
L 200.103301 340.306986
L 199.653866 341.561538
L 199.191044 342.81609
L 198.718121 344.070641
L 198.238427 345.325193
L 197.755286 346.579745
L 197.271967 347.834297
L 196.791635 349.088848
L 196.317314 350.3434
L 195.851845 351.597952
L 195.397858 352.852503
L 194.957746 354.107055
L 194.533642 355.361607
L 194.127405 356.616158
L 193.740612 357.87071
L 193.374547 359.125262
L 193.030207 360.379813
L 192.708295 361.634365
L 192.409233 362.888917
L 192.133168 364.143468
L 191.879983 365.39802
L 191.649314 366.652572
L 191.440565 367.907123
L 191.252928 369.161675
L 191.085408 370.416227
L 190.936841 371.670778
L 190.805928 372.92533
L 190.691253 374.179882
L 190.591315 375.434433
L 190.504554 376.688985
L 190.429377 377.943537
L 190.364186 379.198088
L 190.307396 380.45264
L 190.257464 381.707192
L 190.212904 382.961743
L 190.172306 384.216295
L 190.134349 385.470847
L 190.097818 386.725399
L 190.06161 387.97995
L 190.024746 389.234502
L 189.986374 390.489054
L 189.945778 391.743605
L 189.902375 392.998157
L 189.855725 394.252709
L 189.805522 395.50726
L 189.751599 396.761812
L 189.693918 398.016364
z
" clip-path="url(#p3bfe41bac7)" style="fill: #4f7c6a; fill-opacity: 0.7"/>
   </g>
   <g id="FillBetweenPolyCollection_4">
    <path d="M 252.469523 377.210126
L 247.988649 377.210126
L 247.825267 375.896323
L 247.661346 374.58252
L 247.497697 373.268717
L 247.334996 371.954914
L 247.173729 370.641111
L 247.014146 369.327308
L 246.85621 368.013505
L 246.699554 366.699702
L 246.54344 365.385899
L 246.386732 364.072096
L 246.227884 362.758293
L 246.064937 361.44449
L 245.895541 360.130688
L 245.716996 358.816885
L 245.52631 357.503082
L 245.320285 356.189279
L 245.095618 354.875476
L 244.84902 353.561673
L 244.577352 352.24787
L 244.27777 350.934067
L 243.947872 349.620264
L 243.58585 348.306461
L 243.190628 346.992658
L 242.761992 345.678855
L 242.300698 344.365053
L 241.808556 343.05125
L 241.288479 341.737447
L 240.744506 340.423644
L 240.181778 339.109841
L 239.606482 337.796038
L 239.025751 336.482235
L 238.447523 335.168432
L 237.880374 333.854629
L 237.33331 332.540826
L 236.815534 331.227023
L 236.336203 329.91322
L 235.904165 328.599417
L 235.527701 327.285615
L 235.214275 325.971812
L 234.970298 324.658009
L 234.800927 323.344206
L 234.709894 322.030403
L 234.699386 320.7166
L 234.769962 319.402797
L 234.920543 318.088994
L 235.148437 316.775191
L 235.449438 315.461388
L 235.81796 314.147585
L 236.247227 312.833782
L 236.729502 311.519979
L 237.256334 310.206177
L 237.818834 308.892374
L 238.40795 307.578571
L 239.014733 306.264768
L 239.630588 304.950965
L 240.247495 303.637162
L 240.85819 302.323359
L 241.456304 301.009556
L 242.036447 299.695753
L 242.594259 298.38195
L 243.126393 297.068147
L 243.630477 295.754344
L 244.105024 294.440542
L 244.549326 293.126739
L 244.963326 291.812936
L 245.347484 290.499133
L 245.702642 289.18533
L 246.029901 287.871527
L 246.330514 286.557724
L 246.605794 285.243921
L 246.857051 283.930118
L 247.085549 282.616315
L 247.292483 281.302512
L 247.47898 279.988709
L 247.646107 278.674906
L 247.794896 277.361104
L 247.926367 276.047301
L 248.041562 274.733498
L 248.141562 273.419695
L 248.227512 272.105892
L 248.300629 270.792089
L 248.362203 269.478286
L 248.413595 268.164483
L 248.456222 266.85068
L 248.491536 265.536877
L 248.521005 264.223074
L 248.546082 262.909271
L 248.568187 261.595468
L 248.588673 260.281666
L 248.608811 258.967863
L 248.629763 257.65406
L 248.652568 256.340257
L 248.678126 255.026454
L 248.707187 253.712651
L 248.740341 252.398848
L 248.778013 251.085045
L 248.820461 249.771242
L 248.867771 248.457439
L 248.919868 247.143636
L 251.538304 247.143636
L 251.538304 247.143636
L 251.590401 248.457439
L 251.637712 249.771242
L 251.680159 251.085045
L 251.717832 252.398848
L 251.750986 253.712651
L 251.780047 255.026454
L 251.805605 256.340257
L 251.82841 257.65406
L 251.849362 258.967863
L 251.869499 260.281666
L 251.889986 261.595468
L 251.91209 262.909271
L 251.937168 264.223074
L 251.966636 265.536877
L 252.001951 266.85068
L 252.044577 268.164483
L 252.09597 269.478286
L 252.157544 270.792089
L 252.23066 272.105892
L 252.316611 273.419695
L 252.416611 274.733498
L 252.531805 276.047301
L 252.663277 277.361104
L 252.812065 278.674906
L 252.979192 279.988709
L 253.165689 281.302512
L 253.372624 282.616315
L 253.601121 283.930118
L 253.852378 285.243921
L 254.127658 286.557724
L 254.428271 287.871527
L 254.755531 289.18533
L 255.110689 290.499133
L 255.494847 291.812936
L 255.908847 293.126739
L 256.353149 294.440542
L 256.827695 295.754344
L 257.331779 297.068147
L 257.863914 298.38195
L 258.421725 299.695753
L 259.001869 301.009556
L 259.599982 302.323359
L 260.210678 303.637162
L 260.827585 304.950965
L 261.44344 306.264768
L 262.050223 307.578571
L 262.639338 308.892374
L 263.201839 310.206177
L 263.728671 311.519979
L 264.210945 312.833782
L 264.640213 314.147585
L 265.008734 315.461388
L 265.309735 316.775191
L 265.53763 318.088994
L 265.68821 319.402797
L 265.758787 320.7166
L 265.748278 322.030403
L 265.657246 323.344206
L 265.487875 324.658009
L 265.243898 325.971812
L 264.930472 327.285615
L 264.554008 328.599417
L 264.12197 329.91322
L 263.642639 331.227023
L 263.124863 332.540826
L 262.577798 333.854629
L 262.01065 335.168432
L 261.432422 336.482235
L 260.85169 337.796038
L 260.276394 339.109841
L 259.713667 340.423644
L 259.169694 341.737447
L 258.649617 343.05125
L 258.157474 344.365053
L 257.696181 345.678855
L 257.267545 346.992658
L 256.872323 348.306461
L 256.510301 349.620264
L 256.180403 350.934067
L 255.88082 352.24787
L 255.609152 353.561673
L 255.362554 354.875476
L 255.137887 356.189279
L 254.931863 357.503082
L 254.741177 358.816885
L 254.562632 360.130688
L 254.393236 361.44449
L 254.230289 362.758293
L 254.071441 364.072096
L 253.914733 365.385899
L 253.758618 366.699702
L 253.601962 368.013505
L 253.444027 369.327308
L 253.284444 370.641111
L 253.123177 371.954914
L 252.960476 373.268717
L 252.796827 374.58252
L 252.632906 375.896323
L 252.469523 377.210126
z
" clip-path="url(#p3bfe41bac7)" style="fill: #8b6f47; fill-opacity: 0.7"/>
   </g>
   <g id="matplotlib.axis_5">
    <g id="xtick_10">
     <g id="line2d_46">
      <g>
       <use xlink:href="#m3c48ccfc00" x="63.872679" y="405.56" style="stroke: #000000; stroke-width: 1.2"/>
      </g>
     </g>
     <g id="text_27">
      <text style="font-size: 8px; font-family: 'Arial', 'Helvetica', 'Liberation Sans', 'DejaVu Sans', sans-serif; text-anchor: middle" x="63.872679" y="418.28625" transform="rotate(-0 63.872679 418.28625)">A</text>
     </g>
    </g>
    <g id="xtick_11">
     <g id="line2d_47">
      <g>
       <use xlink:href="#m3c48ccfc00" x="125.991481" y="405.56" style="stroke: #000000; stroke-width: 1.2"/>
      </g>
     </g>
     <g id="text_28">
      <text style="font-size: 8px; font-family: 'Arial', 'Helvetica', 'Liberation Sans', 'DejaVu Sans', sans-serif; text-anchor: middle" x="125.991481" y="418.28625" transform="rotate(-0 125.991481 418.28625)">B</text>
     </g>
    </g>
    <g id="xtick_12">
     <g id="line2d_48">
      <g>
       <use xlink:href="#m3c48ccfc00" x="188.110284" y="405.56" style="stroke: #000000; stroke-width: 1.2"/>
      </g>
     </g>
     <g id="text_29">
      <text style="font-size: 8px; font-family: 'Arial', 'Helvetica', 'Liberation Sans', 'DejaVu Sans', sans-serif; text-anchor: middle" x="188.110284" y="418.28625" transform="rotate(-0 188.110284 418.28625)">C</text>
     </g>
    </g>
    <g id="xtick_13">
     <g id="line2d_49">
      <g>
       <use xlink:href="#m3c48ccfc00" x="250.229086" y="405.56" style="stroke: #000000; stroke-width: 1.2"/>
      </g>
     </g>
     <g id="text_30">
      <text style="font-size: 8px; font-family: 'Arial', 'Helvetica', 'Liberation Sans', 'DejaVu Sans', sans-serif; text-anchor: middle" x="250.229086" y="418.28625" transform="rotate(-0 250.229086 418.28625)">D</text>
     </g>
    </g>
   </g>
   <g id="matplotlib.axis_6">
    <g id="ytick_13">
     <g id="line2d_50">
      <g>
       <use xlink:href="#m01bcc28712" x="37.472188" y="379.62115" style="stroke: #000000; stroke-width: 1.2"/>
      </g>
     </g>
     <g id="text_31">
      <text style="font-size: 9px; font-family: 'Arial', 'Helvetica', 'Liberation Sans', 'DejaVu Sans', sans-serif; text-anchor: end" x="30.472188" y="382.842166" transform="rotate(-0 30.472188 382.842166)">30</text>
     </g>
    </g>
    <g id="ytick_14">
     <g id="line2d_51">
      <g>
       <use xlink:href="#m01bcc28712" x="37.472188" y="349.939249" style="stroke: #000000; stroke-width: 1.2"/>
      </g>
     </g>
     <g id="text_32">
      <text style="font-size: 9px; font-family: 'Arial', 'Helvetica', 'Liberation Sans', 'DejaVu Sans', sans-serif; text-anchor: end" x="30.472188" y="353.160264" transform="rotate(-0 30.472188 353.160264)">40</text>
     </g>
    </g>
    <g id="ytick_15">
     <g id="line2d_52">
      <g>
       <use xlink:href="#m01bcc28712" x="37.472188" y="320.257347" style="stroke: #000000; stroke-width: 1.2"/>
      </g>
     </g>
     <g id="text_33">
      <text style="font-size: 9px; font-family: 'Arial', 'Helvetica', 'Liberation Sans', 'DejaVu Sans', sans-serif; text-anchor: end" x="30.472188" y="323.478362" transform="rotate(-0 30.472188 323.478362)">50</text>
     </g>
    </g>
    <g id="ytick_16">
     <g id="line2d_53">
      <g>
       <use xlink:href="#m01bcc28712" x="37.472188" y="290.575445" style="stroke: #000000; stroke-width: 1.2"/>
      </g>
     </g>
     <g id="text_34">
      <text style="font-size: 9px; font-family: 'Arial', 'Helvetica', 'Liberation Sans', 'DejaVu Sans', sans-serif; text-anchor: end" x="30.472188" y="293.796461" transform="rotate(-0 30.472188 293.796461)">60</text>
     </g>
    </g>
    <g id="ytick_17">
     <g id="line2d_54">
      <g>
       <use xlink:href="#m01bcc28712" x="37.472188" y="260.893543" style="stroke: #000000; stroke-width: 1.2"/>
      </g>
     </g>
     <g id="text_35">
      <text style="font-size: 9px; font-family: 'Arial', 'Helvetica', 'Liberation Sans', 'DejaVu Sans', sans-serif; text-anchor: end" x="30.472188" y="264.114559" transform="rotate(-0 30.472188 264.114559)">70</text>
     </g>
    </g>
    <g id="text_36">
     <text style="font-size: 10px; font-family: 'Arial', 'Helvetica', 'Liberation Sans', 'DejaVu Sans', sans-serif; text-anchor: middle" x="14.357813" y="322.58" transform="rotate(-90 14.357813 322.58)">Property</text>
    </g>
   </g>
   <g id="LineCollection_1">
    <path d="M 56.107828 325.841904
L 71.637529 325.841904
" clip-path="url(#p3bfe41bac7)" style="fill: none; stroke: #1f77b4; stroke-width: 1.5"/>
    <path d="M 118.226631 323.853679
L 133.756332 323.853679
" clip-path="url(#p3bfe41bac7)" style="fill: none; stroke: #1f77b4; stroke-width: 1.5"/>
    <path d="M 180.345433 319.874902
L 195.875134 319.874902
" clip-path="url(#p3bfe41bac7)" style="fill: none; stroke: #1f77b4; stroke-width: 1.5"/>
    <path d="M 242.464236 320.858454
L 257.993937 320.858454
" clip-path="url(#p3bfe41bac7)" style="fill: none; stroke: #1f77b4; stroke-width: 1.5"/>
   </g>
   <g id="LineCollection_2">
    <path d="M 56.107828 273.383307
L 71.637529 273.383307
" clip-path="url(#p3bfe41bac7)" style="fill: none; stroke: #1f77b4; stroke-width: 1.5"/>
    <path d="M 118.226631 265.278208
L 133.756332 265.278208
" clip-path="url(#p3bfe41bac7)" style="fill: none; stroke: #1f77b4; stroke-width: 1.5"/>
    <path d="M 180.345433 273.815747
L 195.875134 273.815747
" clip-path="url(#p3bfe41bac7)" style="fill: none; stroke: #1f77b4; stroke-width: 1.5"/>
    <path d="M 242.464236 247.143636
L 257.993937 247.143636
" clip-path="url(#p3bfe41bac7)" style="fill: none; stroke: #1f77b4; stroke-width: 1.5"/>
   </g>
   <g id="LineCollection_3">
    <path d="M 56.107828 377.047143
L 71.637529 377.047143
" clip-path="url(#p3bfe41bac7)" style="fill: none; stroke: #1f77b4; stroke-width: 1.5"/>
    <path d="M 118.226631 378.424083
L 133.756332 378.424083
" clip-path="url(#p3bfe41bac7)" style="fill: none; stroke: #1f77b4; stroke-width: 1.5"/>
    <path d="M 180.345433 398.016364
L 195.875134 398.016364
" clip-path="url(#p3bfe41bac7)" style="fill: none; stroke: #1f77b4; stroke-width: 1.5"/>
    <path d="M 242.464236 377.210126
L 257.993937 377.210126
" clip-path="url(#p3bfe41bac7)" style="fill: none; stroke: #1f77b4; stroke-width: 1.5"/>
   </g>
   <g id="LineCollection_4">
    <path d="M 63.872679 377.047143
L 63.872679 273.383307
" clip-path="url(#p3bfe41bac7)" style="fill: none; stroke: #1f77b4; stroke-width: 1.5"/>
    <path d="M 125.991481 378.424083
L 125.991481 265.278208
" clip-path="url(#p3bfe41bac7)" style="fill: none; stroke: #1f77b4; stroke-width: 1.5"/>
    <path d="M 188.110284 398.016364
L 188.110284 273.815747
" clip-path="url(#p3bfe41bac7)" style="fill: none; stroke: #1f77b4; stroke-width: 1.5"/>
    <path d="M 250.229086 377.210126
L 250.229086 247.143636
" clip-path="url(#p3bfe41bac7)" style="fill: none; stroke: #1f77b4; stroke-width: 1.5"/>
   </g>
   <g id="LineCollection_5">
    <path d="M 56.107828 327.207221
L 71.637529 327.207221
" clip-path="url(#p3bfe41bac7)" style="fill: none; stroke: #1f77b4; stroke-width: 1.5"/>
    <path d="M 118.226631 322.173989
L 133.756332 322.173989
" clip-path="url(#p3bfe41bac7)" style="fill: none; stroke: #1f77b4; stroke-width: 1.5"/>
    <path d="M 180.345433 319.497178
L 195.875134 319.497178
" clip-path="url(#p3bfe41bac7)" style="fill: none; stroke: #1f77b4; stroke-width: 1.5"/>
    <path d="M 242.464236 321.165994
L 257.993937 321.165994
" clip-path="url(#p3bfe41bac7)" style="fill: none; stroke: #1f77b4; stroke-width: 1.5"/>
   </g>
   <g id="patch_37">
    <path d="M 37.472188 405.56
L 37.472188 239.6
" style="fill: none; stroke: #000000; stroke-width: 1.5; stroke-linejoin: miter; stroke-linecap: square"/>
   </g>
   <g id="patch_38">
    <path d="M 37.472188 405.56
L 276.629577 405.56
" style="fill: none; stroke: #000000; stroke-width: 1.5; stroke-linejoin: miter; stroke-linecap: square"/>
   </g>
   <g id="text_37">
    <text style="font-weight: 700; font-size: 12px; font-family: 'Arial', 'Helvetica', 'Liberation Sans', 'DejaVu Sans', sans-serif; text-anchor: start" x="42.255335" y="251.508575" transform="rotate(-0 42.255335 251.508575)">c</text>
   </g>
  </g>
  <g id="axes_4">
   <g id="patch_39">
    <path d="M 318.589577 405.56
L 557.746967 405.56
L 557.746967 239.6
L 318.589577 239.6
z
" style="fill: #ffffff"/>
   </g>
   <g id="matplotlib.axis_7">
    <g id="xtick_14">
     <g id="line2d_55">
      <g>
       <use xlink:href="#m3c48ccfc00" x="329.460368" y="405.56" style="stroke: #000000; stroke-width: 1.2"/>
      </g>
     </g>
     <g id="text_38">
      <text style="font-size: 8px; font-family: 'Arial', 'Helvetica', 'Liberation Sans', 'DejaVu Sans', sans-serif; text-anchor: middle" x="329.460368" y="418.28625" transform="rotate(-0 329.460368 418.28625)">A</text>
     </g>
    </g>
    <g id="xtick_15">
     <g id="line2d_56">
      <g>
       <use xlink:href="#m3c48ccfc00" x="401.932304" y="405.56" style="stroke: #000000; stroke-width: 1.2"/>
      </g>
     </g>
     <g id="text_39">
      <text style="font-size: 8px; font-family: 'Arial', 'Helvetica', 'Liberation Sans', 'DejaVu Sans', sans-serif; text-anchor: middle" x="401.932304" y="418.28625" transform="rotate(-0 401.932304 418.28625)">B</text>
     </g>
    </g>
    <g id="xtick_16">
     <g id="line2d_57">
      <g>
       <use xlink:href="#m3c48ccfc00" x="474.404241" y="405.56" style="stroke: #000000; stroke-width: 1.2"/>
      </g>
     </g>
     <g id="text_40">
      <text style="font-size: 8px; font-family: 'Arial', 'Helvetica', 'Liberation Sans', 'DejaVu Sans', sans-serif; text-anchor: middle" x="474.404241" y="418.28625" transform="rotate(-0 474.404241 418.28625)">C</text>
     </g>
    </g>
    <g id="xtick_17">
     <g id="line2d_58">
      <g>
       <use xlink:href="#m3c48ccfc00" x="546.876177" y="405.56" style="stroke: #000000; stroke-width: 1.2"/>
      </g>
     </g>
     <g id="text_41">
      <text style="font-size: 8px; font-family: 'Arial', 'Helvetica', 'Liberation Sans', 'DejaVu Sans', sans-serif; text-anchor: middle" x="546.876177" y="418.28625" transform="rotate(-0 546.876177 418.28625)">D</text>
     </g>
    </g>
   </g>
   <g id="matplotlib.axis_8">
    <g id="ytick_18">
     <g id="line2d_59">
      <g>
       <use xlink:href="#m01bcc28712" x="318.589577" y="392.67116" style="stroke: #000000; stroke-width: 1.2"/>
      </g>
     </g>
     <g id="text_42">
      <text style="font-size: 9px; font-family: 'Arial', 'Helvetica', 'Liberation Sans', 'DejaVu Sans', sans-serif; text-anchor: end" x="311.589577" y="395.892175" transform="rotate(-0 311.589577 395.892175)">40</text>
     </g>
    </g>
    <g id="ytick_19">
     <g id="line2d_60">
      <g>
       <use xlink:href="#m01bcc28712" x="318.589577" y="356.073253" style="stroke: #000000; stroke-width: 1.2"/>
      </g>
     </g>
     <g id="text_43">
      <text style="font-size: 9px; font-family: 'Arial', 'Helvetica', 'Liberation Sans', 'DejaVu Sans', sans-serif; text-anchor: end" x="311.589577" y="359.294269" transform="rotate(-0 311.589577 359.294269)">45</text>
     </g>
    </g>
    <g id="ytick_20">
     <g id="line2d_61">
      <g>
       <use xlink:href="#m01bcc28712" x="318.589577" y="319.475347" style="stroke: #000000; stroke-width: 1.2"/>
      </g>
     </g>
     <g id="text_44">
      <text style="font-size: 9px; font-family: 'Arial', 'Helvetica', 'Liberation Sans', 'DejaVu Sans', sans-serif; text-anchor: end" x="311.589577" y="322.696362" transform="rotate(-0 311.589577 322.696362)">50</text>
     </g>
    </g>
    <g id="ytick_21">
     <g id="line2d_62">
      <g>
       <use xlink:href="#m01bcc28712" x="318.589577" y="282.87744" style="stroke: #000000; stroke-width: 1.2"/>
      </g>
     </g>
     <g id="text_45">
      <text style="font-size: 9px; font-family: 'Arial', 'Helvetica', 'Liberation Sans', 'DejaVu Sans', sans-serif; text-anchor: end" x="311.589577" y="286.098456" transform="rotate(-0 311.589577 286.098456)">55</text>
     </g>
    </g>
    <g id="ytick_22">
     <g id="line2d_63">
      <g>
       <use xlink:href="#m01bcc28712" x="318.589577" y="246.279534" style="stroke: #000000; stroke-width: 1.2"/>
      </g>
     </g>
     <g id="text_46">
      <text style="font-size: 9px; font-family: 'Arial', 'Helvetica', 'Liberation Sans', 'DejaVu Sans', sans-serif; text-anchor: end" x="311.589577" y="249.500549" transform="rotate(-0 311.589577 249.500549)">60</text>
     </g>
    </g>
    <g id="text_47">
     <text style="font-size: 10px; font-family: 'Arial', 'Helvetica', 'Liberation Sans', 'DejaVu Sans', sans-serif; text-anchor: middle" x="295.475202" y="322.58" transform="rotate(-90 295.475202 322.58)">Property</text>
    </g>
   </g>
   <g id="LineCollection_6">
    <path d="M 329.460368 398.016364
L 329.460368 268.47746
" clip-path="url(#pc37907c580)" style="fill: none; stroke: #4b6f8a; stroke-width: 1.5"/>
    <path d="M 401.932304 395.351208
L 401.932304 261.336656
" clip-path="url(#pc37907c580)" style="fill: none; stroke: #4b6f8a; stroke-width: 1.5"/>
    <path d="M 474.404241 389.920834
L 474.404241 247.143636
" clip-path="url(#pc37907c580)" style="fill: none; stroke: #4b6f8a; stroke-width: 1.5"/>
    <path d="M 546.876177 386.361544
L 546.876177 255.553818
" clip-path="url(#pc37907c580)" style="fill: none; stroke: #4b6f8a; stroke-width: 1.5"/>
   </g>
   <g id="line2d_64">
    <defs>
     <path id="m3a353fba28" d="M 5 0
L -5 -0
" style="stroke: #4b6f8a; stroke-width: 1.5"/>
    </defs>
    <g clip-path="url(#pc37907c580)">
     <use xlink:href="#m3a353fba28" x="329.460368" y="398.016364" style="fill: #4b6f8a; stroke: #4b6f8a; stroke-width: 1.5"/>
     <use xlink:href="#m3a353fba28" x="401.932304" y="395.351208" style="fill: #4b6f8a; stroke: #4b6f8a; stroke-width: 1.5"/>
     <use xlink:href="#m3a353fba28" x="474.404241" y="389.920834" style="fill: #4b6f8a; stroke: #4b6f8a; stroke-width: 1.5"/>
     <use xlink:href="#m3a353fba28" x="546.876177" y="386.361544" style="fill: #4b6f8a; stroke: #4b6f8a; stroke-width: 1.5"/>
    </g>
   </g>
   <g id="line2d_65">
    <g clip-path="url(#pc37907c580)">
     <use xlink:href="#m3a353fba28" x="329.460368" y="268.47746" style="fill: #4b6f8a; stroke: #4b6f8a; stroke-width: 1.5"/>
     <use xlink:href="#m3a353fba28" x="401.932304" y="261.336656" style="fill: #4b6f8a; stroke: #4b6f8a; stroke-width: 1.5"/>
     <use xlink:href="#m3a353fba28" x="474.404241" y="247.143636" style="fill: #4b6f8a; stroke: #4b6f8a; stroke-width: 1.5"/>
     <use xlink:href="#m3a353fba28" x="546.876177" y="255.553818" style="fill: #4b6f8a; stroke: #4b6f8a; stroke-width: 1.5"/>
    </g>
   </g>
   <g id="line2d_66">
    <defs>
     <path id="md1fa8b120b" d="M 0 4
C 1.060812 4 2.078319 3.578535 2.828427 2.828427
C 3.578535 2.078319 4 1.060812 4 0
C 4 -1.060812 3.578535 -2.078319 2.828427 -2.828427
C 2.078319 -3.578535 1.060812 -4 0 -4
C -1.060812 -4 -2.078319 -3.578535 -2.828427 -2.828427
C -3.578535 -2.078319 -4 -1.060812 -4 0
C -4 1.060812 -3.578535 2.078319 -2.828427 2.828427
C -2.078319 3.578535 -1.060812 4 0 4
z
" style="stroke: #4b6f8a"/>
    </defs>
    <g clip-path="url(#pc37907c580)">
     <use xlink:href="#md1fa8b120b" x="329.460368" y="333.246912" style="fill: #4b6f8a; stroke: #4b6f8a"/>
     <use xlink:href="#md1fa8b120b" x="401.932304" y="328.343932" style="fill: #4b6f8a; stroke: #4b6f8a"/>
     <use xlink:href="#md1fa8b120b" x="474.404241" y="318.532235" style="fill: #4b6f8a; stroke: #4b6f8a"/>
     <use xlink:href="#md1fa8b120b" x="546.876177" y="320.957681" style="fill: #4b6f8a; stroke: #4b6f8a"/>
    </g>
   </g>
   <g id="patch_40">
    <path d="M 318.589577 405.56
L 318.589577 239.6
" style="fill: none; stroke: #000000; stroke-width: 1.5; stroke-linejoin: miter; stroke-linecap: square"/>
   </g>
   <g id="patch_41">
    <path d="M 318.589577 405.56
L 557.746967 405.56
" style="fill: none; stroke: #000000; stroke-width: 1.5; stroke-linejoin: miter; stroke-linecap: square"/>
   </g>
   <g id="text_48">
    <text style="font-weight: 700; font-size: 12px; font-family: 'Arial', 'Helvetica', 'Liberation Sans', 'DejaVu Sans', sans-serif; text-anchor: start" x="323.372725" y="251.508575" transform="rotate(-0 323.372725 251.508575)">d</text>
   </g>
  </g>
  <g id="text_49">
   <text style="font-weight: 700; font-size: 14px; font-family: 'Arial', 'Helvetica', 'Liberation Sans', 'DejaVu Sans', sans-serif; text-anchor: middle" x="283.512187" y="17.220937" transform="rotate(-0 283.512187 17.220937)">Distribution Plots</text>
  </g>
 </g>
 <defs>
  <clipPath id="p9d63515758">
   <rect x="37.472188" y="33.12" width="239.15739" height="165.96"/>
  </clipPath>
  <clipPath id="p3bdbc03ca0">
   <rect x="318.589577" y="33.12" width="239.15739" height="165.96"/>
  </clipPath>
  <clipPath id="p3bfe41bac7">
   <rect x="37.472188" y="239.6" width="239.15739" height="165.96"/>
  </clipPath>
  <clipPath id="pc37907c580">
   <rect x="318.589577" y="239.6" width="239.15739" height="165.96"/>
  </clipPath>
 </defs>
</svg>
