<?xml version="1.0" encoding="utf-8" standalone="no"?>
<!DOCTYPE svg PUBLIC "-//W3C//DTD SVG 1.1//EN"
  "http://www.w3.org/Graphics/SVG/1.1/DTD/svg11.dtd">
<svg xmlns:xlink="http://www.w3.org/1999/xlink" width="640.237869pt" height="496.877344pt" viewBox="0 0 640.237869 496.877344" xmlns="http://www.w3.org/2000/svg" version="1.1">
 <metadata>
  <rdf:RDF xmlns:dc="http://purl.org/dc/elements/1.1/" xmlns:cc="http://creativecommons.org/ns#" xmlns:rdf="http://www.w3.org/1999/02/22-rdf-syntax-ns#">
   <cc:Work>
    <dc:type rdf:resource="http://purl.org/dc/dcmitype/StillImage"/>
    <dc:date>2026-06-19T17:21:35.152432</dc:date>
    <dc:format>image/svg+xml</dc:format>
    <dc:creator>
     <cc:Agent>
      <dc:title>Matplotlib v3.11.0, https://matplotlib.org/</dc:title>
     </cc:Agent>
    </dc:creator>
   </cc:Work>
  </rdf:RDF>
 </metadata>
 <defs>
  <style type="text/css">*{stroke-linejoin: round; stroke-linecap: butt}</style>
 </defs>
 <g id="figure_1">
  <g id="patch_1">
   <path d="M 0 496.877344 
L 640.237869 496.877344 
L 640.237869 0 
L 0 0 
z
" style="fill: #ffffff"/>
  </g>
  <g id="axes_1">
   <g id="patch_2">
    <path d="M 47.604336 244.385566 
L 319.660966 244.385566 
L 319.660966 68.381719 
L 47.604336 68.381719 
z
" style="fill: #ffffff"/>
   </g>
   <g id="matplotlib.axis_1">
    <g id="xtick_1">
     <g id="line2d_1">
      <path d="M 68.793301 244.385566 
L 68.793301 68.381719 
" clip-path="url(#p118b739adf)" style="fill: none; stroke: #e8e2d6; stroke-opacity: 0.65; stroke-width: 0.7; stroke-linecap: square"/>
     </g>
     <g id="line2d_2">
      <defs>
       <path id="me651918ab2" d="M 0 0 
L 0 3.5 
" style="stroke: #000000; stroke-width: 1.2"/>
      </defs>
      <g>
       <use xlink:href="#me651918ab2" x="68.793301" y="244.385566" style="stroke: #000000; stroke-width: 1.2"/>
      </g>
     </g>
     <g id="text_1">
      <text style="font-size: 9px; font-family: 'Arial', 'Helvetica', 'Liberation Sans', 'DejaVu Sans', sans-serif; text-anchor: middle" x="68.793301" y="257.937812" transform="rotate(-0 68.793301 257.937812)">5.70</text>
     </g>
    </g>
    <g id="xtick_2">
     <g id="line2d_3">
      <path d="M 102.662769 244.385566 
L 102.662769 68.381719 
" clip-path="url(#p118b739adf)" style="fill: none; stroke: #e8e2d6; stroke-opacity: 0.65; stroke-width: 0.7; stroke-linecap: square"/>
     </g>
     <g id="line2d_4">
      <g>
       <use xlink:href="#me651918ab2" x="102.662769" y="244.385566" style="stroke: #000000; stroke-width: 1.2"/>
      </g>
     </g>
     <g id="text_2">
      <text style="font-size: 9px; font-family: 'Arial', 'Helvetica', 'Liberation Sans', 'DejaVu Sans', sans-serif; text-anchor: middle" x="102.662769" y="257.937812" transform="rotate(-0 102.662769 257.937812)">5.75</text>
     </g>
    </g>
    <g id="xtick_3">
     <g id="line2d_5">
      <path d="M 136.532237 244.385566 
L 136.532237 68.381719 
" clip-path="url(#p118b739adf)" style="fill: none; stroke: #e8e2d6; stroke-opacity: 0.65; stroke-width: 0.7; stroke-linecap: square"/>
     </g>
     <g id="line2d_6">
      <g>
       <use xlink:href="#me651918ab2" x="136.532237" y="244.385566" style="stroke: #000000; stroke-width: 1.2"/>
      </g>
     </g>
     <g id="text_3">
      <text style="font-size: 9px; font-family: 'Arial', 'Helvetica', 'Liberation Sans', 'DejaVu Sans', sans-serif; text-anchor: middle" x="136.532237" y="257.937812" transform="rotate(-0 136.532237 257.937812)">5.80</text>
     </g>
    </g>
    <g id="xtick_4">
     <g id="line2d_7">
      <path d="M 170.401704 244.385566 
L 170.401704 68.381719 
" clip-path="url(#p118b739adf)" style="fill: none; stroke: #e8e2d6; stroke-opacity: 0.65; stroke-width: 0.7; stroke-linecap: square"/>
     </g>
     <g id="line2d_8">
      <g>
       <use xlink:href="#me651918ab2" x="170.401704" y="244.385566" style="stroke: #000000; stroke-width: 1.2"/>
      </g>
     </g>
     <g id="text_4">
      <text style="font-size: 9px; font-family: 'Arial', 'Helvetica', 'Liberation Sans', 'DejaVu Sans', sans-serif; text-anchor: middle" x="170.401704" y="257.937812" transform="rotate(-0 170.401704 257.937812)">5.85</text>
     </g>
    </g>
    <g id="xtick_5">
     <g id="line2d_9">
      <path d="M 204.271172 244.385566 
L 204.271172 68.381719 
" clip-path="url(#p118b739adf)" style="fill: none; stroke: #e8e2d6; stroke-opacity: 0.65; stroke-width: 0.7; stroke-linecap: square"/>
     </g>
     <g id="line2d_10">
      <g>
       <use xlink:href="#me651918ab2" x="204.271172" y="244.385566" style="stroke: #000000; stroke-width: 1.2"/>
      </g>
     </g>
     <g id="text_5">
      <text style="font-size: 9px; font-family: 'Arial', 'Helvetica', 'Liberation Sans', 'DejaVu Sans', sans-serif; text-anchor: middle" x="204.271172" y="257.937812" transform="rotate(-0 204.271172 257.937812)">5.90</text>
     </g>
    </g>
    <g id="xtick_6">
     <g id="line2d_11">
      <path d="M 238.140639 244.385566 
L 238.140639 68.381719 
" clip-path="url(#p118b739adf)" style="fill: none; stroke: #e8e2d6; stroke-opacity: 0.65; stroke-width: 0.7; stroke-linecap: square"/>
     </g>
     <g id="line2d_12">
      <g>
       <use xlink:href="#me651918ab2" x="238.140639" y="244.385566" style="stroke: #000000; stroke-width: 1.2"/>
      </g>
     </g>
     <g id="text_6">
      <text style="font-size: 9px; font-family: 'Arial', 'Helvetica', 'Liberation Sans', 'DejaVu Sans', sans-serif; text-anchor: middle" x="238.140639" y="257.937812" transform="rotate(-0 238.140639 257.937812)">5.95</text>
     </g>
    </g>
    <g id="xtick_7">
     <g id="line2d_13">
      <path d="M 272.010107 244.385566 
L 272.010107 68.381719 
" clip-path="url(#p118b739adf)" style="fill: none; stroke: #e8e2d6; stroke-opacity: 0.65; stroke-width: 0.7; stroke-linecap: square"/>
     </g>
     <g id="line2d_14">
      <g>
       <use xlink:href="#me651918ab2" x="272.010107" y="244.385566" style="stroke: #000000; stroke-width: 1.2"/>
      </g>
     </g>
     <g id="text_7">
      <text style="font-size: 9px; font-family: 'Arial', 'Helvetica', 'Liberation Sans', 'DejaVu Sans', sans-serif; text-anchor: middle" x="272.010107" y="257.937812" transform="rotate(-0 272.010107 257.937812)">6.00</text>
     </g>
    </g>
    <g id="xtick_8">
     <g id="line2d_15">
      <path d="M 305.879575 244.385566 
L 305.879575 68.381719 
" clip-path="url(#p118b739adf)" style="fill: none; stroke: #e8e2d6; stroke-opacity: 0.65; stroke-width: 0.7; stroke-linecap: square"/>
     </g>
     <g id="line2d_16">
      <g>
       <use xlink:href="#me651918ab2" x="305.879575" y="244.385566" style="stroke: #000000; stroke-width: 1.2"/>
      </g>
     </g>
     <g id="text_8">
      <text style="font-size: 9px; font-family: 'Arial', 'Helvetica', 'Liberation Sans', 'DejaVu Sans', sans-serif; text-anchor: middle" x="305.879575" y="257.937812" transform="rotate(-0 305.879575 257.937812)">6.05</text>
     </g>
    </g>
    <g id="text_9">
     <text style="font-size: 10px; font-family: 'Arial', 'Helvetica', 'Liberation Sans', 'DejaVu Sans', sans-serif; text-anchor: middle" x="183.632651" y="271.112129" transform="rotate(-0 183.632651 271.112129)">ln(strength)</text>
    </g>
   </g>
   <g id="matplotlib.axis_2">
    <g id="ytick_1">
     <g id="line2d_17">
      <path d="M 47.604336 233.999714 
L 319.660966 233.999714 
" clip-path="url(#p118b739adf)" style="fill: none; stroke: #e8e2d6; stroke-opacity: 0.65; stroke-width: 0.7; stroke-linecap: square"/>
     </g>
     <g id="line2d_18">
      <defs>
       <path id="mf85153a6f5" d="M 0 0 
L -3.5 0 
" style="stroke: #000000; stroke-width: 1.2"/>
      </defs>
      <g>
       <use xlink:href="#mf85153a6f5" x="47.604336" y="233.999714" style="stroke: #000000; stroke-width: 1.2"/>
      </g>
     </g>
     <g id="text_10">
      <text style="font-size: 9px; font-family: 'Arial', 'Helvetica', 'Liberation Sans', 'DejaVu Sans', sans-serif; text-anchor: end" x="40.604336" y="237.275837" transform="rotate(-0 40.604336 237.275837)">−4</text>
     </g>
    </g>
    <g id="ytick_2">
     <g id="line2d_19">
      <path d="M 47.604336 206.244038 
L 319.660966 206.244038 
" clip-path="url(#p118b739adf)" style="fill: none; stroke: #e8e2d6; stroke-opacity: 0.65; stroke-width: 0.7; stroke-linecap: square"/>
     </g>
     <g id="line2d_20">
      <g>
       <use xlink:href="#mf85153a6f5" x="47.604336" y="206.244038" style="stroke: #000000; stroke-width: 1.2"/>
      </g>
     </g>
     <g id="text_11">
      <text style="font-size: 9px; font-family: 'Arial', 'Helvetica', 'Liberation Sans', 'DejaVu Sans', sans-serif; text-anchor: end" x="40.604336" y="209.520161" transform="rotate(-0 40.604336 209.520161)">−3</text>
     </g>
    </g>
    <g id="ytick_3">
     <g id="line2d_21">
      <path d="M 47.604336 178.488361 
L 319.660966 178.488361 
" clip-path="url(#p118b739adf)" style="fill: none; stroke: #e8e2d6; stroke-opacity: 0.65; stroke-width: 0.7; stroke-linecap: square"/>
     </g>
     <g id="line2d_22">
      <g>
       <use xlink:href="#mf85153a6f5" x="47.604336" y="178.488361" style="stroke: #000000; stroke-width: 1.2"/>
      </g>
     </g>
     <g id="text_12">
      <text style="font-size: 9px; font-family: 'Arial', 'Helvetica', 'Liberation Sans', 'DejaVu Sans', sans-serif; text-anchor: end" x="40.604336" y="181.764484" transform="rotate(-0 40.604336 181.764484)">−2</text>
     </g>
    </g>
    <g id="ytick_4">
     <g id="line2d_23">
      <path d="M 47.604336 150.732685 
L 319.660966 150.732685 
" clip-path="url(#p118b739adf)" style="fill: none; stroke: #e8e2d6; stroke-opacity: 0.65; stroke-width: 0.7; stroke-linecap: square"/>
     </g>
     <g id="line2d_24">
      <g>
       <use xlink:href="#mf85153a6f5" x="47.604336" y="150.732685" style="stroke: #000000; stroke-width: 1.2"/>
      </g>
     </g>
     <g id="text_13">
      <text style="font-size: 9px; font-family: 'Arial', 'Helvetica', 'Liberation Sans', 'DejaVu Sans', sans-serif; text-anchor: end" x="40.604336" y="154.008808" transform="rotate(-0 40.604336 154.008808)">−1</text>
     </g>
    </g>
    <g id="ytick_5">
     <g id="line2d_25">
      <path d="M 47.604336 122.977009 
L 319.660966 122.977009 
" clip-path="url(#p118b739adf)" style="fill: none; stroke: #e8e2d6; stroke-opacity: 0.65; stroke-width: 0.7; stroke-linecap: square"/>
     </g>
     <g id="line2d_26">
      <g>
       <use xlink:href="#mf85153a6f5" x="47.604336" y="122.977009" style="stroke: #000000; stroke-width: 1.2"/>
      </g>
     </g>
     <g id="text_14">
      <text style="font-size: 9px; font-family: 'Arial', 'Helvetica', 'Liberation Sans', 'DejaVu Sans', sans-serif; text-anchor: end" x="40.604336" y="126.253132" transform="rotate(-0 40.604336 126.253132)">0</text>
     </g>
    </g>
    <g id="ytick_6">
     <g id="line2d_27">
      <path d="M 47.604336 95.221332 
L 319.660966 95.221332 
" clip-path="url(#p118b739adf)" style="fill: none; stroke: #e8e2d6; stroke-opacity: 0.65; stroke-width: 0.7; stroke-linecap: square"/>
     </g>
     <g id="line2d_28">
      <g>
       <use xlink:href="#mf85153a6f5" x="47.604336" y="95.221332" style="stroke: #000000; stroke-width: 1.2"/>
      </g>
     </g>
     <g id="text_15">
      <text style="font-size: 9px; font-family: 'Arial', 'Helvetica', 'Liberation Sans', 'DejaVu Sans', sans-serif; text-anchor: end" x="40.604336" y="98.497455" transform="rotate(-0 40.604336 98.497455)">1</text>
     </g>
    </g>
    <g id="text_16">
     <text style="font-size: 10px; font-family: 'Arial', 'Helvetica', 'Liberation Sans', 'DejaVu Sans', sans-serif; text-anchor: middle" x="24.238242" y="156.383643" transform="rotate(-90 24.238242 156.383643)">ln(ln(1/(1-P)))</text>
    </g>
   </g>
   <g id="line2d_29">
    <path d="M 59.970546 212.874925 
L 62.468771 211.496208 
L 64.966995 210.11749 
L 67.465219 208.738773 
L 69.963444 207.360055 
L 72.461668 205.981338 
L 74.959892 204.60262 
L 77.458117 203.223903 
L 79.956341 201.845186 
L 82.454565 200.466468 
L 84.95279 199.087751 
L 87.451014 197.709033 
L 89.949238 196.330316 
L 92.447463 194.951598 
L 94.945687 193.572881 
L 97.443911 192.194163 
L 99.942136 190.815446 
L 102.44036 189.436728 
L 104.938584 188.058011 
L 107.436809 186.679293 
L 109.935033 185.300576 
L 112.433257 183.921858 
L 114.931482 182.543141 
L 117.429706 181.164423 
L 119.92793 179.785706 
L 122.426155 178.406988 
L 124.924379 177.028271 
L 127.422603 175.649553 
L 129.920828 174.270836 
L 132.419052 172.892118 
L 134.917276 171.513401 
L 137.415501 170.134683 
L 139.913725 168.755966 
L 142.411949 167.377248 
L 144.910174 165.998531 
L 147.408398 164.619813 
L 149.906622 163.241096 
L 152.404847 161.862378 
L 154.903071 160.483661 
L 157.401295 159.104943 
L 159.89952 157.726226 
L 162.397744 156.347508 
L 164.895968 154.968791 
L 167.394193 153.590073 
L 169.892417 152.211356 
L 172.390641 150.832638 
L 174.888866 149.453921 
L 177.38709 148.075203 
L 179.885314 146.696486 
L 182.383539 145.317768 
L 184.881763 143.939051 
L 187.379987 142.560333 
L 189.878212 141.181616 
L 192.376436 139.802898 
L 194.87466 138.424181 
L 197.372885 137.045463 
L 199.871109 135.666746 
L 202.369333 134.288028 
L 204.867558 132.909311 
L 207.365782 131.530593 
L 209.864006 130.151876 
L 212.362231 128.773158 
L 214.860455 127.394441 
L 217.358679 126.015723 
L 219.856904 124.637006 
L 222.355128 123.258288 
L 224.853352 121.879571 
L 227.351577 120.500853 
L 229.849801 119.122136 
L 232.348025 117.743418 
L 234.84625 116.364701 
L 237.344474 114.985983 
L 239.842698 113.607266 
L 242.340923 112.228548 
L 244.839147 110.849831 
L 247.337371 109.471113 
L 249.835596 108.092396 
L 252.33382 106.713678 
L 254.832044 105.334961 
L 257.330269 103.956244 
L 259.828493 102.577526 
L 262.326717 101.198809 
L 264.824942 99.820091 
L 267.323166 98.441374 
L 269.82139 97.062656 
L 272.319615 95.683939 
L 274.817839 94.305221 
L 277.316063 92.926504 
L 279.814288 91.547786 
L 282.312512 90.169069 
L 284.810736 88.790351 
L 287.308961 87.411634 
L 289.807185 86.032916 
L 292.305409 84.654199 
L 294.803634 83.275481 
L 297.301858 81.896764 
L 299.800082 80.518046 
L 302.298307 79.139329 
L 304.796531 77.760611 
L 307.294755 76.381894 
" clip-path="url(#p118b739adf)" style="fill: none; stroke-dasharray: 5.55,2.4; stroke-dashoffset: 0; stroke: #4b6f8a; stroke-width: 1.5"/>
   </g>
   <g id="patch_3">
    <path d="M 47.604336 244.385566 
L 47.604336 68.381719 
" style="fill: none; stroke: #000000; stroke-width: 1.5; stroke-linejoin: miter; stroke-linecap: square"/>
   </g>
   <g id="patch_4">
    <path d="M 47.604336 244.385566 
L 319.660966 244.385566 
" style="fill: none; stroke: #000000; stroke-width: 1.5; stroke-linejoin: miter; stroke-linecap: square"/>
   </g>
   <g id="text_17">
    <text style="font-weight: 700; font-size: 12px; font-family: 'Arial', 'Helvetica', 'Liberation Sans', 'DejaVu Sans', sans-serif; text-anchor: start" x="53.045469" y="80.638124" transform="rotate(-0 53.045469 80.638124)">a</text>
   </g>
   <g id="text_18">
    <text style="font-size: 9px; font-family: 'Arial', 'Helvetica', 'Liberation Sans', 'DejaVu Sans', sans-serif; text-anchor: middle" x="183.632651" y="62.381719" transform="rotate(-0 183.632651 62.381719)">Weibull probability plot</text>
   </g>
   <g id="PathCollection_1">
    <defs>
     <path id="m5709ede392" d="M 0 3.162278 
C 0.838646 3.162278 1.643056 2.82908 2.236068 2.236068 
C 2.82908 1.643056 3.162278 0.838646 3.162278 0 
C 3.162278 -0.838646 2.82908 -1.643056 2.236068 -2.236068 
C 1.643056 -2.82908 0.838646 -3.162278 0 -3.162278 
C -0.838646 -3.162278 -1.643056 -2.82908 -2.236068 -2.236068 
C -2.82908 -1.643056 -3.162278 -0.838646 -3.162278 0 
C -3.162278 0.838646 -2.82908 1.643056 -2.236068 2.236068 
C -1.643056 2.82908 -0.838646 3.162278 0 3.162278 
z
" style="stroke: #4b6f8a"/>
    </defs>
    <g clip-path="url(#p118b739adf)">
     <use xlink:href="#m5709ede392" x="59.970546" y="236.385392" style="fill: #4b6f8a; stroke: #4b6f8a"/>
     <use xlink:href="#m5709ede392" x="82.552283" y="205.416787" style="fill: #4b6f8a; stroke: #4b6f8a"/>
     <use xlink:href="#m5709ede392" x="97.923203" y="190.748499" style="fill: #4b6f8a; stroke: #4b6f8a"/>
     <use xlink:href="#m5709ede392" x="110.826247" y="180.904471" style="fill: #4b6f8a; stroke: #4b6f8a"/>
     <use xlink:href="#m5709ede392" x="125.575587" y="173.407984" style="fill: #4b6f8a; stroke: #4b6f8a"/>
     <use xlink:href="#m5709ede392" x="135.91761" y="167.299926" style="fill: #4b6f8a; stroke: #4b6f8a"/>
     <use xlink:href="#m5709ede392" x="146.104108" y="162.106411" style="fill: #4b6f8a; stroke: #4b6f8a"/>
     <use xlink:href="#m5709ede392" x="156.13969" y="157.557787" style="fill: #4b6f8a; stroke: #4b6f8a"/>
     <use xlink:href="#m5709ede392" x="160.112659" y="153.485468" style="fill: #4b6f8a; stroke: #4b6f8a"/>
     <use xlink:href="#m5709ede392" x="171.89364" y="149.776591" style="fill: #4b6f8a; stroke: #4b6f8a"/>
     <use xlink:href="#m5709ede392" x="175.775538" y="146.351479" style="fill: #4b6f8a; stroke: #4b6f8a"/>
     <use xlink:href="#m5709ede392" x="179.635317" y="143.15138" style="fill: #4b6f8a; stroke: #4b6f8a"/>
     <use xlink:href="#m5709ede392" x="185.384059" y="140.131299" style="fill: #4b6f8a; stroke: #4b6f8a"/>
     <use xlink:href="#m5709ede392" x="191.084424" y="137.255559" style="fill: #4b6f8a; stroke: #4b6f8a"/>
     <use xlink:href="#m5709ede392" x="194.858191" y="134.494897" style="fill: #4b6f8a; stroke: #4b6f8a"/>
     <use xlink:href="#m5709ede392" x="198.61105" y="131.824457" style="fill: #4b6f8a; stroke: #4b6f8a"/>
     <use xlink:href="#m5709ede392" x="204.20164" y="129.222332" style="fill: #4b6f8a; stroke: #4b6f8a"/>
     <use xlink:href="#m5709ede392" x="209.746468" y="126.668398" style="fill: #4b6f8a; stroke: #4b6f8a"/>
     <use xlink:href="#m5709ede392" x="217.069667" y="124.14331" style="fill: #4b6f8a; stroke: #4b6f8a"/>
     <use xlink:href="#m5709ede392" x="222.510575" y="121.627507" style="fill: #4b6f8a; stroke: #4b6f8a"/>
     <use xlink:href="#m5709ede392" x="227.908128" y="119.1001" style="fill: #4b6f8a; stroke: #4b6f8a"/>
     <use xlink:href="#m5709ede392" x="235.038608" y="116.537439" style="fill: #4b6f8a; stroke: #4b6f8a"/>
     <use xlink:href="#m5709ede392" x="240.337639" y="113.911054" style="fill: #4b6f8a; stroke: #4b6f8a"/>
     <use xlink:href="#m5709ede392" x="245.595539" y="111.184389" style="fill: #4b6f8a; stroke: #4b6f8a"/>
     <use xlink:href="#m5709ede392" x="252.543183" y="108.307095" style="fill: #4b6f8a; stroke: #4b6f8a"/>
     <use xlink:href="#m5709ede392" x="257.707549" y="105.204024" style="fill: #4b6f8a; stroke: #4b6f8a"/>
     <use xlink:href="#m5709ede392" x="266.228282" y="101.751149" style="fill: #4b6f8a; stroke: #4b6f8a"/>
     <use xlink:href="#m5709ede392" x="279.642371" y="97.712818" style="fill: #4b6f8a; stroke: #4b6f8a"/>
     <use xlink:href="#m5709ede392" x="291.165675" y="92.523794" style="fill: #4b6f8a; stroke: #4b6f8a"/>
     <use xlink:href="#m5709ede392" x="307.294755" y="83.852423" style="fill: #4b6f8a; stroke: #4b6f8a"/>
    </g>
   </g>
   <g id="legend_1">
    <g id="PathCollection_2">
     <g>
      <use xlink:href="#m5709ede392" x="224.627216" y="221.893848" style="fill: #4b6f8a; stroke: #4b6f8a"/>
     </g>
    </g>
    <g id="text_19">
     <text style="font-size: 8px; font-family: 'Arial', 'Helvetica', 'Liberation Sans', 'DejaVu Sans', sans-serif; text-anchor: start" x="239.027216" y="223.993848" transform="rotate(-0 239.027216 223.993848)">Al2O3 (n=30)</text>
    </g>
    <g id="line2d_30">
     <path d="M 216.627216 232.701816 
L 224.627216 232.701816 
L 232.627216 232.701816 
" style="fill: none; stroke-dasharray: 5.55,2.4; stroke-dashoffset: 0; stroke: #4b6f8a; stroke-width: 1.5"/>
    </g>
    <g id="text_20">
     <text style="font-size: 8px; font-family: 'Arial', 'Helvetica', 'Liberation Sans', 'DejaVu Sans', sans-serif; text-anchor: start" x="239.027216" y="235.501816" transform="rotate(-0 239.027216 235.501816)">Weibull fit (m=13.47)</text>
    </g>
   </g>
  </g>
  <g id="axes_2">
   <g id="patch_5">
    <path d="M 360.981239 244.385566 
L 633.037869 244.385566 
L 633.037869 68.381719 
L 360.981239 68.381719 
z
" style="fill: #ffffff"/>
   </g>
   <g id="patch_6">
    <path d="M 373.34745 244.385566 
L 387.087683 244.385566 
L 387.087683 172.547261 
L 373.34745 172.547261 
z
" clip-path="url(#p51e0b27dda)" style="fill: #c47b45; opacity: 0.8; stroke: #ffffff; stroke-linejoin: miter"/>
   </g>
   <g id="patch_7">
    <path d="M 387.087683 244.385566 
L 400.827917 244.385566 
L 400.827917 148.60116 
L 387.087683 148.60116 
z
" clip-path="url(#p51e0b27dda)" style="fill: #c47b45; opacity: 0.8; stroke: #ffffff; stroke-linejoin: miter"/>
   </g>
   <g id="patch_8">
    <path d="M 400.827917 244.385566 
L 414.568151 244.385566 
L 414.568151 76.762854 
L 400.827917 76.762854 
z
" clip-path="url(#p51e0b27dda)" style="fill: #c47b45; opacity: 0.8; stroke: #ffffff; stroke-linejoin: miter"/>
   </g>
   <g id="patch_9">
    <path d="M 414.568151 244.385566 
L 428.308385 244.385566 
L 428.308385 76.762854 
L 414.568151 76.762854 
z
" clip-path="url(#p51e0b27dda)" style="fill: #c47b45; opacity: 0.8; stroke: #ffffff; stroke-linejoin: miter"/>
   </g>
   <g id="patch_10">
    <path d="M 428.308385 244.385566 
L 442.048619 244.385566 
L 442.048619 100.708956 
L 428.308385 100.708956 
z
" clip-path="url(#p51e0b27dda)" style="fill: #c47b45; opacity: 0.8; stroke: #ffffff; stroke-linejoin: miter"/>
   </g>
   <g id="patch_11">
    <path d="M 442.048619 244.385566 
L 455.788853 244.385566 
L 455.788853 172.547261 
L 442.048619 172.547261 
z
" clip-path="url(#p51e0b27dda)" style="fill: #c47b45; opacity: 0.8; stroke: #ffffff; stroke-linejoin: miter"/>
   </g>
   <g id="patch_12">
    <path d="M 455.788853 244.385566 
L 469.529086 244.385566 
L 469.529086 244.385566 
L 455.788853 244.385566 
z
" clip-path="url(#p51e0b27dda)" style="fill: #c47b45; opacity: 0.8; stroke: #ffffff; stroke-linejoin: miter"/>
   </g>
   <g id="patch_13">
    <path d="M 469.529086 244.385566 
L 483.26932 244.385566 
L 483.26932 244.385566 
L 469.529086 244.385566 
z
" clip-path="url(#p51e0b27dda)" style="fill: #c47b45; opacity: 0.8; stroke: #ffffff; stroke-linejoin: miter"/>
   </g>
   <g id="patch_14">
    <path d="M 483.26932 244.385566 
L 497.009554 244.385566 
L 497.009554 244.385566 
L 483.26932 244.385566 
z
" clip-path="url(#p51e0b27dda)" style="fill: #c47b45; opacity: 0.8; stroke: #ffffff; stroke-linejoin: miter"/>
   </g>
   <g id="patch_15">
    <path d="M 497.009554 244.385566 
L 510.749788 244.385566 
L 510.749788 220.439465 
L 497.009554 220.439465 
z
" clip-path="url(#p51e0b27dda)" style="fill: #c47b45; opacity: 0.8; stroke: #ffffff; stroke-linejoin: miter"/>
   </g>
   <g id="patch_16">
    <path d="M 510.749788 244.385566 
L 524.490022 244.385566 
L 524.490022 220.439465 
L 510.749788 220.439465 
z
" clip-path="url(#p51e0b27dda)" style="fill: #c47b45; opacity: 0.8; stroke: #ffffff; stroke-linejoin: miter"/>
   </g>
   <g id="patch_17">
    <path d="M 524.490022 244.385566 
L 538.230256 244.385566 
L 538.230256 196.493363 
L 524.490022 196.493363 
z
" clip-path="url(#p51e0b27dda)" style="fill: #c47b45; opacity: 0.8; stroke: #ffffff; stroke-linejoin: miter"/>
   </g>
   <g id="patch_18">
    <path d="M 538.230256 244.385566 
L 551.970489 244.385566 
L 551.970489 172.547261 
L 538.230256 172.547261 
z
" clip-path="url(#p51e0b27dda)" style="fill: #c47b45; opacity: 0.8; stroke: #ffffff; stroke-linejoin: miter"/>
   </g>
   <g id="patch_19">
    <path d="M 551.970489 244.385566 
L 565.710723 244.385566 
L 565.710723 124.655058 
L 551.970489 124.655058 
z
" clip-path="url(#p51e0b27dda)" style="fill: #c47b45; opacity: 0.8; stroke: #ffffff; stroke-linejoin: miter"/>
   </g>
   <g id="patch_20">
    <path d="M 565.710723 244.385566 
L 579.450957 244.385566 
L 579.450957 76.762854 
L 565.710723 76.762854 
z
" clip-path="url(#p51e0b27dda)" style="fill: #c47b45; opacity: 0.8; stroke: #ffffff; stroke-linejoin: miter"/>
   </g>
   <g id="patch_21">
    <path d="M 579.450957 244.385566 
L 593.191191 244.385566 
L 593.191191 100.708956 
L 579.450957 100.708956 
z
" clip-path="url(#p51e0b27dda)" style="fill: #c47b45; opacity: 0.8; stroke: #ffffff; stroke-linejoin: miter"/>
   </g>
   <g id="patch_22">
    <path d="M 593.191191 244.385566 
L 606.931425 244.385566 
L 606.931425 172.547261 
L 593.191191 172.547261 
z
" clip-path="url(#p51e0b27dda)" style="fill: #c47b45; opacity: 0.8; stroke: #ffffff; stroke-linejoin: miter"/>
   </g>
   <g id="patch_23">
    <path d="M 606.931425 244.385566 
L 620.671659 244.385566 
L 620.671659 196.493363 
L 606.931425 196.493363 
z
" clip-path="url(#p51e0b27dda)" style="fill: #c47b45; opacity: 0.8; stroke: #ffffff; stroke-linejoin: miter"/>
   </g>
   <g id="matplotlib.axis_3">
    <g id="xtick_9">
     <g id="line2d_31">
      <g>
       <use xlink:href="#me651918ab2" x="365.369249" y="244.385566" style="stroke: #000000; stroke-width: 1.2"/>
      </g>
     </g>
     <g id="text_21">
      <text style="font-size: 9px; font-family: 'Arial', 'Helvetica', 'Liberation Sans', 'DejaVu Sans', sans-serif; text-anchor: middle" x="365.369249" y="257.937812" transform="rotate(-0 365.369249 257.937812)">400</text>
     </g>
    </g>
    <g id="xtick_10">
     <g id="line2d_32">
      <g>
       <use xlink:href="#me651918ab2" x="405.260251" y="244.385566" style="stroke: #000000; stroke-width: 1.2"/>
      </g>
     </g>
     <g id="text_22">
      <text style="font-size: 9px; font-family: 'Arial', 'Helvetica', 'Liberation Sans', 'DejaVu Sans', sans-serif; text-anchor: middle" x="405.260251" y="257.937812" transform="rotate(-0 405.260251 257.937812)">450</text>
     </g>
    </g>
    <g id="xtick_11">
     <g id="line2d_33">
      <g>
       <use xlink:href="#me651918ab2" x="445.151252" y="244.385566" style="stroke: #000000; stroke-width: 1.2"/>
      </g>
     </g>
     <g id="text_23">
      <text style="font-size: 9px; font-family: 'Arial', 'Helvetica', 'Liberation Sans', 'DejaVu Sans', sans-serif; text-anchor: middle" x="445.151252" y="257.937812" transform="rotate(-0 445.151252 257.937812)">500</text>
     </g>
    </g>
    <g id="xtick_12">
     <g id="line2d_34">
      <g>
       <use xlink:href="#me651918ab2" x="485.042254" y="244.385566" style="stroke: #000000; stroke-width: 1.2"/>
      </g>
     </g>
     <g id="text_24">
      <text style="font-size: 9px; font-family: 'Arial', 'Helvetica', 'Liberation Sans', 'DejaVu Sans', sans-serif; text-anchor: middle" x="485.042254" y="257.937812" transform="rotate(-0 485.042254 257.937812)">550</text>
     </g>
    </g>
    <g id="xtick_13">
     <g id="line2d_35">
      <g>
       <use xlink:href="#me651918ab2" x="524.933255" y="244.385566" style="stroke: #000000; stroke-width: 1.2"/>
      </g>
     </g>
     <g id="text_25">
      <text style="font-size: 9px; font-family: 'Arial', 'Helvetica', 'Liberation Sans', 'DejaVu Sans', sans-serif; text-anchor: middle" x="524.933255" y="257.937812" transform="rotate(-0 524.933255 257.937812)">600</text>
     </g>
    </g>
    <g id="xtick_14">
     <g id="line2d_36">
      <g>
       <use xlink:href="#me651918ab2" x="564.824257" y="244.385566" style="stroke: #000000; stroke-width: 1.2"/>
      </g>
     </g>
     <g id="text_26">
      <text style="font-size: 9px; font-family: 'Arial', 'Helvetica', 'Liberation Sans', 'DejaVu Sans', sans-serif; text-anchor: middle" x="564.824257" y="257.937812" transform="rotate(-0 564.824257 257.937812)">650</text>
     </g>
    </g>
    <g id="xtick_15">
     <g id="line2d_37">
      <g>
       <use xlink:href="#me651918ab2" x="604.715258" y="244.385566" style="stroke: #000000; stroke-width: 1.2"/>
      </g>
     </g>
     <g id="text_27">
      <text style="font-size: 9px; font-family: 'Arial', 'Helvetica', 'Liberation Sans', 'DejaVu Sans', sans-serif; text-anchor: middle" x="604.715258" y="257.937812" transform="rotate(-0 604.715258 257.937812)">700</text>
     </g>
    </g>
    <g id="text_28">
     <text style="font-size: 10px; font-family: 'Arial', 'Helvetica', 'Liberation Sans', 'DejaVu Sans', sans-serif; text-anchor: middle" x="497.009554" y="271.112129" transform="rotate(-0 497.009554 271.112129)">Flexural strength (MPa)</text>
    </g>
   </g>
   <g id="matplotlib.axis_4">
    <g id="ytick_7">
     <g id="line2d_38">
      <g>
       <use xlink:href="#mf85153a6f5" x="360.981239" y="244.385566" style="stroke: #000000; stroke-width: 1.2"/>
      </g>
     </g>
     <g id="text_29">
      <text style="font-size: 9px; font-family: 'Arial', 'Helvetica', 'Liberation Sans', 'DejaVu Sans', sans-serif; text-anchor: end" x="353.981239" y="247.661689" transform="rotate(-0 353.981239 247.661689)">0</text>
     </g>
    </g>
    <g id="ytick_8">
     <g id="line2d_39">
      <g>
       <use xlink:href="#mf85153a6f5" x="360.981239" y="220.439465" style="stroke: #000000; stroke-width: 1.2"/>
      </g>
     </g>
     <g id="text_30">
      <text style="font-size: 9px; font-family: 'Arial', 'Helvetica', 'Liberation Sans', 'DejaVu Sans', sans-serif; text-anchor: end" x="353.981239" y="223.715588" transform="rotate(-0 353.981239 223.715588)">1</text>
     </g>
    </g>
    <g id="ytick_9">
     <g id="line2d_40">
      <g>
       <use xlink:href="#mf85153a6f5" x="360.981239" y="196.493363" style="stroke: #000000; stroke-width: 1.2"/>
      </g>
     </g>
     <g id="text_31">
      <text style="font-size: 9px; font-family: 'Arial', 'Helvetica', 'Liberation Sans', 'DejaVu Sans', sans-serif; text-anchor: end" x="353.981239" y="199.769486" transform="rotate(-0 353.981239 199.769486)">2</text>
     </g>
    </g>
    <g id="ytick_10">
     <g id="line2d_41">
      <g>
       <use xlink:href="#mf85153a6f5" x="360.981239" y="172.547261" style="stroke: #000000; stroke-width: 1.2"/>
      </g>
     </g>
     <g id="text_32">
      <text style="font-size: 9px; font-family: 'Arial', 'Helvetica', 'Liberation Sans', 'DejaVu Sans', sans-serif; text-anchor: end" x="353.981239" y="175.823384" transform="rotate(-0 353.981239 175.823384)">3</text>
     </g>
    </g>
    <g id="ytick_11">
     <g id="line2d_42">
      <g>
       <use xlink:href="#mf85153a6f5" x="360.981239" y="148.60116" style="stroke: #000000; stroke-width: 1.2"/>
      </g>
     </g>
     <g id="text_33">
      <text style="font-size: 9px; font-family: 'Arial', 'Helvetica', 'Liberation Sans', 'DejaVu Sans', sans-serif; text-anchor: end" x="353.981239" y="151.877283" transform="rotate(-0 353.981239 151.877283)">4</text>
     </g>
    </g>
    <g id="ytick_12">
     <g id="line2d_43">
      <g>
       <use xlink:href="#mf85153a6f5" x="360.981239" y="124.655058" style="stroke: #000000; stroke-width: 1.2"/>
      </g>
     </g>
     <g id="text_34">
      <text style="font-size: 9px; font-family: 'Arial', 'Helvetica', 'Liberation Sans', 'DejaVu Sans', sans-serif; text-anchor: end" x="353.981239" y="127.931181" transform="rotate(-0 353.981239 127.931181)">5</text>
     </g>
    </g>
    <g id="ytick_13">
     <g id="line2d_44">
      <g>
       <use xlink:href="#mf85153a6f5" x="360.981239" y="100.708956" style="stroke: #000000; stroke-width: 1.2"/>
      </g>
     </g>
     <g id="text_35">
      <text style="font-size: 9px; font-family: 'Arial', 'Helvetica', 'Liberation Sans', 'DejaVu Sans', sans-serif; text-anchor: end" x="353.981239" y="103.985079" transform="rotate(-0 353.981239 103.985079)">6</text>
     </g>
    </g>
    <g id="ytick_14">
     <g id="line2d_45">
      <g>
       <use xlink:href="#mf85153a6f5" x="360.981239" y="76.762854" style="stroke: #000000; stroke-width: 1.2"/>
      </g>
     </g>
     <g id="text_36">
      <text style="font-size: 9px; font-family: 'Arial', 'Helvetica', 'Liberation Sans', 'DejaVu Sans', sans-serif; text-anchor: end" x="353.981239" y="80.038977" transform="rotate(-0 353.981239 80.038977)">7</text>
     </g>
    </g>
    <g id="text_37">
     <text style="font-size: 10px; font-family: 'Arial', 'Helvetica', 'Liberation Sans', 'DejaVu Sans', sans-serif; text-anchor: middle" x="342.871903" y="156.383643" transform="rotate(-90 342.871903 156.383643)">Count</text>
    </g>
   </g>
   <g id="line2d_46">
    <path d="M 492.72792 244.385566 
L 492.72792 68.381719 
" clip-path="url(#p51e0b27dda)" style="fill: none; stroke-dasharray: 4.44,1.92; stroke-dashoffset: 0; stroke: #b85450; stroke-width: 1.2"/>
   </g>
   <g id="patch_24">
    <path d="M 360.981239 244.385566 
L 360.981239 68.381719 
" style="fill: none; stroke: #000000; stroke-width: 1.5; stroke-linejoin: miter; stroke-linecap: square"/>
   </g>
   <g id="patch_25">
    <path d="M 360.981239 244.385566 
L 633.037869 244.385566 
" style="fill: none; stroke: #000000; stroke-width: 1.5; stroke-linejoin: miter; stroke-linecap: square"/>
   </g>
   <g id="text_38">
    <text style="font-weight: 700; font-size: 12px; font-family: 'Arial', 'Helvetica', 'Liberation Sans', 'DejaVu Sans', sans-serif; text-anchor: start" x="366.422372" y="80.638124" transform="rotate(-0 366.422372 80.638124)">b</text>
   </g>
   <g id="text_39">
    <text style="font-size: 9px; font-family: 'Arial', 'Helvetica', 'Liberation Sans', 'DejaVu Sans', sans-serif; text-anchor: middle" x="497.009554" y="62.381719" transform="rotate(-0 497.009554 62.381719)">Bimodal: Al2O3-30%ZrO2 composite</text>
   </g>
   <g id="legend_2">
    <g id="line2d_47">
     <path d="M 567.065056 77.32791 
L 574.065056 77.32791 
L 581.065056 77.32791 
" style="fill: none; stroke-dasharray: 4.44,1.92; stroke-dashoffset: 0; stroke: #b85450; stroke-width: 1.2"/>
    </g>
    <g id="text_40">
     <text style="font-size: 7px; font-family: 'Arial', 'Helvetica', 'Liberation Sans', 'DejaVu Sans', sans-serif; text-anchor: start" x="586.665056" y="79.77791" transform="rotate(-0 586.665056 79.77791)">overall mean</text>
    </g>
   </g>
  </g>
  <g id="axes_3">
   <g id="patch_26">
    <path d="M 47.604336 474.225957 
L 319.660966 474.225957 
L 319.660966 298.222109 
L 47.604336 298.222109 
z
" style="fill: #ffffff"/>
   </g>
   <g id="FillBetweenPolyCollection_1">
    <defs>
     <path id="md957439964" d="M 88.755463 -30.651562 
L 77.976697 -30.651562 
L 77.693159 -30.786245 
L 77.405044 -30.920928 
L 77.112457 -31.055611 
L 76.81545 -31.190294 
L 76.514031 -31.324977 
L 76.208156 -31.45966 
L 75.897744 -31.594343 
L 75.582674 -31.729026 
L 75.262795 -31.863709 
L 74.937929 -31.998392 
L 74.60788 -32.133075 
L 74.272441 -32.267759 
L 73.931404 -32.402442 
L 73.584563 -32.537125 
L 73.231728 -32.671808 
L 72.872732 -32.806491 
L 72.507441 -32.941174 
L 72.135762 -33.075857 
L 71.757656 -33.21054 
L 71.373146 -33.345223 
L 70.982324 -33.479906 
L 70.585367 -33.614589 
L 70.182538 -33.749272 
L 69.774198 -33.883956 
L 69.360813 -34.018639 
L 68.942955 -34.153322 
L 68.52131 -34.288005 
L 68.096676 -34.422688 
L 67.669961 -34.557371 
L 67.242184 -34.692054 
L 66.814463 -34.826737 
L 66.388013 -34.96142 
L 65.96413 -35.096103 
L 65.544181 -35.230786 
L 65.129588 -35.365469 
L 64.721816 -35.500152 
L 64.32235 -35.634836 
L 63.932682 -35.769519 
L 63.554292 -35.904202 
L 63.188631 -36.038885 
L 62.837107 -36.173568 
L 62.501068 -36.308251 
L 62.181792 -36.442934 
L 61.880474 -36.577617 
L 61.598222 -36.7123 
L 61.336045 -36.846983 
L 61.094857 -36.981666 
L 60.87547 -37.116349 
L 60.678601 -37.251032 
L 60.504866 -37.385716 
L 60.354795 -37.520399 
L 60.228826 -37.655082 
L 60.12732 -37.789765 
L 60.050559 -37.924448 
L 59.998756 -38.059131 
L 59.972058 -38.193814 
L 59.970546 -38.328497 
L 59.994244 -38.46318 
L 60.043112 -38.597863 
L 60.117052 -38.732546 
L 60.215901 -38.867229 
L 60.339433 -39.001913 
L 60.487352 -39.136596 
L 60.659289 -39.271279 
L 60.854798 -39.405962 
L 61.073355 -39.540645 
L 61.31435 -39.675328 
L 61.577089 -39.810011 
L 61.860798 -39.944694 
L 62.164616 -40.079377 
L 62.487606 -40.21406 
L 62.828761 -40.348743 
L 63.187009 -40.483426 
L 63.561227 -40.618109 
L 63.950248 -40.752793 
L 64.352882 -40.887476 
L 64.767922 -41.022159 
L 65.194163 -41.156842 
L 65.630418 -41.291525 
L 66.075525 -41.426208 
L 66.528366 -41.560891 
L 66.987874 -41.695574 
L 67.453038 -41.830257 
L 67.922915 -41.96494 
L 68.396626 -42.099623 
L 68.87336 -42.234306 
L 69.352367 -42.368989 
L 69.832953 -42.503673 
L 70.314474 -42.638356 
L 70.79632 -42.773039 
L 71.277907 -42.907722 
L 71.758666 -43.042405 
L 72.238025 -43.177088 
L 72.715398 -43.311771 
L 73.190178 -43.446454 
L 73.661722 -43.581137 
L 74.129347 -43.71582 
L 74.592324 -43.850503 
L 75.049876 -43.985186 
L 91.682283 -43.985186 
L 91.682283 -43.985186 
L 92.139836 -43.850503 
L 92.602812 -43.71582 
L 93.070437 -43.581137 
L 93.541981 -43.446454 
L 94.016761 -43.311771 
L 94.494135 -43.177088 
L 94.973493 -43.042405 
L 95.454252 -42.907722 
L 95.93584 -42.773039 
L 96.417685 -42.638356 
L 96.899206 -42.503673 
L 97.379792 -42.368989 
L 97.858799 -42.234306 
L 98.335533 -42.099623 
L 98.809244 -41.96494 
L 99.279121 -41.830257 
L 99.744286 -41.695574 
L 100.203793 -41.560891 
L 100.656634 -41.426208 
L 101.101742 -41.291525 
L 101.537996 -41.156842 
L 101.964238 -41.022159 
L 102.379277 -40.887476 
L 102.781911 -40.752793 
L 103.170933 -40.618109 
L 103.54515 -40.483426 
L 103.903398 -40.348743 
L 104.244553 -40.21406 
L 104.567544 -40.079377 
L 104.871362 -39.944694 
L 105.15507 -39.810011 
L 105.41781 -39.675328 
L 105.658804 -39.540645 
L 105.877361 -39.405962 
L 106.07287 -39.271279 
L 106.244807 -39.136596 
L 106.392726 -39.001913 
L 106.516258 -38.867229 
L 106.615108 -38.732546 
L 106.689047 -38.597863 
L 106.737915 -38.46318 
L 106.761613 -38.328497 
L 106.760101 -38.193814 
L 106.733403 -38.059131 
L 106.6816 -37.924448 
L 106.60484 -37.789765 
L 106.503333 -37.655082 
L 106.377365 -37.520399 
L 106.227293 -37.385716 
L 106.053559 -37.251032 
L 105.856689 -37.116349 
L 105.637303 -36.981666 
L 105.396114 -36.846983 
L 105.133938 -36.7123 
L 104.851685 -36.577617 
L 104.550367 -36.442934 
L 104.231091 -36.308251 
L 103.895052 -36.173568 
L 103.543528 -36.038885 
L 103.177867 -35.904202 
L 102.799477 -35.769519 
L 102.409809 -35.634836 
L 102.010343 -35.500152 
L 101.602571 -35.365469 
L 101.187979 -35.230786 
L 100.768029 -35.096103 
L 100.344146 -34.96142 
L 99.917696 -34.826737 
L 99.489975 -34.692054 
L 99.062198 -34.557371 
L 98.635483 -34.422688 
L 98.210849 -34.288005 
L 97.789204 -34.153322 
L 97.371347 -34.018639 
L 96.957961 -33.883956 
L 96.549622 -33.749272 
L 96.146792 -33.614589 
L 95.749835 -33.479906 
L 95.359013 -33.345223 
L 94.974503 -33.21054 
L 94.596397 -33.075857 
L 94.224718 -32.941174 
L 93.859427 -32.806491 
L 93.500431 -32.671808 
L 93.147596 -32.537125 
L 92.800755 -32.402442 
L 92.459718 -32.267759 
L 92.12428 -32.133075 
L 91.794231 -31.998392 
L 91.469365 -31.863709 
L 91.149485 -31.729026 
L 90.834415 -31.594343 
L 90.524003 -31.45966 
L 90.218129 -31.324977 
L 89.916709 -31.190294 
L 89.619703 -31.055611 
L 89.327115 -30.920928 
L 89.039001 -30.786245 
L 88.755463 -30.651562 
z
" style="stroke: #ffffff; stroke-opacity: 0.65"/>
    </defs>
    <g clip-path="url(#p9632d80f8b)">
     <use xlink:href="#md957439964" x="0" y="496.877344" style="fill: #4b6f8a; fill-opacity: 0.65; stroke: #ffffff; stroke-opacity: 0.65"/>
    </g>
   </g>
   <g id="FillBetweenPolyCollection_2">
    <defs>
     <path id="m2c68ab8480" d="M 158.531987 -139.225364 
L 141.888934 -139.225364 
L 141.444225 -139.744856 
L 140.994696 -140.264347 
L 140.541085 -140.783839 
L 140.084086 -141.303331 
L 139.624343 -141.822823 
L 139.162457 -142.342315 
L 138.69899 -142.861807 
L 138.234474 -143.381299 
L 137.769421 -143.900791 
L 137.304329 -144.420282 
L 136.8397 -144.939774 
L 136.376046 -145.459266 
L 135.913903 -145.978758 
L 135.453842 -146.49825 
L 134.996474 -147.017742 
L 134.542463 -147.537234 
L 134.092524 -148.056726 
L 133.647435 -148.576218 
L 133.208027 -149.095709 
L 132.775189 -149.615201 
L 132.349863 -150.134693 
L 131.933033 -150.654185 
L 131.52572 -151.173677 
L 131.128973 -151.693169 
L 130.743852 -152.212661 
L 130.371425 -152.732153 
L 130.012745 -153.251644 
L 129.668848 -153.771136 
L 129.340736 -154.290628 
L 129.029368 -154.81012 
L 128.735651 -155.329612 
L 128.460433 -155.849104 
L 128.204496 -156.368596 
L 127.968554 -156.888088 
L 127.753247 -157.407579 
L 127.559143 -157.927071 
L 127.386739 -158.446563 
L 127.23646 -158.966055 
L 127.108662 -159.485547 
L 127.003637 -160.005039 
L 126.921611 -160.524531 
L 126.862754 -161.044023 
L 126.827175 -161.563514 
L 126.814927 -162.083006 
L 126.82601 -162.602498 
L 126.860366 -163.12199 
L 126.917879 -163.641482 
L 126.998376 -164.160974 
L 127.101618 -164.680466 
L 127.227301 -165.199958 
L 127.375049 -165.719449 
L 127.544408 -166.238941 
L 127.734845 -166.758433 
L 127.945744 -167.277925 
L 128.1764 -167.797417 
L 128.426017 -168.316909 
L 128.693714 -168.836401 
L 128.978521 -169.355893 
L 129.279383 -169.875384 
L 129.595169 -170.394876 
L 129.92468 -170.914368 
L 130.266655 -171.43386 
L 130.61979 -171.953352 
L 130.982745 -172.472844 
L 131.354166 -172.992336 
L 131.732695 -173.511828 
L 132.116994 -174.031319 
L 132.505758 -174.550811 
L 132.897733 -175.070303 
L 133.291732 -175.589795 
L 133.686651 -176.109287 
L 134.081481 -176.628779 
L 134.475321 -177.148271 
L 134.867384 -177.667763 
L 135.257006 -178.187254 
L 135.643647 -178.706746 
L 136.026894 -179.226238 
L 136.406455 -179.74573 
L 136.782156 -180.265222 
L 137.153934 -180.784714 
L 137.521824 -181.304206 
L 137.885947 -181.823698 
L 138.246501 -182.343189 
L 138.603736 -182.862681 
L 138.957948 -183.382173 
L 139.309454 -183.901665 
L 139.65858 -184.421157 
L 140.005642 -184.940649 
L 140.350932 -185.460141 
L 140.694703 -185.979633 
L 141.037154 -186.499124 
L 141.37842 -187.018616 
L 141.718565 -187.538108 
L 142.05757 -188.0576 
L 142.395332 -188.577092 
L 142.731662 -189.096584 
L 143.066279 -189.616076 
L 143.398821 -190.135568 
L 143.728844 -190.655059 
L 156.692077 -190.655059 
L 156.692077 -190.655059 
L 157.022099 -190.135568 
L 157.354642 -189.616076 
L 157.689259 -189.096584 
L 158.025588 -188.577092 
L 158.363351 -188.0576 
L 158.702356 -187.538108 
L 159.042501 -187.018616 
L 159.383767 -186.499124 
L 159.726218 -185.979633 
L 160.069988 -185.460141 
L 160.415279 -184.940649 
L 160.762341 -184.421157 
L 161.111467 -183.901665 
L 161.462973 -183.382173 
L 161.817185 -182.862681 
L 162.17442 -182.343189 
L 162.534974 -181.823698 
L 162.899097 -181.304206 
L 163.266987 -180.784714 
L 163.638765 -180.265222 
L 164.014466 -179.74573 
L 164.394027 -179.226238 
L 164.777274 -178.706746 
L 165.163915 -178.187254 
L 165.553537 -177.667763 
L 165.9456 -177.148271 
L 166.33944 -176.628779 
L 166.73427 -176.109287 
L 167.129189 -175.589795 
L 167.523188 -175.070303 
L 167.915162 -174.550811 
L 168.303927 -174.031319 
L 168.688226 -173.511828 
L 169.066755 -172.992336 
L 169.438176 -172.472844 
L 169.801131 -171.953352 
L 170.154266 -171.43386 
L 170.496241 -170.914368 
L 170.825752 -170.394876 
L 171.141538 -169.875384 
L 171.4424 -169.355893 
L 171.727207 -168.836401 
L 171.994904 -168.316909 
L 172.244521 -167.797417 
L 172.475177 -167.277925 
L 172.686075 -166.758433 
L 172.876513 -166.238941 
L 173.045872 -165.719449 
L 173.19362 -165.199958 
L 173.319302 -164.680466 
L 173.422545 -164.160974 
L 173.503041 -163.641482 
L 173.560555 -163.12199 
L 173.594911 -162.602498 
L 173.605994 -162.083006 
L 173.593746 -161.563514 
L 173.558167 -161.044023 
L 173.49931 -160.524531 
L 173.417284 -160.005039 
L 173.312258 -159.485547 
L 173.184461 -158.966055 
L 173.034182 -158.446563 
L 172.861778 -157.927071 
L 172.667674 -157.407579 
L 172.452367 -156.888088 
L 172.216424 -156.368596 
L 171.960488 -155.849104 
L 171.685269 -155.329612 
L 171.391552 -154.81012 
L 171.080185 -154.290628 
L 170.752073 -153.771136 
L 170.408176 -153.251644 
L 170.049496 -152.732153 
L 169.677068 -152.212661 
L 169.291948 -151.693169 
L 168.895201 -151.173677 
L 168.487888 -150.654185 
L 168.071058 -150.134693 
L 167.645731 -149.615201 
L 167.212894 -149.095709 
L 166.773486 -148.576218 
L 166.328396 -148.056726 
L 165.878458 -147.537234 
L 165.424447 -147.017742 
L 164.967079 -146.49825 
L 164.507018 -145.978758 
L 164.044875 -145.459266 
L 163.581221 -144.939774 
L 163.116592 -144.420282 
L 162.6515 -143.900791 
L 162.186447 -143.381299 
L 161.721931 -142.861807 
L 161.258464 -142.342315 
L 160.796578 -141.822823 
L 160.336835 -141.303331 
L 159.879835 -140.783839 
L 159.426225 -140.264347 
L 158.976696 -139.744856 
L 158.531987 -139.225364 
z
" style="stroke: #ffffff; stroke-opacity: 0.65"/>
    </defs>
    <g clip-path="url(#p9632d80f8b)">
     <use xlink:href="#m2c68ab8480" x="0" y="496.877344" style="fill: #c47b45; fill-opacity: 0.65; stroke: #ffffff; stroke-opacity: 0.65"/>
    </g>
   </g>
   <g id="FillBetweenPolyCollection_3">
    <defs>
     <path id="m237d1a4392" d="M 225.988507 -51.604401 
L 208.121176 -51.604401 
L 207.634014 -51.835286 
L 207.140785 -52.066171 
L 206.642632 -52.297056 
L 206.140716 -52.527942 
L 205.636211 -52.758827 
L 205.1303 -52.989712 
L 204.624168 -53.220598 
L 204.119005 -53.451483 
L 203.615995 -53.682368 
L 203.116317 -53.913253 
L 202.621139 -54.144139 
L 202.131614 -54.375024 
L 201.648876 -54.605909 
L 201.174035 -54.836795 
L 200.708169 -55.06768 
L 200.252321 -55.298565 
L 199.807488 -55.52945 
L 199.374621 -55.760336 
L 198.954611 -55.991221 
L 198.548286 -56.222106 
L 198.156404 -56.452991 
L 197.779646 -56.683877 
L 197.418612 -56.914762 
L 197.073816 -57.145647 
L 196.745681 -57.376533 
L 196.43454 -57.607418 
L 196.140635 -57.838303 
L 195.864116 -58.069188 
L 195.605047 -58.300074 
L 195.363408 -58.530959 
L 195.139099 -58.761844 
L 194.931955 -58.99273 
L 194.741745 -59.223615 
L 194.568188 -59.4545 
L 194.410962 -59.685385 
L 194.269716 -59.916271 
L 194.144079 -60.147156 
L 194.033675 -60.378041 
L 193.938133 -60.608926 
L 193.857097 -60.839812 
L 193.790236 -61.070697 
L 193.737255 -61.301582 
L 193.697901 -61.532468 
L 193.671969 -61.763353 
L 193.659308 -61.994238 
L 193.65982 -62.225123 
L 193.673465 -62.456009 
L 193.700258 -62.686894 
L 193.740262 -62.917779 
L 193.793591 -63.148665 
L 193.860397 -63.37955 
L 193.940862 -63.610435 
L 194.035191 -63.84132 
L 194.143599 -64.072206 
L 194.266302 -64.303091 
L 194.403501 -64.533976 
L 194.555374 -64.764861 
L 194.722059 -64.995747 
L 194.903648 -65.226632 
L 195.100172 -65.457517 
L 195.311594 -65.688403 
L 195.537801 -65.919288 
L 195.778596 -66.150173 
L 196.033697 -66.381058 
L 196.302736 -66.611944 
L 196.585255 -66.842829 
L 196.880715 -67.073714 
L 197.188496 -67.3046 
L 197.507911 -67.535485 
L 197.838208 -67.76637 
L 198.17859 -67.997255 
L 198.528222 -68.228141 
L 198.886244 -68.459026 
L 199.251792 -68.689911 
L 199.624005 -68.920796 
L 200.002045 -69.151682 
L 200.385107 -69.382567 
L 200.77243 -69.613452 
L 201.163311 -69.844338 
L 201.557109 -70.075223 
L 201.953253 -70.306108 
L 202.351245 -70.536993 
L 202.750657 -70.767879 
L 203.151135 -70.998764 
L 203.552388 -71.229649 
L 203.954181 -71.460535 
L 204.35633 -71.69142 
L 204.758685 -71.922305 
L 205.161121 -72.15319 
L 205.563522 -72.384076 
L 205.965767 -72.614961 
L 206.367719 -72.845846 
L 206.769207 -73.076732 
L 207.170018 -73.307617 
L 207.569884 -73.538502 
L 207.968476 -73.769387 
L 208.365397 -74.000273 
L 208.760177 -74.231158 
L 209.152275 -74.462043 
L 224.957408 -74.462043 
L 224.957408 -74.462043 
L 225.349506 -74.231158 
L 225.744286 -74.000273 
L 226.141206 -73.769387 
L 226.539798 -73.538502 
L 226.939665 -73.307617 
L 227.340475 -73.076732 
L 227.741963 -72.845846 
L 228.143915 -72.614961 
L 228.546161 -72.384076 
L 228.948561 -72.15319 
L 229.350997 -71.922305 
L 229.753353 -71.69142 
L 230.155501 -71.460535 
L 230.557295 -71.229649 
L 230.958547 -70.998764 
L 231.359025 -70.767879 
L 231.758438 -70.536993 
L 232.156429 -70.306108 
L 232.552573 -70.075223 
L 232.946371 -69.844338 
L 233.337252 -69.613452 
L 233.724575 -69.382567 
L 234.107637 -69.151682 
L 234.485677 -68.920796 
L 234.857891 -68.689911 
L 235.223438 -68.459026 
L 235.581461 -68.228141 
L 235.931092 -67.997255 
L 236.271474 -67.76637 
L 236.601772 -67.535485 
L 236.921186 -67.3046 
L 237.228968 -67.073714 
L 237.524427 -66.842829 
L 237.806946 -66.611944 
L 238.075985 -66.381058 
L 238.331087 -66.150173 
L 238.571882 -65.919288 
L 238.798088 -65.688403 
L 239.00951 -65.457517 
L 239.206034 -65.226632 
L 239.387623 -64.995747 
L 239.554309 -64.764861 
L 239.706181 -64.533976 
L 239.843381 -64.303091 
L 239.966083 -64.072206 
L 240.074492 -63.84132 
L 240.168821 -63.610435 
L 240.249286 -63.37955 
L 240.316091 -63.148665 
L 240.36942 -62.917779 
L 240.409425 -62.686894 
L 240.436217 -62.456009 
L 240.449862 -62.225123 
L 240.450375 -61.994238 
L 240.437713 -61.763353 
L 240.411781 -61.532468 
L 240.372428 -61.301582 
L 240.319447 -61.070697 
L 240.252586 -60.839812 
L 240.171549 -60.608926 
L 240.076007 -60.378041 
L 239.965603 -60.147156 
L 239.839967 -59.916271 
L 239.698721 -59.685385 
L 239.541495 -59.4545 
L 239.367938 -59.223615 
L 239.177728 -58.99273 
L 238.970583 -58.761844 
L 238.746275 -58.530959 
L 238.504635 -58.300074 
L 238.245566 -58.069188 
L 237.969048 -57.838303 
L 237.675143 -57.607418 
L 237.364002 -57.376533 
L 237.035867 -57.145647 
L 236.69107 -56.914762 
L 236.330036 -56.683877 
L 235.953279 -56.452991 
L 235.561397 -56.222106 
L 235.155072 -55.991221 
L 234.735061 -55.760336 
L 234.302194 -55.52945 
L 233.857362 -55.298565 
L 233.401513 -55.06768 
L 232.935647 -54.836795 
L 232.460806 -54.605909 
L 231.978069 -54.375024 
L 231.488544 -54.144139 
L 230.993365 -53.913253 
L 230.493687 -53.682368 
L 229.990677 -53.451483 
L 229.485514 -53.220598 
L 228.979383 -52.989712 
L 228.473471 -52.758827 
L 227.968967 -52.527942 
L 227.467051 -52.297056 
L 226.968897 -52.066171 
L 226.475668 -51.835286 
L 225.988507 -51.604401 
z
" style="stroke: #ffffff; stroke-opacity: 0.65"/>
    </defs>
    <g clip-path="url(#p9632d80f8b)">
     <use xlink:href="#m237d1a4392" x="0" y="496.877344" style="fill: #4f7c6a; fill-opacity: 0.65; stroke: #ffffff; stroke-opacity: 0.65"/>
    </g>
   </g>
   <g id="FillBetweenPolyCollection_4">
    <defs>
     <path id="m9e1683dfde" d="M 292.579531 -85.890864 
L 275.218913 -85.890864 
L 274.76632 -86.314154 
L 274.308445 -86.737444 
L 273.846199 -87.160733 
L 273.3805 -87.584023 
L 272.912266 -88.007313 
L 272.442419 -88.430603 
L 271.971881 -88.853892 
L 271.501573 -89.277182 
L 271.032418 -89.700472 
L 270.565336 -90.123761 
L 270.101249 -90.547051 
L 269.641075 -90.970341 
L 269.185728 -91.39363 
L 268.736118 -91.81692 
L 268.293145 -92.24021 
L 267.857695 -92.663499 
L 267.43064 -93.086789 
L 267.012826 -93.510079 
L 266.605072 -93.933368 
L 266.20816 -94.356658 
L 265.822831 -94.779948 
L 265.449775 -95.203237 
L 265.089625 -95.626527 
L 264.742952 -96.049817 
L 264.410256 -96.473106 
L 264.091962 -96.896396 
L 263.788414 -97.319686 
L 263.499872 -97.742975 
L 263.22651 -98.166265 
L 262.968416 -98.589555 
L 262.725589 -99.012844 
L 262.497943 -99.436134 
L 262.285312 -99.859424 
L 262.087451 -100.282713 
L 261.904041 -100.706003 
L 261.734702 -101.129293 
L 261.578993 -101.552582 
L 261.436427 -101.975872 
L 261.306477 -102.399162 
L 261.188584 -102.822452 
L 261.082173 -103.245741 
L 260.986655 -103.669031 
L 260.901446 -104.092321 
L 260.825967 -104.51561 
L 260.759662 -104.9389 
L 260.702001 -105.36219 
L 260.652491 -105.785479 
L 260.610685 -106.208769 
L 260.576184 -106.632059 
L 260.548651 -107.055348 
L 260.527807 -107.478638 
L 260.513444 -107.901928 
L 260.505425 -108.325217 
L 260.503689 -108.748507 
L 260.508249 -109.171797 
L 260.519198 -109.595086 
L 260.53671 -110.018376 
L 260.561035 -110.441666 
L 260.592502 -110.864955 
L 260.631516 -111.288245 
L 260.678552 -111.711535 
L 260.734156 -112.134824 
L 260.798939 -112.558114 
L 260.873566 -112.981404 
L 260.958756 -113.404693 
L 261.055269 -113.827983 
L 261.163901 -114.251273 
L 261.28547 -114.674562 
L 261.420811 -115.097852 
L 261.570757 -115.521142 
L 261.736134 -115.944432 
L 261.917744 -116.367721 
L 262.116352 -116.791011 
L 262.332675 -117.214301 
L 262.567365 -117.63759 
L 262.820999 -118.06088 
L 263.094062 -118.48417 
L 263.386938 -118.907459 
L 263.699897 -119.330749 
L 264.033083 -119.754039 
L 264.386506 -120.177328 
L 264.760033 -120.600618 
L 265.153385 -121.023908 
L 265.566127 -121.447197 
L 265.997667 -121.870487 
L 266.447261 -122.293777 
L 266.914006 -122.717066 
L 267.39685 -123.140356 
L 267.894595 -123.563646 
L 268.405908 -123.986935 
L 268.929325 -124.410225 
L 269.463271 -124.833515 
L 270.006068 -125.256804 
L 270.555952 -125.680094 
L 271.111089 -126.103384 
L 271.669595 -126.526673 
L 272.22955 -126.949963 
L 272.789022 -127.373253 
L 273.346082 -127.796542 
L 294.452362 -127.796542 
L 294.452362 -127.796542 
L 295.009422 -127.373253 
L 295.568894 -126.949963 
L 296.128849 -126.526673 
L 296.687355 -126.103384 
L 297.242492 -125.680094 
L 297.792376 -125.256804 
L 298.335173 -124.833515 
L 298.869119 -124.410225 
L 299.392536 -123.986935 
L 299.903849 -123.563646 
L 300.401594 -123.140356 
L 300.884438 -122.717066 
L 301.351183 -122.293777 
L 301.800777 -121.870487 
L 302.232317 -121.447197 
L 302.645059 -121.023908 
L 303.038411 -120.600618 
L 303.411939 -120.177328 
L 303.765361 -119.754039 
L 304.098547 -119.330749 
L 304.411506 -118.907459 
L 304.704382 -118.48417 
L 304.977445 -118.06088 
L 305.231079 -117.63759 
L 305.465769 -117.214301 
L 305.682092 -116.791011 
L 305.8807 -116.367721 
L 306.06231 -115.944432 
L 306.227687 -115.521142 
L 306.377633 -115.097852 
L 306.512974 -114.674562 
L 306.634543 -114.251273 
L 306.743175 -113.827983 
L 306.839688 -113.404693 
L 306.924878 -112.981404 
L 306.999505 -112.558114 
L 307.064288 -112.134824 
L 307.119892 -111.711535 
L 307.166928 -111.288245 
L 307.205942 -110.864955 
L 307.237409 -110.441666 
L 307.261734 -110.018376 
L 307.279246 -109.595086 
L 307.290195 -109.171797 
L 307.294755 -108.748507 
L 307.293019 -108.325217 
L 307.285 -107.901928 
L 307.270637 -107.478638 
L 307.249794 -107.055348 
L 307.22226 -106.632059 
L 307.187759 -106.208769 
L 307.145953 -105.785479 
L 307.096444 -105.36219 
L 307.038782 -104.9389 
L 306.972477 -104.51561 
L 306.896998 -104.092321 
L 306.811789 -103.669031 
L 306.716271 -103.245741 
L 306.60986 -102.822452 
L 306.491967 -102.399162 
L 306.362017 -101.975872 
L 306.219451 -101.552582 
L 306.063742 -101.129293 
L 305.894403 -100.706003 
L 305.710993 -100.282713 
L 305.513132 -99.859424 
L 305.300501 -99.436134 
L 305.072855 -99.012844 
L 304.830028 -98.589555 
L 304.571934 -98.166265 
L 304.298572 -97.742975 
L 304.01003 -97.319686 
L 303.706482 -96.896396 
L 303.388188 -96.473106 
L 303.055492 -96.049817 
L 302.708819 -95.626527 
L 302.34867 -95.203237 
L 301.975613 -94.779948 
L 301.590284 -94.356658 
L 301.193372 -93.933368 
L 300.785618 -93.510079 
L 300.367804 -93.086789 
L 299.940749 -92.663499 
L 299.5053 -92.24021 
L 299.062326 -91.81692 
L 298.612716 -91.39363 
L 298.157369 -90.970341 
L 297.697195 -90.547051 
L 297.233108 -90.123761 
L 296.766026 -89.700472 
L 296.296871 -89.277182 
L 295.826563 -88.853892 
L 295.356025 -88.430603 
L 294.886178 -88.007313 
L 294.417944 -87.584023 
L 293.952245 -87.160733 
L 293.489999 -86.737444 
L 293.032124 -86.314154 
L 292.579531 -85.890864 
z
" style="stroke: #ffffff; stroke-opacity: 0.65"/>
    </defs>
    <g clip-path="url(#p9632d80f8b)">
     <use xlink:href="#m9e1683dfde" x="0" y="496.877344" style="fill: #8b6f47; fill-opacity: 0.65; stroke: #ffffff; stroke-opacity: 0.65"/>
    </g>
   </g>
   <g id="PathCollection_3">
    <defs>
     <path id="me127e7530a" d="M 0 1.732051 
C 0.459345 1.732051 0.899939 1.549551 1.224745 1.224745 
C 1.549551 0.899939 1.732051 0.459345 1.732051 0 
C 1.732051 -0.459345 1.549551 -0.899939 1.224745 -1.224745 
C 0.899939 -1.549551 0.459345 -1.732051 0 -1.732051 
C -0.459345 -1.732051 -0.899939 -1.549551 -1.224745 -1.224745 
C -1.549551 -0.899939 -1.732051 -0.459345 -1.732051 0 
C -1.732051 0.459345 -1.549551 0.899939 -1.224745 1.224745 
C -0.899939 1.549551 -0.459345 1.732051 0 1.732051 
z
" style="stroke: #ffffff; stroke-opacity: 0.85; stroke-width: 0.3"/>
    </defs>
    <g clip-path="url(#p9632d80f8b)">
     <use xlink:href="#me127e7530a" x="85.929819" y="466.225782" style="fill: #4b6f8a; fill-opacity: 0.85; stroke: #ffffff; stroke-opacity: 0.85; stroke-width: 0.3"/>
     <use xlink:href="#me127e7530a" x="82.794091" y="464.320979" style="fill: #4b6f8a; fill-opacity: 0.85; stroke: #ffffff; stroke-opacity: 0.85; stroke-width: 0.3"/>
     <use xlink:href="#me127e7530a" x="86.721915" y="463.368577" style="fill: #4b6f8a; fill-opacity: 0.85; stroke: #ffffff; stroke-opacity: 0.85; stroke-width: 0.3"/>
     <use xlink:href="#me127e7530a" x="85.213092" y="462.416175" style="fill: #4b6f8a; fill-opacity: 0.85; stroke: #ffffff; stroke-opacity: 0.85; stroke-width: 0.3"/>
     <use xlink:href="#me127e7530a" x="79.568305" y="461.463773" style="fill: #4b6f8a; fill-opacity: 0.85; stroke: #ffffff; stroke-opacity: 0.85; stroke-width: 0.3"/>
     <use xlink:href="#me127e7530a" x="87.817055" y="460.892332" style="fill: #4b6f8a; fill-opacity: 0.85; stroke: #ffffff; stroke-opacity: 0.85; stroke-width: 0.3"/>
     <use xlink:href="#me127e7530a" x="85.809881" y="460.511371" style="fill: #4b6f8a; fill-opacity: 0.85; stroke: #ffffff; stroke-opacity: 0.85; stroke-width: 0.3"/>
     <use xlink:href="#me127e7530a" x="86.04313" y="460.130411" style="fill: #4b6f8a; fill-opacity: 0.85; stroke: #ffffff; stroke-opacity: 0.85; stroke-width: 0.3"/>
     <use xlink:href="#me127e7530a" x="79.885888" y="459.55897" style="fill: #4b6f8a; fill-opacity: 0.85; stroke: #ffffff; stroke-opacity: 0.85; stroke-width: 0.3"/>
     <use xlink:href="#me127e7530a" x="82.901781" y="458.987529" style="fill: #4b6f8a; fill-opacity: 0.85; stroke: #ffffff; stroke-opacity: 0.85; stroke-width: 0.3"/>
     <use xlink:href="#me127e7530a" x="82.15698" y="458.606568" style="fill: #4b6f8a; fill-opacity: 0.85; stroke: #ffffff; stroke-opacity: 0.85; stroke-width: 0.3"/>
     <use xlink:href="#me127e7530a" x="87.359837" y="458.225607" style="fill: #4b6f8a; fill-opacity: 0.85; stroke: #ffffff; stroke-opacity: 0.85; stroke-width: 0.3"/>
     <use xlink:href="#me127e7530a" x="84.7124" y="457.654166" style="fill: #4b6f8a; fill-opacity: 0.85; stroke: #ffffff; stroke-opacity: 0.85; stroke-width: 0.3"/>
     <use xlink:href="#me127e7530a" x="86.386552" y="457.082725" style="fill: #4b6f8a; fill-opacity: 0.85; stroke: #ffffff; stroke-opacity: 0.85; stroke-width: 0.3"/>
     <use xlink:href="#me127e7530a" x="82.836538" y="456.701764" style="fill: #4b6f8a; fill-opacity: 0.85; stroke: #ffffff; stroke-opacity: 0.85; stroke-width: 0.3"/>
     <use xlink:href="#me127e7530a" x="80.813521" y="456.320804" style="fill: #4b6f8a; fill-opacity: 0.85; stroke: #ffffff; stroke-opacity: 0.85; stroke-width: 0.3"/>
     <use xlink:href="#me127e7530a" x="83.876896" y="455.749363" style="fill: #4b6f8a; fill-opacity: 0.85; stroke: #ffffff; stroke-opacity: 0.85; stroke-width: 0.3"/>
     <use xlink:href="#me127e7530a" x="79.284188" y="454.796961" style="fill: #4b6f8a; fill-opacity: 0.85; stroke: #ffffff; stroke-opacity: 0.85; stroke-width: 0.3"/>
     <use xlink:href="#me127e7530a" x="86.432122" y="453.844559" style="fill: #4b6f8a; fill-opacity: 0.85; stroke: #ffffff; stroke-opacity: 0.85; stroke-width: 0.3"/>
     <use xlink:href="#me127e7530a" x="84.598223" y="452.892157" style="fill: #4b6f8a; fill-opacity: 0.85; stroke: #ffffff; stroke-opacity: 0.85; stroke-width: 0.3"/>
    </g>
   </g>
   <g id="PathCollection_4">
    <defs>
     <path id="m9688079ff2" d="M 0 1.732051 
C 0.459345 1.732051 0.899939 1.549551 1.224745 1.224745 
C 1.549551 0.899939 1.732051 0.459345 1.732051 0 
C 1.732051 -0.459345 1.549551 -0.899939 1.224745 -1.224745 
C 0.899939 -1.549551 0.459345 -1.732051 0 -1.732051 
C -0.459345 -1.732051 -0.899939 -1.549551 -1.224745 -1.224745 
C -1.549551 -0.899939 -1.732051 -0.459345 -1.732051 0 
C -1.732051 0.459345 -1.549551 0.899939 -1.224745 1.224745 
C -0.899939 1.549551 -0.459345 1.732051 0 1.732051 
z
" style="stroke: #ffffff; stroke-opacity: 0.85; stroke-width: 0.3"/>
    </defs>
    <g clip-path="url(#p9632d80f8b)">
     <use xlink:href="#m9688079ff2" x="152.625701" y="357.65198" style="fill: #c47b45; fill-opacity: 0.85; stroke: #ffffff; stroke-opacity: 0.85; stroke-width: 0.3"/>
     <use xlink:href="#m9688079ff2" x="148.849083" y="353.842373" style="fill: #c47b45; fill-opacity: 0.85; stroke: #ffffff; stroke-opacity: 0.85; stroke-width: 0.3"/>
     <use xlink:href="#m9688079ff2" x="154.615353" y="350.032766" style="fill: #c47b45; fill-opacity: 0.85; stroke: #ffffff; stroke-opacity: 0.85; stroke-width: 0.3"/>
     <use xlink:href="#m9688079ff2" x="153.889372" y="346.223159" style="fill: #c47b45; fill-opacity: 0.85; stroke: #ffffff; stroke-opacity: 0.85; stroke-width: 0.3"/>
     <use xlink:href="#m9688079ff2" x="152.815633" y="344.318355" style="fill: #c47b45; fill-opacity: 0.85; stroke: #ffffff; stroke-opacity: 0.85; stroke-width: 0.3"/>
     <use xlink:href="#m9688079ff2" x="147.352824" y="342.413552" style="fill: #c47b45; fill-opacity: 0.85; stroke: #ffffff; stroke-opacity: 0.85; stroke-width: 0.3"/>
     <use xlink:href="#m9688079ff2" x="149.899029" y="340.508748" style="fill: #c47b45; fill-opacity: 0.85; stroke: #ffffff; stroke-opacity: 0.85; stroke-width: 0.3"/>
     <use xlink:href="#m9688079ff2" x="145.941279" y="338.603945" style="fill: #c47b45; fill-opacity: 0.85; stroke: #ffffff; stroke-opacity: 0.85; stroke-width: 0.3"/>
     <use xlink:href="#m9688079ff2" x="146.975228" y="336.699141" style="fill: #c47b45; fill-opacity: 0.85; stroke: #ffffff; stroke-opacity: 0.85; stroke-width: 0.3"/>
     <use xlink:href="#m9688079ff2" x="151.923472" y="334.794337" style="fill: #c47b45; fill-opacity: 0.85; stroke: #ffffff; stroke-opacity: 0.85; stroke-width: 0.3"/>
     <use xlink:href="#m9688079ff2" x="152.500997" y="332.889534" style="fill: #c47b45; fill-opacity: 0.85; stroke: #ffffff; stroke-opacity: 0.85; stroke-width: 0.3"/>
     <use xlink:href="#m9688079ff2" x="154.585516" y="330.98473" style="fill: #c47b45; fill-opacity: 0.85; stroke: #ffffff; stroke-opacity: 0.85; stroke-width: 0.3"/>
     <use xlink:href="#m9688079ff2" x="148.580497" y="329.079927" style="fill: #c47b45; fill-opacity: 0.85; stroke: #ffffff; stroke-opacity: 0.85; stroke-width: 0.3"/>
     <use xlink:href="#m9688079ff2" x="148.998195" y="327.175123" style="fill: #c47b45; fill-opacity: 0.85; stroke: #ffffff; stroke-opacity: 0.85; stroke-width: 0.3"/>
     <use xlink:href="#m9688079ff2" x="149.925557" y="325.27032" style="fill: #c47b45; fill-opacity: 0.85; stroke: #ffffff; stroke-opacity: 0.85; stroke-width: 0.3"/>
     <use xlink:href="#m9688079ff2" x="147.304467" y="323.365516" style="fill: #c47b45; fill-opacity: 0.85; stroke: #ffffff; stroke-opacity: 0.85; stroke-width: 0.3"/>
     <use xlink:href="#m9688079ff2" x="146.747187" y="319.555909" style="fill: #c47b45; fill-opacity: 0.85; stroke: #ffffff; stroke-opacity: 0.85; stroke-width: 0.3"/>
     <use xlink:href="#m9688079ff2" x="149.983102" y="315.746302" style="fill: #c47b45; fill-opacity: 0.85; stroke: #ffffff; stroke-opacity: 0.85; stroke-width: 0.3"/>
     <use xlink:href="#m9688079ff2" x="147.65482" y="311.936695" style="fill: #c47b45; fill-opacity: 0.85; stroke: #ffffff; stroke-opacity: 0.85; stroke-width: 0.3"/>
     <use xlink:href="#m9688079ff2" x="151.799616" y="306.222284" style="fill: #c47b45; fill-opacity: 0.85; stroke: #ffffff; stroke-opacity: 0.85; stroke-width: 0.3"/>
    </g>
   </g>
   <g id="PathCollection_5">
    <defs>
     <path id="meb3e78b4d2" d="M 0 1.732051 
C 0.459345 1.732051 0.899939 1.549551 1.224745 1.224745 
C 1.549551 0.899939 1.732051 0.459345 1.732051 0 
C 1.732051 -0.459345 1.549551 -0.899939 1.224745 -1.224745 
C 0.899939 -1.549551 0.459345 -1.732051 0 -1.732051 
C -0.459345 -1.732051 -0.899939 -1.549551 -1.224745 -1.224745 
C -1.549551 -0.899939 -1.732051 -0.459345 -1.732051 0 
C -1.732051 0.459345 -1.549551 0.899939 -1.224745 1.224745 
C -0.899939 1.549551 -0.459345 1.732051 0 1.732051 
z
" style="stroke: #ffffff; stroke-opacity: 0.85; stroke-width: 0.3"/>
    </defs>
    <g clip-path="url(#p9632d80f8b)">
     <use xlink:href="#meb3e78b4d2" x="216.466695" y="445.272943" style="fill: #4f7c6a; fill-opacity: 0.85; stroke: #ffffff; stroke-opacity: 0.85; stroke-width: 0.3"/>
     <use xlink:href="#meb3e78b4d2" x="220.168115" y="443.36814" style="fill: #4f7c6a; fill-opacity: 0.85; stroke: #ffffff; stroke-opacity: 0.85; stroke-width: 0.3"/>
     <use xlink:href="#meb3e78b4d2" x="218.928965" y="441.463336" style="fill: #4f7c6a; fill-opacity: 0.85; stroke: #ffffff; stroke-opacity: 0.85; stroke-width: 0.3"/>
     <use xlink:href="#meb3e78b4d2" x="215.298928" y="440.510934" style="fill: #4f7c6a; fill-opacity: 0.85; stroke: #ffffff; stroke-opacity: 0.85; stroke-width: 0.3"/>
     <use xlink:href="#meb3e78b4d2" x="220.164199" y="439.558532" style="fill: #4f7c6a; fill-opacity: 0.85; stroke: #ffffff; stroke-opacity: 0.85; stroke-width: 0.3"/>
     <use xlink:href="#meb3e78b4d2" x="219.906891" y="438.606131" style="fill: #4f7c6a; fill-opacity: 0.85; stroke: #ffffff; stroke-opacity: 0.85; stroke-width: 0.3"/>
     <use xlink:href="#meb3e78b4d2" x="216.00184" y="437.653729" style="fill: #4f7c6a; fill-opacity: 0.85; stroke: #ffffff; stroke-opacity: 0.85; stroke-width: 0.3"/>
     <use xlink:href="#meb3e78b4d2" x="215.07397" y="436.701327" style="fill: #4f7c6a; fill-opacity: 0.85; stroke: #ffffff; stroke-opacity: 0.85; stroke-width: 0.3"/>
     <use xlink:href="#meb3e78b4d2" x="218.762673" y="435.748925" style="fill: #4f7c6a; fill-opacity: 0.85; stroke: #ffffff; stroke-opacity: 0.85; stroke-width: 0.3"/>
     <use xlink:href="#meb3e78b4d2" x="213.683568" y="434.796524" style="fill: #4f7c6a; fill-opacity: 0.85; stroke: #ffffff; stroke-opacity: 0.85; stroke-width: 0.3"/>
     <use xlink:href="#meb3e78b4d2" x="214.246518" y="433.844122" style="fill: #4f7c6a; fill-opacity: 0.85; stroke: #ffffff; stroke-opacity: 0.85; stroke-width: 0.3"/>
     <use xlink:href="#meb3e78b4d2" x="212.444632" y="432.89172" style="fill: #4f7c6a; fill-opacity: 0.85; stroke: #ffffff; stroke-opacity: 0.85; stroke-width: 0.3"/>
     <use xlink:href="#meb3e78b4d2" x="219.739941" y="431.939318" style="fill: #4f7c6a; fill-opacity: 0.85; stroke: #ffffff; stroke-opacity: 0.85; stroke-width: 0.3"/>
     <use xlink:href="#meb3e78b4d2" x="218.597551" y="430.986917" style="fill: #4f7c6a; fill-opacity: 0.85; stroke: #ffffff; stroke-opacity: 0.85; stroke-width: 0.3"/>
     <use xlink:href="#meb3e78b4d2" x="218.974823" y="430.034515" style="fill: #4f7c6a; fill-opacity: 0.85; stroke: #ffffff; stroke-opacity: 0.85; stroke-width: 0.3"/>
     <use xlink:href="#meb3e78b4d2" x="219.681963" y="429.082113" style="fill: #4f7c6a; fill-opacity: 0.85; stroke: #ffffff; stroke-opacity: 0.85; stroke-width: 0.3"/>
     <use xlink:href="#meb3e78b4d2" x="216.670366" y="428.129711" style="fill: #4f7c6a; fill-opacity: 0.85; stroke: #ffffff; stroke-opacity: 0.85; stroke-width: 0.3"/>
     <use xlink:href="#meb3e78b4d2" x="217.698136" y="426.224908" style="fill: #4f7c6a; fill-opacity: 0.85; stroke: #ffffff; stroke-opacity: 0.85; stroke-width: 0.3"/>
     <use xlink:href="#meb3e78b4d2" x="213.683985" y="424.320104" style="fill: #4f7c6a; fill-opacity: 0.85; stroke: #ffffff; stroke-opacity: 0.85; stroke-width: 0.3"/>
     <use xlink:href="#meb3e78b4d2" x="213.447531" y="422.415301" style="fill: #4f7c6a; fill-opacity: 0.85; stroke: #ffffff; stroke-opacity: 0.85; stroke-width: 0.3"/>
    </g>
   </g>
   <g id="PathCollection_6">
    <defs>
     <path id="m0dd9a1de24" d="M 0 1.732051 
C 0.459345 1.732051 0.899939 1.549551 1.224745 1.224745 
C 1.549551 0.899939 1.732051 0.459345 1.732051 0 
C 1.732051 -0.459345 1.549551 -0.899939 1.224745 -1.224745 
C 0.899939 -1.549551 0.459345 -1.732051 0 -1.732051 
C -0.459345 -1.732051 -0.899939 -1.549551 -1.224745 -1.224745 
C -1.549551 -0.899939 -1.732051 -0.459345 -1.732051 0 
C -1.732051 0.459345 -1.549551 0.899939 -1.224745 1.224745 
C -0.899939 1.549551 -0.459345 1.732051 0 1.732051 
z
" style="stroke: #ffffff; stroke-opacity: 0.85; stroke-width: 0.3"/>
    </defs>
    <g clip-path="url(#p9632d80f8b)">
     <use xlink:href="#m0dd9a1de24" x="285.475173" y="410.986479" style="fill: #8b6f47; fill-opacity: 0.85; stroke: #ffffff; stroke-opacity: 0.85; stroke-width: 0.3"/>
     <use xlink:href="#m0dd9a1de24" x="283.628734" y="407.176872" style="fill: #8b6f47; fill-opacity: 0.85; stroke: #ffffff; stroke-opacity: 0.85; stroke-width: 0.3"/>
     <use xlink:href="#m0dd9a1de24" x="284.509715" y="403.367265" style="fill: #8b6f47; fill-opacity: 0.85; stroke: #ffffff; stroke-opacity: 0.85; stroke-width: 0.3"/>
     <use xlink:href="#m0dd9a1de24" x="286.379138" y="401.462462" style="fill: #8b6f47; fill-opacity: 0.85; stroke: #ffffff; stroke-opacity: 0.85; stroke-width: 0.3"/>
     <use xlink:href="#m0dd9a1de24" x="285.159945" y="399.557658" style="fill: #8b6f47; fill-opacity: 0.85; stroke: #ffffff; stroke-opacity: 0.85; stroke-width: 0.3"/>
     <use xlink:href="#m0dd9a1de24" x="284.400629" y="397.652854" style="fill: #8b6f47; fill-opacity: 0.85; stroke: #ffffff; stroke-opacity: 0.85; stroke-width: 0.3"/>
     <use xlink:href="#m0dd9a1de24" x="284.453295" y="395.748051" style="fill: #8b6f47; fill-opacity: 0.85; stroke: #ffffff; stroke-opacity: 0.85; stroke-width: 0.3"/>
     <use xlink:href="#m0dd9a1de24" x="282.064545" y="393.843247" style="fill: #8b6f47; fill-opacity: 0.85; stroke: #ffffff; stroke-opacity: 0.85; stroke-width: 0.3"/>
     <use xlink:href="#m0dd9a1de24" x="279.508515" y="391.938444" style="fill: #8b6f47; fill-opacity: 0.85; stroke: #ffffff; stroke-opacity: 0.85; stroke-width: 0.3"/>
     <use xlink:href="#m0dd9a1de24" x="283.30701" y="390.03364" style="fill: #8b6f47; fill-opacity: 0.85; stroke: #ffffff; stroke-opacity: 0.85; stroke-width: 0.3"/>
     <use xlink:href="#m0dd9a1de24" x="281.228245" y="388.128837" style="fill: #8b6f47; fill-opacity: 0.85; stroke: #ffffff; stroke-opacity: 0.85; stroke-width: 0.3"/>
     <use xlink:href="#m0dd9a1de24" x="283.043214" y="386.224033" style="fill: #8b6f47; fill-opacity: 0.85; stroke: #ffffff; stroke-opacity: 0.85; stroke-width: 0.3"/>
     <use xlink:href="#m0dd9a1de24" x="287.206443" y="384.31923" style="fill: #8b6f47; fill-opacity: 0.85; stroke: #ffffff; stroke-opacity: 0.85; stroke-width: 0.3"/>
     <use xlink:href="#m0dd9a1de24" x="281.409371" y="382.414426" style="fill: #8b6f47; fill-opacity: 0.85; stroke: #ffffff; stroke-opacity: 0.85; stroke-width: 0.3"/>
     <use xlink:href="#m0dd9a1de24" x="279.765725" y="380.509623" style="fill: #8b6f47; fill-opacity: 0.85; stroke: #ffffff; stroke-opacity: 0.85; stroke-width: 0.3"/>
     <use xlink:href="#m0dd9a1de24" x="281.853366" y="378.604819" style="fill: #8b6f47; fill-opacity: 0.85; stroke: #ffffff; stroke-opacity: 0.85; stroke-width: 0.3"/>
     <use xlink:href="#m0dd9a1de24" x="281.967628" y="376.700015" style="fill: #8b6f47; fill-opacity: 0.85; stroke: #ffffff; stroke-opacity: 0.85; stroke-width: 0.3"/>
     <use xlink:href="#m0dd9a1de24" x="285.414471" y="374.795212" style="fill: #8b6f47; fill-opacity: 0.85; stroke: #ffffff; stroke-opacity: 0.85; stroke-width: 0.3"/>
     <use xlink:href="#m0dd9a1de24" x="284.432941" y="372.890408" style="fill: #8b6f47; fill-opacity: 0.85; stroke: #ffffff; stroke-opacity: 0.85; stroke-width: 0.3"/>
     <use xlink:href="#m0dd9a1de24" x="286.556002" y="369.080801" style="fill: #8b6f47; fill-opacity: 0.85; stroke: #ffffff; stroke-opacity: 0.85; stroke-width: 0.3"/>
    </g>
   </g>
   <g id="matplotlib.axis_5">
    <g id="xtick_16">
     <g id="line2d_48">
      <g>
       <use xlink:href="#me651918ab2" x="83.36608" y="474.225957" style="stroke: #000000; stroke-width: 1.2"/>
      </g>
     </g>
     <g id="text_41">
      <text style="font-size: 9px; font-family: 'Arial', 'Helvetica', 'Liberation Sans', 'DejaVu Sans', sans-serif; text-anchor: middle" x="83.36608" y="487.783301" transform="rotate(-0 83.36608 487.783301)">Al2O3</text>
     </g>
    </g>
    <g id="xtick_17">
     <g id="line2d_49">
      <g>
       <use xlink:href="#me651918ab2" x="150.21046" y="474.225957" style="stroke: #000000; stroke-width: 1.2"/>
      </g>
     </g>
     <g id="text_42">
      <text style="font-size: 9px; font-family: 'Arial', 'Helvetica', 'Liberation Sans', 'DejaVu Sans', sans-serif; text-anchor: middle" x="150.21046" y="487.783301" transform="rotate(-0 150.21046 487.783301)">ZrO2</text>
     </g>
    </g>
    <g id="xtick_18">
     <g id="line2d_50">
      <g>
       <use xlink:href="#me651918ab2" x="217.054841" y="474.225957" style="stroke: #000000; stroke-width: 1.2"/>
      </g>
     </g>
     <g id="text_43">
      <text style="font-size: 9px; font-family: 'Arial', 'Helvetica', 'Liberation Sans', 'DejaVu Sans', sans-serif; text-anchor: middle" x="217.054841" y="487.778203" transform="rotate(-0 217.054841 487.778203)">SiC</text>
     </g>
    </g>
    <g id="xtick_19">
     <g id="line2d_51">
      <g>
       <use xlink:href="#me651918ab2" x="283.899222" y="474.225957" style="stroke: #000000; stroke-width: 1.2"/>
      </g>
     </g>
     <g id="text_44">
      <text style="font-size: 9px; font-family: 'Arial', 'Helvetica', 'Liberation Sans', 'DejaVu Sans', sans-serif; text-anchor: middle" x="283.899222" y="487.778203" transform="rotate(-0 283.899222 487.778203)">Si3N4</text>
     </g>
    </g>
   </g>
   <g id="matplotlib.axis_6">
    <g id="ytick_15">
     <g id="line2d_52">
      <path d="M 47.604336 449.08255 
L 319.660966 449.08255 
" clip-path="url(#p9632d80f8b)" style="fill: none; stroke: #e8e2d6; stroke-opacity: 0.8; stroke-width: 0.8; stroke-linecap: square"/>
     </g>
     <g id="line2d_53">
      <g>
       <use xlink:href="#mf85153a6f5" x="47.604336" y="449.08255" style="stroke: #000000; stroke-width: 1.2"/>
      </g>
     </g>
     <g id="text_45">
      <text style="font-size: 9px; font-family: 'Arial', 'Helvetica', 'Liberation Sans', 'DejaVu Sans', sans-serif; text-anchor: end" x="40.604336" y="452.358673" transform="rotate(-0 40.604336 452.358673)">400</text>
     </g>
    </g>
    <g id="ytick_16">
     <g id="line2d_54">
      <path d="M 47.604336 410.986479 
L 319.660966 410.986479 
" clip-path="url(#p9632d80f8b)" style="fill: none; stroke: #e8e2d6; stroke-opacity: 0.8; stroke-width: 0.8; stroke-linecap: square"/>
     </g>
     <g id="line2d_55">
      <g>
       <use xlink:href="#mf85153a6f5" x="47.604336" y="410.986479" style="stroke: #000000; stroke-width: 1.2"/>
      </g>
     </g>
     <g id="text_46">
      <text style="font-size: 9px; font-family: 'Arial', 'Helvetica', 'Liberation Sans', 'DejaVu Sans', sans-serif; text-anchor: end" x="40.604336" y="414.262602" transform="rotate(-0 40.604336 414.262602)">600</text>
     </g>
    </g>
    <g id="ytick_17">
     <g id="line2d_56">
      <path d="M 47.604336 372.890408 
L 319.660966 372.890408 
" clip-path="url(#p9632d80f8b)" style="fill: none; stroke: #e8e2d6; stroke-opacity: 0.8; stroke-width: 0.8; stroke-linecap: square"/>
     </g>
     <g id="line2d_57">
      <g>
       <use xlink:href="#mf85153a6f5" x="47.604336" y="372.890408" style="stroke: #000000; stroke-width: 1.2"/>
      </g>
     </g>
     <g id="text_47">
      <text style="font-size: 9px; font-family: 'Arial', 'Helvetica', 'Liberation Sans', 'DejaVu Sans', sans-serif; text-anchor: end" x="40.604336" y="376.166531" transform="rotate(-0 40.604336 376.166531)">800</text>
     </g>
    </g>
    <g id="ytick_18">
     <g id="line2d_58">
      <path d="M 47.604336 334.794337 
L 319.660966 334.794337 
" clip-path="url(#p9632d80f8b)" style="fill: none; stroke: #e8e2d6; stroke-opacity: 0.8; stroke-width: 0.8; stroke-linecap: square"/>
     </g>
     <g id="line2d_59">
      <g>
       <use xlink:href="#mf85153a6f5" x="47.604336" y="334.794337" style="stroke: #000000; stroke-width: 1.2"/>
      </g>
     </g>
     <g id="text_48">
      <text style="font-size: 9px; font-family: 'Arial', 'Helvetica', 'Liberation Sans', 'DejaVu Sans', sans-serif; text-anchor: end" x="40.604336" y="338.070461" transform="rotate(-0 40.604336 338.070461)">1000</text>
     </g>
    </g>
    <g id="text_49">
     <text style="font-size: 10px; font-family: 'Arial', 'Helvetica', 'Liberation Sans', 'DejaVu Sans', sans-serif; text-anchor: middle" x="14.480273" y="386.224033" transform="rotate(-90 14.480273 386.224033)">Flexural strength (MPa)</text>
    </g>
   </g>
   <g id="LineCollection_1">
    <path d="M 71.668313 458.797048 
L 95.063846 458.797048 
" clip-path="url(#p9632d80f8b)" style="fill: none; stroke: #333333; stroke-width: 1.5"/>
    <path d="M 138.512694 333.841936 
L 161.908227 333.841936 
" clip-path="url(#p9632d80f8b)" style="fill: none; stroke: #333333; stroke-width: 1.5"/>
    <path d="M 205.357075 434.320323 
L 228.752608 434.320323 
" clip-path="url(#p9632d80f8b)" style="fill: none; stroke: #333333; stroke-width: 1.5"/>
    <path d="M 272.201455 389.081239 
L 295.596989 389.081239 
" clip-path="url(#p9632d80f8b)" style="fill: none; stroke: #333333; stroke-width: 1.5"/>
   </g>
   <g id="patch_27">
    <path d="M 47.604336 474.225957 
L 47.604336 298.222109 
" style="fill: none; stroke: #000000; stroke-width: 1.5; stroke-linejoin: miter; stroke-linecap: square"/>
   </g>
   <g id="patch_28">
    <path d="M 47.604336 474.225957 
L 319.660966 474.225957 
" style="fill: none; stroke: #000000; stroke-width: 1.5; stroke-linejoin: miter; stroke-linecap: square"/>
   </g>
   <g id="text_50">
    <text style="font-weight: 700; font-size: 12px; font-family: 'Arial', 'Helvetica', 'Liberation Sans', 'DejaVu Sans', sans-serif; text-anchor: start" x="53.045469" y="310.478514" transform="rotate(-0 53.045469 310.478514)">c</text>
   </g>
   <g id="text_51">
    <text style="font-size: 9px; font-family: 'Arial', 'Helvetica', 'Liberation Sans', 'DejaVu Sans', sans-serif; text-anchor: middle" x="183.632651" y="292.222109" transform="rotate(-0 183.632651 292.222109)">Between-group comparison</text>
   </g>
  </g>
  <g id="axes_4">
   <g id="patch_29">
    <path d="M 360.981239 474.225957 
L 633.037869 474.225957 
L 633.037869 298.222109 
L 360.981239 298.222109 
z
" style="fill: #ffffff"/>
   </g>
   <g id="matplotlib.axis_7">
    <g id="xtick_20">
     <g id="line2d_60">
      <g>
       <use xlink:href="#me651918ab2" x="373.34745" y="474.225957" style="stroke: #000000; stroke-width: 1.2"/>
      </g>
     </g>
     <g id="text_52">
      <text style="font-size: 8px; font-family: 'Arial', 'Helvetica', 'Liberation Sans', 'DejaVu Sans', sans-serif; text-anchor: middle" x="373.34745" y="487.054707" transform="rotate(-0 373.34745 487.054707)">Al2O3</text>
     </g>
    </g>
    <g id="xtick_21">
     <g id="line2d_61">
      <g>
       <use xlink:href="#me651918ab2" x="455.788853" y="474.225957" style="stroke: #000000; stroke-width: 1.2"/>
      </g>
     </g>
     <g id="text_53">
      <text style="font-size: 8px; font-family: 'Arial', 'Helvetica', 'Liberation Sans', 'DejaVu Sans', sans-serif; text-anchor: middle" x="455.788853" y="487.054707" transform="rotate(-0 455.788853 487.054707)">ZrO2</text>
     </g>
    </g>
    <g id="xtick_22">
     <g id="line2d_62">
      <g>
       <use xlink:href="#me651918ab2" x="538.230256" y="474.225957" style="stroke: #000000; stroke-width: 1.2"/>
      </g>
     </g>
     <g id="text_54">
      <text style="font-size: 8px; font-family: 'Arial', 'Helvetica', 'Liberation Sans', 'DejaVu Sans', sans-serif; text-anchor: middle" x="538.230256" y="487.050176" transform="rotate(-0 538.230256 487.050176)">SiC</text>
     </g>
    </g>
    <g id="xtick_23">
     <g id="line2d_63">
      <g>
       <use xlink:href="#me651918ab2" x="620.671659" y="474.225957" style="stroke: #000000; stroke-width: 1.2"/>
      </g>
     </g>
     <g id="text_55">
      <text style="font-size: 8px; font-family: 'Arial', 'Helvetica', 'Liberation Sans', 'DejaVu Sans', sans-serif; text-anchor: middle" x="620.671659" y="487.050176" transform="rotate(-0 620.671659 487.050176)">Si3N4</text>
     </g>
    </g>
   </g>
   <g id="matplotlib.axis_8">
    <g id="ytick_19">
     <g id="line2d_64">
      <g>
       <use xlink:href="#mf85153a6f5" x="360.981239" y="470.358474" style="stroke: #000000; stroke-width: 1.2"/>
      </g>
     </g>
     <g id="text_56">
      <text style="font-size: 9px; font-family: 'Arial', 'Helvetica', 'Liberation Sans', 'DejaVu Sans', sans-serif; text-anchor: end" x="353.981239" y="473.634597" transform="rotate(-0 353.981239 473.634597)">12</text>
     </g>
    </g>
    <g id="ytick_20">
     <g id="line2d_65">
      <g>
       <use xlink:href="#mf85153a6f5" x="360.981239" y="447.583622" style="stroke: #000000; stroke-width: 1.2"/>
      </g>
     </g>
     <g id="text_57">
      <text style="font-size: 9px; font-family: 'Arial', 'Helvetica', 'Liberation Sans', 'DejaVu Sans', sans-serif; text-anchor: end" x="353.981239" y="450.859745" transform="rotate(-0 353.981239 450.859745)">14</text>
     </g>
    </g>
    <g id="ytick_21">
     <g id="line2d_66">
      <g>
       <use xlink:href="#mf85153a6f5" x="360.981239" y="424.808769" style="stroke: #000000; stroke-width: 1.2"/>
      </g>
     </g>
     <g id="text_58">
      <text style="font-size: 9px; font-family: 'Arial', 'Helvetica', 'Liberation Sans', 'DejaVu Sans', sans-serif; text-anchor: end" x="353.981239" y="428.084892" transform="rotate(-0 353.981239 428.084892)">16</text>
     </g>
    </g>
    <g id="ytick_22">
     <g id="line2d_67">
      <g>
       <use xlink:href="#mf85153a6f5" x="360.981239" y="402.033916" style="stroke: #000000; stroke-width: 1.2"/>
      </g>
     </g>
     <g id="text_59">
      <text style="font-size: 9px; font-family: 'Arial', 'Helvetica', 'Liberation Sans', 'DejaVu Sans', sans-serif; text-anchor: end" x="353.981239" y="405.310039" transform="rotate(-0 353.981239 405.310039)">18</text>
     </g>
    </g>
    <g id="ytick_23">
     <g id="line2d_68">
      <g>
       <use xlink:href="#mf85153a6f5" x="360.981239" y="379.259063" style="stroke: #000000; stroke-width: 1.2"/>
      </g>
     </g>
     <g id="text_60">
      <text style="font-size: 9px; font-family: 'Arial', 'Helvetica', 'Liberation Sans', 'DejaVu Sans', sans-serif; text-anchor: end" x="353.981239" y="382.535186" transform="rotate(-0 353.981239 382.535186)">20</text>
     </g>
    </g>
    <g id="ytick_24">
     <g id="line2d_69">
      <g>
       <use xlink:href="#mf85153a6f5" x="360.981239" y="356.484211" style="stroke: #000000; stroke-width: 1.2"/>
      </g>
     </g>
     <g id="text_61">
      <text style="font-size: 9px; font-family: 'Arial', 'Helvetica', 'Liberation Sans', 'DejaVu Sans', sans-serif; text-anchor: end" x="353.981239" y="359.760334" transform="rotate(-0 353.981239 359.760334)">22</text>
     </g>
    </g>
    <g id="ytick_25">
     <g id="line2d_70">
      <g>
       <use xlink:href="#mf85153a6f5" x="360.981239" y="333.709358" style="stroke: #000000; stroke-width: 1.2"/>
      </g>
     </g>
     <g id="text_62">
      <text style="font-size: 9px; font-family: 'Arial', 'Helvetica', 'Liberation Sans', 'DejaVu Sans', sans-serif; text-anchor: end" x="353.981239" y="336.985481" transform="rotate(-0 353.981239 336.985481)">24</text>
     </g>
    </g>
    <g id="ytick_26">
     <g id="line2d_71">
      <g>
       <use xlink:href="#mf85153a6f5" x="360.981239" y="310.934505" style="stroke: #000000; stroke-width: 1.2"/>
      </g>
     </g>
     <g id="text_63">
      <text style="font-size: 9px; font-family: 'Arial', 'Helvetica', 'Liberation Sans', 'DejaVu Sans', sans-serif; text-anchor: end" x="353.981239" y="314.210628" transform="rotate(-0 353.981239 314.210628)">26</text>
     </g>
    </g>
    <g id="text_64">
     <text style="font-size: 10px; font-family: 'Arial', 'Helvetica', 'Liberation Sans', 'DejaVu Sans', sans-serif; text-anchor: middle" x="337.866864" y="386.224033" transform="rotate(-90 337.866864 386.224033)">Vickers hardness (GPa)</text>
    </g>
   </g>
   <g id="LineCollection_2">
    <path d="M 373.34745 395.358711 
L 373.34745 388.970916 
" clip-path="url(#p50e4a3b90a)" style="fill: none; stroke: #4b6f8a; stroke-width: 1.5"/>
    <path d="M 455.788853 466.225782 
L 455.788853 461.964997 
" clip-path="url(#p50e4a3b90a)" style="fill: none; stroke: #4b6f8a; stroke-width: 1.5"/>
    <path d="M 538.230256 312.610079 
L 538.230256 306.222284 
" clip-path="url(#p50e4a3b90a)" style="fill: none; stroke: #4b6f8a; stroke-width: 1.5"/>
    <path d="M 620.671659 441.173444 
L 620.671659 436.912659 
" clip-path="url(#p50e4a3b90a)" style="fill: none; stroke: #4b6f8a; stroke-width: 1.5"/>
   </g>
   <g id="line2d_72">
    <defs>
     <path id="m97c8e4c801" d="M 5 0 
L -5 -0 
" style="stroke: #4b6f8a; stroke-width: 1.5"/>
    </defs>
    <g clip-path="url(#p50e4a3b90a)">
     <use xlink:href="#m97c8e4c801" x="373.34745" y="395.358711" style="fill: #4b6f8a; stroke: #4b6f8a; stroke-width: 1.5"/>
     <use xlink:href="#m97c8e4c801" x="455.788853" y="466.225782" style="fill: #4b6f8a; stroke: #4b6f8a; stroke-width: 1.5"/>
     <use xlink:href="#m97c8e4c801" x="538.230256" y="312.610079" style="fill: #4b6f8a; stroke: #4b6f8a; stroke-width: 1.5"/>
     <use xlink:href="#m97c8e4c801" x="620.671659" y="441.173444" style="fill: #4b6f8a; stroke: #4b6f8a; stroke-width: 1.5"/>
    </g>
   </g>
   <g id="line2d_73">
    <g clip-path="url(#p50e4a3b90a)">
     <use xlink:href="#m97c8e4c801" x="373.34745" y="388.970916" style="fill: #4b6f8a; stroke: #4b6f8a; stroke-width: 1.5"/>
     <use xlink:href="#m97c8e4c801" x="455.788853" y="461.964997" style="fill: #4b6f8a; stroke: #4b6f8a; stroke-width: 1.5"/>
     <use xlink:href="#m97c8e4c801" x="538.230256" y="306.222284" style="fill: #4b6f8a; stroke: #4b6f8a; stroke-width: 1.5"/>
     <use xlink:href="#m97c8e4c801" x="620.671659" y="436.912659" style="fill: #4b6f8a; stroke: #4b6f8a; stroke-width: 1.5"/>
    </g>
   </g>
   <g id="line2d_74">
    <defs>
     <path id="mccc6a8870a" d="M 0 4 
C 1.060812 4 2.078319 3.578535 2.828427 2.828427 
C 3.578535 2.078319 4 1.060812 4 0 
C 4 -1.060812 3.578535 -2.078319 2.828427 -2.828427 
C 2.078319 -3.578535 1.060812 -4 0 -4 
C -1.060812 -4 -2.078319 -3.578535 -2.828427 -2.828427 
C -3.578535 -2.078319 -4 -1.060812 -4 0 
C -4 1.060812 -3.578535 2.078319 -2.828427 2.828427 
C -2.078319 3.578535 -1.060812 4 0 4 
z
" style="stroke: #4b6f8a"/>
    </defs>
    <g clip-path="url(#p50e4a3b90a)">
     <use xlink:href="#mccc6a8870a" x="373.34745" y="392.164813" style="fill: #4b6f8a; stroke: #4b6f8a"/>
     <use xlink:href="#mccc6a8870a" x="455.788853" y="464.09539" style="fill: #4b6f8a; stroke: #4b6f8a"/>
     <use xlink:href="#mccc6a8870a" x="538.230256" y="309.416182" style="fill: #4b6f8a; stroke: #4b6f8a"/>
     <use xlink:href="#mccc6a8870a" x="620.671659" y="439.043052" style="fill: #4b6f8a; stroke: #4b6f8a"/>
    </g>
   </g>
   <g id="patch_30">
    <path d="M 360.981239 474.225957 
L 360.981239 298.222109 
" style="fill: none; stroke: #000000; stroke-width: 1.5; stroke-linejoin: miter; stroke-linecap: square"/>
   </g>
   <g id="patch_31">
    <path d="M 360.981239 474.225957 
L 633.037869 474.225957 
" style="fill: none; stroke: #000000; stroke-width: 1.5; stroke-linejoin: miter; stroke-linecap: square"/>
   </g>
   <g id="text_65">
    <text style="font-size: 7px; font-family: 'Arial', 'Helvetica', 'Liberation Sans', 'DejaVu Sans', sans-serif; text-anchor: middle" x="373.34745" y="382.942801" transform="rotate(-0 373.34745 382.942801)">18.9</text>
   </g>
   <g id="text_66">
    <text style="font-size: 7px; font-family: 'Arial', 'Helvetica', 'Liberation Sans', 'DejaVu Sans', sans-serif; text-anchor: middle" x="455.788853" y="455.936882" transform="rotate(-0 455.788853 455.936882)">12.6</text>
   </g>
   <g id="text_67">
    <text style="font-size: 7px; font-family: 'Arial', 'Helvetica', 'Liberation Sans', 'DejaVu Sans', sans-serif; text-anchor: middle" x="538.230256" y="300.194169" transform="rotate(-0 538.230256 300.194169)">26.1</text>
   </g>
   <g id="text_68">
    <text style="font-size: 7px; font-family: 'Arial', 'Helvetica', 'Liberation Sans', 'DejaVu Sans', sans-serif; text-anchor: middle" x="620.671659" y="430.884544" transform="rotate(-0 620.671659 430.884544)">14.8</text>
   </g>
   <g id="text_69">
    <text style="font-weight: 700; font-size: 12px; font-family: 'Arial', 'Helvetica', 'Liberation Sans', 'DejaVu Sans', sans-serif; text-anchor: start" x="366.422372" y="310.478514" transform="rotate(-0 366.422372 310.478514)">d</text>
   </g>
   <g id="text_70">
    <!-- Hardness repeatability (mean $\pm$ SD, n=6) -->
    <g transform="translate(414.074554 292.222109)">
     <text>
      <tspan x="0" y="-0.453125" style="font-size: 9px; font-family: 'Arial'">H</tspan>
      <tspan x="6.499512" y="-0.453125" style="font-size: 9px; font-family: 'Arial'">a</tspan>
      <tspan x="11.504883" y="-0.453125" style="font-size: 9px; font-family: 'Arial'">r</tspan>
      <tspan x="14.501953" y="-0.453125" style="font-size: 9px; font-family: 'Arial'">d</tspan>
      <tspan x="19.507324" y="-0.453125" style="font-size: 9px; font-family: 'Arial'">n</tspan>
      <tspan x="24.512695" y="-0.453125" style="font-size: 9px; font-family: 'Arial'">e</tspan>
      <tspan x="29.518066" y="-0.453125" style="font-size: 9px; font-family: 'Arial'">s</tspan>
      <tspan x="34.018066" y="-0.453125" style="font-size: 9px; font-family: 'Arial'">s</tspan>
      <tspan x="38.518066" y="-0.453125" style="font-size: 9px; font-family: 'Arial'"> </tspan>
      <tspan x="41.018555" y="-0.453125" style="font-size: 9px; font-family: 'Arial'">r</tspan>
      <tspan x="44.015625" y="-0.453125" style="font-size: 9px; font-family: 'Arial'">e</tspan>
      <tspan x="49.020996" y="-0.453125" style="font-size: 9px; font-family: 'Arial'">p</tspan>
      <tspan x="54.026367" y="-0.453125" style="font-size: 9px; font-family: 'Arial'">e</tspan>
      <tspan x="59.031738" y="-0.453125" style="font-size: 9px; font-family: 'Arial'">a</tspan>
      <tspan x="64.037109" y="-0.453125" style="font-size: 9px; font-family: 'Arial'">t</tspan>
      <tspan x="66.537598" y="-0.453125" style="font-size: 9px; font-family: 'Arial'">a</tspan>
      <tspan x="71.542969" y="-0.453125" style="font-size: 9px; font-family: 'Arial'">b</tspan>
      <tspan x="76.54834" y="-0.453125" style="font-size: 9px; font-family: 'Arial'">i</tspan>
      <tspan x="78.547852" y="-0.453125" style="font-size: 9px; font-family: 'Arial'">l</tspan>
      <tspan x="80.547363" y="-0.453125" style="font-size: 9px; font-family: 'Arial'">i</tspan>
      <tspan x="82.546875" y="-0.453125" style="font-size: 9px; font-family: 'Arial'">t</tspan>
      <tspan x="85.047363" y="-0.453125" style="font-size: 9px; font-family: 'Arial'">y</tspan>
      <tspan x="89.547363" y="-0.453125" style="font-size: 9px; font-family: 'Arial'"> </tspan>
      <tspan x="92.047852" y="-0.453125" style="font-size: 9px; font-family: 'Arial'">(</tspan>
      <tspan x="95.044922" y="-0.453125" style="font-size: 9px; font-family: 'Arial'">m</tspan>
      <tspan x="102.541992" y="-0.453125" style="font-size: 9px; font-family: 'Arial'">e</tspan>
      <tspan x="107.547363" y="-0.453125" style="font-size: 9px; font-family: 'Arial'">a</tspan>
      <tspan x="112.552734" y="-0.453125" style="font-size: 9px; font-family: 'Arial'">n</tspan>
      <tspan x="117.558105" y="-0.453125" style="font-size: 9px; font-family: 'Arial'"> </tspan>
      <tspan x="127.599609" y="-0.453125" style="font-size: 9px; font-family: 'Arial'"> </tspan>
      <tspan x="130.100098" y="-0.453125" style="font-size: 9px; font-family: 'Arial'">S</tspan>
      <tspan x="136.103027" y="-0.453125" style="font-size: 9px; font-family: 'Arial'">D</tspan>
      <tspan x="142.602539" y="-0.453125" style="font-size: 9px; font-family: 'Arial'">,</tspan>
      <tspan x="145.103027" y="-0.453125" style="font-size: 9px; font-family: 'Arial'"> </tspan>
      <tspan x="147.603516" y="-0.453125" style="font-size: 9px; font-family: 'Arial'">n</tspan>
      <tspan x="152.608887" y="-0.453125" style="font-size: 9px; font-family: 'Arial'">=</tspan>
      <tspan x="157.864746" y="-0.453125" style="font-size: 9px; font-family: 'Arial'">6</tspan>
      <tspan x="162.870117" y="-0.453125" style="font-size: 9px; font-family: 'Arial'">)</tspan>
      <tspan x="120.058594" y="-0.453125" style="font-size: 9px; font-family: 'DejaVu Sans'">±</tspan>
     </text>
    </g>
   </g>
  </g>
  <g id="text_71">
   <text style="font-weight: 700; font-size: 12px; font-family: 'Arial', 'Helvetica', 'Liberation Sans', 'DejaVu Sans', sans-serif; text-anchor: middle" x="319.901836" y="15.936328" transform="rotate(-0 319.901836 15.936328)">Distribution Plots - Brittle-material strength statistics</text>
  </g>
 </g>
 <defs>
  <clipPath id="p118b739adf">
   <rect x="47.604336" y="68.381719" width="272.05663" height="176.003848"/>
  </clipPath>
  <clipPath id="p51e0b27dda">
   <rect x="360.981239" y="68.381719" width="272.05663" height="176.003848"/>
  </clipPath>
  <clipPath id="p9632d80f8b">
   <rect x="47.604336" y="298.222109" width="272.05663" height="176.003848"/>
  </clipPath>
  <clipPath id="p50e4a3b90a">
   <rect x="360.981239" y="298.222109" width="272.05663" height="176.003848"/>
  </clipPath>
 </defs>
</svg>
