<?xml version="1.0" encoding="utf-8" standalone="no"?>
<!DOCTYPE svg PUBLIC "-//W3C//DTD SVG 1.1//EN"
  "http://www.w3.org/Graphics/SVG/1.1/DTD/svg11.dtd">
<svg xmlns:xlink="http://www.w3.org/1999/xlink" width="624.197806pt" height="567.756123pt" viewBox="0 0 624.197806 567.756123" xmlns="http://www.w3.org/2000/svg" version="1.1">
 <metadata>
  <rdf:RDF xmlns:dc="http://purl.org/dc/elements/1.1/" xmlns:cc="http://creativecommons.org/ns#" xmlns:rdf="http://www.w3.org/1999/02/22-rdf-syntax-ns#">
   <cc:Work>
    <dc:type rdf:resource="http://purl.org/dc/dcmitype/StillImage"/>
    <dc:date>2026-06-19T17:21:33.615835</dc:date>
    <dc:format>image/svg+xml</dc:format>
    <dc:creator>
     <cc:Agent>
      <dc:title>Matplotlib v3.11.0, https://matplotlib.org/</dc:title>
     </cc:Agent>
    </dc:creator>
   </cc:Work>
  </rdf:RDF>
 </metadata>
 <defs>
  <style type="text/css">*{stroke-linejoin: round; stroke-linecap: butt}</style>
 </defs>
 <g id="figure_1">
  <g id="patch_1">
   <path d="M -0 567.756123 
L 624.197806 567.756123 
L 624.197806 0 
L -0 0 
z
" style="fill: #ffffff"/>
  </g>
  <g id="axes_1">
   <g id="patch_2">
    <path d="M 219.958123 190.126289 
C 219.958123 177.646072 217.499792 165.28721 212.72382 153.756994 
C 207.947848 142.226777 200.947115 131.74944 192.122269 122.924594 
C 183.297423 114.099748 172.820086 107.099015 161.289869 102.323043 
C 149.759653 97.547071 137.40079 95.08874 124.920574 95.08874 
C 112.440357 95.08874 100.081495 97.547071 88.551278 102.323043 
C 77.021062 107.099015 66.543724 114.099748 57.718879 122.924594 
C 48.894033 131.74944 41.8933 142.226777 37.117328 153.756994 
C 32.341355 165.28721 29.883025 177.646072 29.883025 190.126289 
C 29.883025 202.606506 32.341355 214.965368 37.117328 226.495584 
C 41.8933 238.025801 48.894033 248.503139 57.718879 257.327984 
C 66.543724 266.15283 77.021062 273.153563 88.551278 277.929535 
C 100.081495 282.705507 112.440357 285.163838 124.920574 285.163838 
C 137.40079 285.163838 149.759653 282.705507 161.289869 277.929535 
C 172.820086 273.153563 183.297423 266.15283 192.122269 257.327984 
C 200.947115 248.503139 207.947848 238.025801 212.72382 226.495584 
C 217.499792 214.965368 219.958123 202.606506 219.958123 190.126289 
M 124.920574 190.126289 
C 124.920574 190.126289 124.920574 190.126289 124.920574 190.126289 
C 124.920574 190.126289 124.920574 190.126289 124.920574 190.126289 
C 124.920574 190.126289 124.920574 190.126289 124.920574 190.126289 
C 124.920574 190.126289 124.920574 190.126289 124.920574 190.126289 
C 124.920574 190.126289 124.920574 190.126289 124.920574 190.126289 
C 124.920574 190.126289 124.920574 190.126289 124.920574 190.126289 
C 124.920574 190.126289 124.920574 190.126289 124.920574 190.126289 
C 124.920574 190.126289 124.920574 190.126289 124.920574 190.126289 
C 124.920574 190.126289 124.920574 190.126289 124.920574 190.126289 
C 124.920574 190.126289 124.920574 190.126289 124.920574 190.126289 
C 124.920574 190.126289 124.920574 190.126289 124.920574 190.126289 
C 124.920574 190.126289 124.920574 190.126289 124.920574 190.126289 
C 124.920574 190.126289 124.920574 190.126289 124.920574 190.126289 
C 124.920574 190.126289 124.920574 190.126289 124.920574 190.126289 
C 124.920574 190.126289 124.920574 190.126289 124.920574 190.126289 
C 124.920574 190.126289 124.920574 190.126289 124.920574 190.126289 
z
" style="fill: #ffffff"/>
   </g>
   <g id="patch_3">
    <path d="M 167.687471 190.126289 
L 136.667861 153.971857 
L 86.477078 162.195454 
L 82.632728 220.850207 
L 151.35197 271.473761 
z
" clip-path="url(#pdc4337cb22)" style="fill: #4b6f8a; opacity: 0.18; stroke: #4b6f8a; stroke-linejoin: miter"/>
   </g>
   <g id="patch_4">
    <path d="M 200.950613 190.126289 
L 149.883559 113.298121 
L 59.56663 142.64387 
L 67.25533 232.022541 
L 142.541504 244.357937 
z
" clip-path="url(#pdc4337cb22)" style="fill: #c47b45; opacity: 0.18; stroke: #c47b45; stroke-linejoin: miter"/>
   </g>
   <g id="patch_5">
    <path d="M 191.446858 190.126289 
L 146.946737 122.336729 
L 71.099679 151.02312 
L 71.099679 229.229458 
L 139.604683 235.319329 
z
" clip-path="url(#pdc4337cb22)" style="fill: #4f7c6a; opacity: 0.18; stroke: #4f7c6a; stroke-linejoin: miter"/>
   </g>
   <g id="matplotlib.axis_1">
    <g id="xtick_1">
     <g id="line2d_1">
      <path d="M 124.920574 190.126289 
L 219.958123 190.126289 
" clip-path="url(#pdc4337cb22)" style="fill: none; stroke: #b0b0b0; stroke-width: 0.8; stroke-linecap: square"/>
     </g>
     <g id="text_1">
      <text style="font-size: 9px; font-family: 'Arial', 'Helvetica', 'Liberation Sans', 'DejaVu Sans', sans-serif; text-anchor: middle" x="233.958123" y="192.455303" transform="rotate(-0 233.958123 192.455303)">Bond strength</text>
     </g>
    </g>
    <g id="xtick_2">
     <g id="line2d_2">
      <path d="M 124.920574 190.126289 
L 154.288791 99.740209 
" clip-path="url(#pdc4337cb22)" style="fill: none; stroke: #b0b0b0; stroke-width: 0.8; stroke-linecap: square"/>
     </g>
     <g id="text_2">
      <text style="font-size: 9px; font-family: 'Arial', 'Helvetica', 'Liberation Sans', 'DejaVu Sans', sans-serif; text-anchor: middle" x="158.615029" y="88.754431" transform="rotate(-0 158.615029 88.754431)">Rutting resist</text>
     </g>
    </g>
    <g id="xtick_3">
     <g id="line2d_3">
      <path d="M 124.920574 190.126289 
L 48.033582 134.264619 
" clip-path="url(#pdc4337cb22)" style="fill: none; stroke: #b0b0b0; stroke-width: 0.8; stroke-linecap: square"/>
     </g>
     <g id="text_3">
      <text style="font-size: 9px; font-family: 'Arial', 'Helvetica', 'Liberation Sans', 'DejaVu Sans', sans-serif; text-anchor: middle" x="36.707344" y="128.36464" transform="rotate(-0 36.707344 128.36464)">Fatigue life</text>
     </g>
    </g>
    <g id="xtick_4">
     <g id="line2d_4">
      <path d="M 124.920574 190.126289 
L 48.033582 245.987959 
" clip-path="url(#pdc4337cb22)" style="fill: none; stroke: #b0b0b0; stroke-width: 0.8; stroke-linecap: square"/>
     </g>
     <g id="text_4">
      <text style="font-size: 9px; font-family: 'Arial', 'Helvetica', 'Liberation Sans', 'DejaVu Sans', sans-serif; text-anchor: middle" x="36.707344" y="256.546054" transform="rotate(-0 36.707344 256.546054)">Moisture resist</text>
     </g>
    </g>
    <g id="xtick_5">
     <g id="line2d_5">
      <path d="M 124.920574 190.126289 
L 154.288791 280.512369 
" clip-path="url(#pdc4337cb22)" style="fill: none; stroke: #b0b0b0; stroke-width: 0.8; stroke-linecap: square"/>
     </g>
     <g id="text_5">
      <text style="font-size: 9px; font-family: 'Arial', 'Helvetica', 'Liberation Sans', 'DejaVu Sans', sans-serif; text-anchor: middle" x="158.615029" y="296.156174" transform="rotate(-0 158.615029 296.156174)">Workability</text>
     </g>
    </g>
   </g>
   <g id="matplotlib.axis_2">
    <g id="ytick_1">
     <g id="line2d_6">
      <path d="M 148.679961 190.126289 
C 148.679961 187.006235 148.065378 183.916519 146.871385 181.033965 
C 145.677392 178.151411 143.927209 175.532077 141.720998 173.325865 
C 139.514786 171.119654 136.895452 169.369471 134.012898 168.175478 
C 131.130343 166.981484 128.040628 166.366902 124.920574 166.366902 
C 121.80052 166.366902 118.710804 166.981484 115.82825 168.175478 
C 112.945696 169.369471 110.326361 171.119654 108.12015 173.325865 
C 105.913939 175.532077 104.163755 178.151411 102.969762 181.033965 
C 101.775769 183.916519 101.161187 187.006235 101.161187 190.126289 
C 101.161187 193.246343 101.775769 196.336059 102.969762 199.218613 
C 104.163755 202.101167 105.913939 204.720501 108.12015 206.926713 
C 110.326361 209.132924 112.945696 210.883108 115.82825 212.077101 
C 118.710804 213.271094 121.80052 213.885676 124.920574 213.885676 
C 128.040628 213.885676 131.130343 213.271094 134.012898 212.077101 
C 136.895452 210.883108 139.514786 209.132924 141.720998 206.926713 
C 143.927209 204.720501 145.677392 202.101167 146.871385 199.218613 
C 148.065378 196.336059 148.679961 193.246343 148.679961 190.126289 
" clip-path="url(#pdc4337cb22)" style="fill: none; stroke: #b0b0b0; stroke-width: 0.8; stroke-linecap: square"/>
     </g>
     <g id="text_6">
      <text style="font-size: 9px; font-family: 'Arial', 'Helvetica', 'Liberation Sans', 'DejaVu Sans', sans-serif; text-anchor: start" x="146.871385" y="179.139922" transform="rotate(-0 146.871385 179.139922)">0.25</text>
     </g>
    </g>
    <g id="ytick_2">
     <g id="line2d_7">
      <path d="M 172.439348 190.126289 
C 172.439348 183.886181 171.210183 177.70675 168.822197 171.941641 
C 166.434211 166.176533 162.933844 160.937864 158.521421 156.525441 
C 154.108999 152.113019 148.87033 148.612652 143.105221 146.224666 
C 137.340113 143.83668 131.160682 142.607515 124.920574 142.607515 
C 118.680465 142.607515 112.501034 143.83668 106.735926 146.224666 
C 100.970818 148.612652 95.732149 152.113019 91.319726 156.525441 
C 86.907303 160.937864 83.406937 166.176533 81.018951 171.941641 
C 78.630965 177.70675 77.401799 183.886181 77.401799 190.126289 
C 77.401799 196.366397 78.630965 202.545828 81.018951 208.310937 
C 83.406937 214.076045 86.907303 219.314714 91.319726 223.727137 
C 95.732149 228.13956 100.970818 231.639926 106.735926 234.027912 
C 112.501034 236.415898 118.680465 237.645063 124.920574 237.645063 
C 131.160682 237.645063 137.340113 236.415898 143.105221 234.027912 
C 148.87033 231.639926 154.108999 228.13956 158.521421 223.727137 
C 162.933844 219.314714 166.434211 214.076045 168.822197 208.310937 
C 171.210183 202.545828 172.439348 196.366397 172.439348 190.126289 
" clip-path="url(#pdc4337cb22)" style="fill: none; stroke: #b0b0b0; stroke-width: 0.8; stroke-linecap: square"/>
     </g>
     <g id="text_7">
      <text style="font-size: 9px; font-family: 'Arial', 'Helvetica', 'Liberation Sans', 'DejaVu Sans', sans-serif; text-anchor: start" x="168.822197" y="170.047598" transform="rotate(-0 168.822197 170.047598)">0.50</text>
     </g>
    </g>
    <g id="ytick_3">
     <g id="line2d_8">
      <path d="M 196.198735 190.126289 
C 196.198735 180.766127 194.354987 171.49698 190.773008 162.849318 
C 187.191029 154.201655 181.94048 146.343652 175.321845 139.725018 
C 168.703211 133.106383 160.845208 127.855834 152.197545 124.273854 
C 143.549883 120.691875 134.280736 118.848127 124.920574 118.848127 
C 115.560411 118.848127 106.291265 120.691875 97.643602 124.273854 
C 88.99594 127.855834 81.137937 133.106383 74.519302 139.725018 
C 67.900668 146.343652 62.650118 154.201655 59.068139 162.849318 
C 55.48616 171.49698 53.642412 180.766127 53.642412 190.126289 
C 53.642412 199.486451 55.48616 208.755598 59.068139 217.403261 
C 62.650118 226.050923 67.900668 233.908926 74.519302 240.52756 
C 81.137937 247.146195 88.99594 252.396745 97.643602 255.978724 
C 106.291265 259.560703 115.560411 261.404451 124.920574 261.404451 
C 134.280736 261.404451 143.549883 259.560703 152.197545 255.978724 
C 160.845208 252.396745 168.703211 247.146195 175.321845 240.52756 
C 181.94048 233.908926 187.191029 226.050923 190.773008 217.403261 
C 194.354987 208.755598 196.198735 199.486451 196.198735 190.126289 
" clip-path="url(#pdc4337cb22)" style="fill: none; stroke: #b0b0b0; stroke-width: 0.8; stroke-linecap: square"/>
     </g>
     <g id="text_8">
      <text style="font-size: 9px; font-family: 'Arial', 'Helvetica', 'Liberation Sans', 'DejaVu Sans', sans-serif; text-anchor: start" x="190.773008" y="160.955275" transform="rotate(-0 190.773008 160.955275)">0.75</text>
     </g>
    </g>
    <g id="ytick_4">
     <g id="line2d_9">
      <path d="M 219.958123 190.126289 
C 219.958123 177.646072 217.499792 165.28721 212.72382 153.756994 
C 207.947848 142.226777 200.947115 131.74944 192.122269 122.924594 
C 183.297423 114.099748 172.820086 107.099015 161.289869 102.323043 
C 149.759653 97.547071 137.40079 95.08874 124.920574 95.08874 
C 112.440357 95.08874 100.081495 97.547071 88.551278 102.323043 
C 77.021062 107.099015 66.543724 114.099748 57.718879 122.924594 
C 48.894033 131.74944 41.8933 142.226777 37.117328 153.756994 
C 32.341355 165.28721 29.883025 177.646072 29.883025 190.126289 
C 29.883025 202.606506 32.341355 214.965368 37.117328 226.495584 
C 41.8933 238.025801 48.894033 248.503139 57.718879 257.327984 
C 66.543724 266.15283 77.021062 273.153563 88.551278 277.929535 
C 100.081495 282.705507 112.440357 285.163838 124.920574 285.163838 
C 137.40079 285.163838 149.759653 282.705507 161.289869 277.929535 
C 172.820086 273.153563 183.297423 266.15283 192.122269 257.327984 
C 200.947115 248.503139 207.947848 238.025801 212.72382 226.495584 
C 217.499792 214.965368 219.958123 202.606506 219.958123 190.126289 
" clip-path="url(#pdc4337cb22)" style="fill: none; stroke: #b0b0b0; stroke-width: 0.8; stroke-linecap: square"/>
     </g>
     <g id="text_9">
      <text style="font-size: 9px; font-family: 'Arial', 'Helvetica', 'Liberation Sans', 'DejaVu Sans', sans-serif; text-anchor: start" x="212.72382" y="151.862951" transform="rotate(-0 212.72382 151.862951)">1.00</text>
     </g>
    </g>
   </g>
   <g id="line2d_10">
    <path d="M 167.687471 190.126289 
L 136.667861 153.971857 
L 86.477078 162.195454 
L 82.632728 220.850207 
L 151.35197 271.473761 
L 167.687471 190.126289 
" clip-path="url(#pdc4337cb22)" style="fill: none; stroke: #4b6f8a; stroke-width: 2; stroke-linecap: square"/>
   </g>
   <g id="line2d_11">
    <path d="M 200.950613 190.126289 
L 149.883559 113.298121 
L 59.56663 142.64387 
L 67.25533 232.022541 
L 142.541504 244.357937 
L 200.950613 190.126289 
" clip-path="url(#pdc4337cb22)" style="fill: none; stroke: #c47b45; stroke-width: 2; stroke-linecap: square"/>
   </g>
   <g id="line2d_12">
    <path d="M 191.446858 190.126289 
L 146.946737 122.336729 
L 71.099679 151.02312 
L 71.099679 229.229458 
L 139.604683 235.319329 
L 191.446858 190.126289 
" clip-path="url(#pdc4337cb22)" style="fill: none; stroke: #4f7c6a; stroke-width: 2; stroke-linecap: square"/>
   </g>
   <g id="patch_6">
    <path d="M 219.958123 190.126289 
C 219.958123 177.646072 217.499792 165.28721 212.72382 153.756994 
C 207.947848 142.226777 200.947115 131.74944 192.122269 122.924594 
C 183.297423 114.099748 172.820086 107.099015 161.289869 102.323043 
C 149.759653 97.547071 137.40079 95.08874 124.920574 95.08874 
C 112.440357 95.08874 100.081495 97.547071 88.551278 102.323043 
C 77.021062 107.099015 66.543724 114.099748 57.718879 122.924594 
C 48.894033 131.74944 41.8933 142.226777 37.117328 153.756994 
C 32.341355 165.28721 29.883025 177.646072 29.883025 190.126289 
C 29.883025 202.606506 32.341355 214.965368 37.117328 226.495584 
C 41.8933 238.025801 48.894033 248.503139 57.718879 257.327984 
C 66.543724 266.15283 77.021062 273.153563 88.551278 277.929535 
C 100.081495 282.705507 112.440357 285.163838 124.920574 285.163838 
C 137.40079 285.163838 149.759653 282.705507 161.289869 277.929535 
C 172.820086 273.153563 183.297423 266.15283 192.122269 257.327984 
C 200.947115 248.503139 207.947848 238.025801 212.72382 226.495584 
C 217.499792 214.965368 219.958123 202.606506 219.958123 190.126289 
" style="fill: none; stroke: #000000; stroke-width: 1.5; stroke-linejoin: miter; stroke-linecap: square"/>
   </g>
   <g id="text_10">
    <text style="font-weight: 700; font-size: 12px; font-family: 'Arial', 'Helvetica', 'Liberation Sans', 'DejaVu Sans', sans-serif; text-anchor: start" x="33.684527" y="107.62657" transform="rotate(-0 33.684527 107.62657)">a</text>
   </g>
   <g id="text_11">
    <text style="font-size: 9px; font-family: 'Arial', 'Helvetica', 'Liberation Sans', 'DejaVu Sans', sans-serif; text-anchor: middle" x="124.920574" y="70.202185" transform="rotate(-0 124.920574 70.202185)">Asphalt modifier screening</text>
   </g>
   <g id="legend_1">
    <g id="line2d_13">
     <path d="M 188.088147 76.801694 
L 196.088147 76.801694 
L 204.088147 76.801694 
" style="fill: none; stroke: #4b6f8a; stroke-width: 2; stroke-linecap: square"/>
    </g>
    <g id="text_12">
     <text style="font-size: 8px; font-family: 'Arial', 'Helvetica', 'Liberation Sans', 'DejaVu Sans', sans-serif; text-anchor: start" x="210.488147" y="79.601694" transform="rotate(-0 210.488147 79.601694)">Neat</text>
    </g>
    <g id="line2d_14">
     <path d="M 188.088147 88.309507 
L 196.088147 88.309507 
L 204.088147 88.309507 
" style="fill: none; stroke: #c47b45; stroke-width: 2; stroke-linecap: square"/>
    </g>
    <g id="text_13">
     <text style="font-size: 8px; font-family: 'Arial', 'Helvetica', 'Liberation Sans', 'DejaVu Sans', sans-serif; text-anchor: start" x="210.488147" y="91.109507" transform="rotate(-0 210.488147 91.109507)">SBS</text>
    </g>
    <g id="line2d_15">
     <path d="M 188.088147 99.817319 
L 196.088147 99.817319 
L 204.088147 99.817319 
" style="fill: none; stroke: #4f7c6a; stroke-width: 2; stroke-linecap: square"/>
    </g>
    <g id="text_14">
     <text style="font-size: 8px; font-family: 'Arial', 'Helvetica', 'Liberation Sans', 'DejaVu Sans', sans-serif; text-anchor: start" x="210.488147" y="102.617319" transform="rotate(-0 210.488147 102.617319)">Crumb-rubber</text>
    </g>
   </g>
  </g>
  <g id="axes_2">
   <g id="patch_7">
    <path d="M 572.979032 190.126289 
C 572.979032 177.646072 570.520701 165.28721 565.744729 153.756994 
C 560.968757 142.226777 553.968024 131.74944 545.143178 122.924594 
C 536.318332 114.099748 525.840995 107.099015 514.310778 102.323043 
C 502.780562 97.547071 490.421699 95.08874 477.941483 95.08874 
C 465.461266 95.08874 453.102404 97.547071 441.572187 102.323043 
C 430.041971 107.099015 419.564633 114.099748 410.739788 122.924594 
C 401.914942 131.74944 394.914209 142.226777 390.138237 153.756994 
C 385.362265 165.28721 382.903934 177.646072 382.903934 190.126289 
C 382.903934 202.606506 385.362265 214.965368 390.138237 226.495584 
C 394.914209 238.025801 401.914942 248.503139 410.739788 257.327984 
C 419.564633 266.15283 430.041971 273.153563 441.572187 277.929535 
C 453.102404 282.705507 465.461266 285.163838 477.941483 285.163838 
C 490.421699 285.163838 502.780562 282.705507 514.310778 277.929535 
C 525.840995 273.153563 536.318332 266.15283 545.143178 257.327984 
C 553.968024 248.503139 560.968757 238.025801 565.744729 226.495584 
C 570.520701 214.965368 572.979032 202.606506 572.979032 190.126289 
M 477.941483 190.126289 
C 477.941483 190.126289 477.941483 190.126289 477.941483 190.126289 
C 477.941483 190.126289 477.941483 190.126289 477.941483 190.126289 
C 477.941483 190.126289 477.941483 190.126289 477.941483 190.126289 
C 477.941483 190.126289 477.941483 190.126289 477.941483 190.126289 
C 477.941483 190.126289 477.941483 190.126289 477.941483 190.126289 
C 477.941483 190.126289 477.941483 190.126289 477.941483 190.126289 
C 477.941483 190.126289 477.941483 190.126289 477.941483 190.126289 
C 477.941483 190.126289 477.941483 190.126289 477.941483 190.126289 
C 477.941483 190.126289 477.941483 190.126289 477.941483 190.126289 
C 477.941483 190.126289 477.941483 190.126289 477.941483 190.126289 
C 477.941483 190.126289 477.941483 190.126289 477.941483 190.126289 
C 477.941483 190.126289 477.941483 190.126289 477.941483 190.126289 
C 477.941483 190.126289 477.941483 190.126289 477.941483 190.126289 
C 477.941483 190.126289 477.941483 190.126289 477.941483 190.126289 
C 477.941483 190.126289 477.941483 190.126289 477.941483 190.126289 
C 477.941483 190.126289 477.941483 190.126289 477.941483 190.126289 
z
" style="fill: #ffffff"/>
   </g>
   <g id="patch_8">
    <path d="M 477.941483 190.126289 
C 477.941483 190.126289 477.941483 190.126289 477.941483 190.126289 
C 477.941483 190.126289 477.941483 190.126289 477.941483 190.126289 
L 567.679092 178.312109 
C 568.194767 182.229048 568.453434 186.175551 568.453434 190.126289 
C 568.453434 194.077027 568.194767 198.02353 567.679092 201.940469 
z
" clip-path="url(#p88634793ab)" style="fill: #8b6f47; opacity: 0.8; stroke: #ffffff; stroke-linejoin: miter"/>
   </g>
   <g id="patch_9">
    <path d="M 477.941483 190.126289 
C 477.941483 190.126289 477.941483 190.126289 477.941483 190.126289 
C 477.941483 190.126289 477.941483 190.126289 477.941483 190.126289 
L 500.24072 180.889643 
C 500.643889 181.862978 500.982898 182.861666 501.255571 183.879298 
C 501.528245 184.89693 501.733999 185.931324 501.871512 186.975841 
z
" clip-path="url(#p88634793ab)" style="fill: #8b6f47; opacity: 0.8; stroke: #ffffff; stroke-linejoin: miter"/>
   </g>
   <g id="patch_10">
    <path d="M 477.941483 190.126289 
C 477.941483 190.126289 477.941483 190.126289 477.941483 190.126289 
C 477.941483 190.126289 477.941483 190.126289 477.941483 190.126289 
L 490.707342 180.330701 
C 491.134908 180.887915 491.525533 181.472526 491.876709 182.080782 
C 492.227886 182.689038 492.538862 183.319635 492.807641 183.968525 
z
" clip-path="url(#p88634793ab)" style="fill: #8b6f47; opacity: 0.8; stroke: #ffffff; stroke-linejoin: miter"/>
   </g>
   <g id="patch_11">
    <path d="M 477.941483 190.126289 
C 477.941483 190.126289 477.941483 190.126289 477.941483 190.126289 
C 477.941483 190.126289 477.941483 190.126289 477.941483 190.126289 
L 484.063726 182.147627 
C 484.411985 182.414856 484.742374 182.704599 485.052773 183.014999 
C 485.363173 183.325398 485.652916 183.655787 485.920145 184.004046 
z
" clip-path="url(#p88634793ab)" style="fill: #8b6f47; opacity: 0.8; stroke: #ffffff; stroke-linejoin: miter"/>
   </g>
   <g id="patch_12">
    <path d="M 477.941483 190.126289 
C 477.941483 190.126289 477.941483 190.126289 477.941483 190.126289 
C 477.941483 190.126289 477.941483 190.126289 477.941483 190.126289 
L 484.099247 175.260131 
C 484.748137 175.52891 485.378734 175.839886 485.98699 176.191063 
C 486.595246 176.542239 487.179857 176.932864 487.737071 177.36043 
z
" clip-path="url(#p88634793ab)" style="fill: #8b6f47; opacity: 0.8; stroke: #ffffff; stroke-linejoin: miter"/>
   </g>
   <g id="patch_13">
    <path d="M 477.941483 190.126289 
C 477.941483 190.126289 477.941483 190.126289 477.941483 190.126289 
C 477.941483 190.126289 477.941483 190.126289 477.941483 190.126289 
L 480.566856 170.184598 
C 481.437287 170.299193 482.299282 170.470654 483.147309 170.697882 
C 483.995335 170.92511 484.827576 171.207618 485.638688 171.543591 
z
" clip-path="url(#p88634793ab)" style="fill: #8b6f47; opacity: 0.8; stroke: #ffffff; stroke-linejoin: miter"/>
   </g>
   <g id="patch_14">
    <path d="M 477.941483 190.126289 
C 477.941483 190.126289 477.941483 190.126289 477.941483 190.126289 
C 477.941483 190.126289 477.941483 190.126289 477.941483 190.126289 
L 467.439989 110.359526 
C 470.921713 109.901148 474.429716 109.671221 477.941483 109.671221 
C 481.45325 109.671221 484.961253 109.901148 488.442977 110.359526 
z
" clip-path="url(#p88634793ab)" style="fill: #8b6f47; opacity: 0.8; stroke: #ffffff; stroke-linejoin: miter"/>
   </g>
   <g id="patch_15">
    <path d="M 477.941483 190.126289 
C 477.941483 190.126289 477.941483 190.126289 477.941483 190.126289 
C 477.941483 190.126289 477.941483 190.126289 477.941483 190.126289 
L 470.244277 171.543591 
C 471.05539 171.207618 471.88763 170.92511 472.735657 170.697882 
C 473.583684 170.470654 474.445679 170.299193 475.316109 170.184598 
z
" clip-path="url(#p88634793ab)" style="fill: #8b6f47; opacity: 0.8; stroke: #ffffff; stroke-linejoin: miter"/>
   </g>
   <g id="patch_16">
    <path d="M 477.941483 190.126289 
C 477.941483 190.126289 477.941483 190.126289 477.941483 190.126289 
C 477.941483 190.126289 477.941483 190.126289 477.941483 190.126289 
L 468.145894 177.36043 
C 468.703109 176.932864 469.28772 176.542239 469.895976 176.191063 
C 470.504232 175.839886 471.134829 175.52891 471.783719 175.260131 
z
" clip-path="url(#p88634793ab)" style="fill: #8b6f47; opacity: 0.8; stroke: #ffffff; stroke-linejoin: miter"/>
   </g>
   <g id="patch_17">
    <path d="M 477.941483 190.126289 
C 477.941483 190.126289 477.941483 190.126289 477.941483 190.126289 
C 477.941483 190.126289 477.941483 190.126289 477.941483 190.126289 
L 469.962821 184.004046 
C 470.230049 183.655787 470.519793 183.325398 470.830192 183.014999 
C 471.140592 182.704599 471.470981 182.414856 471.81924 182.147627 
z
" clip-path="url(#p88634793ab)" style="fill: #8b6f47; opacity: 0.8; stroke: #ffffff; stroke-linejoin: miter"/>
   </g>
   <g id="patch_18">
    <path d="M 477.941483 190.126289 
C 477.941483 190.126289 477.941483 190.126289 477.941483 190.126289 
C 477.941483 190.126289 477.941483 190.126289 477.941483 190.126289 
L 463.075325 183.968525 
C 463.344104 183.319635 463.65508 182.689038 464.006256 182.080782 
C 464.357433 181.472526 464.748058 180.887915 465.175624 180.330701 
z
" clip-path="url(#p88634793ab)" style="fill: #8b6f47; opacity: 0.8; stroke: #ffffff; stroke-linejoin: miter"/>
   </g>
   <g id="patch_19">
    <path d="M 477.941483 190.126289 
C 477.941483 190.126289 477.941483 190.126289 477.941483 190.126289 
C 477.941483 190.126289 477.941483 190.126289 477.941483 190.126289 
L 454.011454 186.975841 
C 454.148967 185.931324 454.354721 184.89693 454.627395 183.879298 
C 454.900068 182.861666 455.239077 181.862978 455.642246 180.889643 
z
" clip-path="url(#p88634793ab)" style="fill: #8b6f47; opacity: 0.8; stroke: #ffffff; stroke-linejoin: miter"/>
   </g>
   <g id="matplotlib.axis_3">
    <g id="xtick_6">
     <g id="line2d_16">
      <path d="M 477.941483 190.126289 
L 572.979032 190.126289 
" clip-path="url(#p88634793ab)" style="fill: none; stroke: #b0b0b0; stroke-width: 0.8; stroke-linecap: square"/>
     </g>
     <g id="text_15">
      <text style="font-size: 9px; font-family: 'Arial', 'Helvetica', 'Liberation Sans', 'DejaVu Sans', sans-serif; text-anchor: middle" x="586.979032" y="192.455391" transform="rotate(-0 586.979032 192.455391)">0°</text>
     </g>
    </g>
    <g id="xtick_7">
     <g id="line2d_17">
      <path d="M 477.941483 190.126289 
L 545.143178 122.924594 
" clip-path="url(#p88634793ab)" style="fill: none; stroke: #b0b0b0; stroke-width: 0.8; stroke-linecap: square"/>
     </g>
     <g id="text_16">
      <text style="font-size: 9px; font-family: 'Arial', 'Helvetica', 'Liberation Sans', 'DejaVu Sans', sans-serif; text-anchor: middle" x="555.042673" y="115.3542" transform="rotate(-0 555.042673 115.3542)">45°</text>
     </g>
    </g>
    <g id="xtick_8">
     <g id="line2d_18">
      <path d="M 477.941483 190.126289 
L 477.941483 95.08874 
" clip-path="url(#p88634793ab)" style="fill: none; stroke: #b0b0b0; stroke-width: 0.8; stroke-linecap: square"/>
     </g>
     <g id="text_17">
      <text style="font-size: 9px; font-family: 'Arial', 'Helvetica', 'Liberation Sans', 'DejaVu Sans', sans-serif; text-anchor: middle" x="477.941483" y="83.417842" transform="rotate(-0 477.941483 83.417842)">90°</text>
     </g>
    </g>
    <g id="xtick_9">
     <g id="line2d_19">
      <path d="M 477.941483 190.126289 
L 410.739788 122.924594 
" clip-path="url(#p88634793ab)" style="fill: none; stroke: #b0b0b0; stroke-width: 0.8; stroke-linecap: square"/>
     </g>
     <g id="text_18">
      <text style="font-size: 9px; font-family: 'Arial', 'Helvetica', 'Liberation Sans', 'DejaVu Sans', sans-serif; text-anchor: middle" x="400.840293" y="115.3542" transform="rotate(-0 400.840293 115.3542)">135°</text>
     </g>
    </g>
    <g id="xtick_10">
     <g id="line2d_20">
      <path d="M 477.941483 190.126289 
L 382.903934 190.126289 
" clip-path="url(#p88634793ab)" style="fill: none; stroke: #b0b0b0; stroke-width: 0.8; stroke-linecap: square"/>
     </g>
     <g id="text_19">
      <text style="font-size: 9px; font-family: 'Arial', 'Helvetica', 'Liberation Sans', 'DejaVu Sans', sans-serif; text-anchor: middle" x="368.903934" y="192.455391" transform="rotate(-0 368.903934 192.455391)">180°</text>
     </g>
    </g>
    <g id="xtick_11">
     <g id="line2d_21">
      <path d="M 477.941483 190.126289 
L 410.739788 257.327984 
" clip-path="url(#p88634793ab)" style="fill: none; stroke: #b0b0b0; stroke-width: 0.8; stroke-linecap: square"/>
     </g>
     <g id="text_20">
      <text style="font-size: 9px; font-family: 'Arial', 'Helvetica', 'Liberation Sans', 'DejaVu Sans', sans-serif; text-anchor: middle" x="400.840293" y="269.556581" transform="rotate(-0 400.840293 269.556581)">225°</text>
     </g>
    </g>
    <g id="xtick_12">
     <g id="line2d_22">
      <path d="M 477.941483 190.126289 
L 477.941483 285.163838 
" clip-path="url(#p88634793ab)" style="fill: none; stroke: #b0b0b0; stroke-width: 0.8; stroke-linecap: square"/>
     </g>
     <g id="text_21">
      <text style="font-size: 9px; font-family: 'Arial', 'Helvetica', 'Liberation Sans', 'DejaVu Sans', sans-serif; text-anchor: middle" x="477.941483" y="301.492939" transform="rotate(-0 477.941483 301.492939)">270°</text>
     </g>
    </g>
    <g id="xtick_13">
     <g id="line2d_23">
      <path d="M 477.941483 190.126289 
L 545.143178 257.327984 
" clip-path="url(#p88634793ab)" style="fill: none; stroke: #b0b0b0; stroke-width: 0.8; stroke-linecap: square"/>
     </g>
     <g id="text_22">
      <text style="font-size: 9px; font-family: 'Arial', 'Helvetica', 'Liberation Sans', 'DejaVu Sans', sans-serif; text-anchor: middle" x="555.042673" y="269.556581" transform="rotate(-0 555.042673 269.556581)">315°</text>
     </g>
    </g>
   </g>
   <g id="matplotlib.axis_4">
    <g id="ytick_5">
     <g id="line2d_24">
      <path d="M 498.05525 190.126289 
C 498.05525 187.484973 497.534968 184.869341 496.52418 182.429084 
C 495.513393 179.988826 494.031756 177.7714 492.164064 175.903708 
C 490.296372 174.036016 488.078946 172.554379 485.638688 171.543591 
C 483.198431 170.532804 480.582799 170.012522 477.941483 170.012522 
C 475.300167 170.012522 472.684535 170.532804 470.244277 171.543591 
C 467.80402 172.554379 465.586594 174.036016 463.718902 175.903708 
C 461.85121 177.7714 460.369573 179.988826 459.358785 182.429084 
C 458.347998 184.869341 457.827716 187.484973 457.827716 190.126289 
C 457.827716 192.767605 458.347998 195.383237 459.358785 197.823494 
C 460.369573 200.263752 461.85121 202.481178 463.718902 204.34887 
C 465.586594 206.216562 467.80402 207.698199 470.244277 208.708987 
C 472.684535 209.719774 475.300167 210.240056 477.941483 210.240056 
C 480.582799 210.240056 483.198431 209.719774 485.638688 208.708987 
C 488.078946 207.698199 490.296372 206.216562 492.164064 204.34887 
C 494.031756 202.481178 495.513393 200.263752 496.52418 197.823494 
C 497.534968 195.383237 498.05525 192.767605 498.05525 190.126289 
" clip-path="url(#p88634793ab)" style="fill: none; stroke: #b0b0b0; stroke-width: 0.8; stroke-linecap: square"/>
     </g>
     <g id="text_23">
      <text style="font-size: 9px; font-family: 'Arial', 'Helvetica', 'Liberation Sans', 'DejaVu Sans', sans-serif; text-anchor: start" x="496.52418" y="180.535041" transform="rotate(-0 496.52418 180.535041)">10</text>
     </g>
    </g>
    <g id="ytick_6">
     <g id="line2d_25">
      <path d="M 518.169017 190.126289 
C 518.169017 184.843658 517.128454 179.612393 515.106878 174.731878 
C 513.085303 169.851363 510.122029 165.416512 506.386645 161.681127 
C 502.65126 157.945743 498.216409 154.982469 493.335894 152.960894 
C 488.455379 150.939318 483.224114 149.898755 477.941483 149.898755 
C 472.658852 149.898755 467.427587 150.939318 462.547072 152.960894 
C 457.666557 154.982469 453.231705 157.945743 449.496321 161.681127 
C 445.760936 165.416512 442.797663 169.851363 440.776088 174.731878 
C 438.754512 179.612393 437.713949 184.843658 437.713949 190.126289 
C 437.713949 195.40892 438.754512 200.640185 440.776088 205.5207 
C 442.797663 210.401215 445.760936 214.836067 449.496321 218.571451 
C 453.231705 222.306836 457.666557 225.270109 462.547072 227.291684 
C 467.427587 229.31326 472.658852 230.353823 477.941483 230.353823 
C 483.224114 230.353823 488.455379 229.31326 493.335894 227.291684 
C 498.216409 225.270109 502.65126 222.306836 506.386645 218.571451 
C 510.122029 214.836067 513.085303 210.401215 515.106878 205.5207 
C 517.128454 200.640185 518.169017 195.40892 518.169017 190.126289 
" clip-path="url(#p88634793ab)" style="fill: none; stroke: #b0b0b0; stroke-width: 0.8; stroke-linecap: square"/>
     </g>
     <g id="text_24">
      <text style="font-size: 9px; font-family: 'Arial', 'Helvetica', 'Liberation Sans', 'DejaVu Sans', sans-serif; text-anchor: start" x="515.106878" y="172.837835" transform="rotate(-0 515.106878 172.837835)">20</text>
     </g>
    </g>
    <g id="ytick_7">
     <g id="line2d_26">
      <path d="M 538.282784 190.126289 
C 538.282784 182.202342 536.721939 174.355445 533.689576 167.034673 
C 530.657212 159.7139 526.212303 153.061623 520.609226 147.458546 
C 515.006149 141.855469 508.353871 137.410559 501.033099 134.378196 
C 493.712327 131.345833 485.86543 129.784988 477.941483 129.784988 
C 470.017536 129.784988 462.170639 131.345833 454.849867 134.378196 
C 447.529094 137.410559 440.876817 141.855469 435.27374 147.458546 
C 429.670663 153.061623 425.225753 159.7139 422.19339 167.034673 
C 419.161027 174.355445 417.600182 182.202342 417.600182 190.126289 
C 417.600182 198.050236 419.161027 205.897133 422.19339 213.217905 
C 425.225753 220.538678 429.670663 227.190955 435.27374 232.794032 
C 440.876817 238.397109 447.529094 242.842019 454.849867 245.874382 
C 462.170639 248.906745 470.017536 250.46759 477.941483 250.46759 
C 485.86543 250.46759 493.712327 248.906745 501.033099 245.874382 
C 508.353871 242.842019 515.006149 238.397109 520.609226 232.794032 
C 526.212303 227.190955 530.657212 220.538678 533.689576 213.217905 
C 536.721939 205.897133 538.282784 198.050236 538.282784 190.126289 
" clip-path="url(#p88634793ab)" style="fill: none; stroke: #b0b0b0; stroke-width: 0.8; stroke-linecap: square"/>
     </g>
     <g id="text_25">
      <text style="font-size: 9px; font-family: 'Arial', 'Helvetica', 'Liberation Sans', 'DejaVu Sans', sans-serif; text-anchor: start" x="533.689576" y="165.14063" transform="rotate(-0 533.689576 165.14063)">30</text>
     </g>
    </g>
    <g id="ytick_8">
     <g id="line2d_27">
      <path d="M 558.396551 190.126289 
C 558.396551 179.561026 556.315424 169.098498 552.272273 159.337468 
C 548.229122 149.576438 542.302576 140.706734 534.831807 133.235965 
C 527.361038 125.765196 518.491334 119.83865 508.730304 115.795499 
C 498.969274 111.752348 488.506746 109.671221 477.941483 109.671221 
C 467.37622 109.671221 456.913691 111.752348 447.152661 115.795499 
C 437.391631 119.83865 428.521928 125.765196 421.051159 133.235965 
C 413.58039 140.706734 407.653843 149.576438 403.610692 159.337468 
C 399.567541 169.098498 397.486415 179.561026 397.486415 190.126289 
C 397.486415 200.691552 399.567541 211.154081 403.610692 220.915111 
C 407.653843 230.676141 413.58039 239.545844 421.051159 247.016613 
C 428.521928 254.487382 437.391631 260.413928 447.152661 264.457079 
C 456.913691 268.50023 467.37622 270.581357 477.941483 270.581357 
C 488.506746 270.581357 498.969274 268.50023 508.730304 264.457079 
C 518.491334 260.413928 527.361038 254.487382 534.831807 247.016613 
C 542.302576 239.545844 548.229122 230.676141 552.272273 220.915111 
C 556.315424 211.154081 558.396551 200.691552 558.396551 190.126289 
" clip-path="url(#p88634793ab)" style="fill: none; stroke: #b0b0b0; stroke-width: 0.8; stroke-linecap: square"/>
     </g>
     <g id="text_26">
      <text style="font-size: 9px; font-family: 'Arial', 'Helvetica', 'Liberation Sans', 'DejaVu Sans', sans-serif; text-anchor: start" x="552.272273" y="157.443425" transform="rotate(-0 552.272273 157.443425)">40</text>
     </g>
    </g>
   </g>
   <g id="patch_20">
    <path d="M 572.979032 190.126289 
C 572.979032 177.646072 570.520701 165.28721 565.744729 153.756994 
C 560.968757 142.226777 553.968024 131.74944 545.143178 122.924594 
C 536.318332 114.099748 525.840995 107.099015 514.310778 102.323043 
C 502.780562 97.547071 490.421699 95.08874 477.941483 95.08874 
C 465.461266 95.08874 453.102404 97.547071 441.572187 102.323043 
C 430.041971 107.099015 419.564633 114.099748 410.739788 122.924594 
C 401.914942 131.74944 394.914209 142.226777 390.138237 153.756994 
C 385.362265 165.28721 382.903934 177.646072 382.903934 190.126289 
C 382.903934 202.606506 385.362265 214.965368 390.138237 226.495584 
C 394.914209 238.025801 401.914942 248.503139 410.739788 257.327984 
C 419.564633 266.15283 430.041971 273.153563 441.572187 277.929535 
C 453.102404 282.705507 465.461266 285.163838 477.941483 285.163838 
C 490.421699 285.163838 502.780562 282.705507 514.310778 277.929535 
C 525.840995 273.153563 536.318332 266.15283 545.143178 257.327984 
C 553.968024 248.503139 560.968757 238.025801 565.744729 226.495584 
C 570.520701 214.965368 572.979032 202.606506 572.979032 190.126289 
" style="fill: none; stroke: #000000; stroke-width: 1.5; stroke-linejoin: miter; stroke-linecap: square"/>
   </g>
   <g id="text_27">
    <text style="font-weight: 700; font-size: 12px; font-family: 'Arial', 'Helvetica', 'Liberation Sans', 'DejaVu Sans', sans-serif; text-anchor: start" x="386.705436" y="107.62657" transform="rotate(-0 386.705436 107.62657)">b</text>
   </g>
   <g id="text_28">
    <text style="font-size: 9px; font-family: 'Arial', 'Helvetica', 'Liberation Sans', 'DejaVu Sans', sans-serif; text-anchor: middle" x="477.941483" y="64.865596" transform="rotate(-0 477.941483 64.865596)">Fiber orientation (cross-ply)</text>
   </g>
  </g>
  <g id="axes_3">
   <g id="patch_21">
    <path d="M 219.958123 447.29543 
C 219.958123 434.815213 217.499792 422.456351 212.72382 410.926134 
C 207.947848 399.395918 200.947115 388.91858 192.122269 380.093734 
C 183.297423 371.268889 172.820086 364.268156 161.289869 359.492184 
C 149.759653 354.716211 137.40079 352.257881 124.920574 352.257881 
C 112.440357 352.257881 100.081495 354.716211 88.551278 359.492184 
C 77.021062 364.268156 66.543724 371.268889 57.718879 380.093734 
C 48.894033 388.91858 41.8933 399.395918 37.117328 410.926134 
C 32.341355 422.456351 29.883025 434.815213 29.883025 447.29543 
C 29.883025 459.775646 32.341355 472.134508 37.117328 483.664725 
C 41.8933 495.194942 48.894033 505.672279 57.718879 514.497125 
C 66.543724 523.321971 77.021062 530.322704 88.551278 535.098676 
C 100.081495 539.874648 112.440357 542.332979 124.920574 542.332979 
C 137.40079 542.332979 149.759653 539.874648 161.289869 535.098676 
C 172.820086 530.322704 183.297423 523.321971 192.122269 514.497125 
C 200.947115 505.672279 207.947848 495.194942 212.72382 483.664725 
C 217.499792 472.134508 219.958123 459.775646 219.958123 447.29543 
M 124.920574 447.29543 
C 124.920574 447.29543 124.920574 447.29543 124.920574 447.29543 
C 124.920574 447.29543 124.920574 447.29543 124.920574 447.29543 
C 124.920574 447.29543 124.920574 447.29543 124.920574 447.29543 
C 124.920574 447.29543 124.920574 447.29543 124.920574 447.29543 
C 124.920574 447.29543 124.920574 447.29543 124.920574 447.29543 
C 124.920574 447.29543 124.920574 447.29543 124.920574 447.29543 
C 124.920574 447.29543 124.920574 447.29543 124.920574 447.29543 
C 124.920574 447.29543 124.920574 447.29543 124.920574 447.29543 
C 124.920574 447.29543 124.920574 447.29543 124.920574 447.29543 
C 124.920574 447.29543 124.920574 447.29543 124.920574 447.29543 
C 124.920574 447.29543 124.920574 447.29543 124.920574 447.29543 
C 124.920574 447.29543 124.920574 447.29543 124.920574 447.29543 
C 124.920574 447.29543 124.920574 447.29543 124.920574 447.29543 
C 124.920574 447.29543 124.920574 447.29543 124.920574 447.29543 
C 124.920574 447.29543 124.920574 447.29543 124.920574 447.29543 
C 124.920574 447.29543 124.920574 447.29543 124.920574 447.29543 
z
" style="fill: #ffffff"/>
   </g>
   <g id="patch_22">
    <path d="M 196.198735 447.29543 
L 138.136272 406.621694 
L 94.165777 424.950762 
L 82.632728 478.019348 
L 142.541504 501.527078 
z
" clip-path="url(#pf1bd7a0210)" style="fill: #4b6f8a; opacity: 0.18; stroke: #4b6f8a; stroke-linejoin: miter"/>
   </g>
   <g id="patch_23">
    <path d="M 172.439348 447.29543 
L 151.35197 365.947958 
L 51.877931 394.226844 
L 71.099679 486.398598 
L 133.731039 474.411254 
z
" clip-path="url(#pf1bd7a0210)" style="fill: #c47b45; opacity: 0.18; stroke: #c47b45; stroke-linejoin: miter"/>
   </g>
   <g id="patch_24">
    <path d="M 215.206245 447.29543 
L 136.667861 411.140998 
L 82.632728 416.571511 
L 59.56663 494.777849 
L 152.820381 533.162206 
z
" clip-path="url(#pf1bd7a0210)" style="fill: #4f7c6a; opacity: 0.18; stroke: #4f7c6a; stroke-linejoin: miter"/>
   </g>
   <g id="matplotlib.axis_5">
    <g id="xtick_14">
     <g id="line2d_28">
      <path d="M 124.920574 447.29543 
L 219.958123 447.29543 
" clip-path="url(#pf1bd7a0210)" style="fill: none; stroke: #b0b0b0; stroke-width: 0.8; stroke-linecap: square"/>
     </g>
     <g id="text_29">
      <text style="font-size: 9px; font-family: 'Arial', 'Helvetica', 'Liberation Sans', 'DejaVu Sans', sans-serif; text-anchor: middle" x="233.958123" y="449.624531" transform="rotate(-0 233.958123 449.624531)">Hardness</text>
     </g>
    </g>
    <g id="xtick_15">
     <g id="line2d_29">
      <path d="M 124.920574 447.29543 
L 154.288791 356.90935 
" clip-path="url(#pf1bd7a0210)" style="fill: none; stroke: #b0b0b0; stroke-width: 0.8; stroke-linecap: square"/>
     </g>
     <g id="text_30">
      <text style="font-size: 9px; font-family: 'Arial', 'Helvetica', 'Liberation Sans', 'DejaVu Sans', sans-serif; text-anchor: middle" x="158.615029" y="345.923572" transform="rotate(-0 158.615029 345.923572)">Toughness</text>
     </g>
    </g>
    <g id="xtick_16">
     <g id="line2d_30">
      <path d="M 124.920574 447.29543 
L 48.033582 391.43376 
" clip-path="url(#pf1bd7a0210)" style="fill: none; stroke: #b0b0b0; stroke-width: 0.8; stroke-linecap: square"/>
     </g>
     <g id="text_31">
      <text style="font-size: 9px; font-family: 'Arial', 'Helvetica', 'Liberation Sans', 'DejaVu Sans', sans-serif; text-anchor: middle" x="36.707344" y="385.53378" transform="rotate(-0 36.707344 385.53378)">Strength</text>
     </g>
    </g>
    <g id="xtick_17">
     <g id="line2d_31">
      <path d="M 124.920574 447.29543 
L 48.033582 503.157099 
" clip-path="url(#pf1bd7a0210)" style="fill: none; stroke: #b0b0b0; stroke-width: 0.8; stroke-linecap: square"/>
     </g>
     <g id="text_32">
      <text style="font-size: 9px; font-family: 'Arial', 'Helvetica', 'Liberation Sans', 'DejaVu Sans', sans-serif; text-anchor: middle" x="36.707344" y="513.715194" transform="rotate(-0 36.707344 513.715194)">Thermal shock</text>
     </g>
    </g>
    <g id="xtick_18">
     <g id="line2d_32">
      <path d="M 124.920574 447.29543 
L 154.288791 537.68151 
" clip-path="url(#pf1bd7a0210)" style="fill: none; stroke: #b0b0b0; stroke-width: 0.8; stroke-linecap: square"/>
     </g>
     <g id="text_33">
      <text style="font-size: 9px; font-family: 'Arial', 'Helvetica', 'Liberation Sans', 'DejaVu Sans', sans-serif; text-anchor: middle" x="158.615029" y="553.325403" transform="rotate(-0 158.615029 553.325403)">Thermal cond</text>
     </g>
    </g>
   </g>
   <g id="matplotlib.axis_6">
    <g id="ytick_9">
     <g id="line2d_33">
      <path d="M 148.679961 447.29543 
C 148.679961 444.175376 148.065378 441.08566 146.871385 438.203106 
C 145.677392 435.320552 143.927209 432.701217 141.720998 430.495006 
C 139.514786 428.288794 136.895452 426.538611 134.012898 425.344618 
C 131.130343 424.150625 128.040628 423.536042 124.920574 423.536042 
C 121.80052 423.536042 118.710804 424.150625 115.82825 425.344618 
C 112.945696 426.538611 110.326361 428.288794 108.12015 430.495006 
C 105.913939 432.701217 104.163755 435.320552 102.969762 438.203106 
C 101.775769 441.08566 101.161187 444.175376 101.161187 447.29543 
C 101.161187 450.415484 101.775769 453.505199 102.969762 456.387754 
C 104.163755 459.270308 105.913939 461.889642 108.12015 464.095853 
C 110.326361 466.302065 112.945696 468.052248 115.82825 469.246241 
C 118.710804 470.440234 121.80052 471.054817 124.920574 471.054817 
C 128.040628 471.054817 131.130343 470.440234 134.012898 469.246241 
C 136.895452 468.052248 139.514786 466.302065 141.720998 464.095853 
C 143.927209 461.889642 145.677392 459.270308 146.871385 456.387754 
C 148.065378 453.505199 148.679961 450.415484 148.679961 447.29543 
" clip-path="url(#pf1bd7a0210)" style="fill: none; stroke: #b0b0b0; stroke-width: 0.8; stroke-linecap: square"/>
     </g>
     <g id="text_34">
      <text style="font-size: 9px; font-family: 'Arial', 'Helvetica', 'Liberation Sans', 'DejaVu Sans', sans-serif; text-anchor: start" x="146.871385" y="436.309063" transform="rotate(-0 146.871385 436.309063)">0.25</text>
     </g>
    </g>
    <g id="ytick_10">
     <g id="line2d_34">
      <path d="M 172.439348 447.29543 
C 172.439348 441.055321 171.210183 434.87589 168.822197 429.110782 
C 166.434211 423.345674 162.933844 418.107005 158.521421 413.694582 
C 154.108999 409.282159 148.87033 405.781793 143.105221 403.393807 
C 137.340113 401.005821 131.160682 399.776655 124.920574 399.776655 
C 118.680465 399.776655 112.501034 401.005821 106.735926 403.393807 
C 100.970818 405.781793 95.732149 409.282159 91.319726 413.694582 
C 86.907303 418.107005 83.406937 423.345674 81.018951 429.110782 
C 78.630965 434.87589 77.401799 441.055321 77.401799 447.29543 
C 77.401799 453.535538 78.630965 459.714969 81.018951 465.480077 
C 83.406937 471.245186 86.907303 476.483854 91.319726 480.896277 
C 95.732149 485.3087 100.970818 488.809067 106.735926 491.197053 
C 112.501034 493.585039 118.680465 494.814204 124.920574 494.814204 
C 131.160682 494.814204 137.340113 493.585039 143.105221 491.197053 
C 148.87033 488.809067 154.108999 485.3087 158.521421 480.896277 
C 162.933844 476.483854 166.434211 471.245186 168.822197 465.480077 
C 171.210183 459.714969 172.439348 453.535538 172.439348 447.29543 
" clip-path="url(#pf1bd7a0210)" style="fill: none; stroke: #b0b0b0; stroke-width: 0.8; stroke-linecap: square"/>
     </g>
     <g id="text_35">
      <text style="font-size: 9px; font-family: 'Arial', 'Helvetica', 'Liberation Sans', 'DejaVu Sans', sans-serif; text-anchor: start" x="168.822197" y="427.216739" transform="rotate(-0 168.822197 427.216739)">0.50</text>
     </g>
    </g>
    <g id="ytick_11">
     <g id="line2d_35">
      <path d="M 196.198735 447.29543 
C 196.198735 437.935267 194.354987 428.666121 190.773008 420.018458 
C 187.191029 411.370796 181.94048 403.512793 175.321845 396.894158 
C 168.703211 390.275524 160.845208 385.024974 152.197545 381.442995 
C 143.549883 377.861016 134.280736 376.017268 124.920574 376.017268 
C 115.560411 376.017268 106.291265 377.861016 97.643602 381.442995 
C 88.99594 385.024974 81.137937 390.275524 74.519302 396.894158 
C 67.900668 403.512793 62.650118 411.370796 59.068139 420.018458 
C 55.48616 428.666121 53.642412 437.935267 53.642412 447.29543 
C 53.642412 456.655592 55.48616 465.924739 59.068139 474.572401 
C 62.650118 483.220064 67.900668 491.078067 74.519302 497.696701 
C 81.137937 504.315335 88.99594 509.565885 97.643602 513.147864 
C 106.291265 516.729843 115.560411 518.573591 124.920574 518.573591 
C 134.280736 518.573591 143.549883 516.729843 152.197545 513.147864 
C 160.845208 509.565885 168.703211 504.315335 175.321845 497.696701 
C 181.94048 491.078067 187.191029 483.220064 190.773008 474.572401 
C 194.354987 465.924739 196.198735 456.655592 196.198735 447.29543 
" clip-path="url(#pf1bd7a0210)" style="fill: none; stroke: #b0b0b0; stroke-width: 0.8; stroke-linecap: square"/>
     </g>
     <g id="text_36">
      <text style="font-size: 9px; font-family: 'Arial', 'Helvetica', 'Liberation Sans', 'DejaVu Sans', sans-serif; text-anchor: start" x="190.773008" y="418.124415" transform="rotate(-0 190.773008 418.124415)">0.75</text>
     </g>
    </g>
    <g id="ytick_12">
     <g id="line2d_36">
      <path d="M 219.958123 447.29543 
C 219.958123 434.815213 217.499792 422.456351 212.72382 410.926134 
C 207.947848 399.395918 200.947115 388.91858 192.122269 380.093734 
C 183.297423 371.268889 172.820086 364.268156 161.289869 359.492184 
C 149.759653 354.716211 137.40079 352.257881 124.920574 352.257881 
C 112.440357 352.257881 100.081495 354.716211 88.551278 359.492184 
C 77.021062 364.268156 66.543724 371.268889 57.718879 380.093734 
C 48.894033 388.91858 41.8933 399.395918 37.117328 410.926134 
C 32.341355 422.456351 29.883025 434.815213 29.883025 447.29543 
C 29.883025 459.775646 32.341355 472.134508 37.117328 483.664725 
C 41.8933 495.194942 48.894033 505.672279 57.718879 514.497125 
C 66.543724 523.321971 77.021062 530.322704 88.551278 535.098676 
C 100.081495 539.874648 112.440357 542.332979 124.920574 542.332979 
C 137.40079 542.332979 149.759653 539.874648 161.289869 535.098676 
C 172.820086 530.322704 183.297423 523.321971 192.122269 514.497125 
C 200.947115 505.672279 207.947848 495.194942 212.72382 483.664725 
C 217.499792 472.134508 219.958123 459.775646 219.958123 447.29543 
" clip-path="url(#pf1bd7a0210)" style="fill: none; stroke: #b0b0b0; stroke-width: 0.8; stroke-linecap: square"/>
     </g>
     <g id="text_37">
      <text style="font-size: 9px; font-family: 'Arial', 'Helvetica', 'Liberation Sans', 'DejaVu Sans', sans-serif; text-anchor: start" x="212.72382" y="409.032091" transform="rotate(-0 212.72382 409.032091)">1.00</text>
     </g>
    </g>
   </g>
   <g id="line2d_37">
    <path d="M 196.198735 447.29543 
L 138.136272 406.621694 
L 94.165777 424.950762 
L 82.632728 478.019348 
L 142.541504 501.527078 
L 196.198735 447.29543 
" clip-path="url(#pf1bd7a0210)" style="fill: none; stroke: #4b6f8a; stroke-width: 2; stroke-linecap: square"/>
   </g>
   <g id="line2d_38">
    <path d="M 172.439348 447.29543 
L 151.35197 365.947958 
L 51.877931 394.226844 
L 71.099679 486.398598 
L 133.731039 474.411254 
L 172.439348 447.29543 
" clip-path="url(#pf1bd7a0210)" style="fill: none; stroke: #c47b45; stroke-width: 2; stroke-linecap: square"/>
   </g>
   <g id="line2d_39">
    <path d="M 215.206245 447.29543 
L 136.667861 411.140998 
L 82.632728 416.571511 
L 59.56663 494.777849 
L 152.820381 533.162206 
L 215.206245 447.29543 
" clip-path="url(#pf1bd7a0210)" style="fill: none; stroke: #4f7c6a; stroke-width: 2; stroke-linecap: square"/>
   </g>
   <g id="patch_25">
    <path d="M 219.958123 447.29543 
C 219.958123 434.815213 217.499792 422.456351 212.72382 410.926134 
C 207.947848 399.395918 200.947115 388.91858 192.122269 380.093734 
C 183.297423 371.268889 172.820086 364.268156 161.289869 359.492184 
C 149.759653 354.716211 137.40079 352.257881 124.920574 352.257881 
C 112.440357 352.257881 100.081495 354.716211 88.551278 359.492184 
C 77.021062 364.268156 66.543724 371.268889 57.718879 380.093734 
C 48.894033 388.91858 41.8933 399.395918 37.117328 410.926134 
C 32.341355 422.456351 29.883025 434.815213 29.883025 447.29543 
C 29.883025 459.775646 32.341355 472.134508 37.117328 483.664725 
C 41.8933 495.194942 48.894033 505.672279 57.718879 514.497125 
C 66.543724 523.321971 77.021062 530.322704 88.551278 535.098676 
C 100.081495 539.874648 112.440357 542.332979 124.920574 542.332979 
C 137.40079 542.332979 149.759653 539.874648 161.289869 535.098676 
C 172.820086 530.322704 183.297423 523.321971 192.122269 514.497125 
C 200.947115 505.672279 207.947848 495.194942 212.72382 483.664725 
C 217.499792 472.134508 219.958123 459.775646 219.958123 447.29543 
" style="fill: none; stroke: #000000; stroke-width: 1.5; stroke-linejoin: miter; stroke-linecap: square"/>
   </g>
   <g id="text_38">
    <text style="font-weight: 700; font-size: 12px; font-family: 'Arial', 'Helvetica', 'Liberation Sans', 'DejaVu Sans', sans-serif; text-anchor: start" x="33.684527" y="364.795711" transform="rotate(-0 33.684527 364.795711)">c</text>
   </g>
   <g id="text_39">
    <text style="font-size: 9px; font-family: 'Arial', 'Helvetica', 'Liberation Sans', 'DejaVu Sans', sans-serif; text-anchor: middle" x="124.920574" y="327.371326" transform="rotate(-0 124.920574 327.371326)">Ceramic thermal-mechanical</text>
   </g>
   <g id="legend_2">
    <g id="line2d_40">
     <path d="M 215.643147 333.975366 
L 223.643147 333.975366 
L 231.643147 333.975366 
" style="fill: none; stroke: #4b6f8a; stroke-width: 2; stroke-linecap: square"/>
    </g>
    <g id="text_40">
     <text style="font-size: 8px; font-family: 'Arial', 'Helvetica', 'Liberation Sans', 'DejaVu Sans', sans-serif; text-anchor: start" x="238.043147" y="336.775366" transform="rotate(-0 238.043147 336.775366)">Al2O3</text>
    </g>
    <g id="line2d_41">
     <path d="M 215.643147 345.48771 
L 223.643147 345.48771 
L 231.643147 345.48771 
" style="fill: none; stroke: #c47b45; stroke-width: 2; stroke-linecap: square"/>
    </g>
    <g id="text_41">
     <text style="font-size: 8px; font-family: 'Arial', 'Helvetica', 'Liberation Sans', 'DejaVu Sans', sans-serif; text-anchor: start" x="238.043147" y="348.28771" transform="rotate(-0 238.043147 348.28771)">ZrO2</text>
    </g>
    <g id="line2d_42">
     <path d="M 215.643147 356.995522 
L 223.643147 356.995522 
L 231.643147 356.995522 
" style="fill: none; stroke: #4f7c6a; stroke-width: 2; stroke-linecap: square"/>
    </g>
    <g id="text_42">
     <text style="font-size: 8px; font-family: 'Arial', 'Helvetica', 'Liberation Sans', 'DejaVu Sans', sans-serif; text-anchor: start" x="238.043147" y="359.795522" transform="rotate(-0 238.043147 359.795522)">SiC</text>
    </g>
   </g>
  </g>
  <g id="axes_4">
   <g id="patch_26">
    <path d="M 572.979032 447.29543 
C 572.979032 434.815213 570.520701 422.456351 565.744729 410.926134 
C 560.968757 399.395918 553.968024 388.91858 545.143178 380.093734 
C 536.318332 371.268889 525.840995 364.268156 514.310778 359.492184 
C 502.780562 354.716211 490.421699 352.257881 477.941483 352.257881 
C 465.461266 352.257881 453.102404 354.716211 441.572187 359.492184 
C 430.041971 364.268156 419.564633 371.268889 410.739788 380.093734 
C 401.914942 388.91858 394.914209 399.395918 390.138237 410.926134 
C 385.362265 422.456351 382.903934 434.815213 382.903934 447.29543 
C 382.903934 459.775646 385.362265 472.134508 390.138237 483.664725 
C 394.914209 495.194942 401.914942 505.672279 410.739788 514.497125 
C 419.564633 523.321971 430.041971 530.322704 441.572187 535.098676 
C 453.102404 539.874648 465.461266 542.332979 477.941483 542.332979 
C 490.421699 542.332979 502.780562 539.874648 514.310778 535.098676 
C 525.840995 530.322704 536.318332 523.321971 545.143178 514.497125 
C 553.968024 505.672279 560.968757 495.194942 565.744729 483.664725 
C 570.520701 472.134508 572.979032 459.775646 572.979032 447.29543 
M 477.941483 447.29543 
C 477.941483 447.29543 477.941483 447.29543 477.941483 447.29543 
C 477.941483 447.29543 477.941483 447.29543 477.941483 447.29543 
C 477.941483 447.29543 477.941483 447.29543 477.941483 447.29543 
C 477.941483 447.29543 477.941483 447.29543 477.941483 447.29543 
C 477.941483 447.29543 477.941483 447.29543 477.941483 447.29543 
C 477.941483 447.29543 477.941483 447.29543 477.941483 447.29543 
C 477.941483 447.29543 477.941483 447.29543 477.941483 447.29543 
C 477.941483 447.29543 477.941483 447.29543 477.941483 447.29543 
C 477.941483 447.29543 477.941483 447.29543 477.941483 447.29543 
C 477.941483 447.29543 477.941483 447.29543 477.941483 447.29543 
C 477.941483 447.29543 477.941483 447.29543 477.941483 447.29543 
C 477.941483 447.29543 477.941483 447.29543 477.941483 447.29543 
C 477.941483 447.29543 477.941483 447.29543 477.941483 447.29543 
C 477.941483 447.29543 477.941483 447.29543 477.941483 447.29543 
C 477.941483 447.29543 477.941483 447.29543 477.941483 447.29543 
C 477.941483 447.29543 477.941483 447.29543 477.941483 447.29543 
z
" style="fill: #ffffff"/>
   </g>
   <g id="patch_27">
    <path d="M 560.58283 447.29543 
L 545.793082 429.114648 
L 517.304711 424.569059 
L 501.315986 423.920927 
L 500.667853 407.932202 
L 496.122264 379.44383 
L 477.941483 364.654083 
L 459.760702 379.44383 
L 455.215112 407.932202 
L 454.56698 423.920927 
L 438.578255 424.569059 
L 410.089883 429.114648 
L 395.300136 447.29543 
z
" clip-path="url(#p8dd9ff867f)" style="fill: #4f7c6a; opacity: 0.18; stroke: #4f7c6a; stroke-linejoin: miter"/>
   </g>
   <g id="matplotlib.axis_7">
    <g id="xtick_19">
     <g id="line2d_43">
      <path d="M 477.941483 447.29543 
L 572.979032 447.29543 
" clip-path="url(#p8dd9ff867f)" style="fill: none; stroke: #b0b0b0; stroke-width: 0.8; stroke-linecap: square"/>
     </g>
     <g id="text_43">
      <text style="font-size: 9px; font-family: 'Arial', 'Helvetica', 'Liberation Sans', 'DejaVu Sans', sans-serif; text-anchor: middle" x="586.979032" y="449.624531" transform="rotate(-0 586.979032 449.624531)">0°</text>
     </g>
    </g>
    <g id="xtick_20">
     <g id="line2d_44">
      <path d="M 477.941483 447.29543 
L 545.143178 380.093734 
" clip-path="url(#p8dd9ff867f)" style="fill: none; stroke: #b0b0b0; stroke-width: 0.8; stroke-linecap: square"/>
     </g>
     <g id="text_44">
      <text style="font-size: 9px; font-family: 'Arial', 'Helvetica', 'Liberation Sans', 'DejaVu Sans', sans-serif; text-anchor: middle" x="555.042673" y="372.523341" transform="rotate(-0 555.042673 372.523341)">45°</text>
     </g>
    </g>
    <g id="xtick_21">
     <g id="line2d_45">
      <path d="M 477.941483 447.29543 
L 477.941483 352.257881 
" clip-path="url(#p8dd9ff867f)" style="fill: none; stroke: #b0b0b0; stroke-width: 0.8; stroke-linecap: square"/>
     </g>
     <g id="text_45">
      <text style="font-size: 9px; font-family: 'Arial', 'Helvetica', 'Liberation Sans', 'DejaVu Sans', sans-serif; text-anchor: middle" x="477.941483" y="340.586982" transform="rotate(-0 477.941483 340.586982)">90°</text>
     </g>
    </g>
    <g id="xtick_22">
     <g id="line2d_46">
      <path d="M 477.941483 447.29543 
L 410.739788 380.093734 
" clip-path="url(#p8dd9ff867f)" style="fill: none; stroke: #b0b0b0; stroke-width: 0.8; stroke-linecap: square"/>
     </g>
     <g id="text_46">
      <text style="font-size: 9px; font-family: 'Arial', 'Helvetica', 'Liberation Sans', 'DejaVu Sans', sans-serif; text-anchor: middle" x="400.840293" y="372.523341" transform="rotate(-0 400.840293 372.523341)">135°</text>
     </g>
    </g>
    <g id="xtick_23">
     <g id="line2d_47">
      <path d="M 477.941483 447.29543 
L 382.903934 447.29543 
" clip-path="url(#p8dd9ff867f)" style="fill: none; stroke: #b0b0b0; stroke-width: 0.8; stroke-linecap: square"/>
     </g>
     <g id="text_47">
      <text style="font-size: 9px; font-family: 'Arial', 'Helvetica', 'Liberation Sans', 'DejaVu Sans', sans-serif; text-anchor: middle" x="368.903934" y="449.624531" transform="rotate(-0 368.903934 449.624531)">180°</text>
     </g>
    </g>
    <g id="xtick_24">
     <g id="line2d_48">
      <path d="M 477.941483 447.29543 
L 410.739788 514.497125 
" clip-path="url(#p8dd9ff867f)" style="fill: none; stroke: #b0b0b0; stroke-width: 0.8; stroke-linecap: square"/>
     </g>
     <g id="text_48">
      <text style="font-size: 9px; font-family: 'Arial', 'Helvetica', 'Liberation Sans', 'DejaVu Sans', sans-serif; text-anchor: middle" x="400.840293" y="526.725721" transform="rotate(-0 400.840293 526.725721)">225°</text>
     </g>
    </g>
    <g id="xtick_25">
     <g id="line2d_49">
      <path d="M 477.941483 447.29543 
L 477.941483 542.332979 
" clip-path="url(#p8dd9ff867f)" style="fill: none; stroke: #b0b0b0; stroke-width: 0.8; stroke-linecap: square"/>
     </g>
     <g id="text_49">
      <text style="font-size: 9px; font-family: 'Arial', 'Helvetica', 'Liberation Sans', 'DejaVu Sans', sans-serif; text-anchor: middle" x="477.941483" y="558.66208" transform="rotate(-0 477.941483 558.66208)">270°</text>
     </g>
    </g>
    <g id="xtick_26">
     <g id="line2d_50">
      <path d="M 477.941483 447.29543 
L 545.143178 514.497125 
" clip-path="url(#p8dd9ff867f)" style="fill: none; stroke: #b0b0b0; stroke-width: 0.8; stroke-linecap: square"/>
     </g>
     <g id="text_50">
      <text style="font-size: 9px; font-family: 'Arial', 'Helvetica', 'Liberation Sans', 'DejaVu Sans', sans-serif; text-anchor: middle" x="555.042673" y="526.725721" transform="rotate(-0 555.042673 526.725721)">315°</text>
     </g>
    </g>
   </g>
   <g id="matplotlib.axis_8">
    <g id="ytick_13">
     <g id="line2d_51">
      <path d="M 494.469752 447.29543 
C 494.469752 445.124957 494.042216 442.97559 493.211613 440.970335 
C 492.381009 438.96508 491.16349 437.142934 489.628734 435.608178 
C 488.093978 434.073423 486.271833 432.855904 484.266578 432.0253 
C 482.261323 431.194696 480.111955 430.76716 477.941483 430.76716 
C 475.77101 430.76716 473.621643 431.194696 471.616388 432.0253 
C 469.611133 432.855904 467.788987 434.073423 466.254232 435.608178 
C 464.719476 437.142934 463.501957 438.96508 462.671353 440.970335 
C 461.840749 442.97559 461.413214 445.124957 461.413214 447.29543 
C 461.413214 449.465902 461.840749 451.615269 462.671353 453.620525 
C 463.501957 455.62578 464.719476 457.447925 466.254232 458.982681 
C 467.788987 460.517437 469.611133 461.734956 471.616388 462.565559 
C 473.621643 463.396163 475.77101 463.823699 477.941483 463.823699 
C 480.111955 463.823699 482.261323 463.396163 484.266578 462.565559 
C 486.271833 461.734956 488.093978 460.517437 489.628734 458.982681 
C 491.16349 457.447925 492.381009 455.62578 493.211613 453.620525 
C 494.042216 451.615269 494.469752 449.465902 494.469752 447.29543 
" clip-path="url(#p8dd9ff867f)" style="fill: none; stroke: #b0b0b0; stroke-width: 0.8; stroke-linecap: square"/>
     </g>
     <g id="text_51">
      <text style="font-size: 9px; font-family: 'Arial', 'Helvetica', 'Liberation Sans', 'DejaVu Sans', sans-serif; text-anchor: start" x="493.211613" y="439.076292" transform="rotate(-0 493.211613 439.076292)">0.2</text>
     </g>
    </g>
    <g id="ytick_14">
     <g id="line2d_52">
      <path d="M 510.998022 447.29543 
C 510.998022 442.954485 510.14295 438.65575 508.481742 434.64524 
C 506.820535 430.63473 504.385497 426.990439 501.315986 423.920927 
C 498.246474 420.851415 494.602183 418.416378 490.591673 416.75517 
C 486.581162 415.093962 482.282428 414.238891 477.941483 414.238891 
C 473.600538 414.238891 469.301803 415.093962 465.291293 416.75517 
C 461.280783 418.416378 457.636492 420.851415 454.56698 423.920927 
C 451.497469 426.990439 449.062431 430.63473 447.401223 434.64524 
C 445.740016 438.65575 444.884944 442.954485 444.884944 447.29543 
C 444.884944 451.636375 445.740016 455.935109 447.401223 459.945619 
C 449.062431 463.95613 451.497469 467.600421 454.56698 470.669932 
C 457.636492 473.739444 461.280783 476.174482 465.291293 477.835689 
C 469.301803 479.496897 473.600538 480.351968 477.941483 480.351968 
C 482.282428 480.351968 486.581162 479.496897 490.591673 477.835689 
C 494.602183 476.174482 498.246474 473.739444 501.315986 470.669932 
C 504.385497 467.600421 506.820535 463.95613 508.481742 459.945619 
C 510.14295 455.935109 510.998022 451.636375 510.998022 447.29543 
" clip-path="url(#p8dd9ff867f)" style="fill: none; stroke: #b0b0b0; stroke-width: 0.8; stroke-linecap: square"/>
     </g>
     <g id="text_52">
      <text style="font-size: 9px; font-family: 'Arial', 'Helvetica', 'Liberation Sans', 'DejaVu Sans', sans-serif; text-anchor: start" x="508.481742" y="432.751197" transform="rotate(-0 508.481742 432.751197)">0.4</text>
     </g>
    </g>
    <g id="ytick_15">
     <g id="line2d_53">
      <path d="M 527.526291 447.29543 
C 527.526291 440.784012 526.243684 434.33591 523.751872 428.320145 
C 521.260061 422.30438 517.607504 416.837943 513.003237 412.233676 
C 508.39897 407.629408 502.932533 403.976852 496.916767 401.48504 
C 490.901002 398.993229 484.4529 397.710622 477.941483 397.710622 
C 471.430066 397.710622 464.981964 398.993229 458.966198 401.48504 
C 452.950433 403.976852 447.483996 407.629408 442.879729 412.233676 
C 438.275461 416.837943 434.622905 422.30438 432.131094 428.320145 
C 429.639282 434.33591 428.356675 440.784012 428.356675 447.29543 
C 428.356675 453.806847 429.639282 460.254949 432.131094 466.270714 
C 434.622905 472.286479 438.275461 477.752916 442.879729 482.357184 
C 447.483996 486.961451 452.950433 490.614007 458.966198 493.105819 
C 464.981964 495.597631 471.430066 496.880238 477.941483 496.880238 
C 484.4529 496.880238 490.901002 495.597631 496.916767 493.105819 
C 502.932533 490.614007 508.39897 486.961451 513.003237 482.357184 
C 517.607504 477.752916 521.260061 472.286479 523.751872 466.270714 
C 526.243684 460.254949 527.526291 453.806847 527.526291 447.29543 
" clip-path="url(#p8dd9ff867f)" style="fill: none; stroke: #b0b0b0; stroke-width: 0.8; stroke-linecap: square"/>
     </g>
     <g id="text_53">
      <text style="font-size: 9px; font-family: 'Arial', 'Helvetica', 'Liberation Sans', 'DejaVu Sans', sans-serif; text-anchor: start" x="523.751872" y="426.426102" transform="rotate(-0 523.751872 426.426102)">0.6</text>
     </g>
    </g>
    <g id="ytick_16">
     <g id="line2d_54">
      <path d="M 544.05456 447.29543 
C 544.05456 438.61354 542.344417 430.016071 539.022002 421.99505 
C 535.699587 413.97403 530.829511 406.685447 524.690488 400.546424 
C 518.551465 394.407401 511.262883 389.537326 503.241862 386.214911 
C 495.220842 382.892495 486.623373 381.182352 477.941483 381.182352 
C 469.259593 381.182352 460.662124 382.892495 452.641103 386.214911 
C 444.620083 389.537326 437.331501 394.407401 431.192477 400.546424 
C 425.053454 406.685447 420.183379 413.97403 416.860964 421.99505 
C 413.538548 430.016071 411.828405 438.61354 411.828405 447.29543 
C 411.828405 455.977319 413.538548 464.574789 416.860964 472.595809 
C 420.183379 480.616829 425.053454 487.905412 431.192477 494.044435 
C 437.331501 500.183458 444.620083 505.053533 452.641103 508.375949 
C 460.662124 511.698364 469.259593 513.408507 477.941483 513.408507 
C 486.623373 513.408507 495.220842 511.698364 503.241862 508.375949 
C 511.262883 505.053533 518.551465 500.183458 524.690488 494.044435 
C 530.829511 487.905412 535.699587 480.616829 539.022002 472.595809 
C 542.344417 464.574789 544.05456 455.977319 544.05456 447.29543 
" clip-path="url(#p8dd9ff867f)" style="fill: none; stroke: #b0b0b0; stroke-width: 0.8; stroke-linecap: square"/>
     </g>
     <g id="text_54">
      <text style="font-size: 9px; font-family: 'Arial', 'Helvetica', 'Liberation Sans', 'DejaVu Sans', sans-serif; text-anchor: start" x="539.022002" y="420.101007" transform="rotate(-0 539.022002 420.101007)">0.8</text>
     </g>
    </g>
    <g id="ytick_17">
     <g id="line2d_55">
      <path d="M 560.58283 447.29543 
C 560.58283 436.443067 558.445151 425.696231 554.292132 415.669955 
C 550.139112 405.64368 544.051519 396.532952 536.37774 388.859173 
C 528.703961 381.185394 519.593232 375.0978 509.566957 370.944781 
C 499.540682 366.791762 488.793845 364.654083 477.941483 364.654083 
C 467.089121 364.654083 456.342284 366.791762 446.316009 370.944781 
C 436.289733 375.0978 427.179005 381.185394 419.505226 388.859173 
C 411.831447 396.532952 405.743853 405.64368 401.590834 415.669955 
C 397.437815 425.696231 395.300136 436.443067 395.300136 447.29543 
C 395.300136 458.147792 397.437815 468.894629 401.590834 478.920904 
C 405.743853 488.947179 411.831447 498.057907 419.505226 505.731686 
C 427.179005 513.405465 436.289733 519.493059 446.316009 523.646079 
C 456.342284 527.799098 467.089121 529.936776 477.941483 529.936776 
C 488.793845 529.936776 499.540682 527.799098 509.566957 523.646079 
C 519.593232 519.493059 528.703961 513.405465 536.37774 505.731686 
C 544.051519 498.057907 550.139112 488.947179 554.292132 478.920904 
C 558.445151 468.894629 560.58283 458.147792 560.58283 447.29543 
" clip-path="url(#p8dd9ff867f)" style="fill: none; stroke: #b0b0b0; stroke-width: 0.8; stroke-linecap: square"/>
     </g>
     <g id="text_55">
      <text style="font-size: 9px; font-family: 'Arial', 'Helvetica', 'Liberation Sans', 'DejaVu Sans', sans-serif; text-anchor: start" x="554.292132" y="413.775912" transform="rotate(-0 554.292132 413.775912)">1.0</text>
     </g>
    </g>
   </g>
   <g id="line2d_56">
    <path d="M 560.58283 447.29543 
L 545.793082 429.114648 
L 517.304711 424.569059 
L 501.315986 423.920927 
L 500.667853 407.932202 
L 496.122264 379.44383 
L 477.941483 364.654083 
L 459.760702 379.44383 
L 455.215112 407.932202 
L 454.56698 423.920927 
L 438.578255 424.569059 
L 410.089883 429.114648 
L 395.300136 447.29543 
" clip-path="url(#p8dd9ff867f)" style="fill: none; stroke: #4f7c6a; stroke-width: 1.8; stroke-linecap: square"/>
    <defs>
     <path id="m14379f0660" d="M 0 3 
C 0.795609 3 1.55874 2.683901 2.12132 2.12132 
C 2.683901 1.55874 3 0.795609 3 0 
C 3 -0.795609 2.683901 -1.55874 2.12132 -2.12132 
C 1.55874 -2.683901 0.795609 -3 0 -3 
C -0.795609 -3 -1.55874 -2.683901 -2.12132 -2.12132 
C -2.683901 -1.55874 -3 -0.795609 -3 0 
C -3 0.795609 -2.683901 1.55874 -2.12132 2.12132 
C -1.55874 2.683901 -0.795609 3 0 3 
z
" style="stroke: #4f7c6a"/>
    </defs>
    <g clip-path="url(#p8dd9ff867f)">
     <use xlink:href="#m14379f0660" x="560.58283" y="447.29543" style="fill: #4f7c6a; stroke: #4f7c6a"/>
     <use xlink:href="#m14379f0660" x="545.793082" y="429.114648" style="fill: #4f7c6a; stroke: #4f7c6a"/>
     <use xlink:href="#m14379f0660" x="517.304711" y="424.569059" style="fill: #4f7c6a; stroke: #4f7c6a"/>
     <use xlink:href="#m14379f0660" x="501.315986" y="423.920927" style="fill: #4f7c6a; stroke: #4f7c6a"/>
     <use xlink:href="#m14379f0660" x="500.667853" y="407.932202" style="fill: #4f7c6a; stroke: #4f7c6a"/>
     <use xlink:href="#m14379f0660" x="496.122264" y="379.44383" style="fill: #4f7c6a; stroke: #4f7c6a"/>
     <use xlink:href="#m14379f0660" x="477.941483" y="364.654083" style="fill: #4f7c6a; stroke: #4f7c6a"/>
     <use xlink:href="#m14379f0660" x="459.760702" y="379.44383" style="fill: #4f7c6a; stroke: #4f7c6a"/>
     <use xlink:href="#m14379f0660" x="455.215112" y="407.932202" style="fill: #4f7c6a; stroke: #4f7c6a"/>
     <use xlink:href="#m14379f0660" x="454.56698" y="423.920927" style="fill: #4f7c6a; stroke: #4f7c6a"/>
     <use xlink:href="#m14379f0660" x="438.578255" y="424.569059" style="fill: #4f7c6a; stroke: #4f7c6a"/>
     <use xlink:href="#m14379f0660" x="410.089883" y="429.114648" style="fill: #4f7c6a; stroke: #4f7c6a"/>
     <use xlink:href="#m14379f0660" x="395.300136" y="447.29543" style="fill: #4f7c6a; stroke: #4f7c6a"/>
    </g>
   </g>
   <g id="patch_28">
    <path d="M 572.979032 447.29543 
C 572.979032 434.815213 570.520701 422.456351 565.744729 410.926134 
C 560.968757 399.395918 553.968024 388.91858 545.143178 380.093734 
C 536.318332 371.268889 525.840995 364.268156 514.310778 359.492184 
C 502.780562 354.716211 490.421699 352.257881 477.941483 352.257881 
C 465.461266 352.257881 453.102404 354.716211 441.572187 359.492184 
C 430.041971 364.268156 419.564633 371.268889 410.739788 380.093734 
C 401.914942 388.91858 394.914209 399.395918 390.138237 410.926134 
C 385.362265 422.456351 382.903934 434.815213 382.903934 447.29543 
C 382.903934 459.775646 385.362265 472.134508 390.138237 483.664725 
C 394.914209 495.194942 401.914942 505.672279 410.739788 514.497125 
C 419.564633 523.321971 430.041971 530.322704 441.572187 535.098676 
C 453.102404 539.874648 465.461266 542.332979 477.941483 542.332979 
C 490.421699 542.332979 502.780562 539.874648 514.310778 535.098676 
C 525.840995 530.322704 536.318332 523.321971 545.143178 514.497125 
C 553.968024 505.672279 560.968757 495.194942 565.744729 483.664725 
C 570.520701 472.134508 572.979032 459.775646 572.979032 447.29543 
" style="fill: none; stroke: #000000; stroke-width: 1.5; stroke-linejoin: miter; stroke-linecap: square"/>
   </g>
   <g id="text_56">
    <text style="font-weight: 700; font-size: 12px; font-family: 'Arial', 'Helvetica', 'Liberation Sans', 'DejaVu Sans', sans-serif; text-anchor: start" x="386.705436" y="364.795711" transform="rotate(-0 386.705436 364.795711)">d</text>
   </g>
   <g id="text_57">
    <text style="font-size: 9px; font-family: 'Arial', 'Helvetica', 'Liberation Sans', 'DejaVu Sans', sans-serif; text-anchor: middle" x="477.941483" y="322.034736" transform="rotate(-0 477.941483 322.034736)">Anisotropic modulus vs angle</text>
   </g>
   <g id="legend_3">
    <g id="line2d_57">
     <path d="M 531.194212 332.692808 
L 538.194212 332.692808 
L 545.194212 332.692808 
" style="fill: none; stroke: #4f7c6a; stroke-width: 1.8; stroke-linecap: square"/>
     <g>
      <use xlink:href="#m14379f0660" x="538.194212" y="332.692808" style="fill: #4f7c6a; stroke: #4f7c6a"/>
     </g>
    </g>
    <g id="text_58">
     <text style="font-size: 7px; font-family: 'Arial', 'Helvetica', 'Liberation Sans', 'DejaVu Sans', sans-serif; text-anchor: start" x="550.794212" y="335.142808" transform="rotate(-0 550.794212 335.142808)">Cross-ply composite</text>
    </g>
   </g>
  </g>
  <g id="text_59">
   <text style="font-weight: 700; font-size: 12px; font-family: 'Arial', 'Helvetica', 'Liberation Sans', 'DejaVu Sans', sans-serif; text-anchor: middle" x="311.871937" y="15.936328" transform="rotate(-0 311.871937 15.936328)">Radar &amp; Polar - Multi-index benchmarking and angular structure</text>
  </g>
 </g>
 <defs>
  <clipPath id="pdc4337cb22">
   <path d="M 219.958123 190.126289 
C 219.958123 177.646072 217.499792 165.28721 212.72382 153.756994 
C 207.947848 142.226777 200.947115 131.74944 192.122269 122.924594 
C 183.297423 114.099748 172.820086 107.099015 161.289869 102.323043 
C 149.759653 97.547071 137.40079 95.08874 124.920574 95.08874 
C 112.440357 95.08874 100.081495 97.547071 88.551278 102.323043 
C 77.021062 107.099015 66.543724 114.099748 57.718879 122.924594 
C 48.894033 131.74944 41.8933 142.226777 37.117328 153.756994 
C 32.341355 165.28721 29.883025 177.646072 29.883025 190.126289 
C 29.883025 202.606506 32.341355 214.965368 37.117328 226.495584 
C 41.8933 238.025801 48.894033 248.503139 57.718879 257.327984 
C 66.543724 266.15283 77.021062 273.153563 88.551278 277.929535 
C 100.081495 282.705507 112.440357 285.163838 124.920574 285.163838 
C 137.40079 285.163838 149.759653 282.705507 161.289869 277.929535 
C 172.820086 273.153563 183.297423 266.15283 192.122269 257.327984 
C 200.947115 248.503139 207.947848 238.025801 212.72382 226.495584 
C 217.499792 214.965368 219.958123 202.606506 219.958123 190.126289 
M 124.920574 190.126289 
C 124.920574 190.126289 124.920574 190.126289 124.920574 190.126289 
C 124.920574 190.126289 124.920574 190.126289 124.920574 190.126289 
C 124.920574 190.126289 124.920574 190.126289 124.920574 190.126289 
C 124.920574 190.126289 124.920574 190.126289 124.920574 190.126289 
C 124.920574 190.126289 124.920574 190.126289 124.920574 190.126289 
C 124.920574 190.126289 124.920574 190.126289 124.920574 190.126289 
C 124.920574 190.126289 124.920574 190.126289 124.920574 190.126289 
C 124.920574 190.126289 124.920574 190.126289 124.920574 190.126289 
C 124.920574 190.126289 124.920574 190.126289 124.920574 190.126289 
C 124.920574 190.126289 124.920574 190.126289 124.920574 190.126289 
C 124.920574 190.126289 124.920574 190.126289 124.920574 190.126289 
C 124.920574 190.126289 124.920574 190.126289 124.920574 190.126289 
C 124.920574 190.126289 124.920574 190.126289 124.920574 190.126289 
C 124.920574 190.126289 124.920574 190.126289 124.920574 190.126289 
C 124.920574 190.126289 124.920574 190.126289 124.920574 190.126289 
C 124.920574 190.126289 124.920574 190.126289 124.920574 190.126289 
z
"/>
  </clipPath>
  <clipPath id="p88634793ab">
   <path d="M 572.979032 190.126289 
C 572.979032 177.646072 570.520701 165.28721 565.744729 153.756994 
C 560.968757 142.226777 553.968024 131.74944 545.143178 122.924594 
C 536.318332 114.099748 525.840995 107.099015 514.310778 102.323043 
C 502.780562 97.547071 490.421699 95.08874 477.941483 95.08874 
C 465.461266 95.08874 453.102404 97.547071 441.572187 102.323043 
C 430.041971 107.099015 419.564633 114.099748 410.739788 122.924594 
C 401.914942 131.74944 394.914209 142.226777 390.138237 153.756994 
C 385.362265 165.28721 382.903934 177.646072 382.903934 190.126289 
C 382.903934 202.606506 385.362265 214.965368 390.138237 226.495584 
C 394.914209 238.025801 401.914942 248.503139 410.739788 257.327984 
C 419.564633 266.15283 430.041971 273.153563 441.572187 277.929535 
C 453.102404 282.705507 465.461266 285.163838 477.941483 285.163838 
C 490.421699 285.163838 502.780562 282.705507 514.310778 277.929535 
C 525.840995 273.153563 536.318332 266.15283 545.143178 257.327984 
C 553.968024 248.503139 560.968757 238.025801 565.744729 226.495584 
C 570.520701 214.965368 572.979032 202.606506 572.979032 190.126289 
M 477.941483 190.126289 
C 477.941483 190.126289 477.941483 190.126289 477.941483 190.126289 
C 477.941483 190.126289 477.941483 190.126289 477.941483 190.126289 
C 477.941483 190.126289 477.941483 190.126289 477.941483 190.126289 
C 477.941483 190.126289 477.941483 190.126289 477.941483 190.126289 
C 477.941483 190.126289 477.941483 190.126289 477.941483 190.126289 
C 477.941483 190.126289 477.941483 190.126289 477.941483 190.126289 
C 477.941483 190.126289 477.941483 190.126289 477.941483 190.126289 
C 477.941483 190.126289 477.941483 190.126289 477.941483 190.126289 
C 477.941483 190.126289 477.941483 190.126289 477.941483 190.126289 
C 477.941483 190.126289 477.941483 190.126289 477.941483 190.126289 
C 477.941483 190.126289 477.941483 190.126289 477.941483 190.126289 
C 477.941483 190.126289 477.941483 190.126289 477.941483 190.126289 
C 477.941483 190.126289 477.941483 190.126289 477.941483 190.126289 
C 477.941483 190.126289 477.941483 190.126289 477.941483 190.126289 
C 477.941483 190.126289 477.941483 190.126289 477.941483 190.126289 
C 477.941483 190.126289 477.941483 190.126289 477.941483 190.126289 
z
"/>
  </clipPath>
  <clipPath id="pf1bd7a0210">
   <path d="M 219.958123 447.29543 
C 219.958123 434.815213 217.499792 422.456351 212.72382 410.926134 
C 207.947848 399.395918 200.947115 388.91858 192.122269 380.093734 
C 183.297423 371.268889 172.820086 364.268156 161.289869 359.492184 
C 149.759653 354.716211 137.40079 352.257881 124.920574 352.257881 
C 112.440357 352.257881 100.081495 354.716211 88.551278 359.492184 
C 77.021062 364.268156 66.543724 371.268889 57.718879 380.093734 
C 48.894033 388.91858 41.8933 399.395918 37.117328 410.926134 
C 32.341355 422.456351 29.883025 434.815213 29.883025 447.29543 
C 29.883025 459.775646 32.341355 472.134508 37.117328 483.664725 
C 41.8933 495.194942 48.894033 505.672279 57.718879 514.497125 
C 66.543724 523.321971 77.021062 530.322704 88.551278 535.098676 
C 100.081495 539.874648 112.440357 542.332979 124.920574 542.332979 
C 137.40079 542.332979 149.759653 539.874648 161.289869 535.098676 
C 172.820086 530.322704 183.297423 523.321971 192.122269 514.497125 
C 200.947115 505.672279 207.947848 495.194942 212.72382 483.664725 
C 217.499792 472.134508 219.958123 459.775646 219.958123 447.29543 
M 124.920574 447.29543 
C 124.920574 447.29543 124.920574 447.29543 124.920574 447.29543 
C 124.920574 447.29543 124.920574 447.29543 124.920574 447.29543 
C 124.920574 447.29543 124.920574 447.29543 124.920574 447.29543 
C 124.920574 447.29543 124.920574 447.29543 124.920574 447.29543 
C 124.920574 447.29543 124.920574 447.29543 124.920574 447.29543 
C 124.920574 447.29543 124.920574 447.29543 124.920574 447.29543 
C 124.920574 447.29543 124.920574 447.29543 124.920574 447.29543 
C 124.920574 447.29543 124.920574 447.29543 124.920574 447.29543 
C 124.920574 447.29543 124.920574 447.29543 124.920574 447.29543 
C 124.920574 447.29543 124.920574 447.29543 124.920574 447.29543 
C 124.920574 447.29543 124.920574 447.29543 124.920574 447.29543 
C 124.920574 447.29543 124.920574 447.29543 124.920574 447.29543 
C 124.920574 447.29543 124.920574 447.29543 124.920574 447.29543 
C 124.920574 447.29543 124.920574 447.29543 124.920574 447.29543 
C 124.920574 447.29543 124.920574 447.29543 124.920574 447.29543 
C 124.920574 447.29543 124.920574 447.29543 124.920574 447.29543 
z
"/>
  </clipPath>
  <clipPath id="p8dd9ff867f">
   <path d="M 572.979032 447.29543 
C 572.979032 434.815213 570.520701 422.456351 565.744729 410.926134 
C 560.968757 399.395918 553.968024 388.91858 545.143178 380.093734 
C 536.318332 371.268889 525.840995 364.268156 514.310778 359.492184 
C 502.780562 354.716211 490.421699 352.257881 477.941483 352.257881 
C 465.461266 352.257881 453.102404 354.716211 441.572187 359.492184 
C 430.041971 364.268156 419.564633 371.268889 410.739788 380.093734 
C 401.914942 388.91858 394.914209 399.395918 390.138237 410.926134 
C 385.362265 422.456351 382.903934 434.815213 382.903934 447.29543 
C 382.903934 459.775646 385.362265 472.134508 390.138237 483.664725 
C 394.914209 495.194942 401.914942 505.672279 410.739788 514.497125 
C 419.564633 523.321971 430.041971 530.322704 441.572187 535.098676 
C 453.102404 539.874648 465.461266 542.332979 477.941483 542.332979 
C 490.421699 542.332979 502.780562 539.874648 514.310778 535.098676 
C 525.840995 530.322704 536.318332 523.321971 545.143178 514.497125 
C 553.968024 505.672279 560.968757 495.194942 565.744729 483.664725 
C 570.520701 472.134508 572.979032 459.775646 572.979032 447.29543 
M 477.941483 447.29543 
C 477.941483 447.29543 477.941483 447.29543 477.941483 447.29543 
C 477.941483 447.29543 477.941483 447.29543 477.941483 447.29543 
C 477.941483 447.29543 477.941483 447.29543 477.941483 447.29543 
C 477.941483 447.29543 477.941483 447.29543 477.941483 447.29543 
C 477.941483 447.29543 477.941483 447.29543 477.941483 447.29543 
C 477.941483 447.29543 477.941483 447.29543 477.941483 447.29543 
C 477.941483 447.29543 477.941483 447.29543 477.941483 447.29543 
C 477.941483 447.29543 477.941483 447.29543 477.941483 447.29543 
C 477.941483 447.29543 477.941483 447.29543 477.941483 447.29543 
C 477.941483 447.29543 477.941483 447.29543 477.941483 447.29543 
C 477.941483 447.29543 477.941483 447.29543 477.941483 447.29543 
C 477.941483 447.29543 477.941483 447.29543 477.941483 447.29543 
C 477.941483 447.29543 477.941483 447.29543 477.941483 447.29543 
C 477.941483 447.29543 477.941483 447.29543 477.941483 447.29543 
C 477.941483 447.29543 477.941483 447.29543 477.941483 447.29543 
C 477.941483 447.29543 477.941483 447.29543 477.941483 447.29543 
z
"/>
  </clipPath>
 </defs>
</svg>
