<?xml version="1.0" encoding="utf-8" standalone="no"?>
<!DOCTYPE svg PUBLIC "-//W3C//DTD SVG 1.1//EN"
  "http://www.w3.org/Graphics/SVG/1.1/DTD/svg11.dtd">
<svg xmlns:xlink="http://www.w3.org/1999/xlink" width="324pt" height="288pt" viewBox="0 0 324 288" xmlns="http://www.w3.org/2000/svg" version="1.1">
 <metadata>
  <rdf:RDF xmlns:dc="http://purl.org/dc/elements/1.1/" xmlns:cc="http://creativecommons.org/ns#" xmlns:rdf="http://www.w3.org/1999/02/22-rdf-syntax-ns#">
   <cc:Work>
    <dc:type rdf:resource="http://purl.org/dc/dcmitype/StillImage"/>
    <dc:date>2026-06-15T21:37:31.264596</dc:date>
    <dc:format>image/svg+xml</dc:format>
    <dc:creator>
     <cc:Agent>
      <dc:title>Matplotlib v3.11.0, https://matplotlib.org/</dc:title>
     </cc:Agent>
    </dc:creator>
   </cc:Work>
  </rdf:RDF>
 </metadata>
 <defs>
  <style type="text/css">*{stroke-linejoin: round; stroke-linecap: butt}</style>
 </defs>
 <g id="figure_1">
  <g id="patch_1">
   <path d="M 0 288
L 324 288
L 324 0
L 0 0
z
" style="fill: #ffffff"/>
  </g>
  <g id="axes_1">
   <g id="patch_2">
    <path d="M 50.602344 209.582172
L 313.2 209.582172
L 313.2 78.417828
L 50.602344 78.417828
z
" style="fill: #ffffff"/>
   </g>
   <g id="matplotlib.axis_1">
    <g id="xtick_1">
     <g id="line2d_1">
      <defs>
       <path id="mb8d3944109" d="M 0 0
L 0 3.5
" style="stroke: #000000; stroke-width: 0.8"/>
      </defs>
      <g>
       <use xlink:href="#mb8d3944109" x="62.484703" y="209.582172" style="stroke: #000000; stroke-width: 0.8"/>
      </g>
     </g>
     <g id="text_1">
      <!-- 100 -->
      <g transform="translate(52.940953 224.179828) scale(0.1 -0.1)">
       <defs>
        <path id="DejaVuSans-14" d="M 794 531
L 1825 531
L 1825 4091
L 703 3866
L 703 4441
L 1819 4666
L 2450 4666
L 2450 531
L 3481 531
L 3481 0
L 794 0
L 794 531
z
" transform="scale(0.015625)"/>
        <path id="DejaVuSans-13" d="M 2034 4250
Q 1547 4250 1301 3770
Q 1056 3291 1056 2328
Q 1056 1369 1301 889
Q 1547 409 2034 409
Q 2525 409 2770 889
Q 3016 1369 3016 2328
Q 3016 3291 2770 3770
Q 2525 4250 2034 4250
z
M 2034 4750
Q 2819 4750 3233 4129
Q 3647 3509 3647 2328
Q 3647 1150 3233 529
Q 2819 -91 2034 -91
Q 1250 -91 836 529
Q 422 1150 422 2328
Q 422 3509 836 4129
Q 1250 4750 2034 4750
z
" transform="scale(0.015625)"/>
       </defs>
       <use xlink:href="#DejaVuSans-14"/>
       <use xlink:href="#DejaVuSans-13" transform="translate(63.625 0)"/>
       <use xlink:href="#DejaVuSans-13" transform="translate(127.25 0)"/>
      </g>
     </g>
    </g>
    <g id="xtick_2">
     <g id="line2d_2">
      <g>
       <use xlink:href="#mb8d3944109" x="110.240511" y="209.582172" style="stroke: #000000; stroke-width: 0.8"/>
      </g>
     </g>
     <g id="text_2">
      <!-- 200 -->
      <g transform="translate(100.696761 224.179828) scale(0.1 -0.1)">
       <defs>
        <path id="DejaVuSans-15" d="M 1228 531
L 3431 531
L 3431 0
L 469 0
L 469 531
Q 828 903 1448 1529
Q 2069 2156 2228 2338
Q 2531 2678 2651 2914
Q 2772 3150 2772 3378
Q 2772 3750 2511 3984
Q 2250 4219 1831 4219
Q 1534 4219 1204 4116
Q 875 4013 500 3803
L 500 4441
Q 881 4594 1212 4672
Q 1544 4750 1819 4750
Q 2544 4750 2975 4387
Q 3406 4025 3406 3419
Q 3406 3131 3298 2873
Q 3191 2616 2906 2266
Q 2828 2175 2409 1742
Q 1991 1309 1228 531
z
" transform="scale(0.015625)"/>
       </defs>
       <use xlink:href="#DejaVuSans-15"/>
       <use xlink:href="#DejaVuSans-13" transform="translate(63.625 0)"/>
       <use xlink:href="#DejaVuSans-13" transform="translate(127.25 0)"/>
      </g>
     </g>
    </g>
    <g id="xtick_3">
     <g id="line2d_3">
      <g>
       <use xlink:href="#mb8d3944109" x="157.996319" y="209.582172" style="stroke: #000000; stroke-width: 0.8"/>
      </g>
     </g>
     <g id="text_3">
      <!-- 300 -->
      <g transform="translate(148.452569 224.179828) scale(0.1 -0.1)">
       <defs>
        <path id="DejaVuSans-16" d="M 2597 2516
Q 3050 2419 3304 2112
Q 3559 1806 3559 1356
Q 3559 666 3084 287
Q 2609 -91 1734 -91
Q 1441 -91 1130 -33
Q 819 25 488 141
L 488 750
Q 750 597 1062 519
Q 1375 441 1716 441
Q 2309 441 2620 675
Q 2931 909 2931 1356
Q 2931 1769 2642 2001
Q 2353 2234 1838 2234
L 1294 2234
L 1294 2753
L 1863 2753
Q 2328 2753 2575 2939
Q 2822 3125 2822 3475
Q 2822 3834 2567 4026
Q 2313 4219 1838 4219
Q 1578 4219 1281 4162
Q 984 4106 628 3988
L 628 4550
Q 988 4650 1302 4700
Q 1616 4750 1894 4750
Q 2613 4750 3031 4423
Q 3450 4097 3450 3541
Q 3450 3153 3228 2886
Q 3006 2619 2597 2516
z
" transform="scale(0.015625)"/>
       </defs>
       <use xlink:href="#DejaVuSans-16"/>
       <use xlink:href="#DejaVuSans-13" transform="translate(63.625 0)"/>
       <use xlink:href="#DejaVuSans-13" transform="translate(127.25 0)"/>
      </g>
     </g>
    </g>
    <g id="xtick_4">
     <g id="line2d_4">
      <g>
       <use xlink:href="#mb8d3944109" x="205.752127" y="209.582172" style="stroke: #000000; stroke-width: 0.8"/>
      </g>
     </g>
     <g id="text_4">
      <!-- 400 -->
      <g transform="translate(196.208377 224.179828) scale(0.1 -0.1)">
       <defs>
        <path id="DejaVuSans-17" d="M 2419 4116
L 825 1625
L 2419 1625
L 2419 4116
z
M 2253 4666
L 3047 4666
L 3047 1625
L 3713 1625
L 3713 1100
L 3047 1100
L 3047 0
L 2419 0
L 2419 1100
L 313 1100
L 313 1709
L 2253 4666
z
" transform="scale(0.015625)"/>
       </defs>
       <use xlink:href="#DejaVuSans-17"/>
       <use xlink:href="#DejaVuSans-13" transform="translate(63.625 0)"/>
       <use xlink:href="#DejaVuSans-13" transform="translate(127.25 0)"/>
      </g>
     </g>
    </g>
    <g id="xtick_5">
     <g id="line2d_5">
      <g>
       <use xlink:href="#mb8d3944109" x="253.507935" y="209.582172" style="stroke: #000000; stroke-width: 0.8"/>
      </g>
     </g>
     <g id="text_5">
      <!-- 500 -->
      <g transform="translate(243.964185 224.179828) scale(0.1 -0.1)">
       <defs>
        <path id="DejaVuSans-18" d="M 691 4666
L 3169 4666
L 3169 4134
L 1269 4134
L 1269 2991
Q 1406 3038 1543 3061
Q 1681 3084 1819 3084
Q 2600 3084 3056 2656
Q 3513 2228 3513 1497
Q 3513 744 3044 326
Q 2575 -91 1722 -91
Q 1428 -91 1123 -41
Q 819 9 494 109
L 494 744
Q 775 591 1075 516
Q 1375 441 1709 441
Q 2250 441 2565 725
Q 2881 1009 2881 1497
Q 2881 1984 2565 2268
Q 2250 2553 1709 2553
Q 1456 2553 1204 2497
Q 953 2441 691 2322
L 691 4666
z
" transform="scale(0.015625)"/>
       </defs>
       <use xlink:href="#DejaVuSans-18"/>
       <use xlink:href="#DejaVuSans-13" transform="translate(63.625 0)"/>
       <use xlink:href="#DejaVuSans-13" transform="translate(127.25 0)"/>
      </g>
     </g>
    </g>
    <g id="xtick_6">
     <g id="line2d_6">
      <g>
       <use xlink:href="#mb8d3944109" x="301.263743" y="209.582172" style="stroke: #000000; stroke-width: 0.8"/>
      </g>
     </g>
     <g id="text_6">
      <!-- 600 -->
      <g transform="translate(291.719993 224.179828) scale(0.1 -0.1)">
       <defs>
        <path id="DejaVuSans-19" d="M 2113 2584
Q 1688 2584 1439 2293
Q 1191 2003 1191 1497
Q 1191 994 1439 701
Q 1688 409 2113 409
Q 2538 409 2786 701
Q 3034 994 3034 1497
Q 3034 2003 2786 2293
Q 2538 2584 2113 2584
z
M 3366 4563
L 3366 3988
Q 3128 4100 2886 4159
Q 2644 4219 2406 4219
Q 1781 4219 1451 3797
Q 1122 3375 1075 2522
Q 1259 2794 1537 2939
Q 1816 3084 2150 3084
Q 2853 3084 3261 2657
Q 3669 2231 3669 1497
Q 3669 778 3244 343
Q 2819 -91 2113 -91
Q 1303 -91 875 529
Q 447 1150 447 2328
Q 447 3434 972 4092
Q 1497 4750 2381 4750
Q 2619 4750 2861 4703
Q 3103 4656 3366 4563
z
" transform="scale(0.015625)"/>
       </defs>
       <use xlink:href="#DejaVuSans-19"/>
       <use xlink:href="#DejaVuSans-13" transform="translate(63.625 0)"/>
       <use xlink:href="#DejaVuSans-13" transform="translate(127.25 0)"/>
      </g>
     </g>
    </g>
    <g id="text_7">
     <!-- Z' (Ω) -->
     <g transform="translate(167.790234 238.179828) scale(0.1 -0.1)">
      <defs>
       <path id="DejaVuSans-3d" d="M 359 4666
L 4025 4666
L 4025 4184
L 1075 531
L 4097 531
L 4097 0
L 288 0
L 288 481
L 3238 4134
L 359 4134
L 359 4666
z
" transform="scale(0.015625)"/>
       <path id="DejaVuSans-a" d="M 1147 4666
L 1147 2931
L 616 2931
L 616 4666
L 1147 4666
z
" transform="scale(0.015625)"/>
       <path id="DejaVuSans-3" transform="scale(0.015625)"/>
       <path id="DejaVuSans-b" d="M 1984 4856
Q 1566 4138 1362 3434
Q 1159 2731 1159 2009
Q 1159 1288 1364 580
Q 1569 -128 1984 -844
L 1484 -844
Q 1016 -109 783 600
Q 550 1309 550 2009
Q 550 2706 781 3412
Q 1013 4119 1484 4856
L 1984 4856
z
" transform="scale(0.015625)"/>
       <path id="DejaVuSans-33d" d="M 4647 556
L 4647 0
L 2772 0
L 2772 556
Q 3325 859 3634 1378
Q 3944 1897 3944 2528
Q 3944 3278 3531 3731
Q 3119 4184 2444 4184
Q 1769 4184 1355 3729
Q 941 3275 941 2528
Q 941 1897 1250 1378
Q 1563 859 2119 556
L 2119 0
L 244 0
L 244 556
L 1241 556
Q 747 991 519 1456
Q 294 1922 294 2497
Q 294 3491 894 4106
Q 1491 4722 2444 4722
Q 3391 4722 3994 4106
Q 4594 3494 4594 2528
Q 4594 1922 4372 1459
Q 4150 997 3647 556
L 4647 556
z
" transform="scale(0.015625)"/>
       <path id="DejaVuSans-c" d="M 513 4856
L 1013 4856
Q 1481 4119 1714 3412
Q 1947 2706 1947 2009
Q 1947 1309 1714 600
Q 1481 -109 1013 -844
L 513 -844
Q 928 -128 1133 580
Q 1338 1288 1338 2009
Q 1338 2731 1133 3434
Q 928 4138 513 4856
z
" transform="scale(0.015625)"/>
      </defs>
      <use xlink:href="#DejaVuSans-3d"/>
      <use xlink:href="#DejaVuSans-a" transform="translate(68.5 0)"/>
      <use xlink:href="#DejaVuSans-3" transform="translate(95.984375 0)"/>
      <use xlink:href="#DejaVuSans-b" transform="translate(127.765625 0)"/>
      <use xlink:href="#DejaVuSans-33d" transform="translate(166.78125 0)"/>
      <use xlink:href="#DejaVuSans-c" transform="translate(243.203125 0)"/>
     </g>
    </g>
   </g>
   <g id="matplotlib.axis_2">
    <g id="ytick_1">
     <g id="line2d_7">
      <defs>
       <path id="mbca85a0872" d="M 0 0
L -3.5 0
" style="stroke: #000000; stroke-width: 0.8"/>
      </defs>
      <g>
       <use xlink:href="#mbca85a0872" x="50.602344" y="203.627661" style="stroke: #000000; stroke-width: 0.8"/>
      </g>
     </g>
     <g id="text_8">
      <!-- 0 -->
      <g transform="translate(37.239844 207.426489) scale(0.1 -0.1)">
       <use xlink:href="#DejaVuSans-13"/>
      </g>
     </g>
    </g>
    <g id="ytick_2">
     <g id="line2d_8">
      <g>
       <use xlink:href="#mbca85a0872" x="50.602344" y="179.749756" style="stroke: #000000; stroke-width: 0.8"/>
      </g>
     </g>
     <g id="text_9">
      <!-- 50 -->
      <g transform="translate(30.877344 183.548585) scale(0.1 -0.1)">
       <use xlink:href="#DejaVuSans-18"/>
       <use xlink:href="#DejaVuSans-13" transform="translate(63.625 0)"/>
      </g>
     </g>
    </g>
    <g id="ytick_3">
     <g id="line2d_9">
      <g>
       <use xlink:href="#mbca85a0872" x="50.602344" y="155.871852" style="stroke: #000000; stroke-width: 0.8"/>
      </g>
     </g>
     <g id="text_10">
      <!-- 100 -->
      <g transform="translate(24.514844 159.670681) scale(0.1 -0.1)">
       <use xlink:href="#DejaVuSans-14"/>
       <use xlink:href="#DejaVuSans-13" transform="translate(63.625 0)"/>
       <use xlink:href="#DejaVuSans-13" transform="translate(127.25 0)"/>
      </g>
     </g>
    </g>
    <g id="ytick_4">
     <g id="line2d_10">
      <g>
       <use xlink:href="#mbca85a0872" x="50.602344" y="131.993948" style="stroke: #000000; stroke-width: 0.8"/>
      </g>
     </g>
     <g id="text_11">
      <!-- 150 -->
      <g transform="translate(24.514844 135.792777) scale(0.1 -0.1)">
       <use xlink:href="#DejaVuSans-14"/>
       <use xlink:href="#DejaVuSans-18" transform="translate(63.625 0)"/>
       <use xlink:href="#DejaVuSans-13" transform="translate(127.25 0)"/>
      </g>
     </g>
    </g>
    <g id="ytick_5">
     <g id="line2d_11">
      <g>
       <use xlink:href="#mbca85a0872" x="50.602344" y="108.116044" style="stroke: #000000; stroke-width: 0.8"/>
      </g>
     </g>
     <g id="text_12">
      <!-- 200 -->
      <g transform="translate(24.514844 111.914873) scale(0.1 -0.1)">
       <use xlink:href="#DejaVuSans-15"/>
       <use xlink:href="#DejaVuSans-13" transform="translate(63.625 0)"/>
       <use xlink:href="#DejaVuSans-13" transform="translate(127.25 0)"/>
      </g>
     </g>
    </g>
    <g id="ytick_6">
     <g id="line2d_12">
      <g>
       <use xlink:href="#mbca85a0872" x="50.602344" y="84.23814" style="stroke: #000000; stroke-width: 0.8"/>
      </g>
     </g>
     <g id="text_13">
      <!-- 250 -->
      <g transform="translate(24.514844 88.036969) scale(0.1 -0.1)">
       <use xlink:href="#DejaVuSans-15"/>
       <use xlink:href="#DejaVuSans-18" transform="translate(63.625 0)"/>
       <use xlink:href="#DejaVuSans-13" transform="translate(127.25 0)"/>
      </g>
     </g>
    </g>
    <g id="text_14">
     <!-- -Z'' (Ω) -->
     <g transform="translate(18.1125 161.289062) rotate(-90) scale(0.1 -0.1)">
      <defs>
       <path id="DejaVuSans-10" d="M 313 2009
L 1997 2009
L 1997 1497
L 313 1497
L 313 2009
z
" transform="scale(0.015625)"/>
      </defs>
      <use xlink:href="#DejaVuSans-10"/>
      <use xlink:href="#DejaVuSans-3d" transform="translate(36.078125 0)"/>
      <use xlink:href="#DejaVuSans-a" transform="translate(104.578125 0)"/>
      <use xlink:href="#DejaVuSans-a" transform="translate(132.0625 0)"/>
      <use xlink:href="#DejaVuSans-3" transform="translate(159.546875 0)"/>
      <use xlink:href="#DejaVuSans-b" transform="translate(191.328125 0)"/>
      <use xlink:href="#DejaVuSans-33d" transform="translate(230.34375 0)"/>
      <use xlink:href="#DejaVuSans-c" transform="translate(306.765625 0)"/>
     </g>
    </g>
   </g>
   <g id="line2d_13">
    <path d="M 301.263743 203.620156
L 301.263743 203.617712
L 301.263742 203.614471
L 301.263742 203.610175
L 301.263741 203.60448
L 301.263739 203.59693
L 301.263736 203.586921
L 301.263731 203.573652
L 301.263722 203.556061
L 301.263705 203.53274
L 301.263677 203.501823
L 301.263627 203.460837
L 301.263538 203.4065
L 301.263383 203.334466
L 301.263111 203.23897
L 301.262632 203.11237
L 301.26179 202.944536
L 301.260311 202.72204
L 301.257711 202.427082
L 301.253142 202.036071
L 301.245113 201.517743
L 301.231002 200.830684
L 301.206206 199.920062
L 301.16264 198.713352
L 301.08611 197.114794
L 300.951727 194.99834
L 300.715913 192.19898
L 300.302597 188.502805
L 299.579653 183.637397
L 298.319667 177.267119
L 296.137377 169.004436
L 292.398279 158.461492
L 286.108829 145.387663
L 275.850628 129.958508
L 259.932131 113.246736
L 237.043634 97.691563
L 207.4992 86.943777
L 174.252453 84.379844
L 142.151613 90.904929
L 115.42715 104.258331
L 95.790465 120.6641
L 82.646091 136.920059
L 74.387141 151.238009
L 69.401494 163.01029
L 66.462514 172.291327
L 64.751129 179.404434
L 63.756194 184.72867
L 63.168708 188.606135
L 62.802116 191.3111
L 62.538601 193.045994
" clip-path="url(#p346e7abc32)" style="fill: none; stroke: #1f77b4; stroke-linecap: square"/>
    <defs>
     <path id="mf33704b883" d="M 0 1.5
C 0.397805 1.5 0.77937 1.341951 1.06066 1.06066
C 1.341951 0.77937 1.5 0.397805 1.5 0
C 1.5 -0.397805 1.341951 -0.77937 1.06066 -1.06066
C 0.77937 -1.341951 0.397805 -1.5 0 -1.5
C -0.397805 -1.5 -0.77937 -1.341951 -1.06066 -1.06066
C -1.341951 -0.77937 -1.5 -0.397805 -1.5 0
C -1.5 0.397805 -1.341951 0.77937 -1.06066 1.06066
C -0.77937 1.341951 -0.397805 1.5 0 1.5
z
" style="stroke: #1f77b4"/>
    </defs>
    <g clip-path="url(#p346e7abc32)">
     <use xlink:href="#mf33704b883" x="301.263743" y="203.620156" style="fill: #1f77b4; stroke: #1f77b4"/>
     <use xlink:href="#mf33704b883" x="301.263743" y="203.617712" style="fill: #1f77b4; stroke: #1f77b4"/>
     <use xlink:href="#mf33704b883" x="301.263742" y="203.614471" style="fill: #1f77b4; stroke: #1f77b4"/>
     <use xlink:href="#mf33704b883" x="301.263742" y="203.610175" style="fill: #1f77b4; stroke: #1f77b4"/>
     <use xlink:href="#mf33704b883" x="301.263741" y="203.60448" style="fill: #1f77b4; stroke: #1f77b4"/>
     <use xlink:href="#mf33704b883" x="301.263739" y="203.59693" style="fill: #1f77b4; stroke: #1f77b4"/>
     <use xlink:href="#mf33704b883" x="301.263736" y="203.586921" style="fill: #1f77b4; stroke: #1f77b4"/>
     <use xlink:href="#mf33704b883" x="301.263731" y="203.573652" style="fill: #1f77b4; stroke: #1f77b4"/>
     <use xlink:href="#mf33704b883" x="301.263722" y="203.556061" style="fill: #1f77b4; stroke: #1f77b4"/>
     <use xlink:href="#mf33704b883" x="301.263705" y="203.53274" style="fill: #1f77b4; stroke: #1f77b4"/>
     <use xlink:href="#mf33704b883" x="301.263677" y="203.501823" style="fill: #1f77b4; stroke: #1f77b4"/>
     <use xlink:href="#mf33704b883" x="301.263627" y="203.460837" style="fill: #1f77b4; stroke: #1f77b4"/>
     <use xlink:href="#mf33704b883" x="301.263538" y="203.4065" style="fill: #1f77b4; stroke: #1f77b4"/>
     <use xlink:href="#mf33704b883" x="301.263383" y="203.334466" style="fill: #1f77b4; stroke: #1f77b4"/>
     <use xlink:href="#mf33704b883" x="301.263111" y="203.23897" style="fill: #1f77b4; stroke: #1f77b4"/>
     <use xlink:href="#mf33704b883" x="301.262632" y="203.11237" style="fill: #1f77b4; stroke: #1f77b4"/>
     <use xlink:href="#mf33704b883" x="301.26179" y="202.944536" style="fill: #1f77b4; stroke: #1f77b4"/>
     <use xlink:href="#mf33704b883" x="301.260311" y="202.72204" style="fill: #1f77b4; stroke: #1f77b4"/>
     <use xlink:href="#mf33704b883" x="301.257711" y="202.427082" style="fill: #1f77b4; stroke: #1f77b4"/>
     <use xlink:href="#mf33704b883" x="301.253142" y="202.036071" style="fill: #1f77b4; stroke: #1f77b4"/>
     <use xlink:href="#mf33704b883" x="301.245113" y="201.517743" style="fill: #1f77b4; stroke: #1f77b4"/>
     <use xlink:href="#mf33704b883" x="301.231002" y="200.830684" style="fill: #1f77b4; stroke: #1f77b4"/>
     <use xlink:href="#mf33704b883" x="301.206206" y="199.920062" style="fill: #1f77b4; stroke: #1f77b4"/>
     <use xlink:href="#mf33704b883" x="301.16264" y="198.713352" style="fill: #1f77b4; stroke: #1f77b4"/>
     <use xlink:href="#mf33704b883" x="301.08611" y="197.114794" style="fill: #1f77b4; stroke: #1f77b4"/>
     <use xlink:href="#mf33704b883" x="300.951727" y="194.99834" style="fill: #1f77b4; stroke: #1f77b4"/>
     <use xlink:href="#mf33704b883" x="300.715913" y="192.19898" style="fill: #1f77b4; stroke: #1f77b4"/>
     <use xlink:href="#mf33704b883" x="300.302597" y="188.502805" style="fill: #1f77b4; stroke: #1f77b4"/>
     <use xlink:href="#mf33704b883" x="299.579653" y="183.637397" style="fill: #1f77b4; stroke: #1f77b4"/>
     <use xlink:href="#mf33704b883" x="298.319667" y="177.267119" style="fill: #1f77b4; stroke: #1f77b4"/>
     <use xlink:href="#mf33704b883" x="296.137377" y="169.004436" style="fill: #1f77b4; stroke: #1f77b4"/>
     <use xlink:href="#mf33704b883" x="292.398279" y="158.461492" style="fill: #1f77b4; stroke: #1f77b4"/>
     <use xlink:href="#mf33704b883" x="286.108829" y="145.387663" style="fill: #1f77b4; stroke: #1f77b4"/>
     <use xlink:href="#mf33704b883" x="275.850628" y="129.958508" style="fill: #1f77b4; stroke: #1f77b4"/>
     <use xlink:href="#mf33704b883" x="259.932131" y="113.246736" style="fill: #1f77b4; stroke: #1f77b4"/>
     <use xlink:href="#mf33704b883" x="237.043634" y="97.691563" style="fill: #1f77b4; stroke: #1f77b4"/>
     <use xlink:href="#mf33704b883" x="207.4992" y="86.943777" style="fill: #1f77b4; stroke: #1f77b4"/>
     <use xlink:href="#mf33704b883" x="174.252453" y="84.379844" style="fill: #1f77b4; stroke: #1f77b4"/>
     <use xlink:href="#mf33704b883" x="142.151613" y="90.904929" style="fill: #1f77b4; stroke: #1f77b4"/>
     <use xlink:href="#mf33704b883" x="115.42715" y="104.258331" style="fill: #1f77b4; stroke: #1f77b4"/>
     <use xlink:href="#mf33704b883" x="95.790465" y="120.6641" style="fill: #1f77b4; stroke: #1f77b4"/>
     <use xlink:href="#mf33704b883" x="82.646091" y="136.920059" style="fill: #1f77b4; stroke: #1f77b4"/>
     <use xlink:href="#mf33704b883" x="74.387141" y="151.238009" style="fill: #1f77b4; stroke: #1f77b4"/>
     <use xlink:href="#mf33704b883" x="69.401494" y="163.01029" style="fill: #1f77b4; stroke: #1f77b4"/>
     <use xlink:href="#mf33704b883" x="66.462514" y="172.291327" style="fill: #1f77b4; stroke: #1f77b4"/>
     <use xlink:href="#mf33704b883" x="64.751129" y="179.404434" style="fill: #1f77b4; stroke: #1f77b4"/>
     <use xlink:href="#mf33704b883" x="63.756194" y="184.72867" style="fill: #1f77b4; stroke: #1f77b4"/>
     <use xlink:href="#mf33704b883" x="63.168708" y="188.606135" style="fill: #1f77b4; stroke: #1f77b4"/>
     <use xlink:href="#mf33704b883" x="62.802116" y="191.3111" style="fill: #1f77b4; stroke: #1f77b4"/>
     <use xlink:href="#mf33704b883" x="62.538601" y="193.045994" style="fill: #1f77b4; stroke: #1f77b4"/>
    </g>
   </g>
   <g id="patch_3">
    <path d="M 50.602344 209.582172
L 50.602344 78.417828
" style="fill: none; stroke: #000000; stroke-width: 0.8; stroke-linejoin: miter; stroke-linecap: square"/>
   </g>
   <g id="patch_4">
    <path d="M 313.2 209.582172
L 313.2 78.417828
" style="fill: none; stroke: #000000; stroke-width: 0.8; stroke-linejoin: miter; stroke-linecap: square"/>
   </g>
   <g id="patch_5">
    <path d="M 50.602344 209.582172
L 313.2 209.582172
" style="fill: none; stroke: #000000; stroke-width: 0.8; stroke-linejoin: miter; stroke-linecap: square"/>
   </g>
   <g id="patch_6">
    <path d="M 50.602344 78.417828
L 313.2 78.417828
" style="fill: none; stroke: #000000; stroke-width: 0.8; stroke-linejoin: miter; stroke-linecap: square"/>
   </g>
   <g id="text_15">
    <!-- Grain -->
    <g transform="translate(181.901172 99.273735) scale(0.09 -0.09)">
     <defs>
      <path id="DejaVuSans-2a" d="M 3809 666
L 3809 1919
L 2778 1919
L 2778 2438
L 4434 2438
L 4434 434
Q 4069 175 3628 42
Q 3188 -91 2688 -91
Q 1594 -91 976 548
Q 359 1188 359 2328
Q 359 3472 976 4111
Q 1594 4750 2688 4750
Q 3144 4750 3555 4637
Q 3966 4525 4313 4306
L 4313 3634
Q 3963 3931 3569 4081
Q 3175 4231 2741 4231
Q 1884 4231 1454 3753
Q 1025 3275 1025 2328
Q 1025 1384 1454 906
Q 1884 428 2741 428
Q 3075 428 3337 486
Q 3600 544 3809 666
z
" transform="scale(0.015625)"/>
      <path id="DejaVuSans-55" d="M 2631 2963
Q 2534 3019 2420 3045
Q 2306 3072 2169 3072
Q 1681 3072 1420 2755
Q 1159 2438 1159 1844
L 1159 0
L 581 0
L 581 3500
L 1159 3500
L 1159 2956
Q 1341 3275 1631 3429
Q 1922 3584 2338 3584
Q 2397 3584 2469 3576
Q 2541 3569 2628 3553
L 2631 2963
z
" transform="scale(0.015625)"/>
      <path id="DejaVuSans-44" d="M 2194 1759
Q 1497 1759 1228 1600
Q 959 1441 959 1056
Q 959 750 1161 570
Q 1363 391 1709 391
Q 2188 391 2477 730
Q 2766 1069 2766 1631
L 2766 1759
L 2194 1759
z
M 3341 1997
L 3341 0
L 2766 0
L 2766 531
Q 2569 213 2275 61
Q 1981 -91 1556 -91
Q 1019 -91 701 211
Q 384 513 384 1019
Q 384 1609 779 1909
Q 1175 2209 1959 2209
L 2766 2209
L 2766 2266
Q 2766 2663 2505 2880
Q 2244 3097 1772 3097
Q 1472 3097 1187 3025
Q 903 2953 641 2809
L 641 3341
Q 956 3463 1253 3523
Q 1550 3584 1831 3584
Q 2591 3584 2966 3190
Q 3341 2797 3341 1997
z
" transform="scale(0.015625)"/>
      <path id="DejaVuSans-4c" d="M 603 3500
L 1178 3500
L 1178 0
L 603 0
L 603 3500
z
M 603 4863
L 1178 4863
L 1178 4134
L 603 4134
L 603 4863
z
" transform="scale(0.015625)"/>
      <path id="DejaVuSans-51" d="M 3513 2113
L 3513 0
L 2938 0
L 2938 2094
Q 2938 2591 2744 2837
Q 2550 3084 2163 3084
Q 1697 3084 1428 2787
Q 1159 2491 1159 1978
L 1159 0
L 581 0
L 581 3500
L 1159 3500
L 1159 2956
Q 1366 3272 1645 3428
Q 1925 3584 2291 3584
Q 2894 3584 3203 3211
Q 3513 2838 3513 2113
z
" transform="scale(0.015625)"/>
     </defs>
     <use xlink:href="#DejaVuSans-2a"/>
     <use xlink:href="#DejaVuSans-55" transform="translate(77.484375 0)"/>
     <use xlink:href="#DejaVuSans-44" transform="translate(118.59375 0)"/>
     <use xlink:href="#DejaVuSans-4c" transform="translate(179.875 0)"/>
     <use xlink:href="#DejaVuSans-51" transform="translate(207.65625 0)"/>
    </g>
    <!--  Grain boundary -->
    <g transform="translate(181.901172 110.076196) scale(0.09 -0.09)">
     <defs>
      <path id="DejaVuSans-45" d="M 3116 1747
Q 3116 2381 2855 2742
Q 2594 3103 2138 3103
Q 1681 3103 1420 2742
Q 1159 2381 1159 1747
Q 1159 1113 1420 752
Q 1681 391 2138 391
Q 2594 391 2855 752
Q 3116 1113 3116 1747
z
M 1159 2969
Q 1341 3281 1617 3432
Q 1894 3584 2278 3584
Q 2916 3584 3314 3078
Q 3713 2572 3713 1747
Q 3713 922 3314 415
Q 2916 -91 2278 -91
Q 1894 -91 1617 61
Q 1341 213 1159 525
L 1159 0
L 581 0
L 581 4863
L 1159 4863
L 1159 2969
z
" transform="scale(0.015625)"/>
      <path id="DejaVuSans-52" d="M 1959 3097
Q 1497 3097 1228 2736
Q 959 2375 959 1747
Q 959 1119 1226 758
Q 1494 397 1959 397
Q 2419 397 2687 759
Q 2956 1122 2956 1747
Q 2956 2369 2687 2733
Q 2419 3097 1959 3097
z
M 1959 3584
Q 2709 3584 3137 3096
Q 3566 2609 3566 1747
Q 3566 888 3137 398
Q 2709 -91 1959 -91
Q 1206 -91 779 398
Q 353 888 353 1747
Q 353 2609 779 3096
Q 1206 3584 1959 3584
z
" transform="scale(0.015625)"/>
      <path id="DejaVuSans-58" d="M 544 1381
L 544 3500
L 1119 3500
L 1119 1403
Q 1119 906 1312 657
Q 1506 409 1894 409
Q 2359 409 2629 706
Q 2900 1003 2900 1516
L 2900 3500
L 3475 3500
L 3475 0
L 2900 0
L 2900 538
Q 2691 219 2414 64
Q 2138 -91 1772 -91
Q 1169 -91 856 284
Q 544 659 544 1381
z
M 1991 3584
L 1991 3584
z
" transform="scale(0.015625)"/>
      <path id="DejaVuSans-47" d="M 2906 2969
L 2906 4863
L 3481 4863
L 3481 0
L 2906 0
L 2906 525
Q 2725 213 2448 61
Q 2172 -91 1784 -91
Q 1150 -91 751 415
Q 353 922 353 1747
Q 353 2572 751 3078
Q 1150 3584 1784 3584
Q 2172 3584 2448 3432
Q 2725 3281 2906 2969
z
M 947 1747
Q 947 1113 1208 752
Q 1469 391 1925 391
Q 2381 391 2643 752
Q 2906 1113 2906 1747
Q 2906 2381 2643 2742
Q 2381 3103 1925 3103
Q 1469 3103 1208 2742
Q 947 2381 947 1747
z
" transform="scale(0.015625)"/>
      <path id="DejaVuSans-5c" d="M 2059 -325
Q 1816 -950 1584 -1140
Q 1353 -1331 966 -1331
L 506 -1331
L 506 -850
L 844 -850
Q 1081 -850 1212 -737
Q 1344 -625 1503 -206
L 1606 56
L 191 3500
L 800 3500
L 1894 763
L 2988 3500
L 3597 3500
L 2059 -325
z
" transform="scale(0.015625)"/>
     </defs>
     <use xlink:href="#DejaVuSans-3"/>
     <use xlink:href="#DejaVuSans-2a" transform="translate(31.78125 0)"/>
     <use xlink:href="#DejaVuSans-55" transform="translate(109.265625 0)"/>
     <use xlink:href="#DejaVuSans-44" transform="translate(150.375 0)"/>
     <use xlink:href="#DejaVuSans-4c" transform="translate(211.65625 0)"/>
     <use xlink:href="#DejaVuSans-51" transform="translate(239.4375 0)"/>
     <use xlink:href="#DejaVuSans-3" transform="translate(302.8125 0)"/>
     <use xlink:href="#DejaVuSans-45" transform="translate(334.59375 0)"/>
     <use xlink:href="#DejaVuSans-52" transform="translate(398.078125 0)"/>
     <use xlink:href="#DejaVuSans-58" transform="translate(459.265625 0)"/>
     <use xlink:href="#DejaVuSans-51" transform="translate(522.640625 0)"/>
     <use xlink:href="#DejaVuSans-47" transform="translate(586.015625 0)"/>
     <use xlink:href="#DejaVuSans-44" transform="translate(649.5 0)"/>
     <use xlink:href="#DejaVuSans-55" transform="translate(710.78125 0)"/>
     <use xlink:href="#DejaVuSans-5c" transform="translate(751.890625 0)"/>
    </g>
   </g>
  </g>
 </g>
 <defs>
  <clipPath id="p346e7abc32">
   <rect x="50.602344" y="78.417828" width="262.597656" height="131.164343"/>
  </clipPath>
 </defs>
</svg>
