<?xml version="1.0" encoding="utf-8" standalone="no"?>
<!DOCTYPE svg PUBLIC "-//W3C//DTD SVG 1.1//EN"
  "http://www.w3.org/Graphics/SVG/1.1/DTD/svg11.dtd">
<svg xmlns:xlink="http://www.w3.org/1999/xlink" width="352.076836pt" height="265.394707pt" viewBox="0 0 352.076836 265.394707" xmlns="http://www.w3.org/2000/svg" version="1.1">
 <metadata>
  <rdf:RDF xmlns:dc="http://purl.org/dc/elements/1.1/" xmlns:cc="http://creativecommons.org/ns#" xmlns:rdf="http://www.w3.org/1999/02/22-rdf-syntax-ns#">
   <cc:Work>
    <dc:type rdf:resource="http://purl.org/dc/dcmitype/StillImage"/>
    <dc:date>2026-06-19T17:16:24.478500</dc:date>
    <dc:format>image/svg+xml</dc:format>
    <dc:creator>
     <cc:Agent>
      <dc:title>Matplotlib v3.11.0, https://matplotlib.org/</dc:title>
     </cc:Agent>
    </dc:creator>
   </cc:Work>
  </rdf:RDF>
 </metadata>
 <defs>
  <style type="text/css">*{stroke-linejoin: round; stroke-linecap: butt}</style>
 </defs>
 <g id="figure_1">
  <g id="patch_1">
   <path d="M 0 265.394707 
L 352.076836 265.394707 
L 352.076836 0 
L 0 0 
z
" style="fill: #ffffff"/>
  </g>
  <g id="axes_1">
   <g id="patch_2">
    <path d="M 47.604336 229.363457 
L 338.621836 229.363457 
L 338.621836 7.2 
L 47.604336 7.2 
z
" style="fill: #ffffff"/>
   </g>
   <g id="matplotlib.axis_1">
    <g id="xtick_1">
     <g id="line2d_1">
      <defs>
       <path id="mbbda880b61" d="M 0 0 
L 0 3.5 
" style="stroke: #000000; stroke-width: 1.2"/>
      </defs>
      <g>
       <use xlink:href="#mbbda880b61" x="47.604336" y="229.363457" style="stroke: #000000; stroke-width: 1.2"/>
      </g>
     </g>
     <g id="text_1">
      <text style="font-size: 9px; font-family: 'Arial', 'Helvetica', 'Liberation Sans', 'DejaVu Sans', sans-serif; text-anchor: middle" x="47.604336" y="242.915703" transform="rotate(-0 47.604336 242.915703)">0.0</text>
     </g>
    </g>
    <g id="xtick_2">
     <g id="line2d_2">
      <g>
       <use xlink:href="#mbbda880b61" x="96.107253" y="229.363457" style="stroke: #000000; stroke-width: 1.2"/>
      </g>
     </g>
     <g id="text_2">
      <text style="font-size: 9px; font-family: 'Arial', 'Helvetica', 'Liberation Sans', 'DejaVu Sans', sans-serif; text-anchor: middle" x="96.107253" y="242.915703" transform="rotate(-0 96.107253 242.915703)">0.1</text>
     </g>
    </g>
    <g id="xtick_3">
     <g id="line2d_3">
      <g>
       <use xlink:href="#mbbda880b61" x="144.610169" y="229.363457" style="stroke: #000000; stroke-width: 1.2"/>
      </g>
     </g>
     <g id="text_3">
      <text style="font-size: 9px; font-family: 'Arial', 'Helvetica', 'Liberation Sans', 'DejaVu Sans', sans-serif; text-anchor: middle" x="144.610169" y="242.915703" transform="rotate(-0 144.610169 242.915703)">0.2</text>
     </g>
    </g>
    <g id="xtick_4">
     <g id="line2d_4">
      <g>
       <use xlink:href="#mbbda880b61" x="193.113086" y="229.363457" style="stroke: #000000; stroke-width: 1.2"/>
      </g>
     </g>
     <g id="text_4">
      <text style="font-size: 9px; font-family: 'Arial', 'Helvetica', 'Liberation Sans', 'DejaVu Sans', sans-serif; text-anchor: middle" x="193.113086" y="242.915703" transform="rotate(-0 193.113086 242.915703)">0.3</text>
     </g>
    </g>
    <g id="xtick_5">
     <g id="line2d_5">
      <g>
       <use xlink:href="#mbbda880b61" x="241.616003" y="229.363457" style="stroke: #000000; stroke-width: 1.2"/>
      </g>
     </g>
     <g id="text_5">
      <text style="font-size: 9px; font-family: 'Arial', 'Helvetica', 'Liberation Sans', 'DejaVu Sans', sans-serif; text-anchor: middle" x="241.616003" y="242.915703" transform="rotate(-0 241.616003 242.915703)">0.4</text>
     </g>
    </g>
    <g id="xtick_6">
     <g id="line2d_6">
      <g>
       <use xlink:href="#mbbda880b61" x="290.118919" y="229.363457" style="stroke: #000000; stroke-width: 1.2"/>
      </g>
     </g>
     <g id="text_6">
      <text style="font-size: 9px; font-family: 'Arial', 'Helvetica', 'Liberation Sans', 'DejaVu Sans', sans-serif; text-anchor: middle" x="290.118919" y="242.915703" transform="rotate(-0 290.118919 242.915703)">0.5</text>
     </g>
    </g>
    <g id="xtick_7">
     <g id="line2d_7">
      <g>
       <use xlink:href="#mbbda880b61" x="338.621836" y="229.363457" style="stroke: #000000; stroke-width: 1.2"/>
      </g>
     </g>
     <g id="text_7">
      <text style="font-size: 9px; font-family: 'Arial', 'Helvetica', 'Liberation Sans', 'DejaVu Sans', sans-serif; text-anchor: middle" x="338.621836" y="242.915703" transform="rotate(-0 338.621836 242.915703)">0.6</text>
     </g>
    </g>
    <g id="text_8">
     <text style="font-size: 10px; font-family: 'Arial', 'Helvetica', 'Liberation Sans', 'DejaVu Sans', sans-serif; text-anchor: middle" x="193.113086" y="256.09002" transform="rotate(-0 193.113086 256.09002)">Strain (%)</text>
    </g>
   </g>
   <g id="matplotlib.axis_2">
    <g id="ytick_1">
     <g id="line2d_8">
      <defs>
       <path id="m2384df1b9d" d="M 0 0 
L -3.5 0 
" style="stroke: #000000; stroke-width: 1.2"/>
      </defs>
      <g>
       <use xlink:href="#m2384df1b9d" x="47.604336" y="219.265118" style="stroke: #000000; stroke-width: 1.2"/>
      </g>
     </g>
     <g id="text_9">
      <text style="font-size: 9px; font-family: 'Arial', 'Helvetica', 'Liberation Sans', 'DejaVu Sans', sans-serif; text-anchor: end" x="40.604336" y="222.541241" transform="rotate(-0 40.604336 222.541241)">0</text>
     </g>
    </g>
    <g id="ytick_2">
     <g id="line2d_9">
      <g>
       <use xlink:href="#m2384df1b9d" x="47.604336" y="178.851555" style="stroke: #000000; stroke-width: 1.2"/>
      </g>
     </g>
     <g id="text_10">
      <text style="font-size: 9px; font-family: 'Arial', 'Helvetica', 'Liberation Sans', 'DejaVu Sans', sans-serif; text-anchor: end" x="40.604336" y="182.127679" transform="rotate(-0 40.604336 182.127679)">200</text>
     </g>
    </g>
    <g id="ytick_3">
     <g id="line2d_10">
      <g>
       <use xlink:href="#m2384df1b9d" x="47.604336" y="138.437993" style="stroke: #000000; stroke-width: 1.2"/>
      </g>
     </g>
     <g id="text_11">
      <text style="font-size: 9px; font-family: 'Arial', 'Helvetica', 'Liberation Sans', 'DejaVu Sans', sans-serif; text-anchor: end" x="40.604336" y="141.714116" transform="rotate(-0 40.604336 141.714116)">400</text>
     </g>
    </g>
    <g id="ytick_4">
     <g id="line2d_11">
      <g>
       <use xlink:href="#m2384df1b9d" x="47.604336" y="98.02443" style="stroke: #000000; stroke-width: 1.2"/>
      </g>
     </g>
     <g id="text_12">
      <text style="font-size: 9px; font-family: 'Arial', 'Helvetica', 'Liberation Sans', 'DejaVu Sans', sans-serif; text-anchor: end" x="40.604336" y="101.300553" transform="rotate(-0 40.604336 101.300553)">600</text>
     </g>
    </g>
    <g id="ytick_5">
     <g id="line2d_12">
      <g>
       <use xlink:href="#m2384df1b9d" x="47.604336" y="57.610868" style="stroke: #000000; stroke-width: 1.2"/>
      </g>
     </g>
     <g id="text_13">
      <text style="font-size: 9px; font-family: 'Arial', 'Helvetica', 'Liberation Sans', 'DejaVu Sans', sans-serif; text-anchor: end" x="40.604336" y="60.886991" transform="rotate(-0 40.604336 60.886991)">800</text>
     </g>
    </g>
    <g id="ytick_6">
     <g id="line2d_13">
      <g>
       <use xlink:href="#m2384df1b9d" x="47.604336" y="17.197305" style="stroke: #000000; stroke-width: 1.2"/>
      </g>
     </g>
     <g id="text_14">
      <text style="font-size: 9px; font-family: 'Arial', 'Helvetica', 'Liberation Sans', 'DejaVu Sans', sans-serif; text-anchor: end" x="40.604336" y="20.473428" transform="rotate(-0 40.604336 20.473428)">1000</text>
     </g>
    </g>
    <g id="text_15">
     <text style="font-size: 10px; font-family: 'Arial', 'Helvetica', 'Liberation Sans', 'DejaVu Sans', sans-serif; text-anchor: middle" x="14.480273" y="118.281729" transform="rotate(-90 14.480273 118.281729)">Stress (MPa)</text>
    </g>
   </g>
   <g id="line2d_14">
    <path d="M 47.604336 219.265118 
L 52.454628 211.485507 
L 57.304919 203.887758 
L 62.155211 196.108147 
L 67.005503 188.672051 
L 71.855794 180.973268 
L 76.706086 172.971382 
L 81.556378 165.171565 
L 86.406669 157.472781 
L 91.256961 150.157926 
L 96.107253 150.966197 
L 100.957544 154.845899 
L 105.807836 157.91733 
L 110.658128 161.716205 
L 115.508419 165.110944 
L 120.358711 169.273541 
L 125.209003 172.344972 
L 130.059294 176.204467 
L 134.909586 179.336518 
L 139.759878 183.600149 
L 144.610169 186.125997 
L 149.460461 190.551282 
L 154.310753 193.986435 
L 159.161044 196.936625 
L 164.011336 200.472811 
L 168.861628 204.25148 
L 173.711919 207.282497 
L 178.562211 211.990677 
L 183.412503 215.304589 
L 188.262794 218.315399 
L 193.113086 218.194159 
L 197.963378 219.265118 
L 202.813669 218.820569 
L 207.663961 219.265118 
L 212.514253 219.042843 
L 217.364544 218.860982 
L 222.214836 219.265118 
L 227.065128 219.265118 
L 231.915419 219.265118 
L 236.765711 219.164084 
L 241.616003 219.265118 
L 246.466294 219.265118 
L 251.316586 219.265118 
L 256.166878 219.265118 
L 261.017169 218.618501 
L 265.867461 219.265118 
L 270.717753 219.103464 
L 275.568044 218.860982 
L 280.418336 218.820569 
L 285.268628 219.265118 
L 290.118919 218.860982 
L 294.969211 219.265118 
L 299.819503 219.265118 
L 304.669794 219.265118 
L 309.520086 218.699328 
L 314.370378 218.901396 
L 319.220669 219.265118 
L 324.070961 219.265118 
L 328.921253 219.204498 
L 333.771544 219.244911 
L 338.621836 218.962016 
" clip-path="url(#p2f481dc474)" style="fill: none; stroke: #4b6f8a; stroke-width: 1.5; stroke-linecap: square"/>
   </g>
   <g id="line2d_15">
    <path d="M 47.604336 218.921603 
L 52.454628 216.820098 
L 57.304919 210.758063 
L 62.155211 205.120371 
L 67.005503 201.563978 
L 71.855794 197.360967 
L 76.706086 193.400438 
L 81.556378 190.086526 
L 86.406669 186.16641 
L 91.256961 181.175335 
L 96.107253 176.426742 
L 100.957544 171.496287 
L 105.807836 169.960572 
L 110.658128 162.948819 
L 115.508419 159.695527 
L 120.358711 154.219489 
L 125.209003 150.400407 
L 130.059294 147.975594 
L 134.909586 143.489688 
L 139.759878 139.670607 
L 144.610169 134.719945 
L 149.460461 131.48686 
L 154.310753 126.435165 
L 159.161044 121.383469 
L 164.011336 116.190327 
L 168.861628 113.624065 
L 173.711919 107.966167 
L 178.562211 104.288532 
L 183.412503 101.398963 
L 188.262794 95.619823 
L 193.113086 92.144257 
L 197.963378 87.597731 
L 202.813669 82.687483 
L 207.663961 79.232124 
L 212.514253 73.695466 
L 217.364544 71.836442 
L 222.214836 66.744333 
L 227.065128 63.107112 
L 231.915419 58.641414 
L 236.765711 53.104755 
L 241.616003 49.427121 
L 246.466294 44.779562 
L 251.316586 40.435104 
L 256.166878 36.979744 
L 261.017169 32.23115 
L 265.867461 27.765452 
L 270.717753 23.966577 
L 275.568044 18.207644 
L 280.418336 17.904542 
L 285.268628 17.298339 
L 290.118919 20.632458 
L 294.969211 23.138099 
L 299.819503 24.370712 
L 304.669794 24.714228 
L 309.520086 27.46235 
L 314.370378 27.886692 
L 319.220669 28.694964 
L 324.070961 29.765923 
L 328.921253 33.443557 
L 333.771544 34.373069 
L 338.621836 34.332656 
" clip-path="url(#p2f481dc474)" style="fill: none; stroke: #c47b45; stroke-width: 1.5; stroke-linecap: square"/>
   </g>
   <g id="line2d_16">
    <path d="M 47.604336 219.265118 
L 52.454628 210.374134 
L 57.304919 202.251008 
L 62.155211 194.713879 
L 67.005503 185.984549 
L 71.855794 177.699769 
L 76.706086 169.414989 
L 81.556378 161.776825 
L 86.406669 153.007082 
L 91.256961 145.288092 
L 96.107253 137.124552 
L 100.957544 128.657911 
L 105.807836 132.961955 
L 110.658128 137.266 
L 115.508419 142.358108 
L 120.358711 146.8036 
L 125.209003 151.734055 
L 130.059294 155.815825 
L 134.909586 160.766486 
L 139.759878 164.88867 
L 144.610169 168.889612 
L 149.460461 173.476552 
L 154.310753 178.952589 
L 159.161044 183.09498 
L 164.011336 188.247709 
L 168.861628 192.208238 
L 173.711919 196.633523 
L 178.562211 201.099222 
L 183.412503 204.898097 
L 188.262794 209.464829 
L 193.113086 214.839833 
L 197.963378 219.164084 
L 202.813669 219.265118 
L 207.663961 219.265118 
L 212.514253 219.265118 
L 217.364544 218.921603 
L 222.214836 219.204498 
L 227.065128 218.820569 
L 231.915419 219.265118 
L 236.765711 218.739742 
L 241.616003 219.265118 
L 246.466294 219.204498 
L 251.316586 218.578088 
L 256.166878 219.164084 
L 261.017169 219.265118 
L 265.867461 218.699328 
L 270.717753 218.840776 
L 275.568044 219.265118 
L 280.418336 219.265118 
L 285.268628 218.901396 
L 290.118919 219.265118 
L 294.969211 219.244911 
L 299.819503 219.265118 
L 304.669794 218.719535 
L 309.520086 218.517467 
L 314.370378 218.699328 
L 319.220669 219.06305 
L 324.070961 219.265118 
L 328.921253 219.265118 
L 333.771544 219.265118 
L 338.621836 219.164084 
" clip-path="url(#p2f481dc474)" style="fill: none; stroke: #4f7c6a; stroke-width: 1.5; stroke-linecap: square"/>
   </g>
   <g id="patch_3">
    <path d="M 47.604336 229.363457 
L 47.604336 7.2 
" style="fill: none; stroke: #000000; stroke-width: 1.5; stroke-linejoin: miter; stroke-linecap: square"/>
   </g>
   <g id="patch_4">
    <path d="M 47.604336 229.363457 
L 338.621836 229.363457 
" style="fill: none; stroke: #000000; stroke-width: 1.5; stroke-linejoin: miter; stroke-linecap: square"/>
   </g>
   <g id="text_16">
    <g id="patch_5">
     <path d="M 225.825961 220.655284 
L 324.070961 220.655284 
Q 326.470961 220.655284 326.470961 218.255284 
L 326.470961 200.840909 
Q 326.470961 198.440909 324.070961 198.440909 
L 225.825961 198.440909 
Q 223.425961 198.440909 223.425961 200.840909 
L 223.425961 218.255284 
Q 223.425961 220.655284 225.825961 220.655284 
z
" style="fill: #ffffff; opacity: 0.8; stroke: #9e9e9e; stroke-linejoin: miter"/>
    </g>
    <text style="font-size: 8px; font-family: 'Arial', 'Helvetica', 'Liberation Sans', 'DejaVu Sans', sans-serif" transform="translate(225.825961 207.264737)">Compression (ASTM C773)</text>
    <text style="font-size: 8px; font-family: 'Arial', 'Helvetica', 'Liberation Sans', 'DejaVu Sans', sans-serif" transform="translate(242.263461 215.971925)">Brittle fracture, no yield</text>
   </g>
   <g id="legend_1">
    <g id="line2d_17">
     <path d="M 54.804336 17.68 
L 62.804336 17.68 
L 70.804336 17.68 
" style="fill: none; stroke: #4b6f8a; stroke-width: 1.5; stroke-linecap: square"/>
    </g>
    <g id="text_17">
     <!-- $\mathrm{Al_2O_3}$ (E=380 GPa) -->
     <g transform="translate(77.204336 20.48)">
      <text>
       <tspan x="0" y="-0.921875" style="font-size: 8px; font-family: 'DejaVu Sans'">A</tspan>
       <tspan x="5.472656" y="-0.921875" style="font-size: 8px; font-family: 'DejaVu Sans'">l</tspan>
       <tspan x="11.553516" y="-0.921875" style="font-size: 8px; font-family: 'DejaVu Sans'">O</tspan>
       <tspan x="7.771875" y="0.278121" style="font-size: 5.6px; font-family: 'DejaVu Sans'">2</tspan>
       <tspan x="17.926953" y="0.278121" style="font-size: 5.6px; font-family: 'DejaVu Sans'">3</tspan>
       <tspan x="21.708594" y="-0.921875" style="font-size: 8px; font-family: 'Arial'"> </tspan>
       <tspan x="23.93125" y="-0.921875" style="font-size: 8px; font-family: 'Arial'">(</tspan>
       <tspan x="26.595312" y="-0.921875" style="font-size: 8px; font-family: 'Arial'">E</tspan>
       <tspan x="31.93125" y="-0.921875" style="font-size: 8px; font-family: 'Arial'">=</tspan>
       <tspan x="36.603125" y="-0.921875" style="font-size: 8px; font-family: 'Arial'">3</tspan>
       <tspan x="41.052344" y="-0.921875" style="font-size: 8px; font-family: 'Arial'">8</tspan>
       <tspan x="45.501562" y="-0.921875" style="font-size: 8px; font-family: 'Arial'">0</tspan>
       <tspan x="49.950781" y="-0.921875" style="font-size: 8px; font-family: 'Arial'"> </tspan>
       <tspan x="52.173437" y="-0.921875" style="font-size: 8px; font-family: 'Arial'">G</tspan>
       <tspan x="58.396094" y="-0.921875" style="font-size: 8px; font-family: 'Arial'">P</tspan>
       <tspan x="63.732031" y="-0.921875" style="font-size: 8px; font-family: 'Arial'">a</tspan>
       <tspan x="68.18125" y="-0.921875" style="font-size: 8px; font-family: 'Arial'">)</tspan>
      </text>
     </g>
    </g>
    <g id="line2d_18">
     <path d="M 54.804336 29.264219 
L 62.804336 29.264219 
L 70.804336 29.264219 
" style="fill: none; stroke: #c47b45; stroke-width: 1.5; stroke-linecap: square"/>
    </g>
    <g id="text_18">
     <text style="font-size: 8px; font-family: 'Arial', 'Helvetica', 'Liberation Sans', 'DejaVu Sans', sans-serif; text-anchor: start" x="77.204336" y="32.064219" transform="rotate(-0 77.204336 32.064219)">3Y-TZP (E=210 GPa)</text>
    </g>
    <g id="line2d_19">
     <path d="M 54.804336 40.772187 
L 62.804336 40.772187 
L 70.804336 40.772187 
" style="fill: none; stroke: #4f7c6a; stroke-width: 1.5; stroke-linecap: square"/>
    </g>
    <g id="text_19">
     <text style="font-size: 8px; font-family: 'Arial', 'Helvetica', 'Liberation Sans', 'DejaVu Sans', sans-serif; text-anchor: start" x="77.204336" y="43.572187" transform="rotate(-0 77.204336 43.572187)">SiC (E=410 GPa)</text>
    </g>
   </g>
  </g>
 </g>
 <defs>
  <clipPath id="p2f481dc474">
   <rect x="47.604336" y="7.2" width="291.0175" height="222.163457"/>
  </clipPath>
 </defs>
</svg>
