<?xml version="1.0" encoding="utf-8" standalone="no"?>
<!DOCTYPE svg PUBLIC "-//W3C//DTD SVG 1.1//EN"
  "http://www.w3.org/Graphics/SVG/1.1/DTD/svg11.dtd">
<svg xmlns:xlink="http://www.w3.org/1999/xlink" width="352.674375pt" height="244.096934pt" viewBox="0 0 352.674375 244.096934" xmlns="http://www.w3.org/2000/svg" version="1.1">
 <metadata>
  <rdf:RDF xmlns:dc="http://purl.org/dc/elements/1.1/" xmlns:cc="http://creativecommons.org/ns#" xmlns:rdf="http://www.w3.org/1999/02/22-rdf-syntax-ns#">
   <cc:Work>
    <dc:type rdf:resource="http://purl.org/dc/dcmitype/StillImage"/>
    <dc:date>2026-06-19T17:16:23.218578</dc:date>
    <dc:format>image/svg+xml</dc:format>
    <dc:creator>
     <cc:Agent>
      <dc:title>Matplotlib v3.11.0, https://matplotlib.org/</dc:title>
     </cc:Agent>
    </dc:creator>
   </cc:Work>
  </rdf:RDF>
 </metadata>
 <defs>
  <style type="text/css">*{stroke-linejoin: round; stroke-linecap: butt}</style>
 </defs>
 <g id="figure_1">
  <g id="patch_1">
   <path d="M 0 244.096934 
L 352.674375 244.096934 
L 352.674375 0 
L 0 0 
z
" style="fill: #ffffff"/>
  </g>
  <g id="axes_1">
   <g id="patch_2">
    <path d="M 37.594648 208.065684 
L 345.474375 208.065684 
L 345.474375 7.2 
L 37.594648 7.2 
z
" style="fill: #ffffff"/>
   </g>
   <g id="patch_3">
    <path d="M 51.589181 208.065684 
L 56.152616 208.065684 
L 56.152616 208.065684 
L 51.589181 208.065684 
z
" clip-path="url(#p46313ca587)" style="fill: #4b6f8a; opacity: 0.85"/>
   </g>
   <g id="patch_4">
    <path d="M 53.110326 208.065684 
L 57.673761 208.065684 
L 57.673761 208.065684 
L 53.110326 208.065684 
z
" clip-path="url(#p46313ca587)" style="fill: #4b6f8a; opacity: 0.85"/>
   </g>
   <g id="patch_5">
    <path d="M 54.327242 208.065684 
L 58.890677 208.065684 
L 58.890677 208.065684 
L 54.327242 208.065684 
z
" clip-path="url(#p46313ca587)" style="fill: #4b6f8a; opacity: 0.85"/>
   </g>
   <g id="patch_6">
    <path d="M 55.848387 208.065684 
L 60.411822 208.065684 
L 60.411822 208.065684 
L 55.848387 208.065684 
z
" clip-path="url(#p46313ca587)" style="fill: #4b6f8a; opacity: 0.85"/>
   </g>
   <g id="patch_7">
    <path d="M 57.065303 208.065684 
L 61.628738 208.065684 
L 61.628738 208.065684 
L 57.065303 208.065684 
z
" clip-path="url(#p46313ca587)" style="fill: #4b6f8a; opacity: 0.85"/>
   </g>
   <g id="patch_8">
    <path d="M 58.586448 208.065684 
L 63.149883 208.065684 
L 63.149883 208.065684 
L 58.586448 208.065684 
z
" clip-path="url(#p46313ca587)" style="fill: #4b6f8a; opacity: 0.85"/>
   </g>
   <g id="patch_9">
    <path d="M 60.107593 208.065684 
L 64.671028 208.065684 
L 64.671028 208.065684 
L 60.107593 208.065684 
z
" clip-path="url(#p46313ca587)" style="fill: #4b6f8a; opacity: 0.85"/>
   </g>
   <g id="patch_10">
    <path d="M 61.324509 208.065684 
L 65.887943 208.065684 
L 65.887943 208.065684 
L 61.324509 208.065684 
z
" clip-path="url(#p46313ca587)" style="fill: #4b6f8a; opacity: 0.85"/>
   </g>
   <g id="patch_11">
    <path d="M 62.845654 208.065684 
L 67.409088 208.065684 
L 67.409088 208.065684 
L 62.845654 208.065684 
z
" clip-path="url(#p46313ca587)" style="fill: #4b6f8a; opacity: 0.85"/>
   </g>
   <g id="patch_12">
    <path d="M 63.758341 208.065684 
L 68.321775 208.065684 
L 68.321775 200.563697 
L 63.758341 200.563697 
z
" clip-path="url(#p46313ca587)" style="fill: #4b6f8a; opacity: 0.85"/>
   </g>
   <g id="patch_13">
    <path d="M 64.06257 208.065684 
L 68.626004 208.065684 
L 68.626004 208.065684 
L 64.06257 208.065684 
z
" clip-path="url(#p46313ca587)" style="fill: #4b6f8a; opacity: 0.85"/>
   </g>
   <g id="patch_14">
    <path d="M 65.583714 208.065684 
L 70.147149 208.065684 
L 70.147149 208.065684 
L 65.583714 208.065684 
z
" clip-path="url(#p46313ca587)" style="fill: #4b6f8a; opacity: 0.85"/>
   </g>
   <g id="patch_15">
    <path d="M 66.80063 208.065684 
L 71.364065 208.065684 
L 71.364065 208.065684 
L 66.80063 208.065684 
z
" clip-path="url(#p46313ca587)" style="fill: #4b6f8a; opacity: 0.85"/>
   </g>
   <g id="patch_16">
    <path d="M 68.321775 208.065684 
L 72.88521 208.065684 
L 72.88521 208.065684 
L 68.321775 208.065684 
z
" clip-path="url(#p46313ca587)" style="fill: #4b6f8a; opacity: 0.85"/>
   </g>
   <g id="patch_17">
    <path d="M 69.84292 208.065684 
L 74.406355 208.065684 
L 74.406355 208.065684 
L 69.84292 208.065684 
z
" clip-path="url(#p46313ca587)" style="fill: #4b6f8a; opacity: 0.85"/>
   </g>
   <g id="patch_18">
    <path d="M 71.059836 208.065684 
L 75.623271 208.065684 
L 75.623271 208.065684 
L 71.059836 208.065684 
z
" clip-path="url(#p46313ca587)" style="fill: #4b6f8a; opacity: 0.85"/>
   </g>
   <g id="patch_19">
    <path d="M 71.364065 208.065684 
L 75.9275 208.065684 
L 75.9275 204.31469 
L 71.364065 204.31469 
z
" clip-path="url(#p46313ca587)" style="fill: #4b6f8a; opacity: 0.85"/>
   </g>
   <g id="patch_20">
    <path d="M 72.580981 208.065684 
L 77.144416 208.065684 
L 77.144416 208.065684 
L 72.580981 208.065684 
z
" clip-path="url(#p46313ca587)" style="fill: #4b6f8a; opacity: 0.85"/>
   </g>
   <g id="patch_21">
    <path d="M 73.797897 208.065684 
L 78.361332 208.065684 
L 78.361332 208.065684 
L 73.797897 208.065684 
z
" clip-path="url(#p46313ca587)" style="fill: #4b6f8a; opacity: 0.85"/>
   </g>
   <g id="patch_22">
    <path d="M 75.319042 208.065684 
L 79.882476 208.065684 
L 79.882476 208.065684 
L 75.319042 208.065684 
z
" clip-path="url(#p46313ca587)" style="fill: #4b6f8a; opacity: 0.85"/>
   </g>
   <g id="patch_23">
    <path d="M 76.535958 208.065684 
L 81.099392 208.065684 
L 81.099392 208.065684 
L 76.535958 208.065684 
z
" clip-path="url(#p46313ca587)" style="fill: #4b6f8a; opacity: 0.85"/>
   </g>
   <g id="patch_24">
    <path d="M 78.057103 208.065684 
L 82.620537 208.065684 
L 82.620537 208.065684 
L 78.057103 208.065684 
z
" clip-path="url(#p46313ca587)" style="fill: #4b6f8a; opacity: 0.85"/>
   </g>
   <g id="patch_25">
    <path d="M 78.96979 208.065684 
L 83.533224 208.065684 
L 83.533224 181.808731 
L 78.96979 181.808731 
z
" clip-path="url(#p46313ca587)" style="fill: #4b6f8a; opacity: 0.85"/>
   </g>
   <g id="patch_26">
    <path d="M 79.578248 208.065684 
L 84.141682 208.065684 
L 84.141682 208.065684 
L 79.578248 208.065684 
z
" clip-path="url(#p46313ca587)" style="fill: #4b6f8a; opacity: 0.85"/>
   </g>
   <g id="patch_27">
    <path d="M 80.795163 208.065684 
L 85.358598 208.065684 
L 85.358598 208.065684 
L 80.795163 208.065684 
z
" clip-path="url(#p46313ca587)" style="fill: #4b6f8a; opacity: 0.85"/>
   </g>
   <g id="patch_28">
    <path d="M 82.316308 208.065684 
L 86.879743 208.065684 
L 86.879743 208.065684 
L 82.316308 208.065684 
z
" clip-path="url(#p46313ca587)" style="fill: #4b6f8a; opacity: 0.85"/>
   </g>
   <g id="patch_29">
    <path d="M 83.533224 208.065684 
L 88.096659 208.065684 
L 88.096659 208.065684 
L 83.533224 208.065684 
z
" clip-path="url(#p46313ca587)" style="fill: #4b6f8a; opacity: 0.85"/>
   </g>
   <g id="patch_30">
    <path d="M 85.054369 208.065684 
L 89.617804 208.065684 
L 89.617804 208.065684 
L 85.054369 208.065684 
z
" clip-path="url(#p46313ca587)" style="fill: #4b6f8a; opacity: 0.85"/>
   </g>
   <g id="patch_31">
    <path d="M 86.575514 208.065684 
L 91.138949 208.065684 
L 91.138949 144.2988 
L 86.575514 144.2988 
z
" clip-path="url(#p46313ca587)" style="fill: #4b6f8a; opacity: 0.85"/>
   </g>
   <g id="patch_32">
    <path d="M 94.181238 208.065684 
L 98.744673 208.065684 
L 98.744673 106.788868 
L 94.181238 106.788868 
z
" clip-path="url(#p46313ca587)" style="fill: #4b6f8a; opacity: 0.85"/>
   </g>
   <g id="patch_33">
    <path d="M 101.786963 208.065684 
L 106.350398 208.065684 
L 106.350398 80.531916 
L 101.786963 80.531916 
z
" clip-path="url(#p46313ca587)" style="fill: #4b6f8a; opacity: 0.85"/>
   </g>
   <g id="patch_34">
    <path d="M 109.392687 208.065684 
L 113.956122 208.065684 
L 113.956122 54.274964 
L 109.392687 54.274964 
z
" clip-path="url(#p46313ca587)" style="fill: #4b6f8a; opacity: 0.85"/>
   </g>
   <g id="patch_35">
    <path d="M 116.998412 208.065684 
L 121.561847 208.065684 
L 121.561847 39.270991 
L 116.998412 39.270991 
z
" clip-path="url(#p46313ca587)" style="fill: #4b6f8a; opacity: 0.85"/>
   </g>
   <g id="patch_36">
    <path d="M 124.604136 208.065684 
L 129.167571 208.065684 
L 129.167571 43.021985 
L 124.604136 43.021985 
z
" clip-path="url(#p46313ca587)" style="fill: #4b6f8a; opacity: 0.85"/>
   </g>
   <g id="patch_37">
    <path d="M 132.209861 208.065684 
L 136.773296 208.065684 
L 136.773296 43.021985 
L 132.209861 43.021985 
z
" clip-path="url(#p46313ca587)" style="fill: #4b6f8a; opacity: 0.85"/>
   </g>
   <g id="patch_38">
    <path d="M 139.815585 208.065684 
L 144.37902 208.065684 
L 144.37902 50.523971 
L 139.815585 50.523971 
z
" clip-path="url(#p46313ca587)" style="fill: #4b6f8a; opacity: 0.85"/>
   </g>
   <g id="patch_39">
    <path d="M 147.42131 208.065684 
L 151.984744 208.065684 
L 151.984744 69.278937 
L 147.42131 69.278937 
z
" clip-path="url(#p46313ca587)" style="fill: #4b6f8a; opacity: 0.85"/>
   </g>
   <g id="patch_40">
    <path d="M 155.027034 208.065684 
L 159.590469 208.065684 
L 159.590469 84.282909 
L 155.027034 84.282909 
z
" clip-path="url(#p46313ca587)" style="fill: #4b6f8a; opacity: 0.85"/>
   </g>
   <g id="patch_41">
    <path d="M 162.632759 208.065684 
L 167.196193 208.065684 
L 167.196193 103.037875 
L 162.632759 103.037875 
z
" clip-path="url(#p46313ca587)" style="fill: #4b6f8a; opacity: 0.85"/>
   </g>
   <g id="patch_42">
    <path d="M 170.238483 208.065684 
L 174.801918 208.065684 
L 174.801918 125.543834 
L 170.238483 125.543834 
z
" clip-path="url(#p46313ca587)" style="fill: #4b6f8a; opacity: 0.85"/>
   </g>
   <g id="patch_43">
    <path d="M 177.844208 208.065684 
L 182.407642 208.065684 
L 182.407642 125.543834 
L 177.844208 125.543834 
z
" clip-path="url(#p46313ca587)" style="fill: #4b6f8a; opacity: 0.85"/>
   </g>
   <g id="patch_44">
    <path d="M 185.449932 208.065684 
L 190.013367 208.065684 
L 190.013367 140.547807 
L 185.449932 140.547807 
z
" clip-path="url(#p46313ca587)" style="fill: #4b6f8a; opacity: 0.85"/>
   </g>
   <g id="patch_45">
    <path d="M 193.055657 208.065684 
L 197.619091 208.065684 
L 197.619091 151.800786 
L 193.055657 151.800786 
z
" clip-path="url(#p46313ca587)" style="fill: #4b6f8a; opacity: 0.85"/>
   </g>
   <g id="patch_46">
    <path d="M 200.661381 208.065684 
L 205.224816 208.065684 
L 205.224816 163.053766 
L 200.661381 163.053766 
z
" clip-path="url(#p46313ca587)" style="fill: #4b6f8a; opacity: 0.85"/>
   </g>
   <g id="patch_47">
    <path d="M 208.267106 208.065684 
L 212.83054 208.065684 
L 212.83054 163.053766 
L 208.267106 163.053766 
z
" clip-path="url(#p46313ca587)" style="fill: #4b6f8a; opacity: 0.85"/>
   </g>
   <g id="patch_48">
    <path d="M 215.87283 208.065684 
L 220.436265 208.065684 
L 220.436265 170.555752 
L 215.87283 170.555752 
z
" clip-path="url(#p46313ca587)" style="fill: #4b6f8a; opacity: 0.85"/>
   </g>
   <g id="patch_49">
    <path d="M 223.478554 208.065684 
L 228.041989 208.065684 
L 228.041989 178.057738 
L 223.478554 178.057738 
z
" clip-path="url(#p46313ca587)" style="fill: #4b6f8a; opacity: 0.85"/>
   </g>
   <g id="patch_50">
    <path d="M 231.084279 208.065684 
L 235.647714 208.065684 
L 235.647714 189.310718 
L 231.084279 189.310718 
z
" clip-path="url(#p46313ca587)" style="fill: #4b6f8a; opacity: 0.85"/>
   </g>
   <g id="patch_51">
    <path d="M 238.690003 208.065684 
L 243.253438 208.065684 
L 243.253438 189.310718 
L 238.690003 189.310718 
z
" clip-path="url(#p46313ca587)" style="fill: #4b6f8a; opacity: 0.85"/>
   </g>
   <g id="patch_52">
    <path d="M 246.295728 208.065684 
L 250.859163 208.065684 
L 250.859163 193.061711 
L 246.295728 193.061711 
z
" clip-path="url(#p46313ca587)" style="fill: #4b6f8a; opacity: 0.85"/>
   </g>
   <g id="patch_53">
    <path d="M 253.901452 208.065684 
L 258.464887 208.065684 
L 258.464887 196.812704 
L 253.901452 196.812704 
z
" clip-path="url(#p46313ca587)" style="fill: #4b6f8a; opacity: 0.85"/>
   </g>
   <g id="patch_54">
    <path d="M 261.507177 208.065684 
L 266.070612 208.065684 
L 266.070612 196.812704 
L 261.507177 196.812704 
z
" clip-path="url(#p46313ca587)" style="fill: #4b6f8a; opacity: 0.85"/>
   </g>
   <g id="patch_55">
    <path d="M 269.112901 208.065684 
L 273.676336 208.065684 
L 273.676336 200.563697 
L 269.112901 200.563697 
z
" clip-path="url(#p46313ca587)" style="fill: #4b6f8a; opacity: 0.85"/>
   </g>
   <g id="patch_56">
    <path d="M 276.718626 208.065684 
L 281.28206 208.065684 
L 281.28206 200.563697 
L 276.718626 200.563697 
z
" clip-path="url(#p46313ca587)" style="fill: #4b6f8a; opacity: 0.85"/>
   </g>
   <g id="patch_57">
    <path d="M 284.32435 208.065684 
L 288.887785 208.065684 
L 288.887785 208.065684 
L 284.32435 208.065684 
z
" clip-path="url(#p46313ca587)" style="fill: #4b6f8a; opacity: 0.85"/>
   </g>
   <g id="patch_58">
    <path d="M 291.930075 208.065684 
L 296.493509 208.065684 
L 296.493509 204.31469 
L 291.930075 204.31469 
z
" clip-path="url(#p46313ca587)" style="fill: #4b6f8a; opacity: 0.85"/>
   </g>
   <g id="patch_59">
    <path d="M 299.535799 208.065684 
L 304.099234 208.065684 
L 304.099234 200.563697 
L 299.535799 200.563697 
z
" clip-path="url(#p46313ca587)" style="fill: #4b6f8a; opacity: 0.85"/>
   </g>
   <g id="patch_60">
    <path d="M 307.141524 208.065684 
L 311.704958 208.065684 
L 311.704958 208.065684 
L 307.141524 208.065684 
z
" clip-path="url(#p46313ca587)" style="fill: #4b6f8a; opacity: 0.85"/>
   </g>
   <g id="patch_61">
    <path d="M 314.747248 208.065684 
L 319.310683 208.065684 
L 319.310683 208.065684 
L 314.747248 208.065684 
z
" clip-path="url(#p46313ca587)" style="fill: #4b6f8a; opacity: 0.85"/>
   </g>
   <g id="patch_62">
    <path d="M 322.352973 208.065684 
L 326.916407 208.065684 
L 326.916407 208.065684 
L 322.352973 208.065684 
z
" clip-path="url(#p46313ca587)" style="fill: #4b6f8a; opacity: 0.85"/>
   </g>
   <g id="patch_63">
    <path d="M 56.152616 208.065684 
L 60.716051 208.065684 
L 60.716051 204.31469 
L 56.152616 204.31469 
z
" clip-path="url(#p46313ca587)" style="fill: #c47b45; opacity: 0.85"/>
   </g>
   <g id="patch_64">
    <path d="M 57.673761 208.065684 
L 62.237196 208.065684 
L 62.237196 193.061711 
L 57.673761 193.061711 
z
" clip-path="url(#p46313ca587)" style="fill: #c47b45; opacity: 0.85"/>
   </g>
   <g id="patch_65">
    <path d="M 58.890677 208.065684 
L 63.454112 208.065684 
L 63.454112 166.804759 
L 58.890677 166.804759 
z
" clip-path="url(#p46313ca587)" style="fill: #c47b45; opacity: 0.85"/>
   </g>
   <g id="patch_66">
    <path d="M 60.411822 208.065684 
L 64.975257 208.065684 
L 64.975257 106.788868 
L 60.411822 106.788868 
z
" clip-path="url(#p46313ca587)" style="fill: #c47b45; opacity: 0.85"/>
   </g>
   <g id="patch_67">
    <path d="M 61.628738 208.065684 
L 66.192172 208.065684 
L 66.192172 65.527944 
L 61.628738 65.527944 
z
" clip-path="url(#p46313ca587)" style="fill: #c47b45; opacity: 0.85"/>
   </g>
   <g id="patch_68">
    <path d="M 63.149883 208.065684 
L 67.713317 208.065684 
L 67.713317 16.765033 
L 63.149883 16.765033 
z
" clip-path="url(#p46313ca587)" style="fill: #c47b45; opacity: 0.85"/>
   </g>
   <g id="patch_69">
    <path d="M 64.671028 208.065684 
L 69.234462 208.065684 
L 69.234462 24.267019 
L 64.671028 24.267019 
z
" clip-path="url(#p46313ca587)" style="fill: #c47b45; opacity: 0.85"/>
   </g>
   <g id="patch_70">
    <path d="M 65.887943 208.065684 
L 70.451378 208.065684 
L 70.451378 43.021985 
L 65.887943 43.021985 
z
" clip-path="url(#p46313ca587)" style="fill: #c47b45; opacity: 0.85"/>
   </g>
   <g id="patch_71">
    <path d="M 67.409088 208.065684 
L 71.972523 208.065684 
L 71.972523 69.278937 
L 67.409088 69.278937 
z
" clip-path="url(#p46313ca587)" style="fill: #c47b45; opacity: 0.85"/>
   </g>
   <g id="patch_72">
    <path d="M 68.321775 208.065684 
L 72.88521 208.065684 
L 72.88521 208.065684 
L 68.321775 208.065684 
z
" clip-path="url(#p46313ca587)" style="fill: #c47b45; opacity: 0.85"/>
   </g>
   <g id="patch_73">
    <path d="M 68.626004 208.065684 
L 73.189439 208.065684 
L 73.189439 99.286882 
L 68.626004 99.286882 
z
" clip-path="url(#p46313ca587)" style="fill: #c47b45; opacity: 0.85"/>
   </g>
   <g id="patch_74">
    <path d="M 70.147149 208.065684 
L 74.710584 208.065684 
L 74.710584 125.543834 
L 70.147149 125.543834 
z
" clip-path="url(#p46313ca587)" style="fill: #c47b45; opacity: 0.85"/>
   </g>
   <g id="patch_75">
    <path d="M 71.364065 208.065684 
L 75.9275 208.065684 
L 75.9275 148.049793 
L 71.364065 148.049793 
z
" clip-path="url(#p46313ca587)" style="fill: #c47b45; opacity: 0.85"/>
   </g>
   <g id="patch_76">
    <path d="M 72.88521 208.065684 
L 77.448645 208.065684 
L 77.448645 166.804759 
L 72.88521 166.804759 
z
" clip-path="url(#p46313ca587)" style="fill: #c47b45; opacity: 0.85"/>
   </g>
   <g id="patch_77">
    <path d="M 74.406355 208.065684 
L 78.96979 208.065684 
L 78.96979 178.057738 
L 74.406355 178.057738 
z
" clip-path="url(#p46313ca587)" style="fill: #c47b45; opacity: 0.85"/>
   </g>
   <g id="patch_78">
    <path d="M 75.623271 208.065684 
L 80.186705 208.065684 
L 80.186705 189.310718 
L 75.623271 189.310718 
z
" clip-path="url(#p46313ca587)" style="fill: #c47b45; opacity: 0.85"/>
   </g>
   <g id="patch_79">
    <path d="M 75.9275 208.065684 
L 80.490934 208.065684 
L 80.490934 208.065684 
L 75.9275 208.065684 
z
" clip-path="url(#p46313ca587)" style="fill: #c47b45; opacity: 0.85"/>
   </g>
   <g id="patch_80">
    <path d="M 77.144416 208.065684 
L 81.70785 208.065684 
L 81.70785 189.310718 
L 77.144416 189.310718 
z
" clip-path="url(#p46313ca587)" style="fill: #c47b45; opacity: 0.85"/>
   </g>
   <g id="patch_81">
    <path d="M 78.361332 208.065684 
L 82.924766 208.065684 
L 82.924766 200.563697 
L 78.361332 200.563697 
z
" clip-path="url(#p46313ca587)" style="fill: #c47b45; opacity: 0.85"/>
   </g>
   <g id="patch_82">
    <path d="M 79.882476 208.065684 
L 84.445911 208.065684 
L 84.445911 193.061711 
L 79.882476 193.061711 
z
" clip-path="url(#p46313ca587)" style="fill: #c47b45; opacity: 0.85"/>
   </g>
   <g id="patch_83">
    <path d="M 81.099392 208.065684 
L 85.662827 208.065684 
L 85.662827 200.563697 
L 81.099392 200.563697 
z
" clip-path="url(#p46313ca587)" style="fill: #c47b45; opacity: 0.85"/>
   </g>
   <g id="patch_84">
    <path d="M 82.620537 208.065684 
L 87.183972 208.065684 
L 87.183972 208.065684 
L 82.620537 208.065684 
z
" clip-path="url(#p46313ca587)" style="fill: #c47b45; opacity: 0.85"/>
   </g>
   <g id="patch_85">
    <path d="M 83.533224 208.065684 
L 88.096659 208.065684 
L 88.096659 208.065684 
L 83.533224 208.065684 
z
" clip-path="url(#p46313ca587)" style="fill: #c47b45; opacity: 0.85"/>
   </g>
   <g id="patch_86">
    <path d="M 84.141682 208.065684 
L 88.705117 208.065684 
L 88.705117 208.065684 
L 84.141682 208.065684 
z
" clip-path="url(#p46313ca587)" style="fill: #c47b45; opacity: 0.85"/>
   </g>
   <g id="patch_87">
    <path d="M 85.358598 208.065684 
L 89.922033 208.065684 
L 89.922033 204.31469 
L 85.358598 204.31469 
z
" clip-path="url(#p46313ca587)" style="fill: #c47b45; opacity: 0.85"/>
   </g>
   <g id="patch_88">
    <path d="M 86.879743 208.065684 
L 91.443178 208.065684 
L 91.443178 204.31469 
L 86.879743 204.31469 
z
" clip-path="url(#p46313ca587)" style="fill: #c47b45; opacity: 0.85"/>
   </g>
   <g id="patch_89">
    <path d="M 88.096659 208.065684 
L 92.660094 208.065684 
L 92.660094 208.065684 
L 88.096659 208.065684 
z
" clip-path="url(#p46313ca587)" style="fill: #c47b45; opacity: 0.85"/>
   </g>
   <g id="patch_90">
    <path d="M 89.617804 208.065684 
L 94.181238 208.065684 
L 94.181238 208.065684 
L 89.617804 208.065684 
z
" clip-path="url(#p46313ca587)" style="fill: #c47b45; opacity: 0.85"/>
   </g>
   <g id="patch_91">
    <path d="M 91.138949 208.065684 
L 95.702383 208.065684 
L 95.702383 208.065684 
L 91.138949 208.065684 
z
" clip-path="url(#p46313ca587)" style="fill: #c47b45; opacity: 0.85"/>
   </g>
   <g id="patch_92">
    <path d="M 98.744673 208.065684 
L 103.308108 208.065684 
L 103.308108 208.065684 
L 98.744673 208.065684 
z
" clip-path="url(#p46313ca587)" style="fill: #c47b45; opacity: 0.85"/>
   </g>
   <g id="patch_93">
    <path d="M 106.350398 208.065684 
L 110.913832 208.065684 
L 110.913832 208.065684 
L 106.350398 208.065684 
z
" clip-path="url(#p46313ca587)" style="fill: #c47b45; opacity: 0.85"/>
   </g>
   <g id="patch_94">
    <path d="M 113.956122 208.065684 
L 118.519557 208.065684 
L 118.519557 208.065684 
L 113.956122 208.065684 
z
" clip-path="url(#p46313ca587)" style="fill: #c47b45; opacity: 0.85"/>
   </g>
   <g id="patch_95">
    <path d="M 121.561847 208.065684 
L 126.125281 208.065684 
L 126.125281 208.065684 
L 121.561847 208.065684 
z
" clip-path="url(#p46313ca587)" style="fill: #c47b45; opacity: 0.85"/>
   </g>
   <g id="patch_96">
    <path d="M 129.167571 208.065684 
L 133.731006 208.065684 
L 133.731006 208.065684 
L 129.167571 208.065684 
z
" clip-path="url(#p46313ca587)" style="fill: #c47b45; opacity: 0.85"/>
   </g>
   <g id="patch_97">
    <path d="M 136.773296 208.065684 
L 141.33673 208.065684 
L 141.33673 208.065684 
L 136.773296 208.065684 
z
" clip-path="url(#p46313ca587)" style="fill: #c47b45; opacity: 0.85"/>
   </g>
   <g id="patch_98">
    <path d="M 144.37902 208.065684 
L 148.942455 208.065684 
L 148.942455 208.065684 
L 144.37902 208.065684 
z
" clip-path="url(#p46313ca587)" style="fill: #c47b45; opacity: 0.85"/>
   </g>
   <g id="patch_99">
    <path d="M 151.984744 208.065684 
L 156.548179 208.065684 
L 156.548179 208.065684 
L 151.984744 208.065684 
z
" clip-path="url(#p46313ca587)" style="fill: #c47b45; opacity: 0.85"/>
   </g>
   <g id="patch_100">
    <path d="M 159.590469 208.065684 
L 164.153904 208.065684 
L 164.153904 208.065684 
L 159.590469 208.065684 
z
" clip-path="url(#p46313ca587)" style="fill: #c47b45; opacity: 0.85"/>
   </g>
   <g id="patch_101">
    <path d="M 167.196193 208.065684 
L 171.759628 208.065684 
L 171.759628 208.065684 
L 167.196193 208.065684 
z
" clip-path="url(#p46313ca587)" style="fill: #c47b45; opacity: 0.85"/>
   </g>
   <g id="patch_102">
    <path d="M 174.801918 208.065684 
L 179.365353 208.065684 
L 179.365353 208.065684 
L 174.801918 208.065684 
z
" clip-path="url(#p46313ca587)" style="fill: #c47b45; opacity: 0.85"/>
   </g>
   <g id="patch_103">
    <path d="M 182.407642 208.065684 
L 186.971077 208.065684 
L 186.971077 208.065684 
L 182.407642 208.065684 
z
" clip-path="url(#p46313ca587)" style="fill: #c47b45; opacity: 0.85"/>
   </g>
   <g id="patch_104">
    <path d="M 190.013367 208.065684 
L 194.576802 208.065684 
L 194.576802 208.065684 
L 190.013367 208.065684 
z
" clip-path="url(#p46313ca587)" style="fill: #c47b45; opacity: 0.85"/>
   </g>
   <g id="patch_105">
    <path d="M 197.619091 208.065684 
L 202.182526 208.065684 
L 202.182526 208.065684 
L 197.619091 208.065684 
z
" clip-path="url(#p46313ca587)" style="fill: #c47b45; opacity: 0.85"/>
   </g>
   <g id="patch_106">
    <path d="M 205.224816 208.065684 
L 209.78825 208.065684 
L 209.78825 208.065684 
L 205.224816 208.065684 
z
" clip-path="url(#p46313ca587)" style="fill: #c47b45; opacity: 0.85"/>
   </g>
   <g id="patch_107">
    <path d="M 212.83054 208.065684 
L 217.393975 208.065684 
L 217.393975 208.065684 
L 212.83054 208.065684 
z
" clip-path="url(#p46313ca587)" style="fill: #c47b45; opacity: 0.85"/>
   </g>
   <g id="patch_108">
    <path d="M 220.436265 208.065684 
L 224.999699 208.065684 
L 224.999699 208.065684 
L 220.436265 208.065684 
z
" clip-path="url(#p46313ca587)" style="fill: #c47b45; opacity: 0.85"/>
   </g>
   <g id="patch_109">
    <path d="M 228.041989 208.065684 
L 232.605424 208.065684 
L 232.605424 208.065684 
L 228.041989 208.065684 
z
" clip-path="url(#p46313ca587)" style="fill: #c47b45; opacity: 0.85"/>
   </g>
   <g id="patch_110">
    <path d="M 235.647714 208.065684 
L 240.211148 208.065684 
L 240.211148 208.065684 
L 235.647714 208.065684 
z
" clip-path="url(#p46313ca587)" style="fill: #c47b45; opacity: 0.85"/>
   </g>
   <g id="patch_111">
    <path d="M 243.253438 208.065684 
L 247.816873 208.065684 
L 247.816873 208.065684 
L 243.253438 208.065684 
z
" clip-path="url(#p46313ca587)" style="fill: #c47b45; opacity: 0.85"/>
   </g>
   <g id="patch_112">
    <path d="M 250.859163 208.065684 
L 255.422597 208.065684 
L 255.422597 208.065684 
L 250.859163 208.065684 
z
" clip-path="url(#p46313ca587)" style="fill: #c47b45; opacity: 0.85"/>
   </g>
   <g id="patch_113">
    <path d="M 258.464887 208.065684 
L 263.028322 208.065684 
L 263.028322 208.065684 
L 258.464887 208.065684 
z
" clip-path="url(#p46313ca587)" style="fill: #c47b45; opacity: 0.85"/>
   </g>
   <g id="patch_114">
    <path d="M 266.070612 208.065684 
L 270.634046 208.065684 
L 270.634046 208.065684 
L 266.070612 208.065684 
z
" clip-path="url(#p46313ca587)" style="fill: #c47b45; opacity: 0.85"/>
   </g>
   <g id="patch_115">
    <path d="M 273.676336 208.065684 
L 278.239771 208.065684 
L 278.239771 208.065684 
L 273.676336 208.065684 
z
" clip-path="url(#p46313ca587)" style="fill: #c47b45; opacity: 0.85"/>
   </g>
   <g id="patch_116">
    <path d="M 281.28206 208.065684 
L 285.845495 208.065684 
L 285.845495 208.065684 
L 281.28206 208.065684 
z
" clip-path="url(#p46313ca587)" style="fill: #c47b45; opacity: 0.85"/>
   </g>
   <g id="patch_117">
    <path d="M 288.887785 208.065684 
L 293.45122 208.065684 
L 293.45122 208.065684 
L 288.887785 208.065684 
z
" clip-path="url(#p46313ca587)" style="fill: #c47b45; opacity: 0.85"/>
   </g>
   <g id="patch_118">
    <path d="M 296.493509 208.065684 
L 301.056944 208.065684 
L 301.056944 208.065684 
L 296.493509 208.065684 
z
" clip-path="url(#p46313ca587)" style="fill: #c47b45; opacity: 0.85"/>
   </g>
   <g id="patch_119">
    <path d="M 304.099234 208.065684 
L 308.662669 208.065684 
L 308.662669 208.065684 
L 304.099234 208.065684 
z
" clip-path="url(#p46313ca587)" style="fill: #c47b45; opacity: 0.85"/>
   </g>
   <g id="patch_120">
    <path d="M 311.704958 208.065684 
L 316.268393 208.065684 
L 316.268393 208.065684 
L 311.704958 208.065684 
z
" clip-path="url(#p46313ca587)" style="fill: #c47b45; opacity: 0.85"/>
   </g>
   <g id="patch_121">
    <path d="M 319.310683 208.065684 
L 323.874118 208.065684 
L 323.874118 208.065684 
L 319.310683 208.065684 
z
" clip-path="url(#p46313ca587)" style="fill: #c47b45; opacity: 0.85"/>
   </g>
   <g id="patch_122">
    <path d="M 326.916407 208.065684 
L 331.479842 208.065684 
L 331.479842 208.065684 
L 326.916407 208.065684 
z
" clip-path="url(#p46313ca587)" style="fill: #c47b45; opacity: 0.85"/>
   </g>
   <g id="matplotlib.axis_1">
    <g id="xtick_1">
     <g id="line2d_1">
      <defs>
       <path id="mc8f2256755" d="M 0 0 
L 0 3.5 
" style="stroke: #000000; stroke-width: 1.2"/>
      </defs>
      <g>
       <use xlink:href="#mc8f2256755" x="53.110326" y="208.065684" style="stroke: #000000; stroke-width: 1.2"/>
      </g>
     </g>
     <g id="text_1">
      <text style="font-size: 9px; font-family: 'Arial', 'Helvetica', 'Liberation Sans', 'DejaVu Sans', sans-serif; text-anchor: middle" x="53.110326" y="221.61793" transform="rotate(-0 53.110326 221.61793)">0</text>
     </g>
    </g>
    <g id="xtick_2">
     <g id="line2d_2">
      <g>
       <use xlink:href="#mc8f2256755" x="113.956122" y="208.065684" style="stroke: #000000; stroke-width: 1.2"/>
      </g>
     </g>
     <g id="text_2">
      <text style="font-size: 9px; font-family: 'Arial', 'Helvetica', 'Liberation Sans', 'DejaVu Sans', sans-serif; text-anchor: middle" x="113.956122" y="221.61793" transform="rotate(-0 113.956122 221.61793)">2</text>
     </g>
    </g>
    <g id="xtick_3">
     <g id="line2d_3">
      <g>
       <use xlink:href="#mc8f2256755" x="174.801918" y="208.065684" style="stroke: #000000; stroke-width: 1.2"/>
      </g>
     </g>
     <g id="text_3">
      <text style="font-size: 9px; font-family: 'Arial', 'Helvetica', 'Liberation Sans', 'DejaVu Sans', sans-serif; text-anchor: middle" x="174.801918" y="221.61793" transform="rotate(-0 174.801918 221.61793)">4</text>
     </g>
    </g>
    <g id="xtick_4">
     <g id="line2d_4">
      <g>
       <use xlink:href="#mc8f2256755" x="235.647714" y="208.065684" style="stroke: #000000; stroke-width: 1.2"/>
      </g>
     </g>
     <g id="text_4">
      <text style="font-size: 9px; font-family: 'Arial', 'Helvetica', 'Liberation Sans', 'DejaVu Sans', sans-serif; text-anchor: middle" x="235.647714" y="221.61793" transform="rotate(-0 235.647714 221.61793)">6</text>
     </g>
    </g>
    <g id="xtick_5">
     <g id="line2d_5">
      <g>
       <use xlink:href="#mc8f2256755" x="296.493509" y="208.065684" style="stroke: #000000; stroke-width: 1.2"/>
      </g>
     </g>
     <g id="text_5">
      <text style="font-size: 9px; font-family: 'Arial', 'Helvetica', 'Liberation Sans', 'DejaVu Sans', sans-serif; text-anchor: middle" x="296.493509" y="221.61793" transform="rotate(-0 296.493509 221.61793)">8</text>
     </g>
    </g>
    <g id="text_6">
     <text style="font-size: 10px; font-family: 'Arial', 'Helvetica', 'Liberation Sans', 'DejaVu Sans', sans-serif; text-anchor: middle" x="191.534512" y="234.792246" transform="rotate(-0 191.534512 234.792246)">Grain Size (µm)</text>
    </g>
   </g>
   <g id="matplotlib.axis_2">
    <g id="ytick_1">
     <g id="line2d_6">
      <defs>
       <path id="mdbb8a0a7f5" d="M 0 0 
L -3.5 0 
" style="stroke: #000000; stroke-width: 1.2"/>
      </defs>
      <g>
       <use xlink:href="#mdbb8a0a7f5" x="37.594648" y="208.065684" style="stroke: #000000; stroke-width: 1.2"/>
      </g>
     </g>
     <g id="text_7">
      <text style="font-size: 9px; font-family: 'Arial', 'Helvetica', 'Liberation Sans', 'DejaVu Sans', sans-serif; text-anchor: end" x="30.594648" y="211.341807" transform="rotate(-0 30.594648 211.341807)">0</text>
     </g>
    </g>
    <g id="ytick_2">
     <g id="line2d_7">
      <g>
       <use xlink:href="#mdbb8a0a7f5" x="37.594648" y="170.555752" style="stroke: #000000; stroke-width: 1.2"/>
      </g>
     </g>
     <g id="text_8">
      <text style="font-size: 9px; font-family: 'Arial', 'Helvetica', 'Liberation Sans', 'DejaVu Sans', sans-serif; text-anchor: end" x="30.594648" y="173.831875" transform="rotate(-0 30.594648 173.831875)">10</text>
     </g>
    </g>
    <g id="ytick_3">
     <g id="line2d_8">
      <g>
       <use xlink:href="#mdbb8a0a7f5" x="37.594648" y="133.04582" style="stroke: #000000; stroke-width: 1.2"/>
      </g>
     </g>
     <g id="text_9">
      <text style="font-size: 9px; font-family: 'Arial', 'Helvetica', 'Liberation Sans', 'DejaVu Sans', sans-serif; text-anchor: end" x="30.594648" y="136.321943" transform="rotate(-0 30.594648 136.321943)">20</text>
     </g>
    </g>
    <g id="ytick_4">
     <g id="line2d_9">
      <g>
       <use xlink:href="#mdbb8a0a7f5" x="37.594648" y="95.535889" style="stroke: #000000; stroke-width: 1.2"/>
      </g>
     </g>
     <g id="text_10">
      <text style="font-size: 9px; font-family: 'Arial', 'Helvetica', 'Liberation Sans', 'DejaVu Sans', sans-serif; text-anchor: end" x="30.594648" y="98.812012" transform="rotate(-0 30.594648 98.812012)">30</text>
     </g>
    </g>
    <g id="ytick_5">
     <g id="line2d_10">
      <g>
       <use xlink:href="#mdbb8a0a7f5" x="37.594648" y="58.025957" style="stroke: #000000; stroke-width: 1.2"/>
      </g>
     </g>
     <g id="text_11">
      <text style="font-size: 9px; font-family: 'Arial', 'Helvetica', 'Liberation Sans', 'DejaVu Sans', sans-serif; text-anchor: end" x="30.594648" y="61.30208" transform="rotate(-0 30.594648 61.30208)">40</text>
     </g>
    </g>
    <g id="ytick_6">
     <g id="line2d_11">
      <g>
       <use xlink:href="#mdbb8a0a7f5" x="37.594648" y="20.516026" style="stroke: #000000; stroke-width: 1.2"/>
      </g>
     </g>
     <g id="text_12">
      <text style="font-size: 9px; font-family: 'Arial', 'Helvetica', 'Liberation Sans', 'DejaVu Sans', sans-serif; text-anchor: end" x="30.594648" y="23.792149" transform="rotate(-0 30.594648 23.792149)">50</text>
     </g>
    </g>
    <g id="text_13">
     <text style="font-size: 10px; font-family: 'Arial', 'Helvetica', 'Liberation Sans', 'DejaVu Sans', sans-serif; text-anchor: middle" x="14.480273" y="107.632842" transform="rotate(-90 14.480273 107.632842)">Frequency</text>
    </g>
   </g>
   <g id="patch_123">
    <path d="M 37.594648 208.065684 
L 37.594648 7.2 
" style="fill: none; stroke: #000000; stroke-width: 1.5; stroke-linejoin: miter; stroke-linecap: square"/>
   </g>
   <g id="patch_124">
    <path d="M 37.594648 208.065684 
L 345.474375 208.065684 
" style="fill: none; stroke: #000000; stroke-width: 1.5; stroke-linejoin: miter; stroke-linecap: square"/>
   </g>
   <g id="legend_1">
    <g id="patch_125">
     <path d="M 223.898125 20.48 
L 239.898125 20.48 
L 239.898125 14.88 
L 223.898125 14.88 
z
" style="fill: #4b6f8a; opacity: 0.85"/>
    </g>
    <g id="text_14">
     <!-- $\mathrm{Al_2O_3}$ (median ~3 µm) -->
     <g transform="translate(246.298125 20.48)">
      <text>
       <tspan x="0" y="-0.921875" style="font-size: 8px; font-family: 'DejaVu Sans'">A</tspan>
       <tspan x="5.472656" y="-0.921875" style="font-size: 8px; font-family: 'DejaVu Sans'">l</tspan>
       <tspan x="11.553516" y="-0.921875" style="font-size: 8px; font-family: 'DejaVu Sans'">O</tspan>
       <tspan x="7.771875" y="0.278121" style="font-size: 5.6px; font-family: 'DejaVu Sans'">2</tspan>
       <tspan x="17.926953" y="0.278121" style="font-size: 5.6px; font-family: 'DejaVu Sans'">3</tspan>
       <tspan x="21.708594" y="-0.921875" style="font-size: 8px; font-family: 'Arial'"> </tspan>
       <tspan x="23.93125" y="-0.921875" style="font-size: 8px; font-family: 'Arial'">(</tspan>
       <tspan x="26.595312" y="-0.921875" style="font-size: 8px; font-family: 'Arial'">m</tspan>
       <tspan x="33.259375" y="-0.921875" style="font-size: 8px; font-family: 'Arial'">e</tspan>
       <tspan x="37.708594" y="-0.921875" style="font-size: 8px; font-family: 'Arial'">d</tspan>
       <tspan x="42.157812" y="-0.921875" style="font-size: 8px; font-family: 'Arial'">i</tspan>
       <tspan x="43.935156" y="-0.921875" style="font-size: 8px; font-family: 'Arial'">a</tspan>
       <tspan x="48.384375" y="-0.921875" style="font-size: 8px; font-family: 'Arial'">n</tspan>
       <tspan x="52.833594" y="-0.921875" style="font-size: 8px; font-family: 'Arial'"> </tspan>
       <tspan x="55.05625" y="-0.921875" style="font-size: 8px; font-family: 'Arial'">~</tspan>
       <tspan x="59.728125" y="-0.921875" style="font-size: 8px; font-family: 'Arial'">3</tspan>
       <tspan x="64.177344" y="-0.921875" style="font-size: 8px; font-family: 'Arial'"> </tspan>
       <tspan x="66.4" y="-0.921875" style="font-size: 8px; font-family: 'Arial'">µ</tspan>
       <tspan x="71.009375" y="-0.921875" style="font-size: 8px; font-family: 'Arial'">m</tspan>
       <tspan x="77.673438" y="-0.921875" style="font-size: 8px; font-family: 'Arial'">)</tspan>
      </text>
     </g>
    </g>
    <g id="patch_126">
     <path d="M 223.898125 32.064219 
L 239.898125 32.064219 
L 239.898125 26.464219 
L 223.898125 26.464219 
z
" style="fill: #c47b45; opacity: 0.85"/>
    </g>
    <g id="text_15">
     <text style="font-size: 8px; font-family: 'Arial', 'Helvetica', 'Liberation Sans', 'DejaVu Sans', sans-serif; text-anchor: start" x="246.298125" y="32.064219" transform="rotate(-0 246.298125 32.064219)">3Y-TZP (median ~0.4 µm)</text>
    </g>
   </g>
  </g>
 </g>
 <defs>
  <clipPath id="p46313ca587">
   <rect x="37.594648" y="7.2" width="307.879727" height="200.865684"/>
  </clipPath>
 </defs>
</svg>
