<?xml version="1.0" encoding="utf-8" standalone="no"?>
<!DOCTYPE svg PUBLIC "-//W3C//DTD SVG 1.1//EN"
  "http://www.w3.org/Graphics/SVG/1.1/DTD/svg11.dtd">
<svg xmlns:xlink="http://www.w3.org/1999/xlink" width="387.328242pt" height="264.952201pt" viewBox="0 0 387.328242 264.952201" xmlns="http://www.w3.org/2000/svg" version="1.1">
 <metadata>
  <rdf:RDF xmlns:dc="http://purl.org/dc/elements/1.1/" xmlns:cc="http://creativecommons.org/ns#" xmlns:rdf="http://www.w3.org/1999/02/22-rdf-syntax-ns#">
   <cc:Work>
    <dc:type rdf:resource="http://purl.org/dc/dcmitype/StillImage"/>
    <dc:date>2026-06-19T17:16:23.891313</dc:date>
    <dc:format>image/svg+xml</dc:format>
    <dc:creator>
     <cc:Agent>
      <dc:title>Matplotlib v3.11.0, https://matplotlib.org/</dc:title>
     </cc:Agent>
    </dc:creator>
   </cc:Work>
  </rdf:RDF>
 </metadata>
 <defs>
  <style type="text/css">*{stroke-linejoin: round; stroke-linecap: butt}</style>
 </defs>
 <g id="figure_1">
  <g id="patch_1">
   <path d="M 0 264.952201 
L 387.328242 264.952201 
L 387.328242 0 
L 0 0 
z
" style="fill: #ffffff"/>
  </g>
  <g id="axes_1">
   <g id="patch_2">
    <path d="M 42.599492 228.920951 
L 341.976719 228.920951 
L 341.976719 9.426766 
L 42.599492 9.426766 
z
" style="fill: #ffffff"/>
   </g>
   <g id="matplotlib.axis_1">
    <g id="xtick_1">
     <g id="line2d_1">
      <defs>
       <path id="m3c2afa4238" d="M 0 0 
L 0 3.5 
" style="stroke: #000000; stroke-width: 1.2"/>
      </defs>
      <g>
       <use xlink:href="#m3c2afa4238" x="51.259164" y="228.920951" style="stroke: #000000; stroke-width: 1.2"/>
      </g>
     </g>
     <g id="text_1">
      <text style="font-size: 9px; font-family: 'Arial', 'Helvetica', 'Liberation Sans', 'DejaVu Sans', sans-serif; text-anchor: middle" x="51.259164" y="242.473197" transform="rotate(-0 51.259164 242.473197)">0</text>
     </g>
    </g>
    <g id="xtick_2">
     <g id="line2d_2">
      <g>
       <use xlink:href="#m3c2afa4238" x="90.846235" y="228.920951" style="stroke: #000000; stroke-width: 1.2"/>
      </g>
     </g>
     <g id="text_2">
      <text style="font-size: 9px; font-family: 'Arial', 'Helvetica', 'Liberation Sans', 'DejaVu Sans', sans-serif; text-anchor: middle" x="90.846235" y="242.473197" transform="rotate(-0 90.846235 242.473197)">200</text>
     </g>
    </g>
    <g id="xtick_3">
     <g id="line2d_3">
      <g>
       <use xlink:href="#m3c2afa4238" x="130.433307" y="228.920951" style="stroke: #000000; stroke-width: 1.2"/>
      </g>
     </g>
     <g id="text_3">
      <text style="font-size: 9px; font-family: 'Arial', 'Helvetica', 'Liberation Sans', 'DejaVu Sans', sans-serif; text-anchor: middle" x="130.433307" y="242.473197" transform="rotate(-0 130.433307 242.473197)">400</text>
     </g>
    </g>
    <g id="xtick_4">
     <g id="line2d_4">
      <g>
       <use xlink:href="#m3c2afa4238" x="170.020378" y="228.920951" style="stroke: #000000; stroke-width: 1.2"/>
      </g>
     </g>
     <g id="text_4">
      <text style="font-size: 9px; font-family: 'Arial', 'Helvetica', 'Liberation Sans', 'DejaVu Sans', sans-serif; text-anchor: middle" x="170.020378" y="242.473197" transform="rotate(-0 170.020378 242.473197)">600</text>
     </g>
    </g>
    <g id="xtick_5">
     <g id="line2d_5">
      <g>
       <use xlink:href="#m3c2afa4238" x="209.607449" y="228.920951" style="stroke: #000000; stroke-width: 1.2"/>
      </g>
     </g>
     <g id="text_5">
      <text style="font-size: 9px; font-family: 'Arial', 'Helvetica', 'Liberation Sans', 'DejaVu Sans', sans-serif; text-anchor: middle" x="209.607449" y="242.473197" transform="rotate(-0 209.607449 242.473197)">800</text>
     </g>
    </g>
    <g id="xtick_6">
     <g id="line2d_6">
      <g>
       <use xlink:href="#m3c2afa4238" x="249.19452" y="228.920951" style="stroke: #000000; stroke-width: 1.2"/>
      </g>
     </g>
     <g id="text_6">
      <text style="font-size: 9px; font-family: 'Arial', 'Helvetica', 'Liberation Sans', 'DejaVu Sans', sans-serif; text-anchor: middle" x="249.19452" y="242.473197" transform="rotate(-0 249.19452 242.473197)">1000</text>
     </g>
    </g>
    <g id="xtick_7">
     <g id="line2d_7">
      <g>
       <use xlink:href="#m3c2afa4238" x="288.781592" y="228.920951" style="stroke: #000000; stroke-width: 1.2"/>
      </g>
     </g>
     <g id="text_7">
      <text style="font-size: 9px; font-family: 'Arial', 'Helvetica', 'Liberation Sans', 'DejaVu Sans', sans-serif; text-anchor: middle" x="288.781592" y="242.473197" transform="rotate(-0 288.781592 242.473197)">1200</text>
     </g>
    </g>
    <g id="xtick_8">
     <g id="line2d_8">
      <g>
       <use xlink:href="#m3c2afa4238" x="328.368663" y="228.920951" style="stroke: #000000; stroke-width: 1.2"/>
      </g>
     </g>
     <g id="text_8">
      <text style="font-size: 9px; font-family: 'Arial', 'Helvetica', 'Liberation Sans', 'DejaVu Sans', sans-serif; text-anchor: middle" x="328.368663" y="242.473197" transform="rotate(-0 328.368663 242.473197)">1400</text>
     </g>
    </g>
    <g id="text_9">
     <text style="font-size: 10px; font-family: 'Arial', 'Helvetica', 'Liberation Sans', 'DejaVu Sans', sans-serif; text-anchor: middle" x="192.288105" y="255.647513" transform="rotate(-0 192.288105 255.647513)">Temperature (°C)</text>
    </g>
   </g>
   <g id="matplotlib.axis_2">
    <g id="ytick_1">
     <g id="line2d_9">
      <defs>
       <path id="m8ce96f0d40" d="M 0 0 
L -3.5 0 
" style="stroke: #000000; stroke-width: 1.2"/>
      </defs>
      <g>
       <use xlink:href="#m8ce96f0d40" x="42.599492" y="204.622182" style="stroke: #000000; stroke-width: 1.2"/>
      </g>
     </g>
     <g id="text_10">
      <text style="font-size: 9px; font-family: 'Arial', 'Helvetica', 'Liberation Sans', 'DejaVu Sans', sans-serif; text-anchor: end; fill: #4b6f8a" x="35.599492" y="207.898305" transform="rotate(-0 35.599492 207.898305)">86</text>
     </g>
    </g>
    <g id="ytick_2">
     <g id="line2d_10">
      <g>
       <use xlink:href="#m8ce96f0d40" x="42.599492" y="178.198271" style="stroke: #000000; stroke-width: 1.2"/>
      </g>
     </g>
     <g id="text_11">
      <text style="font-size: 9px; font-family: 'Arial', 'Helvetica', 'Liberation Sans', 'DejaVu Sans', sans-serif; text-anchor: end; fill: #4b6f8a" x="35.599492" y="181.474394" transform="rotate(-0 35.599492 181.474394)">88</text>
     </g>
    </g>
    <g id="ytick_3">
     <g id="line2d_11">
      <g>
       <use xlink:href="#m8ce96f0d40" x="42.599492" y="151.774359" style="stroke: #000000; stroke-width: 1.2"/>
      </g>
     </g>
     <g id="text_12">
      <text style="font-size: 9px; font-family: 'Arial', 'Helvetica', 'Liberation Sans', 'DejaVu Sans', sans-serif; text-anchor: end; fill: #4b6f8a" x="35.599492" y="155.050482" transform="rotate(-0 35.599492 155.050482)">90</text>
     </g>
    </g>
    <g id="ytick_4">
     <g id="line2d_12">
      <g>
       <use xlink:href="#m8ce96f0d40" x="42.599492" y="125.350448" style="stroke: #000000; stroke-width: 1.2"/>
      </g>
     </g>
     <g id="text_13">
      <text style="font-size: 9px; font-family: 'Arial', 'Helvetica', 'Liberation Sans', 'DejaVu Sans', sans-serif; text-anchor: end; fill: #4b6f8a" x="35.599492" y="128.626571" transform="rotate(-0 35.599492 128.626571)">92</text>
     </g>
    </g>
    <g id="ytick_5">
     <g id="line2d_13">
      <g>
       <use xlink:href="#m8ce96f0d40" x="42.599492" y="98.926536" style="stroke: #000000; stroke-width: 1.2"/>
      </g>
     </g>
     <g id="text_14">
      <text style="font-size: 9px; font-family: 'Arial', 'Helvetica', 'Liberation Sans', 'DejaVu Sans', sans-serif; text-anchor: end; fill: #4b6f8a" x="35.599492" y="102.202659" transform="rotate(-0 35.599492 102.202659)">94</text>
     </g>
    </g>
    <g id="ytick_6">
     <g id="line2d_14">
      <g>
       <use xlink:href="#m8ce96f0d40" x="42.599492" y="72.502625" style="stroke: #000000; stroke-width: 1.2"/>
      </g>
     </g>
     <g id="text_15">
      <text style="font-size: 9px; font-family: 'Arial', 'Helvetica', 'Liberation Sans', 'DejaVu Sans', sans-serif; text-anchor: end; fill: #4b6f8a" x="35.599492" y="75.778748" transform="rotate(-0 35.599492 75.778748)">96</text>
     </g>
    </g>
    <g id="ytick_7">
     <g id="line2d_15">
      <g>
       <use xlink:href="#m8ce96f0d40" x="42.599492" y="46.078713" style="stroke: #000000; stroke-width: 1.2"/>
      </g>
     </g>
     <g id="text_16">
      <text style="font-size: 9px; font-family: 'Arial', 'Helvetica', 'Liberation Sans', 'DejaVu Sans', sans-serif; text-anchor: end; fill: #4b6f8a" x="35.599492" y="49.354836" transform="rotate(-0 35.599492 49.354836)">98</text>
     </g>
    </g>
    <g id="ytick_8">
     <g id="line2d_16">
      <g>
       <use xlink:href="#m8ce96f0d40" x="42.599492" y="19.654802" style="stroke: #000000; stroke-width: 1.2"/>
      </g>
     </g>
     <g id="text_17">
      <text style="font-size: 9px; font-family: 'Arial', 'Helvetica', 'Liberation Sans', 'DejaVu Sans', sans-serif; text-anchor: end; fill: #4b6f8a" x="35.599492" y="22.930925" transform="rotate(-0 35.599492 22.930925)">100</text>
     </g>
    </g>
    <g id="text_18">
     <text style="font-size: 10px; font-family: 'Arial', 'Helvetica', 'Liberation Sans', 'DejaVu Sans', sans-serif; text-anchor: middle; fill: #4b6f8a" x="14.480273" y="119.173858" transform="rotate(-90 14.480273 119.173858)">Mass (%)</text>
    </g>
   </g>
   <g id="line2d_17">
    <path d="M 56.207548 19.403774 
L 61.155932 19.852981 
L 66.104316 20.711758 
L 71.0527 22.733187 
L 76.001084 22.825671 
L 80.949467 23.922263 
L 85.897851 25.428426 
L 90.846235 26.406111 
L 95.794619 25.943693 
L 100.743003 26.366475 
L 105.691387 26.300415 
L 110.639771 26.049388 
L 115.588155 26.643926 
L 120.536539 26.987437 
L 125.484923 26.234356 
L 130.433307 26.472171 
L 135.381691 26.247567 
L 140.330074 25.534122 
L 145.278458 25.877633 
L 150.226842 26.313627 
L 155.175226 26.181508 
L 160.12361 25.811573 
L 165.071994 26.207932 
L 170.020378 25.956904 
L 174.968762 25.692665 
L 179.917146 26.73641 
L 184.86553 26.498595 
L 189.813914 26.657138 
L 194.762297 25.692665 
L 199.710681 26.406111 
L 204.659065 26.273991 
L 209.607449 26.247567 
L 214.555833 26.273991 
L 219.504217 26.458959 
L 224.452601 26.340051 
L 229.400985 25.864421 
L 234.349369 26.036176 
L 239.297753 26.749622 
L 244.246137 27.040285 
L 249.19452 26.696774 
L 254.142904 26.155084 
L 259.091288 26.009752 
L 264.039672 26.551442 
L 268.988056 26.974225 
L 273.93644 26.630714 
L 278.884824 25.930481 
L 283.833208 26.353263 
L 288.781592 25.917269 
L 293.729976 26.300415 
L 298.67836 26.630714 
L 303.626743 25.230247 
L 308.575127 25.375578 
L 313.523511 26.141872 
L 318.471895 27.093133 
L 323.420279 26.075812 
L 328.368663 25.534122 
" clip-path="url(#p132f570e00)" style="fill: none; stroke: #4b6f8a; stroke-width: 1.5; stroke-linecap: square"/>
   </g>
   <g id="line2d_18">
    <path d="M 56.207548 19.601954 
L 61.155932 33.263116 
L 66.104316 47.162093 
L 71.0527 58.603647 
L 76.001084 72.330869 
L 80.949467 85.291798 
L 85.897851 84.921863 
L 90.846235 85.965608 
L 95.794619 84.987923 
L 100.743003 86.031667 
L 105.691387 86.309118 
L 110.639771 85.754216 
L 115.588155 103.854596 
L 120.536539 119.669307 
L 125.484923 135.061235 
L 130.433307 151.98575 
L 135.381691 167.840097 
L 140.330074 184.460738 
L 145.278458 201.808036 
L 150.226842 218.111589 
L 155.175226 218.4551 
L 160.12361 217.530263 
L 165.071994 217.992681 
L 170.020378 217.477415 
L 174.968762 217.834138 
L 179.917146 218.772187 
L 184.86553 217.596323 
L 189.813914 217.292448 
L 194.762297 218.019105 
L 199.710681 218.428676 
L 204.659065 216.56579 
L 209.607449 217.794502 
L 214.555833 218.640067 
L 219.504217 217.226388 
L 224.452601 217.609535 
L 229.400985 218.402252 
L 234.349369 218.256921 
L 239.297753 217.160328 
L 244.246137 217.292448 
L 249.19452 217.503839 
L 254.142904 218.124801 
L 259.091288 218.587219 
L 264.039672 216.856453 
L 268.988056 218.336192 
L 273.93644 217.886986 
L 278.884824 217.926622 
L 283.833208 217.635959 
L 288.781592 218.005893 
L 293.729976 218.38904 
L 298.67836 218.058741 
L 303.626743 218.534372 
L 308.575127 217.345296 
L 313.523511 218.309768 
L 318.471895 215.997676 
L 323.420279 215.997676 
L 328.368663 218.943942 
" clip-path="url(#p132f570e00)" style="fill: none; stroke: #c47b45; stroke-width: 1.5; stroke-linecap: square"/>
   </g>
   <g id="patch_3">
    <path d="M 42.599492 228.920951 
L 42.599492 9.426766 
" style="fill: none; stroke: #000000; stroke-width: 1.5; stroke-linejoin: miter; stroke-linecap: square"/>
   </g>
   <g id="patch_4">
    <path d="M 42.599492 228.920951 
L 341.976719 228.920951 
" style="fill: none; stroke: #000000; stroke-width: 1.5; stroke-linejoin: miter; stroke-linecap: square"/>
   </g>
   <g id="legend_1">
    <g id="line2d_19">
     <path d="M 251.746719 103.277569 
L 258.746719 103.277569 
L 265.746719 103.277569 
" style="fill: none; stroke: #4b6f8a; stroke-width: 1.5; stroke-linecap: square"/>
    </g>
    <g id="text_19">
     <!-- $\mathrm{Al_2O_3}$ TGA -->
     <g transform="translate(271.346719 105.727569)">
      <text>
       <tspan x="0" y="-0.6875" style="font-size: 7px; font-family: 'DejaVu Sans'">A</tspan>
       <tspan x="4.788574" y="-0.6875" style="font-size: 7px; font-family: 'DejaVu Sans'">l</tspan>
       <tspan x="10.109326" y="-0.6875" style="font-size: 7px; font-family: 'DejaVu Sans'">O</tspan>
       <tspan x="6.800391" y="0.362497" style="font-size: 4.9px; font-family: 'DejaVu Sans'">2</tspan>
       <tspan x="15.686084" y="0.362497" style="font-size: 4.9px; font-family: 'DejaVu Sans'">3</tspan>
       <tspan x="18.99502" y="-0.6875" style="font-size: 7px; font-family: 'Arial'"> </tspan>
       <tspan x="20.939844" y="-0.6875" style="font-size: 7px; font-family: 'Arial'">T</tspan>
       <tspan x="25.215723" y="-0.6875" style="font-size: 7px; font-family: 'Arial'">G</tspan>
       <tspan x="30.660547" y="-0.6875" style="font-size: 7px; font-family: 'Arial'">A</tspan>
      </text>
     </g>
    </g>
    <g id="line2d_20">
     <path d="M 251.746719 113.500714 
L 258.746719 113.500714 
L 265.746719 113.500714 
" style="fill: none; stroke: #c47b45; stroke-width: 1.5; stroke-linecap: square"/>
    </g>
    <g id="text_20">
     <!-- $\mathrm{ZrO_2}$ precursor TGA -->
     <g transform="translate(271.346719 115.950714)">
      <text>
       <tspan x="0" y="-0.796875" style="font-size: 7px; font-family: 'DejaVu Sans'">Z</tspan>
       <tspan x="4.79541" y="-0.796875" style="font-size: 7px; font-family: 'DejaVu Sans'">r</tspan>
       <tspan x="7.67334" y="-0.796875" style="font-size: 7px; font-family: 'DejaVu Sans'">O</tspan>
       <tspan x="13.250098" y="0.253122" style="font-size: 4.9px; font-family: 'DejaVu Sans'">2</tspan>
       <tspan x="16.559033" y="-0.796875" style="font-size: 7px; font-family: 'Arial'"> </tspan>
       <tspan x="18.503857" y="-0.796875" style="font-size: 7px; font-family: 'Arial'">p</tspan>
       <tspan x="22.396924" y="-0.796875" style="font-size: 7px; font-family: 'Arial'">r</tspan>
       <tspan x="24.727979" y="-0.796875" style="font-size: 7px; font-family: 'Arial'">e</tspan>
       <tspan x="28.621045" y="-0.796875" style="font-size: 7px; font-family: 'Arial'">c</tspan>
       <tspan x="32.121045" y="-0.796875" style="font-size: 7px; font-family: 'Arial'">u</tspan>
       <tspan x="36.014111" y="-0.796875" style="font-size: 7px; font-family: 'Arial'">r</tspan>
       <tspan x="38.345166" y="-0.796875" style="font-size: 7px; font-family: 'Arial'">s</tspan>
       <tspan x="41.845166" y="-0.796875" style="font-size: 7px; font-family: 'Arial'">o</tspan>
       <tspan x="45.738232" y="-0.796875" style="font-size: 7px; font-family: 'Arial'">r</tspan>
       <tspan x="48.069287" y="-0.796875" style="font-size: 7px; font-family: 'Arial'"> </tspan>
       <tspan x="50.014111" y="-0.796875" style="font-size: 7px; font-family: 'Arial'">T</tspan>
       <tspan x="54.28999" y="-0.796875" style="font-size: 7px; font-family: 'Arial'">G</tspan>
       <tspan x="59.734814" y="-0.796875" style="font-size: 7px; font-family: 'Arial'">A</tspan>
      </text>
     </g>
    </g>
    <g id="line2d_21">
     <path d="M 251.746719 123.793858 
L 258.746719 123.793858 
L 265.746719 123.793858 
" style="fill: none; stroke-dasharray: 4.44,1.92; stroke-dashoffset: 0; stroke: #4b6f8a; stroke-opacity: 0.7; stroke-width: 1.2"/>
    </g>
    <g id="text_21">
     <!-- $\mathrm{Al_2O_3}$ DSC -->
     <g transform="translate(271.346719 126.243858)">
      <text>
       <tspan x="0" y="-0.6875" style="font-size: 7px; font-family: 'DejaVu Sans'">A</tspan>
       <tspan x="4.788574" y="-0.6875" style="font-size: 7px; font-family: 'DejaVu Sans'">l</tspan>
       <tspan x="10.109326" y="-0.6875" style="font-size: 7px; font-family: 'DejaVu Sans'">O</tspan>
       <tspan x="6.800391" y="0.362497" style="font-size: 4.9px; font-family: 'DejaVu Sans'">2</tspan>
       <tspan x="15.686084" y="0.362497" style="font-size: 4.9px; font-family: 'DejaVu Sans'">3</tspan>
       <tspan x="18.99502" y="-0.6875" style="font-size: 7px; font-family: 'Arial'"> </tspan>
       <tspan x="20.939844" y="-0.6875" style="font-size: 7px; font-family: 'Arial'">D</tspan>
       <tspan x="25.99502" y="-0.6875" style="font-size: 7px; font-family: 'Arial'">S</tspan>
       <tspan x="30.663965" y="-0.6875" style="font-size: 7px; font-family: 'Arial'">C</tspan>
      </text>
     </g>
    </g>
    <g id="line2d_22">
     <path d="M 251.746719 134.017003 
L 258.746719 134.017003 
L 265.746719 134.017003 
" style="fill: none; stroke-dasharray: 4.44,1.92; stroke-dashoffset: 0; stroke: #c47b45; stroke-opacity: 0.7; stroke-width: 1.2"/>
    </g>
    <g id="text_22">
     <!-- $\mathrm{ZrO_2}$ DSC -->
     <g transform="translate(271.346719 136.467003)">
      <text>
       <tspan x="0" y="-0.796875" style="font-size: 7px; font-family: 'DejaVu Sans'">Z</tspan>
       <tspan x="4.79541" y="-0.796875" style="font-size: 7px; font-family: 'DejaVu Sans'">r</tspan>
       <tspan x="7.67334" y="-0.796875" style="font-size: 7px; font-family: 'DejaVu Sans'">O</tspan>
       <tspan x="13.250098" y="0.253122" style="font-size: 4.9px; font-family: 'DejaVu Sans'">2</tspan>
       <tspan x="16.559033" y="-0.796875" style="font-size: 7px; font-family: 'Arial'"> </tspan>
       <tspan x="18.503857" y="-0.796875" style="font-size: 7px; font-family: 'Arial'">D</tspan>
       <tspan x="23.559033" y="-0.796875" style="font-size: 7px; font-family: 'Arial'">S</tspan>
       <tspan x="28.227979" y="-0.796875" style="font-size: 7px; font-family: 'Arial'">C</tspan>
      </text>
     </g>
    </g>
   </g>
  </g>
  <g id="axes_2">
   <g id="matplotlib.axis_3">
    <g id="ytick_9">
     <g id="line2d_23">
      <defs>
       <path id="me72269f37a" d="M 0 0 
L 3.5 0 
" style="stroke: #000000; stroke-width: 1.2"/>
      </defs>
      <g>
       <use xlink:href="#me72269f37a" x="341.976719" y="211.256739" style="stroke: #000000; stroke-width: 1.2"/>
      </g>
     </g>
     <g id="text_23">
      <text style="font-size: 9px; font-family: 'Arial', 'Helvetica', 'Liberation Sans', 'DejaVu Sans', sans-serif; text-anchor: start" x="348.976719" y="214.532862" transform="rotate(-0 348.976719 214.532862)">−1.0</text>
     </g>
    </g>
    <g id="ytick_10">
     <g id="line2d_24">
      <g>
       <use xlink:href="#me72269f37a" x="341.976719" y="183.997153" style="stroke: #000000; stroke-width: 1.2"/>
      </g>
     </g>
     <g id="text_24">
      <text style="font-size: 9px; font-family: 'Arial', 'Helvetica', 'Liberation Sans', 'DejaVu Sans', sans-serif; text-anchor: start" x="348.976719" y="187.273276" transform="rotate(-0 348.976719 187.273276)">−0.5</text>
     </g>
    </g>
    <g id="ytick_11">
     <g id="line2d_25">
      <g>
       <use xlink:href="#me72269f37a" x="341.976719" y="156.737568" style="stroke: #000000; stroke-width: 1.2"/>
      </g>
     </g>
     <g id="text_25">
      <text style="font-size: 9px; font-family: 'Arial', 'Helvetica', 'Liberation Sans', 'DejaVu Sans', sans-serif; text-anchor: start" x="348.976719" y="160.013691" transform="rotate(-0 348.976719 160.013691)">0.0</text>
     </g>
    </g>
    <g id="ytick_12">
     <g id="line2d_26">
      <g>
       <use xlink:href="#me72269f37a" x="341.976719" y="129.477982" style="stroke: #000000; stroke-width: 1.2"/>
      </g>
     </g>
     <g id="text_26">
      <text style="font-size: 9px; font-family: 'Arial', 'Helvetica', 'Liberation Sans', 'DejaVu Sans', sans-serif; text-anchor: start" x="348.976719" y="132.754105" transform="rotate(-0 348.976719 132.754105)">0.5</text>
     </g>
    </g>
    <g id="ytick_13">
     <g id="line2d_27">
      <g>
       <use xlink:href="#me72269f37a" x="341.976719" y="102.218396" style="stroke: #000000; stroke-width: 1.2"/>
      </g>
     </g>
     <g id="text_27">
      <text style="font-size: 9px; font-family: 'Arial', 'Helvetica', 'Liberation Sans', 'DejaVu Sans', sans-serif; text-anchor: start" x="348.976719" y="105.494519" transform="rotate(-0 348.976719 105.494519)">1.0</text>
     </g>
    </g>
    <g id="ytick_14">
     <g id="line2d_28">
      <g>
       <use xlink:href="#me72269f37a" x="341.976719" y="74.95881" style="stroke: #000000; stroke-width: 1.2"/>
      </g>
     </g>
     <g id="text_28">
      <text style="font-size: 9px; font-family: 'Arial', 'Helvetica', 'Liberation Sans', 'DejaVu Sans', sans-serif; text-anchor: start" x="348.976719" y="78.234933" transform="rotate(-0 348.976719 78.234933)">1.5</text>
     </g>
    </g>
    <g id="ytick_15">
     <g id="line2d_29">
      <g>
       <use xlink:href="#me72269f37a" x="341.976719" y="47.699224" style="stroke: #000000; stroke-width: 1.2"/>
      </g>
     </g>
     <g id="text_29">
      <text style="font-size: 9px; font-family: 'Arial', 'Helvetica', 'Liberation Sans', 'DejaVu Sans', sans-serif; text-anchor: start" x="348.976719" y="50.975347" transform="rotate(-0 348.976719 50.975347)">2.0</text>
     </g>
    </g>
    <g id="ytick_16">
     <g id="line2d_30">
      <g>
       <use xlink:href="#me72269f37a" x="341.976719" y="20.439639" style="stroke: #000000; stroke-width: 1.2"/>
      </g>
     </g>
     <g id="text_30">
      <text style="font-size: 9px; font-family: 'Arial', 'Helvetica', 'Liberation Sans', 'DejaVu Sans', sans-serif; text-anchor: start" x="348.976719" y="23.715762" transform="rotate(-0 348.976719 23.715762)">2.5</text>
     </g>
    </g>
    <g id="text_31">
     <text style="font-size: 10px; font-family: 'Arial', 'Helvetica', 'Liberation Sans', 'DejaVu Sans', sans-serif; text-anchor: middle; fill: #9e9e9e" x="378.023555" y="119.173858" transform="rotate(-90 378.023555 119.173858)">Heat Flow (mW/mg)</text>
    </g>
   </g>
   <g id="line2d_31">
    <path d="M 56.207548 156.628529 
L 61.155932 155.374588 
L 66.104316 158.155066 
L 71.0527 161.317178 
L 76.001084 167.968517 
L 80.949467 172.111974 
L 85.897851 164.806405 
L 90.846235 158.5367 
L 95.794619 155.429107 
L 100.743003 156.683048 
L 105.691387 156.464972 
L 110.639771 156.301414 
L 115.588155 158.373143 
L 120.536539 156.137857 
L 125.484923 154.883916 
L 130.433307 157.664393 
L 135.381691 154.829396 
L 140.330074 157.991508 
L 145.278458 156.901125 
L 150.226842 156.519491 
L 155.175226 155.91978 
L 160.12361 155.429107 
L 165.071994 157.391798 
L 170.020378 156.464972 
L 174.968762 156.410452 
L 179.917146 156.301414 
L 184.86553 156.737568 
L 189.813914 155.756222 
L 194.762297 157.282759 
L 199.710681 157.010163 
L 204.659065 157.010163 
L 209.607449 158.155066 
L 214.555833 157.446317 
L 219.504217 156.137857 
L 224.452601 154.829396 
L 229.400985 157.282759 
L 234.349369 158.972854 
L 239.297753 158.155066 
L 244.246137 157.173721 
L 249.19452 155.538146 
L 254.142904 155.756222 
L 259.091288 157.282759 
L 264.039672 156.464972 
L 268.988056 155.974299 
L 273.93644 157.609874 
L 278.884824 157.555355 
L 283.833208 156.410452 
L 288.781592 158.5367 
L 293.729976 157.827951 
L 298.67836 157.119202 
L 303.626743 156.246895 
L 308.575127 155.592665 
L 313.523511 157.337278 
L 318.471895 156.683048 
L 323.420279 156.57401 
L 328.368663 156.901125 
" clip-path="url(#p132f570e00)" style="fill: none; stroke-dasharray: 4.44,1.92; stroke-dashoffset: 0; stroke: #4b6f8a; stroke-opacity: 0.7; stroke-width: 1.2"/>
   </g>
   <g id="line2d_32">
    <path d="M 56.207548 158.264104 
L 61.155932 158.972854 
L 66.104316 159.245449 
L 71.0527 188.631283 
L 76.001084 218.943942 
L 80.949467 172.875242 
L 85.897851 157.664393 
L 90.846235 156.792087 
L 95.794619 155.374588 
L 100.743003 156.464972 
L 105.691387 153.520936 
L 110.639771 155.810742 
L 115.588155 153.902571 
L 120.536539 127.678849 
L 125.484923 64.218533 
L 130.433307 19.403774 
L 135.381691 67.380645 
L 140.330074 128.169522 
L 145.278458 151.503727 
L 150.226842 156.246895 
L 155.175226 156.301414 
L 160.12361 157.609874 
L 165.071994 156.846606 
L 170.020378 158.427662 
L 174.968762 158.100547 
L 179.917146 155.647184 
L 184.86553 156.028818 
L 189.813914 158.863815 
L 194.762297 158.5367 
L 199.710681 156.683048 
L 204.659065 154.720358 
L 209.607449 157.609874 
L 214.555833 158.209585 
L 219.504217 156.683048 
L 224.452601 155.91978 
L 229.400985 154.774877 
L 234.349369 158.918334 
L 239.297753 153.466417 
L 244.246137 156.028818 
L 249.19452 156.464972 
L 254.142904 156.464972 
L 259.091288 157.446317 
L 264.039672 159.790641 
L 268.988056 161.971408 
L 273.93644 173.420434 
L 278.884824 193.919642 
L 283.833208 199.153483 
L 288.781592 189.885224 
L 293.729976 169.0589 
L 298.67836 160.717467 
L 303.626743 157.664393 
L 308.575127 157.064683 
L 313.523511 158.318623 
L 318.471895 156.792087 
L 323.420279 158.100547 
L 328.368663 160.335833 
" clip-path="url(#p132f570e00)" style="fill: none; stroke-dasharray: 4.44,1.92; stroke-dashoffset: 0; stroke: #c47b45; stroke-opacity: 0.7; stroke-width: 1.2"/>
   </g>
   <g id="patch_5">
    <path d="M 42.599492 228.920951 
L 42.599492 9.426766 
" style="fill: none; stroke: #000000; stroke-width: 1.5; stroke-linejoin: miter; stroke-linecap: square"/>
   </g>
   <g id="patch_6">
    <path d="M 42.599492 228.920951 
L 341.976719 228.920951 
" style="fill: none; stroke: #000000; stroke-width: 1.5; stroke-linejoin: miter; stroke-linecap: square"/>
   </g>
   <g id="text_32">
    <text style="font-size: 7px; font-family: 'Arial', 'Helvetica', 'Liberation Sans', 'DejaVu Sans', sans-serif; fill: #c47b45" transform="translate(117.204947 12.82085)">organics</text>
    <text style="font-size: 7px; font-family: 'Arial', 'Helvetica', 'Liberation Sans', 'DejaVu Sans', sans-serif; fill: #c47b45" transform="translate(118.435963 20.439639)">burn-off</text>
   </g>
   <g id="text_33">
    <text style="font-size: 7px; font-family: 'Arial', 'Helvetica', 'Liberation Sans', 'DejaVu Sans', sans-serif; fill: #c47b45" transform="translate(273.308219 192.734252)">phase</text>
    <text style="font-size: 7px; font-family: 'Arial', 'Helvetica', 'Liberation Sans', 'DejaVu Sans', sans-serif; fill: #c47b45" transform="translate(268.642828 200.352905)">transition</text>
   </g>
  </g>
 </g>
 <defs>
  <clipPath id="p132f570e00">
   <rect x="42.599492" y="9.426766" width="299.377227" height="219.494185"/>
  </clipPath>
 </defs>
</svg>
