<?xml version="1.0" encoding="utf-8" standalone="no"?>
<!DOCTYPE svg PUBLIC "-//W3C//DTD SVG 1.1//EN"
  "http://www.w3.org/Graphics/SVG/1.1/DTD/svg11.dtd">
<svg xmlns:xlink="http://www.w3.org/1999/xlink" width="352.194531pt" height="193.641246pt" viewBox="0 0 352.194531 193.641246" xmlns="http://www.w3.org/2000/svg" version="1.1">
 <metadata>
  <rdf:RDF xmlns:dc="http://purl.org/dc/elements/1.1/" xmlns:cc="http://creativecommons.org/ns#" xmlns:rdf="http://www.w3.org/1999/02/22-rdf-syntax-ns#">
   <cc:Work>
    <dc:type rdf:resource="http://purl.org/dc/dcmitype/StillImage"/>
    <dc:date>2026-06-19T17:16:23.551987</dc:date>
    <dc:format>image/svg+xml</dc:format>
    <dc:creator>
     <cc:Agent>
      <dc:title>Matplotlib v3.11.0, https://matplotlib.org/</dc:title>
     </cc:Agent>
    </dc:creator>
   </cc:Work>
  </rdf:RDF>
 </metadata>
 <defs>
  <style type="text/css">*{stroke-linejoin: round; stroke-linecap: butt}</style>
 </defs>
 <g id="figure_1">
  <g id="patch_1">
   <path d="M 0 193.641246 
L 352.194531 193.641246 
L 352.194531 0 
L 0 0 
z
" style="fill: #ffffff"/>
  </g>
  <g id="axes_1">
   <g id="patch_2">
    <path d="M 43.514531 156.694957 
L 344.994531 156.694957 
L 344.994531 7.2 
L 43.514531 7.2 
z
" style="fill: #ffffff"/>
   </g>
   <g id="matplotlib.axis_1">
    <g id="xtick_1">
     <g id="line2d_1">
      <defs>
       <path id="m68d2c69dda" d="M 0 0 
L 0 3.5 
" style="stroke: #000000; stroke-width: 1.2"/>
      </defs>
      <g>
       <use xlink:href="#m68d2c69dda" x="57.969111" y="156.694957" style="stroke: #000000; stroke-width: 1.2"/>
      </g>
     </g>
     <g id="text_1">
      <text style="font-size: 9px; font-family: 'Arial', 'Helvetica', 'Liberation Sans', 'DejaVu Sans', sans-serif; text-anchor: middle" x="57.969111" y="170.247203" transform="rotate(-0 57.969111 170.247203)">100</text>
     </g>
    </g>
    <g id="xtick_2">
     <g id="line2d_2">
      <g>
       <use xlink:href="#m68d2c69dda" x="112.38533" y="156.694957" style="stroke: #000000; stroke-width: 1.2"/>
      </g>
     </g>
     <g id="text_2">
      <text style="font-size: 9px; font-family: 'Arial', 'Helvetica', 'Liberation Sans', 'DejaVu Sans', sans-serif; text-anchor: middle" x="112.38533" y="170.247203" transform="rotate(-0 112.38533 170.247203)">200</text>
     </g>
    </g>
    <g id="xtick_3">
     <g id="line2d_3">
      <g>
       <use xlink:href="#m68d2c69dda" x="166.801549" y="156.694957" style="stroke: #000000; stroke-width: 1.2"/>
      </g>
     </g>
     <g id="text_3">
      <text style="font-size: 9px; font-family: 'Arial', 'Helvetica', 'Liberation Sans', 'DejaVu Sans', sans-serif; text-anchor: middle" x="166.801549" y="170.247203" transform="rotate(-0 166.801549 170.247203)">300</text>
     </g>
    </g>
    <g id="xtick_4">
     <g id="line2d_4">
      <g>
       <use xlink:href="#m68d2c69dda" x="221.217768" y="156.694957" style="stroke: #000000; stroke-width: 1.2"/>
      </g>
     </g>
     <g id="text_4">
      <text style="font-size: 9px; font-family: 'Arial', 'Helvetica', 'Liberation Sans', 'DejaVu Sans', sans-serif; text-anchor: middle" x="221.217768" y="170.247203" transform="rotate(-0 221.217768 170.247203)">400</text>
     </g>
    </g>
    <g id="xtick_5">
     <g id="line2d_5">
      <g>
       <use xlink:href="#m68d2c69dda" x="275.633986" y="156.694957" style="stroke: #000000; stroke-width: 1.2"/>
      </g>
     </g>
     <g id="text_5">
      <text style="font-size: 9px; font-family: 'Arial', 'Helvetica', 'Liberation Sans', 'DejaVu Sans', sans-serif; text-anchor: middle" x="275.633986" y="170.247203" transform="rotate(-0 275.633986 170.247203)">500</text>
     </g>
    </g>
    <g id="xtick_6">
     <g id="line2d_6">
      <g>
       <use xlink:href="#m68d2c69dda" x="330.050205" y="156.694957" style="stroke: #000000; stroke-width: 1.2"/>
      </g>
     </g>
     <g id="text_6">
      <text style="font-size: 9px; font-family: 'Arial', 'Helvetica', 'Liberation Sans', 'DejaVu Sans', sans-serif; text-anchor: middle" x="330.050205" y="170.247203" transform="rotate(-0 330.050205 170.247203)">600</text>
     </g>
    </g>
    <g id="text_7">
     <!-- $Z'$ (Ω) -->
     <g transform="translate(180.904531 184.241246)">
      <text>
       <tspan x="0" y="-0.954375" style="font-style: oblique; font-size: 10px; font-family: 'DejaVu Sans'">Z</tspan>
       <tspan x="7.553138" y="-5.084375" style="font-size: 7px; font-family: 'cmsy10'">0</tspan>
       <tspan x="9.750892" y="-0.954375" style="font-size: 10px; font-family: 'Arial'"> </tspan>
       <tspan x="12.529212" y="-0.954375" style="font-size: 10px; font-family: 'Arial'">(</tspan>
       <tspan x="15.85929" y="-0.954375" style="font-size: 10px; font-family: 'Arial'">Ω</tspan>
       <tspan x="23.334876" y="-0.954375" style="font-size: 10px; font-family: 'Arial'">)</tspan>
      </text>
     </g>
    </g>
   </g>
   <g id="matplotlib.axis_2">
    <g id="ytick_1">
     <g id="line2d_7">
      <defs>
       <path id="mbd1a03ea5c" d="M 0 0 
L -3.5 0 
" style="stroke: #000000; stroke-width: 1.2"/>
      </defs>
      <g>
       <use xlink:href="#mbd1a03ea5c" x="43.514531" y="148.767874" style="stroke: #000000; stroke-width: 1.2"/>
      </g>
     </g>
     <g id="text_8">
      <text style="font-size: 9px; font-family: 'Arial', 'Helvetica', 'Liberation Sans', 'DejaVu Sans', sans-serif; text-anchor: end" x="36.514531" y="152.043997" transform="rotate(-0 36.514531 152.043997)">0</text>
     </g>
    </g>
    <g id="ytick_2">
     <g id="line2d_8">
      <g>
       <use xlink:href="#mbd1a03ea5c" x="43.514531" y="121.559765" style="stroke: #000000; stroke-width: 1.2"/>
      </g>
     </g>
     <g id="text_9">
      <text style="font-size: 9px; font-family: 'Arial', 'Helvetica', 'Liberation Sans', 'DejaVu Sans', sans-serif; text-anchor: end" x="36.514531" y="124.835888" transform="rotate(-0 36.514531 124.835888)">50</text>
     </g>
    </g>
    <g id="ytick_3">
     <g id="line2d_9">
      <g>
       <use xlink:href="#mbd1a03ea5c" x="43.514531" y="94.351656" style="stroke: #000000; stroke-width: 1.2"/>
      </g>
     </g>
     <g id="text_10">
      <text style="font-size: 9px; font-family: 'Arial', 'Helvetica', 'Liberation Sans', 'DejaVu Sans', sans-serif; text-anchor: end" x="36.514531" y="97.627779" transform="rotate(-0 36.514531 97.627779)">100</text>
     </g>
    </g>
    <g id="ytick_4">
     <g id="line2d_10">
      <g>
       <use xlink:href="#mbd1a03ea5c" x="43.514531" y="67.143546" style="stroke: #000000; stroke-width: 1.2"/>
      </g>
     </g>
     <g id="text_11">
      <text style="font-size: 9px; font-family: 'Arial', 'Helvetica', 'Liberation Sans', 'DejaVu Sans', sans-serif; text-anchor: end" x="36.514531" y="70.419669" transform="rotate(-0 36.514531 70.419669)">150</text>
     </g>
    </g>
    <g id="ytick_5">
     <g id="line2d_11">
      <g>
       <use xlink:href="#mbd1a03ea5c" x="43.514531" y="39.935437" style="stroke: #000000; stroke-width: 1.2"/>
      </g>
     </g>
     <g id="text_12">
      <text style="font-size: 9px; font-family: 'Arial', 'Helvetica', 'Liberation Sans', 'DejaVu Sans', sans-serif; text-anchor: end" x="36.514531" y="43.21156" transform="rotate(-0 36.514531 43.21156)">200</text>
     </g>
    </g>
    <g id="ytick_6">
     <g id="line2d_12">
      <g>
       <use xlink:href="#mbd1a03ea5c" x="43.514531" y="12.727327" style="stroke: #000000; stroke-width: 1.2"/>
      </g>
     </g>
     <g id="text_13">
      <text style="font-size: 9px; font-family: 'Arial', 'Helvetica', 'Liberation Sans', 'DejaVu Sans', sans-serif; text-anchor: end" x="36.514531" y="16.00345" transform="rotate(-0 36.514531 16.00345)">250</text>
     </g>
    </g>
    <g id="text_14">
     <!-- $-Z''$ (Ω) -->
     <g transform="translate(15.3 100.447478) rotate(-90)">
      <text>
       <tspan x="0" y="-0.954375" style="font-size: 10px; font-family: 'DejaVu Sans'">−</tspan>
       <tspan x="8.378906" y="-0.954375" style="font-style: oblique; font-size: 10px; font-family: 'DejaVu Sans'">Z</tspan>
       <tspan x="15.932044" y="-5.084375" style="font-size: 7px; font-family: 'cmsy10'">0</tspan>
       <tspan x="17.856361" y="-5.084375" style="font-size: 7px; font-family: 'cmsy10'">0</tspan>
       <tspan x="20.054115" y="-0.954375" style="font-size: 10px; font-family: 'Arial'"> </tspan>
       <tspan x="22.832435" y="-0.954375" style="font-size: 10px; font-family: 'Arial'">(</tspan>
       <tspan x="26.162513" y="-0.954375" style="font-size: 10px; font-family: 'Arial'">Ω</tspan>
       <tspan x="33.638099" y="-0.954375" style="font-size: 10px; font-family: 'Arial'">)</tspan>
      </text>
     </g>
    </g>
   </g>
   <g id="line2d_13">
    <path d="M 59.041111 137.971696 
L 57.218168 134.924388 
L 57.865721 133.694582 
L 59.128177 128.965812 
L 59.971628 123.796271 
L 61.517049 120.183035 
L 63.383525 113.740154 
L 65.663565 105.70832 
L 70.838547 94.23194 
L 75.191845 81.732534 
L 84.90514 68.26452 
L 98.639793 53.017096 
L 116.520963 35.34815 
L 142.194535 22.288257 
L 169.652959 14.539388 
L 202.863177 13.995225 
L 233.330818 19.083142 
L 260.119922 30.292883 
L 281.870085 46.242277 
L 296.143459 60.559184 
L 308.479616 75.153614 
L 316.897805 88.349547 
L 322.31766 100.778211 
L 323.629091 109.609963 
L 325.881923 117.429574 
L 328.613617 124.721347 
L 328.727891 130.239152 
L 329.010855 133.068795 
L 328.744216 136.301119 
L 329.843423 140.13202 
L 329.79989 141.710091 
L 330.115505 142.896364 
L 329.201312 146.188545 
L 329.168662 144.365602 
L 330.039322 144.512526 
L 329.087038 144.99683 
L 331.165738 147.168037 
L 328.673475 147.380261 
L 330.409352 147.755733 
L 328.99453 148.169296 
L 330.224337 147.021114 
L 330.442002 147.467327 
L 329.587667 149.175996 
L 329.065272 148.980098 
L 329.266612 148.256362 
L 330.126388 148.289012 
L 329.843423 149.899732 
L 330.958956 147.168037 
L 330.425677 149.469843 
L 330.017555 148.637275 
L 330.311403 149.05628 
L 329.984906 149.192321 
L 331.143971 148.278128 
L 330.997047 149.578676 
L 329.576784 148.191062 
L 330.159038 149.551468 
L 330.855565 149.45896 
L 330.001231 148.403286 
L 329.919606 148.844057 
L 331.290895 147.472768 
" clip-path="url(#p4a0c02e9de)" style="fill: none; stroke: #b85450; stroke-width: 1.2; stroke-linecap: square"/>
    <defs>
     <path id="mb8d023c79c" d="M 0 1.5 
C 0.397805 1.5 0.77937 1.341951 1.06066 1.06066 
C 1.341951 0.77937 1.5 0.397805 1.5 0 
C 1.5 -0.397805 1.341951 -0.77937 1.06066 -1.06066 
C 0.77937 -1.341951 0.397805 -1.5 0 -1.5 
C -0.397805 -1.5 -0.77937 -1.341951 -1.06066 -1.06066 
C -1.341951 -0.77937 -1.5 -0.397805 -1.5 0 
C -1.5 0.397805 -1.341951 0.77937 -1.06066 1.06066 
C -0.77937 1.341951 -0.397805 1.5 0 1.5 
z
" style="stroke: #b85450"/>
    </defs>
    <g clip-path="url(#p4a0c02e9de)">
     <use xlink:href="#mb8d023c79c" x="59.041111" y="137.971696" style="fill: #b85450; stroke: #b85450"/>
     <use xlink:href="#mb8d023c79c" x="57.218168" y="134.924388" style="fill: #b85450; stroke: #b85450"/>
     <use xlink:href="#mb8d023c79c" x="57.865721" y="133.694582" style="fill: #b85450; stroke: #b85450"/>
     <use xlink:href="#mb8d023c79c" x="59.128177" y="128.965812" style="fill: #b85450; stroke: #b85450"/>
     <use xlink:href="#mb8d023c79c" x="59.971628" y="123.796271" style="fill: #b85450; stroke: #b85450"/>
     <use xlink:href="#mb8d023c79c" x="61.517049" y="120.183035" style="fill: #b85450; stroke: #b85450"/>
     <use xlink:href="#mb8d023c79c" x="63.383525" y="113.740154" style="fill: #b85450; stroke: #b85450"/>
     <use xlink:href="#mb8d023c79c" x="65.663565" y="105.70832" style="fill: #b85450; stroke: #b85450"/>
     <use xlink:href="#mb8d023c79c" x="70.838547" y="94.23194" style="fill: #b85450; stroke: #b85450"/>
     <use xlink:href="#mb8d023c79c" x="75.191845" y="81.732534" style="fill: #b85450; stroke: #b85450"/>
     <use xlink:href="#mb8d023c79c" x="84.90514" y="68.26452" style="fill: #b85450; stroke: #b85450"/>
     <use xlink:href="#mb8d023c79c" x="98.639793" y="53.017096" style="fill: #b85450; stroke: #b85450"/>
     <use xlink:href="#mb8d023c79c" x="116.520963" y="35.34815" style="fill: #b85450; stroke: #b85450"/>
     <use xlink:href="#mb8d023c79c" x="142.194535" y="22.288257" style="fill: #b85450; stroke: #b85450"/>
     <use xlink:href="#mb8d023c79c" x="169.652959" y="14.539388" style="fill: #b85450; stroke: #b85450"/>
     <use xlink:href="#mb8d023c79c" x="202.863177" y="13.995225" style="fill: #b85450; stroke: #b85450"/>
     <use xlink:href="#mb8d023c79c" x="233.330818" y="19.083142" style="fill: #b85450; stroke: #b85450"/>
     <use xlink:href="#mb8d023c79c" x="260.119922" y="30.292883" style="fill: #b85450; stroke: #b85450"/>
     <use xlink:href="#mb8d023c79c" x="281.870085" y="46.242277" style="fill: #b85450; stroke: #b85450"/>
     <use xlink:href="#mb8d023c79c" x="296.143459" y="60.559184" style="fill: #b85450; stroke: #b85450"/>
     <use xlink:href="#mb8d023c79c" x="308.479616" y="75.153614" style="fill: #b85450; stroke: #b85450"/>
     <use xlink:href="#mb8d023c79c" x="316.897805" y="88.349547" style="fill: #b85450; stroke: #b85450"/>
     <use xlink:href="#mb8d023c79c" x="322.31766" y="100.778211" style="fill: #b85450; stroke: #b85450"/>
     <use xlink:href="#mb8d023c79c" x="323.629091" y="109.609963" style="fill: #b85450; stroke: #b85450"/>
     <use xlink:href="#mb8d023c79c" x="325.881923" y="117.429574" style="fill: #b85450; stroke: #b85450"/>
     <use xlink:href="#mb8d023c79c" x="328.613617" y="124.721347" style="fill: #b85450; stroke: #b85450"/>
     <use xlink:href="#mb8d023c79c" x="328.727891" y="130.239152" style="fill: #b85450; stroke: #b85450"/>
     <use xlink:href="#mb8d023c79c" x="329.010855" y="133.068795" style="fill: #b85450; stroke: #b85450"/>
     <use xlink:href="#mb8d023c79c" x="328.744216" y="136.301119" style="fill: #b85450; stroke: #b85450"/>
     <use xlink:href="#mb8d023c79c" x="329.843423" y="140.13202" style="fill: #b85450; stroke: #b85450"/>
     <use xlink:href="#mb8d023c79c" x="329.79989" y="141.710091" style="fill: #b85450; stroke: #b85450"/>
     <use xlink:href="#mb8d023c79c" x="330.115505" y="142.896364" style="fill: #b85450; stroke: #b85450"/>
     <use xlink:href="#mb8d023c79c" x="329.201312" y="146.188545" style="fill: #b85450; stroke: #b85450"/>
     <use xlink:href="#mb8d023c79c" x="329.168662" y="144.365602" style="fill: #b85450; stroke: #b85450"/>
     <use xlink:href="#mb8d023c79c" x="330.039322" y="144.512526" style="fill: #b85450; stroke: #b85450"/>
     <use xlink:href="#mb8d023c79c" x="329.087038" y="144.99683" style="fill: #b85450; stroke: #b85450"/>
     <use xlink:href="#mb8d023c79c" x="331.165738" y="147.168037" style="fill: #b85450; stroke: #b85450"/>
     <use xlink:href="#mb8d023c79c" x="328.673475" y="147.380261" style="fill: #b85450; stroke: #b85450"/>
     <use xlink:href="#mb8d023c79c" x="330.409352" y="147.755733" style="fill: #b85450; stroke: #b85450"/>
     <use xlink:href="#mb8d023c79c" x="328.99453" y="148.169296" style="fill: #b85450; stroke: #b85450"/>
     <use xlink:href="#mb8d023c79c" x="330.224337" y="147.021114" style="fill: #b85450; stroke: #b85450"/>
     <use xlink:href="#mb8d023c79c" x="330.442002" y="147.467327" style="fill: #b85450; stroke: #b85450"/>
     <use xlink:href="#mb8d023c79c" x="329.587667" y="149.175996" style="fill: #b85450; stroke: #b85450"/>
     <use xlink:href="#mb8d023c79c" x="329.065272" y="148.980098" style="fill: #b85450; stroke: #b85450"/>
     <use xlink:href="#mb8d023c79c" x="329.266612" y="148.256362" style="fill: #b85450; stroke: #b85450"/>
     <use xlink:href="#mb8d023c79c" x="330.126388" y="148.289012" style="fill: #b85450; stroke: #b85450"/>
     <use xlink:href="#mb8d023c79c" x="329.843423" y="149.899732" style="fill: #b85450; stroke: #b85450"/>
     <use xlink:href="#mb8d023c79c" x="330.958956" y="147.168037" style="fill: #b85450; stroke: #b85450"/>
     <use xlink:href="#mb8d023c79c" x="330.425677" y="149.469843" style="fill: #b85450; stroke: #b85450"/>
     <use xlink:href="#mb8d023c79c" x="330.017555" y="148.637275" style="fill: #b85450; stroke: #b85450"/>
     <use xlink:href="#mb8d023c79c" x="330.311403" y="149.05628" style="fill: #b85450; stroke: #b85450"/>
     <use xlink:href="#mb8d023c79c" x="329.984906" y="149.192321" style="fill: #b85450; stroke: #b85450"/>
     <use xlink:href="#mb8d023c79c" x="331.143971" y="148.278128" style="fill: #b85450; stroke: #b85450"/>
     <use xlink:href="#mb8d023c79c" x="330.997047" y="149.578676" style="fill: #b85450; stroke: #b85450"/>
     <use xlink:href="#mb8d023c79c" x="329.576784" y="148.191062" style="fill: #b85450; stroke: #b85450"/>
     <use xlink:href="#mb8d023c79c" x="330.159038" y="149.551468" style="fill: #b85450; stroke: #b85450"/>
     <use xlink:href="#mb8d023c79c" x="330.855565" y="149.45896" style="fill: #b85450; stroke: #b85450"/>
     <use xlink:href="#mb8d023c79c" x="330.001231" y="148.403286" style="fill: #b85450; stroke: #b85450"/>
     <use xlink:href="#mb8d023c79c" x="329.919606" y="148.844057" style="fill: #b85450; stroke: #b85450"/>
     <use xlink:href="#mb8d023c79c" x="331.290895" y="147.472768" style="fill: #b85450; stroke: #b85450"/>
    </g>
   </g>
   <g id="patch_3">
    <path d="M 43.514531 156.694957 
L 43.514531 7.2 
" style="fill: none; stroke: #000000; stroke-width: 1.5; stroke-linejoin: miter; stroke-linecap: square"/>
   </g>
   <g id="patch_4">
    <path d="M 43.514531 156.694957 
L 344.994531 156.694957 
" style="fill: none; stroke: #000000; stroke-width: 1.5; stroke-linejoin: miter; stroke-linecap: square"/>
   </g>
   <g id="text_15">
    <g id="patch_5">
     <path d="M 209.328531 49.438619 
L 311.597281 49.438619 
Q 313.997281 49.438619 313.997281 47.038619 
L 313.997281 29.624244 
Q 313.997281 27.224244 311.597281 27.224244 
L 209.328531 27.224244 
Q 206.928531 27.224244 206.928531 29.624244 
L 206.928531 47.038619 
Q 206.928531 49.438619 209.328531 49.438619 
z
" style="fill: #ffffff; opacity: 0.8; stroke: #9e9e9e; stroke-linejoin: miter"/>
    </g>
    <text style="font-size: 8px; font-family: 'Arial', 'Helvetica', 'Liberation Sans', 'DejaVu Sans', sans-serif" transform="translate(209.328531 36.048072)">High-freq arc: grain</text>
    <text style="font-size: 8px; font-family: 'Arial', 'Helvetica', 'Liberation Sans', 'DejaVu Sans', sans-serif" transform="translate(209.328531 44.755259)">Low-freq arc: grain boundary</text>
   </g>
  </g>
 </g>
 <defs>
  <clipPath id="p4a0c02e9de">
   <rect x="43.514531" y="7.2" width="301.48" height="149.494957"/>
  </clipPath>
 </defs>
</svg>
